<?xml version="1.0" encoding="utf-8"?>
<!-- Generator: Adobe Illustrator 19.2.1, SVG Export Plug-In . SVG Version: 6.00 Build 0)  -->
<svg version="1.1" id="Layer_1" xmlns="http://www.w3.org/2000/svg" xmlns:xlink="http://www.w3.org/1999/xlink" x="0px" y="0px"
	 width="80.5px" height="91.7px" viewBox="0 0 80.5 91.7" style="enable-background:new 0 0 80.5 91.7;" xml:space="preserve">
<style type="text/css">
	.st0{fill:#F95532;}
	.st1{fill:#4A4A4A;}
	.st2{fill:none;stroke:#4A4A4A;stroke-width:2;stroke-miterlimit:10;}
</style>
<path class="st0" d="M61.5,23.1c-2-2.6-2.7-6-1.7-9.1l0.2-0.4c0.9-2.8,0.1-5.8-2-7.8c-2.1-2.1-5.2-2.7-8-1.6l-0.5,0.1
	c-3,1.1-6.5,0.7-9.2-1.3L40,2.6c-1-0.7-2.1-1.2-3.2-1.3c-1.6-0.3-3.4,0-5,0.8c-2.6,1.5-4.2,4.1-4.1,7.1c0.2,3.5-1.5,7-4.3,9.1
	c-2.5,1.8-3.5,4.7-3,7.6c0.6,3,2.6,5.2,5.5,6.1l0.4,0.1c3.1,0.9,5.7,3.3,6.7,6.4l0.1,0.5c1,2.9,3.3,4.8,6.3,5.2
	c3,0.4,5.7-0.8,7.4-3.3l0.3-0.4c1.8-2.7,4.9-4.5,8.1-4.5l0.5,0c3.1,0,5.6-1.6,6.9-4.3c1.4-2.7,1-5.7-0.8-8.1L61.5,23.1z"/>
<circle class="st0" cx="35.8" cy="67.7" r="20.5"/>
<path class="st1" d="M23.3,29.9c1.2,3.2,4,5.4,7.4,5.8h0.4c2.3,0.2,4.3,1.6,5.4,3.6l0.2,0.4c1.6,2.9,4.5,4.6,7.8,4.6
	c0.1,0,0.3,0,0.4,0c3.4-0.1,6.4-2.2,7.8-5.3l0.2-0.4c0.9-2.1,2.8-3.6,5-4l0.4-0.1c3.4-0.6,6-3.1,6.9-6.4c0.9-3.3-0.1-6.8-2.6-9
	l-0.3-0.3c-1.7-1.5-2.5-3.8-2.2-6l0.1-0.4c0.4-3.4-1.1-6.7-3.9-8.6c-2.8-1.9-6.5-2-9.4-0.3l-0.4,0.2c-2,1.1-4.4,1.2-6.4,0.3
	l-0.4-0.2c-3.1-1.5-6.7-1.1-9.4,1.1c-2.7,2.1-3.9,5.5-3.2,8.9c0.5,2.5-0.2,5.1-1.9,6.9l0,0C22.9,23.1,22.1,26.7,23.3,29.9z M26.7,22
	L26.7,22c2.2-2.3,3.1-5.6,2.4-8.7c-0.6-2.6,0.4-5.2,2.5-6.9c1.3-1,2.8-1.5,4.3-1.5c1,0,2,0.2,3,0.7l0.4,0.2c2.7,1.3,5.8,1.1,8.3-0.3
	L48,5.3c2.3-1.4,5.1-1.3,7.3,0.2s3.4,4,3,6.6l-0.1,0.4c-0.4,2.9,0.7,5.8,2.9,7.8l0.3,0.3c2,1.8,2.8,4.4,2,7
	c-0.7,2.6-2.7,4.4-5.4,4.9l-0.4,0.1c-2.9,0.5-5.3,2.5-6.5,5.2l-0.2,0.4c-1.1,2.5-3.3,4-6,4.1s-5.1-1.2-6.4-3.6l-0.2-0.4
	c-1.4-2.6-4-4.3-6.9-4.6H31c-2.7-0.3-4.8-1.9-5.8-4.5C24.3,26.7,24.8,24,26.7,22z"/>
<path class="st1" d="M41.7,31.4c0.9,0.2,1.7,0.4,2.6,0.4c4.2,0,8-2.8,9.2-7c1.4-5.1-1.6-10.3-6.6-11.8c-5.1-1.4-10.3,1.6-11.8,6.6
	c-0.7,2.5-0.4,5,0.9,7.3C37.2,29.1,39.2,30.7,41.7,31.4z M37,20.2c0.9-3.3,4-5.5,7.3-5.5c0.7,0,1.4,0.1,2,0.3c4,1.1,6.4,5.3,5.2,9.3
	c-0.5,1.9-1.8,3.6-3.6,4.5c-1.8,1-3.8,1.2-5.7,0.7s-3.6-1.8-4.5-3.6C36.7,24.2,36.5,22.2,37,20.2z"/>
<path class="st1" d="M37.5,59.1L37.5,59.1c0.3,0,0.6-0.1,0.7-0.3c0.4-0.4,3.4-3.8,3.4-6.6c0-1.1-0.4-2.2-1.2-2.9
	c-0.8-0.8-1.8-1.2-2.9-1.2c-1.1,0-2.2,0.4-2.9,1.2c-0.8,0.8-1.2,1.8-1.2,2.9c0,2.7,3,6.2,3.4,6.6C37,58.9,37.2,59.1,37.5,59.1z
	 M36,50.6c0.4-0.4,0.9-0.7,1.5-0.6c0.6,0,1.1,0.2,1.5,0.6s0.6,0.9,0.6,1.5c0,1.2-1.1,3-2.2,4.3c-0.9-1.2-2.1-3.1-2.1-4.4
	C35.4,51.5,35.6,51,36,50.6z"/>
<path class="st1" d="M37.6,71c-0.3,0-0.6,0.1-0.7,0.3c-0.4,0.4-3.4,3.8-3.4,6.6c0,2.3,1.8,4.2,4.1,4.2l0,0c1.1,0,2.1-0.4,2.9-1.2
	c0.8-0.8,1.2-1.8,1.2-2.9c0-2.7-3-6.2-3.4-6.6C38.2,71.1,37.9,71,37.6,71z M39.1,79.4c-0.4,0.4-0.9,0.6-1.5,0.6l0,0
	c-1.2,0-2.1-1-2.1-2.2s1.1-3,2.2-4.3c0.9,1.2,2.1,3.1,2.1,4.4C39.7,78.5,39.5,79,39.1,79.4z"/>
<path class="st1" d="M51.1,61c-2.7,0-6.2,3-6.6,3.4c-0.2,0.2-0.3,0.5-0.3,0.7s0.1,0.6,0.3,0.7c0.4,0.4,3.8,3.4,6.6,3.4l0,0
	c1.1,0,2.1-0.4,2.9-1.2c0.8-0.8,1.2-1.8,1.2-2.9s-0.4-2.2-1.2-2.9C53.3,61.5,52.2,61,51.1,61L51.1,61z M53.2,65.2
	c0,0.6-0.2,1.1-0.6,1.5c-0.4,0.4-0.9,0.6-1.5,0.6l0,0c-1.2,0-3-1.1-4.3-2.2c1.3-1,3.2-2.1,4.4-2.1l0,0c0.6,0,1.1,0.2,1.5,0.6
	C53,64.1,53.2,64.6,53.2,65.2z"/>
<path class="st1" d="M24.6,69.3c2.7,0,6.2-3,6.6-3.4c0.2-0.2,0.3-0.5,0.3-0.7s-0.1-0.6-0.3-0.7c-0.4-0.4-3.8-3.4-6.6-3.4
	c-1.1,0-2.2,0.4-2.9,1.2c-0.8,0.8-1.2,1.8-1.2,2.9s0.4,2.2,1.2,2.9C22.4,68.9,23.5,69.3,24.6,69.3L24.6,69.3z M22.5,65.1
	c0-0.6,0.2-1.1,0.6-1.5S24,63,24.6,63l0,0c1.2,0,3,1.1,4.3,2.2c-1.2,0.9-3.1,2.1-4.4,2.1l0,0c-0.6,0-1.1-0.2-1.5-0.6
	C22.7,66.3,22.5,65.7,22.5,65.1z"/>
<path class="st1" d="M42.9,61L42.9,61c0.6,0,5.2-0.3,7.1-2.2c1.6-1.6,1.6-4.2,0-5.9c-0.8-0.8-1.8-1.2-2.9-1.2
	c-1.1,0-2.2,0.4-2.9,1.2c-1.9,1.9-2.3,6.5-2.3,7.1c0,0.3,0.1,0.6,0.3,0.8C42.4,60.9,42.6,61,42.9,61z M45.6,54.3
	c0.4-0.4,0.9-0.6,1.5-0.6l0,0c0.6,0,1.1,0.2,1.5,0.6c0.8,0.8,0.8,2.2,0,3s-2.9,1.3-4.6,1.5C44.2,57.4,44.7,55.2,45.6,54.3z"/>
<path class="st1" d="M33.5,69.2c-0.2-0.2-0.5-0.3-0.8-0.3c-0.5,0-5.1,0.3-7.1,2.2c-1.6,1.6-1.6,4.2,0,5.9c0.8,0.8,1.9,1.2,2.9,1.2
	c1.1,0,2.1-0.4,2.9-1.2c1.9-1.9,2.3-6.5,2.3-7.1C33.8,69.7,33.7,69.4,33.5,69.2z M30,75.6c-0.8,0.8-2.2,0.8-3,0s-0.8-2.2,0-3
	s2.9-1.3,4.6-1.5C31.4,72.5,30.9,74.7,30,75.6z"/>
<path class="st1" d="M43,69.4c-0.3,0-0.6,0.1-0.8,0.3s-0.3,0.5-0.3,0.8c0,0.5,0.3,5.1,2.2,7.1c0.8,0.8,1.9,1.2,2.9,1.2
	c1.1,0,2.1-0.4,2.9-1.2c0.8-0.8,1.2-1.8,1.2-2.9s-0.4-2.2-1.2-2.9C48.1,69.8,43.5,69.5,43,69.4z M48.6,76.2c-0.8,0.8-2.2,0.8-3,0
	s-1.3-2.9-1.5-4.6c1.5,0.2,3.7,0.7,4.6,1.6c0.4,0.4,0.6,0.9,0.6,1.5C49.2,75.2,49,75.8,48.6,76.2z"/>
<path class="st1" d="M32.5,61.1L32.5,61.1c0.3,0,0.6-0.1,0.8-0.3c0.2-0.2,0.3-0.5,0.3-0.8c0-0.5-0.3-5.1-2.2-7.1
	c-1.6-1.6-4.2-1.6-5.9,0c-0.8,0.8-1.2,1.8-1.2,2.9c0,1.1,0.4,2.2,1.2,2.9C27.3,60.7,31.9,61.1,32.5,61.1z M26.9,54.4
	c0.4-0.4,1-0.6,1.5-0.6c0.6,0,1.1,0.2,1.5,0.6c0.8,0.8,1.3,2.9,1.5,4.6c-1.5-0.2-3.7-0.7-4.6-1.6c-0.4-0.4-0.6-0.9-0.6-1.5
	S26.4,54.8,26.9,54.4z"/>
<path class="st1" d="M37.8,86.4c11.9,0,21.5-9.7,21.5-21.5s-9.7-21.5-21.5-21.5S16.3,53,16.3,64.8S26,86.4,37.8,86.4z M37.8,45.3
	c10.8,0,19.5,8.8,19.5,19.5s-8.8,19.5-19.5,19.5s-19.5-8.7-19.5-19.5S27.1,45.3,37.8,45.3z"/>
<path class="st2" d="M51.7,90.4h-23c-9.5,0-17.2-7.7-17.2-17.2V19.5c0-9.5,7.7-17.2,17.2-17.2h23c9.5,0,17.2,7.7,17.2,17.2v53.6
	C68.9,82.7,61.2,90.4,51.7,90.4z"/>
</svg>
