<?xml version="1.0" encoding="utf-8"?>
<!-- Generator: Adobe Illustrator 19.2.1, SVG Export Plug-In . SVG Version: 6.00 Build 0)  -->
<svg version="1.1" id="Layer_1" xmlns="http://www.w3.org/2000/svg" xmlns:xlink="http://www.w3.org/1999/xlink" x="0px" y="0px"
	 width="93px" height="86.4px" viewBox="0 0 93 86.4" style="enable-background:new 0 0 93 86.4;" xml:space="preserve">
<style type="text/css">
	.st0{fill:#FFFEE1;}
	.st1{fill:#4A4A4A;}
</style>
<path class="st0" d="M5.1,82.2h80.7c0,0-2.1-48.6-41.1-48.3C5.9,34.2,5.1,82.2,5.1,82.2z"/>
<path class="st1" d="M38.8,38.3c-9.6,2.6-17,10.6-18.7,20.4c-0.1,0.5,0.3,1.1,0.8,1.2c0.1,0,0.1,0,0.2,0c0.5,0,0.9-0.3,1-0.8
	c1.6-9,8.4-16.4,17.3-18.9c0.5-0.1,0.8-0.7,0.7-1.2C39.8,38.5,39.3,38.2,38.8,38.3z"/>
<path class="st1" d="M9.6,79.8h76.2c0.6,0,1-0.4,1-1v-7.1c0-0.6-0.4-1-1-1h-1.4v-4.4c0-19.5-15.4-35.6-34.6-36.6
	c1.8-0.8,3-2.6,3-4.6c0-2.8-2.3-5.1-5.1-5.1s-5.1,2.3-5.1,5.1c0,2.1,1.2,3.8,3,4.6C26.3,30.8,11,46.8,11,66.3v4.4H9.6
	c-0.6,0-1,0.4-1,1v7.1C8.6,79.3,9,79.8,9.6,79.8z M44.6,25c0-1.7,1.4-3.1,3.1-3.1c1.7,0,3.1,1.4,3.1,3.1s-1.4,3.1-3.1,3.1
	S44.6,26.7,44.6,25z M13,66.2c0-19.1,15.6-34.7,34.7-34.7s34.7,15.6,34.7,34.7v4.4H13V66.2z M10.6,72.6h74.2v5.1H10.6V72.6z"/>
<path class="st1" d="M44.6,17.4c0.6,0,1-0.4,1-1c0-0.6-0.4-1-1-1c-0.9,0-1.7-0.8-1.7-1.7s0.8-1.7,1.7-1.7c2,0,3.7-1.7,3.7-3.7
	s-1.7-3.7-3.7-3.7c-0.6,0-1,0.4-1,1s0.4,1,1,1c0.9,0,1.7,0.8,1.7,1.7c0,0.9-0.8,1.7-1.7,1.7c-2,0-3.7,1.7-3.7,3.7
	S42.6,17.4,44.6,17.4z"/>
<path class="st1" d="M52.5,17.4c0.6,0,1-0.4,1-1c0-0.6-0.4-1-1-1c-0.9,0-1.7-0.8-1.7-1.7s0.8-1.7,1.7-1.7c2,0,3.7-1.7,3.7-3.7
	s-1.7-3.7-3.7-3.7c-0.6,0-1,0.4-1,1s0.4,1,1,1c0.9,0,1.7,0.8,1.7,1.7c0,0.9-0.8,1.7-1.7,1.7c-2,0-3.7,1.7-3.7,3.7
	S50.4,17.4,52.5,17.4z"/>
</svg>
