<?xml version="1.0" encoding="utf-8"?>
<!-- Generator: Adobe Illustrator 19.2.1, SVG Export Plug-In . SVG Version: 6.00 Build 0)  -->
<svg version="1.1" id="Layer_1" xmlns="http://www.w3.org/2000/svg" xmlns:xlink="http://www.w3.org/1999/xlink" x="0px" y="0px"
	 width="85.9px" height="73.1px" viewBox="0 0 85.9 73.1" style="enable-background:new 0 0 85.9 73.1;" xml:space="preserve">
<style type="text/css">
	.st0{fill:#F95532;}
	.st1{fill:#4A4A4A;}
</style>
<circle class="st0" cx="23.2" cy="44.4" r="14.4"/>
<path class="st0" d="M14.7,68h58.8c3.9,0,6.9-3.5,6.2-7.4C77.4,47.6,69.7,21.8,43.5,22C17.3,22.2,10.3,47.9,8.4,60.8
	C7.9,64.6,10.8,68,14.7,68z"/>
<path class="st1" d="M81,58h-1.9c0.2-1.6,0.4-3.2,0.4-4.8C79.5,34.4,64.1,19,45.1,19c-6.9,0-13.5,2-19.2,5.8
	c-0.3-0.5-0.6-1.1-0.8-1.7c-0.2-0.5-0.5-0.8-1-1c-0.4-0.2-0.9-0.2-1.4-0.1l-0.4,0.1l-3.6-9.7c1.1-0.6,2.1-1.5,2.6-2.7
	c0.6-1.4,0.7-2.9,0.2-4.4c-1.1-3-4.4-4.5-7.3-3.4c-1.3,0.5-2.4,1.5-3.1,2.7C9.8,4.1,8.3,4.1,7,4.5c-3,1.1-4.5,4.4-3.4,7.3
	c1,2.7,3.9,4.3,6.7,3.6l3.6,9.7l-0.5,0.2c-0.4,0.2-0.8,0.5-1,0.9s-0.2,0.9-0.1,1.3c1.1,3,0.9,6.3-0.7,9.3c-1.9,3.8-2.2,8.3-0.7,12.3
	c1.4,3.9,4.4,7,8.1,8.7h-7.8c-0.6,0-1,0.4-1,1c0,3.9,3.2,7.2,7.2,7.2h6.5v3.4c0,0.6,0.4,1,1,1h42.4c0.6,0,1-0.4,1-1v-3.3h6.6
	c3.9,0,7.2-3.2,7.2-7.2C82,58.4,81.6,58,81,58z M11.8,13.9c-0.1-0.3-0.3-0.5-0.6-0.6c-0.3-0.1-0.6-0.1-0.8,0c-0.1,0-0.1,0.1-0.2,0.1
	c-1.9,0.7-4.1-0.3-4.8-2.2C4.7,9.3,5.7,7.1,7.6,6.4C8.7,6,10,6.1,11,6.8C11.3,7,11.6,7,11.9,6.9s0.5-0.4,0.6-0.7
	c0.3-1.1,1.2-2.1,2.3-2.5C16.7,3,18.9,4,19.6,5.9c0.3,0.9,0.3,1.9-0.1,2.8s-1.2,1.6-2.1,1.9c-0.1,0-0.1,0-0.2,0.1
	c-0.3,0.1-0.5,0.3-0.6,0.5s-0.1,0.5,0,0.8l3.9,10.7l-4.7,1.7L11.8,13.9z M12.9,48.6c-1.3-3.5-1.1-7.3,0.6-10.7
	c1.7-3.5,2-7.2,0.9-10.7l7.7-2.8l0,0l0,0l1.2-0.4c1.3,3.3,4,6.1,7.5,7.5c4,1.7,6.9,5,8,9.3c1.5,6-1.5,12.4-7,15.2
	c-3.5,1.8-7.4,1.9-11,0.5C17,55.1,14.2,52.2,12.9,48.6z M32.5,57.8c6.4-3.2,9.8-10.6,8.1-17.5c-1.2-4.9-4.5-8.7-9.1-10.6
	c-1.8-0.7-3.3-1.8-4.4-3.2c5.4-3.6,11.6-5.5,18.1-5.5c17.9,0,32.4,14.4,32.4,32.2c0,1.6-0.1,3.3-0.4,4.8H32
	C32.1,57.9,32.3,57.9,32.5,57.8z M66.3,68.6H26v-2.5h40.4L66.3,68.6L66.3,68.6z M74.9,64.1H17.4c-2.5,0-4.6-1.8-5.1-4.2h67.6
	C79.5,62.4,77.4,64.1,74.9,64.1z"/>
</svg>
