<?xml version="1.0" encoding="utf-8"?>
<!-- Generator: Adobe Illustrator 19.2.1, SVG Export Plug-In . SVG Version: 6.00 Build 0)  -->
<svg version="1.1" id="Layer_1" xmlns="http://www.w3.org/2000/svg" xmlns:xlink="http://www.w3.org/1999/xlink" x="0px" y="0px"
	 width="100px" height="102.5px" viewBox="0 0 100 102.5" style="enable-background:new 0 0 100 102.5;" xml:space="preserve">
<style type="text/css">
	.st0{fill:#F95532;}
	.st1{fill:#4A4A4A;}
</style>
<ellipse class="st0" cx="50" cy="57.4" rx="38.2" ry="30.9"/>
<path class="st1" d="M19.8,41.4c-6.4,6.9-7.5,17.7-2.5,25.7c0.5,0.7,1.5,0.9,2.2,0.4l0,0c0.6-0.5,0.8-1.3,0.4-2
	c-4.3-6.9-3.4-16.1,2.2-22.1c0.5-0.6,0.5-1.4,0-2l0,0C21.4,40.8,20.4,40.8,19.8,41.4z"/>
<path class="st1" d="M90.5,47.2l-10.2,0c-0.6,0-1.2-0.4-1.4-1c-2.8-7.4-8.7-13.5-16.4-16.4C51.9,26,51,19.2,51,19L49.7,3.9
	c-0.1-0.8-0.7-1.4-1.5-1.4h-8.3c-0.8,0-1.4,0.6-1.5,1.4L37.2,19c0,0.1-0.8,7-11.5,10.8C14.8,33.8,7.5,44.3,7.5,55.9
	c0,15.4,12.5,27.9,27.9,27.9H38L35.5,93c-0.2,0.8,0.3,1.6,1.1,1.8h0c0.8,0.2,1.6-0.3,1.8-1.1l2.7-10.1h0.1h1.5V96
	c0,0.8,0.7,1.5,1.5,1.5h0c0.8,0,1.5-0.7,1.5-1.5V83.7H47h0.3L50,93.8c0.2,0.8,1,1.3,1.8,1.1l0,0c0.8-0.2,1.3-1,1.1-1.8l-2.5-9.3h2.4
	c1.6,0,3.2-0.1,4.7-0.4c0.2,0,0.5,0,0.7,0c2.2,0.7,4.5,1.1,6.8,1.1c9.3,0,17.7-5.8,20.9-14.5l0,0c0.6-1.7,1.3-4.3,2-7.1
	c1.1-4.1,2.6-9.9,3.9-12.3c0.3-0.6,0.4-1.3,0.1-1.9l-0.2-0.4C91.6,47.6,91.1,47.2,90.5,47.2z M41.2,80.7c-3.3,0-11.1-10.5-11.1-24.8
	c0-9.5,5.6-17.9,9.5-22.6c0.5-0.6,0.4-1.5-0.2-2.1l0,0c-0.6-0.6-1.6-0.5-2.1,0.2c-4.2,5.1-10.2,14.1-10.2,24.5
	c0,10.5,4,20.1,8.5,24.8h-0.3c-13.7,0-24.9-11.2-24.9-24.9c0-10.3,6.5-19.7,16.1-23.3c12.5-4.4,13.5-13,13.5-13.4l1.2-13.7h5.5
	L48,19.2c0,0.4,1,8.9,13.5,13.4c6.1,2.3,10.9,6.8,13.6,12.4c0.5,1-0.3,2.1-1.4,2.1l-6.6,0l-6.4,0c-0.6,0-1.2-0.4-1.4-1
	c-2.1-6.2-5.7-11.4-8.6-14.8c-0.5-0.6-1.5-0.7-2.1-0.2l0,0c-0.6,0.5-0.7,1.5-0.2,2.1c2.7,3.2,6.1,8.1,8,13.9c0,0-12.4,0-12.4,0h0
	c-0.8,0-1.5,0.7-1.5,1.5v0v4.6v8.8c0,6.1,2.4,11.6,6.4,15.6c0.6,0.6,0.6,1.7-0.2,2.2c-0.7,0.5-1.4,0.8-1.9,0.8h-3.1L41.2,80.7
	L41.2,80.7z M83.2,68.8L83.2,68.8C80.3,76.4,73.1,81.4,65,81.4c-0.4,0-0.7,0-1.1-0.1c-2-0.1-4-0.5-5.8-1.2c-1.3-0.5-2.5-1.1-3.6-1.9
	c-0.9-0.6-1.7-1.2-2.4-1.9c-3.3-3-5.5-7-6.2-11.6c2,3.3,4.9,6.1,8.3,8c0.9,0.5,1.8,0.9,2.8,1.3c2.5,1,5.2,1.5,8.1,1.5
	c1,0,2.1-0.1,3.1-0.2c2.1-0.3,4.2-0.9,6.1-1.8c4.3-2,8-5.3,10.3-9.5C84.1,66,83.6,67.6,83.2,68.8z M83.6,58.8L83.6,58.8L83.2,60
	c-1.1,2.9-2.9,5.5-5.1,7.5c-1.7,1.5-3.6,2.8-5.7,3.6c-2.3,0.9-4.8,1.5-7.3,1.5c-2.4,0-4.8-0.5-6.9-1.3c-1-0.4-1.9-0.8-2.7-1.3
	c-3.8-2.2-6.7-5.6-8.3-9.6c-0.9-2.2-1.4-4.6-1.4-7.1v-1.6c0-0.8,0.7-1.5,1.5-1.5h10.2h3.1h4.2h2.6H77H80l5.4,0
	c1.2,0,1.9,1.3,1.3,2.3C85.6,54.3,84.6,56.5,83.6,58.8z"/>
</svg>
