<?xml version="1.0" encoding="utf-8"?>
<!-- Generator: Adobe Illustrator 19.2.1, SVG Export Plug-In . SVG Version: 6.00 Build 0)  -->
<svg version="1.1" id="Layer_1" xmlns="http://www.w3.org/2000/svg" xmlns:xlink="http://www.w3.org/1999/xlink" x="0px" y="0px"
	 width="100px" height="102.5px" viewBox="0 0 100 102.5" style="enable-background:new 0 0 100 102.5;" xml:space="preserve">
<style type="text/css">
	.st0{fill:#F95532;}
	.st1{fill:#4A4A4A;}
</style>
<path class="st0" d="M81.5,35.8c0-17.4-15.1-31.3-32.9-29.4C35.3,7.9,24.4,18.5,22.7,31.8c-1.4,11,3.1,20.9,10.9,27.1L49.5,90
	c1.3,2.5,4.8,2.4,6,0L71,58.4C77.4,53,81.5,44.9,81.5,35.8z"/>
<path class="st1" d="M79.8,44.5c0-3-1.2-6-3.2-8.2c2.6-15.5-7.8-30.3-23.3-32.9S23,11.3,20.3,26.8c-0.6,3.7-0.5,7.5,0.3,11.2
	c-1.3,2-1.9,4.2-1.9,6.6c0,4.8,2.8,9.1,7.2,11.1l19.8,43.3c0.9,2,3.2,2.8,5.2,1.9c0.9-0.4,1.5-1.1,1.9-1.9l19.8-43.3
	C76.9,53.6,79.8,49.3,79.8,44.5z M21.9,44.5c0-1.9,0.6-3.8,1.8-5.3l0.4-0.6L24,37.9c-3.4-13.6,4.8-27.4,18.3-30.8
	s27.4,4.8,30.8,18.3c0.9,3.7,1,7.5,0.3,11.2l-0.2,0.9l0.6,0.6c1.8,1.7,2.8,4,2.7,6.4c0,3.6-2.1,6.8-5.4,8.2l-0.2,0.1h-0.1l-0.7,0.2
	H70l-0.7,0.2H69l-0.5,0.1c-0.3,0-0.6,0-0.8,0c-3.2,0-6.2-1.7-7.8-4.6l-1.3-2.3l-1.4,2.4c-2.4,4.3-7.9,5.8-12.2,3.4
	c-1.4-0.8-2.6-2-3.4-3.4l-1.4-2.4l-1.4,2.4c-1.6,2.8-4.5,4.5-7.8,4.5c-0.3,0-0.6,0-0.8,0l-0.5-0.1h-0.3l-0.7-0.2h-0.1L27.7,53h-0.1
	l-0.2-0.1C24,51.5,21.9,48.2,21.9,44.5z M40.1,52.5c1.4,1.6,3.1,2.8,5.1,3.5L43.3,60L40,52.6L40.1,52.5z M37.4,54.7l4.2,9.1L37.4,73
	l-4.2-9.2l4.1-9L37.4,54.7z M43.3,67.7l4.2,9.2l-4.2,9.2l-4.2-9.2L43.3,67.7z M45.1,63.9l3.3-7.2c0.3,0,0.6,0,0.9,0
	c0.3,0,0.6,0,0.9,0l3.3,7.2l-4.2,9.2L45.1,63.9z M58.5,52.5l0.1,0.2L55.2,60l-1.9-4.1C55.3,55.2,57.1,54,58.5,52.5L58.5,52.5z
	 M55.2,67.7l4.2,9.2l-4.2,9.2L51,76.9L55.2,67.7z M57,63.9l4.2-9.1l0.2,0.1l4.1,9l-4.2,9.2L57,63.9z M30.2,56.6h0.7h0.3h0.4
	c0.3,0,0.7,0,1-0.1H33h0.1l-1.6,3.6l-1.5-3.4L30.2,56.6z M50,97.6c-0.2,0.4-0.6,0.5-1,0.4c-0.2-0.1-0.3-0.2-0.4-0.4l-3.5-7.7
	l4.2-9.2l4.2,9.2L50,97.6z M68.7,56.6L67.1,60l-1.6-3.6h0.1h0.3c0.3,0,0.7,0.1,1,0.1h0.4h0.3h0.7L68.7,56.6z"/>
<path class="st1" d="M51.6,13c0.7,0.1,16.5,3.3,15.6,21.1c0,0.9,0.6,1.6,1.5,1.6h0.1c0.8,0,1.5-0.7,1.6-1.5
	c0.9-20.6-18-24.3-18.2-24.4c-0.9-0.2-1.7,0.4-1.8,1.3S50.7,12.8,51.6,13z"/>
</svg>
