<?xml version="1.0" encoding="utf-8"?>
<!-- Generator: Adobe Illustrator 19.2.1, SVG Export Plug-In . SVG Version: 6.00 Build 0)  -->
<svg version="1.1" id="Layer_1" xmlns="http://www.w3.org/2000/svg" xmlns:xlink="http://www.w3.org/1999/xlink" x="0px" y="0px"
	 width="58.2px" height="68.3px" viewBox="0 0 58.2 68.3" style="enable-background:new 0 0 58.2 68.3;" xml:space="preserve">
<style type="text/css">
	.st0{fill:#F95532;}
	.st1{fill:#4A4A4A;}
</style>
<polygon class="st0" points="29.8,29.8 47.3,10.4 12.4,10.4 "/>
<path class="st1" d="M52.1,7.3V6.9c0-1-1-1.7-2.3-1.7H7.2c-1.3,0-2.3,0.7-2.3,1.7v0.4L27.5,32v30.4h-6.3c-0.6,0-1,0.4-1,1
	c0,0.6,0.4,1,1,1h14.7c0.6,0,1-0.4,1-1c0-0.6-0.4-1-1-1h-6.3V31.9L52.1,7.3z M28.6,29.9C28.5,29.9,28.5,30,28.6,29.9l-14-15.1
	c1.1,0.2,2.5,0.3,4.1,0.3c4.3,0,6.7-0.9,9-1.7c2.2-0.8,4.3-1.6,8.3-1.6c3.7,0,5.8,0.7,7.9,1.5L28.6,29.9
	C28.6,30,28.6,29.9,28.6,29.9z M49.5,7.2l-4.1,4.5L45,11.6c-2.3-0.9-4.7-1.7-9-1.7s-6.7,0.9-9,1.7c-2.2,0.8-4.3,1.6-8.3,1.6
	c-3.1,0-5-0.5-6.6-1l-4.5-5H49.5z"/>
</svg>
