<?xml version="1.0" encoding="utf-8"?>
<!-- Generator: Adobe Illustrator 19.2.1, SVG Export Plug-In . SVG Version: 6.00 Build 0)  -->
<svg version="1.1" id="Layer_1" xmlns="http://www.w3.org/2000/svg" xmlns:xlink="http://www.w3.org/1999/xlink" x="0px" y="0px"
	 width="78.5px" height="68.5px" viewBox="0 0 78.5 68.5" style="enable-background:new 0 0 78.5 68.5;" xml:space="preserve">
<style type="text/css">
	.st0{fill:#F95532;}
	.st1{fill:#4A4A4A;}
	.st2{fill:none;stroke:#4A4A4A;stroke-width:2;stroke-linecap:round;stroke-linejoin:round;stroke-miterlimit:10;}
	.st3{fill:#FFFFFF;}
</style>
<path class="st0" d="M10.2,27L21.4,9.6c2.9-4.5,9.5-4.8,12.8-0.6l8.4,10.8c6.4,8.2,0.5,20.2-9.9,20.2H17.3
	C10.6,40.1,6.6,32.7,10.2,27z"/>
<g>
	<ellipse transform="matrix(0.7613 -0.6484 0.6484 0.7613 -0.9676 18.0717)" class="st1" cx="24.1" cy="10.4" rx="1.1" ry="1.1"/>
</g>
<g>
	<ellipse transform="matrix(0.7613 -0.6484 0.6484 0.7613 -4.9125 18.2957)" class="st1" cx="22.4" cy="15.8" rx="1.1" ry="1.1"/>
</g>
<g>
	<ellipse transform="matrix(0.7613 -0.6484 0.6484 0.7613 -3.1287 21.8656)" class="st1" cx="28.1" cy="15.2" rx="1.1" ry="1.1"/>
</g>
<g>
	<ellipse transform="matrix(0.7613 -0.6484 0.6484 0.7613 -7.2543 22.1923)" class="st1" cx="26.5" cy="20.9" rx="1.1" ry="1.1"/>
</g>
<g>
	<ellipse transform="matrix(0.7613 -0.6484 0.6484 0.7613 -8.9525 17.5794)" class="st1" cx="19.4" cy="20.9" rx="1.1" ry="1.1"/>
</g>
<path class="st2" d="M8.3,24.9L19.5,7.5C22.4,3,29,2.7,32.3,7l8.4,10.8C47.1,26,41.2,38,30.8,38H15.4C8.7,38,4.7,30.6,8.3,24.9z"/>
<path class="st2" d="M39.2,27.6c-1.4,6.7-9.4,6.7-9.4,6.7h-5.2"/>
<path class="st2" d="M39,23.6c0,0-0.4-1.9-1-3.2"/>
<g>
	<path class="st3" d="M39.4,49.3l3.1-20.5c0.8-5.3,6.6-8.3,11.4-5.8L66,29.5c9.2,4.9,8.8,18.2-0.7,22.5l-14,6.3
		C45.2,61,38.4,55.9,39.4,49.3z"/>
	<path class="st0" d="M42,50.4L45.1,30c0.8-5.3,6.6-8.3,11.4-5.8l12.1,6.4c9.2,4.9,8.8,18.2-0.7,22.5l-14,6.3
		C47.7,62.2,41,57.1,42,50.4z"/>
	<g>
		<ellipse transform="matrix(0.4272 -0.9041 0.9041 0.4272 -4.04 64.0299)" class="st1" cx="48.5" cy="35.2" rx="1.1" ry="1.1"/>
	</g>
	<g>
		<ellipse transform="matrix(0.4272 -0.9041 0.9041 0.4272 1.4672 66.8381)" class="st1" cx="53.5" cy="32.3" rx="1.1" ry="1.1"/>
	</g>
	<g>
		<ellipse transform="matrix(0.4272 -0.9041 0.9041 0.4272 -16.0558 70.2479)" class="st1" cx="47.4" cy="47.8" rx="1.1" ry="1.1"/>
	</g>
	<g>
		<ellipse transform="matrix(0.4272 -0.9041 0.9041 0.4272 -3.3742 71.0405)" class="st1" cx="54.4" cy="38.2" rx="1.1" ry="1.1"/>
	</g>
	<path class="st2" d="M39.4,49.3l3.1-20.5c0.8-5.3,6.6-8.3,11.4-5.8L66,29.5c9.2,4.9,8.8,18.2-0.7,22.5l-14,6.3
		C45.2,61,38.4,55.9,39.4,49.3z"/>
	<path class="st2" d="M68.7,39c1.4,6.7-5.8,9.9-5.8,9.9L58.2,51"/>
</g>
</svg>
