<?xml version="1.0" encoding="utf-8"?>
<!-- Generator: Adobe Illustrator 19.2.1, SVG Export Plug-In . SVG Version: 6.00 Build 0)  -->
<svg version="1.1" id="Layer_1" xmlns="http://www.w3.org/2000/svg" xmlns:xlink="http://www.w3.org/1999/xlink" x="0px" y="0px"
	 width="78.5px" height="68.5px" viewBox="0 0 78.5 68.5" style="enable-background:new 0 0 78.5 68.5;" xml:space="preserve">
<style type="text/css">
	.st0{fill:#F95532;}
	.st1{fill:#4A4A4A;}
	.st2{fill:#FFFFFF;}
</style>
<path class="st0" d="M10.2,27L21.4,9.6c2.9-4.5,9.5-4.8,12.8-0.6l8.4,10.8C49,28,43.1,40,32.7,40H17.3C10.6,40.1,6.6,32.7,10.2,27z"
	/>
<g>
	<ellipse transform="matrix(0.7613 -0.6484 0.6484 0.7613 -0.961 18.115)" class="st1" cx="24.1" cy="10.4" rx="1.1" ry="1.1"/>
</g>
<g>
	<ellipse transform="matrix(0.7613 -0.6484 0.6484 0.7613 -4.9014 18.2861)" class="st1" cx="22.4" cy="15.8" rx="1.1" ry="1.1"/>
</g>
<g>
	<ellipse transform="matrix(0.7613 -0.6484 0.6484 0.7613 -3.1548 21.8651)" class="st1" cx="28.1" cy="15.2" rx="1.1" ry="1.1"/>
</g>
<g>
	<ellipse transform="matrix(0.7613 -0.6484 0.6484 0.7613 -7.2463 22.1581)" class="st1" cx="26.5" cy="20.9" rx="1.1" ry="1.1"/>
</g>
<g>
	<ellipse transform="matrix(0.7613 -0.6484 0.6484 0.7613 -8.9359 17.55)" class="st1" cx="19.4" cy="20.9" rx="1.1" ry="1.1"/>
</g>
<g>
	<path class="st1" d="M30.8,39H15.4c-3.5,0-6.6-1.8-8.3-4.9c-1.7-3.1-1.6-6.7,0.3-9.8c0,0,0,0,0,0L18.7,7c1.5-2.4,4.2-3.9,7.1-4
		c2.9-0.1,5.6,1.1,7.4,3.4l8.4,10.8c3.2,4.1,3.8,9.5,1.5,14.2C40.7,36.1,36,39,30.8,39z M9.1,25.4c-1.5,2.4-1.6,5.3-0.2,7.7
		c1.3,2.4,3.8,3.8,6.5,3.8h15.4c4.4,0,8.4-2.5,10.4-6.5c2-4,1.5-8.6-1.3-12.1L31.5,7.6c-1.4-1.8-3.5-2.8-5.7-2.7
		C23.5,5,21.5,6.2,20.3,8L9.1,25.4z"/>
</g>
<g>
	<path class="st1" d="M29.8,35.3h-5.2c-0.6,0-1-0.4-1-1s0.4-1,1-1h5.2c0.3,0,7.2-0.1,8.4-5.9c0.1-0.5,0.6-0.9,1.2-0.8
		c0.5,0.1,0.9,0.6,0.8,1.2C38.9,33.7,32.8,35.3,29.8,35.3z"/>
</g>
<g>
	<path class="st1" d="M39,24.6c-0.5,0-0.9-0.3-1-0.8c0,0-0.4-1.8-0.9-3c-0.2-0.5,0-1.1,0.5-1.3c0.5-0.2,1.1,0,1.3,0.5
		c0.6,1.4,1.1,3.3,1.1,3.4c0.1,0.5-0.2,1.1-0.8,1.2C39.1,24.6,39.1,24.6,39,24.6z"/>
</g>
<g>
	<path class="st2" d="M39.4,49.3l3.1-20.5c0.8-5.3,6.6-8.3,11.4-5.8L66,29.5c9.2,4.9,8.8,18.2-0.7,22.5l-14,6.3
		C45.2,61,38.4,55.9,39.4,49.3z"/>
	<path class="st0" d="M42,50.4L45.1,30c0.8-5.3,6.6-8.3,11.4-5.8l12.1,6.4c9.2,4.9,8.8,18.2-0.7,22.5l-14,6.3
		C47.7,62.2,41,57.1,42,50.4z"/>
	<g>
		<ellipse transform="matrix(0.4272 -0.9041 0.9041 0.4272 -4.0609 64.0267)" class="st1" cx="48.5" cy="35.2" rx="1.1" ry="1.1"/>
	</g>
	<g>
		<ellipse transform="matrix(0.4272 -0.9041 0.9041 0.4272 1.4835 66.8763)" class="st1" cx="53.5" cy="32.3" rx="1.1" ry="1.1"/>
	</g>
	<g>
		<ellipse transform="matrix(0.4272 -0.9041 0.9041 0.4272 -16.0755 70.2518)" class="st1" cx="47.4" cy="47.8" rx="1.1" ry="1.1"/>
	</g>
	<g>
		<ellipse transform="matrix(0.4272 -0.9041 0.9041 0.4272 -3.3568 71.0541)" class="st1" cx="54.4" cy="38.2" rx="1.1" ry="1.1"/>
	</g>
	<g>
		<path class="st1" d="M47.8,60c-2,0-4.1-0.7-5.8-2c-2.8-2.1-4.1-5.5-3.6-8.9l3.1-20.5c0.4-2.9,2.2-5.3,4.8-6.6
			c2.6-1.3,5.5-1.3,8.1,0l12.1,6.5c4.6,2.4,7.4,7.2,7.2,12.4c-0.2,5.2-3.2,9.7-7.9,11.9l-14,6.3C50.5,59.8,49.1,60,47.8,60z
			 M50.3,23.1c-1.1,0-2.1,0.3-3.1,0.8c-2,1-3.3,2.9-3.7,5.1l-3.1,20.5l0,0c-0.4,2.7,0.7,5.3,2.9,7c2.2,1.7,5.1,2.1,7.6,0.9l14-6.3
			c4.1-1.9,6.6-5.6,6.8-10.1c0.1-4.5-2.1-8.5-6.1-10.6l-12.1-6.5C52.4,23.4,51.4,23.1,50.3,23.1z M39.4,49.3L39.4,49.3L39.4,49.3z"
			/>
	</g>
	<g>
		<path class="st1" d="M58.2,52c-0.4,0-0.7-0.2-0.9-0.6c-0.2-0.5,0-1.1,0.5-1.3l4.7-2.1c0.3-0.1,6.4-3,5.2-8.8
			c-0.1-0.5,0.2-1.1,0.8-1.2c0.5-0.1,1.1,0.2,1.2,0.8c1.2,5.9-3.6,9.8-6.4,11l-4.7,2.1C58.5,52,58.3,52,58.2,52z"/>
	</g>
</g>
</svg>
