<?xml version="1.0" encoding="utf-8"?>
<!-- Generator: Adobe Illustrator 19.2.1, SVG Export Plug-In . SVG Version: 6.00 Build 0)  -->
<svg version="1.1" id="Layer_1" xmlns="http://www.w3.org/2000/svg" xmlns:xlink="http://www.w3.org/1999/xlink" x="0px" y="0px"
	 width="78.5px" height="68.5px" viewBox="0 0 78.5 68.5" style="enable-background:new 0 0 78.5 68.5;" xml:space="preserve">
<style type="text/css">
	.st0{fill:#F95532;}
	.st1{fill:#4A4A4A;}
</style>
<path class="st0" d="M15.3,40.1h44.5c3.4,0,6-3.2,5.3-6.5c-2-9.9-8.3-27.6-28-27.4C17.4,6.3,11.6,23.9,9.9,33.7
	C9.4,37,11.9,40.1,15.3,40.1z"/>
<ellipse class="st0" cx="40.2" cy="50.3" rx="28.5" ry="15.9"/>
<g>
	<path class="st1" d="M61.6,32.9H17.5c-1.7,0-3.3-0.8-4.4-2.1c-1.1-1.4-1.5-3.1-1.1-4.9C14.8,13,26.4,3.6,39.6,3.6
		S64.4,13,67.2,25.9c0.4,1.7,0,3.5-1.1,4.9C64.9,32.1,63.3,32.9,61.6,32.9z M39.5,5.7c-12.3,0-23.1,8.7-25.6,20.6
		c-0.2,1.1,0,2.3,0.8,3.2c0.7,0.9,1.7,1.4,2.9,1.4h44.1c1.1,0,2.2-0.5,2.9-1.4c0.7-0.9,1-2.1,0.7-3.2C62.6,14.4,51.8,5.7,39.5,5.7z"
		/>
</g>
<g>
	<path class="st1" d="M33.2,63.8c-10.4,0-18.9-1.1-21.3-12.1c-0.4-1.7,0-3.5,1.1-4.9c1.1-1.3,2.7-2.1,4.4-2.1h44.1
		c1.7,0,3.3,0.8,4.4,2.1c1.1,1.4,1.5,3.1,1.1,4.9c-2.6,12-12.6,12-24.2,12c-1.1,0-2.2,0-3.4,0h-2.3C35.9,63.8,34.5,63.8,33.2,63.8z
		 M17.5,46.7c-1.1,0-2.2,0.5-2.9,1.4c-0.7,0.9-1,2.1-0.8,3.2C16.1,62,25.4,61.9,37.2,61.8h2.3c1.2,0,2.3,0,3.4,0
		c11.6,0,20,0,22.3-10.4c0.2-1.1,0-2.3-0.7-3.2c-0.7-0.9-1.7-1.4-2.9-1.4L17.5,46.7L17.5,46.7z"/>
</g>
<g>
	<path class="st1" d="M71.7,38.7c-1.7,0-2.6-0.8-3.3-1.4c-0.6-0.5-1-0.9-2-0.9c-0.9,0-1.3,0.4-2,0.9c-0.7,0.6-1.6,1.4-3.3,1.4
		c-1.7,0-2.6-0.8-3.3-1.4c-0.6-0.5-1-0.9-2-0.9c-0.9,0-1.3,0.4-2,0.9c-0.7,0.6-1.6,1.4-3.3,1.4s-2.6-0.8-3.3-1.4
		c-0.6-0.5-1-0.9-2-0.9s-1.3,0.4-2,0.9c-0.7,0.6-1.6,1.4-3.3,1.4s-2.6-0.8-3.3-1.4c-0.6-0.5-1-0.9-2-0.9s-1.3,0.4-2,0.9
		c-0.7,0.6-1.6,1.4-3.3,1.4s-2.6-0.8-3.3-1.4c-0.6-0.5-1-0.9-2-0.9c-0.9,0-1.3,0.4-1.9,0.9c-0.7,0.6-1.6,1.4-3.3,1.4
		s-2.6-0.8-3.3-1.4c-0.6-0.5-1-0.9-2-0.9c-0.6,0-1-0.4-1-1s0.4-1,1-1c1.7,0,2.6,0.8,3.3,1.4c0.6,0.5,1,0.9,2,0.9
		c0.9,0,1.3-0.4,2-0.9c0.7-0.6,1.6-1.4,3.3-1.4s2.6,0.8,3.3,1.4c0.6,0.5,1,0.9,2,0.9c0.9,0,1.3-0.4,2-0.9c0.7-0.6,1.6-1.4,3.3-1.4
		s2.6,0.8,3.3,1.4c0.6,0.5,1,0.9,2,0.9s1.3-0.4,2-0.9c0.7-0.6,1.6-1.4,3.3-1.4s2.6,0.8,3.3,1.4c0.6,0.5,1,0.9,2,0.9s1.3-0.4,2-0.9
		c0.7-0.6,1.6-1.4,3.3-1.4s2.6,0.8,3.3,1.4c0.6,0.5,1,0.9,2,0.9c0.9,0,1.3-0.4,2-0.9c0.7-0.6,1.6-1.4,3.3-1.4c1.7,0,2.6,0.8,3.3,1.4
		c0.6,0.5,1,0.9,2,0.9c0.6,0,1,0.4,1,1S72.2,38.7,71.7,38.7z"/>
</g>
<g>
	<path class="st1" d="M64.8,43.8c-1.7,0-2.6-0.8-3.3-1.4c-0.6-0.5-1-0.9-2-0.9c-0.9,0-1.3,0.4-2,0.9c-0.7,0.6-1.6,1.4-3.3,1.4
		c-1.7,0-2.6-0.8-3.3-1.4c-0.6-0.5-1-0.9-2-0.9c-0.9,0-1.3,0.4-2,0.9c-0.7,0.6-1.6,1.4-3.3,1.4S41,43,40.3,42.4
		c-0.6-0.5-1-0.9-2-0.9s-1.3,0.4-2,0.9c-0.7,0.6-1.6,1.4-3.3,1.4s-2.6-0.8-3.3-1.4c-0.6-0.5-1-0.9-2-0.9s-1.3,0.4-2,0.9
		c-0.7,0.6-1.6,1.4-3.3,1.4s-2.6-0.8-3.3-1.4c-0.6-0.5-1-0.9-2-0.9c-0.9,0-1.3,0.4-1.9,0.9c-0.7,0.6-1.6,1.4-3.3,1.4
		S9.3,43,8.6,42.4c-0.6-0.5-1-0.9-2-0.9c-0.6,0-1-0.4-1-1s0.4-1,1-1c1.7,0,2.6,0.8,3.3,1.4c0.6,0.5,1,0.9,2,0.9c0.9,0,1.3-0.4,2-0.9
		c0.7-0.6,1.6-1.4,3.3-1.4s2.6,0.8,3.3,1.4c0.6,0.5,1,0.9,2,0.9c0.9,0,1.3-0.4,2-0.9c0.7-0.6,1.6-1.4,3.3-1.4s2.6,0.8,3.3,1.4
		c0.6,0.5,1,0.9,2,0.9s1.3-0.4,2-0.9c0.7-0.6,1.6-1.4,3.3-1.4s2.6,0.8,3.3,1.4c0.6,0.5,1,0.9,2,0.9s1.3-0.4,2-0.9
		c0.7-0.6,1.6-1.4,3.3-1.4s2.6,0.8,3.3,1.4c0.6,0.5,1,0.9,2,0.9c0.9,0,1.3-0.4,2-0.9c0.7-0.6,1.6-1.4,3.3-1.4c1.7,0,2.6,0.8,3.3,1.4
		c0.6,0.5,1,0.9,2,0.9c0.6,0,1,0.4,1,1S65.3,43.8,64.8,43.8z"/>
</g>
<g>
	<ellipse transform="matrix(0.646 -0.7633 0.7633 0.646 -2.6424 26.8401)" class="st1" cx="27.6" cy="16.3" rx="1.1" ry="1.1"/>
</g>
<g>
	<ellipse transform="matrix(0.646 -0.7633 0.7633 0.646 0.228 33.019)" class="st1" cx="35.7" cy="16.3" rx="1.1" ry="1.1"/>
</g>
<g>
	<ellipse transform="matrix(0.646 -0.7633 0.7633 0.646 2.764 39.084)" class="st1" cx="43.5" cy="16.6" rx="1.1" ry="1.1"/>
</g>
<g>
	<ellipse transform="matrix(0.646 -0.7633 0.7633 0.646 5.2083 31.0246)" class="st1" cx="36.1" cy="9.9" rx="1.1" ry="1.1"/>
</g>
<g>
	<ellipse transform="matrix(0.646 -0.7633 0.7633 0.646 7.7442 37.0896)" class="st1" cx="43.9" cy="10.2" rx="1.1" ry="1.1"/>
</g>
<g>
	<ellipse transform="matrix(0.646 -0.7633 0.7633 0.646 5.6343 45.2629)" class="st1" cx="51.6" cy="16.6" rx="1.1" ry="1.1"/>
</g>
<g>
	<ellipse transform="matrix(0.646 -0.7633 0.7633 0.646 1.2247 28.7565)" class="st1" cx="31.6" cy="13.1" rx="1.1" ry="1.1"/>
</g>
<g>
	<ellipse transform="matrix(0.646 -0.7633 0.7633 0.646 3.7607 34.8215)" class="st1" cx="39.4" cy="13.4" rx="1.1" ry="1.1"/>
</g>
<g>
	<ellipse transform="matrix(0.646 -0.7633 0.7633 0.646 6.631 41.0005)" class="st1" cx="47.5" cy="13.4" rx="1.1" ry="1.1"/>
</g>
</svg>
