<?xml version="1.0" encoding="utf-8"?>
<!-- Generator: Adobe Illustrator 19.2.1, SVG Export Plug-In . SVG Version: 6.00 Build 0)  -->
<svg version="1.1" id="Layer_1" xmlns="http://www.w3.org/2000/svg" xmlns:xlink="http://www.w3.org/1999/xlink" x="0px" y="0px"
	 width="72.2px" height="81.1px" viewBox="0 0 72.2 81.1" style="enable-background:new 0 0 72.2 81.1;" xml:space="preserve">
<style type="text/css">
	.st0{fill:#F95532;}
	.st1{fill:#4A4A4A;}
</style>
<path class="st0" d="M14,43.8l4.3,28.1c0.3,2,2,3.5,4.1,3.5h33c2.1,0,3.8-1.6,4.1-3.6l3.7-31c0.3-2.4-1.6-4.5-4-4.6l-37.8-0.7
	C16.8,35.4,13.3,39.4,14,43.8z"/>
<path class="st0" d="M16.1,39.9h44.5c3.4,0,6-3.2,5.3-6.5C64,23.5,57.7,5.8,38,6C18.2,6.1,12.5,23.7,10.8,33.5
	C10.2,36.9,12.8,39.9,16.1,39.9z"/>
<path class="st1" d="M6.9,35.8v1c0,2,1.4,3.8,3.3,4.2l4,32.1c0.1,0.5,0.5,0.9,1,0.9h41.7c0.5,0,0.9-0.4,1-0.9l4-32l0,0
	c2.4,0,4.4-2,4.4-4.4v-1c0-2.3-1.8-4.1-4-4.4c2.8-10.8-5.2-24.8-9.4-27.1c-1.7-0.9-2.6,0-2.8,0.3C46.7,8.7,41.9,9,36.9,9.4
	c-2.8,0.2-5.6,0.4-8.3,1.3c-17.3,5.4-17.9,18.4-17.9,20.7C8.5,31.8,6.9,33.6,6.9,35.8z M12.3,41.2h5.8v30.9h-2L12.3,41.2z
	 M24.9,41.2v30.9h-4.8V41.2H24.9z M31.6,41.2v30.9h-4.8V41.2H31.6z M38.4,41.2v30.9h-4.8V41.2H38.4z M45.2,41.2v30.9h-4.8V41.2H45.2
	z M52,41.2v30.9h-4.8V41.2H52z M56,72.1h-2V41.2h5.9L56,72.1z M29.1,12.7c2.5-0.8,5.2-1,7.9-1.2c5.2-0.4,10.6-0.8,14.5-5.5
	c0.2,0,1.1,0.4,2.7,2.3c3.9,4.9,8.3,15.2,6,23.1H12.7C12.6,29.5,12.9,17.7,29.1,12.7z M8.9,35.8c0-1.3,1.1-2.4,2.4-2.4h50.6
	c1.3,0,2.4,1.1,2.4,2.4v1c0,1.3-1.1,2.4-2.4,2.4H61H11.3c-1.3,0-2.4-1.1-2.4-2.4V35.8z"/>
<path class="st1" d="M27.8,18.1l1.3,0.2h0.1c0.5,0,0.9-0.4,1-0.9s-0.3-1.1-0.8-1.1l-1.3-0.2C27.5,16,27,16.4,27,16.9
	C26.9,17.5,27.3,18,27.8,18.1z"/>
<path class="st1" d="M51.4,12.7l1.3,0.2h0.1c0.5,0,0.9-0.4,1-0.9s-0.3-1.1-0.8-1.1l-1.3-0.2c-0.6-0.1-1.1,0.3-1.1,0.8
	C50.5,12.2,50.9,12.7,51.4,12.7z"/>
<path class="st1" d="M49.8,19.2c0.3,0,0.5-0.1,0.7-0.3l0.9-1c0.4-0.4,0.3-1-0.1-1.4s-1-0.3-1.4,0.1l-0.9,1c-0.4,0.4-0.3,1,0.1,1.4
	C49.3,19.2,49.6,19.2,49.8,19.2z"/>
</svg>
