<?xml version="1.0" encoding="UTF-8"?>
<svg width="140px" height="50px" viewBox="0 0 140 50" version="1.1" xmlns="http://www.w3.org/2000/svg" xmlns:xlink="http://www.w3.org/1999/xlink">
    <!-- Generator: Sketch 46.2 (44496) - http://www.bohemiancoding.com/sketch -->
    <title>Group 3</title>
    <desc>Created with Sketch.</desc>
    <defs></defs>
    <g id="Page-1" stroke="none" stroke-width="1" fill="none" fill-rule="evenodd">
        <g id="V1---Solutions" transform="translate(-823.000000, -3042.000000)" fill="#6C7684">
            <g id="Group" transform="translate(823.000000, 3042.000000)">
                <g id="Group-3">
                    <g id="MIL_4c_CMYK" transform="translate(65.000000, 35.000000)">
                        <polyline id="Fill-1" points="0 14.5003894 0 0 3.89670879 0 6.68847835 10.1232235 6.72882778 10.1232235 9.54207967 0 13.4768963 0 13.4768963 14.5003894 11.0665783 14.5003894 11.0665783 3.09252225 11.026976 3.09252225 7.77230886 14.5003894 5.66442477 14.5003894 2.45066743 3.09252225 2.410318 3.09252225 2.410318 14.5003894 0 14.5003894"></polyline>
                        <polygon id="Fill-2" points="16.6254594 2.33055316 19.1159158 2.33055316 19.1159158 0 16.6254594 0"></polygon>
                        <polygon id="Fill-3" points="16.6254594 14.552881 19.1159158 14.552881 19.1159158 4.10966412 16.6254594 4.10966412"></polygon>
                        <polygon id="Fill-4" points="22.2295468 14.5003894 24.7209373 14.5003894 24.7209373 0 22.2295468 0"></polygon>
                        <polygon id="Fill-5" points="27.8336342 14.5003894 30.3244643 14.5003894 30.3244643 0 27.8336342 0"></polygon>
                        <polygon id="Fill-6" points="33.4377217 2.33055316 35.9289253 2.33055316 35.9289253 0 33.4377217 0"></polygon>
                        <polygon id="Fill-7" points="33.4377217 14.552881 35.9289253 14.552881 35.9289253 4.10966412 33.4377217 4.10966412"></polygon>
                        <path d="M38.8550062,14.3799015 L38.8550062,3.93668462 L41.1246616,3.93668462 L41.1246616,5.06086456 C42.0685767,4.19727468 42.8311062,3.73605829 44.2573465,3.73605829 C45.3419242,3.73605829 46.3669118,4.25705161 46.8275678,5.26205129 C47.6926521,4.39790101 48.6963441,3.73605829 50.4235239,3.73605829 C51.508662,3.73605829 52.9943056,4.3780999 52.9943056,6.86874316 L52.9943056,14.3799015 L50.5038491,14.3799015 L50.5038491,7.0889838 C50.5038491,6.24538183 50.162747,5.78341823 49.2586209,5.74418962 C48.6162057,5.74418962 47.7518686,6.32682791 47.1701643,6.86874316 L47.1701643,14.3799015 L44.6797079,14.3799015 L44.6797079,7.0889838 C44.6797079,6.24538183 44.3378585,5.78341823 43.4335456,5.74418962 C42.7913172,5.74418962 41.9277273,6.32682791 41.3454626,6.86874316 L41.3454626,14.3799015 L38.8550062,14.3799015" id="Fill-8"></path>
                        <path d="M60.532924,9.38079974 C58.8651476,9.70191395 57.0376547,10.0432029 57.0376547,11.5097926 C57.0376547,12.2926836 57.5390337,12.7350329 58.2427203,12.7350329 C59.0261717,12.7350329 60.0108098,12.0730033 60.532924,11.6302804 L60.532924,9.38079974 Z M60.7940745,14.381327 L60.6332371,13.4775745 C59.6287979,14.1612731 58.6845091,14.5823269 57.3798776,14.5823269 C55.4907397,14.5823269 54.546451,13.2375327 54.546451,11.8111057 C54.546451,9.44132389 56.4757515,8.19553525 60.532924,7.71321013 L60.532924,6.82981915 C60.532924,6.02694022 59.8906956,5.58477772 59.005997,5.58477772 C57.8414676,5.58477772 57.198492,6.20832585 56.7157932,6.87016857 L55.1105958,5.64530187 C55.7526374,4.54110984 57.4794435,3.69657386 59.005997,3.7374837 C61.8183148,3.79670023 63.0222596,4.82112741 63.0222596,7.95437269 L63.0222596,12.8760691 C63.0222596,13.3979964 63.0631695,13.9201106 63.2232596,14.381327 L60.7940745,14.381327 L60.7940745,14.381327 Z" id="Fill-9"></path>
                        <path d="M65.5678229,14.3799015 L65.5678229,3.93668462 L67.8565322,3.93668462 L67.8565322,5.06086456 C68.7806463,4.41770212 69.8448625,3.73605829 71.07085,3.73605829 C73.1596802,3.73605829 74.1637458,5.10158759 74.1637458,7.2303936 L74.1637458,14.3799015 L71.673663,14.3799015 L71.673663,7.59185724 C71.673663,6.18579171 71.2316873,5.74418962 70.3878985,5.74418962 C69.3027604,5.74418962 68.4797068,6.36680373 68.0575322,6.84819484 L68.0575322,14.3799015 L65.5678229,14.3799015" id="Fill-10"></path>
                    </g>
                    <path d="M6.528,22.872 C2.256,22.872 0.408,21.648 0.408,19.728 C0.408,18.432 1.296,17.472 2.712,16.92 C1.992,16.584 1.632,16.056 1.632,15.312 C1.632,14.496 2.304,13.8 3.216,13.272 C1.992,12.48 1.272,11.208 1.272,9.624 C1.272,6.96 3.408,5.064 6.432,5.064 C7.992,5.064 9.288,5.592 10.176,6.384 C10.944,5.808 12.144,5.328 13.176,5.208 L13.176,7.032 C12.48,7.032 11.64,7.152 10.896,7.44 C11.304,8.016 11.544,8.76 11.544,9.624 C11.544,12.36 9.384,14.136 6.432,14.136 C5.688,14.136 5.064,14.016 4.416,13.824 C3.888,14.064 3.528,14.376 3.528,14.808 C3.528,15.336 3.936,15.576 5.28,15.696 L7.872,15.912 C11.088,16.128 12.72,17.16 12.72,19.2 C12.72,21.6 10.2,22.872 6.528,22.872 Z M6.456,12.624 C8.4,12.624 9.624,11.496 9.624,9.672 C9.624,7.824 8.472,6.672 6.432,6.672 C4.464,6.672 3.24,7.848 3.24,9.672 C3.24,11.496 4.512,12.624 6.456,12.624 Z M6.792,21.312 C9.312,21.312 10.824,20.544 10.824,19.392 C10.824,18.264 9.984,17.76 7.32,17.568 L4.92,17.4 L4.2,17.328 C2.976,17.76 2.328,18.552 2.328,19.416 C2.328,20.688 3.648,21.312 6.792,21.312 Z M15.624,18 L17.688,18 L17.688,9.816 C18.624,8.016 20.136,6.96 22.152,6.96 C22.224,6.96 22.68,6.96 22.752,6.984 L22.896,5.064 L22.632,5.064 C20.16,5.064 18.672,6.216 17.736,7.68 L17.688,7.68 L17.688,5.328 L15.624,5.328 L15.624,18 Z M28.032,18.192 C25.848,18.192 24.456,17.04 24.456,15 C24.456,12.432 26.64,10.608 32.928,9.72 L32.928,9.144 C32.928,7.56 32.088,6.792 30.528,6.792 C28.608,6.792 27.192,7.632 25.944,8.712 L24.864,7.416 C26.328,6.072 28.224,5.064 30.744,5.064 C33.768,5.064 34.968,6.648 34.968,9.288 L34.968,14.88 C34.968,16.416 35.064,17.352 35.328,18 L33.216,18 C33.048,17.472 32.928,16.968 32.928,16.248 C31.512,17.568 29.928,18.192 28.032,18.192 Z M28.632,16.56 C30.312,16.56 31.752,15.864 32.928,14.712 L32.928,11.16 C28.104,11.928 26.496,13.104 26.496,14.688 C26.496,15.912 27.312,16.56 28.632,16.56 Z M42.96,18.192 C40.056,18.192 37.8,16.104 37.8,11.688 C37.8,7.272 40.104,5.064 43.2,5.064 C44.736,5.064 46.176,5.832 47.136,6.936 L47.136,0.24 L49.2,0.24 L49.2,14.88 C49.2,16.416 49.296,17.352 49.584,18 L47.424,18 C47.28,17.592 47.136,16.848 47.136,16.2 C46.128,17.304 44.856,18.192 42.96,18.192 Z M43.464,16.488 C44.928,16.488 46.08,15.696 47.136,14.544 L47.136,8.736 C46.032,7.488 44.832,6.816 43.488,6.816 C41.28,6.816 39.864,8.376 39.864,11.712 C39.864,14.952 41.424,16.488 43.464,16.488 Z M52.968,2.616 L55.128,2.616 L55.128,0.6 L52.968,0.6 L52.968,2.616 Z M53.016,18 L55.08,18 L55.08,5.328 L53.016,5.328 L53.016,18 Z M63.888,18.264 C60.888,18.264 58.152,16.08 58.152,11.664 C58.152,7.056 61.224,5.064 63.888,5.064 C66.888,5.064 69.168,7.176 69.168,11.76 L69.168,12.192 L60.216,12.192 C60.288,15.048 61.944,16.584 64.032,16.584 C65.856,16.584 66.888,15.84 67.848,14.52 L69.048,15.576 C67.872,17.256 66.264,18.264 63.888,18.264 Z M60.264,10.584 L67.2,10.584 C67.032,8.328 65.952,6.792 63.864,6.792 C62.16,6.792 60.552,7.968 60.264,10.584 Z M72.12,18 L74.208,18 L74.208,8.88 C75.528,7.632 76.8,6.84 78.312,6.84 C79.92,6.84 80.64,7.632 80.64,9.312 L80.64,18 L82.704,18 L82.704,8.856 C82.704,6.456 81.384,5.064 78.96,5.064 C76.896,5.064 75.312,6.144 74.208,7.224 L74.208,5.328 L72.12,5.328 L72.12,18 Z M90.672,18.168 C91.32,18.168 92.112,18.096 92.472,18.024 L92.472,16.32 C92.136,16.416 91.632,16.488 91.176,16.488 C89.64,16.488 89.208,15.816 89.208,14.472 L89.208,7.032 L92.496,7.032 L92.496,5.328 L89.208,5.328 L89.208,0.816 L87.144,0.816 L87.144,5.328 L84.936,5.328 L84.936,7.032 L87.144,7.032 L87.144,14.928 C87.144,17.136 88.008,18.168 90.672,18.168 Z M99.84,18 L106.128,0.168 L108.336,0.168 L114.624,18 L112.44,18 L110.688,12.912 L103.632,12.912 L101.88,18 L99.84,18 Z M104.28,11.064 L110.04,11.064 L107.208,2.736 L107.16,2.736 L104.28,11.064 Z M117.408,18 L119.88,18 L119.88,15.48 L117.408,15.48 L117.408,18 Z M124.32,18 L126.432,18 L126.432,0.24 L124.32,0.24 L124.32,18 Z M130.872,18 L133.344,18 L133.344,15.48 L130.872,15.48 L130.872,18 Z" id="gradient-A.I."></path>
                </g>
            </g>
        </g>
    </g>
</svg>