<svg id="Layer_1" data-name="Layer 1" xmlns="http://www.w3.org/2000/svg" viewBox="0 0 178.58 249.45"><defs><style>.cls-1{fill:#f8e4e3;}.cls-2{font-size:25.21px;font-family:CircularStd-Book, Circular Std;}.cls-16,.cls-2{fill:#231f20;}.cls-3{fill:#010101;}.cls-4{fill:#3c3738;}.cls-5{fill:#757679;}.cls-6{fill:#eec5a6;}.cls-7{fill:#443123;opacity:0.07;}.cls-8{fill:#f1c9b1;}.cls-9{fill:#cea28b;}.cls-10{fill:#404f4d;}.cls-11{fill:#381c15;}.cls-12{fill:#6b3720;}.cls-13{fill:#ebf4f0;}.cls-14{fill:#3e3b39;}.cls-15{fill:#d39c82;}.cls-17{fill:#c97c6f;}.cls-18{fill:#1d1611;}.cls-19{fill:none;stroke:#cea28b;stroke-miterlimit:10;stroke-width:0.5px;}.cls-20{opacity:0.1;}</style></defs><title>alison</title><rect class="cls-1" width="178.58" height="249.45" rx="8.5" ry="8.5"/><text class="cls-2" transform="translate(19.12 29.51)">Q</text><path class="cls-3" d="M40.38,46c4.64,4.41,9.27,8.82,9.27,13.22A4.53,4.53,0,0,1,45,63.57c-2.12,0-3.27-.92-4.34-2.76,1.07,3.82,2.22,5.74,4.34,5.74H35.76c2.12,0,3.27-1.92,4.34-5.74-1.07,1.84-2.22,2.76-4.34,2.76a4.53,4.53,0,0,1-4.65-4.39C31.1,54.78,35.74,50.37,40.38,46Z" transform="translate(-10.16 -11.53)"/><text class="cls-2" transform="translate(162.9 220.34) rotate(180)">Q</text><path class="cls-3" d="M160,226.94c-4.64-4.41-9.27-8.82-9.27-13.22a4.53,4.53,0,0,1,4.65-4.39c2.12,0,3.27.92,4.34,2.76-1.07-3.82-2.22-5.74-4.34-5.74h9.24c-2.12,0-3.27,1.92-4.34,5.74,1.07-1.84,2.22-2.76,4.34-2.76a4.53,4.53,0,0,1,4.65,4.39C169.23,218.12,164.59,222.53,160,226.94Z" transform="translate(-10.16 -11.53)"/><path class="cls-4" d="M61.75,119.51c-3.43-11.15-5.83-10-5.83-10-.07-4.41,6.36-33.56,9.62-41.71S86,47.81,88,46.41a10.56,10.56,0,0,0,3-4.19c1.63.93,6.24,3.26,19.43,3.26,11.36,0,25.1,13.1,29.11,20.54,7.25,10.49,8.39,18.79,3.43,57.48,0,0-3.7-.92-6.25,9.84Z" transform="translate(-10.16 -11.53)"/><path class="cls-5" d="M117.08,71.29S110,67.18,110,61.57Z" transform="translate(-10.16 -11.53)"/><path class="cls-5" d="M99.13,51.76S92,50.43,91.55,44.41C91.55,44.41,93.11,48.87,99.13,51.76Z" transform="translate(-10.16 -11.53)"/><path class="cls-5" d="M73.18,81.59a21.67,21.67,0,0,0-8.7,12.73S68.72,84.56,73.18,81.59Z" transform="translate(-10.16 -11.53)"/><path class="cls-5" d="M134.7,79.73s-.63,5.67-3.78,5.67h0S135,81.62,134.7,79.73Z" transform="translate(-10.16 -11.53)"/><path class="cls-6" d="M67.44,161.35s1.11,10.18,1.62,15.8-2.81,18.44-2.81,18.44,7.41,35,32.7,35S133.59,196,133.59,196s-12.82-13.3-8.65-30.62" transform="translate(-10.16 -11.53)"/><path class="cls-7" d="M68.46,163c-.28.69,2,25,2.26,25.56s5.17,3.51,8,7a110.55,110.55,0,0,0,9.06,9s17.6-1.55,20,0,11.22-23.85,15.75-25.12c0,0,.85-9.77.87-13.24S68.46,163,68.46,163Z" transform="translate(-10.16 -11.53)"/><path class="cls-8" d="M99.91,69c7,1,15.7,7.11,24,8.3S130.43,99,133.4,103.7s3.26,6.52,3.26,13.93v15.7s-7.11,13.33-6.52,16-3,18.37-11.85,22.52c-5.33,7.8-12.34,14.9-24.39,14.9s-26.21-14.8-29-26.85-4.23-17.13-2.33-30.24c-.86-13.53-.86-10.15-.86-10.15S61.55,102,74,95.83l2.54-12.9S88,67.4,99.91,69Z" transform="translate(-10.16 -11.53)"/><path class="cls-9" d="M97.53,116.94c0,1.89-.37,5.87-.73,6.48s-.2-2.37-.77-3.05l-.57-.68L94.24,118l.36-2.33,2.92.22Z" transform="translate(-10.16 -11.53)"/><path class="cls-9" d="M104,116.66c-.22,3,1.43,9.47,1.14,8.23a42.59,42.59,0,0,1,1.51-5.31v-2.64Z" transform="translate(-10.16 -11.53)"/><path class="cls-10" d="M82.1,106.88a84.36,84.36,0,0,1,15.49,6.2,23.51,23.51,0,0,0,7.06.93c2.12-.27,13.47-4.51,26.6,1.06,0,0,3.72,1.33,5.41,1.86v5.17s-4.08-.46-4.34,0-1.33,12.34-14.39,12.34c-2.85,0-9.22-3.06-10.55-6.6-2.06,0-2.59-1.78-2.52-7.18a1.3,1.3,0,0,0,1.13-.42c.46-.53.07-2.39.07-2.39s-9-1.51-11-1.33c-.73.07-.66,1.79.07,2.52s1.26,4-2,6a4.25,4.25,0,0,1-1.86-.07s-3.71,5.17-11.74,3.71-10.68-8.36-10.68-16.32c0,0-5.18-1-6.07-.75,0,0,1.12-4.93,1.64-5S78.56,105.81,82.1,106.88Z" transform="translate(-10.16 -11.53)"/><path class="cls-8" d="M72.48,111c1.79-2.7,6.57-3.58,12.54-1.53s9.56,4.64,8.49,10.15-8.16,9.09-14.86,7.63S69,116.33,72.48,111Z" transform="translate(-10.16 -11.53)"/><path class="cls-8" d="M117.85,114.47c8.12.8,12.2,3.38,12.2,8s-4.18,10.81-11.87,10.81-10.94-8.29-10.94-12.67S113,114,117.85,114.47Z" transform="translate(-10.16 -11.53)"/><path class="cls-11" d="M111.73,119.41s8.17-7.57,13.07,1.9Z" transform="translate(-10.16 -11.53)"/><path class="cls-11" d="M92.92,118s-9-11.54-15.27-3.57Z" transform="translate(-10.16 -11.53)"/><path class="cls-12" d="M90.73,140.17c.93-.93.83-1.59,1.8-1.11s2.84,5.12,2.91,5.33" transform="translate(-10.16 -11.53)"/><path class="cls-12" d="M97.58,145.36c1.8-.42,4.57-2.91,5.89-3.39.83-.32,1.32.9,1.32.9" transform="translate(-10.16 -11.53)"/><path class="cls-13" d="M83.25,111.86c3.91,0,9.61,5.52,9.67,6.13s-6.79-.83-9.67-.52c-3-.21-5.6-3.05-5.6-3.05S78.57,111.86,83.25,111.86Z" transform="translate(-10.16 -11.53)"/><path class="cls-13" d="M114.6,117.78c4.34-1.63,7.7-.54,10.2,3.53a16.72,16.72,0,0,1-6.15,1.68c-2.8,0-5.4-1.57-6.48-1.41,0,0-1.19-1.41-.43-2.17A27,27,0,0,1,114.6,117.78Z" transform="translate(-10.16 -11.53)"/><path class="cls-14" d="M84.16,117.42c1.63,0,3.39-.77,3.39-4.07,0,0-3.33-2.21-6.11-1.34C81.43,112,79.37,117.5,84.16,117.42Z" transform="translate(-10.16 -11.53)"/><path class="cls-15" d="M90.73,115.65s.55,1.7-.28,2.33c0,0,1.71.55,2.47,0A21.24,21.24,0,0,0,90.73,115.65Z" transform="translate(-10.16 -11.53)"/><path class="cls-15" d="M108.47,120.77c-.58.58,3.69.8,3.69.8s.54-1.72-.43-2.17A10.72,10.72,0,0,0,108.47,120.77Z" transform="translate(-10.16 -11.53)"/><path class="cls-14" d="M117.42,122.89c2.85,1,6.43-5.84,1.22-5.84s-3.92,1.32-3.92,2.61S115.14,122.08,117.42,122.89Z" transform="translate(-10.16 -11.53)"/><path class="cls-16" d="M111.56,112.28a5.13,5.13,0,0,1,1.23-2.11,2.12,2.12,0,0,1,1.81-.9" transform="translate(-10.16 -11.53)"/><path class="cls-16" d="M112.83,112.16a6.31,6.31,0,0,1,1.68-2.24,3.28,3.28,0,0,1,1.87-1.13" transform="translate(-10.16 -11.53)"/><path class="cls-16" d="M114,112c-.07-.17.06-.35.18-.49l1-1.07a7.63,7.63,0,0,1,1.23-1.18,2.56,2.56,0,0,1,1.59-.52" transform="translate(-10.16 -11.53)"/><path class="cls-16" d="M115.2,112.05a9.36,9.36,0,0,0,1.5-1.26,3.87,3.87,0,0,1,2.31-1.48" transform="translate(-10.16 -11.53)"/><path class="cls-16" d="M116.63,112a6.09,6.09,0,0,0,1.73-1c.36-.33.64-.74,1-1.08a1.78,1.78,0,0,1,1.3-.6" transform="translate(-10.16 -11.53)"/><path class="cls-16" d="M118.76,112c1.18-.27,1.72-1.74,2.86-2.14.11,0,.27,0,.31.06" transform="translate(-10.16 -11.53)"/><path class="cls-16" d="M120.16,112.17c.91-.19,1.33-1.28,2.15-1.73a3.45,3.45,0,0,1,.75-.27" transform="translate(-10.16 -11.53)"/><path class="cls-16" d="M121.78,112.48a5.23,5.23,0,0,1,2.78-1.77c.06,0,.15,0,.12.07" transform="translate(-10.16 -11.53)"/><path class="cls-16" d="M122.88,112.72l.84-.73a5.12,5.12,0,0,1,1-.75,1.72,1.72,0,0,1,1.25-.15" transform="translate(-10.16 -11.53)"/><path class="cls-16" d="M124.81,112.64a2.72,2.72,0,0,1,2.46-1" transform="translate(-10.16 -11.53)"/><path class="cls-16" d="M126.05,112.87l1.54-.79c.18-.09.45-.15.53,0" transform="translate(-10.16 -11.53)"/><path class="cls-16" d="M127.27,113.29a4,4,0,0,1,1.86-.9" transform="translate(-10.16 -11.53)"/><path class="cls-16" d="M128.4,113.68a1,1,0,0,1,1.33-.49" transform="translate(-10.16 -11.53)"/><path class="cls-16" d="M130.6,115.52a1.44,1.44,0,0,1,.65-.46" transform="translate(-10.16 -11.53)"/><path class="cls-16" d="M95,110.92a3.45,3.45,0,0,0-1.4-4.23" transform="translate(-10.16 -11.53)"/><path class="cls-16" d="M94.24,110.24a5.8,5.8,0,0,0-1-3,2.72,2.72,0,0,0-.84-.68" transform="translate(-10.16 -11.53)"/><path class="cls-16" d="M90.79,105.9c.06-.08.18,0,.25.07a9.32,9.32,0,0,1,1.88,3.81.58.58,0,0,0,.16.33c.1.08.28.06.31-.06" transform="translate(-10.16 -11.53)"/><path class="cls-16" d="M73.35,105.5a1.65,1.65,0,0,1,2.44.07" transform="translate(-10.16 -11.53)"/><path class="cls-16" d="M75.4,103.84A4.61,4.61,0,0,1,78.21,106" transform="translate(-10.16 -11.53)"/><path class="cls-16" d="M77.09,103.75a4.09,4.09,0,0,1,2.57,2.69" transform="translate(-10.16 -11.53)"/><path class="cls-16" d="M78.26,103.62c.35-.26.86-.06,1.22.19a4.84,4.84,0,0,1,1.83,2.5" transform="translate(-10.16 -11.53)"/><path class="cls-16" d="M80.43,103.27a2.73,2.73,0,0,1,1.69,1.27,6,6,0,0,1,.72,2" transform="translate(-10.16 -11.53)"/><path class="cls-16" d="M82.63,103.34a4.74,4.74,0,0,1,2,3.79" transform="translate(-10.16 -11.53)"/><path class="cls-16" d="M84.41,103.92a3.8,3.8,0,0,1,1.29,1.76,6.41,6.41,0,0,0,.51,1.41" transform="translate(-10.16 -11.53)"/><path class="cls-16" d="M86.64,104.81a.79.79,0,0,1,.83.25,2.33,2.33,0,0,1,.42.81l.92,2.54c0,.13.11.28.24.32s.3-.14.19-.23" transform="translate(-10.16 -11.53)"/><path class="cls-16" d="M89.25,105.2c-.12,0-.06.2,0,.27a3.46,3.46,0,0,1,1,2,6.6,6.6,0,0,0,.67,2.11" transform="translate(-10.16 -11.53)"/><path class="cls-9" d="M90.71,132.93c-2.29,1.6-2.95,5.26-.87,7.28.11.11.59,0,.43-.13-2-1.95-1.32-5.5.87-7,.17-.12-.3-.22-.43-.13Z" transform="translate(-10.16 -11.53)"/><path class="cls-9" d="M107.5,138.5a5,5,0,0,1-2.19,4.21c-.17.12.3.22.43.13A5.12,5.12,0,0,0,108,138.5c0-.18-.51-.17-.5,0Z" transform="translate(-10.16 -11.53)"/><path class="cls-15" d="M93.9,131.5c.84-1.43-1.6,4.69-1.26,6.58,0,0-1.58,1.15-1.71.42C90.85,138,91.72,135.18,93.9,131.5Z" transform="translate(-10.16 -11.53)"/><path class="cls-17" d="M81.69,153.32c6.47-1.82,13,.1,13.52.81,0,0,3.74-2.43,13.21,2.93,0,0-3.53,3-14.52,3C93.9,160.09,84,158.27,81.69,153.32Z" transform="translate(-10.16 -11.53)"/><path class="cls-9" d="M86.64,137.34s-.87-.36-1.33.24S75,146.3,74.51,148.52a28.14,28.14,0,0,0,3.74,18.14s-6-15.21-2-19.2C79,144.25,86.64,137.34,86.64,137.34Z" transform="translate(-10.16 -11.53)"/><path class="cls-8" d="M53.07,121.58c-1.9,6.26.83,9.71.83,9.71s-.36,9.36,4.51,9.36a3.08,3.08,0,0,0,3.38-2.74l.81-8.24a73.39,73.39,0,0,0-.86-10.15s-2.74-10-5.83-10S53.07,111.87,53.07,121.58Z" transform="translate(-10.16 -11.53)"/><path class="cls-8" d="M142.9,123.5c3.19,0-4.72,29.06-10.34,29.06,0,0-2.09-.49-2.26-1.86s.11-7.53,6.35-17.36C136.66,133.33,137.54,123.5,142.9,123.5Z" transform="translate(-10.16 -11.53)"/><circle class="cls-18" cx="74.19" cy="102.93" r="0.73"/><circle class="cls-18" cx="107.83" cy="108.18" r="0.73"/><path class="cls-13" d="M83.78,114.9a1.27,1.27,0,0,1,1.28-.56s0,.69-.48.81A.79.79,0,0,1,83.78,114.9Z" transform="translate(-10.16 -11.53)"/><path class="cls-13" d="M118.54,119.25l-1.06,1a.93.93,0,0,0,1,.05C118.89,120,118.54,119.25,118.54,119.25Z" transform="translate(-10.16 -11.53)"/><path class="cls-19" d="M109,142.43c1.42,5.68,2.37,6.51,3.91,8.52s3.55,6,2.25,9.83a16.33,16.33,0,0,1-4.73,6.51" transform="translate(-10.16 -11.53)"/><path class="cls-5" d="M107.79,66.1s-8.86-3.89-9.29-7.34A99.43,99.43,0,0,1,107.79,66.1Z" transform="translate(-10.16 -11.53)"/><g class="cls-20"><path class="cls-11" d="M73.33,106.85c4-1.38,8-.56,12,.11,2.65.44,7.93.46,7.79,4.27L95,109a38.42,38.42,0,0,0-16.69-5.21l-1.76,2.37c2.93-.27,6.93-1.24,9.77-.15,1.94.74,3.18,2.25,5.38,2.27.67,0,1.81-2.37,1.67-2.37-2.79,0-4.65-2.5-7.49-2.71a48,48,0,0,0-7.65.58c-.66.06-1.68,2.37-1.76,2.37a38.42,38.42,0,0,1,16.69,5.21c.42.25,1.86-1.89,1.87-2.28.14-3.89-5-4-7.84-4.44-4.11-.69-8.16-1.53-12.21-.12-.77.27-1.55,2.32-1.67,2.37Z" transform="translate(-10.16 -11.53)"/></g><g class="cls-20"><path class="cls-11" d="M113.94,111.65a23.33,23.33,0,0,1,16.18,3l-1-2.26c-3.06-.48-5.84-1.94-9-2.34a27.67,27.67,0,0,0-8.87.37l1.77,2.36a9.26,9.26,0,0,1,9.34-1.29c1.37.7-.05-1.81-.73-2.16-3.1-1.59-8-1.29-10.54,1.15-.62.58,1.11,2.49,1.77,2.36a26.65,26.65,0,0,1,9.69-.24c2.66.46,5.09,1.74,7.73,2.16,1.29.2-.64-2.06-1-2.26a24.79,24.79,0,0,0-17.07-3.25c-.8.12.76,2.54,1.62,2.42Z" transform="translate(-10.16 -11.53)"/></g></svg>