<svg id="Layer_1" data-name="Layer 1" xmlns="http://www.w3.org/2000/svg" viewBox="0 0 196 266.67"><defs><style>.cls-1{fill:#f8e4e3;}.cls-2{fill:#231f20;}.cls-3{fill:#010101;}.cls-4{fill:#3c3738;}.cls-5{fill:#757679;}.cls-6{fill:#eec5a6;}.cls-7{fill:#443123;opacity:0.07;}.cls-8{fill:#f1c9b1;}.cls-9{fill:#cea28b;}.cls-10{fill:#404f4d;}.cls-11{fill:#381c15;}.cls-12{fill:#6b3720;}.cls-13{fill:#ebf4f0;}.cls-14{fill:#3e3b39;}.cls-15{fill:#d39c82;}.cls-16{fill:#c97c6f;}.cls-17{fill:#1d1611;}.cls-18{fill:none;stroke:#cea28b;stroke-miterlimit:10;stroke-width:0.5px;}.cls-19{opacity:0.1;}</style></defs><title>badbitchcards</title><rect class="cls-1" x="8.63" y="8.48" width="178.58" height="249.45" rx="8.5" ry="8.5"/><path class="cls-2" d="M27.85,18.73a8.91,8.91,0,0,1,9,9.3,9.26,9.26,0,0,1-2.52,6.6L36.4,37l-1.69,1.49-2.17-2.39a9.06,9.06,0,0,1-4.69,1.29,8.93,8.93,0,0,1-9-9.33A8.91,8.91,0,0,1,27.85,18.73Zm0,16.36A6.39,6.39,0,0,0,31,34.31l-3.1-3.48,1.71-1.49,3.13,3.53A7.42,7.42,0,0,0,34.31,28c0-4.66-3.13-7-6.45-7s-6.45,2.37-6.45,7S24.53,35.09,27.85,35.09Z"/><path class="cls-3" d="M28.85,41.91c4.64,4.41,9.27,8.82,9.27,13.22a4.53,4.53,0,0,1-4.65,4.39c-2.12,0-3.27-.92-4.34-2.76,1.07,3.82,2.22,5.74,4.34,5.74H24.23c2.12,0,3.27-1.92,4.34-5.74-1.07,1.84-2.22,2.76-4.34,2.76a4.53,4.53,0,0,1-4.65-4.39C19.57,50.73,24.21,46.32,28.85,41.91Z"/><path class="cls-2" d="M168.42,251.07a8.91,8.91,0,0,1-9-9.3,9.26,9.26,0,0,1,2.52-6.6l-2.09-2.34,1.69-1.49,2.17,2.39a9,9,0,0,1,4.69-1.29,9.32,9.32,0,0,1,0,18.63Zm0-16.36a6.39,6.39,0,0,0-3.12.78l3.1,3.48-1.71,1.49-3.13-3.53a7.43,7.43,0,0,0-1.59,4.84c0,4.66,3.13,7,6.45,7s6.45-2.37,6.45-7S171.75,234.71,168.42,234.71Z"/><path class="cls-3" d="M167.42,227.89c-4.64-4.41-9.27-8.82-9.27-13.22a4.53,4.53,0,0,1,4.65-4.39c2.12,0,3.27.92,4.34,2.76-1.07-3.82-2.22-5.74-4.34-5.74H172c-2.12,0-3.27,1.92-4.34,5.74,1.07-1.84,2.22-2.76,4.34-2.76a4.53,4.53,0,0,1,4.65,4.39C176.7,219.07,172.06,223.48,167.42,227.89Z"/><path class="cls-4" d="M60.22,116.46c-3.43-11.15-5.83-10-5.83-10-.07-4.41,6.36-33.56,9.62-41.71s20.5-20,22.42-21.43a10.56,10.56,0,0,0,3-4.19c1.63.93,6.24,3.26,19.43,3.26,11.36,0,25.1,13.1,29.11,20.54,7.25,10.49,8.39,18.79,3.43,57.48,0,0-3.7-.92-6.25,9.84Z"/><path class="cls-5" d="M115.55,68.24s-7.13-4.1-7.13-9.72Z"/><path class="cls-5" d="M97.6,48.71S90.47,47.38,90,41.36C90,41.36,91.58,45.82,97.6,48.71Z"/><path class="cls-5" d="M71.64,78.54a21.67,21.67,0,0,0-8.7,12.73S67.19,81.51,71.64,78.54Z"/><path class="cls-5" d="M133.17,76.68s-.63,5.67-3.78,5.67h0S133.48,78.57,133.17,76.68Z"/><path class="cls-6" d="M65.91,158.3s1.11,10.18,1.62,15.8-2.81,18.44-2.81,18.44,7.41,35,32.7,35,34.63-34.6,34.63-34.6-12.82-13.3-8.65-30.62"/><path class="cls-7" d="M66.93,160c-.28.69,2,25,2.26,25.56s5.17,3.51,8,7a110.55,110.55,0,0,0,9.06,9s17.6-1.55,20,0S117.46,177.68,122,176.4c0,0,.85-9.77.87-13.24S66.93,160,66.93,160Z"/><path class="cls-8" d="M98.38,66c7,1,15.7,7.11,24,8.3s6.52,21.63,9.48,26.37,3.26,6.52,3.26,13.93v15.7s-7.11,13.33-6.52,16-3,18.37-11.85,22.52c-5.33,7.8-12.34,14.9-24.39,14.9s-26.21-14.8-29-26.85-4.23-17.13-2.33-30.24c-.86-13.53-.86-10.15-.86-10.15S60,98.91,72.49,92.78L75,79.88S86.42,64.35,98.38,66Z"/><path class="cls-9" d="M96,113.89c0,1.89-.37,5.87-.73,6.48s-.2-2.37-.77-3.05l-.57-.68-1.21-1.7.36-2.33,2.92.22Z"/><path class="cls-9" d="M102.51,113.61c-.22,3,1.43,9.47,1.14,8.23a42.59,42.59,0,0,1,1.51-5.31v-2.64Z"/><path class="cls-10" d="M80.57,103.83A84.36,84.36,0,0,1,96.06,110a23.51,23.51,0,0,0,7.06.93c2.12-.27,13.47-4.51,26.6,1.06,0,0,3.72,1.33,5.41,1.86V119s-4.08-.46-4.34,0-1.33,12.34-14.39,12.34c-2.85,0-9.22-3.06-10.55-6.6-2.06,0-2.59-1.78-2.52-7.18a1.3,1.3,0,0,0,1.13-.42c.46-.53.07-2.39.07-2.39s-9-1.51-11-1.33c-.73.07-.66,1.79.07,2.52s1.26,4-2,6a4.25,4.25,0,0,1-1.86-.07S86,127.14,78,125.68,67.3,117.32,67.3,109.36c0,0-5.18-1-6.07-.75,0,0,1.12-4.93,1.64-5S77,102.76,80.57,103.83Z"/><path class="cls-8" d="M70.95,108c1.79-2.7,6.57-3.58,12.54-1.53S93,111.09,92,116.59s-8.16,9.09-14.86,7.63S67.43,113.28,70.95,108Z"/><path class="cls-8" d="M116.32,111.42c8.12.8,12.2,3.38,12.2,8s-4.18,10.81-11.87,10.81-10.94-8.29-10.94-12.67S111.49,110.94,116.32,111.42Z"/><path class="cls-11" d="M110.2,116.36s8.17-7.57,13.07,1.9Z"/><path class="cls-11" d="M91.39,114.93s-9-11.54-15.27-3.57Z"/><path class="cls-12" d="M89.2,137.12c.93-.93.83-1.59,1.8-1.11s2.84,5.12,2.91,5.33"/><path class="cls-12" d="M96.05,142.31c1.8-.42,4.57-2.91,5.89-3.39.83-.32,1.32.9,1.32.9"/><path class="cls-13" d="M81.72,108.81c3.91,0,9.61,5.52,9.67,6.13s-6.79-.83-9.67-.52c-3-.21-5.6-3.05-5.6-3.05S77,108.81,81.72,108.81Z"/><path class="cls-13" d="M113.07,114.73c4.34-1.63,7.7-.54,10.2,3.53a16.72,16.72,0,0,1-6.15,1.68c-2.8,0-5.4-1.57-6.48-1.41,0,0-1.19-1.41-.43-2.17A27,27,0,0,1,113.07,114.73Z"/><path class="cls-14" d="M82.63,114.37c1.63,0,3.39-.77,3.39-4.07,0,0-3.33-2.21-6.11-1.34C79.9,109,77.84,114.45,82.63,114.37Z"/><path class="cls-15" d="M89.2,112.6s.55,1.7-.28,2.33c0,0,1.71.55,2.47,0A21.24,21.24,0,0,0,89.2,112.6Z"/><path class="cls-15" d="M106.94,117.72c-.58.58,3.69.8,3.69.8s.54-1.72-.43-2.17A10.72,10.72,0,0,0,106.94,117.72Z"/><path class="cls-14" d="M115.89,119.84c2.85,1,6.43-5.84,1.22-5.84s-3.92,1.32-3.92,2.61S113.61,119,115.89,119.84Z"/><path class="cls-2" d="M110,109.23a5.13,5.13,0,0,1,1.23-2.11,2.12,2.12,0,0,1,1.81-.9"/><path class="cls-2" d="M111.29,109.11a6.31,6.31,0,0,1,1.68-2.24,3.28,3.28,0,0,1,1.87-1.13"/><path class="cls-2" d="M112.45,108.94c-.07-.17.06-.35.18-.49l1-1.07a7.63,7.63,0,0,1,1.23-1.18,2.56,2.56,0,0,1,1.59-.52"/><path class="cls-2" d="M113.67,109a9.36,9.36,0,0,0,1.5-1.26,3.87,3.87,0,0,1,2.31-1.48"/><path class="cls-2" d="M115.09,108.93a6.09,6.09,0,0,0,1.73-1c.36-.33.64-.74,1-1.08a1.78,1.78,0,0,1,1.3-.6"/><path class="cls-2" d="M117.23,108.9c1.18-.27,1.72-1.74,2.86-2.14.11,0,.27,0,.31.06"/><path class="cls-2" d="M118.63,109.12c.91-.19,1.33-1.28,2.15-1.73a3.45,3.45,0,0,1,.75-.27"/><path class="cls-2" d="M120.24,109.43a5.23,5.23,0,0,1,2.78-1.77c.06,0,.15,0,.12.07"/><path class="cls-2" d="M121.35,109.67l.84-.73a5.12,5.12,0,0,1,1-.75,1.72,1.72,0,0,1,1.25-.15"/><path class="cls-2" d="M123.28,109.59a2.72,2.72,0,0,1,2.46-1"/><path class="cls-2" d="M124.52,109.81l1.54-.79c.18-.09.45-.15.53,0"/><path class="cls-2" d="M125.74,110.24a4,4,0,0,1,1.86-.9"/><path class="cls-2" d="M126.87,110.63a1,1,0,0,1,1.33-.49"/><path class="cls-2" d="M129.07,112.47a1.44,1.44,0,0,1,.65-.46"/><path class="cls-2" d="M93.43,107.87a3.45,3.45,0,0,0-1.4-4.23"/><path class="cls-2" d="M92.71,107.19a5.8,5.8,0,0,0-1-3,2.72,2.72,0,0,0-.84-.68"/><path class="cls-2" d="M89.26,102.85c.06-.08.18,0,.25.07a9.32,9.32,0,0,1,1.88,3.81.58.58,0,0,0,.16.33c.1.08.28.06.31-.06"/><path class="cls-2" d="M71.82,102.45a1.65,1.65,0,0,1,2.44.07"/><path class="cls-2" d="M73.87,100.79A4.61,4.61,0,0,1,76.68,103"/><path class="cls-2" d="M75.56,100.7a4.09,4.09,0,0,1,2.57,2.69"/><path class="cls-2" d="M76.73,100.57c.35-.26.86-.06,1.22.19a4.84,4.84,0,0,1,1.83,2.5"/><path class="cls-2" d="M78.9,100.22a2.73,2.73,0,0,1,1.69,1.27,6,6,0,0,1,.72,2"/><path class="cls-2" d="M81.1,100.29a4.74,4.74,0,0,1,2,3.79"/><path class="cls-2" d="M82.87,100.87a3.8,3.8,0,0,1,1.29,1.76,6.41,6.41,0,0,0,.51,1.41"/><path class="cls-2" d="M85.11,101.76a.79.79,0,0,1,.83.25,2.33,2.33,0,0,1,.42.81l.92,2.54c0,.13.11.28.24.32s.3-.14.19-.23"/><path class="cls-2" d="M87.72,102.15c-.12,0-.06.2,0,.27a3.46,3.46,0,0,1,1,2,6.6,6.6,0,0,0,.67,2.11"/><path class="cls-9" d="M89.18,129.88c-2.29,1.6-2.95,5.26-.87,7.28.11.11.59,0,.43-.13-2-1.95-1.32-5.5.87-7,.17-.12-.3-.22-.43-.13Z"/><path class="cls-9" d="M106,135.45a5,5,0,0,1-2.19,4.21c-.17.12.3.22.43.13a5.12,5.12,0,0,0,2.25-4.34c0-.18-.51-.17-.5,0Z"/><path class="cls-15" d="M92.36,128.45c.84-1.43-1.6,4.69-1.26,6.58,0,0-1.58,1.15-1.71.42C89.31,135,90.19,132.13,92.36,128.45Z"/><path class="cls-16" d="M80.16,150.27c6.47-1.82,13,.1,13.52.81,0,0,3.74-2.43,13.21,2.93,0,0-3.53,3-14.52,3C92.36,157,82.48,155.22,80.16,150.27Z"/><path class="cls-9" d="M85.11,134.29s-.87-.36-1.33.24-10.3,8.71-10.8,10.93a28.14,28.14,0,0,0,3.74,18.14s-6-15.21-2-19.2C77.42,141.2,85.11,134.29,85.11,134.29Z"/><path class="cls-8" d="M51.54,118.53c-1.9,6.26.83,9.71.83,9.71s-.36,9.36,4.51,9.36a3.08,3.08,0,0,0,3.38-2.74l.81-8.24a73.39,73.39,0,0,0-.86-10.15s-2.74-10-5.83-10S51.54,108.82,51.54,118.53Z"/><path class="cls-8" d="M141.37,120.45c3.19,0-4.72,29.06-10.34,29.06,0,0-2.09-.49-2.26-1.86s.11-7.53,6.35-17.36C135.13,130.28,136,120.45,141.37,120.45Z"/><circle class="cls-17" cx="82.82" cy="111.4" r="0.73"/><circle class="cls-17" cx="116.46" cy="116.66" r="0.73"/><path class="cls-13" d="M82.25,111.85a1.27,1.27,0,0,1,1.28-.56s0,.69-.48.81A.79.79,0,0,1,82.25,111.85Z"/><path class="cls-13" d="M117,116.2l-1.06,1a.93.93,0,0,0,1,.05C117.36,117,117,116.2,117,116.2Z"/><path class="cls-18" d="M107.45,139.38c1.42,5.68,2.37,6.51,3.91,8.52s3.55,6,2.25,9.83a16.33,16.33,0,0,1-4.73,6.51"/><path class="cls-5" d="M106.26,63.05S97.41,59.17,97,55.71A99.43,99.43,0,0,1,106.26,63.05Z"/><g class="cls-19"><path class="cls-11" d="M71.79,103.8c4-1.38,8-.56,12,.11,2.65.44,7.93.46,7.79,4.27l1.87-2.28a38.42,38.42,0,0,0-16.69-5.21L75,103.06c2.93-.27,6.93-1.24,9.77-.15,1.94.74,3.18,2.25,5.38,2.27.67,0,1.81-2.37,1.67-2.37-2.79,0-4.65-2.5-7.49-2.71a48,48,0,0,0-7.65.58c-.66.06-1.68,2.37-1.76,2.37a38.42,38.42,0,0,1,16.69,5.21c.42.25,1.86-1.89,1.87-2.28.14-3.89-5-4-7.84-4.44-4.11-.69-8.16-1.53-12.21-.12-.77.27-1.55,2.32-1.67,2.37Z"/></g><g class="cls-19"><path class="cls-11" d="M112.41,108.6a23.33,23.33,0,0,1,16.18,3l-1-2.26c-3.06-.48-5.84-1.94-9-2.34a27.67,27.67,0,0,0-8.87.37l1.77,2.36a9.26,9.26,0,0,1,9.34-1.29c1.37.7-.05-1.81-.73-2.16-3.1-1.59-8-1.29-10.54,1.15-.62.58,1.11,2.49,1.77,2.36a26.65,26.65,0,0,1,9.69-.24c2.66.46,5.09,1.74,7.73,2.16,1.29.2-.64-2.06-1-2.26a24.79,24.79,0,0,0-17.07-3.25c-.8.12.76,2.54,1.62,2.42Z"/></g></svg>