<svg id="Layer_1" data-name="Layer 1" xmlns="http://www.w3.org/2000/svg" viewBox="0 0 196 266.67"><defs><style>.cls-1{fill:#f8e4e3;}.cls-2{fill:#1d1611;}.cls-3{fill:#ebc0a8;}.cls-4{fill:#d0af9b;}.cls-5{fill:#8f5f4a;}.cls-6{fill:#efc7b0;}.cls-7{fill:#381c15;}.cls-8{fill:#d25759;}.cls-9{fill:#f8e8d7;}.cls-10{fill:#6b3720;}.cls-11{fill:#d39c82;}.cls-12{fill:#ebf4f0;}.cls-13{fill:#231f20;}.cls-14{fill:#eec0ac;}.cls-15{fill:#f4cdb5;}.cls-16{fill:#572000;}.cls-17{fill:#d8cac6;}.cls-18{opacity:0.3;}.cls-19{fill:#be1e2d;}</style></defs><title>badbitchcards</title><rect class="cls-1" x="8.63" y="8.48" width="178.58" height="249.45" rx="8.5" ry="8.5"/><path class="cls-2" d="M120.82,147.13c-.78,4.66,15.49,29.63,8.74,44.75-4.54,10.17-8.78,14.42-11.36,16.18a.63.63,0,0,1-.85-.91c4.25-5.49,12.49-18.81,3.24-40.46h0s-22.47,0-45.31-1.88a.63.63,0,0,0-.62.89c9.86,22.65-8.3,56.55-11.13,61.59a.63.63,0,0,1-.94.19c-12.43-9.94-7.52-31.08-3.69-42.37a.63.63,0,0,1,1.2.38,65.26,65.26,0,0,1-7.82,17.29c-5.86,9,2.83,23.84,8.19,31.47a.63.63,0,0,1-1,.81C53.42,229,44,216.72,48.3,201.86c0,0,3.95-17.39.11-29.46s-7.68-47.7-.89-82.94l0-.08C53.75,69.75,60,51.79,79,43.61S117.4,48.2,117.4,48.2c26.82,16.73,30,36.86,29.6,46.36s16.33,75,16.73,76.6l0,.06C173.2,195,151.67,216.29,145.92,221c-10.23,8.33-16.6,7.13-16.6,7.13"/><path class="cls-2" d="M74.46,138.86h0"/><path class="cls-3" d="M76.55,140.57s-.7,20.62-2.34,24.14,7.68,28.09,23.42,28.09,23-26.12,23-26.12-6.69-21.62-3.42-26.12C117.17,140.57,90.47,126.66,76.55,140.57Z"/><path class="cls-4" d="M99.18,145.19s8.16,27.55,8.29,32.82c4.63-1.42,12-15.11,12-15.11s-5-15.62-2.34-22.33C114,133.62,99,142.56,99.18,145.19Z"/><path class="cls-2" d="M74.59,140.4s10.35,11.28,13.92,11.37,7.62,0,10.57,0,5.62.56,7.62.56,10.23-7.23,12.18-8.74l.24-3.76-40.3-3.7-4.37,2.72Z"/><path class="cls-5" d="M79.63,98.75S75.8,98.92,75.8,96c0,0,10.91-5.26,15.27-.9,3,3.2,3.4,4.34,3.4,4.34l-1.16.42Z"/><path class="cls-5" d="M121.58,100.7a11.33,11.33,0,0,0,2.12-.6,4.82,4.82,0,0,0,1.59-1s-4.87-6.52-11.68-3.83c-5.73,2.4-6.58,4.94-6.58,4.94l.65.15Z"/><path class="cls-6" d="M95,63.3c4.57,1.58,12.46.69,15.62-.64s11.24,8.33,15,17.2c0,7.69,2.56,12,3,15.78s0,14.79-1.38,17.55-1.77,9.07-1.77,9.07-1.21,11.64-3.63,16-11.32,12.84-15.26,12.84-10.81-1-15.39,0S75,140.77,72.79,137.21c-1.14-8.9-2.42-22.76-3.56-26.2s-1.78-17,1.65-21.49,6.1-17.8,7.38-19.46S90.39,61.72,95,63.3Z"/><path class="cls-7" d="M110.35,99.48s4.56-4.3,8.64-3.4,4.71,4,4.71,4Z"/><path class="cls-7" d="M77.62,98.14A12.17,12.17,0,0,1,86,94.84c5.31,0,6.43,4.29,6.43,4.29l-12.83-.39S77.6,98.68,77.62,98.14Z"/><path class="cls-8" d="M85.14,126.58s7.94-3.7,16-1.08c0,0,5.47-2.93,12.18,1.62a8.74,8.74,0,0,1-1.46,3.47c-1.31,2-4.39,5.55-11.87,5.55S87,130.13,85.14,126.58Z"/><path class="cls-9" d="M86.22,127a11.76,11.76,0,0,1,3.7.46c1.39.54,8.63,1,10.48.77a24,24,0,0,1,11.56.06A7.56,7.56,0,0,1,109,129.9c-1.93,0-5.86,1.54-7.32,1.54s-9.32-2.77-10.87-2.62C88.84,128.66,87.3,127.51,86.22,127Z"/><path class="cls-10" d="M95.27,118s.56-1.61,2.61-.39,1.61,2.23,1.61,2.23"/><path class="cls-10" d="M102.78,120.43a9.68,9.68,0,0,0,1.78-1.56c.56-.72,1.5-1.5,2.11-1.45s.22.72.22.72"/><path class="cls-11" d="M100.2,120.6a3.51,3.51,0,0,0,2.22.27c.66-.12.21-.56-.27-.48a1.91,1.91,0,0,1-1.24-.14c-.28-.15-1.2.09-.71.35Z"/><path class="cls-11" d="M92.86,113.44c-1,1.68-1.16,3.89.52,5.18.19.14.9,0,.65-.19-1.59-1.22-1.38-3.31-.44-4.89.14-.23-.59-.32-.72-.1Z"/><path class="cls-11" d="M108.49,115.09c.4,1.51.17,3.6-1.78,3.65-.45,0-.45.39,0,.38a2.44,2.44,0,0,0,2.58-1.75,4.6,4.6,0,0,0,0-2.27c-.07-.27-.81-.22-.75,0Z"/><path class="cls-11" d="M113.4,121.93c3.6,2.12,3.67,6.22,1.55,9.46-.14.22.58.31.72.1,2.23-3.42,2-7.62-1.75-9.83-.21-.12-.89.05-.53.27Z"/><path class="cls-11" d="M85.26,120.56c-4.22,1.89-4.46,6.76-2.94,10.55.09.23.83.17.72-.1-1.45-3.6-1.31-8.36,2.75-10.18.38-.17-.32-.36-.53-.27Z"/><path class="cls-12" d="M79.63,98.75s4.11-3.18,7.72-2.74a6.93,6.93,0,0,1,5.11,3.13s-.66.88-1,.88a13.37,13.37,0,0,0-1.73-.14,14.22,14.22,0,0,1-4.59.39A29.67,29.67,0,0,1,79.63,98.75Z"/><path class="cls-12" d="M110.35,99.48s4.89-2.94,7.57-2,2.89,2.84,2.89,2.84-.27,1.47-3.92,1.47-4.38-1.31-6.22-.84C110.66,100.95,109.77,100.21,110.35,99.48Z"/><path class="cls-6" d="M124.91,125.87s.16,4.62,2.63,4.48,3.71-2.17,3.71-4.48a8.91,8.91,0,0,1,2.09-6c1.29-1.29,1.29-9.6,3-11.27s-.27-6.87-1.05-6.81c-1.38.1-8.06,13.42-9.39,14.07Z"/><path class="cls-13" d="M95.1,93.06a2.28,2.28,0,0,0,.65-1.66,4.67,4.67,0,0,0-.42-1.77"/><path class="cls-13" d="M94.22,92.64a7.38,7.38,0,0,0,.25-1.89,2.48,2.48,0,0,0-.7-1.72"/><path class="cls-13" d="M92.88,92.13a4.82,4.82,0,0,0-.61-3.94"/><path class="cls-13" d="M91.79,91.51a6.65,6.65,0,0,0-1-3.65"/><path class="cls-13" d="M90.86,91.38a7.49,7.49,0,0,0-1-3.74"/><path class="cls-13" d="M89.72,91a6.62,6.62,0,0,0-1.21-3.83s0-.05-.08,0,0,.07,0,0"/><path class="cls-13" d="M87.21,86.62a9.08,9.08,0,0,1,1.73,4l-.06-.27"/><path class="cls-13" d="M86,86.63a8.48,8.48,0,0,1,1.68,3.31"/><path class="cls-13" d="M84.67,86.47c.31,0,.54.27.72.52a9.25,9.25,0,0,1,1.16,2.31"/><path class="cls-13" d="M83.53,86.3a8.21,8.21,0,0,1,1.85,2.61"/><path class="cls-13" d="M82.14,86.37A5.32,5.32,0,0,1,84.26,89l-.07-.34"/><path class="cls-13" d="M83.22,88.89a6.75,6.75,0,0,0-2.17-2.47"/><path class="cls-13" d="M82.25,88.83a3.42,3.42,0,0,0-2.19-1.9"/><path class="cls-13" d="M81.08,88.62a6.09,6.09,0,0,0-1.71-1.14"/><path class="cls-13" d="M80.4,88.81A5.1,5.1,0,0,0,78.8,88"/><path class="cls-13" d="M79.64,89.17a1.61,1.61,0,0,0-1.31-.47"/><path class="cls-13" d="M79.15,89.52a1.74,1.74,0,0,0-1.52,0"/><path class="cls-13" d="M75.61,93.65A3.09,3.09,0,0,1,77.85,91"/><path class="cls-13" d="M75.8,91.48a4.43,4.43,0,0,1,2.29-1.31.85.85,0,0,1,.74.09"/><path class="cls-13" d="M106.95,93.72a4.28,4.28,0,0,1,.72-3.83"/><path class="cls-13" d="M107.81,93.38A6.25,6.25,0,0,1,109,89.75"/><path class="cls-13" d="M108.8,93a14.87,14.87,0,0,1,.54-2.25,1.82,1.82,0,0,1,.92-1.26"/><path class="cls-13" d="M110.22,92.54a5.59,5.59,0,0,1,1.61-3.32"/><path class="cls-13" d="M111.55,92.07a4.47,4.47,0,0,1,1.67-3.33"/><path class="cls-13" d="M112.71,91.79a5.59,5.59,0,0,1,1.79-3.49"/><path class="cls-13" d="M113.75,91.59a10.7,10.7,0,0,1,.57-2A3.69,3.69,0,0,1,115.57,88"/><path class="cls-13" d="M114.79,91.24a4.68,4.68,0,0,1,1.79-3.47"/><path class="cls-13" d="M115.66,91.09a6,6,0,0,1,1.83-3.24"/><path class="cls-13" d="M116.75,90.89a1.88,1.88,0,0,1,.36-1.25,4.73,4.73,0,0,1,1.56-1.86"/><path class="cls-13" d="M117.77,90.2a7.59,7.59,0,0,1,.92-1.57,2.55,2.55,0,0,1,1.51-.95"/><path class="cls-13" d="M119,90.07a3.29,3.29,0,0,1,2.32-2"/><path class="cls-13" d="M119.77,90.13a2.45,2.45,0,0,1,2.08-1.42"/><path class="cls-13" d="M120.48,90.48a2.13,2.13,0,0,1,2.2-1"/><path class="cls-13" d="M121.17,90.83a1.75,1.75,0,0,1,2.08-.32"/><path class="cls-13" d="M121.8,91.54a1.88,1.88,0,0,1,1.9-.09"/><path class="cls-13" d="M122.54,92a2.25,2.25,0,0,1,1.92.87"/><path class="cls-13" d="M123.6,93.15a7.73,7.73,0,0,1,.93,1.41"/><path class="cls-13" d="M124.55,95.31a1.11,1.11,0,0,0,.4.77"/><path class="cls-11" d="M107.67,100.4c.66.93,3,.55,3,.55l-.32-1.47S108,99.8,107.67,100.4Z"/><path class="cls-11" d="M93.31,99.86a2.67,2.67,0,0,1-1.85.15,7.81,7.81,0,0,1,.76-1.24C92.28,98.86,93.29,99.21,93.31,99.86Z"/><path class="cls-14" d="M68.33,101c0,1.3,11.42,10.75,15.29,12.47s-11.32,19.74-11.32,19.74-1.46-12.61-1.62-13.81-.86-6.18-1.15-7.29a36,36,0,0,1-1.21-8Z"/><path class="cls-14" d="M128.31,103.89s-13.1,10.53-11.69,14.48c0,0,4.79,15.14,6.17,17.38,0,0,2.48-8.33,2.62-14,.63-4.38,1.11-7.08,1.11-7.08a21.73,21.73,0,0,0,1-2.62,46.8,46.8,0,0,0,.78-4.94c.12-1.48.23-3.26.23-3.26Z"/><path class="cls-15" d="M95,101.79a11.13,11.13,0,0,1-10.71,6.86c-8.31,0-11.63-8.4-11.63-8.4l3.66-1.11S84.19,110.31,95,101.79Z"/><path class="cls-15" d="M107.67,103.89s3.46,6.33,8.48,6.33,9.88-5.7,8.8-5.39A23.57,23.57,0,0,1,107.67,103.89Z"/><path class="cls-15" d="M98.5,93.65s5.55,1.44,7,0c0,0-2.23,4.83-1.84,8.14s1.25,12.64,1.25,12.64-1.09,2.57-2.62,2.57-3.2-2.44-3.2-2.44,1.71-11.7,1-13.87A62.87,62.87,0,0,1,98.5,93.65Z"/><path class="cls-16" d="M117.91,97.48a4.83,4.83,0,0,0-2.44-.06c-.36.83-1.05,2.83-.26,4.27a12.55,12.55,0,0,0,1.66.11,7.38,7.38,0,0,0,2.69-.4,7.45,7.45,0,0,0,.38-2.64A5.05,5.05,0,0,0,117.91,97.48Z"/><circle class="cls-2" cx="117.02" cy="99.22" r="0.64"/><path class="cls-16" d="M85.39,96.09a4.22,4.22,0,0,0,0,4.19,14.54,14.54,0,0,0,4.37-.4,2.14,2.14,0,0,1,.52,0,6.7,6.7,0,0,0,.2-2.75A7.19,7.19,0,0,0,87.35,96,6.72,6.72,0,0,0,85.39,96.09Z"/><circle class="cls-2" cx="87.73" cy="97.92" r="0.73"/><path class="cls-12" d="M86.66,97.63c.78-.81,1.2-.75,1.2-.75S86.69,96.61,86.66,97.63Z"/><path class="cls-12" d="M116.16,98.73a1.36,1.36,0,0,1,1.18-.5S116.27,97.47,116.16,98.73Z"/><path class="cls-17" d="M146.27,102.91c-5.05,5.83-12.44,16.72-10.11,28C136.16,130.91,131.95,118.22,146.27,102.91Z"/><path class="cls-17" d="M130.55,174c16.84,18.28,2.32,45,2.32,45S149.38,194.39,130.55,174Z"/><path class="cls-17" d="M114.8,58.17S138,64,143,95.66C143,95.66,141.47,66.29,114.8,58.17Z"/><g class="cls-18"><path class="cls-7" d="M76,94c4.67-7.35,12.64-5,18.93-1.39,0,0,.72-2.59,0-3-6.42-3.69-14.44-5.87-19.11,1.49-.44.7.18,2.89.18,2.89Z"/></g><g class="cls-18"><path class="cls-7" d="M125,94.46a8.65,8.65,0,0,0-4.78-6.38c-3.86-1.59-9.15,1.23-12.79,2.39-.78.25-.38,3.12,0,3,3-1,6.36-2.56,9.53-2.78s6.8,2,7.27,5.29c.27,1.88.87-.78.77-1.51Z"/></g><path class="cls-19" d="M19.33,36V24.46h-4V22.72a4.08,4.08,0,0,0,4.21-3.08h2.17V36Z"/><path class="cls-19" d="M26.49,21.89a5.72,5.72,0,0,1,5-2.62,5.72,5.72,0,0,1,5,2.62A10.52,10.52,0,0,1,38,27.81a10.52,10.52,0,0,1-1.46,5.92,5.72,5.72,0,0,1-5,2.62,5.72,5.72,0,0,1-5-2.62A10.52,10.52,0,0,1,25,27.81,10.52,10.52,0,0,1,26.49,21.89Zm2.42,11.22a3.71,3.71,0,0,0,5.19,0c1-1,1.44-2.8,1.44-5.29s-.45-4.26-1.44-5.29a3.71,3.71,0,0,0-5.19,0c-1,1-1.44,2.8-1.44,5.29S27.93,32.07,28.91,33.11Z"/><path class="cls-19" d="M21.71,42.91c2.57,0,3.86,1.22,5.14,3.64,1.28-2.42,2.57-3.63,5.14-3.64a5,5,0,0,1,5.18,4.89c0,4.9-5.15,9.8-10.31,14.71-5.16-4.9-10.32-9.81-10.31-14.71A5,5,0,0,1,21.71,42.91Z"/><path class="cls-19" d="M173.61,224.89c-2.57,0-3.86-1.22-5.14-3.64-1.28,2.42-2.57,3.63-5.14,3.64a5,5,0,0,1-5.18-4.89c0-4.9,5.15-9.8,10.31-14.71,5.16,4.9,10.32,9.81,10.31,14.71A5,5,0,0,1,173.61,224.89Z"/><path class="cls-19" d="M178,230.64v11.52h4v1.74a4.08,4.08,0,0,0-4.21,3.08h-2.17V230.64Z"/><path class="cls-19" d="M170.82,244.73a6.11,6.11,0,0,1-10,0,12.73,12.73,0,0,1,0-11.85,6.11,6.11,0,0,1,10,0,12.73,12.73,0,0,1,0,11.85Zm-2.42-11.22a3.71,3.71,0,0,0-5.19,0c-1,1-1.44,2.8-1.44,5.29s.45,4.26,1.44,5.29a3.71,3.71,0,0,0,5.19,0c1-1,1.44-2.8,1.44-5.29S169.39,234.54,168.4,233.51Z"/></svg>