<svg id="Layer_1" data-name="Layer 1" xmlns="http://www.w3.org/2000/svg" viewBox="0 0 196 266.67"><defs><style>.cls-1{fill:#f8e4e3;}.cls-2{fill:#231f20;}.cls-3{fill:#010101;}.cls-4{fill:#512c1d;}.cls-5{fill:#7d3e1f;}.cls-6{fill:#dab995;}.cls-7{fill:#bd9269;}.cls-8{fill:#f0cbb6;}.cls-9{fill:#d0af9b;}.cls-10{fill:#f0d1bc;}.cls-11{fill:#cea28b;}.cls-12{fill:#381c15;}.cls-13{fill:#6b3720;}.cls-14{fill:#e24333;}.cls-15{fill:#f5e0cd;}.cls-16{fill:none;stroke:#e4b69d;stroke-miterlimit:10;}.cls-17{fill:#e4b69d;}.cls-18{fill:#ebf4f0;}.cls-19{fill:#d39c82;}.cls-20{fill:#7ba29e;}.cls-21{fill:#1d1611;}.cls-22{opacity:0.2;}</style></defs><title>badbitchcards</title><rect class="cls-1" x="8.63" y="8.48" width="178.58" height="249.45" rx="8.5" ry="8.5"/><path class="cls-2" d="M21.25,30.5l2.47-.55v1.69c0,2.37,1.29,3.43,3.08,3.43s2.92-1.18,2.92-3.25V19.11h2.47V31.64c0,3.13-2,5.72-5.37,5.72-3.5,0-5.57-2.27-5.57-5.7Z"/><path class="cls-3" d="M33.08,51.55h-.24a5.16,5.16,0,1,0-9.74,0h-.24A5.16,5.16,0,1,0,27,59.82C26.41,62,25.66,64.28,24.85,65h6.24c-.81-.73-1.56-3-2.12-5.19a5.16,5.16,0,1,0,4.11-8.28ZM28.2,55s0,0,0,0Z"/><path class="cls-4" d="M117.36,48.76c-21.08-7.18-43.78-2.87-57,20.4s-12.93,40.53-15.23,44.25-9.77,20.39-8.91,22.4,6.89,8,9.48,6.32S31.92,155.92,32.5,157.64s8.33,7.76,9.48,12.93,4,23.27-9.5,25.86-14.35,30.74-1.71,33.9c23-8.91,45.27-14.65,45.19-32.46-4.39,14.36,5.12,22.7-22.2,23.56,0,0,16.93,8.33,24.7-4.31,0,0-7.12,18.1-8.87,18.67s34.66-16.66,19.76-46.25c-19.76-23,14.06-20.74,14.06-20.74s-15-.66-17.91-26.67c0,0,21.5-10.49,33-1.3,0,0,2,20.68,5.94,26.79s.14,20.19,5.07,27.37,26.19,18.67,28.78,26.43.29,11.78-1.44,12.64,15.23,2.3,17.52-8.91-8.62-24.13-8-30.17-1.15-12.07-8-23c4.31-8.62,12.07-23.72,2.87-38.43-3.33-26.63-3.76-51.78-20.2-64.36s-18.55-13.54-21.1-17Z"/><path class="cls-5" d="M109.28,66.63c.6,0,.6-.5,0-.5s-.6.5,0,.5Z"/><path class="cls-5" d="M99.09,60.12c.6,0,.6-.5,0-.5s-.6.5,0,.5Z"/><path class="cls-5" d="M116.67,58c-3.56-7.66-12.57-9.63-20.24-8.31C87.81,51.12,78.6,55.16,72.93,62c-5.37,6.49-7.67,14.91-8.67,23.12-1.16,9.61.1,19.4-1.5,29-1.91,11.38-9.79,20.69-21.16,23.47-.63.15.15.52.5.43a28.82,28.82,0,0,0,17.81-13c4.77-7.9,4.63-17.41,4.65-26.33,0-16.84,2.57-35.87,19.31-44.21,9.62-4.79,26.07-8.78,31.83,3.63.14.3,1.12.21,1-.13Z"/><path class="cls-5" d="M73.4,122.85c-1.1,6.9-4,13.22-7.22,19.35a137.61,137.61,0,0,1-9.92,16.64c-5.37,7.44-18.14,18.29-10.26,28.32.21.27,1.17.13,1-.13-8.28-10.53,6.46-22.33,11.8-30.27a156.66,156.66,0,0,0,9.43-16.44,59.18,59.18,0,0,0,6.21-17.47c.05-.32-.94-.36-1,0Z"/><path class="cls-5" d="M119.05,60.41c8.13.74,14.53,6.8,17.9,13.94,3.77,8,4.36,17.09,4.87,25.77a246.27,246.27,0,0,1,0,28.35c-.44,7.73-2.94,17.33,1.05,24.48a11.4,11.4,0,0,0,7.25,5.81c1.79.39,4.56.3,4.89-2,0-.32-.95-.36-1,0l-1.86.73a2,2,0,0,1-2.48.52,5.32,5.32,0,0,1-1.24-.52,9.89,9.89,0,0,1-2.21-1.61,13.42,13.42,0,0,1-3.17-4.75c-1.53-3.84-1.35-8.12-1-12.16.67-8.4,1.22-16.77,1.19-25.2a204.12,204.12,0,0,0-1.32-24.28c-.86-7-2.55-14.17-6.75-20-3.79-5.22-9.35-9-15.86-9.64-.46,0-.94.42-.27.48Z"/><path class="cls-5" d="M129.9,123.89l-.44,26.72L129.24,164a107.39,107.39,0,0,0,.08,12.8c1.52,14.62,15.07,22.74,23.8,33A37,37,0,0,1,159.57,220c.95,2.4,3.75,11.59-1.21,12.1-.67.07-.2.53.27.48,6-.63,2.92-10.53,1.47-13.78-3-6.69-8.36-12-13.58-17-5.62-5.35-11.59-11-14.54-18.32-1.7-4.24-1.89-8.67-1.83-13.18s.15-9.19.22-13.79l.53-32.66c0-.34-1-.35-1,0Z"/><path class="cls-5" d="M76.55,142.63c2.3,6.61-3,12.68-4.62,18.82-1.71,6.62,1.81,12.28,5.19,17.69,7.87,12.58,10.31,27.76,5.17,41.92-2.46,6.77-8.72,14.27-5.4,21.75.13.3,1.12.22,1-.13-3.3-7.45,3.14-15.08,5.54-21.87a47.14,47.14,0,0,0,2.44-19.94,46.58,46.58,0,0,0-6.28-19.47c-3.48-5.88-8.36-11.92-6.8-19.21,1.4-6.55,7.19-12.7,4.76-19.69-.11-.3-1.09-.24-1,.13Z"/><path class="cls-5" d="M31.78,228.91c-4.26-9,.45-18.75,7.71-24.58,5.46-4.38,17-7.55,15.7-16.53-.05-.36-1-.32-1,0,.81,5.6-3.91,9.13-8.23,11.58a43.55,43.55,0,0,0-10.26,7.37c-5.69,5.91-8.51,14.57-4.88,22.3.14.3,1.13.21,1-.13Z"/><path class="cls-6" d="M119.92,61.26c16.13,1.59,21.06,22.2,21.88,35.35,1,15.55-2.15,31.19-.33,46.7.76,6.49,3.72,13.71,10.95,14.84.12,0,.23-.09.07-.12-9.57-1.49-10.86-12.61-11.16-20.4s.25-15.53.62-23.28c.68-14.25,1.1-30.41-7-42.9-3.43-5.32-8.52-9.66-15-10.3-.12,0-.23.1-.07.12Z"/><path class="cls-6" d="M130.91,124.21a222.62,222.62,0,0,0-.34,53.6c.49,4.23,1,8.49,1.85,12.66a13.49,13.49,0,0,0,4.48,8.07c2.55,2.15,5.63,3.6,8.44,5.36a47.08,47.08,0,0,1,9,7.07c6,6.28,9.37,16.25,4,24,0,.07.19.1.24,0,3.86-5.63,3.24-13,0-18.81-3.41-6-9.33-10.19-15.17-13.65-3.38-2-7.2-3.89-9.23-7.43-2.13-3.73-2.32-8.84-2.89-13a220.72,220.72,0,0,1-2-27,223.54,223.54,0,0,1,1.79-30.91c0-.08-.24-.09-.25,0Z"/><path class="cls-6" d="M44.5,138.8c5.18,4.38,11.11-1.12,13.08-6a101.23,101.23,0,0,0,4.08-13.6,69.94,69.94,0,0,0,2.14-15c.15-5.11.06-10.21.81-15.28A63.63,63.63,0,0,1,68.32,75c3.29-8.4,8.54-17.39,15.73-23,5.32-4.16,13.1-4.41,19.57-3.59,6,.76,12.46,4.64,12,11.45,0,.08.24.09.25,0,.56-8.62-8.83-11.67-15.79-11.81-4.06-.09-8.46,0-12.27,1.53s-6.91,4.83-9.56,8A63.9,63.9,0,0,0,63.75,95.26c-.25,5.34,0,10.7-.75,16a116.48,116.48,0,0,1-4.52,18.24,23,23,0,0,1-2.9,6.63c-2.39,3.36-7.25,5.64-10.86,2.58-.06-.05-.3,0-.22.06Z"/><path class="cls-6" d="M71.87,133c.84,11-7.54,19.62-13.83,27.68q-5.3,6.8-9.91,14.1c-2.39,3.79-6.44,8.69-4.93,13.45,0,.08.27.06.24,0-1-3.16.53-6.06,2.1-8.74,1.37-2.35,2.82-4.66,4.31-6.94q4.7-7.2,10.09-13.91c5.91-7.39,12.95-15.52,12.18-25.62,0-.09-.26-.08-.25,0Z"/><path class="cls-6" d="M55.76,189c2.57,11.39-13,14-19.45,19.33a16.18,16.18,0,0,0-3.21,20.76c0,.07.29,0,.24,0a16.15,16.15,0,0,1-2-12.06c1.15-5.19,4.66-8.77,9.25-11.22C46.94,202.39,58.13,198.44,56,189c0-.09-.27-.08-.25,0Z"/><path class="cls-6" d="M77.47,144.51c2.59,14.57-11.44,27.73-5,42.18,1.66,3.7,4,7,5.5,10.81a44.22,44.22,0,0,1,2.88,13.27c.62,8.73-.7,17.48-2.07,26.08,0,.08.24.09.25,0,1.36-8.6,2.68-17.34,2.07-26.08a45.5,45.5,0,0,0-2.29-11.7c-1.34-3.88-3.54-7.28-5.38-10.92-3.9-7.69-2.34-15,.37-22.79,2.34-6.72,5.17-13.59,3.88-20.84,0-.09-.26-.08-.25,0Z"/><path class="cls-6" d="M37.35,159.83c-4.17.12-1.83-4.54-.51-5.81a29.49,29.49,0,0,1,4.63-3.41c2.73-1.74,5.6-3.24,8.28-5,4.75-3.19,9.05-7.68,9.44-13.67,0-.08-.24-.09-.25,0-.6,9.27-9.62,13.71-16.58,18-2.45,1.49-6.51,3.52-7.46,6.48A2.6,2.6,0,0,0,37.35,160c.15,0,.15-.13,0-.12Z"/><path class="cls-6" d="M159.63,134.61a44.67,44.67,0,0,1-3.39,36.78c0,.08.2.11.24,0a44.75,44.75,0,0,0,3.39-36.85c0-.08-.27-.06-.24,0Z"/><path class="cls-6" d="M156.49,171.11c8.51,7.13-.26,21.47,8.47,28.22,2.48,1.92,4.25-.21,4.72-2.79.18-1,.43-2.78-.83-3.15a1,1,0,0,0-1.41.92c0,.08.24.09.25,0q2.13-.46,1.88,1a7.24,7.24,0,0,1-.09.9,6.52,6.52,0,0,1-.81,2.51c-.82,1.32-2.93.88-4,.06a7.33,7.33,0,0,1-1.64-2.09c-1.7-2.92-1.95-6.51-2-9.81-.07-5.53.35-12-4.33-15.87-.06-.05-.3,0-.22.06Z"/><path class="cls-7" d="M123.51,55.94c6.38,5.35,12.88,10.59,19.14,16.09,5.16,4.54,10.71,10.2,11.35,17.42.33,3.76-1.15,7.44-.7,11.18.41,3.39,2.77,5.85,4.38,8.72a29,29,0,0,1,2.48,22.08c0,.1.22.11.24,0a29.18,29.18,0,0,0-1.72-20.7c-1.65-3.38-4.66-6.27-5.13-10.13s1.17-7.91.61-11.92c-.88-6.4-5.54-11.51-10.12-15.7-6.53-6-13.53-11.46-20.31-17.14-.06-.05-.3,0-.22.06Z"/><path class="cls-7" d="M38,136.26c6.87,2.12,13.73-2.16,17.13-8,4.81-8.33,4.84-19.16,5.72-28.47,1-10.75,2-21.61,5.24-32,1.42-4.57,3.31-9.35,7.17-12.42,4.1-3.26,9.77-5.22,14.64-7,6-2.14,12.48-3.55,18.74-1.92,5.22,1.36,9.85,4.6,12,9.65,0,.08.28.06.24,0-2.9-6.83-10.3-10.32-17.44-10.46a38.34,38.34,0,0,0-13.66,2.65c-4.52,1.63-9.38,3.41-13.41,6.06C66.61,59.41,64.65,70.54,63.12,79c-2,10.84-2.45,21.87-3.8,32.78-.71,5.74-1.63,11.72-4.66,16.76-3.36,5.57-10,9.66-16.56,7.62-.09,0-.28.06-.13.11Z"/><path class="cls-7" d="M55.74,221.66c5.87,3.74,13.84,3,18.41-2.49,6.45-7.71,1.71-16.16-2-23.83a41.55,41.55,0,0,1-2.54-29.87c1.4-4.74,4.15-8.86,5.74-13.5a27.14,27.14,0,0,0,.93-12.5c-1.43-10.44-6.51-20.06-7-30.68,0-.09-.25-.09-.25,0,.37,8.44,3.6,16.29,5.68,24.39a42,42,0,0,1,1.61,11.76c-.15,4.83-1.94,9-4,13.23A42.47,42.47,0,0,0,68,182.36a40.59,40.59,0,0,0,3.37,11.87c1.82,4,4.23,7.7,5.32,12a14.24,14.24,0,0,1-3.51,13.76,13.83,13.83,0,0,1-17.25,1.63c-.07,0-.3,0-.18.09Z"/><path class="cls-7" d="M159.55,233.9c5.11-3.48,6.88-9.91,5.82-15.81-1.24-6.88-5.61-12.89-10-18.15-9.37-11.23-21.47-20.53-27.56-34.18-3.46-7.75-4.77-16.43-1.71-24.52,0-.09-.21-.11-.24,0-4.91,13,1.29,26.86,9.45,37,9,11.2,21.59,20.33,27.76,33.59,3.38,7.28,3.6,17-3.74,22-.09.06.15.11.22.06Z"/><path class="cls-8" d="M128.58,124s2.57,2.1,4.91-2.49,6.93-16,5.44-16.87c-3.33-2-6.48,3.16-7.76,2.53L129,117.41S128.11,121.66,128.58,124Z"/><path class="cls-8" d="M72.89,124.77c-3.18,0-5.63-5.73-5.47-11.53a19.71,19.71,0,0,1,2.9-9.77s-.38,7,1,10.58C72.11,118.15,72.89,124.77,72.89,124.77Z"/><path class="cls-8" d="M80.61,140.22s-.72,21.49-2.44,25.16,8,29.26,24.4,29.26,23.92-27.21,23.92-27.21-7-22.53-3.57-27.21C122.93,140.22,95.12,125.72,80.61,140.22Z"/><path class="cls-9" d="M104.19,145s5.47,18.48,7.71,28.63a3.35,3.35,0,0,0,5.84,1.43,85.24,85.24,0,0,0,7.63-11.6s-5.21-16.27-2.44-23.27C119.68,133,104,142.29,104.19,145Z"/><path class="cls-10" d="M103.25,58.44c-11.63,0-24.08,1.25-30.72,25.94-3.94,17.85-3.53,24.9-2.08,29.67,1.66,9.55,1.87,14.11,1.87,16.6A15.71,15.71,0,0,0,74.6,139c1.66,2.49,7.89,9.55,26.77,9.55,19.09-2.08,25.94-10.79,27-13.28,2-5.9.7-14,1.78-17,1.48-6.47,2.16-10,2.16-11.06s-1.35-12.68-1.08-16.86C128.91,83.6,129.51,64,103.25,58.44Z"/><path class="cls-11" d="M78.54,98.27a6.62,6.62,0,0,1-4.69-1.57,14,14,0,0,1,9.12-4c5.59-.19,9.4,2.82,9.4,5.6l-1.4.08Z"/><path class="cls-11" d="M119.72,98.3s3.25,1,5.31.19c0,0-4.13-6.25-9.44-6.25s-8.43,4.32-8.43,5.8Z"/><path class="cls-12" d="M108.33,98.47a13.07,13.07,0,0,0,6.62,2.18c3.53,0,8.57-1.85,8.57-1.85Z"/><path class="cls-12" d="M76.18,98a12.06,12.06,0,0,0,6.93,2.67c3.8,0,8.93-2.37,8.93-2.37s-7.27-8.89-15.86-.3L92,98.3"/><path class="cls-12" d="M108.12,98.44s3.45-4.18,8-4.18,7.42,4.57,7.42,4.57Z"/><path class="cls-13" d="M97.3,115.49s-.81-1.87-1.66-1.87-1.66,1.87,0,1.87"/><path class="cls-13" d="M100.61,115.49s.55-2.08,2-2.08c1.4.68,1.36,1.82.25,2.08"/><path class="cls-14" d="M87.47,128.85a25.71,25.71,0,0,0,.86-2.5c.4-1.39,6.91-5.11,9-5.11.67,0,1.26.69,1.9.69s2-.69,2.67-.69A14.9,14.9,0,0,1,112,127.46l.4.53A17.08,17.08,0,0,1,99,134.55C92.24,134.55,87.47,128.85,87.47,128.85Z"/><path class="cls-15" d="M91.2,128.19s3.75-2.32,5-2.22a20.19,20.19,0,0,0,7,0,3,3,0,0,1,2.62.4,20.59,20.59,0,0,0,2.47,1.33c.15,0-5.6.25-7.94.25S91.2,128.19,91.2,128.19Z"/><path class="cls-16" d="M93,109.67s-3.51,7.32,1.65,7.15"/><path class="cls-16" d="M97.67,116.34a5.75,5.75,0,0,0,2.74,0"/><path class="cls-17" d="M105.51,110.72c.86,1.79,1.72,5.12-.84,5.88-.62.19.15.54.5.43,3-.88,2.36-4.24,1.3-6.45-.14-.3-1.13-.21-1,.13Z"/><path class="cls-18" d="M89.83,97.65a11.21,11.21,0,0,0-5.57-2c-2.78,0-5.72,2.63-5.72,2.63a22.17,22.17,0,0,0,5.82,1.11c2.54,0,3.09-1.48,5.48-1A.82.82,0,0,0,89.83,97.65Z"/><path class="cls-18" d="M109.35,97.51s3-2.15,6-1.87a5.79,5.79,0,0,1,4.33,2.66,11.52,11.52,0,0,1-5.19,1.08c-3.24,0-2.86-1.22-5-.89A.73.73,0,0,1,109.35,97.51Z"/><path class="cls-19" d="M91,98.07c0,.43-1.34.25-1.34.25s.06-.66.21-.68S91,97.56,91,98.07Z"/><path class="cls-19" d="M107.16,98c-.43.41,2.38.45,2.38.45l-.19-1A2.75,2.75,0,0,0,107.16,98Z"/><path class="cls-20" d="M116.88,99.18a5.39,5.39,0,0,0,.4-3,5.67,5.67,0,0,0-1.89-.51,8.12,8.12,0,0,0-3.62.61,6.51,6.51,0,0,0,0,2.64,6.19,6.19,0,0,0,2.72.49A13.76,13.76,0,0,0,116.88,99.18Z"/><path class="cls-2" d="M105.4,90.62a6.7,6.7,0,0,1,2.33-3.74"/><path class="cls-2" d="M106.53,90.59a25.54,25.54,0,0,1,3-4.06"/><path class="cls-2" d="M108.27,90.1a8.27,8.27,0,0,1,3.22-3.62"/><path class="cls-2" d="M110.78,89.27a22.12,22.12,0,0,1,1.46-2A3.29,3.29,0,0,1,113.73,86"/><path class="cls-2" d="M112.4,88.73a19.77,19.77,0,0,1,2.12-2.32,2.16,2.16,0,0,1,1.1-.71"/><path class="cls-2" d="M114.15,88.23a12.77,12.77,0,0,1,1.71-1.64,4.28,4.28,0,0,1,2.17-.89"/><path class="cls-2" d="M116.07,87.75A7,7,0,0,1,119.91,86"/><path class="cls-2" d="M117.46,87.92a7.75,7.75,0,0,1,4.2-1.23"/><path class="cls-2" d="M119.45,87.82a8.58,8.58,0,0,1,2.36-.44,1.12,1.12,0,0,1,.8.18"/><path class="cls-2" d="M121.51,88.26a2.66,2.66,0,0,1,1.5,0"/><path class="cls-2" d="M122.45,88.82a2.43,2.43,0,0,1,1.88.3"/><path class="cls-2" d="M123.4,89.66a6.65,6.65,0,0,1,1.88,1.11"/><path class="cls-2" d="M124.43,91l1.69,1.3"/><path class="cls-2" d="M92.19,90.49a3.52,3.52,0,0,0-1.44-3.84"/><path class="cls-2" d="M90.82,90.35a5,5,0,0,0-2.17-4.1"/><path class="cls-2" d="M89.34,90.14a12.34,12.34,0,0,0-2.42-3.72c-.12-.12-.38-.2-.4,0"/><path class="cls-2" d="M87,89a12.81,12.81,0,0,0-2.2-3.18"/><path class="cls-2" d="M85.29,88.48A6.18,6.18,0,0,0,83,85.77"/><path class="cls-2" d="M84,88.56a8.59,8.59,0,0,0-2.61-2.9"/><path class="cls-2" d="M82.67,88a5.36,5.36,0,0,0-2.55-1.73"/><path class="cls-2" d="M81.21,88.28l-1.43-1.13c-.29-.23-.72-.45-1-.2"/><path class="cls-2" d="M79.32,88a2,2,0,0,0-1.73-.4"/><path class="cls-2" d="M77.4,88.57a1.11,1.11,0,0,0-1.43.26"/><path class="cls-2" d="M76.5,89.71a2.24,2.24,0,0,0-1.79.83"/><path class="cls-2" d="M75.51,90.9a3.17,3.17,0,0,0-1.69,2"/><path class="cls-20" d="M82,96.14a6.45,6.45,0,0,0,.37,3.06,13.08,13.08,0,0,0,2,.18,7.55,7.55,0,0,0,3.15-.82,6.85,6.85,0,0,0,0-2.16,8.61,8.61,0,0,0-3.28-.76A6.25,6.25,0,0,0,82,96.14Z"/><circle class="cls-21" cx="114.48" cy="97.72" r="0.77"/><circle class="cls-21" cx="85.09" cy="97.41" r="0.87"/><path class="cls-8" d="M104.48,92.83c-4.1,3.8-1.76,14.63-1.76,14.63S102.44,95.46,104.48,92.83Z"/><path class="cls-8" d="M95.87,91.62c0-6.91.69,17.73.23,18.65S95.87,92,95.87,91.62Z"/><path class="cls-18" d="M84.23,97.18a2.25,2.25,0,0,0,1.28,0,.64.64,0,0,0-1.28,0Z"/><path class="cls-18" d="M113.71,97.59a1.72,1.72,0,0,1,1.3,0s-.05-.65-.65-.65S113.71,97.59,113.71,97.59Z"/><g class="cls-22"><path class="cls-12" d="M105.46,91.76c1.7-2.84,7.26-3.73,10.38-4,4.2-.32,7.38,2.21,10.4,4.81.15.13.74-2.41.17-2.89-3-2.62-6.32-5.27-10.58-4.92-3.24.27-8.74,1-10.56,4.08-.43.71.19,2.86.17,2.89Z"/></g><g class="cls-22"><path class="cls-12" d="M92,87.95c-2.58-2.31-5.88-2.6-9.22-2.61-4.34,0-6.3,1.58-8.38,5.27-.41.72.22,2.79.16,2.89,2-3.55,4.09-5.18,8.22-5.17,3.25,0,6.54.24,9.07,2.51.09.08.71-2.4.16-2.89Z"/></g><path class="cls-2" d="M174.19,237.3l-2.47.55v-1.69c0-2.37-1.29-3.43-3.08-3.43s-2.92,1.18-2.92,3.25v12.71h-2.47V236.16c0-3.13,2-5.72,5.37-5.72,3.5,0,5.57,2.27,5.57,5.7Z"/><path class="cls-3" d="M162.36,216.25h.24a5.16,5.16,0,1,0,9.74,0h.24a5.16,5.16,0,1,0-4.12-8.28c.56-2.18,1.31-4.46,2.12-5.19h-6.24c.81.73,1.56,3,2.12,5.19a5.16,5.16,0,1,0-4.11,8.28Zm4.87-3.45s0,0,0,0Z"/></svg>