<svg id="Layer_1" data-name="Layer 1" xmlns="http://www.w3.org/2000/svg" viewBox="0 0 196 266.67"><defs><style>.cls-1{fill:#f8e4e3;}.cls-2{fill:#eec5a6;}.cls-3{fill:#d0af9b;}.cls-4{fill:#f0d0b4;}.cls-5{fill:#c8a27d;}.cls-6{fill:#6b3720;}.cls-7{fill:#d7827e;}.cls-8{fill:#ecc9ac;}.cls-9{fill:#ebf4f0;}.cls-10{fill:#7ba29e;}.cls-11{fill:#1d1611;}.cls-12{fill:#af7b37;}.cls-13{fill:#ecc19c;opacity:0.8;}.cls-14{fill:#d39c82;}.cls-15{fill:#e29067;opacity:0.11;}.cls-16{fill:#f8e8d7;}.cls-17{fill:#eecdb0;}.cls-18{fill:#e4b69d;}.cls-19{fill:#e6be83;}.cls-20{fill:none;stroke:#e4b69d;stroke-miterlimit:10;stroke-width:0.5px;}.cls-21{opacity:0.15;}.cls-22{fill:#bb9057;}.cls-23{fill:#ffcd7e;}.cls-24{fill:#ffd594;}.cls-25{fill:#be1e2d;}</style></defs><title>badbitchcards</title><rect class="cls-1" x="8.63" y="8.48" width="178.58" height="249.45" rx="8.5" ry="8.5"/><path class="cls-2" d="M128.71,173.19h0S73.39,167,66.09,174h0s3.85,14,1,25,18.58,38.19,30.76,38.19c30.35,0,43-49.36,43-49.36s-9.31-4.39-8.14-30"/><path class="cls-3" d="M81.6,182.23s-2.36,11.66-1.9,14-11.58-3.34-11.58-3.34a80.66,80.66,0,0,0-2-15.88c-1.83-6.8,13.61,0,13.61,0Z"/><path class="cls-3" d="M128.82,171.71h0Z"/><path class="cls-3" d="M128.84,171.47,129,170Z"/><path class="cls-3" d="M129,170l.11-1.41Z"/><path class="cls-3" d="M128.83,171.7l0-.23Z"/><path class="cls-3" d="M128.74,172.83v0Z"/><path class="cls-3" d="M128.75,172.69l0-.25Z"/><path class="cls-3" d="M128.72,173.11v0Z"/><path class="cls-3" d="M128.71,173.19v0Z"/><path class="cls-3" d="M128.72,173l0-.2Z"/><path class="cls-3" d="M128.77,172.45l.06-.74Z"/><path class="cls-3" d="M129.28,165.6Z"/><path class="cls-3" d="M129.27,165.75v0Z"/><path class="cls-3" d="M129.25,166l0-.28Z"/><path class="cls-3" d="M134.57,178.47l-.07-.55a53.61,53.61,0,0,1-1.94-14.65l-1.5.78-2.34,9.14s-5.33-.59-12.9-1.2l-15.67,8.16-6.6,12.57s4,5.64,8.94,5.64S134.57,178.47,134.57,178.47Z"/><path class="cls-3" d="M129.22,166.44l0-.4Z"/><path class="cls-3" d="M129.16,167.23l0-.66Z"/><path class="cls-3" d="M129.14,167.57l0-.34Z"/><path class="cls-3" d="M129.06,168.58l.08-1Z"/><path class="cls-3" d="M129.21,166.57v0Z"/><path class="cls-4" d="M89.7,74.3c-27.57,0-41.22,14.1-41.5,51.14,0,19.22,0,22,1.39,24s3.13,8.33,3.76,11.47S52.72,169.27,62,180s15.54,17,34.23,17,35.28-22.68,36.54-35.28,1.89-38.64,1.89-38.64-7.77-2.1-15.33-13.86-5-23.31-14.91-29.4C89.7,77.25,89.7,74.3,89.7,74.3Z"/><path class="cls-5" d="M64,129.74c-1.52-1.52-9.34,1-9.34,4.12Z"/><path class="cls-6" d="M82.15,155.4s.51-3,5-2.95"/><path class="cls-6" d="M74.94,156.93a6.16,6.16,0,0,0-2.44-1.52,7.86,7.86,0,0,0-2.34,0"/><path class="cls-7" d="M70.16,170.39c-.19.12,8.11-4.25,8.93-4.7a5.09,5.09,0,0,1,3.36,0,8.4,8.4,0,0,1,3.36-1.34c1.94-.3,13.95-1.64,13.95-1.64l2.76-.45a26.84,26.84,0,0,0-7.73,6.69c-3.5,4.47-11.86,6.09-14.78,5.12S73.09,168.53,70.16,170.39Z"/><path class="cls-4" d="M134.61,121.72s1.42-4.44,2.79-5.36,6.12-.61,7.35,5.36,2,25.21-5.07,27.15-6-1.26-6-1.26Z"/><path class="cls-8" d="M72.55,145.26c-.3-19.68-3.69-19.36-3.69-19.36L77.78,123l1.73,28s-2.66,2.5-5.33.87S72.65,151.93,72.55,145.26Z"/><path class="cls-5" d="M92.25,124c1.81-1.81,11.57-2,11.57,3.1Z"/><path class="cls-9" d="M87.13,129.49s4.13-5.22,5.11-5.46,7.83-.24,9.13.41a7.83,7.83,0,0,1,2.45,2.69s-4.7,2.45-8.34,2.69A53.84,53.84,0,0,1,87.13,129.49Z"/><path class="cls-10" d="M93.91,123.92s-.2,4.52,2.9,4.43,3.39-4,3-4.36S93.91,123.92,93.91,123.92Z"/><circle class="cls-11" cx="96.51" cy="125.44" r="1.03"/><path class="cls-9" d="M68.86,132.79s-4.48-3.16-6-3.23-6.75,1.51-8.18,4.31a3.82,3.82,0,0,0,2.58,1.36,48.52,48.52,0,0,0,10.26-.72,5.45,5.45,0,0,0,1.32-1Z"/><path class="cls-10" d="M60.62,130s-.91,4,2.47,4.41,2.71-3.54,2.71-3.54A5.15,5.15,0,0,0,60.62,130Z"/><circle class="cls-11" cx="63.41" cy="131.46" r="0.97" transform="translate(-6.63 3.41) rotate(-2.93)"/><path class="cls-12" d="M80.95,122.67c.14-.47,1-.68,1.3-1"/><path class="cls-12" d="M83.68,121.8c0-.06-.14-.2-.14-.27a5,5,0,0,1,.6-.75,2.38,2.38,0,0,1,.72-.58c.22-.11.49-.11.69-.28"/><path class="cls-12" d="M85.41,121.66c.2-.14.2-.29.31-.46a2,2,0,0,1,.69-.62,11.8,11.8,0,0,0,1.44-.94"/><path class="cls-12" d="M88.73,120.5l0,.11a2.42,2.42,0,0,0,.59-.68,7.14,7.14,0,0,1,.69-.73,5.25,5.25,0,0,0,1.15-1.29"/><path class="cls-12" d="M91.9,119.78c-.63-.08.56-1.15.67-1.26a5,5,0,0,1,1.21-.76,5.63,5.63,0,0,0,.85-.43"/><path class="cls-12" d="M95.36,117.91c0-.29,1.17-.68,1.44-.8.52-.24,1.28-.12,1.73-.5"/><path class="cls-12" d="M99,117.62v-.12a4.49,4.49,0,0,1,1.28,0,2,2,0,0,1,1.3.29"/><path class="cls-12" d="M101.41,118.49a3,3,0,0,1,1,.08,6.77,6.77,0,0,0,1.59.5"/><path class="cls-12" d="M65.53,124.54A12,12,0,0,1,63.37,123"/><path class="cls-12" d="M63.08,124.25c-.45,0-.77-.66-1.14-.87a13.65,13.65,0,0,0-2.18-1"/><path class="cls-12" d="M60.63,124.39a13.92,13.92,0,0,1-1.43-.47,8.63,8.63,0,0,0-1.88-.25"/><path class="cls-12" d="M57.46,124.68c-.21.06-.25-.09-.42-.15a4,4,0,0,0-.57-.12,8.15,8.15,0,0,0-1,.12c-.45,0-1.1-.15-1.42.28"/><path class="cls-12" d="M54.58,125.55c-.34.06-.62-.2-1-.14a7.79,7.79,0,0,0-1.88.72"/><path class="cls-12" d="M52.27,127a1.24,1.24,0,0,0-.74.13,7,7,0,0,0-1.42,1.17"/><path class="cls-12" d="M51,129c-.07.17-.14.14-.28.3a5,5,0,0,0-.59,1"/><path class="cls-13" d="M137.86,124s3.69-1.71,4.71,1.09-1.52,4.84-2,7.4-.67,5.43-2.72,3.79"/><path class="cls-14" d="M86.33,130.3c.46.88,3.24-.42,3.24-.42l-1.51-1.53Z"/><path class="cls-15" d="M70.16,170.39s-2.34,25,17,25,25.51-15.37,24.36-19.73-9-13.39-9-13.39Z"/><path class="cls-16" d="M76.05,170.09c.18-.06,7.13-.12,9.06-.68s7.57-3,7.7-3.35-6.73,1.89-9,2.25S76.05,170.09,76.05,170.09Z"/><path class="cls-17" d="M91.18,146.43s6.43,3.14,8.8,6,5.29,4.47,8.08,4.47S128.24,129,119.61,129s-26,7.39-30.88,5.51C88.73,134.51,88.25,142.69,91.18,146.43Z"/><path class="cls-15" d="M73.53,79.67C75.13,75.59,81,80,81,80s8.49,14.19,10.49,23.18S79.51,112,79.51,112Z"/><path class="cls-17" d="M68.85,138.66s-.49,5.06.36,6.35-6.13,21-6.13,21-7.79.67-9.94-5.63-3-19.09-3-19.09S60.42,143.42,68.85,138.66Z"/><path class="cls-18" d="M90.63,145.7c3.25,2.4,6.48,4.83,9.66,7.33a39.78,39.78,0,0,1,4.9,4.09c1.71,1.87,1.33,4.23.78,6.44,0,.15.45.18.5,0,.5-2,.91-4.29-.42-6.11-1.12-1.55-3.08-2.76-4.55-3.93-3.42-2.72-6.92-5.35-10.43-7.95-.13-.09-.6,0-.43.13Z"/><path class="cls-18" d="M67.79,154.56c-1.1,2.55-2.21,5.09-3.25,7.66a5.07,5.07,0,0,0-.67,2.34c.21,1.57,2.34,3.41,3.45,4.44.12.11.6,0,.43-.13-1.19-1.1-3.38-2.9-3.41-4.65,0-1,.81-2.29,1.17-3.13.9-2.17,1.83-4.32,2.76-6.48.08-.17-.42-.22-.48-.07Z"/><path class="cls-18" d="M106.71,127s2.51,1,4.91-1.6a40.46,40.46,0,0,0,3.83-4.77"/><path class="cls-18" d="M106.71,128.35s11-.77,12.41-.07"/><path class="cls-18" d="M112.92,126.48s4.2-1.68,5.14-3.16"/><path class="cls-18" d="M116.46,126.12a6.89,6.89,0,0,0,4.12-1.59"/><path class="cls-18" d="M53.57,138.66c-.24-.83-2.56-.28-3.46-1"/><path class="cls-18" d="M53.57,141.1a5.31,5.31,0,0,0-3.46.85"/><path class="cls-15" d="M82.25,195.31A50.24,50.24,0,0,0,96.18,197c10.07,0,19.53-6.59,26.31-14.64-2.46-1.58-11-6.69-11-6.69C105,193.38,88.19,195.23,82.25,195.31Z"/><path class="cls-19" d="M99.75,58.25S63.65,51.73,52,85.39C52,85.39,65,58.25,99.75,58.25Z"/><path class="cls-19" d="M103.44,58.1s22.86-.55,33.6,17.62C137,75.73,123.54,58.1,103.44,58.1Z"/><path class="cls-20" d="M76.05,157.71a12,12,0,0,0,3.46,0"/><path class="cls-20" d="M84.64,145.24c-.25-.3,3.41-1.73,4.32-.51s2.24,6.2,0,7.72"/><path class="cls-20" d="M69.19,148.87s-1.13,3.69-.48,5.06.48.81.48.81"/><path class="cls-9" d="M62.2,130.46a.91.91,0,0,0-.62.85S61,130.2,62.2,130.46Z"/><g class="cls-21"><path class="cls-22" d="M51.89,128.14c.48-1.52,1.23-1.22,2.66-1.65a16.85,16.85,0,0,1,2.79-.7c2.49-.32,5.08-.29,7.58-.43,1.17-.06,3-3.65,2.41-3.62-4.43.24-9.14.1-13.25,2-2.75,1.28-4.22,4.33-5.08,7.06-.31,1,1,0,1.16-.12a5.5,5.5,0,0,0,1.72-2.56Z"/></g><g class="cls-21"><path class="cls-22" d="M104.31,117.66c-2.86-2.08-5.63-2.21-8.94-1.1A128.44,128.44,0,0,1,82.61,120l-2.21,3.49c3.95-2.05,8.82-2.14,13-3.84,1.16-.47,2.44-3.58,2.45-3.59-4.35,1.77-9.33,1.89-13.46,4-.71.37-2.62,3.58-2.21,3.49a94.71,94.71,0,0,0,11.51-2.95c3.58-1.3,6.63-1.77,9.88.59.65.47,3.36-3.11,2.77-3.55Z"/></g><path class="cls-23" d="M48.19,125.44c3-.57,5.51-7.06,12.52-6.87,6.81-1.89,7-3.22,7-3.22s-5.11-18.17-3.79-24.6c0,0,3.22,19.3,6.25,23.09,5.68,2.08,7.95-.95,7.95-.95s-11-20.44-1.32-31.8c0,0,8.14-1.51,14.57,26.5,0,0,2.08,1.89,3,1.14S90.8,77.49,89.86,76s8.33,2.27,8.9,12.49-2.27,16.84-2.27,16.84l1.7,2.08s9.33-16.68,3.46-27.85c0,0,12.43,7.41,10,22.55,5.49,10.79,15.71,14.76,17.41,19.87s7.76,7.38,7.76,7.38-2.84-9.84,0-12.11,9.41,4.11,8.65,17.93-5.81,13.49-5.81,13.49,3.6,3.41,4.16,6.25c6.81,1.89,11-15.33,11.73-18.17s7.57-19.49,4.73-28.77-29.4-62.56-59.46-53.9c0,0-19.29-12.48-43.5,8.7S29.68,100.22,33.09,121c0,0,6.14,18.61,14.44,26.64a17.82,17.82,0,0,0,2.06,1.73l-1.39-24"/><path class="cls-24" d="M48.19,125.44c3-.57,5.51-7.06,12.52-6.87,6.81-1.89,7-3.22,7-3.22s-5.11-18.17-3.79-24.6c0,0,3.22,19.3,6.25,23.09,5.68,2.08,7.95-.95,7.95-.95s-11-20.44-1.32-31.8c0,0,8.14-1.51,14.57,26.5,0,0,2.08,1.89,3,1.14S90.8,77.49,89.86,76s8.33,2.27,8.9,12.49-2.27,16.84-2.27,16.84l1.7,2.08s9.33-16.68,3.46-27.85c0,0,12.43,7.41,10,22.55,5.49,10.79,15.71,14.76,17.41,19.87s7.76,7.38,7.76,7.38-2.84-9.84,0-12.11,9.41,4.11,8.65,17.93-5.81,13.49-5.81,13.49,3.6,3.41,4.16,6.25c6.81,1.89,11-15.33,11.73-18.17s7.57-19.49,4.73-28.77-29.4-62.56-59.46-53.9c0,0-19.29-12.48-43.5,8.7S29.68,100.22,33.09,121c0,0,6.14,18.61,14.44,26.64a17.82,17.82,0,0,0,2.06,1.73l-1.39-24"/><path class="cls-19" d="M160.29,108.08a42.23,42.23,0,0,0-34.54-.42s2.06-19.44-16.33-19.58a21.69,21.69,0,0,1,2.2,14c5.49,10.79,15.71,14.76,17.41,19.87s7.76,7.38,7.76,7.38-2.84-9.84,0-12.11,9.41,4.11,8.65,17.93-5.81,13.49-5.81,13.49,3.6,3.41,4.16,6.25c6.81,1.89,11-15.33,11.73-18.17S163,117.37,160.29,108.08Z"/><path class="cls-19" d="M47.53,147.66a17.83,17.83,0,0,0,2.06,1.73l-1.22-21-9.65,6.16C41.11,139.35,44.14,144.39,47.53,147.66Z"/><path class="cls-23" d="M136.78,149.24s-2.49,5.71-1.17,8.94c0,0-2.27,1.41-3-.32s-1.72-10.38-1.72-10.38Z"/><path class="cls-25" d="M19.88,31.67a4.27,4.27,0,0,1,3.1-4,4.11,4.11,0,0,1-2.67-3.83c0-2.67,2.37-4.54,5.5-4.54s5.5,1.87,5.5,4.54a4.12,4.12,0,0,1-2.67,3.83,4.25,4.25,0,0,1,3.1,4c0,2.62-2.17,4.69-5.92,4.69S19.88,34.29,19.88,31.67Zm9.35-.2c0-1.56-1.26-2.8-3.43-2.8s-3.43,1.24-3.43,2.8,1.24,2.75,3.43,2.75S29.23,33,29.23,31.47Zm-.4-7.54a2.73,2.73,0,0,0-3-2.62,2.73,2.73,0,0,0-3,2.62,2.77,2.77,0,0,0,3,2.67A2.77,2.77,0,0,0,28.83,23.93Z"/><path class="cls-25" d="M21.71,42.91c2.57,0,3.86,1.22,5.14,3.64,1.28-2.42,2.57-3.63,5.14-3.64a5,5,0,0,1,5.18,4.89c0,4.9-5.15,9.8-10.31,14.71-5.16-4.9-10.32-9.81-10.31-14.71A5,5,0,0,1,21.71,42.91Z"/><path class="cls-25" d="M173.61,224.89c-2.57,0-3.86-1.22-5.14-3.64-1.28,2.42-2.57,3.63-5.14,3.64a5,5,0,0,1-5.18-4.89c0-4.9,5.15-9.8,10.31-14.71,5.16,4.9,10.32,9.81,10.31,14.71A5,5,0,0,1,173.61,224.89Z"/><path class="cls-25" d="M175.44,234.94a4.27,4.27,0,0,1-3.1,4,4.11,4.11,0,0,1,2.67,3.83c0,2.67-2.37,4.54-5.49,4.54s-5.5-1.87-5.5-4.54a4.13,4.13,0,0,1,2.67-3.83,4.25,4.25,0,0,1-3.1-4c0-2.62,2.17-4.69,5.92-4.69S175.44,232.32,175.44,234.94Zm-9.35.2c0,1.56,1.26,2.8,3.43,2.8s3.43-1.23,3.43-2.8-1.24-2.75-3.43-2.75S166.08,233.61,166.08,235.15Zm.4,7.54a3.06,3.06,0,0,0,6,0,3,3,0,0,0-6,0Z"/></svg>