<svg id="Layer_1" data-name="Layer 1" xmlns="http://www.w3.org/2000/svg" viewBox="0 0 196 266.67"><defs><style>.cls-1{fill:#f8e4e3;}.cls-2{fill:#231f20;}.cls-3{fill:#010101;}.cls-4{fill:#ebc0a8;}.cls-5{fill:#d0af9b;}.cls-6{fill:#efc7b0;}.cls-7{fill:#381c15;}.cls-8{fill:#ebf4f0;}.cls-9{fill:#437f90;}.cls-10{fill:#211010;}.cls-11{fill:#1d1611;}.cls-12{fill:#b86764;}.cls-13{fill:#6b3720;}.cls-14{fill:#d39c82;}.cls-15{fill:#f8e8d7;}.cls-16{fill:#eabba4;}.cls-17{fill:#f2cfb7;}.cls-18{fill:#cf9e76;}.cls-19{fill:#dfb28b;}</style></defs><title>badbitchcards</title><rect class="cls-1" x="8.63" y="8.48" width="178.58" height="249.45" rx="8.5" ry="8.5"/><path class="cls-2" d="M27.85,18.73a8.91,8.91,0,0,1,9,9.3,9.25,9.25,0,0,1-2.52,6.6L36.4,37l-1.69,1.49-2.17-2.39a9,9,0,0,1-4.69,1.29,8.93,8.93,0,0,1-9-9.33A8.91,8.91,0,0,1,27.85,18.73Zm0,16.36A6.39,6.39,0,0,0,31,34.31l-3.1-3.48,1.71-1.49,3.13,3.53A7.43,7.43,0,0,0,34.31,28c0-4.66-3.13-7-6.45-7s-6.45,2.37-6.45,7S24.53,35.09,27.85,35.09Z"/><path class="cls-2" d="M167.58,249.07a8.91,8.91,0,0,1-9-9.3,9.26,9.26,0,0,1,2.52-6.6L159,230.82l1.69-1.49,2.17,2.39a9,9,0,0,1,4.69-1.29,9.32,9.32,0,0,1,0,18.63Zm0-16.36a6.39,6.39,0,0,0-3.12.78l3.1,3.48-1.71,1.49-3.13-3.53a7.43,7.43,0,0,0-1.59,4.84c0,4.66,3.13,7,6.45,7s6.45-2.37,6.45-7S170.91,232.71,167.58,232.71Z"/><path class="cls-3" d="M162.36,216.25h.24a5.16,5.16,0,1,0,9.74,0h.24a5.16,5.16,0,1,0-4.12-8.28c.56-2.18,1.31-4.46,2.12-5.19h-6.24c.81.73,1.56,3,2.12,5.19a5.16,5.16,0,1,0-4.11,8.28Zm4.87-3.45s0,0,0,0Z"/><path class="cls-4" d="M72.43,164.37s1,9.5,1.51,14.75-2.62,17.21-2.62,17.21S78.23,229,101.84,229s32.32-32.29,32.32-32.29-12-12.42-8.07-28.57"/><path class="cls-5" d="M71.38,175.14s19.91,13.76,24.23,13.76,7.9-5,7.9-5l-5.83-11.11-25.84-4.2Z"/><path class="cls-5" d="M113.47,174s2.09,10.31,1.68,12.35,10.24-3,10.24-3a71.28,71.28,0,0,1,1.8-14c1.61-6-12,0-12,0Z"/><path class="cls-6" d="M101,183C88.56,184.13,67.17,165.09,65,161.38c-1.53-8.74-2.84-39.34-3.72-42.83s3.06-10.49,3.5-11.15,21,5.68,39.12,2.4a52.54,52.54,0,0,0,3.28-17.48c0-3.88,2.33-2,2.33-2,0,2,5.32,13.56,7.51,15.75s10.35,1.27,10.35,1.27,6.58,41,2.21,59.59C129.55,167,113.28,181.92,101,183Z"/><path class="cls-6" d="M67.68,117.55a7.84,7.84,0,0,0,6.79,3.73A29.36,29.36,0,0,0,83,120l-2.8-1.63S69.5,117.22,67.68,117.55Z"/><path class="cls-6" d="M112,118.63s4.92,1.68,7,1.68,7.38-1.93,7.38-1.93l-.12-.93-10.68-.32-3.57-.68Z"/><path class="cls-7" d="M125.84,114.19l-.41-2.92a13.08,13.08,0,0,0-7.38-.7c-4.59.7-6,3.24-6,5.89Z"/><path class="cls-7" d="M69.24,117.78a5.41,5.41,0,0,1-1.55-1c-.32-.45,3.71-4.1,7.49-4.1s6.9,1.24,7.8,5.1Z"/><path class="cls-8" d="M69.24,117.78s1.53,1.94,7.23,1.94,7.94-.31,8-1-1.22-.66-1.53-1-1.94-4.58-6.62-4.58S69.24,117.78,69.24,117.78Z"/><path class="cls-8" d="M119.59,119.11a18.45,18.45,0,0,0,6.67-1.66l-.42-3.26s-9.41-5.38-14.46,3.23c0,0-.1.69,1.49.79S116.17,119.11,119.59,119.11Z"/><path class="cls-9" d="M73.36,114.5s-2.05,5.21,3.11,5.21,4.87-4.28,4.19-5a6.48,6.48,0,0,0-4.29-1.56C73.67,113.2,73.36,114.5,73.36,114.5Z"/><path class="cls-9" d="M115.18,113.48s-.41,4.57,1.94,5.49,6-.63,5.72-2.51-1-4.05-3.84-4.05S115.18,113.48,115.18,113.48Z"/><path class="cls-8" d="M78.84,116.9s.29-1.28,0-1.3-2.46-.21-2.74.32C76.44,116.46,78.27,115.71,78.84,116.9Z"/><circle class="cls-10" cx="76.98" cy="116.35" r="1.2"/><circle class="cls-11" cx="119" cy="115.14" r="0.95"/><path class="cls-12" d="M85.43,159.59s8.18-4.09,10.57-4,3.07,1.25,4.54,1.25,3.29-1.14,4.43-1.25,10.2,2,10.2,2-1.17,9.52-13.94,9.52C87.36,167.08,85.43,159.59,85.43,159.59Z"/><path class="cls-13" d="M89.5,142.55s3.08-2.88,6.11,3.66"/><path class="cls-13" d="M102.17,144.64s3.53-4.57,4.7-4.05,1.57.7,1.44,1.33"/><path class="cls-14" d="M96.64,148.18a10.62,10.62,0,0,0,3,.09c.79,0,2.22,0,2.79-.68.2-.24-.44-.33-.58-.17-.51.6-2,.51-2.67.53a8.57,8.57,0,0,1-2.23-.07c-.24-.06-.77.18-.34.29Z"/><path class="cls-14" d="M87.12,136.42a8.66,8.66,0,0,0-1.9,4.12c-.28,3,2.32,4.74,4.75,5.78.19.08.82-.09.48-.24-2.55-1.09-5.09-3-4.47-6.06a9.37,9.37,0,0,1,1.8-3.51c.13-.19-.52-.28-.65-.09Z"/><path class="cls-15" d="M97.52,160.06a36.12,36.12,0,0,1,6.31,0A10.73,10.73,0,0,1,97.52,160.06Z"/><path class="cls-14" d="M86.68,119.23c1,1.41-4.71.48-4.71.48l1-1.94S86.05,118.32,86.68,119.23Z"/><path class="cls-14" d="M107.9,118.46c1,2,5-.24,5-.24l-.86-1.77S108.44,117.48,107.9,118.46Z"/><path class="cls-16" d="M89.5,117.55s3.44,4.55,2,18.35c0,0,1.42,2.06,2.06,2.06s.91-17.09-1-20.42A3.05,3.05,0,0,0,89.5,117.55Z"/><path class="cls-8" d="M74.67,115.64s-.46.8,0,1.14,1.09-.14,1.14-.33A.89.89,0,0,0,74.67,115.64Z"/><path class="cls-8" d="M116.19,114.64s-.46.67,0,1c.76.21,1-1,.5-1Z"/><path class="cls-8" d="M118.71,114.64c0,.55,1.18.52,1.18.52l.34-.52s0-.5-.76-.25Z"/><path class="cls-16" d="M106.81,133.41l-1.55,3.78s5.92,3.49,5.79,5.4c0,0,2.15-2.48-.39-6.12S106.81,133.41,106.81,133.41Z"/><path class="cls-16" d="M128.4,132.29s-6.89,3.12-6.89,9,7.52,12.8,7.52,12.8"/><path class="cls-17" d="M120.22,120.31s5.3,9.59,5.61,12,0,1.58,0,1.58l2.06-1.33-1.52-14.17Z"/><path class="cls-16" d="M62.64,130.71s11.83,4.51,11.83,12.5-9.26,17.31-9.26,17.31"/><path class="cls-18" d="M65.66,161.72c4.11,5.8,14.92,13.6,14.92,13.6s-2.27,5.78-7.17,5.78S60.49,174,60.49,174c3.81,5.58,13.1,9.4,13.1,9.4-1.68.15-44-1.83-44-38.13,0-62.52,41.68-100.5,52.1-100.5s9.75,1.34,9.75,1.34C97.89,36,130,35,154.49,90s1.79,73.12,0,76.45-22.24,14.73-29.06,9.65c4.56-5.7,4-25.46,2.62-41.68-1.07-12.64-2.62-23.12-2.62-23.12s-6.71-2.73-8.41-4.84c-4.57-4.69-7.28-16.61-8.67-16.21-2.08.57-1.16,2.44-1.3,5.83s-3.14,14.09-3.14,14.09h0c-13.11,3.72-39.12-2.4-39.12-2.4h0c-5.41,9.13-2.84,11.15-2.84,11.15"/><path class="cls-19" d="M92.23,58.87l-.82-12.76A5.76,5.76,0,0,1,95,43.55C93.2,52.56,92.23,58.87,92.23,58.87Z"/><path class="cls-19" d="M95.61,58.87S159.89,76,142.94,167.08C142.94,167.08,162.19,96.17,95.61,58.87Z"/><path class="cls-19" d="M88.1,55S31.22,69.66,60.49,174C60.49,174,18.87,86.29,88.1,55Z"/><path class="cls-19" d="M99.67,43.55l2.51,5.85s24.3,9,27.88,12.85C131.08,56.6,117.67,42.32,99.67,43.55Z"/><path class="cls-3" d="M33.08,51.55h-.24a5.16,5.16,0,1,0-9.74,0h-.24A5.16,5.16,0,1,0,27,59.82C26.41,62,25.66,64.28,24.85,65h6.24c-.81-.73-1.56-3-2.12-5.19a5.16,5.16,0,1,0,4.11-8.28ZM28.2,55s0,0,0,0Z"/></svg>