<svg id="Layer_1" data-name="Layer 1" xmlns="http://www.w3.org/2000/svg" viewBox="0 0 196 266.67"><defs><style>.cls-1{fill:#f8e4e3;}.cls-2{fill:#be1e2d;}.cls-3{fill:#e4e5e6;}.cls-4{fill:#c2c4c6;}.cls-4,.cls-6,.cls-7{opacity:0.85;}.cls-5{fill:#d0af9b;}.cls-6{fill:#b6b8ba;}.cls-7{fill:#d5d7d8;}.cls-8{fill:#f3f4f4;}.cls-9{fill:#545456;}.cls-10{fill:#fdd4c0;}.cls-11{fill:#efcab7;}.cls-12{fill:#6b3720;}.cls-13{fill:#eabba4;}.cls-14{fill:#1d1611;}.cls-15{fill:#efc7b0;}.cls-16{fill:#8e4323;}.cls-17{fill:#ebf4f0;}.cls-18{fill:#d39c82;}.cls-19{fill:#8b9da1;}.cls-20{fill:#eda6a7;}.cls-21{fill:#ffefdd;}.cls-22{fill:#fcd0b8;}.cls-23{fill:#d8cac6;}</style></defs><title>badbitchcards</title><rect class="cls-1" x="8.63" y="8.48" width="178.58" height="249.45" rx="8.5" ry="8.5"/><path class="cls-2" d="M25,27.86l-2.55,2.72V36H20V18.11h2.47v9.2l8.37-9.2h3.25l-7.44,8L34.21,36H31.08Z"/><path class="cls-2" d="M21.71,42.91c2.57,0,3.86,1.22,5.14,3.64,1.28-2.42,2.57-3.63,5.14-3.64a5,5,0,0,1,5.18,4.89c0,4.9-5.15,9.8-10.31,14.71-5.16-4.9-10.32-9.81-10.31-14.71A5,5,0,0,1,21.71,42.91Z"/><path class="cls-3" d="M122.41,66.32c.15,0,.15-.12,0-.12s-.15.13,0,.13Z"/><path class="cls-4" d="M88,184.21l43.61-4.87a19.13,19.13,0,0,0,10.3,8.37c0,6.68-1.65,18.33,5.74,27.52s8.49,9.19,8.49,15.25,14.32-24.51,6.61-38S160,182.28,160,182.28s19.28,6.06,25.61,13.22c-11-11.52-22.31-12.12-21.21-23.13s3-62.07-5.51-72.62,4.82-58-37.2-54C113,31.86,71,47,60.88,66.56S40.59,99.9,41.22,135.45s-15,45.52-21.78,49.92-11.62,21.24-4,29.85c0,0,2.2-8,16.23-14.83S88.19,188.71,88,184.21"/><path class="cls-5" d="M105.83,172.13c11.13,0,26.72-14.08,28.75-21.88-37.88,0-52.65,7-52.65,7S93.56,172.13,105.83,172.13Z"/><path class="cls-6" d="M70.22,72.6c-11.62,11.62-14.1,41.87-17.48,48.86s14.42,24.85,15.5,30.81,16.6,7.06,16.6,7.06l7.46-94.54S77.78,65,70.22,72.6Z"/><path class="cls-6" d="M134.58,58.38c15.72,4.08,8.55,37.39,17,47.47s-5.29,24.87-5.29,24.87L121.65,68.53S128.06,56.69,134.58,58.38Z"/><path class="cls-6" d="M146.3,138.93c-5,16.27-10.08,21-7.9,34.89l2.18,13.89a25.44,25.44,0,0,1-7.56-3.22c-2.26-1.47-4.69-2.74-5.69-5.14-1.27-3,8.38-46,8.38-46l10.58,1.22Z"/><path class="cls-7" d="M61.2,159.33c-4.74,9.41-22.68,18.88-28.44,26.67s-1.11,14.4-1.11,14.4-3.3-9.41,11.6-20.53S59.51,165.16,61.2,159.33Z"/><path class="cls-7" d="M151.59,152.28s-6.43,15.7-2,27.59,10.49,20.69,7.11,29.16c-9.82-28.37-14.07-38.93-13.13-45.7S151.59,152.28,151.59,152.28Z"/><path class="cls-8" d="M120,64.12c.38-6.06,3.15-12.15,8.88-14.86,6.72-3.18,13.2.18,16.89,6,6.07,9.61,6.8,22.15,7.78,33.17.52,5.76,1,11.54,2.06,17.23,1,5.44,2.88,10.44,4.67,15.66a23.91,23.91,0,0,1,1.55,8.71,46.11,46.11,0,0,1-1.94,9.84,141.71,141.71,0,0,0-3.4,16.47c-1.67,12-1.16,24.52,4.35,35.56,0,.07.28.05.24,0-5.7-11.44-6-24.39-4.15-36.81.94-6.24,2.55-12.28,4.06-18.4a26.29,26.29,0,0,0,.95-9.84,41.24,41.24,0,0,0-2.63-8.84c-4.63-12.39-4.85-25.43-6.38-38.41a80.65,80.65,0,0,0-3.8-17.69c-1.62-4.54-4-9.25-8.13-12a12.54,12.54,0,0,0-13-.36c-5.35,2.88-7.91,8.77-8.28,14.61,0,.08.24.09.25,0Z"/><path class="cls-8" d="M119.3,63.64A13.74,13.74,0,0,1,123.46,49a13.52,13.52,0,0,1,17.8,1c3.47,3.43,5.17,8.24,6.47,12.84,1.77,6.24,3.25,12.57,4.86,18.85,3.07,12,6.82,24.09,7.5,36.51.34,6.21-.31,12.38-.82,18.56a164.57,164.57,0,0,0-.45,17.91c.37,14,1.64,28.16-2.14,41.82,0,.1.22.11.24,0,3.65-13.21,2.61-26.91,2.19-40.44a182.08,182.08,0,0,1,.57-21.22c.6-7,1.09-14,.3-21-1.59-14.08-6-27.91-9.55-41.6-2.29-8.94-4.11-22.51-14.49-25.69a13.58,13.58,0,0,0-16.87,17.09c0,.08.27.06.24,0Z"/><path class="cls-8" d="M120.85,47.91c-1.67-4.5-6.2-7-10.85-7.34-6.36-.42-12.36,3-17.68,6A134.71,134.71,0,0,0,58.7,73.76c-4.6,5.18-7.82,10.81-9.09,17.67-1.4,7.59-1.53,15.43-2.43,23.09a153.5,153.5,0,0,1-4.54,24.09A117.4,117.4,0,0,1,34,159.83c-7.56,14.82-16.71,30.68-13.34,48,0,.09.27.08.25,0-2.83-14.5,3.28-28.39,9.76-41,3.2-6.24,6.56-12.43,9.15-19a109.68,109.68,0,0,0,5.57-19.55c1.36-7,2.2-14.07,2.86-21.16s.72-14.45,3.07-21.21S58.72,73.76,63.7,68.77A136.7,136.7,0,0,1,79.1,55.46,113.65,113.65,0,0,1,99,43.22c7.11-3.26,18.19-4.32,21.56,4.72,0,.08.28.06.24,0Z"/><path class="cls-8" d="M74,142.15a34.77,34.77,0,0,1-9.05,29.62c-3.28,3.41-7.79,5.82-10.18,10-2.75,4.82-1.7,10.64-.55,15.77,0,.09.27.08.25,0-1.24-5.51-2.29-11.74,1.15-16.71,2.93-4.24,7.79-6.78,11.09-10.73a34.9,34.9,0,0,0,7.54-28c0-.09-.26-.08-.25,0Z"/><path class="cls-8" d="M74,144.08l-.09-1c0-.09-.24-.09-.25,0-.42,6-1,12.1-2.76,17.89a49.2,49.2,0,0,1-7.7,14.41c-6,8.29-13.46,17.09-12.2,28.06,0,.09.26.08.25,0-1.34-11.6,7-20.62,13.18-29.41a45.87,45.87,0,0,0,7.09-14.34,60,60,0,0,0,1.52-7.56c.36-2.53.93-5.83.72-8.09,0,.09.26.08.25,0Z"/><path class="cls-8" d="M119.72,64.49c-.46-7.75,4.82-15,12.65-16.26,9-1.41,15,4.86,18.64,12.24s6.62,15,9.89,22.47,7.83,15.3,7.68,23.55c-.14,7.78-4.33,14.71-7.88,21.37a80.17,80.17,0,0,0-8,21.3,76.77,76.77,0,0,0-1.5,11.67,23.14,23.14,0,0,1-.93,6.64,21.84,21.84,0,0,1-3,5.13,32.25,32.25,0,0,0-5.94,19.2A64.63,64.63,0,0,0,145.2,214a18.91,18.91,0,0,0,5.34,8.13c2.31,1.91,9.77,5.34,5.62,9.14-.08.08.16.12.22.06,1.68-1.54,1.16-4-.28-5.5a19.32,19.32,0,0,0-3.87-2.71,15.2,15.2,0,0,1-4.53-4.54c-4.13-6.38-5.38-15.31-5.94-22.75-.61-8.18.72-16.1,5.53-22.89,2.5-3.53,3.87-6.45,4.13-10.8a89.87,89.87,0,0,1,1.56-13c1.89-9,5.7-17,10-25,3.71-7,7-14.41,5.43-22.48A56.67,56.67,0,0,0,164.27,90l-5.66-13Q155.8,70.66,153,64.23a45.92,45.92,0,0,0-5.22-9.63,16.15,16.15,0,0,0-17.32-6.1,15.62,15.62,0,0,0-11,16c0,.09.26.08.25,0Z"/><path class="cls-9" d="M76.3,77c.15,0,.15-.12,0-.12s-.15.13,0,.13Z"/><path class="cls-9" d="M122.64,66.87a19.3,19.3,0,0,1,4.19-5.23c3.59-2.79,8.3-1.35,11.05,1.84,3.23,3.75,4.14,9.18,4.9,13.92a73.55,73.55,0,0,1,.81,15.54c-.27,5-1.28,9.9-2,14.86a39.07,39.07,0,0,0,.41,14.51c.94,4.17,2.4,8.2,3.66,12.29a46.21,46.21,0,0,1,2.52,14.73,45.06,45.06,0,0,1-3.09,14.62c-3.95,10.57-10.13,20.34-15.57,30.19,0,.08.2.11.24,0,5.51-10,11.8-19.87,15.73-30.61a44.15,44.15,0,0,0,3-15.11c0-5-1.29-9.92-2.8-14.7-1.66-5.26-3.59-10.5-4.18-16-.63-5.85.71-11.55,1.59-17.29,1.61-10.52,1.61-22.85-2.47-32.86-1.56-3.82-4.69-7.42-9.09-7.64s-7,3.6-9.09,6.9c0,.07.2.11.24,0Z"/><path class="cls-10" d="M83.88,152.26S83,177.76,81,182.11s9.49,34.72,29,34.72,28.39-32.29,28.39-32.29-8.27-26.73-4.23-32.29C134.09,152.26,101.08,135.05,83.88,152.26Z"/><path class="cls-11" d="M111.85,158S121.94,192,122.1,198.55c5.73-1.75,14.88-18.68,14.88-18.68s-6.18-19.31-2.89-27.6C130.22,143.67,111.58,154.72,111.85,158Z"/><path class="cls-10" d="M97,65.62c21.36-4.27,29.91.7,32.69,7s6.61,20.17,8,24.69,4.87,26.43,3.13,39.3-13.09,20.52-21.67,27.82-22.84,5.22-26,1.74-15.65-6.61-21.91-36.52c-3.83-10.78-2.43-17.39-2.09-19.13S66.41,71.53,97,65.62Z"/><path class="cls-12" d="M104.21,130a8.59,8.59,0,0,1,2.91-3.12c2.15-1.46,3.47-1.18,3.47-1.18"/><path class="cls-13" d="M115.48,121.46c5.19,3.95,10,6.9,10.55,9.67a8.21,8.21,0,0,1,0,4.13S124.73,130.18,115.48,121.46Z"/><path class="cls-13" d="M105.83,99.09c-1.53-2.08-3.77-6.65-3.85-7.65,0,0,2.15,7.64,3,8.19S105.83,99.09,105.83,99.09Z"/><path class="cls-13" d="M95.13,100.51a10,10,0,0,0,1-5.82s-.84,5.41-1.66,5.61Z"/><path class="cls-14" d="M99.78,101.1a10,10,0,0,0,6-2C109,97.2,117,94.3,130,95.94c5.17.59,7.18,1.76,11.84,1.64v1.89s-7.06-1.13-7.94-.5-1.39-.5-2,4-1.76,6.3-4.28,7.69-11,1.76-15.5,1.51-6.43-1.88-10-8.25a5.38,5.38,0,0,0-2.39-.7,2.58,2.58,0,0,0-1.89,2c-.13.88-.76,6.3-5.54,8.06s-13.61,3.5-18.27,1.43-4.66-9.87-5.42-10-1.26.13-1.64-.25-1-2,0-2.27,6-1.15,9.58-2.34,14.06-1.7,21,1.58Z"/><path class="cls-15" d="M105,105.82c-1.92-4.73.55-6.27,11.44-8.83,11.4-1.54,13.56,1.13,14,2.57s.51,6-.51,7.4-1.75,2.57-5,3.49-11.4,1.13-13.56.72A8.38,8.38,0,0,1,105,105.82Z"/><path class="cls-15" d="M96.7,103.94c0-5.11-17.67-4.9-23.52-2s-1.44,9.66,0,11.09c0,0,1.33,2.59,11.67,1.46S96.57,108.1,96.7,107Z"/><path class="cls-16" d="M113.07,102.6c1.54-4.19,4.31-3.5,8.25-2.12,4,2.06,4.45,3,4.45,3Z"/><path class="cls-16" d="M90.89,105c-1.63-2.41-6.82-4.18-13.79,3.72C77.11,108.73,86.44,102.41,90.89,105Z"/><path class="cls-17" d="M113.07,102.6c1.85-3,2.13-2.7,3.15-2.7s6.53.61,9.55,3.62c-4.89.28-13.34.42-13.34.42Z"/><path class="cls-18" d="M110.59,103.94c0,.8,3.68,0,3.68,0l-1.2-1.35S110.62,103.16,110.59,103.94Z"/><path class="cls-17" d="M77.76,108.34c4.87-4.87,9.41-6.67,13.14-3.34,0,1.58-.44,1.67-1.74,1.76S81.28,106.67,77.76,108.34Z"/><path class="cls-18" d="M92.86,106.3c.08.87-2.23,0-2.23,0s-.51-1.58.26-1.3S92.77,105.28,92.86,106.3Z"/><path class="cls-19" d="M84.7,103.61c2.89-.83,3.3-.16,3.3-.16s.31,3.08-.72,3.24-4.51.42-4.51.42-1.4-1.32-.58-2.36A24.6,24.6,0,0,1,84.7,103.61Z"/><path class="cls-19" d="M118.69,103.8h2.42s1-1.94.3-2.85c-7.14-2.3-6.71-.6-6.71-.6S113.38,104,118.69,103.8Z"/><circle class="cls-14" cx="84.85" cy="104.9" r="0.95"/><circle class="cls-14" cx="118.1" cy="101.78" r="0.95"/><path class="cls-13" d="M126.37,103.31a10.86,10.86,0,0,0,3.73,2.4c.54,0-.15,1-.15,1s-2.89-.65-3.68-2Z"/><path class="cls-13" d="M73.89,111.86c1.93-1.26,5.27-4.05,5.27-4.05l-1.41.53S73.3,111,73.89,111.86Z"/><path class="cls-13" d="M109.56,118.63c-.35-1.64-2.33,2.11-2.16,4.22"/><path class="cls-12" d="M93.49,126.73c2.82-.47,4,2.23,4.22,3.23"/><path class="cls-13" d="M99.12,130.72s2.89.76,4,0"/><path class="cls-13" d="M84.33,138.93c0-4,.36-6.69,7.75-16.07l.23-2.31s-6.35,6.75-8,10.51A11.42,11.42,0,0,0,84.33,138.93Z"/><path class="cls-20" d="M103.11,150.24c11.45,0,18.2-12.14,19.89-15v-1.7s-16.92-.95-19.89,1.7c-4-1.2-13.15.59-16.15,3.26C87,138.51,87.72,150.24,103.11,150.24Z"/><path class="cls-21" d="M104,137.26c4.79-.14,14.7-3.37,16.84-2.69.44,1.76-9.91,9.73-16.84,11.68s-13.6-2.79-15.18-5.89c1.21-2.54.89-2.73,3.46-3S100.94,137.35,104,137.26Z"/><path class="cls-13" d="M122.6,161.53c-.34-1,8.38-16.86,9-26.28-10.69,26.44-14,32.64-24.17,32.64s-16.18.19-30.89-30.62C79,145,87.75,161.83,90.47,164a17.27,17.27,0,0,1,2.72,2.15c3.13,3.48,17.39,5.56,26-1.74C120.27,163.44,121.43,162.49,122.6,161.53Z"/><path class="cls-22" d="M143,135.25a3.16,3.16,0,0,0,4-1.86s-1.26-17.89-6.76-22a127.08,127.08,0,0,1,.83,23.89Z"/><path class="cls-22" d="M73.84,141.82a2,2,0,0,1-2.46-1.23,46.85,46.85,0,0,1-2.72-9.7c-.93-5.56,0-13.51,0-13.51s1.22,9.08,2.62,12.23c1.09,4.69,3.27,12,3.27,12Z"/><ellipse class="cls-23" cx="70.99" cy="139.49" rx="1.3" ry="1.95" transform="translate(-31.77 21.43) rotate(-14.06)"/><ellipse class="cls-23" cx="146.3" cy="132.67" rx="1.3" ry="1.95"/><path class="cls-2" d="M173.61,224.89c-2.57,0-3.86-1.22-5.14-3.64-1.28,2.42-2.57,3.63-5.14,3.64a5,5,0,0,1-5.18-4.89c0-4.9,5.15-9.8,10.31-14.71,5.16,4.9,10.32,9.81,10.31,14.71A5,5,0,0,1,173.61,224.89Z"/><path class="cls-2" d="M170.28,238.76l2.55-2.72v-5.39h2.47v17.87h-2.47v-9.2l-8.37,9.2h-3.25l7.44-8-7.54-9.91h3.13Z"/></svg>