<svg id="Layer_1" data-name="Layer 1" xmlns="http://www.w3.org/2000/svg" viewBox="0 0 196 266.67"><defs><style>.cls-1{fill:#f8e4e3;}.cls-2{fill:#eec5a6;}.cls-3{fill:#443123;opacity:0.07;}.cls-4{fill:#eabba4;}.cls-5{fill:#ebc0a8;}.cls-6{fill:#f5e0cd;}.cls-7{fill:#edc6ad;}.cls-8{fill:#ce987e;}.cls-9{fill:#6b3720;}.cls-10{fill:none;stroke:#d39c82;stroke-linecap:round;stroke-miterlimit:10;stroke-width:0.5px;}.cls-11{fill:#cda088;}.cls-12{fill:#ebf4f0;}.cls-13{fill:#572000;}.cls-14{fill:#e4baa0;}.cls-15{fill:#1d1611;}.cls-16{fill:#edc0a5;}.cls-17{fill:#efc7b0;}.cls-18{fill:#e8b272;}.cls-19{fill:#f6cdb2;}.cls-20{fill:#d77891;}.cls-21{fill:#e9bda3;}.cls-22{opacity:0.15;}.cls-23{fill:#381c15;}.cls-24{fill:#e79490;}.cls-25{fill:#be1e2d;}</style></defs><title>badbitchcards</title><rect class="cls-1" x="8.63" y="8.48" width="178.58" height="249.45" rx="8.5" ry="8.5"/><path class="cls-2" d="M73.73,174.2S76.07,185,77.25,191s-1,20.18-1,20.18,11.91,36.83,39.17,34S148.89,204,148.89,204s-15.31-12.89-12.76-32"/><path class="cls-3" d="M75,175.91c-.23.78,4.94,26.71,5.31,27.29s6,3.2,9.43,6.62a119.76,119.76,0,0,0,10.77,8.66s18.79-3.65,21.51-2.24,9.41-27,14.15-28.84c0,0-.18-10.62-.55-14.36S75,175.91,75,175.91Z"/><path class="cls-4" d="M104,130.46s9,1.65,12,0a10.54,10.54,0,0,0,4-3.37s-2-1.43-3.28-.7S104,130.46,104,130.46Z"/><path class="cls-4" d="M80.26,133.42c-5.34,3.75-10.37,3.87-13.72,1.83a2.36,2.36,0,0,1,1.72-2.74C70.37,132,80.26,133.42,80.26,133.42Z"/><path class="cls-5" d="M73.38,126.18c4.76,0,9.12,4,10.35,4.28s.8,1.57.8,1.57l-18,1.39S66.71,126.8,73.38,126.18Z"/><path class="cls-5" d="M100.55,129.93s-.83-2.27,1.73-4.4,4.23-5.36,8.18-5.36,9.22,4.26,9.46,6.91Z"/><polygon class="cls-6" points="115.53 164.91 115.18 166.59 99.92 176.07 84.24 172.38 82.22 169.07 105.97 167.83 115.53 164.91"/><path class="cls-7" d="M102.82,198.33c10.46-.35,13.28-5.2,17-7.71s12.4-8.71,16.62-17.94,3.3-20.18,3.3-23.35.4-21.9-.66-29.29,4.93-43.6-55.46-43.6a34.67,34.67,0,0,0-9.68,1.27C62,81.17,56.37,91.47,56.66,105.55c.36,17.46.92,25.7.92,31.84s-.35,13.62,3.48,19.54a47.51,47.51,0,0,1,6.62,15.67c1,4.53,8.36,15.5,12.71,17.94a74,74,0,0,1,8.18,5.4C91.37,197.86,93.9,198.63,102.82,198.33Z"/><path class="cls-8" d="M116.63,126.39s-2.13,4.28-5,4.28-7.68-.2-7.68-.2Z"/><path class="cls-9" d="M96.9,159.3c.11-1.25.68-1.82,2.17-3.19s4.06-3.08,4.94-1.6-1.52,2.11-1.52,2.11"/><path class="cls-9" d="M90.26,158.89c-1.61-1.74-2.06-3.09-3.22-2.57s-1,2.06,0,2.12"/><path class="cls-10" d="M91.71,160c1.11.74,3.79.46,3.79.46"/><path class="cls-10" d="M104.2,149.53c1.39,0,6.85,5.76.65,8"/><path class="cls-10" d="M86.76,150.74c-1.82,1.71-4.17,3.89-2.67,6.81"/><path class="cls-4" d="M88.57,145.63c-.39,1.26-1.66,3.45-1.34,4.55a14.66,14.66,0,0,0-3,3.1s.28-3.44,1.54-3.94C87.51,148.63,85.79,145.63,88.57,145.63Z"/><path class="cls-11" d="M108.31,150.29c2.27,2.21,7.52,7.53,9.72,8.07s3,3,2.52,5.65a18.15,18.15,0,0,0-6.91-7.39C110.49,154.7,108.91,153.9,108.31,150.29Z"/><path class="cls-11" d="M78.1,161.59c.52-2.32,2.58-4.72,4.72-6.7,0,0-.74-.61-1.3-.33A15.24,15.24,0,0,0,79,172.68a1.1,1.1,0,0,0,.19-1.33C78.76,170.49,77.33,164.53,78.1,161.59Z"/><path class="cls-11" d="M117.74,165.24c.3,2.14.6,2.16,0,2.59s-2.56-1.23-2.56-1.23l.35-1.69-.05-1.6C116.33,163.05,117.37,162.63,117.74,165.24Z"/><path class="cls-4" d="M98.87,185.1c7.11,0,7.89-1.52,8.87-4.71H89.69S89.67,185.26,98.87,185.1Z"/><path class="cls-4" d="M113.09,122.73a6.44,6.44,0,0,1,3.54,3.65L107.48,124S109.2,122.11,113.09,122.73Z"/><path class="cls-12" d="M102.28,129.05s2.1-5.34,7.21-5.34,7.15,2.67,7.15,2.67-3.08,3.74-6.8,3.74a41,41,0,0,0-5.83.34Z"/><path class="cls-13" d="M112.15,129.67a3.73,3.73,0,0,0,2-5.05c-.59-.75-5.66-1.28-6.64-.61C107.34,127.09,107.54,130.66,112.15,129.67Z"/><path class="cls-12" d="M112.21,125a1,1,0,0,0,.39,1.32s.39-.06.48-.87S112.57,124.44,112.21,125Z"/><path class="cls-12" d="M74.19,134.47a19.52,19.52,0,0,0,6.06-1.05l1.57-1.4-.85-1.4s-5.28-4.14-9-1.93-3.76,3.83-3.76,3.83A13.86,13.86,0,0,0,74.19,134.47Z"/><path class="cls-13" d="M72,128.69l-.24.15c-.52,1.33.32,5.5,3.15,5.62l.51,0,.27,0h0c.37,0,.72-.08,1.06-.13,1.91-.47,3-2.2,2.47-4.74C77.42,128.48,74.39,127.26,72,128.69Z"/><path class="cls-12" d="M77.44,129.84c-.89.59-.4,1.76.2,1.76s.9-.63.9-1.14A.71.71,0,0,0,77.44,129.84Z"/><path class="cls-14" d="M98.85,132.41c3,2.72,4.91,3.2,7.78,5.59S119,136.57,119,136.57s1.68-3.89.48-4.16C109,134.46,107,136,98.85,132.41Z"/><path class="cls-15" d="M97.16,118.47a5.54,5.54,0,0,1,3.12-4.39"/><path class="cls-15" d="M98.15,118.52a12.89,12.89,0,0,1,3.07-4.21,3,3,0,0,1,1.43-.83"/><path class="cls-15" d="M100.25,117.57l1.88-2.46a7,7,0,0,1,1.05-1.18,3.49,3.49,0,0,1,1.85-.78"/><path class="cls-15" d="M102.28,117.15c.06.1.22,0,.3-.06,1.51-1.62,2.69-3.71,4.74-4.56"/><path class="cls-15" d="M104.51,116.8,107,114a6.46,6.46,0,0,1,.91-.89,3.25,3.25,0,0,1,1.77-.63"/><path class="cls-15" d="M106.58,116.39a17,17,0,0,0,3.46-3.28c.45-.57,1-1.22,1.69-1.27"/><path class="cls-15" d="M109.09,116a8.88,8.88,0,0,0,2.49-2.58c.51-.8,1-1.78,1.93-2"/><path class="cls-15" d="M111.39,115.57c1.6-.73,1.9-3,3.3-4a.57.57,0,0,1,.5-.15"/><path class="cls-15" d="M113.21,115.43a6.53,6.53,0,0,0,2.31-2.57,3.65,3.65,0,0,1,.46-.8.9.9,0,0,1,.82-.34"/><path class="cls-15" d="M115.17,115.37c.87-.39,1.05-1.52,1.54-2.34a1,1,0,0,1,.41-.41.42.42,0,0,1,.53.12"/><path class="cls-15" d="M116.71,115.58l1.32-1.84c.25-.35.63-.74,1-.58"/><path class="cls-15" d="M117.42,116.13a24.23,24.23,0,0,1,1.75-1.82c.19-.18.56-.33.66-.08"/><path class="cls-15" d="M118.68,115.86c.45-.07.7-.53,1-.91s.74-.72,1.13-.49"/><path class="cls-15" d="M120.82,115.64a3.73,3.73,0,0,1,1-.52"/><path class="cls-15" d="M81,122.28a7.22,7.22,0,0,0-1-2.42,2.45,2.45,0,0,0-2.25-1.09"/><path class="cls-15" d="M80.08,121.91a1.14,1.14,0,0,0-.31-.8,5.68,5.68,0,0,0-3.5-2.11"/><path class="cls-15" d="M78.74,122.26a14,14,0,0,0-3.87-3.19"/><path class="cls-15" d="M77.29,122.43c-.16-.42-.65-.6-1.05-.79a3.89,3.89,0,0,1-1.38-1.12,6.73,6.73,0,0,0-1.33-1.66c-.09-.06-.27-.05-.24.05"/><path class="cls-15" d="M75.63,122.64l-2.12-2.19A4.11,4.11,0,0,0,72,119.28"/><path class="cls-15" d="M73.62,122.33c0,.12-.15.16-.27.12a3.2,3.2,0,0,1-1.45-1.58,2.64,2.64,0,0,0-1.55-1.45"/><path class="cls-15" d="M71.87,122.71c-1.26-.88-1.78-2.58-3.09-3.38"/><path class="cls-15" d="M70.23,122.76A7.1,7.1,0,0,1,68,120c-.23-.5-.54-1.11-1.09-1.1"/><path class="cls-15" d="M68.75,123l-.47-.39a4.54,4.54,0,0,1-.72-.69,7.31,7.31,0,0,1-.76-1.54,2.16,2.16,0,0,0-1.13-1.23"/><path class="cls-15" d="M67.46,123.08A1.79,1.79,0,0,1,66.36,122a8.36,8.36,0,0,0-.65-1.5,4.32,4.32,0,0,0-1.27-1.08"/><path class="cls-15" d="M66.05,123.4c-1.24-.76-1.7-2.47-3-3.07"/><path class="cls-15" d="M64.28,123.08a.86.86,0,0,1-.68-.4c-.16-.22-.27-.47-.44-.69a1.64,1.64,0,0,0-1.62-.58"/><path class="cls-15" d="M63.2,123.44l-1.53-.79c-.35-.18-.84-.34-1.09,0"/><path class="cls-15" d="M61.81,123.71a4.93,4.93,0,0,1-2-.16"/><path class="cls-15" d="M61,124.3a1.61,1.61,0,0,0-1.5.16"/><path class="cls-11" d="M96.9,125.54c-.25,3,.33,3.16,1.33,3.33s1.34-.66.88-1.39a2.81,2.81,0,0,1-.26-2.43C99.17,124.64,97,124.15,96.9,125.54Z"/><path class="cls-16" d="M126.89,157.15c3.75,5.57,11.66-21.54,11.66-21.54s-1.41-2-2.65-1.14-4.24,12.62-7.6,16.27S125.65,155.31,126.89,157.15Z"/><path class="cls-4" d="M65,135.6c-3,0-5.12-.91-5.26-1.35Z"/><path class="cls-4" d="M65,136.57c-2,.88-4.57.75-5.26.85S62.5,136.23,65,136.57Z"/><path class="cls-4" d="M68.75,126.39c2.26-1.64,4.84-2.78,9.61-1.68-4.85-4.26-11.45.61-12.31,3.33Z"/><path class="cls-4" d="M105.69,120.18c2.47-1.74,8.82-2,13.37,3.09C116.58,117.2,105.69,117.09,105.69,120.18Z"/><path class="cls-4" d="M122.76,127.49c2.6-.86,6-2.56,6.32-3.78-.61-1.43.17,1.19-6.67,3.05Z"/><path class="cls-17" d="M139.79,153c3.14,3.14,8.54,1.68,9,0s.28-7.5,2.41-12.9,1.14-15.37,2-18.2,2-7-1-7.56S147.23,122.71,139,120Z"/><path class="cls-4" d="M144.78,126.37c-1.85,3.8,2.56,5.35,2.56,7.06s-1.73,3.91-1.5,5.37.65,1.46,1.5.89.43-3.19,1.56-4.08,1.7-4,0-5.77.62-5.34-1.75-5.34S144.78,126.37,144.78,126.37Z"/><path class="cls-18" d="M63,170.08c3.41,0,4.28,5.63,0,5.63S59.62,170.08,63,170.08Z"/><path class="cls-18" d="M62.42,161.19c3.41,0,4.28,5.63,0,5.63S59,161.19,62.42,161.19Z"/><path class="cls-18" d="M63.45,166.69c0,1-.77,2.63,0,3.47,0,0-1.36-.1-1.64.34,0,0,1-2.93.61-3.67Z"/><path class="cls-5" d="M84.54,132c0,1.56-4.28,1.39-4.28,1.39a3.46,3.46,0,0,0,.72-2.8A9.86,9.86,0,0,1,84.54,132Z"/><path class="cls-5" d="M100.55,129.93c0,1.12,3.46.53,3.46.53l-.86-3S101.66,128.81,100.55,129.93Z"/><path class="cls-19" d="M90.26,124.18c1.37,6,2.11,26.18,3.35,27.79s5.05,1.28,4.64-1.24c-1.41-8.67-4.75-23.49-4.64-26.56S89.92,122.33,90.26,124.18Z"/><path class="cls-6" d="M81.75,168.83s2.25,3.34,4.5,4.66,16,2.58,16,2.58l12.91-9.48.35-1.69-17.46,2.92Z"/><path class="cls-20" d="M81,168.43c3.32,1.83,7.86,2.85,15.92,2s15.22-2.14,18.63-5.56c0,0-6.91,1.15-10.64.75a29.64,29.64,0,0,0-8.47.75s-4.13-.2-5.69.34S87.68,168.7,81,168.43Z"/><path class="cls-20" d="M81.75,168.83c5.86,8.07,6.49,11.55,16.5,11.55s16.93-13.79,16.93-13.79-9.45,6.9-17,6.9S84.51,173.39,81.75,168.83Z"/><circle class="cls-15" cx="75.54" cy="130.97" r="0.83"/><circle class="cls-15" cx="110.7" cy="126.68" r="0.83"/><path class="cls-8" d="M72,128.69c3.68-2.21,9,1.93,9,1.93-5.57-5.2-10.91-2.39-12.47,1.22A9.11,9.11,0,0,1,72,128.69Z"/><path class="cls-8" d="M109.48,123.72a10.55,10.55,0,0,1,5.76,1.5c-6.07-4.55-10.29-.16-11.64,1.61A7.4,7.4,0,0,1,109.48,123.72Z"/><path class="cls-21" d="M73.63,162.74C72.28,161.64,64,153,63.2,148.56c-.37-2-2.87-2.68-5.45-2.79a23.57,23.57,0,0,0,3.32,11.17A47.22,47.22,0,0,1,67,169.82C70.1,168.6,74.7,163.63,73.63,162.74Z"/><path class="cls-8" d="M68.26,132.52c-.17.05-.25.5-.25.5s4.1,2.09,5.88,2.09,6.36-1.69,6.36-1.69a19.52,19.52,0,0,1-6.06,1.05A13.86,13.86,0,0,1,68.26,132.52Z"/><g class="cls-22"><path class="cls-23" d="M58.57,126.45a25.68,25.68,0,0,1,20.91-3.56c1.34.34,3.58-5,3.27-5a26.79,26.79,0,0,0-21.87,3.91,7.55,7.55,0,0,0-2.42,3.32c-.12.37-.93,2.06.11,1.36Z"/></g><g class="cls-22"><path class="cls-23" d="M122,112.84c-4.07-2.24-6.52-1.71-11-1-4.27.64-7.8,1-11.65,3.14l-2.25,4.72a6.84,6.84,0,0,0,1.72-1.4c.79-.83,2.24-2.36,2.31-3.56,0-.76.17-1.55-.8-.52l-1,.76c-1,.63-3.38,5.36-2.25,4.72,3.66-2.05,7-2.21,11.05-2.81s6.77-1.06,10.55,1c1,.53,4-4.6,3.27-5Z"/></g><path class="cls-15" d="M148.23,164.88c4.14,3.26,7,3,7,3s-.85,4.53-3.55,4.33-7.13-2.07-8.49-3.67c1.66,3.32,5.18,5.05,6.84,4.36,0,0,.14,3.28-4.33,4s-9-1.82-9.26-4.19h0l3.38-19.67,6.78,1.85s0,8.77,1.66,10"/><path class="cls-14" d="M75.63,73C68,90.33,62.76,84.48,62.37,107.71s-12.42,22-12.42,22,9.85-8.79,4.33-29.56S75.63,73,75.63,73Z"/><path class="cls-14" d="M80.26,74.1c-11.79,10.43,21.64,10.76,26.33,17s4.77,17.29,18.52,21.4,21.47-14.64,21.47-14.64S94.56,61.45,80.26,74.1Z"/><path class="cls-15" d="M56.65,68.08c2.93-7.57,45.57-37.57,83.14,0,24.24,30.4,19.83,47.14,17.5,53.3l-4.67,6.11s-.61-9.17-3.14-10.35-2.15,4.3.49,7.33c0,0-8.9,4.74-20.89-7.26s-7.63-22.62-12.28-27.29S101.55,76,80.26,76.45C65,82.22,56.64,89.92,56.65,97.73s3.37,35.37,0,42.3-1.4,5.15-5.1,6-12.8-10.4-12.06-14.48,2.71-4.67,2.22-10.53-3-49.68,8.37-49.68C50.08,71.39,55.84,70.17,56.65,68.08Z"/><path class="cls-23" d="M65,63.57s44.19-11.92,64,7.95C123.43,53.52,70.24,57.61,65,63.57Z"/><path class="cls-23" d="M54.23,108.93c-.66,5-2.48,19.07-8.61,20.87C55.56,126.18,54.23,108.93,54.23,108.93Z"/><path class="cls-24" d="M151.17,140.11c2.14,2.42,4.23,3.91,6.08,3.48s3.46-2.77,4.66-8c2.38-10.43-6.7-12.57-6.7-12.57a8.14,8.14,0,0,0-2.58,4.46l-.08,4.93c-.08,4.93-6,22.51-6,22.51,1.53,4.5,9,2.62,9.65-.69,2.33-1.06,3.32-5.92,1-10.65"/><path class="cls-18" d="M146.58,148.27c4,0,5.06,6.65,0,6.65S142.55,148.27,146.58,148.27Z"/><path class="cls-18" d="M148.23,158.23c4,0,5.06,6.65,0,6.65S144.2,158.23,148.23,158.23Z"/><path class="cls-18" d="M148.23,154.62a12.46,12.46,0,0,0,0,3.61,2.35,2.35,0,0,0-1.66.44s.64-2.91,0-3.74Z"/><path class="cls-17" d="M61.07,156.93c-3.83-5.92-3.48-13.41-3.48-19.54-12.28-1.56-2.14,19.8,4.83,23.8l1.45.65A50.18,50.18,0,0,0,61.07,156.93Z"/><path class="cls-4" d="M56.65,140s-4.48-.51-1.67,7.36l1.31,4.12s0-5.43-.56-6.74,1.5-3,1.5-3S57.95,140,56.65,140Z"/><path class="cls-4" d="M81.91,135.67c-2.5,3.91-10,1.84-12.8,2.82A8.81,8.81,0,0,0,65,141.31s2.35-3.89,8.64-3.46S81.91,135.67,81.91,135.67Z"/><path class="cls-25" d="M26.21,27.35,31,22.92H23.21V20.65H34.3v2.22l-4.66,4.31a4.85,4.85,0,0,1,5,5c0,2.75-2.12,5.24-5.92,5.24s-5.92-2.47-6.07-5.14l2.42-.55a3.53,3.53,0,0,0,3.63,3.53c2.24,0,3.45-1.39,3.45-3a3,3,0,0,0-3.33-3,4.41,4.41,0,0,0-1.44.25Z"/><path class="cls-25" d="M171.11,242.45l-4.81,4.44h7.81v2.27H163v-2.22l4.66-4.31a4.85,4.85,0,0,1-5-5c0-2.75,2.12-5.24,5.92-5.24s5.92,2.47,6.08,5.14l-2.42.55a3.53,3.53,0,0,0-3.63-3.53c-2.24,0-3.45,1.39-3.45,3a3,3,0,0,0,3.33,3,4.38,4.38,0,0,0,1.44-.25Z"/><path class="cls-25" d="M36.13,52.74,29.31,41.88a.78.78,0,0,0-1.31,0L21.16,52.74a.78.78,0,0,0,0,.83L28,64.43a.78.78,0,0,0,1.31,0l6.83-10.87A.78.78,0,0,0,36.13,52.74Z"/><path class="cls-25" d="M176,216.68l-6.83-10.87a.78.78,0,0,0-1.31,0L161,216.68a.78.78,0,0,0,0,.83l6.83,10.87a.78.78,0,0,0,1.31,0L176,217.51A.78.78,0,0,0,176,216.68Z"/></svg>