<svg id="Layer_1" data-name="Layer 1" xmlns="http://www.w3.org/2000/svg" viewBox="0 0 196 266.67"><defs><style>.cls-1{fill:#f8e4e3;}.cls-2{fill:#d8cac6;}.cls-3{fill:#d39372;}.cls-4{fill:#da9f7b;}.cls-5{fill:#1d1611;}.cls-6{fill:#381c15;}.cls-7{fill:#ebf4f0;}.cls-8{fill:#d39c82;}.cls-9{fill:#3e211a;}.cls-10{fill:#231f20;}.cls-11{fill:#6b3720;}.cls-12{fill:#d28867;}.cls-13{fill:#8f3d30;}.cls-14{fill:#f5e0cd;}.cls-15{fill:#b07254;}.cls-16{opacity:0.15;}.cls-17{fill:#d2ced0;}.cls-18{fill:#be1e2d;}</style></defs><title>badbitchcards</title><rect class="cls-1" x="8.63" y="8.48" width="178.58" height="249.45" rx="8.5" ry="8.5"/><path class="cls-2" d="M152.16,137.25c4.3,4.3,4,17.45-9.28,14.8v-1.47s13.28,2,8.05-11.33a6.36,6.36,0,0,0,0-2.53Z"/><path class="cls-3" d="M52.07,144.78c-4.59,0-6.43-6.32-5.69-8.65s1.75-14.33,1.05-15.38a21.26,21.26,0,0,0,4.05,2.39S52.26,142.1,52.07,144.78Z"/><path class="cls-4" d="M97.55,242.57c-32.58,0-46.14-53-46.14-53s14.36,2.83,13-15.75h0s59.4-6.62,67.24.92h0s-4.13,15.08-1,26.83S110.63,242.57,97.55,242.57Z"/><path class="cls-5" d="M63.81,181.75S88,198.47,93.25,198.47s9.59-6.05,9.59-6.05l-7.09-13.5-31.39-5.1Z"/><path class="cls-5" d="M114.95,180.36s2.54,12.52,2,15,12.43-3.58,12.43-3.58.22-9.74,2.18-17-14.62,0-14.62,0Z"/><path class="cls-4" d="M95.46,64.1c35.55,0,42.06,9.18,45.91,37.92s1.93,37,1.93,45.46-5,19.58-8.83,23.41-17.85,26.29-33.78,26.29-41.45-22.45-46.06-38.77-3.84-34.34-2.69-43.17S54.71,64.1,95.46,64.1Z"/><path class="cls-6" d="M108.87,119.46a8,8,0,0,1,8.28-6.39c7.27,0,11.57,4.4,13.92,5.43l2.35,1-6-1A28.41,28.41,0,0,0,108.87,119.46Z"/><path class="cls-6" d="M65.6,119.51a40.69,40.69,0,0,1-6,.77s16.8-15.89,26.07.77"/><path class="cls-3" d="M91.84,116.68c.51,6.42,3.21,10.3-2,16,0,0-.68-12.28-4.05-11.77C81.24,115,81,112.35,81,112.35S89.46,111.78,91.84,116.68Z"/><path class="cls-7" d="M108.87,119.46s5.93-10.1,18.53-1.75v.76s-15.65.23-17.09,1C110.31,119.46,108.95,120.22,108.87,119.46Z"/><path class="cls-8" d="M107.28,120.56c-.71.71,2.32-.76,2.32-.76l-.73-1A19.58,19.58,0,0,1,107.28,120.56Z"/><path class="cls-7" d="M83.1,119.17s-2.34-3.92-9.14-3.92c-3.75,0-8.75,3.53-8.75,3.53a.48.48,0,0,0,.39.74c.7.12,15,0,17.11.9C82.71,120.42,83.57,120.34,83.1,119.17Z"/><path class="cls-9" d="M74.19,119.51c3.87,0,5.06-1.51,4.8-3.6a11.24,11.24,0,0,0-5-.92,23.3,23.3,0,0,0-3.76.9A3.79,3.79,0,0,0,74.19,119.51Z"/><path class="cls-7" d="M75.74,116.29a1.64,1.64,0,0,0,1.91,1.9C79.86,118.12,76.85,115.13,75.74,116.29Z"/><path class="cls-9" d="M113.46,115.24s-.14,3.54,4,3.54,5.17-1.33,5.17-3.73a15.29,15.29,0,0,0-4.83-.89A9.22,9.22,0,0,0,113.46,115.24Z"/><path class="cls-7" d="M119.23,116.05s-.5,1,.95,1.78C120.18,117.83,121.52,115.72,119.23,116.05Z"/><path class="cls-8" d="M85.67,121.05c-.65,1.07-3-.64-3-.64l.39-1.25Z"/><path class="cls-3" d="M64.56,122.22c3.6,2.16,3.14,3.15,14.46,2.79,0,0-.85-.71-.58-1.48C78.44,123.53,72.76,125.73,64.56,122.22Z"/><path class="cls-3" d="M110.7,122.76a21.31,21.31,0,0,0,14.06,2.33s-.63-1.87,0-2.87C124.76,122.22,121.07,126.09,110.7,122.76Z"/><path class="cls-10" d="M107.66,111a5.53,5.53,0,0,1,3.43-5.67"/><path class="cls-10" d="M109.57,109.94a4.17,4.17,0,0,1,2.82-4.4"/><path class="cls-10" d="M111.58,108.81a4,4,0,0,1,2.9-3.5"/><path class="cls-10" d="M113.14,108.43a4.7,4.7,0,0,1,3.58-3.29"/><path class="cls-10" d="M114.55,108.18a7.86,7.86,0,0,1,3.68-3"/><path class="cls-10" d="M116.9,107.7a7,7,0,0,1,3.34-3.75"/><path class="cls-10" d="M118.86,107a9.32,9.32,0,0,1,4-3.34"/><path class="cls-10" d="M121,106.4a4.66,4.66,0,0,1,3.9-1.9"/><path class="cls-10" d="M123.2,106a4.24,4.24,0,0,1,3.77-.33"/><path class="cls-10" d="M125.27,103.95c-.19,0,0-.29.17-.31a4.55,4.55,0,0,1,2.27.35"/><path class="cls-10" d="M126,104.7l1.67.23"/><path class="cls-10" d="M128.46,104.51a5,5,0,0,1,2.61.95"/><path class="cls-10" d="M128.84,106a5.93,5.93,0,0,1,2.77.85"/><path class="cls-10" d="M132.38,107a2.33,2.33,0,0,1,1.12,1.11"/><path class="cls-10" d="M128.65,105.44l1.31.35"/><path class="cls-10" d="M90,114a6.74,6.74,0,0,0-1.78-6.17"/><path class="cls-10" d="M88.85,113.65a5.24,5.24,0,0,0-1.75-5.27"/><path class="cls-10" d="M87.64,113.66a6.91,6.91,0,0,0-2.26-4.86"/><path class="cls-10" d="M85.7,113.65a4.88,4.88,0,0,0-1.06-4.29"/><path class="cls-10" d="M84.51,112.72a4.94,4.94,0,0,0-2.83-3.42"/><path class="cls-10" d="M81.44,111.06a6.94,6.94,0,0,0-4.84-3"/><path class="cls-10" d="M80.49,108.29a4.29,4.29,0,0,0-3.14-1.06"/><path class="cls-10" d="M82.58,109.76c.41-.49-.24-1.16-.81-1.43a12.41,12.41,0,0,0-2.93-.94"/><path class="cls-10" d="M84,109.21a6.61,6.61,0,0,0-3.5-3"/><path class="cls-10" d="M85.43,108.42a3.34,3.34,0,0,0-3-2"/><path class="cls-10" d="M86.5,108.43a3.9,3.9,0,0,1-1.13-1.11"/><path class="cls-10" d="M79.92,106.27a8.11,8.11,0,0,0-5.2-1.17"/><path class="cls-10" d="M78.29,106a11.84,11.84,0,0,1-3.36-.39"/><path class="cls-10" d="M76.45,107.46a12.43,12.43,0,0,1-2.64-2.19"/><path class="cls-10" d="M75.71,108.77a18.15,18.15,0,0,1-3.61-3.28"/><path class="cls-10" d="M59.7,109.68a2.53,2.53,0,0,1,2.9-1.18"/><path class="cls-10" d="M60.86,107.36a3.78,3.78,0,0,1,4.16.36"/><path class="cls-10" d="M62.73,106.23a3.23,3.23,0,0,1,3.75.94"/><path class="cls-10" d="M64.49,105a5.42,5.42,0,0,1,2.77,1.38"/><path class="cls-10" d="M65.6,104.65a3.75,3.75,0,0,1,3.21,1.52"/><path class="cls-10" d="M67.88,103.63a5.08,5.08,0,0,1,3.1,2.58"/><path class="cls-10" d="M70.45,104a1.57,1.57,0,0,1,.94.92"/><path class="cls-10" d="M71.95,103.78a.38.38,0,0,0,.38.24"/><path class="cls-11" d="M103.69,146.53c4-3.7,5.86-.58,5.18,0"/><path class="cls-11" d="M84.19,147.1c-1.52-1.73,1.41-3.93,5.95-.58"/><path class="cls-12" d="M92.5,148.67c1.51,2.2,6.1,1.26,8,.11.48-.3-.43-.52-.71-.35-1.46.9-5.11,1.82-6.29.11-.19-.28-1.16-.15-1,.13Z"/><path class="cls-12" d="M110.22,136.2c1.46,1.83,4.05,8.65.23,9.53-.63.15.15.51.5.43,4.29-1,2-7.87.23-10.09-.21-.27-1.17-.12-1,.13Z"/><path class="cls-12" d="M85,134.62c-3,3.55-6.74,7.58-3.2,12,.21.26,1.17.12,1-.13-3.43-4.25.18-8.17,3.1-11.59.3-.35-.66-.49-.86-.25Z"/><path class="cls-3" d="M113.46,142c1.37,4,6.12,12.9,7.11,13.94,0,0-.69,2.39-1.3,2.74s.41,4.79,1.41,5.29c.45.23,3.57-5,4.09-6.63s-6.8-12.9-9.24-15.34S113.46,142,113.46,142Z"/><path class="cls-3" d="M88.2,188.7c-16.59-8-22-28.65-21.71-30.07s3.4-3,2.33-5.41S65.15,144,51.55,141a95.72,95.72,0,0,0,3.08,17.39c4.61,16.31,30.13,38.77,46.06,38.77C98.91,193.06,88.2,188.7,88.2,188.7Z"/><path class="cls-3" d="M145.24,144.09c4.6,0,5.41-4.87,5.68-6.35s-3.11-7-2.84-9.05,2.15-12.69,1-13.44c0,0-3,9.2-5.48,10.17l-.23,18.68Z"/><path class="cls-2" d="M46.26,138.65c-4,7.31-1.71,15.93,7.26,15.36L53,151.55s-9.37-.4-5.8-9.74Z"/><path class="cls-3" d="M85.07,134.77S75.74,139,77.68,147c-4.35,5.81-4.42,9.72.84,15.73.28-2.52-5.43-1.91,5.26-3.22,5.45-6.11,8.88-10.14,12.29-9.87-5-.82-3.75-3.88-9.16-2.82S76.77,144.34,85.07,134.77Z"/><path class="cls-13" d="M97.42,159.55C93.75,157.69,77,160.66,77,160.66s9.76,14.89,21.17,14.89,20.9-16.62,20.9-16.62S98.87,157.93,97.42,159.55Z"/><path class="cls-14" d="M80.62,161.38c5.54,0,14.55.48,15.93.86s11.73-3,17.47-2.06c0,0-3.79,7.81-16.7,7.81S80.62,161.38,80.62,161.38Z"/><path class="cls-15" d="M60.4,157.19c0,2.87,9.69,23.33,20.46,28.72,0,0-14.73-13.82-17.86-26C63.12,159,63.81,156.38,60.4,157.19Z"/><path class="cls-15" d="M113.39,142c5.64,6.12,12,13.22,11.38,15.39-2.17.74-1.21.26-3.76-4.19a94.51,94.51,0,0,0-7.59-10.52Z"/><path class="cls-3" d="M132.79,119s2.52-.58,2.81-2.61C135.6,116.4,135.89,119.6,132.79,119Z"/><path class="cls-3" d="M133.43,119.51a5.58,5.58,0,0,0,5.31-1,8.45,8.45,0,0,1-5.31,1"/><path class="cls-3" d="M59.61,120.29s-4.36-1.63-5.75-3.71C53.86,116.58,55.83,120.36,59.61,120.29Z"/><path class="cls-3" d="M59.61,120.29c-4.58,1.18-6.25,3-6.25,3S54.51,121.11,59.61,120.29Z"/><path class="cls-3" d="M134.29,171l-1.08,0a4,4,0,0,0-3.3,1.84C114,197.53,97.77,194,97.77,194l2.4,3.21h0C114.65,197.65,129,177.6,134.29,171Z"/><g class="cls-16"><path class="cls-6" d="M62,110.26a17.68,17.68,0,0,1,11.88-3.93c3.33.06,13.18.83,13.51,5.09.05.67,2,2.37,2,2.1.15-2.15-.55-3.19-1.85-4.78l.59,1.39.53,0-1.58-1.55q1.25,1.32.06,2.21-1.09,1.9-3.28-.47c-1.7-.76-3.32-1.68-5-2.43C76,106.55,73,105.47,70,104.48l1.72,2.34A9.47,9.47,0,0,1,78,108.15l-1.56-2.27-1.12-.48.86,1.69a24.72,24.72,0,0,1,5.07,2.26c.51.29-.86-1.88-1.4-2.21l-2.49-1.56,1.56,2.27q1.48-.59.67-1a11.24,11.24,0,0,0-2.21-1c-.77-.3.93,1.87,1.19,2.08a16,16,0,0,0,3.59,2.14c.72.31-.89-1.86-1.19-2.08a9,9,0,0,0-3-1.6,7.29,7.29,0,0,0,1.56,2.27,31.58,31.58,0,0,0,4.45,2c.34.13-.94-1.78-1.11-1.94a12.69,12.69,0,0,0-5.32-3.19c-.36-.12.14.78.14.78,1.59,2.49,3.47,4.33,6.65,4,.16,0,.17-.14.11-.29-.8-1.91-1.9-3.45-4.05-3.84-.37-.07.12.75.14.78.44.72,4.12,7.12,5.57,3.84.58-1.31-1.9-3.37-3-3.26q-.14,0-.14.12c-.67,2,2.72,4.9,4.53,3.61a.26.26,0,0,0,0-.27,6,6,0,0,0-3.7-3.92c-.24-.1-.35,0-.27.23a5.31,5.31,0,0,0,4.23,4.22q.14,0,.14-.12a5.59,5.59,0,0,0-2-3.25s-.64-.56-.71-.38c-.72,1.79.43,2.95,1.74,4.11.08.07.72.63.74.28a3.48,3.48,0,0,0-.82-2.84c-.14-.23-1.57-2-1.72-1.44-.53,1.86,0,2.59,1,4,.07.09,1.2,1.54,1.48,1.24,1.35-1.46-1.06-4-2.69-3.6-.33.08.94,1.65,1,1.67l.74.78c.09.1.91.94,1,.53.45-2.08-1.25-5.35-3.72-4.41l0,.1c-.22,2.65,4.51,5.26,3.5,1.31-.13-.52-1.28-2.21-1.93-2-1.14.32-.24,1.42.17,2,.18.26,1,1.41,1.48,1.24l.66-.24,0-.1c.69-4-4.91-3.34-7.08-3.69-.46-.07,1,1.81,1.11,1.94l.79.67c1.43,1.23,0-1.12-.51-1.55-1-.88-1-1.1-2.34-.91-.35,0,.07.65.14.78.87,1.52,1.87,2.9,3.79,2.65.58-.08-1.14-2-1.35-2.14a8,8,0,0,0-5.4-1.77c-.27,0,1,2.35,1.72,2.34a6.06,6.06,0,0,1,4.67,1.38L82,107.94l-.66-.86L82.46,109l2.32.88c.08.05.34.27.47.18l2-.72L86,107.55l-.75.89,1.48,1.24.73.11-1.93-2,.2,2.66,1,.53-.74-.78,1,1.67.68,0-1.49-2-.35,1,1.48,1.24a1.77,1.77,0,0,1-.07-2.09l-1.72-1.44,1.6,1.74-1.26-1.82-.47,1.35L84,108q-1.15,1.61-1.58.55-2.79-1.43.91,1.76l-1.11-1.94a20.26,20.26,0,0,1-4.13-1.89l1.56,2.27,2.26,1.21-1.19-2.08A9.85,9.85,0,0,1,77.57,106l1.19,2.08a10.8,10.8,0,0,1,3,1.56c1.15.78-.5-1.52-.75-1.74a10.43,10.43,0,0,0-3.84-2.37,7.77,7.77,0,0,0,1.56,2.27l2.49,1.56-1.4-2.21a27.43,27.43,0,0,0-5.4-2.39c-.39-.13.76,1.58.86,1.69,1.1,1.2,1.25,1.44,2.84,1.77.35.07-1.19-2.06-1.56-2.27A9.75,9.75,0,0,0,70,104.48c-.51.05,1.25,2.18,1.72,2.34a90.24,90.24,0,0,1,11.07,4.42c2.41,1.16,4.34,2.54,7.09,2.37.18,0,.15-.14.11-.29a11.87,11.87,0,0,0-1.44-4c-.23-.33-1-1.59-1.58-1.55l-.53,0c-.48,0,.52,1.31.59,1.39l.38,2.24,2,2.1c-.33-4.27-2.55-6.05-6.41-7.33-7.69-2.55-16.22-3.67-22.91,1.78-.38.31,1.52,2.63,1.93,2.3Z"/></g><g class="cls-16"><path class="cls-6" d="M133.45,107.39c-5.39-5.1-11.89-3.79-18.72-2.79-2.19.32-10.51,2.09-7.63,6.09.25.34.95,1.29,1.48,1.17,1.27-.29,2.27-1.24,3.42-1.82a22.79,22.79,0,0,1,6.86-2.17c1.95-.32,11-3,12.42-1.68s1.2-.42.29-1.28c-2.66-2.5-6.64-.66-9.93-.14a71.2,71.2,0,0,0-7.64,1.31c-2.51.69-4.6,2.83-7,3.38l1.48,1.17q.72,1.43,1.49-1.42a7.37,7.37,0,0,1,3.35-1.69,31.86,31.86,0,0,1,4.91-.74c5.1-.64,10.79-2.08,15,1.89,1.49,1.41,1.2-.42.29-1.28Z"/></g><path class="cls-5" d="M97.42,45.79c23.06,0,39.88,19.08,43.58,32.22s4.92,25.93,5.75,27.12,2.87,3.2,3.08,6.1-3.8,13.57-6.21,14.18c0,0-2.16-46-13.57-52.76-12-5.81-54.19-7.2-59.06,1.13S59,86.14,57.92,91.27c-3.24,6.81-5.35,16.63-6.65,32.18,0,0-9.72-3.24-3.68-16.28-.72-9.41,1.65-15.21,4-22.94S61,46.51,97.42,45.79Z"/><path class="cls-17" d="M131.51,73.53s.68-2.56-1.37-3.42c0,0,1.78,1.57,1.37,3.42"/><path class="cls-17" d="M112.27,48.56a3.76,3.76,0,0,1,.71,1.67s-1.22-2.06-1.54-2C111.43,48.24,112.15,48.36,112.27,48.56Z"/><path class="cls-17" d="M71,73.79s-2.31.16-2.31,2.11C68.67,75.9,68.37,72.94,71,73.79Z"/><path class="cls-18" d="M20.63,30.45l7-9.81H31V31h2.8V33.3H31V37H28.64V33.3h-8Zm8-7.44L22.9,31h5.75Z"/><path class="cls-18" d="M174.69,239.35l-7,9.81h-3.4V238.79h-2.8V236.5h2.8v-3.68h2.39v3.68h8Zm-8,7.44,5.75-8h-5.75Z"/><path class="cls-18" d="M36.13,52.74,29.31,41.88a.78.78,0,0,0-1.31,0L21.16,52.74a.78.78,0,0,0,0,.83L28,64.43a.78.78,0,0,0,1.31,0l6.83-10.87A.78.78,0,0,0,36.13,52.74Z"/><path class="cls-18" d="M176,216.68l-6.83-10.87a.78.78,0,0,0-1.31,0L161,216.68a.78.78,0,0,0,0,.83l6.83,10.87a.78.78,0,0,0,1.31,0L176,217.51A.78.78,0,0,0,176,216.68Z"/></svg>