<svg id="Layer_1" data-name="Layer 1" xmlns="http://www.w3.org/2000/svg" viewBox="0 0 196 266.67"><defs><style>.cls-1{fill:#f8e4e3;}.cls-2{fill:#231f20;}.cls-3{fill:#010101;}.cls-4{fill:#9c7761;}.cls-5{fill:#7d3e1f;}.cls-6{fill:#72594b;}.cls-7{fill:#995c42;}.cls-8{fill:#926d5a;}.cls-9{fill:none;stroke:#9c7761;stroke-miterlimit:10;}.cls-10{fill:#d39372;}.cls-11{fill:#1d1611;}.cls-12{fill:#da9f7b;}.cls-13{fill:#6b3720;}.cls-14{fill:#d28867;}.cls-15{fill:#8f5f4a;}.cls-16{fill:#381c15;}.cls-17{fill:#ebf4f0;}.cls-18{fill:#b08874;}.cls-19{fill:#3c3738;}.cls-20{fill:#c29487;}.cls-21{fill:#f5e0cd;}.cls-22{fill:#d8966f;opacity:0.67;}.cls-23{opacity:0.15;}</style></defs><title>badbitchcards</title><rect class="cls-1" x="8.63" y="8.48" width="178.58" height="249.45" rx="8.5" ry="8.5"/><path class="cls-2" d="M21.88,32.67a4.27,4.27,0,0,1,3.1-4,4.11,4.11,0,0,1-2.67-3.83c0-2.67,2.37-4.54,5.5-4.54s5.5,1.87,5.5,4.54a4.13,4.13,0,0,1-2.67,3.83,4.25,4.25,0,0,1,3.1,4c0,2.62-2.17,4.69-5.92,4.69S21.88,35.29,21.88,32.67Zm9.35-.2c0-1.56-1.26-2.8-3.43-2.8s-3.43,1.24-3.43,2.8,1.24,2.75,3.43,2.75S31.23,34,31.23,32.47Zm-.4-7.54a2.73,2.73,0,0,0-3-2.62,2.73,2.73,0,0,0-3,2.62,2.77,2.77,0,0,0,3,2.67A2.77,2.77,0,0,0,30.83,24.93Z"/><path class="cls-3" d="M33.08,51.55h-.24a5.16,5.16,0,1,0-9.74,0h-.24A5.16,5.16,0,1,0,27,59.82C26.41,62,25.66,64.28,24.85,65h6.24c-.81-.73-1.56-3-2.12-5.19a5.16,5.16,0,1,0,4.11-8.28ZM28.2,55s0,0,0,0Z"/><path class="cls-2" d="M173.56,235.13a4.27,4.27,0,0,1-3.1,4,4.11,4.11,0,0,1,2.67,3.83c0,2.67-2.37,4.54-5.49,4.54s-5.5-1.87-5.5-4.54a4.13,4.13,0,0,1,2.67-3.83,4.25,4.25,0,0,1-3.1-4c0-2.62,2.17-4.69,5.92-4.69S173.56,232.51,173.56,235.13Zm-9.35.2c0,1.56,1.26,2.8,3.43,2.8s3.43-1.23,3.43-2.8-1.24-2.75-3.43-2.75S164.2,233.79,164.2,235.33Zm.4,7.54a3.06,3.06,0,0,0,6,0,3,3,0,0,0-6,0Z"/><path class="cls-3" d="M162.36,216.25h.24a5.16,5.16,0,1,0,9.74,0h.24a5.16,5.16,0,1,0-4.12-8.28c.56-2.18,1.31-4.46,2.12-5.19h-6.24c.81.73,1.56,3,2.12,5.19a5.16,5.16,0,1,0-4.11,8.28Zm4.87-3.45s0,0,0,0Z"/><path class="cls-4" d="M56.1,109.9s-.47-8.33,1.54-10.07S57,88.26,65.11,85.08c0,0,4.4-17.67,11-10.65,5.23,0,6.31-1.06,6.45-1.65S77.41,66.13,85.23,65c0,0,4.58-5.74,9.71-1.44,1.86-.16,4.23-4.94,11.94-1,0,0,10.74-1.59,13.93,1.12a19.54,19.54,0,0,1,4.78,6.54,4.63,4.63,0,0,1,4,4.78c0,4.31,7,6.34,8.59,6.09s4.28,7.27,2.08,10.91c0,0,3.38.91,4.15,3.64s3,1.95,3.51,1.95-.13,26.76-2.08,32.14-.13,7.33-3,9.28-3,6.58-11.82,8.61a10.13,10.13,0,0,1-7.44,4.37"/><path class="cls-5" d="M109.91,77.48C108,74,111.32,68,114,65.85c2.17-1.7,5.62-2.5,8.13-1.12,1.71.94,3.15,4.5,1.68,6.22-.3.35.66.49.86.25,1.32-1.55.57-4.81-.78-6.11-1.65-1.59-4.26-1.77-6.38-1.38a9.66,9.66,0,0,0-6.83,4.93c-1.4,2.33-3.2,6.25-1.73,9,.16.29,1.14.19,1-.13Z"/><path class="cls-5" d="M119.44,85.72c2,.06,2.71.78,4.3-.42a7.16,7.16,0,0,0,2.87-4.25c.23-1.71-1.06-2.29-2.4-2.9s-2.79-1.34-3.09-3.08a3.19,3.19,0,0,1,1.08-3c.68-.65,3.15-2.23,3.21-1.19,0,.35,1,.34,1,0l0-.31c0-.13-.15-.18-.25-.22-3.1-1.15-7.09,2.42-5.84,5.56,1,2.46,4.59,2.12,5.36,4.53.43,1.35-1.39,3.37-2.27,4.08-1.32,1.07-2.42.76-3.95.72-.6,0-.6.48,0,.5Z"/><path class="cls-5" d="M125.78,90.48c.65-3.08,5.58,1.69,6.86,1.92a4.28,4.28,0,0,0,3.82-1.82c1.28-1.58,2-4.07.95-5.92a3.18,3.18,0,0,0-1.16-1.16c-.6-.39-1.49-.39-2-1.16a2.92,2.92,0,0,1-.37-1.14q-.19-.79.69-1.07c.1.3,1.09.24,1-.13-.36-1.11-2.12-.64-2.53.23a3.07,3.07,0,0,0,.73,2.94c.86.9,1.92.52,2.68,1.64,1.19,1.77.09,5.44-1.79,6.47-2.39,1.31-4.08-1.26-5.83-2.11-1.33-.65-3.68-.39-4,1.33-.06.3.92.36,1,0Z"/><path class="cls-5" d="M132,102.51c-.28-.43,3.41-.39,3.38-.4a9.44,9.44,0,0,0,2.13.29,4.48,4.48,0,0,0,3.18-1.93c1-1.37,4.17-6.86.56-7.32-.47-.06-.94.4-.27.48,1.18.15.82,2.47.61,3.07a17.69,17.69,0,0,1-.94,2c-1.09,2.18-2.39,3.29-5,2.9-1.26-.19-3.72-.44-4.7.6,0,0-.1.12-.05.19l.14.22c.18.28,1.16.16,1-.13Z"/><path class="cls-5" d="M131.71,115.1c3.56.78,6.35,3.51,10.25,2.5,2.93-.76,5.67-3.7,5.07-6.85,0-.17-.22-.22-.37-.24l-.17,0c-.47-.08-.93.36-.27.48.25,0-.72,3.07-.76,3.15a6.53,6.53,0,0,1-5.38,3.15c-2.94,0-5.12-2-7.86-2.59-.35-.08-1.14.29-.5.43Z"/><path class="cls-5" d="M130.07,125.86a12.3,12.3,0,0,0,9.71,4.11c3.75-.23,4.86-3.58,6.64-6.26.19-.29-.77-.42-1-.13-1.89,2.84-2.55,6.18-7.15,5.82a11.15,11.15,0,0,1-7.37-3.79c-.21-.23-1.17-.09-.86.25Z"/><path class="cls-5" d="M91.34,75.19c-.83-1.26-.38-2.77-.23-4.15a6.21,6.21,0,0,0-.77-3.9c-1.08-1.58-3.9-1.94-5.66-1.73-4.34.51-3.95,7.44.34,7.59.6,0,.6-.48,0-.5-2.14-.08-3-3.34-2.21-5,1-2.26,4.74-2,6.26-.47,2.37,2.34-.34,5.79,1.3,8.29.19.28,1.16.16,1-.13Z"/><path class="cls-5" d="M101,73.61c-1.25-.48-2.8-2.35-3.53-3.41a4.74,4.74,0,0,1-.1-5.4c1.42-2.25,5.14-3.23,7.61-2.53.79.22,2.1,1,2.15,2l.17.48-1.45.25c-.43-.24-.69-1.55-.77-1.94a4.63,4.63,0,0,1,2.37-5.15c1-.5,2.11-.32,3.09-1s2.38-2.92.68-3.82c-1.28-.68-1.86.58-1.95,1.61a4.24,4.24,0,0,0,3.27,4.53c2.42.42,3.95-1.86,5.49-3.22a36.07,36.07,0,0,1,4.57-3c2.56-1.63,5.65-2.28,8.45-.74a4.53,4.53,0,0,1,1.32,1c.36.37.87,2.06,1.14,2.21l1.17-.59a2,2,0,0,1,2.36-.38,9.36,9.36,0,0,1,2.27.74,8.54,8.54,0,0,0,3.92.47c2.86-.25,3.92-2.2,3.33-4.94-.08-.36-1.06-.3-1,0a3.91,3.91,0,0,1-.23,3c-1.14,2.18-4.14,1.61-6,.81a6.84,6.84,0,0,0-2.88-.79c-1.71,0-3.55.41-3.48,2.41,0,.2.36.26.5.25,1.89-.1.86-2.12.05-3.11-1.63-2-4.47-2.58-6.95-2.52-3,.07-6.11,2.6-8.44,4.25-1.71,1.21-3.6,4.69-6.21,3.18-.79-.46-2.21-2.19-1.65-3.09,0,0,.43-.93.77-.32.57,1-2.82,2.3-2.69,2.26-2.18.71-4,1.59-4.4,4.19-.26,1.56.57,4.75,2.54,4.85,2.18.11,2.07-2,1-3.24-1.27-1.49-3.92-1.36-5.67-1.13-2.86.37-5.7,1.92-6.21,5C95.18,69.4,97.88,73,100.31,74c.29.11,1.21-.16.71-.35Z"/><path class="cls-5" d="M81.91,88.89c-1.89-1.75-3.53-3.58-4.12-6.21s.91-1.39.46-.26c-.34.85-1.78,1.56-2.54,1.87-2.18.89-3-.88-3.79-2.46a5,5,0,0,0-3.45-3c-1.09-.25-2-.39-2.49.71-.15.35.84.44,1,.13.37-.9,2.45.14,2.82.46a5.67,5.67,0,0,1,1.05,1.52A18,18,0,0,0,72,84,2.29,2.29,0,0,0,74,85.13c1.91.08,6.28-1.53,5.41-4.13a1.37,1.37,0,0,0-2.64,0c-.61,1.35.59,3.28,1.17,4.45A11.32,11.32,0,0,0,81,89.15c.23.21,1.19.05.86-.25Z"/><path class="cls-5" d="M83.15,71.84c1,.34,2.57,1.88,3.44.36s-.76-2.46-2-2.22a6.49,6.49,0,0,0-2.33,1.47,11.41,11.41,0,0,1-4,2.11c-4.42,1.09-3.59-.72-6.12-1-2.1-.22-3.33,1.57-4.07,3.28a18.61,18.61,0,0,1-2.66,4.28A9.86,9.86,0,0,1,63.65,82q-2.45,2.34-6.38-.25a3.06,3.06,0,0,1,.36-1.65c1.9-1.82,2.15,1.83,2.1,2.42a13.05,13.05,0,0,1-1.27,3.74,6.51,6.51,0,0,1-1.35,2.17c-.87.76-2.31.81-3.33,1.36-2.67,1.44-5,3.87-5.25,7-.16,2.37.57,3.9,3.1,3.38.16,0,.05-.14-.07-.12-3.13.63-3-2.47-2.75-4a7.34,7.34,0,0,1,2.48-4.19c1.54-1.39,3.17-1.86,5-2.73,2.34-1.13,3.84-4.9,3.67-7.4-.44-6.12-4.91.31-1.6,1.84,2,.93,4.34-.34,5.77-1.68a17.2,17.2,0,0,0,2.72-3.24c.91-1.42,1.36-3.27,2.46-4.51,2-2.27,4.35-.51,6.61-.28a7.48,7.48,0,0,0,3.68-.65,11.27,11.27,0,0,0,1.77-.87c.91-.57,1.91-1.89,3-2,3.74-.41,2,2.62.3,2.15,2.54.7-2.54-1.15-1.39-.76-.09,0-.28.06-.13.11Z"/><path class="cls-6" d="M134.92,80.14q.92.28.5,1.3l.84-.11c.24.13,1-.26,1.45-.08s.92,1,1.29,1.39a4.42,4.42,0,0,0,1.09,1.07,2.53,2.53,0,0,0,2.39.38c2.07-.81,4.12-3.49,3.67-5.77a6.12,6.12,0,0,0-5.33-4.91c-2.4-.17-3.58,1.59-2.64,3.79.13.3,1.11.22,1-.13a2.5,2.5,0,0,1-.36-1.26q-.27-2,3.39-1.43a6.77,6.77,0,0,1,1.77,1.35A4.81,4.81,0,0,1,145,80a5.35,5.35,0,0,1-2.28,3.05c-1.81,1-2.27-.3-3.45-1.51-.74-.76-2.29-1.56-3.39-1.18-.71.24-1.15.87-.34,1.31.2.11.7.14.84-.11.64-1.19-.41-1.9-1.46-1.94-.6,0-.6.48,0,.5Z"/><path class="cls-5" d="M135.6,144.27c1.4,2.73,2.06,5.67,5.25,6.71,2.11.69,5.1,1.07,7.16-.07.68-.38,3.18-3.71,1.55-4.19s-.29,2.4-.11,2.63c1.69,2.18,4.11,2.36,6.65,2.52,5,.31,9.17,4.68,11.57,8.82a6.94,6.94,0,0,1,1.12,3c0,.32,0,1.36-.28,1.58-1.07.92-.58-.81-.42-1,1.22-1.36,4.38-.72,5.42-.05a8,8,0,0,1,.88.72c.59.52,1.13,1.1,1.74,1.6,1.29,1.07,2.92,1.86,4.54,1,1.46-.8,2.66-4,.61-4.82-1.87-.71-3.39,1.2-2.05,2.74.05.06.29,0,.22-.06q2.4-3.7,2.54-1.5a1.29,1.29,0,0,1,0,.75,4,4,0,0,1-.48,1.86l-3.83.93a6,6,0,0,1-1.14-.76c-.39-.3-.74-.65-1.1-1a7.8,7.8,0,0,0-3.54-2.34,6,6,0,0,0-3.43.18,1.86,1.86,0,0,0-.69,2.52.18.18,0,0,0,.23,0c2.75-1.92-.55-6.28-1.9-8-1.92-2.47-5.17-5.72-8.42-6.26-2.39-.4-4.65.28-6.82-1.31a5.36,5.36,0,0,1-1.44-1.41c-.19-.34-.75-1.59-.36-1.88.81-.62.21,1.91,0,2.29-1.73,3.09-7.1,2.23-9.53.59-2.06-1.39-2.64-3.66-3.74-5.81,0-.07-.28,0-.24,0Z"/><path class="cls-5" d="M119.7,147a10.36,10.36,0,0,0,2.5,3.65c.9.7,1.64.56,2.71.69,2.19.26,4.8.66,5.67,3,.69,1.89-1.2,3.07-.6,4.79.55,1.56,2.61,2.57,3.89,3.42a6.52,6.52,0,0,0,3.46,1.42,15.34,15.34,0,0,0,4-.52c1-.25,1.33-.85,2.64-.92q4.39.14,3.1,3.85-2.3.76-1-.44c.15-.17-.33-.24-.43-.13-1.78,2,1.52,1.65,2.31.27s-.54-3.19-1.82-3.7c-1.63-.65-3.35.27-4.85.75-3.36,1.09-8.44-.22-10.35-3.52-1-1.68.36-2.41.44-4a3.77,3.77,0,0,0-1-2.51c-1.24-1.48-2.72-1.62-4.48-1.87-.91-.13-2.53-.23-3.22-.74a11.08,11.08,0,0,1-2.45-3.59c-.06-.15-.56-.11-.48.07Z"/><path class="cls-5" d="M39.35,122.62c-.27-.06-.23-1-.22-1.2.07-1.73,2.56-2.32,4-2.18.71.07,1.39.48,2.11.55a2.37,2.37,0,0,0,1.87-.45,9.14,9.14,0,0,0,2.65-3.48c.48-.88,1-1.78,1.52-2.61a11.56,11.56,0,0,1,1.64-2c.94-.87,5.05-3.74,5.27.34,0,.09.25.09.25,0-.09-1.61-1.6-2.16-3-1.92-2.69.45-4.32,3.36-5.52,5.51-.71,1.27-1.44,3.18-2.78,3.94-2.18,1.24-3.56-.38-5.59-.38s-2.85,2.1-2.49,3.89c0,0,.06.05.09.06l.2,0c.12,0,.23-.09.07-.12Z"/><path class="cls-5" d="M125.79,71.94a10.25,10.25,0,0,0,1.71-.38c2.33-.37,2.91,1.55,3,3.42.06,1.62-.17,3.28,1.7,3.94,2.05.73,5.13-2.15,2.85-3.6a.78.78,0,0,0-.79.05,4.71,4.71,0,0,0-.55.68c-.19.28.77.41,1,.13l.45-.56-.79.05c.56.35.46,1.73,0,2.14l-2.21.34-.49-.64a3.41,3.41,0,0,1-.2-1.37c-.06-1.5.11-2.9-.88-4.16a3,3,0,0,0-1.79-1.22c-1.1-.2-1.92.65-3,.66-.6,0-.6.5,0,.5Z"/><path class="cls-5" d="M147.23,110.86c0-.91.23-3.13,1.65-3.06A4.84,4.84,0,0,1,151,109c1,.75,1.48,1.57,2.72,1.93a3.78,3.78,0,0,0,3.24-.55c.91-.55,1.62-1.37,2.49-2,3.61-2.47,6.64-.77,8.19,2.16a5.28,5.28,0,0,1,.43,4.61c-.34.67-2.18,2.52-3.05,1.54-.49-.55-.23-2.28,1.07-1.79.17.07.56-.1.25-.22-1.64-.62-3.08,2.12-1.06,2.65,1.18.31,2.82-1.22,3.28-2.12,1-2-.11-4.73-1.5-6.31a5.26,5.26,0,0,0-4.75-2.08,6.49,6.49,0,0,0-2.4.81,10.53,10.53,0,0,0-1.43,1,4.84,4.84,0,0,1-3.24,1.42,2.25,2.25,0,0,1-3.12-.56,9.1,9.1,0,0,1-.88-1s-.78-.93-.83-1c-.59-.36-.47-.29-1-.28-1.81,0-2.67,2-2.65,3.5,0,.17.5.17.5,0Z"/><path class="cls-7" d="M109.8,77.77v.07h1c0-2.33.21-5,1.63-7,2.12-2.93,6.54-6.19,10.31-4.55.28.12,1.21-.13.71-.35-3-1.3-6.09-.39-8.6,1.54-3.57,2.76-5.13,5.77-5,10.32,0,.35,1,.35,1,0v-.07c0-.35-1-.35-1,0Z"/><path class="cls-7" d="M131.7,100l-.1-.19-.35.31c2.34-.43,5.15.55,7.28-.9,2.67-1.82,2.16-4.23,1.93-7,0-.36-1-.34-1,0a24.72,24.72,0,0,1,.33,3.18,4.38,4.38,0,0,1-3.55,4c-1.68.42-3.53-.08-5.25.24-.13,0-.45.11-.35.31l.1.19c.15.3,1.13.2,1-.13Z"/><path class="cls-7" d="M68.43,77.27c3.65.32,4,3.71,5.86,5.94a3.87,3.87,0,0,0,2.38,1.39c2.83.38,3.79-2.73,2.18-4.74-1-1.28-2.89-1.88-3.08.25-.14,1.54,1.06,3.31,2.14,4.33,1.8,1.7,3.92,2.46,5.06,4.87.07.15.56.1.48-.07-1-2.16-2.48-2.91-4.3-4.26a7.52,7.52,0,0,1-2.53-3.28c-.43-1.1-.75-1.78.52-2s1.67.51,1.94,1.65a3.23,3.23,0,0,1,0,1.21c-1.33,4.67-4.42.58-5.07-.52a22,22,0,0,0-1.38-2.56A5.61,5.61,0,0,0,68.57,77c-.23,0-.47.21-.13.24Z"/><path class="cls-7" d="M128.84,135.62c1.22,2,1.39,4.82,3.8,5.95a17.52,17.52,0,0,0,2.84.73c2.77.77,3.44,2,4.52,4.45.77,1.76,1.83,3.51,3.84,3.84a6.82,6.82,0,0,0,4.94-1.2c.48-.3-.43-.52-.71-.35a4.91,4.91,0,0,1-2.27,1,4.37,4.37,0,0,1-4.48-2.66c-.82-1.56-1.24-3.57-2.83-4.54a13.76,13.76,0,0,0-4.17-1.32c-3.08-.73-3.15-3.72-4.52-6-.17-.29-1.15-.17-1,.13Z"/><path class="cls-7" d="M37.27,123.24c-.12-1.5-.48-3.25.44-4.62,1.26-1.87,3.33-.74,4.92-.08a4.15,4.15,0,0,0,4,0c1.94-1.33,2.68-4.21,3.75-6.16a10.45,10.45,0,0,1,3.55-3.66,4.36,4.36,0,0,1,5-.06c.26.21,1.51,1.7,1.06,1.74-.17,0,0,.13.07.12l.31,0s.1,0,.09-.08c-.52-1.74-2.49-3.57-4.38-3.1-3,.73-5.33,3.82-6.57,6.41-1.41,2.95-3.39,6.4-7.46,4.37-.78-.39-1.6-1.1-2.53-1.07-2.87.09-2.62,4.29-2.46,6.2,0,.09.26.08.25,0Z"/><path class="cls-7" d="M106.85,62.08a12.93,12.93,0,0,1,.14-2.26,13,13,0,0,1,1.42-1.77,11.68,11.68,0,0,0,2.42-4.19c.21-1-.13-3.11-1.66-2.84-1.36.24-1,2.26-.78,3.19.58,2.17,1.93,4.22,4.32,4.4,2.2.17,3.64-1.25,5.22-2.6,1.29-1.11,2.68-2.15,4.06-3.16,1.62-1.19,4.1-2.87,6.12-3.24,2.74-.51,4.16.89,5.45,3a4.63,4.63,0,0,1,1,2.85c0,.15.07.6,0,.71-.48.57-2.22.47-1.31-.77l2.28-.61q1.69-1.37,3-.15a9.24,9.24,0,0,1,1.33,1,15.92,15.92,0,0,0,1.53,1.22,7.69,7.69,0,0,0,2.55,1.13c2.89.4,5.88-6.78,3.78-7.21-.12,0-.23.09-.07.12,1.33.28-.29,4.05-.54,4.52-2.11,3.9-5.23,1.48-7.68-.35-1.91-1.43-4.13-2.47-5.94-.31-.6.72-1.39,2.92.27,2.88,2.51-.06.35-4.72-.18-5.52-1.3-1.94-2.42-3.25-4.83-2.72-3.63.81-6.85,3.39-9.72,5.61-.85.66-1.58,1.49-2.46,2.1-2.64,1.83-5.55,1.62-7-1-.44-.76-1.62-3.12-.95-3.85q2.45-1.3,2.23,1a5.08,5.08,0,0,1-.56,1.88c-.58,1.23-5.37,5.83-3.43,7.26a.18.18,0,0,0,.23,0l.17-.21c.05-.06-.19-.1-.24,0Z"/><path class="cls-7" d="M147.88,114.16a11.87,11.87,0,0,1,1.2-3.54q.28-1.31,1.65-.54,1.1-.34,1.51.48c.3.23.51.71.8,1a4.07,4.07,0,0,0,3.8.93,15.75,15.75,0,0,0,4.75-2.59c1-.7,4-2.81,3.55-4.46s-3.24-.4-1.84,1.82c1.08,1.72,3,2.66,4.16,4.28.8,1.14,1.23,3.46.41,4.79a3.41,3.41,0,0,1-.35.77l-2.3,0c-.41-.25-.48-1.45-.6-1.88,0-.18-.54-.15-.5,0,.43,1.65,1.52,4.3,3.52,2.39,1.12-1.07,1.34-3.34,1-4.75-.44-1.85-2.11-2.71-3.36-4-.4-.41-1.1-.9-1.31-1.43q-.8-.59.06-1,.73-.81.24,0c-.36,1.4-2,2.47-3.12,3.24-2,1.36-5.16,3.69-7.69,1.67-.76-.61-1.07-1.79-1.89-2.34-2.56-1.71-4,3.42-4.2,5.09,0,.17.48.18.5,0Z"/><path class="cls-8" d="M90.86,89.38,107,62.94a26.87,26.87,0,0,1,9.66-.65s-7.05,21-12.95,27.51-12.87-1-12.87-1"/><path class="cls-8" d="M123.09,110.11c.93.11,24.95-9.63,24.81-12.47s.1,17.19-.93,21.6l-22.4,5.27s-3.86-12.33-1.48-14.4"/><path class="cls-9" d="M82.54,72.78s-6.38,1.78-8.75-1.07S68.27,77.09,66,78.13s-4.65-2.64-7.1-.59-5.75,6.62-4.26,7.59,5.43-3.08-.37-4.36-6.85-3.51-5.58-4.15,2.76,1.21,2.12,1.51"/><path class="cls-10" d="M102.89,168.41s-17.67,36.85-17.66,47.13l-3.91,17.25H52.57l-1.84-6.71s-2.17-11.49-3.64-19.91-3.85-25.77-2.49-27.91L46,176.12l56.93-7.71"/><path class="cls-11" d="M102.89,168.41S77,194,57.64,186.43L46,176.12l3.32-11.18"/><path class="cls-12" d="M113.52,95.66c17.18,16.09,9.13,33.27,9.35,37.84s-8.26,22.83-11.09,26.31-5.65,6.09-11.74,10.87-21.09,14.57-36.75,8.92S47.2,155,47.2,155c-.65-9.79,3.26-17.18,3.7-21.53s2.61-15.22,6.74-19.79,12.18-18.7,19.79-22,20.22-4.13,26.31-2A28.63,28.63,0,0,1,113.52,95.66Z"/><path class="cls-13" d="M76.82,147.89s4.94-.49,5.43,0,.25.62,0,1.48"/><path class="cls-13" d="M71,143.2s.37-1.48,1.23-1.11,1.6,3.56,2.22,4.31"/><path class="cls-14" d="M86.55,145c.12,2-.23,6-3,5.87-.45,0-.45.35,0,.38,3.28.18,3.92-3.7,3.77-6.24,0-.27-.76-.25-.75,0Z"/><path class="cls-14" d="M72.49,136.85c-2.38,1.22-4.12,3.67-3.08,6.35.09.23.83.17.72-.1-1-2.52.66-4.85,2.89-6,.37-.19-.32-.37-.53-.27Z"/><path class="cls-15" d="M79.08,126.33s1.08,0,1.22-.64-2.45-7.79-4.76-9-5.76-2.89-9.19-1.23v.71Z"/><path class="cls-15" d="M93.87,134.27s-.61-1.8,1.86-1.72,6.8-1.31,9.54.86a11,11,0,0,1,4.26,6.06c.36,1.66,0,2.16,0,2.16l-.76-.45Z"/><path class="cls-16" d="M67.4,118.74a16.93,16.93,0,0,1-1-2.58c.07-.22,4.62-.82,6,0s5.91,4.19,6,8.65Z"/><path class="cls-16" d="M106.35,141.05a8.78,8.78,0,0,0,2.42.13c.22-.21-.67-3.9-4.25-6.08s-8.38-.2-8.38-.2Z"/><path class="cls-17" d="M78.29,124.81a12.56,12.56,0,0,0-.65-1.89c-.39-.85-1.75-3.85-4.89-4.89a9.11,9.11,0,0,0-5.36.72,9.2,9.2,0,0,0,3.63,4c2.31,1.11,4.72,1.76,5.8,2.54A.88.88,0,0,0,78.29,124.81Z"/><path class="cls-17" d="M95.84,135s5-.81,7.57.82a8.92,8.92,0,0,1,3.46,4.7,2.88,2.88,0,0,1-.52.59c-.26.2-3.85.26-5-.46s-4.6-4.11-5.25-4.5A.87.87,0,0,1,95.84,135Z"/><path class="cls-18" d="M79.08,126.33c-.23.82-1.69-.8-1.69-.8l.9-.72S79.22,125.85,79.08,126.33Z"/><path class="cls-18" d="M93.87,134.27c-.79.2,2.05,1.68,2.05,1.68l.21-1A10.84,10.84,0,0,0,93.87,134.27Z"/><path class="cls-19" d="M99.87,135s-1.49,2.06-.8,3.51,3.89,3,5,1.22.48-3.41-1-4.12A7.64,7.64,0,0,0,99.87,135Z"/><path class="cls-19" d="M74.14,118.67s-2.38-1-3.12.72-.47,2.83.8,3.7,2.94,1,3.72-.29S76.57,119.84,74.14,118.67Z"/><circle class="cls-11" cx="73.79" cy="120.5" r="1.18"/><circle class="cls-11" cx="102.35" cy="137.1" r="1.23"/><path class="cls-11" d="M83.94,120.25a.75.75,0,0,0,.59-.52,6.87,6.87,0,0,0,.23-1.39,2.85,2.85,0,0,0-.17-1,2.31,2.31,0,0,0-.34-.86"/><path class="cls-11" d="M83.23,119.24c.61,0,.3-1.89.3-2.21,0-.61.14-1.52-.5-1.84"/><path class="cls-11" d="M81.61,118.13c.3-.28.25-.92.33-1.29a8,8,0,0,0,.07-1.64,3.52,3.52,0,0,0-.07-1,5.2,5.2,0,0,1-.33-.81"/><path class="cls-11" d="M80.39,116.3c.3-.33.19-.71.2-1.12s.09-.53.11-.8,0-.48,0-.72a7.35,7.35,0,0,0-.1-1.14,1.22,1.22,0,0,0-.4-.88"/><path class="cls-11" d="M79.58,114.48l-.08,0a1,1,0,0,1-.13.36c0-.39,0-.79,0-1.18a13.82,13.82,0,0,0,0-2.13,8.52,8.52,0,0,0-.2-1.23,1.86,1.86,0,0,0-.59-.91"/><path class="cls-11" d="M77.76,113.67a10.87,10.87,0,0,0-.15-3.6,3,3,0,0,0-.37-1.26c-.13-.19-.24-.43-.39-.6s-.21-.12-.3-.21"/><path class="cls-11" d="M76.64,111.54a5.21,5.21,0,0,0-.3-1.59,14.57,14.57,0,0,0-.55-1.95,8,8,0,0,0-.77-1.25c-.18-.26-.45-.6-.81-.57"/><path class="cls-11" d="M74.52,109.72a.54.54,0,0,1,.11.18,1.84,1.84,0,0,0-.33-1.1,14.67,14.67,0,0,0-1-1.32,6.08,6.08,0,0,0-1-.85,5.24,5.24,0,0,0-.82-.36"/><path class="cls-11" d="M71.68,108.8c.35,0-.2-.55-.28-.63a5.45,5.45,0,0,0-.94-.83c-.33-.2-.7-.38-1-.57-.1-.06-.57-.35-.58-.1"/><path class="cls-11" d="M69.75,108.6c.1-.39-.77-.85-1-1a3.71,3.71,0,0,0-1.62-.24"/><path class="cls-11" d="M67.93,108.3c0-.26-.92-.3-1.11-.29a6.3,6.3,0,0,0-.78.11c-.16,0-.28.17-.44.18"/><path class="cls-11" d="M66.82,108.8a4,4,0,0,0-1.72.51"/><path class="cls-11" d="M96.81,125.93c-.09-.32.44-.56.63-.73a2.7,2.7,0,0,1,1.4-.77,4.51,4.51,0,0,0,1-.33c.15-.06.47-.08.56-.2"/><path class="cls-11" d="M97.92,126.43a2.47,2.47,0,0,1,.31-.3c.21-.14.5-.21.72-.33.58-.31,1.19-.53,1.79-.79a5.48,5.48,0,0,1,2.14-.5"/><path class="cls-11" d="M100.15,127c.44.05.79-.3,1.18-.47a17,17,0,0,1,2.48-.85,7.83,7.83,0,0,1,1.52-.31c.32,0,.7-.07.91.21"/><path class="cls-11" d="M103.39,128.26a6.11,6.11,0,0,0,.75-.43c.33-.22.69-.36,1-.59a2.47,2.47,0,0,1,.87-.43,4,4,0,0,0,.6-.29,3.05,3.05,0,0,1,.79-.17.92.92,0,0,1,.83.18"/><path class="cls-11" d="M105.32,129.17a1,1,0,0,0,.62-.22c.32-.18.65-.31,1-.49a6.7,6.7,0,0,1,1.75-.77,3.73,3.73,0,0,1,.8,0,3.31,3.31,0,0,0,.44,0c.19,0,.42-.21.58,0"/><path class="cls-11" d="M108.16,129.78c.31-.1.48-.4.82-.48.67-.16,1.32-.41,2-.56a2.28,2.28,0,0,1,1.23-.1,9,9,0,0,1,1.22.43"/><path class="cls-11" d="M110.38,130.39c.23-.29.88-.28,1.23-.31a3.33,3.33,0,0,1,1.71.15,2.12,2.12,0,0,0,1,.25c.4,0,.45.09.7.41"/><path class="cls-11" d="M112,131.6c.21,0,.43-.11.66-.11a10.68,10.68,0,0,1,1.27.2,1.25,1.25,0,0,1,.7.41c.2.19.6.4.61.71"/><path class="cls-11" d="M113.22,132.92c.2-.24.52-.05.73,0a2.89,2.89,0,0,1,1.08.77,3.32,3.32,0,0,1,.83,1.52"/><path class="cls-11" d="M114.23,134.74c.64.1.9.94,1.17,1.42.13.24.32.44.43.68a2.36,2.36,0,0,0,.33.74"/><path class="cls-20" d="M59,152.91s.25-1.51,3.56-1.87A10.13,10.13,0,0,1,72.26,155s7.28-.17,9.77,9.44c0,0,.28.86-2.34,2.32s-7,3.05-9.16,1.73-5.14-3.25-6.27-3.58-2.46-.93-4.65-7.76Z"/><path class="cls-21" d="M59.81,153.72s7,4,7.83,5.24a7.69,7.69,0,0,0,4.65,3.19,18.31,18.31,0,0,1,7.4,2.06l1.64.73a117.48,117.48,0,0,0-10.76-6.11C66.71,156.38,60.42,153.27,59.81,153.72Z"/><path class="cls-10" d="M108.26,163.69s2-1.26,2.13-.53-.89,3.14,1.62,3.63,6.87-7.37,8.32-8.7,3.87-4.83,3.26-6-6.9-1.08-6.9-1.08Z"/><path class="cls-10" d="M52,131.5a4.85,4.85,0,0,1-2,0c-1-.25-3.38-6.44,0-11s2.42-6.07,3.14-6.87,4.21-5.17,5.37,0A35.43,35.43,0,0,0,52,131.5Z"/><path class="cls-22" d="M54.44,172.31s-5.32-10.12-1.93-20.65,13-16.11,12.58-17.58-4.55-11.61-8-12.4-2.91,0-2.91,0a172.82,172.82,0,0,0-4.35,17c-1.31,6.69-2.51,13.47-2.64,16.39,1.08,6.73,2.83,12.89,6.1,17.28S54.44,172.31,54.44,172.31Z"/><g class="cls-23"><path class="cls-16" d="M97.15,125.73a61.83,61.83,0,0,1,12.75,3.48c1.7.74,3,1.45,3.79,3.19.7,1.54.77,3.21,1.55,4.73.07.13,1.55-1.25,1.42-1.7A19.66,19.66,0,0,0,115,131c-1.1-1.8-2.82-2.11-4.75-2.63s-12-1.89-11.64-4.6l-1.22,1.66.57.25.71-1.2-.06-.19c-.54,0-1.47,1.79-1.23,1.8a2.4,2.4,0,0,0,2-2.42l0-.07c-2.1-.64-2.61,2.61-.95,3.63,2.78,1.72,7.35,2.08,10.48,2.93,1.28.35,2.92.58,3.93,1.52,1.35,1.26,1.84,3.67,2.37,5.39l1.42-1.7c-1.87-3.68-1-6.05-5.34-7.92A61.87,61.87,0,0,0,98.54,124c-.6-.12-1.46,1.76-1.39,1.77Z"/></g><g class="cls-23"><path class="cls-16" d="M65.53,110.1c2-.8,4-2.2,6.2-1.31,1.65.66,2.72,2.24,3.72,3.61,1.9,2.62,4.43,5.71,7.54,7,.22.09.43-.12.59-.25,2.35-1.9.14-3.65-1.37-5.47-2.17-2.61-6.21-8.47-10.14-7.3-.5.15-1.58,2-.91,1.75,2.71-.8,5.76,3,7.37,4.69,1.4,1.5,4.58,4.25,4.7,6.24l.85-1.43c-.2.16-4-3.12-4.4-3.48-1.69-1.61-2.71-3.71-4.29-5.39-3-3.22-5.49-1.79-9-.4-.49.2-1.52,2-.91,1.75Z"/></g><circle class="cls-17" cx="75.03" cy="120.6" r="0.44"/><circle class="cls-17" cx="103.56" cy="137.25" r="0.44"/></svg>