<svg id="Layer_1" data-name="Layer 1" xmlns="http://www.w3.org/2000/svg" viewBox="0 0 196 266.67"><defs><style>.cls-1{fill:#f8e4e3;}.cls-2{fill:#050606;}.cls-3{fill:#381c15;}.cls-4{fill:#e8b272;}.cls-5{fill:#9c6545;}.cls-6{fill:#443123;opacity:0.07;}.cls-7{fill:#a36949;}.cls-8{fill:#956042;}.cls-9{fill:#f5e0cd;}.cls-10{fill:#ebf4f0;}.cls-11{fill:#a33543;}.cls-12{fill:#6b3720;}.cls-13{fill:#ad704d;}.cls-14{fill:#211010;}.cls-15{fill:#aa6e4c;}.cls-16{opacity:0.15;}.cls-17{fill:#be1e2d;}</style></defs><title>badbitchcards</title><rect class="cls-1" x="8.63" y="8.48" width="178.58" height="249.45" rx="8.5" ry="8.5"/><path class="cls-2" d="M56,118.18C57.34,96.32,76.24,61.91,115,76.7s30.19,48.08,25.09,59.92l-.36,1L135,141.18l-1.93.59-74.7-23.6s-1.93-2.14-2.39,0"/><path class="cls-2" d="M66.45,89.5s-8.09-.78-8.09-7.76,3.45-7,3.45-7-7.49-11.42,1.91-18.39c0,0,2.34-12.69,17.29-12.69,0,0,23.91-25.43,56.32-1.3,0,0,1.54-.6,3,2.78,0,0,3.71,4.23,2.7,8.25,0,0,2-1.27,3.22,2.11,0,0,7.61,1.48,4.86,7.19,0,0,2,2.54.6,4.44a6.64,6.64,0,0,1,3.42,4.65S158.75,71.6,159,75c0,0,4.44-.21,2.75,5.07,0,0,4.79,3,.38,10.36,0,0,1,5.81-2.5,9.3s-5.71,4.23-5.71,4.23.21,4.86-3.81,6.55a6.14,6.14,0,0,1-3,3.46l-2.45,1.4s-37.94-41.17-38.56-41.29S66.45,89.5,66.45,89.5Z"/><polyline class="cls-3" points="108.5 86.76 115.03 76.69 112.26 75.72 105.27 85.66 106.02 89.09 108.5 86.76"/><rect class="cls-4" x="53.56" y="140.22" width="0.97" height="24.04" rx="0.45" ry="0.45" transform="translate(19.47 -5.57) rotate(7.19)"/><path class="cls-5" d="M60.49,177s1.32,11.72,1.81,17.09-2.69,17.64-2.69,17.64,7.09,33.44,31.29,33.44S124,212.08,124,212.08s-10.28-17.76-6.29-34.32"/><path class="cls-6" d="M117.74,177.76,60.49,177s1.32,11.72,1.81,17.09a35.28,35.28,0,0,1-.63,7.9c.52.74,6,4.07,9.2,8A127.2,127.2,0,0,0,81.3,220.31s20.25-1.79,23,0c2.08,1.37,8.54-15.43,13.79-24A41,41,0,0,1,117.74,177.76Z"/><path class="cls-7" d="M105.27,85.66c28.13,8.79,32.09,29,31.21,42.63-1.06,5.16-2.48,10.58-4,15.73a217.19,217.19,0,0,1-8.57,24.28c-2.31,5-13.54,26.42-46.56,26.42-10.57,0-17.83-20.14-20.47-24.77s-5-17.17-3.3-23.78c1-9.58,1.65-16.84,3.63-21.13s0-18.49,8.59-25.76S87,80.29,105.27,85.66Z"/><path class="cls-8" d="M104.22,172.88c-.53,1.13-2.78,0-2.78,0l.53-1.07S104.28,171.28,104.22,172.88Z"/><path class="cls-8" d="M101.58,139.93a21.57,21.57,0,0,0,2.65,4c.92.92,11.16.46,12-.54s2.3-2.82,2.3-2.82S102.6,138.89,101.58,139.93Z"/><polygon class="cls-9" points="69.77 165 102.53 172.18 79.95 177.42 68.81 164.89 69.77 165"/><path class="cls-3" d="M109.15,143.29c3.73.06,8.12-1.51,9.34-2.71l-15.8-.68S108.1,143.27,109.15,143.29Z"/><path class="cls-3" d="M110,135.13c3.87,0,7.73,3.54,8.51,5.45l-16.88-1.36S106.56,135.13,110,135.13Z"/><path class="cls-3" d="M76,125.58c4.28,1.86,5.21,7,5.21,7s-13.89-4.68-14-5.24S69.69,123.93,76,125.58Z"/><path class="cls-3" d="M71.24,132.08a11.25,11.25,0,0,0,8,1.07l-12.06-5.78A9.42,9.42,0,0,0,71.24,132.08Z"/><path class="cls-10" d="M67.22,127.38c1.2,1.5,4.81,6,10.93,5.51,1.2,0,2.28,1,3,.8s-1.84-7.52-8.06-8.12C69,125.58,67.22,127.38,67.22,127.38Z"/><path class="cls-10" d="M101.61,139.23c5.47-3.17,10-6.21,16.88,1.36a21.13,21.13,0,0,1-9.18,1.82c-3.17-1.15-4.86-2.9-6.62-2.5S101.61,139.23,101.61,139.23Z"/><path class="cls-7" d="M135,141.18c5.93-5,6.3-4.26,7.78-3.34s-3.34,5.37-3.89,9.08-2.59,18-10.38,18c-2.22,0-2.25-2.6-2.25-2.6l6.8-20.53Z"/><path class="cls-7" d="M58.54,117.88c-3.91-4-2.73,5.64-3.86,8.79s-4.5,14-.37,16.08c0,0,1.15-11.15,1.68-13.23s1.93-5.11,2.15-6.22S58.54,117.88,58.54,117.88Z"/><path class="cls-8" d="M136.59,141.63c.68,3,.83,12.7-3.16,15.07,0,2.36,1.17,1.33,1.77.74s2.52-7.07,3.55-13.44c1.48-3,3-4.36,2.36-4.77S136.59,141.63,136.59,141.63Z"/><path class="cls-11" d="M81.94,164.89c5.18-.35,16,3.69,20.59,7.29a.8.8,0,0,1-.54.11c-4-.37-28.46-3-35.46-10C66.53,162.24,79.06,162.21,81.94,164.89Z"/><path class="cls-11" d="M66.53,162.24S68,175.49,78,178.52s24.48-6.34,24.48-6.34-15,3.17-21.74,1.15a17,17,0,0,1-9.72-8.07Z"/><path class="cls-12" d="M76.3,154.05c-1.06-1.06.64-2.76,2.66-1.49s2.23,2.55,2.23,2.55"/><path class="cls-12" d="M88.63,158.18c2.76-1.36,6.48-2,7.65-.72.64.72,0,.72,0,.72"/><path class="cls-13" d="M82.73,156.74s-.25,0,1.13.72a5.27,5.27,0,0,0,2.39.72"/><path class="cls-13" d="M98.46,152.16c.6,1.06,1.9,5.66-.37,5.83-.5,0-.15.39.2.36,2.8-.21,1.75-4.78.89-6.3-.12-.22-.86-.14-.72.1Z"/><path class="cls-8" d="M101.24,166.11c1.76,3.79,2.59,3.55,3.31,4.57a3.27,3.27,0,0,1-.93,4.65c.1,1.14.2,1,.6,1s5.67-7.14,3.44-10.18a5.89,5.89,0,0,1-2.93-5.27c-.13-2.79-2.92-7.43-5-8.26,1,4.88.51,5.6.51,5.6s.93.16,1,2.66S100.74,165,101.24,166.11Z"/><path class="cls-8" d="M64.56,156.74a4.29,4.29,0,0,0-2.49,5.5s.44,1.08,1.12.89-.32-3.74,2-5C65.16,158.18,65.75,156.72,64.56,156.74Z"/><path class="cls-14" d="M117.67,136.54a15.79,15.79,0,0,1,2.89,2.69s.92.69,1.27-.08c0,0-4.39-4.77-7.4-5.42C114.43,133.73,116.25,135.38,117.67,136.54Z"/><path class="cls-14" d="M65.31,125.08C70.35,120.76,76,124,76,124s-7.1-2.41-10.67,2Z"/><path class="cls-14" d="M84.47,122.66a2.65,2.65,0,0,0-.37-3.52"/><path class="cls-14" d="M82.68,122.64a5.84,5.84,0,0,0-.22-4.86"/><path class="cls-14" d="M81.24,122.17a5.76,5.76,0,0,0-.82-5.46"/><path class="cls-14" d="M80.09,121.41c.7-.69.49-1.84.2-2.78a8,8,0,0,0-1-2.39"/><path class="cls-14" d="M79.14,120.92a6.57,6.57,0,0,0-1.6-5.46"/><path class="cls-14" d="M77.75,120.28a26.73,26.73,0,0,0-.88-5.31c-.07-.26-.3-.58-.52-.43"/><path class="cls-14" d="M76.83,119.44a.79.79,0,0,1-.35-.54c-.24-.85-.27-1.74-.43-2.61A3.93,3.93,0,0,0,74.9,114"/><path class="cls-14" d="M75.14,118.18l-.67-2.39c-.24-.85-.57-1.8-1.39-2.12"/><path class="cls-14" d="M73.67,117.17l-.85-2.38a1.33,1.33,0,0,0-.25-.48c-.37-.39-1.14-.29-1.35-.78"/><path class="cls-14" d="M71.85,115.14a3.12,3.12,0,0,0-2.65-1.38"/><path class="cls-14" d="M69.45,115.28a6.83,6.83,0,0,0-3.5-1.2"/><path class="cls-14" d="M69.71,114.77l-2.88-1"/><path class="cls-14" d="M66.45,115.17a3.53,3.53,0,0,0-2.73,1"/><path class="cls-14" d="M101.07,128.68a6.43,6.43,0,0,1,.22-2.46,3,3,0,0,1,1.57-1.83"/><path class="cls-14" d="M102.12,128.47l.74-2.15c.27-.77.69-1.67,1.5-1.75"/><path class="cls-14" d="M103.29,128.8A9.28,9.28,0,0,1,106,124.2"/><path class="cls-14" d="M104.63,128.37a29.64,29.64,0,0,1,2-3.78,2.73,2.73,0,0,1,.76-.89,1,1,0,0,1,1.11,0"/><path class="cls-14" d="M106.29,128l2.51-3.58a1.88,1.88,0,0,1,.68-.68.65.65,0,0,1,.85.22"/><path class="cls-14" d="M107.92,128a13.11,13.11,0,0,0,2.44-2.7,6.56,6.56,0,0,1,.64-.87,2.2,2.2,0,0,1,1.26-.68"/><path class="cls-14" d="M110.57,127.35l2.14-2.78c.44-.57,1.12-1.2,1.77-.88"/><path class="cls-14" d="M112.73,127.4a5.49,5.49,0,0,0,1.58-2.22,2.36,2.36,0,0,1,.22-.48,1.94,1.94,0,0,1,.44-.42l1.27-1"/><path class="cls-14" d="M115,126.79a2.81,2.81,0,0,1,2.84-2.5"/><path class="cls-14" d="M116.16,126.81a4.09,4.09,0,0,1,3.09-2"/><path class="cls-14" d="M118,126.89a5.75,5.75,0,0,1,3-1"/><path class="cls-14" d="M119.33,127.86a2.59,2.59,0,0,1,2.81-.46"/><path class="cls-14" d="M120.72,128.57a3.52,3.52,0,0,1,2.78.11"/><path class="cls-14" d="M122.38,129.66a4.86,4.86,0,0,1,1.88.25"/><path class="cls-14" d="M123.76,131.17a1.54,1.54,0,0,1,1.26.36"/><path class="cls-14" d="M125.65,132.76l.62.27"/><path class="cls-13" d="M91.11,152.11c-.39-4.82,3.69-18.38,3.69-18.38s-.77-.46-1,0-4.94,9.88-4.87,18.38C88.94,152.11,90.22,153,91.11,152.11Z"/><path class="cls-8" d="M77.34,194.72a8.35,8.35,0,0,1-1.08-.08,20,20,0,0,0,9.11,4c15.51-3.62,28.92-13.11,32.09-20.29l-.19,0C110.6,186,98.41,194.72,77.34,194.72Z"/><path class="cls-14" d="M79.34,129.2a9,9,0,0,0-6.2-3.62l-.72,0c-2.31,2.12-.68,5.13.05,6.24a10.92,10.92,0,0,0,2.75.91C76.91,132.83,78.4,132.11,79.34,129.2Z"/><path class="cls-14" d="M113.1,136.46a7.77,7.77,0,0,0-4.8-.39,3.53,3.53,0,0,0-1.33,5.3,19.52,19.52,0,0,0,2.33,1,15.35,15.35,0,0,0,3-.1A3.77,3.77,0,0,0,113.1,136.46Z"/><path class="cls-10" d="M74.15,127.75a1.34,1.34,0,0,0-.21.71c.06.27.53.21.53.21s.39-.59.27-.62S74.33,127.72,74.15,127.75Z"/><path class="cls-10" d="M75.46,128.66c-.23.1.15.37.37.34C75.83,129,75.94,128.46,75.46,128.66Z"/><path class="cls-10" d="M110.68,138a1.73,1.73,0,0,0-1-.1c-.33.14-.14.73-.14.73s.85.35.86.19S110.76,138.18,110.68,138Z"/><path class="cls-8" d="M78,178.52A13.11,13.11,0,0,1,74.74,177,7.48,7.48,0,0,0,79,180.17c6.25.36,7.45-.6,7.45-.6L85,179A17.24,17.24,0,0,1,78,178.52Z"/><path class="cls-8" d="M79.27,133.16a11.24,11.24,0,0,1-8-1.08A7.69,7.69,0,0,1,69.68,131c-.08.24-1.18,3.6,2.21,4.81s6.57,1.17,9.31-2.08C80.68,133.83,80,133.44,79.27,133.16Z"/><path class="cls-8" d="M102.69,139.91a2.34,2.34,0,0,1,.57-.05,2,2,0,0,0-.36-1.38l-1.29.75S100.93,140.31,102.69,139.91Z"/><path class="cls-8" d="M81.19,133.7c.21-.06.15-.68-.17-1.56a2.32,2.32,0,0,0-1.16,1.26A2.26,2.26,0,0,0,81.19,133.7Z"/><rect class="cls-4" x="128.22" y="163.27" width="0.97" height="24.04" rx="0.45" ry="0.45"/><path class="cls-15" d="M73.66,147c-.3,1-3.71,3.66-6.75,2.8s-4.68-4.44-4.25-5.94c.38-1.33,3.71-3.66,6.75-2.8S73.9,146.1,73.66,147Z"/><path class="cls-15" d="M121.74,153.9c.2,1.05-1.68,4.94-4.78,5.52s-6.17-1.87-6.46-3.41c-.25-1.36,1.68-4.94,4.78-5.52S121.58,153,121.74,153.9Z"/><g class="cls-16"><path class="cls-3" d="M63.65,117.24c2.48-2.09,6.61-1,9.26.28s4.46,3.86,7,5.32c2.77,1.58,4.31-.09,5.47-2.56,0,0,.19-.39.09-.47a31.36,31.36,0,0,0-14.34-6.45l-1.72,2.46c4.67.79,8.53,3.87,11.56,7.37.12.14,2.12-2,1.72-2.46-3-3.5-6.89-6.58-11.56-7.37-.72-.12-1.74,2.45-1.72,2.46a31.14,31.14,0,0,1,10,3.45c.43.24,3.62,2.5,3.62,1.84a39.66,39.66,0,0,1-3.45-2.57c-3.44-3-10.29-7.25-14.65-3.57-.47.4-1.59,2.57-1.25,2.28Z"/></g><g class="cls-16"><path class="cls-3" d="M126.49,133.75c-1.19-4.89-4.63-7.5-9.11-9.35-3.54-1.46-17.88-4-17.21,2.93.06.62,1.2,2.4,2,2.19a38.49,38.49,0,0,1,22.06-.19L122.51,127c-3.76-.46-6.68-3.17-10.47-3.54-3.48-.34-7.85.32-10.8,2.28-.44.3,1.29,2.44,1.81,2.33,3.06-.66,10.76-3.88,13.56-1.42,1.42,1.25.1-1.15-.43-1.62-3.83-3.37-10.5-.25-14.83.68l1.81,2.33a16.94,16.94,0,0,1,13.46-1.54c2.63,1,4.73,2.52,7.58,2.86.37,0-1-2.18-1.69-2.36a39.19,39.19,0,0,0-22.29.25l2,2.19c-.74-7.54,20.56-4.55,22.31,2.62.16.64,2.16,2.43,2,1.72Z"/></g><path class="cls-17" d="M25,31.84a3.53,3.53,0,0,0,3.68,3.38,3.34,3.34,0,1,0,0-6.68,4.19,4.19,0,0,0-3,1.18c-.86-.33-1.59-.66-2.42-1l2.12-8.12H34v2.27H27L25.8,27.6a4.58,4.58,0,0,1,3.33-1.21,5.18,5.18,0,0,1,5.54,5.42c0,3.08-2.37,5.57-6,5.57-3.48,0-5.82-2.27-6-4.84Z"/><path class="cls-17" d="M172.32,238a3.53,3.53,0,0,0-3.68-3.38,3.34,3.34,0,1,0,0,6.68,4.18,4.18,0,0,0,3-1.18c.86.33,1.59.66,2.42,1l-2.12,8.12h-8.62v-2.27h7l1.21-4.69a4.58,4.58,0,0,1-3.33,1.21,5.18,5.18,0,0,1-5.55-5.42c0-3.07,2.37-5.57,6-5.57,3.48,0,5.82,2.27,6.05,4.84Z"/><path class="cls-17" d="M36.13,52.74,29.31,41.88a.78.78,0,0,0-1.31,0L21.16,52.74a.78.78,0,0,0,0,.83L28,64.43a.78.78,0,0,0,1.31,0l6.83-10.87A.78.78,0,0,0,36.13,52.74Z"/><path class="cls-17" d="M176,216.68l-6.83-10.87a.78.78,0,0,0-1.31,0L161,216.68a.78.78,0,0,0,0,.83l6.83,10.87a.78.78,0,0,0,1.31,0L176,217.51A.78.78,0,0,0,176,216.68Z"/></svg>