<?xml version="1.0" encoding="utf-8"?>
<!-- Generator: Adobe Illustrator 19.1.0, SVG Export Plug-In . SVG Version: 6.00 Build 0)  -->
<svg version="1.1" id="Layer_1" xmlns="http://www.w3.org/2000/svg" xmlns:xlink="http://www.w3.org/1999/xlink" x="0px" y="0px"
	 viewBox="0 0 215 326.9" style="enable-background:new 0 0 215 326.9;" xml:space="preserve">
<style type="text/css">
	.st0{fill:#F1CAB1;}
	.st1{fill:#CFAE9A;}
	.st2{fill:#512C1D;}
	.st3{fill:#F4CEB3;}
	.st4{fill:#EBF4F0;}
	.st5{fill:#D9A488;}
	.st6{fill:#EEBDA6;}
	.st7{fill:#DB908D;}
	.st8{fill:#F7E8D7;}
	.st9{fill:#6B3720;}
	.st10{fill:none;stroke:#D39C82;stroke-width:0.5;stroke-linecap:round;stroke-miterlimit:10;}
	.st11{fill:#EBC7AE;}
	.st12{fill:#CDA18B;}
	.st13{opacity:0.15;}
	.st14{clip-path:url(#SVGID_2_);fill:#381C15;}
	.st15{clip-path:url(#SVGID_4_);fill:#381C15;}
	.st16{fill:#60513B;}
	.st17{fill:#201010;}
	.st18{fill:#DBA48B;}
	.st19{fill:#E8BEA9;}
	.st20{fill:#7C5E52;}
	.st21{fill:#D9B994;}
	.st22{fill:#1D1510;}
</style>
<path class="st0" d="M156.8,157.1c0,0-14.9,49.8,6,70.8c0,16.6-17.6,44.5-44.9,44.5c-27.2,0-36-32.4-36-32.4s17.1-21,5.8-62.3
	C87.8,177.7,132.7,133,156.8,157.1"/>
<path class="st1" d="M121.2,197.5c0,0,8.9,30.1,12.7,47c1,4.5,6.9,5.6,9.4,1.7c5.4-8.1,10.7-19.9,12.8-24.6c0.5-1.2,0.6-2.7,0.1-3.9
	c-1.7-4.4-5.4-15.7-4.1-26.4c0.2-1.6-0.4-3.3-1.6-4.4C142.5,180.1,120.9,193.3,121.2,197.5"/>
<path class="st2" d="M101.9,207.4c16.1,16.1-13.2,64.3-45.5,64.3c-15,0-16.2-10.3-16.2-10.3s4.5-2.5,0.5-17.7
	c-9.2,1.7-6.1-6.2-12-15.5c-4.5,8.2,4.1,21.2,5.8,32.8c1.7,11.5-4.3,7.1-4.3,7.1s2.3,4.3,2-6.1c-0.3-10.4-6.1-9.6-9.8-19.4
	c-2.3,11.6,1.7,16.5,5.2,28.2c-2,2.1-3.4,0-3.4,0C8.7,255.4,20,236,15.5,221.1S6,179.5,6.9,164.9c0.9-14.6,6.3-46.3,11.7-63.9
	C24.1,83.3,30,64.7,49.6,50.1c5.1-11.1,18-17,32.8-14.4c25.2-0.6,44.5,12.4,61.6,38.5c17.1,26.1,29.5,45.7,32.1,62
	c2.6,16.3,14.5,55,20.3,67c5.8,12,5.8,16,6.3,23.2c0.4,7.2-2.5,30,0,31.2c3.8,5.3,5.5,5.1,5.5,5.1s-30.6,0-37.2-17.5
	c-3,2.1-11.2,3.5-13.3,0.3c0,0,11.1,3,9.5-8.5c-1.6-11.5-12.7-8.3-15.7-20.6c-2.6,2-4.6,14.5,2.4,21.2c0,0-8.8-2.4-9.9-23.8
	c0,0-5.6,4.2-5.2,11.1c0.4,6.9,3.2,29.2-10.4,27.4c0,0,12.3,5.9,8.6-29c-3.7-34.9-2.5-34.3,2.4-43.3L92,198.3
	C92,198.3,97.9,204.9,101.9,207.4"/>
<path class="st3" d="M61.7,64.9c30-15.6,46.5,0,55.2,9.4c8.6,9.4,11.3,16.5,15.8,24.8c4.5,8.3,8.8,18,10.6,23.1
	c1.1,3-0.9,45.2-1.4,49.7c-1.4,11-16.3,23.9-29.9,33.6c-13.6,9.7-30.6,9.2-46.9-9.4c-16.3-18.6-16.3-32.2-17.9-35.4
	c-1.6-3.2-5.3-11-6-20.5c-0.7-9.4-2.1-17-2.3-22.5c-1.6-9.9-2.5-26.2,1.6-34C44.5,75.7,54,68.9,61.7,64.9"/>
<path class="st4" d="M90.7,122.2c4.8-6.1,9.7-12.2,22-6.1c0,0-3.5,0.5-5.2,1.3c-1.8,0.7-6.4,4.2-12.3,4.2c-1.5,0.1-2.7,1.4-3.8,2.2
	C90.3,124.6,89.9,123.2,90.7,122.2"/>
<path class="st4" d="M47.1,133.9c4.2-5.8,9.1-9.9,18.9-6.3c1.9,1,1.9,2.6,1.1,2.5c-0.8-0.1-3.2,0.2-4.9,0.5c-1.8,0.4-7,4.3-13.5,3.3
	C47.9,133.6,47.1,133.9,47.1,133.9"/>
<path class="st5" d="M91.5,121.2c-0.3,0.4-0.6,0.7-0.8,1.1c-0.8,1-0.4,2.4,0.7,1.6c0.5-0.4,1.1-0.9,1.7-1.4
	C92.6,121.7,92,121.3,91.5,121.2"/>
<path class="st5" d="M66.2,127.7c-0.5,0.4-1,1.1-0.9,2.4c0.8-0.1,1.5-0.1,1.8-0.1C67.9,130.2,67.9,128.7,66.2,127.7"/>
<path class="st6" d="M98.6,143c14.9,8,17.3,11.1,21.2,15.4c3.9,4.2,2.1,17.2,2.1,17.2s-1.1,2-3,1.5c-1.6-12.7,1.8-15.5-9.9-21.4
	C97.3,149.8,98.6,143,98.6,143"/>
<path class="st6" d="M126.3,151.3c2.4,3.8,4.4,8.7,3.6,12.7C130,164,132.4,156.6,126.3,151.3"/>
<path class="st6" d="M61.4,178.1c0,0-2.3-7.3,1.3-11.3C62.6,166.8,56,169.9,61.4,178.1"/>
<path class="st7" d="M65.3,177.1c10.3-5.8,13.7-8.9,20.5-7.6c0,0,1.7-3.4,18-4l11.8-0.6c0,0,1.2,1.7,0.6,2.8
	c-0.6,1.1-17.9,17.5-26.9,19.2c-9,1.7-16.5-6.6-22.9-7.4C66.5,179.4,64,177.9,65.3,177.1"/>
<path class="st8" d="M68.3,178.1c6-0.3,14.3,1.9,21.2,0c6.8-1.9,18-4.5,25.4-11.4c-5.6,0.1-21,1.8-27,5.7
	C82.4,172.8,76.2,172.3,68.3,178.1"/>
<path class="st9" d="M84.5,156.6c-2.2-0.3,0.6-4.8,8.6-4.3c0.5,0.2-0.4,1.1-0.4,1.1"/>
<path class="st10" d="M94.1,142.5c2.4,1.8,4.1,5.8,2.1,8.9"/>
<path class="st10" d="M69,150.1c-1.1,2.9-1.7,6.6,1.3,7.9"/>
<path class="st6" d="M65.3,115c3,2.2,10.4,3.1,9.4,28.1c0,0-2.4-0.3-2.9-2.3c-0.5-2,2.1-16.8-7-23.2C64.9,117.6,64.2,115.6,65.3,115
	"/>
<path class="st11" d="M143.2,123.5l-0.4,31.2l0.8-1c5.1,0,10.7-1.8,11.5-9c2.4-7.2,1.3-10.7,1.3-10.7S148.4,124.2,143.2,123.5"/>
<path class="st12" d="M146.8,132.3c0.9,3.4,0.7,6,0.3,10.2c-0.4,4.2,0.6,3.3,1.5,2c0.9-1.4,1.5-1.7,1.4-3.6c-0.1-1.9-0.8-4.5-0.9-7
	C149.1,131.3,147.4,129.1,146.8,132.3"/>
<g class="st13">
	<g>
		<defs>
			<rect id="SVGID_1_" x="81.3" y="100.1" width="37.7" height="11.8"/>
		</defs>
		<clipPath id="SVGID_2_">
			<use xlink:href="#SVGID_1_"  style="overflow:visible;"/>
		</clipPath>
		<path class="st14" d="M84.5,111.9c4.8-3.5,9.8-7,15.8-7.4c2.6-0.2,5.1-0.1,7.7-0.6c4.1-0.8,6.9,1.4,10.4,3.4c1.7,1-1-2.4-1.7-2.8
			c-2.3-1.3-5.1-3.5-7.9-4.1c-2.8-0.6-6.7,0.8-9.5,0.8c-7.1,0.2-12.3,3.4-18,7.5C80.9,109,83.8,112.4,84.5,111.9"/>
	</g>
</g>
<g class="st13">
	<g>
		<defs>
			<rect id="SVGID_3_" x="38.6" y="114.3" width="23.8" height="12.8"/>
		</defs>
		<clipPath id="SVGID_4_">
			<use xlink:href="#SVGID_3_"  style="overflow:visible;"/>
		</clipPath>
		<path class="st15" d="M43,125.5c5.1-4.9,11.5-7.6,18.6-8l-3-3.1c1,2.2-2.8,2.1-4.4,2.3c-2,0.3-4,0.4-5.9,0.9
			c-4.2,0.9-6.9,3-9.6,6.3c-0.4,0.5,2.9,3.5,3.1,3.2c2.5-3.1,5-5.3,9-6.2c3.8-0.9,7.8-1.2,11.7-1.7c0,0,0-0.1,0-0.1
			c-0.2-0.6-0.5-1.1-0.7-1.7c-0.3-0.8-2.1-3.2-3-3.1c-7.2,0.4-13.6,3.1-18.8,8C39.5,122.6,42.6,125.9,43,125.5"/>
	</g>
</g>
<path class="st16" d="M96.7,115.9c0,0.2-0.1,0.4-0.1,0.5c0,2,1.1,3.7,2.8,4.6c3.3-0.9,6-2.6,7.5-3.3c0.1-0.4,0.2-0.8,0.2-1.2
	c0-0.9-0.3-1.8-0.7-2.6C102.2,113.1,99.2,114.1,96.7,115.9"/>
<path class="st16" d="M62.3,126.5c-3.9-0.7-6.8,0-9.3,1.5c-0.1,0.3-0.1,0.6-0.1,0.9c0,1.9,1.1,3.6,2.6,4.4c3.2-0.9,5.6-2.5,6.7-2.8
	c0.1,0,0.3-0.1,0.5-0.1c0.2-0.5,0.3-1,0.3-1.5C62.9,128.1,62.7,127.3,62.3,126.5"/>
<path class="st17" d="M103.1,116.7c0,0.9-0.7,1.6-1.6,1.6c-0.9,0-1.6-0.7-1.6-1.6c0-0.9,0.7-1.6,1.6-1.6
	C102.4,115.1,103.1,115.8,103.1,116.7"/>
<path class="st17" d="M59.5,129c0,0.9-0.7,1.6-1.6,1.6c-0.9,0-1.6-0.7-1.6-1.6c0-0.9,0.7-1.6,1.6-1.6
	C58.8,127.4,59.5,128.1,59.5,129"/>
<path class="st12" d="M66,127.6C66,127.6,66,127.6,66,127.6c-1.3-1.9-4.3-4.1-10.8-3.1c-7.5,1-10.4,10.5-10.4,10.5s1.8-0.3,2.3-1.1
	C51.3,128.1,56.2,124,66,127.6"/>
<path class="st12" d="M67.1,130.1"/>
<path class="st12" d="M112.7,116.1c0,0-3.4,0.5-5.2,1.2L112.7,116.1z"/>
<path class="st12" d="M93.1,115c-1.7,2-1.5,6.2-1.5,6.2c4.5-5.7,9.6-10.7,21.1-5c2.1-0.4,2.2-1.5,2.2-1.5
	C103.6,107.3,94.8,113,93.1,115"/>
<path class="st18" d="M114,116.8c4.8-0.4,8.4,1.5,8.4,1.5S118.1,114.7,114,116.8"/>
<path class="st18" d="M45.8,136.2c0,0-2.1,2.1-2.8,3.9C43.1,140.1,43.3,136.8,45.8,136.2"/>
<path class="st18" d="M95.6,125.5c5.6,1.7,13.8-1,17-2.9c0,0,0.2-0.9-0.8-1.1C111.8,121.5,102.7,125,95.6,125.5"/>
<path class="st18" d="M65.3,133.4c-4.7,3.5-10.5,6-14.3,5.6c0,0-1.1-1.8,0-2.2C52.2,136.4,57.3,137.1,65.3,133.4"/>
<path class="st19" d="M74.9,152.3c5.5-1.4,4.6,6.3,7.5,6.7c2.9,0.4,5.3-1,5.3-1s-10.5,4.9-12.7,1C72.6,155.2,74.9,152.3,74.9,152.3"
	/>
<path class="st4" d="M100.6,115.9c0,0,1.3-0.9,1.9,0.4C102.5,116.3,101.1,116.7,100.6,115.9"/>
<path class="st4" d="M56.9,128.2c0,0,1.4-0.8,1.9,0.3C58.9,128.4,57.4,128.9,56.9,128.2"/>
<path class="st20" d="M17.8,150c-2.3,27.3,5.2,74.2,5.2,74.2S7.5,159.9,17.8,150"/>
<path class="st20" d="M130.6,83c7.4,13.8,19.1,44.7,32.4,47.6C162.9,130.6,144.8,130.2,130.6,83"/>
<path class="st21" d="M168.4,146.6c1.8,18.5,6.6,36.7,14.4,53.6c3.8,8.4,9.4,16.3,11.8,25.2c2.6,10.1-0.5,20.3-3.6,30
	c0,0.1,0.2,0.1,0.2,0c2.9-9.1,6-18.7,4-28.3c-1.8-8.8-7.2-16.5-11-24.5c-8.5-17.6-13.7-36.6-15.6-56
	C168.6,146.5,168.3,146.5,168.4,146.6"/>
<path class="st21" d="M191.8,261.1c0.1,0,0.2-0.1,0-0.1C191.7,260.9,191.7,261.1,191.8,261.1"/>
<path class="st21" d="M53.6,69.8c-1.8-6.4-0.2-13.1,3.6-18.5c4.4-6.3,11.3-10,18.8-11.1c16.4-2.4,31.3,6.5,44,15.8
	c0.1,0,0.3,0,0.2-0.1c-13-9.4-28.3-18.6-45.1-15.7c-6.9,1.2-13.3,4.5-17.6,10.1c-4.2,5.5-6.1,12.7-4.2,19.5
	C53.4,69.9,53.7,69.9,53.6,69.8"/>
<path class="st22" d="M82.6,111.9c-0.5-1.7-0.2-3.7,0.8-5.1c0.2-0.2,0.4-0.5,0.7-0.5"/>
<path class="st22" d="M84.9,110.9c-0.1-2.3,0.8-4.5,2.3-6.2"/>
<path class="st22" d="M87.6,109.5c0.2-0.9,0.4-1.8,0.6-2.7c0.1-0.6,0.3-1.2,0.6-1.7c0.3-0.5,0.8-0.9,1.5-1"/>
<path class="st22" d="M90.5,108.7c0.3-0.5,0.6-1,0.8-1.5c0.4-1,0.5-2,0.8-3c0.3-1,0.8-1.9,1.7-2.5"/>
<path class="st22" d="M92.6,108.1c0.3-0.1,0.5-0.5,0.6-0.8c0.9-2.1,1.7-4.4,3.5-5.7"/>
<path class="st22" d="M95.6,106.8c0.5-0.1,0.8-0.6,1-1.1c1-1.9,2-3.8,3.7-5.2"/>
<path class="st22" d="M98.7,106.3c0.5-1,1.1-2,1.6-2.9c0.3-0.5,0.6-1,0.9-1.4c0.6-0.6,1.3-1.1,2.2-1.3"/>
<path class="st22" d="M101.8,104.9c0.3,0.1,0.6-0.1,0.9-0.3c0.8-0.6,1.3-1.5,1.9-2.3c0.6-0.8,1.3-1.6,2.3-1.8"/>
<path class="st22" d="M105.6,103.8c0.9-0.4,1.6-1.1,2.3-1.8c0.3-0.3,0.6-0.7,1-0.9c0.4-0.2,1-0.2,1.2,0.2"/>
<path class="st22" d="M108.7,104.4c0.7-0.5,1.4-1,2-1.6c0.2-0.1,0.4-0.3,0.6-0.4c0.5-0.2,1.1-0.1,1.6,0.1"/>
<path class="st22" d="M111.8,104.2c0.9-0.4,1.8-0.9,2.8-1.3c0.2-0.1,0.6-0.2,0.7,0.1"/>
<path class="st22" d="M114.5,104.9c0.5-0.5,1.2-0.9,1.9-1.1"/>
<path class="st22" d="M116.5,105.8c0.1-0.3,0.6-0.4,0.9-0.2"/>
<path class="st22" d="M62.3,118.7c-1-1.2-2-2.3-3.1-3.5c-0.2-0.2-0.4-0.4-0.6-0.5c-0.3-0.1-0.6,0-0.7,0.3"/>
<path class="st22" d="M59.2,119.3c-1.2-2.1-3.5-3.6-5.9-3.8"/>
<path class="st22" d="M55.2,119.5c-1-1.3-2.3-2.3-3.8-3c-0.4-0.2-0.9-0.3-1.3-0.1"/>
<path class="st22" d="M51.7,120.1c-0.7-1.7-2.5-2.8-4.3-2.7"/>
<path class="st22" d="M49.8,120.7c-0.4-0.6-1.1-1-1.8-1.2c-1-0.4-2-0.6-3-0.9"/>
<path class="st22" d="M46.9,120.8c-1-0.9-2.6-0.9-3.6,0"/>
<path class="st22" d="M44.8,122.1c-1.2-0.5-2.8,0.1-3.4,1.3"/>
<path class="st22" d="M43.1,123.7c-1,0.1-2,0.8-2.4,1.7"/>
<path class="st22" d="M56.4,119.2c-1.3-1.5-2.7-3.1-4.7-3.4"/>
<path class="st22" d="M60.5,118.5c-1-0.6-2-1.4-2.8-2.3c-0.5-0.5-1-1.2-1.8-1.1"/>
</svg>
