<svg id="Layer_1" data-name="Layer 1" xmlns="http://www.w3.org/2000/svg" viewBox="0 0 196 266.67"><defs><style>.cls-1{fill:#f8e4e3;}.cls-2{fill:#be1e2d;}.cls-3{fill:#d39372;}.cls-4{fill:#1d1611;}.cls-5{fill:#413733;}.cls-6{fill:#d8cac6;}.cls-7{fill:#da9f7b;}.cls-8{fill:#6b3720;}.cls-9{fill:#d28867;}.cls-10{fill:#d51c29;}.cls-11{fill:#f5e0cd;}.cls-12{fill:none;}.cls-13{fill:#dcaa8b;}.cls-14{fill:#ebf4f0;}.cls-15{fill:#d39c82;}.cls-16{fill:#231f20;}.cls-17{fill:#e2a57f;}.cls-18{fill:#3e211a;}.cls-19{fill:#381c15;opacity:0.15;}</style></defs><title>badbitchcards</title><rect class="cls-1" x="8.63" y="8.48" width="178.58" height="249.45" rx="8.5" ry="8.5"/><path class="cls-2" d="M24.21,26.35,29,21.92H21.21V19.65H32.3v2.22l-4.66,4.31a4.85,4.85,0,0,1,5,5c0,2.75-2.12,5.24-5.92,5.24s-5.92-2.47-6.08-5.14l2.42-.55a3.53,3.53,0,0,0,3.63,3.53c2.24,0,3.45-1.39,3.45-3a3,3,0,0,0-3.33-3,4.4,4.4,0,0,0-1.44.25Z"/><path class="cls-2" d="M22.71,42.91c2.57,0,3.86,1.22,5.14,3.64,1.28-2.42,2.57-3.63,5.14-3.64a5,5,0,0,1,5.18,4.89c0,4.9-5.15,9.8-10.31,14.71-5.16-4.9-10.32-9.81-10.31-14.71A5,5,0,0,1,22.71,42.91Z"/><path class="cls-2" d="M172.11,241.45l-4.81,4.44h7.81v2.27H164v-2.22l4.66-4.31a4.85,4.85,0,0,1-5-5c0-2.75,2.12-5.24,5.92-5.24s5.92,2.47,6.08,5.14l-2.42.55a3.53,3.53,0,0,0-3.63-3.53c-2.24,0-3.45,1.39-3.45,3a3,3,0,0,0,3.33,3,4.38,4.38,0,0,0,1.44-.25Z"/><path class="cls-2" d="M173.61,224.89c-2.57,0-3.86-1.22-5.14-3.64-1.28,2.42-2.57,3.63-5.14,3.64a5,5,0,0,1-5.18-4.89c0-4.9,5.15-9.8,10.31-14.71,5.16,4.9,10.32,9.81,10.31,14.71A5,5,0,0,1,173.61,224.89Z"/><path class="cls-3" d="M106.51,236.76C78.59,236.76,67,191.34,67,191.34s12.3,2.42,11.11-13.5h0L132.55,163s2.46,22.09,5.12,32.16S117.72,236.76,106.51,236.76Z"/><path class="cls-4" d="M73,63.84c17.33-17.33,61.25-11.36,77.59,21.61s17.73,67.44,9.69,77.63-12.73,17-16.14,16.25-10.42,4-9.73-2.66S78.1,178,78.1,178s-9,5.85-24.48,5.85S37.77,162.52,38.86,155.4s7.29-37.73,8.38-46.11S57.63,72,73,63.84Z"/><path class="cls-5" d="M62,160.11C56.37,173.77,71.44,179,71.44,179S60.14,172.36,62,160.11Z"/><path class="cls-3" d="M63.86,128s-4.65-8.4-5.88-8,2,11.68,1.72,16.61,1.6,15.35,4.11,15.54a6,6,0,0,0,4.29-1.59L63.86,128"/><path class="cls-3" d="M143.88,136s4.44-5.23,5-8.73c3-1.21,1.38,15.84-1.58,19.79s-2.62,6.17-4.4,4.4-2.71-15.65.94-15.45"/><circle class="cls-6" cx="143.88" cy="149.62" r="3.57"/><circle class="cls-6" cx="64.54" cy="150.67" r="3.57"/><path class="cls-4" d="M76.8,171.07a52.68,52.68,0,0,1,.89,5.73c4.44,2.43,11.64,7.58,12.91,9s6.27,3.57,15.58,3.57,13.24-1.07,15.74-3.57,11.47-10.61,12.18-11.69,1.4-6.06,1.4-6.06Z"/><path class="cls-7" d="M74.37,168.14c9.54,11.07,14.88,13.35,20.49,16.16,2.95,2.95,15.44,1.12,21.33,0s9.82-5.61,15.72-11.79c2.53-3.37,13.47-11.51,11.23-30.59,4.49-24.42-6.74-52.48-15.72-58.38s-35-4.47-35-4.47-12.65-.24-20.28,4.77S64.52,112.23,65,115.57c0,0-1.14,11.14-.86,12.53s1.25,6,1.11,7.75,1.52,9.55,1.38,12.87S65.93,161,74.37,168.14Z"/><path class="cls-4" d="M143.88,136a9.44,9.44,0,0,0-4.75-2s1.51-55-27.37-55c0,0,30.11-8.15,41,33.57C152.74,112.6,150,131.18,143.88,136Z"/><path class="cls-5" d="M141.31,112.17a132.41,132.41,0,0,1,1,20.65S140.45,112.86,141.31,112.17Z"/><path class="cls-3" d="M112.1,129.7c9.43,4.44,14.7,4.71,14.7,4.71A17.34,17.34,0,0,1,112.1,129.7Z"/><path class="cls-8" d="M106.82,151.43c1.91-1.81,2.29-2.52,3.06-2.68a20.68,20.68,0,0,1,6.2,0"/><path class="cls-8" d="M94.12,149.82s4.05-.46,5.58,0a6.56,6.56,0,0,1,2.6,1.61"/><path class="cls-9" d="M92.23,141.8c-1,2.52-2.29,6.95.44,8.81.17.12.82,0,.59-.17-2.62-1.79-1.37-6.14-.37-8.55.1-.24-.57-.3-.66-.09Z"/><path class="cls-9" d="M115.15,139.62c2.28.84,1.73,5.53,1.81,7.48,0,.24.69.23.68,0-.09-2.16.5-6.8-2.15-7.77-.24-.09-.76.14-.34.29Z"/><path class="cls-3" d="M68.4,152.12s6.57,3.34,8,10.13Z"/><path class="cls-3" d="M97.63,140.08s.6,4.23,1.57,5.56A4.9,4.9,0,0,1,97.63,140.08Z"/><path class="cls-3" d="M110.57,139.47s.73,4,0,5.32A3.85,3.85,0,0,0,110.57,139.47Z"/><path class="cls-3" d="M94.12,121.35s4.87,1.57,5.08,4.41-2.54,5.1-2.54,5.1S96.91,124.14,94.12,121.35Z"/><path class="cls-10" d="M84.76,158.5c5.88-.7,17.53-1.69,20.12-.7,2.19-.62,8.57-2.39,19.33-1.1-2.18,8.53-10.49,14.82-19.72,14.82S88,164.46,84.76,158.5Z"/><path class="cls-11" d="M86.58,159.08s5.8,7.29,19.11,7.29,15.84-8.67,15.84-8.67-15.89,1.23-17,2.39C102.3,159.58,86.58,159.08,86.58,159.08Z"/><path class="cls-3" d="M129,157.7s-2.76,15.87-10.25,18.43Z"/><path class="cls-12" d="M82.7,160.56c.2.59,5.89,12.82,11.42,17.94"/><path class="cls-13" d="M95,127.69s-3-2-3.59-3c-13.86.14-9.63,0-9.63,0s-7,1.07-8.28,2a1.69,1.69,0,0,0,1.07,1.4c1.07.52,18.1.58,18.1.58S94.76,128.56,95,127.69Z"/><path class="cls-13" d="M116.61,126.1a7,7,0,0,1-2.24,1.59c-.78.13-1.5-1.58-1.37-1.83s4.56-3,5.79-3h10.61a7.57,7.57,0,0,1,4.69,1.92,2.35,2.35,0,0,1-1.85.46C131.1,125,116.61,126.1,116.61,126.1Z"/><path class="cls-14" d="M132.24,125.2s-4.71-2.31-8.4-2.31-7.23,3.21-7.23,3.21.31,1.36.69,1.19c1.35-.62,5.39-.46,7.13-.36A27.87,27.87,0,0,0,132.24,125.2Z"/><path class="cls-14" d="M81.78,124.66a19.38,19.38,0,0,1,10.89,4,57.09,57.09,0,0,0-10,0c-2.4.13-7.62-.26-8.13-.58S78.95,124.66,81.78,124.66Z"/><path class="cls-15" d="M114.37,127.69c.72,1.11,2.92-.4,2.92-.4l-.69-1.19S114.57,126.84,114.37,127.69Z"/><path class="cls-15" d="M93.68,128.66c0,.85-2.54,0-2.54,0s-.12-1,.26-1A3,3,0,0,1,93.68,128.66Z"/><path class="cls-16" d="M89.56,121.63a3.88,3.88,0,0,0-2.48-2.29"/><path class="cls-16" d="M88.73,122.41q-1.45-1.48-3-2.82"/><path class="cls-16" d="M86,122.6a14.94,14.94,0,0,0-2.46-3.26"/><path class="cls-16" d="M83.52,121.5a3.82,3.82,0,0,0-2.78-3.07"/><path class="cls-16" d="M80.35,119.41a3.9,3.9,0,0,0-3.23-1.84"/><path class="cls-16" d="M78.38,119.14a4,4,0,0,0-3.17-1"/><path class="cls-16" d="M75.06,119.6a6.15,6.15,0,0,0-3.8.33"/><path class="cls-16" d="M72.32,121.11a2.8,2.8,0,0,0-3.15.2"/><path class="cls-16" d="M70.79,122a7.25,7.25,0,0,0-2.68.68"/><path class="cls-16" d="M91.24,122.14a3.83,3.83,0,0,0-1.3-2.53"/><path class="cls-16" d="M114,120.5a3.17,3.17,0,0,0,3.94-.72"/><path class="cls-16" d="M114,119.39a3,3,0,0,0,3.65-.86"/><path class="cls-16" d="M119.34,118.55a4.86,4.86,0,0,1,2.57-2.46"/><path class="cls-16" d="M117.55,117.59a4.91,4.91,0,0,1,3.11-1.93"/><path class="cls-16" d="M123.65,116.74a5.68,5.68,0,0,1,4.62-1.69"/><path class="cls-16" d="M123.51,115.49a4,4,0,0,1,2.86-1.36"/><path class="cls-16" d="M128.92,114.45a5.12,5.12,0,0,1,3.46.09"/><path class="cls-16" d="M130.47,115.47a3.89,3.89,0,0,1,3.64.83"/><path class="cls-16" d="M134.6,115.48a4.55,4.55,0,0,0,2.38.08"/><path class="cls-16" d="M135.72,116.42a1.18,1.18,0,0,0,1.25.18"/><path class="cls-16" d="M113.3,118.59a2.56,2.56,0,0,1,2.74-.67"/><path class="cls-17" d="M106.53,145.79a3.11,3.11,0,0,0,3.08-2.76s-3.89-1.13-5.19.16C104.42,143.2,104.91,145.79,106.53,145.79Z"/><path class="cls-18" d="M127.75,123.52a15.06,15.06,0,0,0-3.91-.63,8.51,8.51,0,0,0-3.19.7,8.08,8.08,0,0,0,1,3.25c1.08,0,2.11.06,2.79.1a11.22,11.22,0,0,0,2.28-.24A6.82,6.82,0,0,0,127.75,123.52Z"/><path class="cls-18" d="M79.36,125.16a19.33,19.33,0,0,0,.11,3.47c1.21.06,2.39.07,3.23,0s2.17-.13,3.53-.18a8.81,8.81,0,0,0-.2-3.15,15.39,15.39,0,0,0-4.24-.66A7.7,7.7,0,0,0,79.36,125.16Z"/><circle class="cls-4" cx="123.91" cy="124.09" r="0.92"/><circle class="cls-4" cx="82.8" cy="125.86" r="0.92"/><path class="cls-14" d="M82.26,125.27a10.29,10.29,0,0,1,1.38,1.11s.27-1-.27-1.22A1.22,1.22,0,0,0,82.26,125.27Z"/><path class="cls-14" d="M123.3,123.53a6.19,6.19,0,0,1,1.41.85S125,122.4,123.3,123.53Z"/><path class="cls-19" d="M113.27,119.37c-.46,3.69,3.25.61,3.95-1,0,0,.19-.47,0-.54l-1.38-.58c-.63-.27-2.22,1.85-1.88,2.41,1.36,2.3,3.58.26,4.55-1.21.09-.14.74-1.14.25-1.16l-1.64-.06-1.47,2.4c2.86-1.47,6.08-3.31,9.31-3.73,3.46-.44,6.74.92,9.87,2.22.72.3,2.25-2.26,1.88-2.41-3.18-1.33-6.59-2.74-10.11-2.28s-6.68,2.31-9.66,3.85c-.34.18-2.14,2.38-1.47,2.4l1.64.06.25-1.16c.11-.16-1.38-1.09-1.53-1.35L114,119.64q1.73,1.13,1.23-2.1c.1-.78-1.87,1.14-2,1.82Z"/><path class="cls-19" d="M70.09,122.26c3.23-4.66,10.9-1.61,14.83-.21,2.43.86,4,1.54,5.75-.59.16-.2.93-1.28.52-1.53a8.31,8.31,0,0,0-7.26-.91c-.71.22-2.17,2.71-1.2,2.41a7.5,7.5,0,0,1,6.57.9l.52-1.53c-.14.17-6.3-2.34-7.29-2.63a15.34,15.34,0,0,0-6.23-.71,10.51,10.51,0,0,0-7.54,4.81c-1.19,1.72.6,1,1.31,0Z"/></svg>