<svg id="Layer_1" data-name="Layer 1" xmlns="http://www.w3.org/2000/svg" viewBox="0 0 196 266.67"><defs><style>.cls-1{fill:#f8e4e3;}.cls-2{fill:#231f20;}.cls-3{fill:#010101;}.cls-4{fill:#652e15;}.cls-5{fill:#6c3e1f;}.cls-6{fill:#ebc0a8;}.cls-7{fill:#d0af9b;}.cls-8{fill:#efc7b0;}.cls-9{fill:#8f5f4a;}.cls-10{fill:#381c15;}.cls-11{fill:#622011;}.cls-12{fill:#b86764;}.cls-13{fill:#f8e8d7;}.cls-14{fill:#ebf4f0;}.cls-15{fill:#572000;}.cls-16{fill:#eabba4;}.cls-17{fill:#1d1611;}.cls-18{opacity:0.3;}.cls-19{fill:#512c1d;}</style></defs><title>badbitchcards</title><rect class="cls-1" x="8.63" y="8.48" width="178.58" height="249.45" rx="8.5" ry="8.5"/><path class="cls-2" d="M21.33,37V25.46h-4V23.72a4.08,4.08,0,0,0,4.21-3.07h2.17V37Z"/><path class="cls-2" d="M28.49,22.89a5.72,5.72,0,0,1,5-2.62,5.72,5.72,0,0,1,5,2.62A10.52,10.52,0,0,1,40,28.81a10.52,10.52,0,0,1-1.46,5.92,5.72,5.72,0,0,1-5,2.62,5.72,5.72,0,0,1-5-2.62A10.52,10.52,0,0,1,27,28.81,10.52,10.52,0,0,1,28.49,22.89Zm2.42,11.22a3.71,3.71,0,0,0,5.19,0c1-1,1.44-2.8,1.44-5.29s-.45-4.26-1.44-5.29a3.71,3.71,0,0,0-5.19,0c-1,1-1.44,2.8-1.44,5.29S29.93,33.07,30.91,34.11Z"/><path class="cls-3" d="M33.08,51.55h-.24a5.16,5.16,0,1,0-9.74,0h-.24A5.16,5.16,0,1,0,27,59.82C26.41,62,25.66,64.28,24.85,65h6.24c-.81-.73-1.56-3-2.12-5.19a5.16,5.16,0,1,0,4.11-8.28ZM28.2,55s0,0,0,0Z"/><path class="cls-2" d="M174.1,230.82v11.52h4v1.74a4.08,4.08,0,0,0-4.21,3.08h-2.17V230.82Z"/><path class="cls-2" d="M166.94,244.91a6.11,6.11,0,0,1-10,0,12.73,12.73,0,0,1,0-11.85,6.11,6.11,0,0,1,10,0,12.73,12.73,0,0,1,0,11.85Zm-2.42-11.22a3.71,3.71,0,0,0-5.19,0c-1,1-1.44,2.8-1.44,5.29s.45,4.26,1.44,5.29a3.71,3.71,0,0,0,5.19,0c1-1,1.44-2.8,1.44-5.29S165.51,234.73,164.52,233.69Z"/><path class="cls-3" d="M162.36,216.25h.24a5.16,5.16,0,1,0,9.74,0h.24a5.16,5.16,0,1,0-4.12-8.28c.56-2.18,1.31-4.46,2.12-5.19h-6.24c.81.73,1.56,3,2.12,5.19a5.16,5.16,0,1,0-4.11,8.28Zm4.87-3.45s0,0,0,0Z"/><path class="cls-4" d="M87.27,66s-11.4-2.07-16.36,0S47.59,87.41,44.48,95.17s-1,14.32-3.1,18-8.79.8-12.15,4.19-3.62,12.78-7,15.71-2.33,9.18,1.29,11.75-5.43,6-4.4,10.6S26.9,165.76,30.26,166s.52,1.81,1.29,7,4.65,11.48,8,9.1,11.63,1.09,15.51,0,15.64-5,17.13-8.84-.68,5.68,3.89,4.13,41.1-19.62,45.46-14.59,9.53,13.56,14.18,14.08,11.63-8.53,15-4.65,8.53,8.33,10.86,5.84,6.72,4,8.27,2.43,18.62-11.12,12.93-17.84-6.21-12.49-6.21-16.46-1.29-13.64-6.46-12.68-3.62-4.21-8.79-5.25-6.72-3.36-7.76-9.69-1.81-9.61-6.72-13.27-1.55-7-4.91-10.9S123.41,63.08,103.08,65C103.08,65,91.79,62.85,87.27,66Z"/><path class="cls-5" d="M94.58,82.54s0-8.81,4.28-13.11,23.69,3.77,21.35,9.34a30.55,30.55,0,0,1-5,8.41S96.66,85.11,94.58,82.54Z"/><path class="cls-5" d="M137.64,116.51s5.93-1.45,5.57,3.4-2.66,10.69,0,14.6,5.73,6.6,7.35,6.42c-2.16-3.41-6.83-5.57-6.47-11s2.16-9.51,1.26-11.4S140.87,113.47,137.64,116.51Z"/><path class="cls-5" d="M151.29,147.22s4.5,1.95,2,13.47,9.16,9.16,9.16,9.16-9-1.8-7.19-8.62,2-12.76.36-14S151.29,147.22,151.29,147.22Z"/><path class="cls-5" d="M44.65,124.09c-3.69,3.69,5.5,11.34,0,16.85s-8.36,5.26-8.36,5.26,7.37.32,10.17-3.24,3.21-11.29,1.33-13.59A24.78,24.78,0,0,1,44.65,124.09Z"/><path class="cls-5" d="M50.29,173.68s9.61-1.46,9.61-7.11c0,0,1,10.24-8.36,9.2Z"/><path class="cls-5" d="M87.07,79.88S72.86,61,56.35,91.12c0,0,9-27.63,24.09-19.44S91,88.83,91,88.83l-2.16-1.64-1.8-7.3"/><path class="cls-6" d="M88.88,210.23c-21.72,0-31.45-27.6-31.45-27.6s19.29-6.56,20.05-22.4,34.58-14.23,35.76-2.64,3.24,23.68,7.54,27.3C119.19,193,115.12,209.32,88.88,210.23Z"/><path class="cls-7" d="M74.87,169s10.59,6.69,21-3.71S108.28,152,108.28,152L78,153.71S78.26,163.26,74.87,169Z"/><path class="cls-8" d="M95.49,79.88c-15.87,0-27.21,8-32.27,20.93-1.22,14.83.52,18.32,0,21.11s.7,8.2,1.4,8.9,3.14,10,3.14,14.25c1.06,5.86,3,14.71,9.59,15.41,0,0,5.58,4.19,10.64,4.19,11.16,0,15.35-4,20.41-3.66s10.29-14,10.29-15c-.35-5.58.52-11.51,1.4-12.73s3.49-8.72,3.49-13.78,1.22-29-12.91-35.41A63.78,63.78,0,0,0,95.49,79.88Z"/><path class="cls-9" d="M100.07,117.32s-.45-6.79,6.51-6.79,8.59,7.54,8.59,7.54.39.34-3.54,0S100.07,117.32,100.07,117.32Z"/><path class="cls-9" d="M82.86,117.07s-1.13-7.15-7.6-7.15S67.84,117,67.84,117s-.17.44,1.51,0S82.86,117.07,82.86,117.07Z"/><path class="cls-10" d="M82.86,117.07s-.78-1.78-4.75-3.4c-5.8-2.1-8.76,3.33-8.76,3.33l1.56.38"/><path class="cls-10" d="M111.29,118.06h1.29S111.4,114,105.23,114a6.69,6.69,0,0,0-5.16,3.34C101.82,117.1,111.29,118.06,111.29,118.06Z"/><path class="cls-11" d="M85.27,134.37s-.07-1.71,1.32-1.17,2.28,2.74,2.28,2.74"/><path class="cls-11" d="M96.33,134.51s.11-1-.82-1a6.17,6.17,0,0,0-2.32.82"/><path class="cls-12" d="M77.88,145.8s3.16-6.22,11-3.11c3-.5,7.24-.5,15.3,3.44a36.59,36.59,0,0,1-15.3,3.19c-9.05,0-6.54-1.76-9.64-2.94Z"/><path class="cls-13" d="M98.86,145.92a22.24,22.24,0,0,0-10.65-.35c-3.86-1.65-8.65,0-8.65,0s8.07.56,9.31.62S98.86,145.92,98.86,145.92Z"/><path class="cls-14" d="M100.07,117.32s3.66-2.91,6.73-2.74,4.49,3.49,4.49,3.49a27,27,0,0,1-5.61.5A17.74,17.74,0,0,1,100.07,117.32Z"/><path class="cls-14" d="M82.86,117.07A9.43,9.43,0,0,0,75.13,114c-2.41,0-4.22,3.38-4.22,3.38a26.41,26.41,0,0,0,5.39.61A33.91,33.91,0,0,0,82.86,117.07Z"/><path class="cls-15" d="M75.13,114s-1.89,2.67,1.16,4c3.12-.26,2.84-.22,2.84-.22s1.35-2,.42-3C79.56,114.73,76.72,113.61,75.13,114Z"/><path class="cls-15" d="M103.72,115.2s-.45,2.57,1.09,3.31H108s1.61-1.95.63-3.42A5,5,0,0,0,103.72,115.2Z"/><path class="cls-2" d="M81.68,109a4.91,4.91,0,0,0-1.5-3"/><path class="cls-2" d="M80.44,108.55a1.39,1.39,0,0,0-.23-.66,17.83,17.83,0,0,0-1.5-2.23"/><path class="cls-2" d="M78.48,107.65a4.17,4.17,0,0,0-1.73-2.34"/><path class="cls-2" d="M76.95,107a5.64,5.64,0,0,0-1.69-1.69"/><path class="cls-2" d="M75,106.14a3.21,3.21,0,0,0-1.79-1.21"/><path class="cls-2" d="M73.39,105.9a10.32,10.32,0,0,0-1-.38,2.17,2.17,0,0,0-1.37-.11"/><path class="cls-2" d="M71.84,106.36a4.52,4.52,0,0,0-2.81,0"/><path class="cls-2" d="M70.27,106.85a8.29,8.29,0,0,0-2,0"/><path class="cls-2" d="M68.9,107.83a3.41,3.41,0,0,0-1.71.63"/><path class="cls-2" d="M67.84,109.31c-.44,0-.8.34-1.09.67l-.47.54"/><path class="cls-2" d="M67.32,110.54a3,3,0,0,0-1.26,1.39"/><path class="cls-2" d="M66.9,112a2,2,0,0,0-.74,1.1"/><path class="cls-2" d="M100.2,108.86a3,3,0,0,1,1.67-2.14"/><path class="cls-2" d="M101.24,108.82a12.71,12.71,0,0,1,1.88-2.3"/><path class="cls-2" d="M103.08,108.08a3.82,3.82,0,0,1,1.71-2.15"/><path class="cls-2" d="M104.56,107.25a5.11,5.11,0,0,1,2.28-1.81"/><path class="cls-2" d="M106.58,106.7A7.55,7.55,0,0,1,109,105"/><path class="cls-2" d="M108.25,106.37a12.51,12.51,0,0,1,1.15-.82,2.9,2.9,0,0,1,1.32-.53"/><path class="cls-2" d="M109.58,106.31a6.11,6.11,0,0,1,3.1-1"/><path class="cls-2" d="M111.17,106.38a2.76,2.76,0,0,1,2.06-.52,1.4,1.4,0,0,1,.71.29"/><path class="cls-2" d="M112.4,106.54a3.34,3.34,0,0,1,1.5.14,3,3,0,0,1,1.32.58"/><path class="cls-2" d="M114,107.3q1.17.8,2.42,1.5"/><path class="cls-2" d="M115.09,108.86a2.71,2.71,0,0,0,1.61.69"/><path class="cls-16" d="M87.73,117.2s1.36,3,1.13,4.49-1.48,4.24-1.48,6a19.37,19.37,0,0,1-.32,3.33s-1.77-2.43-1.35-4.17,1.86-4.65,1.55-5.83S86.34,117.71,87.73,117.2Z"/><path class="cls-16" d="M78.7,109.92s8.36.63,8.36,6.65l-1,.43S86.13,113,78.7,109.92Z"/><path class="cls-16" d="M95.65,117.2s.42-6.66,7.43-6.66C103.08,110.54,97.38,111.6,95.65,117.2Z"/><circle class="cls-17" cx="77.5" cy="115.55" r="0.98"/><circle class="cls-17" cx="106.63" cy="116.24" r="0.96"/><path class="cls-14" d="M77.64,114.57c-.52.62.26,1.71.46,1.72C78.11,116.29,79.15,115.25,77.64,114.57Z"/><path class="cls-14" d="M106.63,115.28c-.62,1,.7,1.59.7,1.59A1,1,0,0,0,106.63,115.28Z"/><g class="cls-18"><path class="cls-19" d="M100.63,109.58a15.53,15.53,0,0,1,8.87-3c2.76.09,4.71,1.88,6.69,3.64.48.42.83-1.68.28-2.17-2-1.8-4.12-3.71-7-3.72a16.65,16.65,0,0,0-9.14,3c-.6.4-.32,2.57.28,2.17Z"/></g><g class="cls-18"><path class="cls-19" d="M81.11,106.92c-2.48-1.86-6.79-3.2-9.8-2.21S67.1,108.59,66,111.2c-.2.47.11,2.62.55,1.59,1.21-2.84,2.71-5.71,6.12-6.1a12.92,12.92,0,0,1,8.25,2.4c.37.28.71-1.79.21-2.17Z"/></g></svg>