<svg id="Layer_1" data-name="Layer 1" xmlns="http://www.w3.org/2000/svg" viewBox="0 0 196 266.67"><defs><style>.cls-1{fill:#f8e4e3;}.cls-2{fill:#231f20;}.cls-3{fill:#010101;}.cls-4{fill:#dfb28b;}.cls-5{fill:#d4aa85;}.cls-6{fill:#e7d8c3;}.cls-7{fill:#786453;}.cls-8{fill:#f8e4d2;}.cls-9{fill:#eec5a6;}.cls-10{fill:#443123;opacity:0.07;}.cls-11{fill:#f0d0b4;}.cls-12{fill:#381c15;}.cls-13{fill:#da6664;}.cls-14{fill:#d4aa86;}.cls-15{fill:#ebf4f0;}.cls-16{fill:#7ba29e;}.cls-17{fill:#1d1611;}.cls-18{fill:#6b3720;}.cls-19{fill:#e4b69d;}.cls-20{fill:#f8e8d7;}.cls-21{fill:#d39c82;}.cls-22{fill:#df897d;}.cls-23{opacity:0.08;}</style></defs><title>badbitchcards</title><rect class="cls-1" x="8.63" y="8.48" width="178.58" height="249.45" rx="8.5" ry="8.5"/><path class="cls-2" d="M24,34.36a6.33,6.33,0,0,0,3,.78c4,0,5.57-2.6,5.67-5.8a4.61,4.61,0,0,1-4.24,2.09,5.41,5.41,0,0,1-5.65-5.52,5.76,5.76,0,0,1,6-5.65c3.2,0,6.35,2.29,6.35,7.51,0,6-2.67,9.58-8.17,9.58a7.91,7.91,0,0,1-3.78-1Zm4.79-11.92a3.4,3.4,0,0,0-3.53,3.43,3.35,3.35,0,0,0,3.53,3.45,3.44,3.44,0,1,0,0-6.88Z"/><path class="cls-3" d="M28.85,41.91c4.64,4.41,9.27,8.82,9.27,13.22a4.53,4.53,0,0,1-4.65,4.39c-2.12,0-3.27-.92-4.34-2.76,1.07,3.82,2.22,5.74,4.34,5.74H24.23c2.12,0,3.27-1.92,4.34-5.74-1.07,1.84-2.22,2.76-4.34,2.76a4.53,4.53,0,0,1-4.65-4.39C19.57,50.73,24.21,46.32,28.85,41.91Z"/><path class="cls-2" d="M174.28,235.45a6.32,6.32,0,0,0-3-.78c-4,0-5.57,2.6-5.67,5.8a4.61,4.61,0,0,1,4.23-2.09,5.41,5.41,0,0,1,5.65,5.52,5.75,5.75,0,0,1-6,5.65c-3.2,0-6.35-2.29-6.35-7.51,0-6,2.67-9.58,8.17-9.58a7.92,7.92,0,0,1,3.78,1Zm-4.79,11.92a3.4,3.4,0,0,0,3.53-3.43,3.35,3.35,0,0,0-3.53-3.45,3.44,3.44,0,1,0,0,6.88Z"/><path class="cls-3" d="M167.42,227.89c-4.64-4.41-9.27-8.82-9.27-13.22a4.53,4.53,0,0,1,4.65-4.39c2.12,0,3.27.92,4.34,2.76-1.07-3.82-2.22-5.74-4.34-5.74H172c-2.12,0-3.27,1.92-4.34,5.74,1.07-1.84,2.22-2.76,4.34-2.76a4.53,4.53,0,0,1,4.65,4.39C176.7,219.07,172.06,223.48,167.42,227.89Z"/><path class="cls-4" d="M85.55,54.37S92,45.44,98.19,45.44s11.15,5.75,20.71,5.75,12.93,9.52,12.93,9.52L49.34,84.62l-3.69,26.6s-11.33-1.5-11.33-11.33a13.25,13.25,0,0,1,8.83-12.6s-2.38-7.14,0-12.3,5.16-4.89,5.16-4.89S51.59,48.16,75,53.57Z"/><path class="cls-4" d="M156,90.67s10.23,4.1,11.74,10.08-2.86,12.21-.53,21.48-6.08,14.86-6.08,14.86L117.82,62.93,91.13,65.84s-1.3-11.35,8.22-13.74a13.25,13.25,0,0,1,14.37,5.5s6.35-4,11.93-3,6,3.81,6,3.81,22.08,2,22.55,21.88Z"/><path class="cls-5" d="M58.2,151.45l-4.11,0c-22.53,0-10.24-32.88-10.24-32.88-12.13,0-6.56-9.36-6.56-9.36,0,12.45,13.52,7.22,8.36,2.06s-3.2-8.61-3.2-8.61c-8.85-17,6.88-18,6.88-18,.25-10.86,10.18-8.81,10.18-8.81,5.26-15,20-4.92,20-4.92,8.26-4.67,9.4,0,9.4,0,4.38-16,24.45-11.06,24.45-11.06,5.61-2.8,10.24-2.9,14-1.59C137.13,61.66,141,74.67,141,74.67c11.31-2.13,14.62,11.22,14.62,11.22,6.27,12.29-.12,18.62-.12,18.62s12.58,26.86,5.17,32.86c0,0,12,17.86-18.7,17.86s-83.81-3.78-83.81-3.78"/><path class="cls-6" d="M82.18,77.73c1.92.51,3.76,1.61,5.8,1.16a7.47,7.47,0,0,0,3.87-2.64c4-4.57,6.22-10.62,12.78-12.1,7.45-1.68,14.05,3.64,17.49,9.78,1.69,3,2.9,7.32-.11,10-4.06,3.56-7.88-2.57-4.54-5.4.17-.14-.31-.23-.43-.13-3.14,2.66-.44,7.91,3.56,6.7,3.25-1,4.22-4.57,3.52-7.55-.8-3.39-3.17-6.68-5.64-9.08C114,64.11,107.23,62,101.47,65a20.57,20.57,0,0,0-7.21,7A32.21,32.21,0,0,1,91,76.65a5.35,5.35,0,0,1-5.66,1.82c-1-.22-1.89-.7-2.86-1-.18,0-.57.13-.25.22Z"/><path class="cls-6" d="M51.73,115.45c-.32,8.26-12.16,15.82-7.11,24.33,1.49,2.52,5.21,5.23,8.29,3.83,2.23-1,1.82-4.44-.76-4.23-.34,0-.1.26.13.24,1.28-.1,1.71,1.22,1.65,2.16-.27,4.47-5.9,1.06-7,.07a8.32,8.32,0,0,1-2.69-4.4c-.7-2.89.25-5.69,1.63-8.23,2.42-4.46,6.2-8.45,6.4-13.77,0-.17-.49-.18-.5,0Z"/><path class="cls-6" d="M60,62.83a3.48,3.48,0,0,1-.52,3c-1.22,1.74-4.35,1.82-5.85.42a6.28,6.28,0,0,1-1.43-6.58,10.64,10.64,0,0,1,3.74-5.14c3.41-2.53,7-1.21,10.39.49,3.55,1.8,10.69,4.24,12-1.7,0-.15-.46-.18-.5,0-.6,2.73-3.23,3.75-5.86,3.56-2-.14-3.91-1.36-5.67-2.24a14.66,14.66,0,0,0-5.64-1.87c-4.08-.22-7.7,3.1-8.92,6.84-1,3.15.25,7.29,3.84,8a4.12,4.12,0,0,0,4.94-4.82c0-.18-.54-.15-.5,0Z"/><path class="cls-6" d="M132.53,58.17a4.39,4.39,0,0,0,2.9,4.65c3.22,1.44,7,.27,10.36,1.48,3.55,1.29,7.34,4.6,7.17,8.73-.11,2.63-3,6.58-6.15,4.29a3.39,3.39,0,0,1-.75-4.95c.15-.17-.33-.25-.43-.13A3.69,3.69,0,0,0,147.4,78c2.66.83,5.33-1.42,5.92-3.93,1-4.14-2.66-7.9-6.09-9.53a13.94,13.94,0,0,0-5.26-1.3c-3.36-.2-9.74-.06-9-5.1,0-.16-.47-.18-.5,0Z"/><path class="cls-6" d="M158.6,93.93c6.25,3,2.93,11,1.82,15.93-.81,3.62-.54,9,3.55,10.56,3,1.2,3.36-2,1.72-4s-3.6.41-2.23,1c.14.06.61-.07.35-.18q1-2.15,1.74-.24l.27.52a4.42,4.42,0,0,1,.45,1.67l-2.52.75c-1.39-.28-2.45-2.62-2.83-3.82-1.11-3.49.19-7,1.1-10.34,1.13-4.18,1.52-9.82-3.07-12.06-.14-.07-.6.06-.35.18Z"/><path class="cls-7" d="M110.94,66.8c1.22-1.52,5.41,2,6.25,2.82a19.66,19.66,0,0,1,5,10.38c.09.9.15,2.24-.5,3q-4.6.87-3.61-2a2.2,2.2,0,0,1,1.51-1.36c.31-.11-.08-.28-.25-.22-2.27.84-2.65,4,0,4.69,3.06.75,3.65-2.82,3.21-5a18.45,18.45,0,0,0-5.7-10.24c-1.17-1-5-3.81-6.42-2.07-.1.13.37.2.48.07Z"/><path class="cls-7" d="M139.37,64.47c2.21,1.85,4.92,1.21,7.58,1.51A5.56,5.56,0,0,1,152,69.85a6,6,0,0,1,.24,2.77,4.94,4.94,0,0,1-.51,1.57q-.7,1.72-2.68-.55c.18,0,.57-.14.25-.22-1.48-.38-2.91,1.15-1.55,2.41,1.64,1.52,3.87-.29,4.57-1.83a6.09,6.09,0,0,0-2-7.19c-3.15-2.26-7.56,0-10.56-2.47-.12-.1-.6,0-.43.13Z"/><path class="cls-7" d="M162.79,103.4c-1.59,4.06-7.54,14.68-.78,17.34a3.45,3.45,0,0,0,3.91-.75,2.25,2.25,0,0,0-1.08-3.5c-.17-.07-.56.1-.25.22a2.08,2.08,0,0,1,1.13,2.74c-1.25,3.48-4.74.48-5.49-.78a7,7,0,0,1-.73-4.57c.5-3.63,2.44-7.26,3.77-10.64.07-.18-.42-.22-.48-.07Z"/><path class="cls-7" d="M76.4,55.5c-1.41,3.17-5.34,2.43-7.84,1.07a40.56,40.56,0,0,0-4-2.17,11.28,11.28,0,0,0-6.11-.68c-4.44.76-7.79,4.69-6.72,9.31.65,2.82,4.19,6.13,7.19,4a2.45,2.45,0,0,0,.31-3.75c-1.07-1-1.8-.38-2.7.43-.16.15.31.23.43.13,1.24-1.11,2.52-.12,2.5,1.33,0,3-4.35,2.12-5.74.67a6.69,6.69,0,0,1-1.66-5c.33-5.29,5.76-7.86,10.55-6.77,3.62.82,11.51,7.73,14.3,1.47.08-.17-.41-.22-.48-.07Z"/><path class="cls-7" d="M51.86,114.6c.28,3.34.42,6.79-2,9.47-1.79,2-3.95,3.45-5.29,5.87-2.19,4-1.88,9.34,2.2,12,2.58,1.66,5.86,1.67,5.81-2,0-1.06-.23-2.33-1.42-2.61a1.33,1.33,0,0,0-1.76,1.35c0,.18.52.16.5,0q1.86-1.5,2,.06a2.53,2.53,0,0,1,.18,1.2c.06,1.58-.43,3.06-3.14,2.68-1.8-.25-3.44-2-4.28-3.55-1.73-3.11-1-6.81.8-9.71,1.56-2.48,4.28-3.89,5.79-6.36s1.29-5.55,1.06-8.35c0-.18-.51-.17-.5,0Z"/><path class="cls-8" d="M79.07,78.27c4.53,4.49,9.82,2,12.58-3.11,1.87-3.49,2.87-7.77,6.29-10.17,2.39-1.68,5.76-1.35,7.64-3.79.1-.13-.38-.2-.48-.07-1.69,2.2-4.68,2-6.93,3.26a11.33,11.33,0,0,0-4,4.46c-1.26,2.25-2,4.74-3.36,7a10.25,10.25,0,0,1-3.4,3.65c-2.93,1.8-5.59.94-7.87-1.32-.11-.11-.59,0-.43.13Z"/><path class="cls-8" d="M126.45,88.53a53.37,53.37,0,0,0,8.08,9.07c2.45,2.17,5.35,4.79,8.76,5.14A5.51,5.51,0,0,0,149,99.88c1.2-2.22,2.28-5.71.07-7.62-.12-.1-.6,0-.43.13,2,1.7,1.12,4.67.21,6.72-2.18,4.93-7.42,3.4-10.88.81a51.68,51.68,0,0,1-11-11.46c-.1-.14-.58-.07-.48.07Z"/><path class="cls-8" d="M140.13,102.07a6.69,6.69,0,0,0,7.07,2.43c3.53-.88,5.56-4.21,6.23-7.58,0-.15-.46-.18-.5,0a10,10,0,0,1-3.3,6,6.23,6.23,0,0,1-9-.9c-.1-.14-.58-.07-.48.07Z"/><path class="cls-8" d="M60.35,86.67c-3.1,2.33-7,2-10.48.73C48.42,86.87,47,86,45.36,86.1c-3.83.12-7.44,4.52-8.64,7.82-1,2.75-.82,7.23,2.54,8.32,2.16.7,4.81-.6,4.9-3,0-.17-.49-.18-.5,0-.08,2.11-1.44,2.55-3.35,2.4-1.73-.14-2.27-.27-3-1.79a7.34,7.34,0,0,1-.21-5.5c1.33-4.11,5.75-8.91,10.4-7.55s9,3.25,13.31,0c.17-.13-.31-.22-.43-.13Z"/><path class="cls-8" d="M145.74,140.78c-1.84,3.42-7,16.37,1.35,14.76,2.16-.42,5.47-2.39,4.95-5a2.64,2.64,0,0,0-3.93-1.8c-.24.15.22.26.35.18,2.22-1.38,3.26,1.44,2.94,2.83a4.21,4.21,0,0,1-2,2.49c-2.66,1.81-6.47,1.64-6.45-2.09a24.76,24.76,0,0,1,3.25-11.27c.09-.16-.4-.22-.48-.07Z"/><path class="cls-9" d="M136.41,169.34s-1.25,11.54-1.83,17.91,3.19,20.9,3.19,20.9-8.4,39.63-37.07,39.63-39.26-39.22-39.26-39.22,14.53-15.08,9.81-34.7"/><path class="cls-10" d="M135.27,171.26c.32.79-2.24,28.33-2.56,29s-5.86,4-9.1,7.92a125.31,125.31,0,0,1-10.27,10.18s-19.95-1.76-22.63,0S78,191.3,72.85,189.86c0,0-1-11.07-1-15S135.27,171.26,135.27,171.26Z"/><path class="cls-11" d="M126.37,88.55c1.84,4.48,15.84,12.74,15.84,12.74s-1.42,10.38-2.59,18.29,2.12,16.85,3.54,22.74-1.42,18.63-3.07,21.7a93.1,93.1,0,0,0-5.9,14.62c-1.65,5.42-7.24,16.52-25,17.45-34.63,1.82-43.62-22.16-43.62-22.16-3.63-4.18-7.08-25.61-7.44-29.41s-4-10.89-5.27-16c1.45-4-4.28-53.87,26.14-50.37,13.82,8.71,18.3.28,22-.18s11.24-1,11.63,9.62C114.28,92.78,122.3,93.41,126.37,88.55Z"/><path class="cls-12" d="M61.55,135.43c3.79-3.62,6.86-7.51,14.69-5.1Z"/><path class="cls-12" d="M119.93,121.15s-1.49-2.39-8.5-2.39c-4.21,0-5.61,1.59-7.29,2.71a23.59,23.59,0,0,0-2.62,2Z"/><path class="cls-13" d="M82.24,168.79c7.44-6.52,27.83-10.75,40.5-9.55-2.2,14.05-20.16,32.19-41.42,10.93Z"/><path class="cls-14" d="M95.62,119.46a3.31,3.31,0,0,1-.91-3.78,5.06,5.06,0,0,1,3-2.73"/><path class="cls-14" d="M96.93,118.65a3.45,3.45,0,0,1,.23-2.85A9.55,9.55,0,0,1,99,113.5a2.13,2.13,0,0,1,1.2-.75"/><path class="cls-14" d="M98.87,117.94a12.7,12.7,0,0,1,1.7-4.71,3.71,3.71,0,0,1,2.5-2"/><path class="cls-14" d="M101.52,116.6a8.12,8.12,0,0,0,.66-2.41,7.11,7.11,0,0,1,.83-2.42,3.17,3.17,0,0,1,2-1.51"/><path class="cls-14" d="M104.15,115.68c.6-1.32.39-2.88.85-4.25a4.61,4.61,0,0,1,1.92-2.44.77.77,0,0,1,.65-.15"/><path class="cls-14" d="M106.22,114.75a32.25,32.25,0,0,0,.7-3.3,4.14,4.14,0,0,1,1.77-2.76.5.5,0,0,1,.48-.07"/><path class="cls-14" d="M108.33,113.61a3.94,3.94,0,0,0,1.17-2.46,10.71,10.71,0,0,1,.6-2.71,2.32,2.32,0,0,1,2.15-1.48"/><path class="cls-14" d="M110.67,112.94a2.1,2.1,0,0,0,.36-.65c.44-1.13.5-2.38.92-3.52a3,3,0,0,1,2.58-2.23"/><path class="cls-14" d="M112.54,112.42a3.45,3.45,0,0,0,1-2.06,7.55,7.55,0,0,1,.6-2.25,1.84,1.84,0,0,1,1.9-1.05"/><path class="cls-14" d="M114.4,111.81l1.32-2.32a4.42,4.42,0,0,1,.93-1.25,3.86,3.86,0,0,1,3.28-.45"/><path class="cls-14" d="M116.74,110.39a4.52,4.52,0,0,1,4.32-2"/><path class="cls-14" d="M117.72,110.7a3.79,3.79,0,0,1,2.27-1.24,5.9,5.9,0,0,0,1.79-.3"/><path class="cls-14" d="M116.22,106.12a3,3,0,0,1,2.71.27,7.32,7.32,0,0,0,2.61,1.07"/><path class="cls-14" d="M75.22,123.9a4.33,4.33,0,0,0-1.35-2.07,8.61,8.61,0,0,0-1.77-1.07L70.52,120"/><path class="cls-14" d="M73.53,124.72c-.17-1.39-1.49-2.3-2.68-3L69,120.54"/><path class="cls-14" d="M71.15,124.62a4,4,0,0,0-2.07-2.22,5.19,5.19,0,0,1-2.29-2"/><path class="cls-14" d="M69.82,124.68l-3-2.42c-.55-.44-1.15-1.06-.94-1.73"/><path class="cls-14" d="M67.81,124.65a5.89,5.89,0,0,0-4.37-2.56c-.31,0-.69-.08-.78-.38"/><path class="cls-14" d="M66.23,124.51A12.25,12.25,0,0,0,62,122.86c-.59-.11-1.27-.24-1.55-.77"/><path class="cls-14" d="M64.33,125.74c-.08-.76-.87-1.22-1.57-1.51a20.41,20.41,0,0,0-2.36-.8,2.58,2.58,0,0,1-1.63-.89"/><path class="cls-14" d="M62.95,126.32a3.88,3.88,0,0,0-2.63-2,11.56,11.56,0,0,1-3.19-1.17"/><path class="cls-14" d="M61.2,126.42A5.29,5.29,0,0,0,57.49,125c-.59,0-1.33,0-1.59-.48"/><path class="cls-14" d="M59.61,126.54c-1.24-1-3.4-.1-4.56-1.21"/><path class="cls-14" d="M58.93,127.83l-3.16-.63a3.45,3.45,0,0,1-1.6-.61"/><path class="cls-14" d="M56.26,128.44a2.51,2.51,0,0,1-3-1.43"/><path class="cls-14" d="M76.42,123.45a2.29,2.29,0,0,0-.74-2.21A6.75,6.75,0,0,0,73.57,120"/><path class="cls-15" d="M101.52,123.45c3.38-.81,3.72-2.59,5.21-3.42s9.08-1.51,13.2,1.12c0,0-3-.35-6.55,2.75-4,1.55-7,.06-8.37.84s-3.73,1.51-4,1.2Z"/><path class="cls-16" d="M111.94,124.35c1.45,0,4-2.59,3.75-4.73,0,0-5.85-1-9,.41C106.73,120,108.64,124.24,111.94,124.35Z"/><circle class="cls-17" cx="111.52" cy="120.65" r="1.07"/><path class="cls-15" d="M61.55,135.43c6.16-4.17,5-4.4,7.41-5s8.91,0,8.91,0-5,3.58-8.05,4.28A48.89,48.89,0,0,1,61.55,135.43Z"/><path class="cls-16" d="M69.82,134.73c3.45-1.43,4.19-2.23,3.48-4.52a7.92,7.92,0,0,0-7.47,2.26C65.34,133.11,67.36,135.4,69.82,134.73Z"/><circle class="cls-17" cx="70.06" cy="131.55" r="1.1"/><path class="cls-10" d="M78.59,123.3c3.3.84,6.69,2.49,7.08,10.16s.58,16.1.39,17.95a13.84,13.84,0,0,1-3.7-7.18c0-.78,1.17-.39,1.37-1.94s1.16-8.07-.39-12.23-2.59-4.27-4.75-5.43C77.62,123.3,78.59,123.3,78.59,123.3Z"/><path class="cls-18" d="M98.87,153.63c3.29-4.37,5.35-5.53,7.86-5.72"/><path class="cls-19" d="M105.87,142.75c2.09,1.27,2.34,3.33,1.63,5.5-.12.37.86.44,1,.13.8-2.44.41-4.59-1.89-6-.27-.17-1.19.06-.71.35Z"/><path class="cls-18" d="M82.14,153.93c2.43.29,6.5,2.33,8.44,3.2,4.07.78,5.23,0,5.33-.39"/><path class="cls-19" d="M81.66,148.71a4.85,4.85,0,0,0-.94,3.17,4.8,4.8,0,0,0,.39,2.3c.17.29,1.15.17,1-.13a4.55,4.55,0,0,1-.35-2.16,4.6,4.6,0,0,1,.9-3c.2-.25-.74-.4-1-.13Z"/><path class="cls-10" d="M94.94,157.15a10.69,10.69,0,0,1-9.37.95,8.48,8.48,0,0,1-3.74-3.66,2.31,2.31,0,0,1,.92-.5"/><path class="cls-10" d="M107.56,141.73c6.44,4.18,14,10.93,19.07,12.39-2.75,10-.51,14.7,0,16.13s-3.73-4.67-.65-15.44c-8.86-3.63-18.42-12.23-18.42-12.23Z"/><path class="cls-20" d="M86.13,168.78c6.86-3.08,6.47-2.24,10.59-2.38s10.13-3.36,11.68-3.92,8.14-2.24,10.8-2.24c0,0-6.65,10.3-15.19,13.06A20.81,20.81,0,0,1,85.55,170Z"/><path class="cls-10" d="M109.2,196.09c16-5.29,17-16.22,17.12-16.55s1.29.37,1.29.37c-2.55,8.66-7.66,12-15.69,15.95"/><path class="cls-10" d="M73.57,175.47a7.21,7.21,0,0,1-4.61-6s.16-.94,1.56,0,4.24,3.83,4.51,4.73S73.57,175.47,73.57,175.47Z"/><path class="cls-10" d="M80.57,116.6a52.59,52.59,0,0,0,0,7.3s1.21,1.34,1.26.59.1-6.4-.14-6.55A11.27,11.27,0,0,1,80.57,116.6Z"/><path class="cls-10" d="M89.84,120c2.76,2.51,4.64.69,4.64.69s.77-.69-1.93-.69-3.9-4-4.16-4.28S87.77,118.1,89.84,120Z"/><path class="cls-21" d="M98.87,125.33c.45,1,2.1.61,2.1.61l.55-2.48S99,124,98.87,125.33Z"/><path class="cls-21" d="M80.44,130.2c0,1.68-4,1.35-4,1.35l-.25-1.22S80.28,129.58,80.44,130.2Z"/><path class="cls-9" d="M143.16,142.32c13.16-2.3,5.6-19.25,7.41-30.51-7.41-6.49-8.8-7.3-8.8-7.3s-3.25,16.25-2.18,22.25S143.16,142.32,143.16,142.32Z"/><path class="cls-10" d="M120.57,121.53c2.81,1.15,4,1.44,4,1.95s-.14,1.37-.5,1a12,12,0,0,0-2.6-1.87"/><path class="cls-10" d="M120,122.76c-.34,1,.9,1.84.45,2.63a11.67,11.67,0,0,1-1.82,2.44c-1.1,1.12-3.4,1.1-5.13,1.59a16.42,16.42,0,0,1-3.79.58c-2.65.11-4.76.53-7.67-.36C102,129.65,114.18,128.29,120,122.76Z"/><path class="cls-10" d="M74.11,139.31c-6.39,5-9.54,1.65-10.65,1.25s-.51-1.32-.91-1.52-1.83.1-1.68-1.83C60.87,137.21,67.37,140.91,74.11,139.31Z"/><path class="cls-10" d="M93.57,127.82c1.65,7,4.24,8.43,4.24,8.43s2.7-2,2.13-4c0,0-2.27-.14-2.56-.85S93.57,127.82,93.57,127.82Z"/><path class="cls-10" d="M143.16,142.32c-1.41-5.9-4.72-14.82-3.54-22.74-6.63,2.76-.91,18.13-.91,21.7s.36,9.65,4.29,8.93l.37-.41A24.72,24.72,0,0,0,143.16,142.32Z"/><path class="cls-22" d="M96.75,175.21c-3.1-.27.53,3.56.53,3.56s8,2.67,17.09-5.7c0,0,1.07-2.49-1.07-3.56A21.4,21.4,0,0,1,96.75,175.21Z"/><path class="cls-10" d="M99.91,143.14a19.05,19.05,0,0,0,.94,4.68S97.65,145.45,99.91,143.14Z"/><path class="cls-15" d="M70.06,130.57a1.34,1.34,0,0,0,1.27.34s-.92-1-1.27-.34"/><path class="cls-15" d="M112.13,120a1.79,1.79,0,0,0,1.64.41s-1.18-1.22-1.64-.41"/><g class="cls-23"><path class="cls-12" d="M56.46,130.07c4.53-5.24,14.63-5.86,21-5.71.64,0-1.83-4.66-3.4-4.7-6.48-.16-16.88.51-21.46,5.81-.88,1,3.28,5.27,3.86,4.6Z"/></g><g class="cls-23"><path class="cls-12" d="M94.61,116.52c7.51-1.72,15.42-8.47,23.26-5.58l3.49-4.76a86.38,86.38,0,0,0-13.61,3.54,38,38,0,0,0-5,2.25c-.69.38-4.75,3.51-4.58,1.78l-.91,1.94c-1.25,1.78,3.73-.58,3.69-.55a19.12,19.12,0,0,1,6.76-2.09c1.52-.17,3.66-4.83,3.28-4.78a22.2,22.2,0,0,0-7.39,2.36c-2,1-4.36,1.34-6.1,2.74s-4.15,4.43-2.69,6.52c.16.23.9-.38.92-.4,6.37-5.25,14.44-6.95,22.33-8.54.83-.17,4.25-4.47,3.49-4.76-8.15-3-16,3.76-23.68,5.53-1.56.36-3.48,4.83-3.28,4.78Z"/></g></svg>