<svg id="Layer_1" data-name="Layer 1" xmlns="http://www.w3.org/2000/svg" viewBox="0 0 196 266.67"><defs><style>.cls-1{fill:#f8e4e3;}.cls-2{fill:#f5d8bc;}.cls-3{fill:#807876;opacity:0.23;}.cls-4{fill:#eacfba;}.cls-5{fill:#6b3720;}.cls-6{fill:#f0c8a2;}.cls-7{fill:#f0cfb5;}.cls-8{fill:#fedec7;}.cls-9{fill:#e6a592;}.cls-10{fill:#f5e0cd;}.cls-11{fill:#f7f8f9;}.cls-12{fill:#cad1d3;}.cls-13{fill:#eed1bf;}.cls-14{fill:#1d1611;}.cls-15{fill:#3e3b39;}.cls-16{fill:#cba777;}.cls-17{fill:#daaf6a;}.cls-18{fill:#f1d4b9;}.cls-19{fill:#f4d3be;}.cls-20{fill:#f0cfb6;}.cls-21{fill:#bba4a0;}.cls-22{fill:#ffebc6;}.cls-23{opacity:0.15;}.cls-24{fill:#381c15;}.cls-25{fill:#be1e2d;}</style></defs><title>badbitchcards</title><rect class="cls-1" x="8.63" y="8.48" width="178.58" height="249.45" rx="8.5" ry="8.5"/><path class="cls-2" d="M89.9,205.28c14.19,3.47,24.3-7.06,27.17-9.35s6.69-6.31,9-8.22,8.65-10.52,11.28-18.27c4.6,0,8.93-3.81,11.43-13.27,4.86-7.36,7.62-12.35,7.36-15.11S147,77,147,77H77.58L51.89,111.49s-2.89-2.75-4.27-2.75-5.39,2.29-4.81,11.69,3,15.7,3.21,18.68,2.18,10.32,5.62,10.43,4-2.64,4-2.64-.59,13,.38,15.67,3.29,8.51,4.83,12.37,9.09,20.11,16.63,24C85.8,204.14,89.9,205.28,89.9,205.28Z"/><path class="cls-2" d="M60,168.6s1.23,11.3,1.79,17.54-3.12,20.47-3.12,20.47,8.23,38.81,36.3,38.81S133.46,207,133.46,207s-14.23-14.77-9.6-34"/><path class="cls-3" d="M111.67,131.88a1.81,1.81,0,0,1,1.11-2.42c1.81-.81,6.75-5.84,13.4-2.82S133,135,133,135l-1.11.45s-18.72-3.4-19.56-2.81Z"/><path class="cls-3" d="M73.95,124.18s-1.06-1.59-.74-2.12,5.5-5.19,11.43-3.81,7.2,4.87,8.15,6.77a6.52,6.52,0,0,0,1.69,2.33c.32.42-.37,2.44-1.56,2.07S73.95,124.18,73.95,124.18Z"/><path class="cls-4" d="M75.13,153.85c-.14.33-7.31,2.06-7.31,3s2.74,3.2,4.11,3.54,4.34-5.25,4.91-6.4,5.94-9,11.22-10c0,0,2-1.82,1.32-2.31S79.36,144.09,75.13,153.85Z"/><path class="cls-4" d="M120.78,187.08c6.3-6.79,10.27-9.61,11.6-15.91,0,0,1.82,4.31-5.14,11.27s-8.45,8.62-8.45,8.62Z"/><path class="cls-5" d="M87.52,150.06c1.79.18,5.65.54,8.61,6.19"/><path class="cls-6" d="M96.59,157.63c.89.72,2.44.76,3.52.83a2.67,2.67,0,0,0,2.68-1c.19-.29-.77-.42-1-.13-.49.74-1.28.66-2.06.58a4.66,4.66,0,0,1-2.32-.55c-.24-.2-1.2,0-.86.25Z"/><path class="cls-5" d="M103.38,156.52c1.7-1.26,4.39-3.14,7.8-2.51"/><path class="cls-7" d="M109.48,144a17,17,0,0,1-.59,3.46s1.91-1.1,2.5-1c0,0-.88-1.1-1.18-1C110.22,145.49,110.15,143.8,109.48,144Z"/><path class="cls-8" d="M101.3,140.63c-1.68,3.36-4.21,9.67-4.21,11.14s1.68,4,2.73,3.36,5.16-8.69,4.84-10.93A4.48,4.48,0,0,0,101.3,140.63Z"/><path class="cls-9" d="M93.25,178.64c16,2.07,23.51-5.68,26.62-9.95,0,0-18.48-8.4-22.35-6.07a12.6,12.6,0,0,0-5-1.94c-2.58-.26-15.12-1.29-18.6-.52C73.87,160.17,75.94,176.71,93.25,178.64Z"/><path class="cls-10" d="M74.9,160.94c5.3,0,17.57,4.52,20.16,5.43s9-.9,22.35,2.2a27,27,0,0,1-24,5.3C79.17,170.12,74.9,160.94,74.9,160.94Z"/><path class="cls-11" d="M75.92,123.9c3.36-2.33,10.24-4.72,15.47,3,0,0-.11.91-.51,1.08,0,0-5.29.57-8.25-.34A28.48,28.48,0,0,1,75.92,123.9Z"/><path class="cls-11" d="M114.78,131.73c3.46-2.31,8.81-5.45,15,2.83,0,0-5.35.94-8.49.42a21.08,21.08,0,0,1-6.08-2.2Z"/><path class="cls-12" d="M121.28,135c3.34.82,3.95-.84,4.12-2.2s-.29-3.59-3.77-3.59-3.77,1.59-3.65,3S118.22,134.23,121.28,135Z"/><path class="cls-13" d="M129.78,134.56s-5.35.94-8.49.42a20.8,20.8,0,0,1-5.79-2l-.26.28s4,3.25,7.57,3.25a29.81,29.81,0,0,0,9.11-1Z"/><path class="cls-13" d="M82.64,127.6a28.48,28.48,0,0,1-6.71-3.7L73.7,125S79.8,129.36,83,130s7.63-1.4,7.63-1.4l.22-.69S85.59,128.51,82.64,127.6Z"/><path class="cls-12" d="M83.52,127.77c3,1,4.39-.43,4.7-2.08s.18-3.05-3.05-3.78-4.21.55-4.39,1.89S80.29,126.74,83.52,127.77Z"/><circle class="cls-14" cx="121.76" cy="131.86" r="1.31"/><circle class="cls-14" cx="84.69" cy="124.59" r="1.4"/><path class="cls-11" d="M120.64,131.2l.06,0s1.34.45,1.84-.3l-.12-.22a1.29,1.29,0,0,0-1.78.47Z"/><path class="cls-11" d="M85.74,123.67a1.38,1.38,0,0,0-2.14,0c.1.16.8,1.14,2.16.07Z"/><path class="cls-15" d="M114.78,131.73c3.46-2.31,8.81-5.45,15,2.83,0,0-.51.09-1.3.2l3.45.69s-1.23-4-7.16-6.34S114,131.87,114,131.87l.88.18Z"/><path class="cls-15" d="M75.92,123.9c3.36-2.33,10.24-4.72,15.47,3a3.11,3.11,0,0,1-.11.5l.88.12a13.11,13.11,0,0,0-8.62-6.75c-6.18-1.38-9.94,4.08-9.85,4.23l4.82.66C77,124.73,75.92,123.9,75.92,123.9Z"/><path class="cls-16" d="M69,113.24a3.13,3.13,0,0,1,3.28-.59"/><path class="cls-16" d="M70.84,111.46a2.85,2.85,0,0,1,3,1"/><path class="cls-16" d="M72.59,110.72a2.48,2.48,0,0,1,2.74,1.3"/><path class="cls-16" d="M74.79,109.69a2.87,2.87,0,0,1,2.59,2.17"/><path class="cls-16" d="M76.95,109.49c.36-.31.91,0,1.25.31a5.88,5.88,0,0,1,1.2,1.68"/><path class="cls-16" d="M79,108.94a5.63,5.63,0,0,1,2.35,2.63"/><path class="cls-16" d="M81.32,109.44a6.45,6.45,0,0,1,2.17,3.88"/><path class="cls-16" d="M82.92,109.44a8.49,8.49,0,0,1,2.14,4.17"/><path class="cls-16" d="M85,110.26a5.85,5.85,0,0,1,1.26,3.5"/><path class="cls-16" d="M86.65,110.26a5.31,5.31,0,0,1,1.61,4.53"/><path class="cls-16" d="M88.87,110.82a8.71,8.71,0,0,1,1.2,4.26"/><path class="cls-16" d="M91.13,115.26a4.07,4.07,0,0,0-.68-3.83"/><path class="cls-16" d="M92.37,115.38a7.73,7.73,0,0,0,0-3.09"/><path class="cls-16" d="M93.7,114.94a3.92,3.92,0,0,0,0-2.19"/><path class="cls-16" d="M94.44,115.09a.9.9,0,0,0,.13-.74"/><path class="cls-16" d="M116.17,119.76a3.44,3.44,0,0,1,3-3"/><path class="cls-16" d="M117.38,120a7.39,7.39,0,0,1,3.71-3.54"/><path class="cls-16" d="M119.56,119.79a5.1,5.1,0,0,1,3.15-3.15"/><path class="cls-16" d="M121.33,119.92c1-1.51,2.25-3.18,4.06-3.31"/><path class="cls-16" d="M123.35,119.79a5.27,5.27,0,0,1,3.46-2.89"/><path class="cls-16" d="M125.29,120a4.6,4.6,0,0,1,4-2.62"/><path class="cls-16" d="M127.68,119.91a2.73,2.73,0,0,1,3.12-2"/><path class="cls-16" d="M129,120.23c1.1-.83,2.36-1.7,3.72-1.5"/><path class="cls-16" d="M130.87,120.62a2.28,2.28,0,0,1,3-1.12"/><path class="cls-16" d="M132.83,120.76a4.72,4.72,0,0,1,2.79-.21"/><path class="cls-16" d="M134.48,121.74a5.82,5.82,0,0,1,2.62-.44"/><path class="cls-16" d="M136.06,122.54a2.93,2.93,0,0,1,2.5-.13"/><path class="cls-16" d="M137.73,123.62a1.07,1.07,0,0,1,1.29-.37"/><path class="cls-16" d="M138.7,124.74a1.54,1.54,0,0,1,1-.12"/><path class="cls-16" d="M139.28,125.76a.88.88,0,0,1,.75-.11"/><path class="cls-17" d="M139.89,127l.16-.14"/><path class="cls-6" d="M66.1,119.4s2.44,3.69,5,3.54C71.11,122.94,68.06,123.32,66.1,119.4Z"/><path class="cls-6" d="M70.74,124s-3.66.59-4.69-1.39C66.05,122.57,66.57,124.84,70.74,124Z"/><path class="cls-6" d="M72.47,128.85s-3-1.27-4.85-.21C67.62,128.63,69.19,127.48,72.47,128.85Z"/><path class="cls-6" d="M136.11,135.77s4.09,1.06,6.05-1.82C142.17,134,140.81,137.06,136.11,135.77Z"/><path class="cls-6" d="M135,137.69s7,2.88,9,.58C143.94,138.26,142.33,141,135,137.69Z"/><path class="cls-6" d="M133.58,141.15s6.11,1,6.89,3.62C140.47,144.78,140.72,141.21,133.58,141.15Z"/><path class="cls-18" d="M113.58,134.81a5.31,5.31,0,0,0-.82,2.63s10.34,8,19.7,3.28C132.45,140.72,117.68,141.54,113.58,134.81Z"/><path class="cls-18" d="M91.09,132.34s-.16,3.12-1.15,3-15.43-1.64-17.23-5.42C72.71,129.88,85.35,135,91.09,132.34Z"/><path class="cls-7" d="M112.76,122.17c-2.79,2-7.71,6.07-4.76,14.44a2,2,0,0,0,2.13-.49,9.71,9.71,0,0,1,2.79-11.65S113.74,122.82,112.76,122.17Z"/><path class="cls-7" d="M94.87,120a19.51,19.51,0,0,1,3.28.49c.49.16,2.79,8.37.16,12.31,0,0-2-.66-1.81-1.31S99.63,127.42,94.87,120Z"/><path class="cls-19" d="M59.79,128.61s-3.33,16.93-3.33,22.2a91.7,91.7,0,0,0,.83,11.1s17.48-12.21,20-20.26C77.28,141.66,65.2,123.2,59.79,128.61Z"/><path class="cls-19" d="M141.11,147.21s-2.78,8.6-2.78,11.93-2.78,11.38-2.78,11.38l-9.71-23.59Z"/><path class="cls-6" d="M49.1,126.3c-.49,4.4-.26,9.15,1.88,10.33s0,.47,2.14,1.19,1.65.2,1.48-.24a12.5,12.5,0,0,1-.94-2.89c-.11-1.06.44-5.89,1.22-7.39s.28-3.74-.33-2.87-1.17-1-1.17-1L49.1,126.3"/><path class="cls-6" d="M151.53,143.84c-1.09,1.09-1.31,4.92-2.3,6.89s-4.48,4.59-5.14,5.58,4.88-2.93,5.65-5,2.11-6.83,2.11-6.83Z"/><path class="cls-20" d="M91.67,126.79l1.56,1.6s.18.92-.31,1c0,0-2.29-.26-2.78-1Z"/><path class="cls-20" d="M114.54,131.43l-2.75,1.07s-.3.54,0,.69a30.09,30.09,0,0,0,3.82-.12Z"/><path class="cls-4" d="M89,208.5c17,1.21,32.43-5.62,36.77-14a39.54,39.54,0,0,1-1.34-5.62,83.61,83.61,0,0,1-7.35,7c-2.87,2.29-13,12.83-27.17,9.35,0,0-4.11-1.14-12.42-6.36-7.54-3.87-15.08-20.11-16.63-24a48.25,48.25,0,0,1,1.08,9.41C68.13,197.38,76,207.58,89,208.5Z"/><path class="cls-21" d="M114,167.85a8.56,8.56,0,0,1,1.65,2.1,17.82,17.82,0,0,0,1.79-1.38C116.2,168.28,115.07,168.05,114,167.85Z"/><path class="cls-21" d="M74.9,160.94a14.19,14.19,0,0,0,1.38,2.19,4.3,4.3,0,0,1,1.45-1.9A17.68,17.68,0,0,0,74.9,160.94Z"/><path class="cls-22" d="M138.43,55.92c-3.75-3.19-7.69-4.13-8.63-5.26s-5.44-5.07-7.51-5.07-9.95-4.69-18.2,0c0,0-4.13-1.69-6.19-1.13S91.7,47.28,91,48.79c0,0-5.26-4.69-11.45,2.06,0,0-29.47-2.63-28,37.54,0,0-4.64,17.62-3.92,20.35s-2.46,7.42,1.48,17.56L53,136.43s.19-10.51.38-14.45c0,0,.75,1.5,1.13,2.44s-1.13-8.63,2.06-11.82,7.32-5.44,8.26-8.07L66,108.66c0-.94.38-6.38,2.44-8.26s6-4.88,6-4.88.56,2.82,1.31,3.19,4.5-5.44,5.63-6.38S106,87.26,111.6,81.82c0,0,5.94.85,4.88,2.44-.38.56-13.51,10.7-16.7,10.89L99.59,98s17.08-6.38,22.33-12.39c0,0,8.07,0,9-1.5,0,0,2.63,2.44,4.5,1.31,0,0-9,7.51-4.88,14.45,0,0,2.82-6.57,6.76-7.13,0,0-2.06,15.39.38,18.58,0,0,.75-14.83,2.44-16.7,0,0,1.13,17.45,3.94,24.4s3.94,19.14,2.82,22-3.75,10.13-3.75,10.13l2.06,2.82s4.5-10.89,6-12.2a10.93,10.93,0,0,1,3-1.88,50.11,50.11,0,0,0-1.13,6.57c0,1.69,5.26-5.44,5.82-15s6.57-14.45,1.88-24.77c0,0,4.9-14.62-2.06-21.58-.19-.19-.75-12-9.57-17.64,0,0,7.32,3,9,10.51,0,0,1.88-7.32-10.51-13.7,0,0-.38-3.94-3-4.5C144.63,59.67,140.31,54.42,138.43,55.92Z"/><g class="cls-23"><path class="cls-16" d="M68.64,114.82c4.11-1.2,8.54-3,12.88-2.29,3.76.64,7.32,2.82,10.73,4.43.79.37,3.06-3.41,2.77-3.55-3.86-1.82-7.93-4.37-12.28-4.59-4-.21-7.86,1.34-11.6,2.44-1.15.34-2.39,3.52-2.5,3.55Z"/></g><g class="cls-23"><path class="cls-16" d="M118.15,116.69l-.12-.11-1.76,2.82c1-.87,3.87.28,4.77.75l2.6-3.58a27.58,27.58,0,0,0-5.92.71c-.69.16-3.17,3.45-2.6,3.58,4.37.95,8.53-.51,13,.65,4.27,1.11,8.39,2.6,11.72,5.57.57.51,3.46-2.93,2.77-3.55-3.36-3-7.44-4.4-11.72-5.57s-8.63.3-13-.65l-2.6,3.58a27.58,27.58,0,0,1,5.92-.71c.73,0,3.27-3.24,2.6-3.58-2.39-1.22-4.84-1.42-6.93.39-.43.37-2,2.08-1.76,2.82l.1.28a.19.19,0,0,0,.24.19l.26,0c1.06.09,3.09-3.55,2.43-3.61Z"/></g><g class="cls-23"><path class="cls-24" d="M132.65,76.4c-9.5,2.38-14.24-7.74-13.35-15.63.07-.6-1.27.65-1.28.66a5.86,5.86,0,0,0-1.56,2.34c-2.08,7.58,4.58,15.08,11.94,15.86,1,.11,3-3.53,2.46-3.59-6.78-.72-13.54-7.93-11.6-15l-2.84,3c-.92,8.14,4.07,18.39,13.78,16,.81-.2,1.56-1.31,2-2,.09-.14,1-1.77.47-1.63Z"/></g><g class="cls-23"><path class="cls-24" d="M81.06,82.14l7.21,0c1.44,0,2.86.19,4.14-.56,2.48-1.45,4-4.92,5.34-7.27.93-1.58,2.93-6-1-5.08a5.62,5.62,0,0,0-2.58,1.88c-1.88,2-2.84,4.45-5.39,6-.48.28-3,2.87-2.39,3.46,1.06,1,2.18.33,3.11-.5A11.61,11.61,0,0,0,91.77,77q.26-.9,1.35-.42l1-.23A11.51,11.51,0,0,1,96.24,72L94.47,73a5.76,5.76,0,0,1-1,2.57l1.41-.34L97,71.62l-2.47,2.27A4.59,4.59,0,0,1,94.22,76L96,74.72A6.45,6.45,0,0,1,97,71.56l-2.47,2.27a4.63,4.63,0,0,1-.38,2.61l1.77-1.08,1.24-2.68L95,74.48c0,.95-2.18,1.09-2.77,1.43a7,7,0,0,0-1.54,1.41c-.68.77-2.22,2.64-1.71,3.79,1.51,3.39,5.43-4.42,5.87-5.28l-2.64,2.42a16.16,16.16,0,0,0-.88,3.49l2.88-3.26a4.92,4.92,0,0,1,.44-2.3c.39-1.09-2,1.31-2.13,1.56l-.16.25c-.13.21-1,1.3-.65,1.59l.28.25a.38.38,0,0,0,.38-.09c2.22-1.62,2.87-3.62,3.57-6.18.25-.93-.83.07-1,.23a5.79,5.79,0,0,0-1.76,2.53,25.67,25.67,0,0,1-.84,2.87l2.39-3.06L94.44,76l-.65,1.59.16-.25-2.13,1.56a8.9,8.9,0,0,0-.54,2.8c0,.62,1.38-.8,1.44-.87a5.12,5.12,0,0,0,1.44-2.39,9.7,9.7,0,0,1,.78-3c.32-.84-.69,0-.85.07a6.34,6.34,0,0,0-1.79,2.35,6.47,6.47,0,0,0-.75,1.78q1.38-2.4-.08-1.1-1.43.81.29.27a5.66,5.66,0,0,0,3-1.62,8.52,8.52,0,0,0,3-6c0-.63-2.05,1.63-2.18,1.81a19.83,19.83,0,0,0-2.54,5.08c-.37,1.13,1.64-.91,1.77-1.08,1.52-2,2.59-3.89,2.48-6.47,0-.64-2.31,2-2.47,2.27A12.28,12.28,0,0,0,93.17,78c-.06.57,1.78-1.27,1.82-1.33a9.74,9.74,0,0,0,2.43-6c0-.6-2.31,2-2.47,2.27l-2.12,3.67c-1.2,2.07.81.43,1.41-.34a14.14,14.14,0,0,0,3-5.93c.25-1.18-1.62.89-1.77,1.08a21.51,21.51,0,0,0-4.11,7.75c-.25.91.84-.05,1-.23.79-.77,6.32-7.13,3.46-7.52-1.2-.17-2.84,2-3.51,2.82a19.31,19.31,0,0,0-1.72,2.36c-.82,1.34-.42,1.46-1.5.48l-2.39,3.46a19,19,0,0,0,4.76-4c.84-1,2.69-5.15,4.31-3.4,1,1.09-.74,3.54-1.41,4.67l-.51.86q-.42.79-.16.15c.63-.21-.92-.18-1-.18-3-.25-6.19,0-9.23,0-1.06,0-2.85,3.58-2.47,3.58Z"/></g><g class="cls-23"><path class="cls-24" d="M153,95.73l1.09,6.54c.14.81,1.52-.5,1.69-.67.54-.57,1.44-1.63,1.29-2.5L156,92.55c-.14-.81-1.52.5-1.69.67-.54.57-1.44,1.63-1.29,2.5Z"/></g><path class="cls-25" d="M28.85,18.73a8.91,8.91,0,0,1,9,9.3,9.25,9.25,0,0,1-2.52,6.6L37.4,37l-1.69,1.49-2.17-2.39a9.06,9.06,0,0,1-4.69,1.29,8.93,8.93,0,0,1-9-9.33A8.91,8.91,0,0,1,28.85,18.73Zm0,16.36A6.39,6.39,0,0,0,32,34.31l-3.1-3.48,1.71-1.49,3.13,3.53A7.42,7.42,0,0,0,35.31,28c0-4.66-3.13-7-6.45-7s-6.45,2.37-6.45,7S25.53,35.09,28.85,35.09Z"/><path class="cls-25" d="M168.46,251.07a8.91,8.91,0,0,1-9-9.3,9.26,9.26,0,0,1,2.52-6.6l-2.09-2.34,1.69-1.49,2.17,2.39a9,9,0,0,1,4.69-1.29,9.32,9.32,0,0,1,0,18.63Zm0-16.36a6.39,6.39,0,0,0-3.12.78l3.1,3.48-1.71,1.49-3.13-3.53a7.43,7.43,0,0,0-1.59,4.84c0,4.66,3.13,7,6.45,7s6.45-2.37,6.45-7S171.79,234.71,168.46,234.71Z"/><path class="cls-25" d="M36.13,52.74,29.31,41.88a.78.78,0,0,0-1.31,0L21.16,52.74a.78.78,0,0,0,0,.83L28,64.43a.78.78,0,0,0,1.31,0l6.83-10.87A.78.78,0,0,0,36.13,52.74Z"/><path class="cls-25" d="M176,216.68l-6.83-10.87a.78.78,0,0,0-1.31,0L161,216.68a.78.78,0,0,0,0,.83l6.83,10.87a.78.78,0,0,0,1.31,0L176,217.51A.78.78,0,0,0,176,216.68Z"/></svg>