<svg id="Layer_1" data-name="Layer 1" xmlns="http://www.w3.org/2000/svg" viewBox="0 0 196 266.67"><defs><style>.cls-1{fill:#f8e4e3;}.cls-2{fill:#be1e2d;}.cls-3{fill:#f0ccae;}.cls-4{fill:#443123;opacity:0.07;}.cls-5{fill:#fed7b8;}.cls-6{fill:#f1dbcb;}.cls-10,.cls-7{fill:#d0af9b;}.cls-15,.cls-7{opacity:0.5;}.cls-8{fill:#fee0c4;}.cls-9{fill:#d8a789;}.cls-11{fill:#6b3720;}.cls-12{fill:#ebf4f0;}.cls-13{fill:#7d3809;}.cls-14{fill:#1d1611;}.cls-16{fill:#231f20;}.cls-17{fill:#eb9e88;}.cls-18{fill:#f3b5a3;}.cls-19{opacity:0.15;}.cls-20{fill:#381c15;}.cls-21{fill:#3c2415;}.cls-22{fill:#7c5e52;}.cls-23{fill:#efc7b0;}</style></defs><title>badbitchcards</title><rect class="cls-1" x="8.63" y="8.48" width="178.58" height="249.45" rx="8.5" ry="8.5"/><path class="cls-2" d="M32.22,22.19a6.13,6.13,0,0,0-2.92-.71c-3.4,0-5.55,2.5-5.75,5.85a4.92,4.92,0,0,1,4.31-2.12,5.23,5.23,0,0,1,5.6,5.57c0,3.5-2.85,5.57-6,5.57S21,34.19,21,28.8c0-6.08,3.65-9.53,8.42-9.53a6.42,6.42,0,0,1,3.53.91Zm-4.79,12a3.44,3.44,0,1,0,0-6.88,3.35,3.35,0,0,0-3.53,3.45A3.42,3.42,0,0,0,27.43,34.22Z"/><path class="cls-2" d="M22.71,42.91c2.57,0,3.86,1.22,5.14,3.64,1.28-2.42,2.57-3.63,5.14-3.64a5,5,0,0,1,5.18,4.89c0,4.9-5.15,9.8-10.31,14.71-5.16-4.9-10.32-9.81-10.31-14.71A5,5,0,0,1,22.71,42.91Z"/><path class="cls-2" d="M173.61,224.89c-2.57,0-3.86-1.22-5.14-3.64-1.28,2.42-2.57,3.63-5.14,3.64a5,5,0,0,1-5.18-4.89c0-4.9,5.15-9.8,10.31-14.71,5.16,4.9,10.32,9.81,10.31,14.71A5,5,0,0,1,173.61,224.89Z"/><path class="cls-2" d="M164.09,244.42a6.12,6.12,0,0,0,2.92.71c3.4,0,5.55-2.5,5.75-5.85a4.92,4.92,0,0,1-4.31,2.12,5.23,5.23,0,0,1-5.6-5.57c0-3.5,2.85-5.57,6-5.57s6.38,2.17,6.38,7.56c0,6.07-3.65,9.53-8.42,9.53a6.41,6.41,0,0,1-3.53-.91Zm4.79-12a3.44,3.44,0,1,0,3.53,3.43A3.42,3.42,0,0,0,168.88,232.4Z"/><path class="cls-3" d="M75.17,168.74s1.1,10.11,1.6,15.69S74,202.74,74,202.74s7.36,34.72,32.48,34.72,34.39-34.36,34.39-34.36-12.73-13.21-8.59-30.4"/><path class="cls-4" d="M76.18,170.42c-.28.69,2,24.82,2.24,25.38s5.14,3.49,8,6.94a109.79,109.79,0,0,0,9,8.92s17.48-1.54,19.83,0,11.14-23.68,15.64-24.95c0,0,.85-9.7.86-13.14S76.18,170.42,76.18,170.42Z"/><path class="cls-5" d="M108,77.27c32.53,0,32,16.13,32,39.36,0,9.1.75,14.49.75,16.11s-1.33,4.6-1,7.9-1.15,23.4-10.19,29.71c-7.9,7.75-7.46,9.19-9.47,11.48s-5.74,4.59-12.78,5.45-12.35-2.87-16.65-7.46-11.77-8.18-16.36-12.49c-5.6-5.45-5.31-11.48-5.31-16.8s-1.44-22-1.44-29.86S66,77.27,108,77.27Z"/><path class="cls-6" d="M105.72,165.94S119,163.77,119.63,163a3.92,3.92,0,0,1,1.25-1l-15.31-.21-13.26-.46S100.11,166,105.72,165.94Z"/><path class="cls-7" d="M101.2,129.43s3.11-12-12.48-10.54-11.56,6.74-10.92,9.75S88.71,132.31,101.2,129.43Z"/><path class="cls-7" d="M111.58,128.64s1.73-7.69,5.4-10.72,18.77-2.94,21,1.59c-2.39,7.24-4.28,7.71-4.28,7.71S113.43,130.47,111.58,128.64Z"/><path class="cls-8" d="M124.32,131.42c3.63-.33,8.41-3.81,9.28-5.57a163.07,163.07,0,0,0-18.3,2.95S116.24,131.67,124.32,131.42Z"/><path class="cls-9" d="M116.14,127a10.72,10.72,0,0,1,15.8-2.31c2.4,2.06,1.66,1.13,1.66,1.13a4.07,4.07,0,0,1-3,1.19c-1.75-.18-13.52,2.16-14.41,2.24S114.85,128.32,116.14,127Z"/><path class="cls-10" d="M138.66,152c.37-2.14.53-3.22.53-3.22-3.08,3.08-9.39,12.12-15.34,24.79s-13.64,12.23-19.27,12.23S89.81,179.11,87.66,175,74.16,158.61,69,153.42a27.08,27.08,0,0,0,2.09,9.82,17.12,17.12,0,0,0,3.21,4.22c4.59,4.31,12.06,7.9,16.36,12.49s9.62,8.33,16.65,7.46,10.77-3.16,12.78-5.45,1.58-3.73,9.47-11.48C134.67,166.88,137.35,158.84,138.66,152Z"/><path class="cls-11" d="M101.5,152.67a10.89,10.89,0,0,1,3.08-.8,2.92,2.92,0,0,1,2.16.8"/><path class="cls-10" d="M100.27,151.87s2.77-1.47,3.87-1.47a7.61,7.61,0,0,1,4.4,1.87,2,2,0,0,0,2.74,0c.37-.44,1.8-2.24,2.61-2.37a10.84,10.84,0,0,1,2.92-.31c.37.19.06.75,0,1.12s-1.62,0-2.18.47-2.61,3.38-4.6,3.38-2.93-2.69-5.45-2.69a8.23,8.23,0,0,0-3.75.8C100.14,152.83,100.27,151.87,100.27,151.87Z"/><path class="cls-8" d="M107.92,128.2c0-1.83,4.31,19.39,3.58,21.34s-1.7,1.77-1.72,1.77-1.16-1.77-1.16-1.77S107.92,129.12,107.92,128.2Z"/><path class="cls-12" d="M116.14,129.28s2.75-4.15,6.3-4.94,6.72,1.68,7.42,2.19l.7.51a14.34,14.34,0,0,1-6.3,2.75A38.19,38.19,0,0,1,116.14,129.28Z"/><path class="cls-13" d="M122.44,124.34a8,8,0,0,1,3.45.14s1.51,3.41-2.54,4.61-4-3.23-4-3.23A10.68,10.68,0,0,1,122.44,124.34Z"/><path class="cls-12" d="M121.76,125.93a6.51,6.51,0,0,1,3.32-.15S122.88,122.78,121.76,125.93Z"/><circle class="cls-14" cx="123.01" cy="125.84" r="1.13"/><g class="cls-15"><path class="cls-16" d="M99.06,122.41a6.7,6.7,0,0,0-3-2.93"/></g><path class="cls-16" d="M97.57,122.48a9.33,9.33,0,0,0-3.94-2.82"/><path class="cls-16" d="M95.46,122.75a9.85,9.85,0,0,0-3.61-3"/><path class="cls-16" d="M93.08,122.69a13.63,13.63,0,0,0-3.31-2.54"/><path class="cls-16" d="M90.16,122.41a7.39,7.39,0,0,0-2.89-2.83c-.1-.07-.27-.12-.32,0"/><path class="cls-16" d="M88.16,122.8a6.32,6.32,0,0,0-3.25-2.5"/><path class="cls-16" d="M85.39,122.66a5.11,5.11,0,0,0-3.67-2.53"/><path class="cls-16" d="M83.25,122.74a6.4,6.4,0,0,0-3.66-1.9"/><path class="cls-16" d="M80.54,122.61a4.45,4.45,0,0,0-2.74-1.19"/><path class="cls-16" d="M117.5,120.43a5.35,5.35,0,0,1,3.15-2.87"/><path class="cls-16" d="M119.26,120.47a26.52,26.52,0,0,1,3.34-3.17,1.89,1.89,0,0,1,1.09-.52"/><path class="cls-16" d="M121.93,120.5c.56-.65,1-1.41,1.62-2a8.52,8.52,0,0,1,3.17-1.63"/><path class="cls-16" d="M125.29,119.93c-.06-.24.16-.45.35-.6l2-1.54a4.6,4.6,0,0,1,2.76-1.29"/><path class="cls-16" d="M128.69,118.89a6.17,6.17,0,0,1,4.24-1.94"/><path class="cls-16" d="M130.23,119.52a7.9,7.9,0,0,1,4.75-1.46"/><path class="cls-16" d="M132.77,120c0-.35.36-.58.69-.72a4.94,4.94,0,0,1,3.3-.52"/><path class="cls-16" d="M134.72,119.94a3.15,3.15,0,0,1,2.21-.24"/><path class="cls-17" d="M120.88,162a13.46,13.46,0,0,0,2.24-1.21c-3.59.1-32.21-.4-32.21-.4a16.73,16.73,0,0,0,1.4.94C92.55,161.41,107.12,164.3,120.88,162Z"/><path class="cls-17" d="M106.9,163.86c-5.18,0-9.48-.34-14.58-2.5h0s3.84,9.83,14.43,8.83c5.11.3,10-3.46,14.15-8.16h0C117,163.7,111.63,163.86,106.9,163.86Z"/><path class="cls-8" d="M88.72,133.32c4.45,0,10.34-3.45,10.34-3.45L81.12,127.7S80.57,132.74,88.72,133.32Z"/><path class="cls-9" d="M98.83,128.79a8.49,8.49,0,0,0-7.47-4.58c-5.26.07-10.24,3.48-10.24,3.48A2.67,2.67,0,0,0,83,129.87c1.71.5,15.21.34,15.21.34S99.54,129.92,98.83,128.79Z"/><path class="cls-12" d="M82.63,129s4.6-3.2,7.64-3.2,5.61,2,6.78,3.2l1.17,1.17s-2.34,1.53-8.89,1.53S82.63,129,82.63,129Z"/><path class="cls-13" d="M89.33,131.74c3,0,4.8-4.18,3.72-5.35s-6-.21-6.91.63S87.22,131.8,89.33,131.74Z"/><path class="cls-12" d="M88.72,127.7a6.51,6.51,0,0,1,3.32-.15S89.84,124.54,88.72,127.7Z"/><circle class="cls-14" cx="89.82" cy="127.7" r="1.09"/><path class="cls-4" d="M69,135.56c3.43.39.59,6.08,3.53,9.61a48.64,48.64,0,0,1,6.57,10.37c-2.11,1.94-5.67-5.66-8.24-9.59C68.65,142.62,69,135.56,69,135.56Z"/><path class="cls-4" d="M83.75,158.8c1.75-1.37,4.6-4.05,7.83-5.53C91.57,153.28,84.18,153.11,83.75,158.8Z"/><path class="cls-18" d="M100.82,164.65s3.75,2.45,7.48,2.45a10.88,10.88,0,0,0,6.54-2.49Z"/><g class="cls-19"><path class="cls-20" d="M98.74,121.47a19.83,19.83,0,0,0-8.27-2.36c-3.73-.18-7.34,1-11.05,1.23-.71,0-1.88,2.39-1.64,2.39h.42c.72,0,1.88-2.39,1.64-2.39h-.42l-1.64,2.39c3.3-.18,6.52-1.23,9.83-1.25a19.55,19.55,0,0,1,9.29,2.36c.54.28,2.14-2.21,1.85-2.36Z"/></g><g class="cls-19"><path class="cls-20" d="M137.28,119c-6.25-2.8-11.45-2.26-18.16-1.69-.77.07-1.91,2.43-1.62,2.4,2.91-.25,5.85-.63,8.77-.67a21,21,0,0,1,9.17,2.32c.65.29,2.17-2.22,1.85-2.36Z"/></g><path class="cls-21" d="M166.32,158.8c-2-3.16-8.4-10.4-9-14.74s1.45-14.94-.87-17.46,3.76-4.53,2.32-10.76-1.74-15.5-6.08-21.87-22-47.77-39.38-40.82c0,0-22-9.84-41.4,5.21S49.06,91.37,43.26,103s-20.56,30.4-20.56,39.67c0,6.68,0,17.56,4.88,26,0,0,10.32-6.47,11.9-9.69,0,0-1.94,15-1.11,19.67,11,6.51,15,8.17,15,8.17s14.9,1.05,20.77,0,10.27-1.25,6.37-15.3C66.8,163,69.83,147.06,68,130.23c0,0,41.62-47.76,54.76-52,0,0,15.21,4,16.84,22.14-1.63,19.14,1.44,29.7,1.15,31.76s-1.57,5.73-1.16,12.21c-.94,6.89-5.3,19.76-12.34,27.7s3,18.16,18.42,16.52S168.34,162,166.32,158.8ZM25.82,145.53c-2.87,1.79,0-20.07,11.65-25.09A42.33,42.33,0,0,0,25.82,145.53Zm5.71,17.38c-8.17-12.18,2.45-25.72,6.41-21.31C42.1,146.25,37.13,160,31.53,162.91Zm123.74-40.2s-3.07-4,0-9.75Z"/><path class="cls-22" d="M109.29,59C82.68,35.57,55.44,94.49,55.44,94.49S84.59,43.81,109.29,59Z"/><path class="cls-23" d="M101.28,72.75c-10,14.79-26,35-27.09,40.21C78.57,85.87,101.28,72.75,101.28,72.75Z"/><path class="cls-23" d="M116.49,59.62s6.25,12.08,7.29,15C123.78,69.62,116.49,59.62,116.49,59.62Z"/><path class="cls-22" d="M138.66,152c11.38,8.76,7,36.6,7,36.6S147.11,163.62,138.66,152Z"/></svg>