<svg id="Layer_1" data-name="Layer 1" xmlns="http://www.w3.org/2000/svg" viewBox="0 0 196 266.67"><defs><style>.cls-1{fill:#f8e4e3;}.cls-2{fill:#be1e2d;}.cls-3{fill:#d89663;}.cls-4{fill:#b77c50;}.cls-5{fill:#cf9e76;}.cls-6{fill:#ebc0a8;}.cls-7{fill:#d0af9b;}.cls-8{fill:#efc7b0;}.cls-9{fill:#6b3720;}.cls-10{fill:#e24333;}.cls-11{fill:#f5e0cd;}.cls-12{fill:#e4b69d;}.cls-13{fill:#d39c82;}.cls-14,.cls-27{fill:#381c15;}.cls-15{fill:#ebf4f0;}.cls-16{fill:#f4d4c3;}.cls-17{fill:#572000;}.cls-18{fill:#1d1611;}.cls-19{fill:#231f20;}.cls-20{fill:#e9bfaa;}.cls-21{fill:#f2cfb7;}.cls-22{fill:#eabba4;}.cls-23{fill:#eab286;}.cls-24{fill:#ebc09b;}.cls-25{fill:#edb989;}.cls-26{fill:#8f6d5d;}.cls-27{opacity:0.3;}</style></defs><title>badbitchcards</title><rect class="cls-1" x="8.63" y="8.48" width="178.58" height="249.45" rx="8.5" ry="8.5"/><path class="cls-2" d="M19.83,25.22a5.88,5.88,0,0,1,0-.66,5.28,5.28,0,0,1,5.65-5.29c3.5,0,5.52,2.29,5.52,5a6,6,0,0,1-3.08,5l-3.23,2.07a4,4,0,0,0-2,2.29h8.39V36H19.63c0-2.67,1.11-4.71,3.88-6.5l2.72-1.76a4.08,4.08,0,0,0,2.24-3.4,2.82,2.82,0,0,0-3.08-2.87c-2.14,0-3.15,1.49-3.15,3.35,0,.23,0,.48.05.73Z"/><path class="cls-2" d="M21.71,42.91c2.57,0,3.86,1.22,5.14,3.64,1.28-2.42,2.57-3.63,5.14-3.64a5,5,0,0,1,5.18,4.89c0,4.9-5.15,9.8-10.31,14.71-5.16-4.9-10.32-9.81-10.31-14.71A5,5,0,0,1,21.71,42.91Z"/><path class="cls-2" d="M175.48,242.58a5.88,5.88,0,0,1,0,.66,5.28,5.28,0,0,1-5.65,5.29c-3.5,0-5.52-2.29-5.52-5a6,6,0,0,1,3.08-5l3.23-2.07a4,4,0,0,0,2-2.29h-8.39v-2.29h11.45c-.05,2.67-1.11,4.71-3.88,6.5l-2.72,1.77a4.08,4.08,0,0,0-2.24,3.4,2.82,2.82,0,0,0,3.07,2.87c2.14,0,3.15-1.49,3.15-3.35,0-.23,0-.48,0-.73Z"/><path class="cls-2" d="M173.61,224.89c-2.57,0-3.86-1.22-5.14-3.64-1.28,2.42-2.57,3.63-5.14,3.64a5,5,0,0,1-5.18-4.89c0-4.9,5.15-9.8,10.31-14.71,5.16,4.9,10.32,9.81,10.31,14.71A5,5,0,0,1,173.61,224.89Z"/><path class="cls-3" d="M98.09,49.43c16.45,0,34.33,3.62,46.09,21.71s16.16,48.69,17.47,56.21,4.59,18.33-3.28,29.47c1.64,12.24,1,40-12.12,45.54s-13.92,2.95-13.92,2.95,15.7-2.62,18.25-9.17c0,0,7.07-11.79,5.79-18s-20.93-.75-22.24-9.06,5.59-25.66,5.59-25.66l-64,26.81s-12.27,15.72-11,22,14,18.4,6.24,31.17H62.9s2.09-12.69-8.37-19-15.34-19.18-13.95-24.76c-3.14,6.9-.35,22.32,4.18,27.2l4.53,4.88c-8.72-7-22.32-21.89-12.55-42.67s7.32-22.85,7.32-22.85-11.3,3.8-10.71,9.73c0,0-3.24-3.9,7.92-21,.7-27.86,2.79-39.78,12.55-59.1C71.86,55.17,73.85,49.43,98.09,49.43Z"/><path class="cls-4" d="M80.7,87.35S81.16,66.61,77.63,69c-.24-6.37,10-15.69,10-15.69l2.5-3.39s17.73,0,22.51,1C115.95,57,114.35,67,115.49,69c-3.39,3-8.6,11.53-8.6,11.53s-10.17.94-10.67,3.38-7.09.56-7.09.56Z"/><path class="cls-4" d="M129.48,70.62s6.75,8.73,13.17,13.26C139.52,79.88,133,72.58,129.48,70.62Z"/><path class="cls-4" d="M73.42,73.5s-16.14,27.39-20.25,46.22C56.32,103.89,75.46,75.53,73.42,73.5Z"/><path class="cls-4" d="M125.55,89.28c.91-1.07,22,9.29,24.18,16.17C140.26,94.86,125.55,89.28,125.55,89.28Z"/><path class="cls-4" d="M140.81,143.85c-13.27,21.16-5.59,25.66-1.21,27.35s4.68-26.08,4.68-26.08"/><path class="cls-4" d="M66.58,112.33s-9.38,18-5.43,28.71,12,24.44,12,24.44l-6.61-53.15"/><path class="cls-4" d="M60.18,167S52.81,179,54.91,187C51.06,183.85,54.95,169.85,60.18,167Z"/><path class="cls-4" d="M153.64,105.45s4.46,20.86,7,25.82C157.29,124.59,153.9,111.46,153.64,105.45Z"/><path class="cls-4" d="M155.74,132.54s8.15,11.25,2.63,24.27C158.38,156.82,163.42,143.69,155.74,132.54Z"/><path class="cls-5" d="M136.19,171.27s-18.38,29.23-14.1,37.37c0,0-3.4-10.89,12-39.59Z"/><path class="cls-6" d="M108.33,236.67c-27.43,0-38.84-44.61-38.84-44.61s12.08,2.38,10.91-13.26h0l53.51-14.54s2.42,21.7,5,31.59S119.34,236.67,108.33,236.67Z"/><path class="cls-7" d="M78.06,189.35l25.83,1.2a10.17,10.17,0,0,0,1.23-9c-1.78-4.91-25.49-8.18-25.49-8.18S81.83,186.92,78.06,189.35Z"/><path class="cls-7" d="M113.3,177s12.64,11.82,18.37,11.82h5.72s-4-25.17-4-33.26C125.34,159.92,113.3,177,113.3,177Z"/><path class="cls-8" d="M89.14,84.64c11.69-1.86,14.35,1.33,17,3.19s17,15.15,19.66,16.21,6.11.53,8.77,1.59,7.17,17,7.17,24.45c1.33,4.78,1.06,7.44,0,10.63s-2.39,9.83-3.45,13.29-2.66,10.1-11.69,19.93-21,13.29-24.18,13.29c-12,0-13.55-4.52-17-7.44s-10.89-10.89-12.22-14.08-7.71-27.1-8.77-29,.4-34.68,12-46.24C83.29,84.07,89.14,84.64,89.14,84.64Z"/><path class="cls-9" d="M100.09,150.73s1.33-1.33,2.25-1.33a6.51,6.51,0,0,1,2.25.66"/><path class="cls-9" d="M93.08,151.32s-1.7-.4-2,0l-.32.4"/><path class="cls-10" d="M99.05,160.72c-1.06,0-2.63-.73-3.46-.48s-7.78,3.93-8.61,4.1c1.09,1.17,3.93,6.1,13.8,5s16.39-8.78,16.39-8.78-7.86-.5-9.7-.84-3.76-1-4.68-.67S99.94,160.72,99.05,160.72Z"/><path class="cls-11" d="M87,164.34s11.32-.88,13.12-.64c2-.48,14.51-2.32,14.51-2.32s-11.72,2.09-14.51,3C96.63,164.51,87,164.34,87,164.34Z"/><path class="cls-12" d="M95.37,153c1.32.18,3.41.26,4.26-1,.13-.19-.51-.28-.64-.09-.68,1-2.39.89-3.44.75-.31,0-.62.26-.18.32Z"/><path class="cls-12" d="M106.6,145.88c1.19,1.81,1.15,4.07-.95,5.14-.33.17.28.33.47.24,2.21-1.14,2.41-3.49,1.12-5.47-.12-.19-.77-.11-.64.09Z"/><path class="cls-12" d="M88.56,146.36c-.39,1.3-.83,3.21,0,4.42.13.19.77.1.64-.09-.79-1.14-.37-3,0-4.24.08-.25-.58-.29-.64-.09Z"/><path class="cls-13" d="M105.13,128.43s2-7.84,9.92-7.84,10.82,4.13,10.82,4.13.14.49-1.43.49S105.13,128.43,105.13,128.43Z"/><path class="cls-13" d="M88.47,129.61s-4.08-5.9-10.4-5.9-9,5.58-9,5.58.67.65,1.85-.27S88.47,129.61,88.47,129.61Z"/><path class="cls-14" d="M122.85,125.21h1.58s-9.61-9-17.19,1.33Z"/><path class="cls-14" d="M72.1,129H70.91s8.47-7.61,15.4-.68Z"/><path class="cls-15" d="M107.23,126.54a1.3,1.3,0,0,1,.52,1.2c1.61-.6,2.14-.6,4.8,0a18.4,18.4,0,0,0,10.3-2.53c-1.66-2.53-6.58-3.19-8.77-2.92C111.35,122.29,107.23,126.54,107.23,126.54Z"/><path class="cls-15" d="M72.1,129a10.63,10.63,0,0,1,14.21-.68s.23,1.11-.36,1.62a23.53,23.53,0,0,1-7.26.94C76.2,130.9,74.06,131,72.1,129Z"/><path class="cls-16" d="M88.47,129.61c.05,1.18-2.53.36-2.53.36l.36-1.62Z"/><path class="cls-16" d="M105.13,128.43c.84.93,2-.61,2.8-.5s.15-1.59-.69-1.38S105.13,128.43,105.13,128.43Z"/><path class="cls-17" d="M79.84,130.89c2.65,0,3.62-1.54,3.62-2.55s-.47-2.39-4.11-2.39S76,130.89,79.84,130.89Z"/><path class="cls-17" d="M115.55,127.61c2.64,0,3-1.54,3-2.59s-.23-2.79-3.49-2.79S110,127.61,115.55,127.61Z"/><circle class="cls-18" cx="80.25" cy="128.11" r="1.03"/><circle class="cls-18" cx="115.41" cy="124.72" r="1.01"/><path class="cls-19" d="M102.35,122.29a8,8,0,0,1,2.64-3.9"/><path class="cls-19" d="M103.89,121.92a10.34,10.34,0,0,1,3-4"/><path class="cls-19" d="M106,121.38a18.28,18.28,0,0,1,2.77-4.19"/><path class="cls-19" d="M107.93,120.79a17.94,17.94,0,0,1,2.3-3.78"/><path class="cls-19" d="M109.56,120.57a15.23,15.23,0,0,1,2.11-3.51"/><path class="cls-19" d="M111.57,120.21a11.69,11.69,0,0,1,2.12-4.11"/><path class="cls-19" d="M113.3,119.31a6.32,6.32,0,0,1,1.88-3.31"/><path class="cls-19" d="M114.81,119.2a11.34,11.34,0,0,1,2.27-4"/><path class="cls-19" d="M116.94,118.65a8.81,8.81,0,0,1,2.66-3.84"/><path class="cls-19" d="M118.91,118.61a9.3,9.3,0,0,1,2.88-3.56"/><path class="cls-19" d="M120.71,117.85a6.58,6.58,0,0,1,2.78-2.74"/><path class="cls-19" d="M122.5,117.83a8,8,0,0,1,2.43-2"/><path class="cls-19" d="M124.37,117.63a3.49,3.49,0,0,1,2.36-1.46"/><path class="cls-19" d="M126.39,117.26l1.59-.61"/><path class="cls-19" d="M128,118a4.05,4.05,0,0,1,1.51-.64"/><path class="cls-19" d="M129,118.61l.69-.45"/><path class="cls-19" d="M86.57,122.62,83.8,119.9"/><path class="cls-19" d="M84.76,122.61a25.12,25.12,0,0,0-3.25-2.93"/><path class="cls-19" d="M82.43,122.65l-2.94-3.24"/><path class="cls-19" d="M80.06,122.39a40.55,40.55,0,0,1-2.67-3.29"/><path class="cls-19" d="M77.63,122.29a6.7,6.7,0,0,0-3-3.44"/><path class="cls-19" d="M75.87,122.2A11.9,11.9,0,0,0,72.94,119"/><path class="cls-19" d="M74.34,122.5a9.65,9.65,0,0,0-3.26-3.26"/><path class="cls-19" d="M72.08,122a5.19,5.19,0,0,0-2.67-2.42"/><path class="cls-19" d="M70.15,121.43l-2.32-1.71"/><path class="cls-19" d="M68.81,121.75l-1.93-.83"/><path class="cls-19" d="M67.33,122.18a2.38,2.38,0,0,0-1.5.44"/><path class="cls-20" d="M105.31,128.9a2.31,2.31,0,0,0-.41,2.32c.21.76,12.08,8.76,22.21-1.36-2.36-3.16-2.26-2.14-2.26-2.14S117.4,131.27,105.31,128.9Z"/><path class="cls-20" d="M88.47,132.19l-3.28-.53s-6.47,2-9.31,1.11a18.85,18.85,0,0,1-4.39-1.88s.89,6.8,6.15,6.8S86.77,133.89,88.47,132.19Z"/><path class="cls-21" d="M98.84,147a1.45,1.45,0,0,0,1.5.85,2.34,2.34,0,0,0,1.73-.85A3.5,3.5,0,0,0,98.84,147Z"/><path class="cls-21" d="M111.67,94.28c-.26.48,3.44,17.19,2.73,19.51,11.15-.17,12-1.38,12-2.94s-.85-6.82-.85-6.82S112.88,92,111.67,94.28Z"/><path class="cls-21" d="M126.39,143.49s7-7.6,7-11.83v-8l-3.51.35A150.6,150.6,0,0,1,126.39,143.49Z"/><path class="cls-22" d="M88.47,123.71s3.11,2.33,3.43,5.58l.32,3.25H90.35c-.92,0-.07-3.65-1-4.6S87.41,125.17,88.47,123.71Z"/><path class="cls-23" d="M96.93,145.93c.6,0,.6-.5,0-.5s-.6.5,0,.5Z"/><path class="cls-23" d="M97.91,144.52c.6,0,.6-.5,0-.5s-.6.5,0,.5Z"/><path class="cls-23" d="M99.46,142.92l-.14-.14c-.15-.15-.79,0-.58.17l.14.14c.15.15.79,0,.58-.17Z"/><path class="cls-23" d="M98.19,139.88c.6,0,.6-.5,0-.5s-.6.5,0,.5Z"/><path class="cls-23" d="M98.19,139.88c.6,0,.6-.5,0-.5s-.6.5,0,.5Z"/><path class="cls-23" d="M94.26,144.58h.14c.4,0,.4-.33,0-.33h-.14c-.4,0-.4.33,0,.33Z"/><path class="cls-23" d="M95.24,147.11h.09c.4,0,.4-.33,0-.33h-.09c-.4,0-.4.33,0,.33h.09c.4,0,.4-.33,0-.33h-.09c-.4,0-.4.33,0,.33Z"/><path class="cls-23" d="M95.38,147.19c.6,0,.6-.5,0-.5s-.6.5,0,.5Z"/><path class="cls-23" d="M96.22,148.32c.6,0,.6-.5,0-.5s-.6.5,0,.5Z"/><path class="cls-23" d="M94,140.45c.6,0,.6-.5,0-.5s-.6.5,0,.5Z"/><path class="cls-23" d="M93.69,136.48l.14.14c.15.15.79,0,.58-.17l-.14-.14c-.15-.15-.79,0-.58.17Z"/><path class="cls-23" d="M96.36,139.74c.6,0,.6-.5,0-.5s-.6.5,0,.5Z"/><path class="cls-23" d="M95.66,142.69c.6,0,.6-.5,0-.5s-.6.5,0,.5Z"/><path class="cls-23" d="M106.43,138.65v.14c0,.23.67.23.67,0v-.14c0-.23-.67-.23-.67,0Z"/><path class="cls-23" d="M107.33,136.93c.6,0,.6-.5,0-.5s-.6.5,0,.5Z"/><path class="cls-23" d="M103.39,135c.6,0,.6-.5,0-.5s-.6.5,0,.5Z"/><path class="cls-23" d="M112,139.94h.14c.4,0,.4-.33,0-.33H112c-.4,0-.4.33,0,.33Z"/><path class="cls-23" d="M116.47,148.8h.14c.4,0,.4-.33,0-.33h-.14c-.4,0-.4.33,0,.33Z"/><path class="cls-23" d="M116.61,145.37c.6,0,.6-.5,0-.5s-.6.5,0,.5Z"/><path class="cls-23" d="M120.91,143.29v.14c0,.23.67.23.67,0v-.14c0-.23-.67-.23-.67,0Z"/><path class="cls-23" d="M122.51,140c.6,0,.6-.5,0-.5s-.6.5,0,.5Z"/><path class="cls-23" d="M122.84,139.77v-.14c0-.23-.67-.23-.67,0v.14c0,.23.67.23.67,0Z"/><path class="cls-23" d="M118.29,138.34c.6,0,.6-.5,0-.5s-.6.5,0,.5Z"/><path class="cls-23" d="M112,144.94c.6,0,.6-.5,0-.5s-.6.5,0,.5Z"/><path class="cls-23" d="M108.88,143.31H109c.4,0,.4-.33,0-.33h-.14c-.4,0-.4.33,0,.33Z"/><path class="cls-23" d="M106.77,143.46h.14c.4,0,.4-.33,0-.33h-.14c-.4,0-.4.33,0,.33Z"/><path class="cls-23" d="M82.45,146h.14c.4,0,.4-.33,0-.33h-.14c-.4,0-.4.33,0,.33Z"/><path class="cls-23" d="M87.51,143c.6,0,.6-.5,0-.5s-.6.5,0,.5Z"/><path class="cls-23" d="M87.51,140c.6,0,.6-.5,0-.5s-.6.5,0,.5Z"/><path class="cls-23" d="M84.7,141.12l.14-.14c.21-.21-.43-.32-.58-.17l-.14.14c-.21.21.43.32.58.17Z"/><path class="cls-23" d="M81.32,144h.14c.4,0,.4-.33,0-.33h-.14c-.4,0-.4.33,0,.33Z"/><path class="cls-23" d="M81.75,140.64h.14c.4,0,.4-.33,0-.33h-.14c-.4,0-.4.33,0,.33Z"/><path class="cls-23" d="M85.54,137.49c.6,0,.6-.5,0-.5s-.6.5,0,.5Z"/><path class="cls-23" d="M85.54,146.21c.6,0,.6-.5,0-.5s-.6.5,0,.5Z"/><path class="cls-23" d="M77.8,147.87l.14.14c.15.15.79,0,.58-.17l-.14-.14c-.15-.15-.79,0-.58.17Z"/><path class="cls-23" d="M97,143.43v-.09c0-.23-.67-.23-.67,0v.09c0,.23.67.23.67,0v-.09c0-.23-.67-.23-.67,0v.09c0,.23.67.23.67,0Z"/><path class="cls-23" d="M94.12,147.47c.6,0,.6-.5,0-.5s-.6.5,0,.5Z"/><path class="cls-24" d="M92,144.35s-2,3.39-.83,5.13c.83-.7,1.88-4.71,1.88-4.71Z"/><path class="cls-6" d="M145.87,117s1.79-6,7.16-6,6,12.1,1.19,18.58Z"/><path class="cls-6" d="M140.81,143.85s1.3,2.37,3.48,1.27,5.45-7,5.45-7l-8-8.21A22.13,22.13,0,0,1,140.81,143.85Z"/><path class="cls-8" d="M92.23,83.87s2.64-5.2,2.1-7.54-2-7.91-.35-10.78,5.11-9.23,5.34-11.8S95.38,60,95.38,60A40.52,40.52,0,0,1,93,65.17c-.85,1.25-.51,9.45,0,10.91s-2.3,7.79-2.3,7.79S91.43,85.62,92.23,83.87Z"/><path class="cls-22" d="M149.71,116.5s2.46-3.68,5-1.7-.58,10.93-.58,10.93h-1.38s2.49-8.57,1.19-9.74-3.46,1.65-3.46,1.65Z"/><path class="cls-25" d="M61.72,147a20.23,20.23,0,0,1,.3,17.93c-1.33,2.76-3.19,5.23-4.56,8a22.87,22.87,0,0,0-2.32,8.19c-.51,5.75,1.29,11.06,4.39,15.84s7,8.84,9,14.06,2.33,11.85-2.15,15.85c-.22.2.42.31.58.17,3.54-3.17,4.19-8,3.28-12.5-1.09-5.38-4.39-9.71-7.54-14.07-3.68-5.09-6.81-10.36-6.95-16.82A22.72,22.72,0,0,1,57.6,174c1.27-2.9,3.2-5.43,4.66-8.23a20.54,20.54,0,0,0,.1-18.9c-.1-.2-.76-.13-.64.09Z"/><path class="cls-25" d="M126.19,104.12c6.22-2,12.74,1.06,16,6.54a17.89,17.89,0,0,1,2.41,8.16c.17,3-.17,6,.65,8.86,1.5,5.24,6.6,8.53,9.08,13.27,2.86,5.46,3.05,11.24,2,17.19s-2.33,12.53,1.86,17.5c.14.16.78.07.58-.17-4.45-5.27-2.52-12.45-1.57-18.57s.21-12.15-3.08-17.48c-1.57-2.54-3.73-4.59-5.57-6.93a14.6,14.6,0,0,1-3.24-8.9c-.11-2.87.08-5.73-.66-8.54a16.94,16.94,0,0,0-3.88-7.2,14.5,14.5,0,0,0-15-4c-.41.13.1.36.34.29Z"/><path class="cls-26" d="M114.27,161.5s1.63-2.37,2.26-1.62l.63.74Z"/><path class="cls-26" d="M86.69,164.64c.09.57,1.79-.29,1.79-.29S86.51,163.54,86.69,164.64Z"/><path class="cls-27" d="M85.42,120.91c-2.27-2.45-6.26-1.59-9.23-1.32-2.2.2-9.53.07-10.42,2.41-.3.78,1,2.95,1.12,2.69.76-2,7.28-1.93,9-2.12,2.88-.3,7.68-1.44,9.89.95.51.54.09-2.09-.39-2.6Z"/><path class="cls-27" d="M103.4,122.53c.64-1.26,4.1-1.93,5.38-2.34a53,53,0,0,1,5.39-1.45,26.64,26.64,0,0,1,10.28-.21c.62.11.85-2.85,0-3a28.73,28.73,0,0,0-12.68.78c-2,.53-4,1.19-5.93,1.87-1.22.43-2.37.57-3,1.75-.33.66.12,3.41.54,2.6Z"/></svg>