<?xml version="1.0" encoding="UTF-8"?>
<svg width="25px" height="25px" viewBox="0 0 25 25" version="1.1" xmlns="http://www.w3.org/2000/svg" xmlns:xlink="http://www.w3.org/1999/xlink">
    <!-- Generator: Sketch 40.3 (33839) - http://www.bohemiancoding.com/sketch -->
    <title>Group 10</title>
    <desc>Created with Sketch.</desc>
    <defs></defs>
    <g id="Symbols" stroke="none" stroke-width="1" fill="none" fill-rule="evenodd">
        <g id="Flip" transform="translate(1.000000, 1.000000)" stroke="#000000">
            <g id="Group-10">
                <circle id="Oval" fill="#FFFFFF" cx="11.6870117" cy="11.6870117" r="11.6870117"></circle>
                <g id="noun_207737_cc" transform="translate(5.000000, 5.000000)" stroke-width="0.3" fill="#000000">
                    <g id="Group">
                        <path d="M6.43122475,0.0405 C9.65200758,0.0405 12.3176641,2.49216667 12.7178409,5.654 L14.0334343,4.1275 C14.1529293,3.989 14.3599116,3.975 14.4966414,4.09616667 C14.6330429,4.2175 14.6468308,4.428 14.5275,4.5665 L12.6905934,6.69816667 C12.6884596,6.70066667 12.6858333,6.70216667 12.6835354,6.70483333 C12.6782828,6.7105 12.6730303,6.71583333 12.6672854,6.7215 C12.6644949,6.72416667 12.6626894,6.727 12.6597348,6.72966667 C12.6554672,6.7335 12.6505429,6.73616667 12.6461111,6.73983333 C12.6415152,6.74333333 12.6369192,6.74766667 12.6321591,6.75083333 C12.6278914,6.75416667 12.6232955,6.75666667 12.6188636,6.75966667 C12.6093434,6.76583333 12.5996591,6.77083333 12.5898106,6.776 C12.5845581,6.77866667 12.5794697,6.782 12.574053,6.7845 C12.5707702,6.78583333 12.5674874,6.787 12.5642045,6.78816667 C12.5520581,6.793 12.5395833,6.7965 12.5269444,6.79983333 C12.5248106,6.80033333 12.5230051,6.80133333 12.5207071,6.80183333 C12.5172601,6.80266667 12.5139773,6.80433333 12.5105303,6.805 C12.5087247,6.8055 12.5070833,6.80566667 12.5052778,6.806 C12.4847601,6.80983333 12.4640783,6.81216667 12.4433965,6.81216667 L12.4432323,6.81216667 L12.4432323,6.81216667 L12.4432323,6.81216667 L12.4430682,6.81216667 C12.4223864,6.81216667 12.4017045,6.80983333 12.3811869,6.806 C12.3793813,6.80566667 12.3777399,6.8055 12.3759343,6.805 C12.3724874,6.80433333 12.3692045,6.80266667 12.3657576,6.80183333 C12.3634596,6.80133333 12.361654,6.80033333 12.3595202,6.79983333 C12.3470455,6.79633333 12.3345707,6.793 12.3222601,6.78816667 C12.3189773,6.78683333 12.3156944,6.78566667 12.3124116,6.7845 C12.3069949,6.782 12.3020707,6.77866667 12.296654,6.776 C12.2868056,6.771 12.2771212,6.76583333 12.267601,6.75966667 C12.2631692,6.75666667 12.2585732,6.75416667 12.2543056,6.75083333 C12.2495455,6.7475 12.2449495,6.74333333 12.2403535,6.73983333 C12.2359217,6.73633333 12.2309975,6.73366667 12.2267298,6.72966667 C12.2237753,6.727 12.2219697,6.72416667 12.2191793,6.7215 C12.2135985,6.716 12.208346,6.71066667 12.2029293,6.70483333 C12.2006313,6.70216667 12.1980051,6.70066667 12.1958712,6.69816667 L10.3589646,4.5665 C10.2394697,4.428 10.2532576,4.21733333 10.3898232,4.09616667 C10.5263889,3.975 10.7336995,3.989 10.8530303,4.1275 L12.0300884,5.4935 C11.5683586,2.779 9.23410354,0.707166667 6.43089646,0.707166667 C3.2967803,0.707166667 0.747007576,3.29616667 0.747007576,6.4785 C0.747007576,9.66083333 3.29710859,12.25 6.43122475,12.25 C6.61243687,12.25 6.75950758,12.3991667 6.75950758,12.5833333 C6.75950758,12.7673333 6.61243687,12.9166667 6.43122475,12.9166667 C2.93501263,12.9166667 0.090770202,10.0285 0.090770202,6.4785 C0.090770202,2.92866667 2.93501263,0.0405 6.43122475,0.0405 L6.43122475,0.0405 Z" id="Shape"></path>
                    </g>
                </g>
            </g>
        </g>
    </g>
</svg>