<svg id="Layer_1" data-name="Layer 1" xmlns="http://www.w3.org/2000/svg" viewBox="0 0 196 266.67"><defs><style>.cls-1{fill:#f8e4e3;}.cls-2{fill:#231f20;}.cls-3{fill:#010101;}.cls-31,.cls-4{fill:#1d1611;}.cls-4{opacity:0.94;}.cls-22,.cls-5,.cls-7,.cls-8{opacity:0.15;}.cls-6,.cls-7{fill:#6d6e71;}.cls-8{fill:#58595b;}.cls-9{fill:#f6d1c6;stroke:#fff;stroke-miterlimit:10;}.cls-10{fill:#aa5763;}.cls-11{fill:#e56376;}.cls-12{fill:#f59173;}.cls-13{fill:#f1657c;}.cls-14{fill:#fdfdfe;opacity:0.6;}.cls-15{fill:#ef6b65;}.cls-16{fill:#f1c1b8;}.cls-17{fill:#e24333;}.cls-18{fill:#ed5b3e;}.cls-19{fill:#eec5a6;}.cls-20,.cls-22{fill:#443123;}.cls-20{opacity:0.07;}.cls-21{fill:#f0d0b4;}.cls-23{fill:#381c15;}.cls-24{fill:#ecc19c;opacity:0.8;}.cls-25{fill:#d39c82;}.cls-26{fill:#6b3720;}.cls-27{fill:#ebf4f0;}.cls-28{fill:#b08874;}.cls-29{fill:#593433;}.cls-30{fill:#fff;}.cls-32{fill:#efc7b0;}</style></defs><title>badbitchcards</title><rect class="cls-1" x="8.63" y="8.48" width="178.58" height="249.45" rx="8.5" ry="8.5"/><path class="cls-2" d="M32.79,22c-1.51,1.21-6.13,5.32-6.91,14H23.34c.73-9.5,6.73-14.07,6.73-14.07h-9.2V19.65H32.79Z"/><path class="cls-3" d="M33.08,50.55h-.24a5.16,5.16,0,1,0-9.74,0h-.24A5.16,5.16,0,1,0,27,58.82C26.41,61,25.66,63.28,24.85,64h6.24c-.81-.73-1.56-3-2.12-5.19a5.16,5.16,0,1,0,4.11-8.28ZM28.2,54s0,0,0,0Z"/><path class="cls-2" d="M162.64,243.78c1.51-1.21,6.13-5.32,6.91-14h2.55c-.73,9.5-6.73,14.07-6.73,14.07h9.2v2.27H162.64Z"/><path class="cls-3" d="M162.36,215.25h.24a5.16,5.16,0,1,0,9.74,0h.24a5.16,5.16,0,1,0-4.12-8.28c.56-2.18,1.31-4.46,2.12-5.19h-6.24c.81.73,1.56,3,2.12,5.19a5.16,5.16,0,1,0-4.11,8.28Zm4.87-3.45s0,0,0,0Z"/><path class="cls-4" d="M65,139.63c-2.81-2.15-4.37-6.31-6.88-6.69a2.6,2.6,0,0,0-3.07,1.8s-2.7-2.79-2.44-5.53-1-3.31-1.15-6.88c-3.69-3.94-5.79-10.83-4.92-13.91-1.72-3.2-1.11-8.49.74-10.22,0,0-.74-7.63,1.11-9.79-2.09-3-.25-13,3.45-14.34.49-6.53,9.73-9.73,12.68-9.23,2.15-2.09,6.16-1.35,6.16-1.35L148.85,76.7s3.69,2.36,4,4.72c2.06,1.62,3.69,5.16,3.54,6.93,2.51.59,4.28,2.36,3.39,6.64.74,4.87-.88,6.78-.59,8.41s2.36,4.57-.88,6.78c0,0,.44,4.87-3.1,7.08,1.92,3.1-1.92,9.88-4.42,8.7,1.18,3.69-3.35,11.23-3.8,9.13a1.67,1.67,0,0,0-1.84-1.4s-1.2,0-2.5,1.83-4.16,1.25-4.16,1.25"/><g class="cls-5"><path class="cls-6" d="M56,75.12a1.42,1.42,0,0,1-1.5-.91,2.68,2.68,0,0,1-.27-1.67c.18-.47.82-.87,1.14-1.25A7.89,7.89,0,0,1,57.07,70a11.83,11.83,0,0,1,1.54-1.08c.46-.22,1-.27,1.45-.47a2.94,2.94,0,0,1,1.28-.22c.6,0,1.19,0,1.57.48s.26.87.16,1.47a2.61,2.61,0,0,1-2.13,2.08,6,6,0,0,0-2.51,1.08A7.14,7.14,0,0,0,57.59,75c-.42.72-.69,0-1.23.16Z"/></g><path class="cls-7" d="M51.53,75.29s-4.57,4.34-2,6.94,1.75-2.71,2-2.71,2.85,4,4.23,2.6S52.44,75.35,51.53,75.29Z"/><path class="cls-8" d="M77.68,95s24-6.73,26.47-7.67,4.06-2.29,4.79-1.46.85,3.66,1.87,4.43S80.46,97.71,77.68,95Z"/><path class="cls-7" d="M147.85,85.64s-1.88,1.5-2,2.54-1,1.88-.66,2.91.66,2.91,3,2.91,3.76-2.26,3.38-3.48.09-2.63-.19-3.48S149.92,85.36,147.85,85.64Z"/><path class="cls-7" d="M136,101.33s7.23,2.82,8.74,10.24-3.66,25.25-3.66,25.25l-2.61-.06S131.69,111.48,136,101.33Z"/><path class="cls-9" d="M94.25,79.08s-2.53,4.35-11.31,4.35-13.07-4.62-14.32-6.25,3.93-1.09,3.93-1.09-6.07-9.52-.33-13.6c0,0,2.9-8.16,10.44-9.25,0,0,6-10.61,10.44-9.79,2.84-3,7,3,7,3s3.82-4.12,5.11-3.83S109,53,108,54.61s1.34-10.14,9.31-12c3.44-3.5,6.23-4,6.23-4,2,3.54,5.64,2.45,6.54,3s-.69,5.44-1.25,7.34.89,3.26,1.25,5.17,1.79-6.53,5.84-6.53,6.19,3.54,9.06,4.89,4.23,1.36,3.42,7.34.74,16,.23,17.4-6.49-1.9-8.39-4.89-3.56-1.45-3,.61,4.1,3.59,5.13,4.44.07,3.65-.74,6.1,1.83,6.21,0,8.09-6.79,3.76-9.86,2.56S120.54,89.3,119,84.34c0,4.44-3.59,4.44-7.46-.85C104.6,86.57,95.57,83.4,94.25,79.08Z"/><path class="cls-10" d="M116.92,76.51s4.69,9.16,9.25,8,10.13-14,3.64-17.15S114,68.71,116.92,76.51Z"/><path class="cls-11" d="M135.93,63.49s6.74.34,6.4-7.86C135.93,53.4,135.93,63.49,135.93,63.49Z"/><path class="cls-12" d="M116.38,77.51s4.11,8,8.11,7,8.88-12.31,3.19-15S113.79,70.67,116.38,77.51Z"/><path class="cls-13" d="M97,75.8c-.24-.84,3.27-7.69,8-6.32s5.48,7.69,4.4,10.09S98.23,80.07,97,75.8Z"/><path class="cls-14" d="M96.46,63.49c0,6.75,3,15.59-6.7,15.59S72.11,73.61,72.11,66.86,80,54.63,89.76,54.63,96.46,56.74,96.46,63.49Z"/><path class="cls-15" d="M116.53,48.11c-1,.69-4.31,1.54-4.13,6.5s3.69,5.49,5.87,4.8,7.22-5.48,5.47-8.73S119.11,46.4,116.53,48.11Z"/><path class="cls-16" d="M71.7,67.51c-.53.76,2.58,11.54,12.1,10.72s13.11-11.12,9.25-15.85-8.76-5.76-9.91-2.88,1.26,8.32-2.52,8.59S74,64.2,71.7,67.51Z"/><path class="cls-11" d="M98.86,54.6c-.08.28-6.67-1.88-7.67-4.79a6.34,6.34,0,0,1,0-4.79S101.38,45.71,98.86,54.6Z"/><path class="cls-17" d="M100.11,57.55s2,11.1,1.78,10.42.45-4.1,5.24-4.47,7.08.64,7.08.64l-11.74-8.8S102.18,57.88,100.11,57.55Z"/><path class="cls-18" d="M76.52,68.12c-.44.64,2.14,9.58,10,8.9s10.88-9.23,7.68-13.16S87,59.07,86,61.46s1,6.91-2.09,7.13S78.41,65.38,76.52,68.12Z"/><path class="cls-16" d="M100.88,54.6c-.08.28-6.67-1.88-7.67-4.79a6.34,6.34,0,0,1,0-4.79S103.39,45.71,100.88,54.6Z"/><path class="cls-14" d="M115.95,61.66s-16-13.79,7.13-20C134.13,53.47,119.07,60.23,115.95,61.66Z"/><path class="cls-14" d="M135.73,67.65c-4.35-2-7.57-26.3,5.09-18.45,0,0,8.36,13.64,6,16.92C144.18,69.9,137.4,68.42,135.73,67.65Z"/><path class="cls-19" d="M73.58,173.27s.9,10.6,1.41,16.11-2.76,18.08-2.76,18.08,7.27,34.28,32.07,34.28,34-33.93,34-33.93-12.57-13-8.48-30"/><path class="cls-20" d="M129.91,192.17a29.82,29.82,0,0,1-.13-14.38l-28.17-2c-11.23-.26-22.64-2.95-28.11-2.95.33,3.07,1.11,12.36,1.48,16.49.27,3-.55,8-1.36,12,1.73,1.18,5.5,3.5,7.93,6.13a116.54,116.54,0,0,0,10,8.81s19.41-1.52,22,0C116,217.69,124.7,196,129.91,192.17Z"/><path class="cls-21" d="M102.21,193.31c-28.09,0-34.85-33.42-37-51.56,0-22.76,4.27-42.67,6-44.8s30.22-5,34.14-8.53c6.76,3.2,27,10.31,29.16,10.67s2.84,29.51,3.56,32.71c1,10.31-.45,15.1-1.12,19.67-.52,3.55-.48,10.32-1,12.49S128.16,193.31,102.21,193.31Z"/><path class="cls-22" d="M88.93,172.54s7.49,9.2,13.57,9.2,13.44-10,13.44-10A34.27,34.27,0,0,0,88.93,172.54Z"/><path class="cls-23" d="M77.76,136.27s3.14-3.63,7-3.31a6.6,6.6,0,0,1,5.31,3Z"/><path class="cls-23" d="M114.19,136.27s2.7-3.34,5.85-3.33a5.59,5.59,0,0,1,5.42,4.26C125.78,138.95,114.19,136.27,114.19,136.27Z"/><path class="cls-20" d="M90,141.71s-4.37,1.6-7.09,1.23a10,10,0,0,1-4.9-2.47,6.31,6.31,0,0,1-.29-4.21l12.05,1.45S90.82,140.39,90,141.71Z"/><path class="cls-20" d="M118,142.55a13.21,13.21,0,0,0,6.23,0,12.48,12.48,0,0,0,4.13-2.07s-3.55-4.21-4.19-4.21-8,2.38-8,2.38S116.77,141.46,118,142.55Z"/><path class="cls-24" d="M63.93,138s-4.56-6.13-6.73-5.14-3.91,2.37,1.09,13.64c1.2,8.7,1.52,12.85,3.26,14.83s1.93,3.16,4.44,3.16,4-3.4,4-3.4-4.85-15.07-4.64-21.22Z"/><path class="cls-24" d="M138.26,136.73s3.12.59,4.51-1.38,3-2,3.76-1.19,1.78,5.48-2,14.5c-.59,9.81-1.43,15.87-5.34,15.87S136,163.2,136,163.2Z"/><path class="cls-17" d="M88,170.84s10.9-6.65,14.28-3.57c0,0,.75-.81,4.26-.81s9.4,3.76,9.4,3.76-9.65.5-14,.63S88,170.84,88,170.84Z"/><path class="cls-17" d="M115.95,170.21c-1.13,2.63-7.14,9-13,9S88,170.84,88,170.84"/><path class="cls-25" d="M93.19,149.5c-2,1.28-1.73,3.7-.58,5.48.09.14.58.08.48-.07-1.07-1.66-1.43-4,.45-5.24.24-.15-.22-.26-.35-.18Z"/><path class="cls-25" d="M111.16,150.4a4.41,4.41,0,0,1,0,5.49c-.1.13.38.2.48.07a4.53,4.53,0,0,0,0-5.63c-.1-.14-.58-.07-.48.07Z"/><path class="cls-25" d="M107.23,152.84a4.59,4.59,0,0,1,.51,1.72,2.7,2.7,0,0,1,0,1.09,1.85,1.85,0,0,1-1.95,1.15l-4.28,0c-.71,0-2.23.34-2.63-.45-.08-.15-.57-.1-.48.07.52,1,2.39.64,3.27.63l3.25,0c.69,0,2.09.26,2.67,0,1.25-.67.7-3.24.16-4.24-.08-.15-.57-.1-.48.07Z"/><path class="cls-26" d="M94.11,155.33s2.7-.69,3.68,1"/><path class="cls-27" d="M77.76,136.27s2.28-2,6.94-2S91.19,137,91.19,137s-1.92,1.55-6.72,1.55S77.76,136.27,77.76,136.27Z"/><path class="cls-27" d="M112.94,137.19a13,13,0,0,1,7.58-2.92c4.2,0,4.93,2.92,4.93,2.92s-.55,1.83-4,1.83-6.3-.64-7.31-.46S112.94,137.19,112.94,137.19Z"/><path class="cls-25" d="M93,137l-2.86-1.11a1.73,1.73,0,0,1,0,1.26l-.29.52a20.61,20.61,0,0,0,3.13-.28A.21.21,0,0,0,93,137Z"/><path class="cls-25" d="M111.38,138.14l1.34-.82a.24.24,0,0,1,.34.08c.2.35.63,1,1.07,1.15s-1.49.08-2.64,0A.24.24,0,0,1,111.38,138.14Z"/><path class="cls-28" d="M75.75,135.68a18.55,18.55,0,0,1,6.9-4.28c3.49-1,7.06,1.15,9.55,3.48.23.21,1.19.05.86-.25-2.4-2.24-5.84-4.32-9.23-4s-6.55,2.64-8.94,4.82c-.33.3.63.47.86.25Z"/><path class="cls-28" d="M111.12,136.06c4.39-3.68,14.18-6.37,16.06,1.14.09.36,1.07.29,1,0-2.1-8.37-13.18-5.37-17.92-1.39-.34.28.62.46.86.25Z"/><path class="cls-2" d="M94.14,128.64l-2.05-2.82"/><path class="cls-2" d="M80.49,127.8a13.27,13.27,0,0,0-3.91-1.36,6.29,6.29,0,0,0-4,.64"/><path class="cls-2" d="M81.35,127.35l-3.15-1.27a7.69,7.69,0,0,0-3.47-.8l.4.16"/><path class="cls-2" d="M82.94,127.69a9,9,0,0,0-4.82-3.09"/><path class="cls-2" d="M84.66,128.39a6.67,6.67,0,0,0-3.61-3.91c-.21-.09-.48-.33-.32-.5"/><path class="cls-2" d="M86.8,128.86a17.56,17.56,0,0,0-4-4.54"/><path class="cls-2" d="M88.5,129a7.63,7.63,0,0,0-3.58-4.6"/><path class="cls-2" d="M89.63,129.3c.3-.45,0-1-.24-1.51a14.24,14.24,0,0,0-2.83-3.32l.69.11"/><path class="cls-2" d="M91.22,129.45c-.26-1.94-1.74-3.47-3.14-4.85"/><path class="cls-2" d="M92.78,130A9.81,9.81,0,0,0,90,125.48"/><path class="cls-2" d="M94.86,130.19a7.05,7.05,0,0,0,.26-2,2.38,2.38,0,0,0-.88-1.79"/><path class="cls-2" d="M108.56,130.32a4.39,4.39,0,0,1,1.72-4.16"/><path class="cls-2" d="M110.09,130a8.73,8.73,0,0,1,2.82-4.18"/><path class="cls-2" d="M111.82,129.75a11.69,11.69,0,0,1,3.77-4.8"/><path class="cls-2" d="M114.48,129.45a9.57,9.57,0,0,1,3.79-4.47"/><path class="cls-2" d="M117.32,129.27a7.33,7.33,0,0,1,3.44-4.62"/><path class="cls-2" d="M119.78,128.41a6.64,6.64,0,0,1,4-4"/><path class="cls-2" d="M122.55,126.91a7.28,7.28,0,0,1,3.87-2.45"/><path class="cls-2" d="M124.2,127.81a7.93,7.93,0,0,1,4.13-2.11"/><path class="cls-2" d="M126.83,127.79a5.24,5.24,0,0,1,3.27-1.43"/><path class="cls-2" d="M128.84,127.76a4.48,4.48,0,0,1,2.89-.85"/><path class="cls-2" d="M131,128.4a.46.46,0,0,1,.73-.14"/><path class="cls-2" d="M100,130.47a3.76,3.76,0,0,0,0-2.22"/><path class="cls-2" d="M101.89,130.92a16.29,16.29,0,0,1,.13-3.4"/><path class="cls-2" d="M103.4,130.61a8.11,8.11,0,0,1,.32-4"/><path class="cls-2" d="M104.21,129.57a9.11,9.11,0,0,0,.79-2.79"/><path class="cls-29" d="M123.34,134.86a6.29,6.29,0,0,0-2.82-.59,10.69,10.69,0,0,0-3.83.76s-.64,2.74.63,3.53a2.61,2.61,0,0,0,.73.28c1,.1,2.16.18,3.38.18l.48,0,.41,0,.22,0C122.71,138.92,124.18,136.6,123.34,134.86Z"/><path class="cls-29" d="M87.16,138.31c1.49-.7.25-3.64.22-3.69a10.09,10.09,0,0,0-2.68-.35,14.17,14.17,0,0,0-3.37.39h0s-.35,2.91.55,3.65h.06c.15,0,.59.1,1.17.17a13.7,13.7,0,0,0,1.37.07,19.19,19.19,0,0,0,2.4-.14Z"/><path class="cls-30" d="M118.49,135.34h1l-.4.51A.55.55,0,0,1,118.49,135.34Z"/><circle class="cls-31" cx="85.06" cy="136.63" r="1.08"/><circle class="cls-31" cx="120.04" cy="136.63" r="1.08"/><path class="cls-24" d="M63.91,142.15s-2.38-3.81-4.11-3.09,1.92,4.61,2,6.34-1,4.33-.22,5.84,1,2.48,2.29,1.57"/><path class="cls-24" d="M141.59,141.14s1.94-3.57,3-2.57-.43,3-1.51,7.51"/><path class="cls-20" d="M92.94,155s-1.16,2.58.17,3,4.55,1.9,5.49,4.79a11.87,11.87,0,0,0,6.95,0s2.05-2.8,3.42-3.45,3.66-1.78,2.63-3.41a39.37,39.37,0,0,1-9.12,1.15A27.32,27.32,0,0,1,92.94,155Z"/><path class="cls-20" d="M98.6,136.82s2-6.43-4.87-6.64L86.9,130s9,5.45,9.05,6.84Z"/><path class="cls-20" d="M106.68,136.82s-2-6.43,4.87-6.64l6.84-.21s-9,5.45-9.05,6.84Z"/><path class="cls-32" d="M81.36,179.23c-1.69-5.36.38-27.85-4.13-30.56-4.07-2.46-10.6-13.46-11.81-15.53-.08,1.73-.13,3.49-.17,5.27q.1,3.46.39,6.64c1.89,13.72,6.49,33.45,19.38,42.86A51.81,51.81,0,0,1,81.36,179.23Z"/><path class="cls-32" d="M66,124.58c6.59-7.84,15.9-26.71,17.83-30.7C77.47,95,72,96.06,71.27,97,70,98.52,67.31,109.72,66,124.58Z"/><path class="cls-32" d="M137,151.47c.56-3.85,1.7-7.87,1.43-15.19-2.7,2.91-8.67,9-12,9.85-2.33,6.14-1.91,21,0,24.08a22.77,22.77,0,0,0,4.85,5.28A46.28,46.28,0,0,0,136,164C136.52,161.8,136.48,155,137,151.47Z"/><path class="cls-30" d="M83.25,135.46h1l-.4.51A.55.55,0,0,1,83.25,135.46Z"/><g class="cls-5"><path class="cls-23" d="M75.33,128.08c2.81-2.88,10.11-.48,13.52.28,4.19.93,8.1,1.86,12.43,1.59,5-.3,9.71-1.79,14.58-2.64,5.39-.94,9.49,0,14.33,2.3l2.77-3.55a29.72,29.72,0,0,0-12.57-1.16c-2.31.31-4.44,1.22-6.71,1.59s-4.56-.4-6.87-.27c-2.65.15-5,1-7.65.85-3-.22-5.94-1.26-8.94-1.77a55,55,0,0,0-14.66-.41l-2.49,3.56a9.62,9.62,0,0,1,7.52-.74c1,.29,2.88-3.52,2.77-3.55a9.74,9.74,0,0,0-7.8.73c-.67.33-2.91,3.6-2.49,3.56a53.9,53.9,0,0,1,16.17.73c5.14,1.06,8.2,1.51,13.39.82,2.45-.33,4.73.33,7.15.22a24.26,24.26,0,0,0,4.83-1.12,28.91,28.91,0,0,1,15.58.5c.86.26,3.08-3.4,2.77-3.55-4.63-2.17-8.66-3.27-13.74-2.45-5.77.92-11.39,2.82-17.29,2.85-7.53,0-19.58-7-25.78-.63-.64.65-2.76,4.24-.81,2.25Z"/></g></svg>