<svg id="Layer_1" data-name="Layer 1" xmlns="http://www.w3.org/2000/svg" viewBox="0 0 196 266.67"><defs><style>.cls-1{fill:#f8e4e3;}.cls-2{fill:#1d1611;}.cls-3{fill:#757679;}.cls-4{fill:#5c5d60;}.cls-5{fill:#ebc0a8;}.cls-6{fill:#d0af9b;}.cls-7{fill:#efc7b0;}.cls-8{fill:#6b3720;}.cls-9{fill:#d39c82;}.cls-10{fill:#ebf4f0;}.cls-11{fill:#572000;}.cls-12{fill:#e4b69d;}.cls-13{fill:#ebc4ad;}.cls-14{fill:#231f20;}.cls-15{fill:#381c15;}.cls-16{fill:#e6b6a1;}.cls-17{opacity:0.15;}.cls-18{fill:#be1e2d;}</style></defs><title>badbitchcards</title><rect class="cls-1" x="8.63" y="8.48" width="178.58" height="249.45" rx="8.5" ry="8.5"/><path class="cls-2" d="M72.81,55.06c7.31-6.14,13.75-10,16.77-9.42C92,42,115.76,40.72,125,46.46c0,0,24.36,1.43,25.79,29.08A25.28,25.28,0,0,1,155.06,95c1.57,12.49,1.91,15.79,1.57,19.67s-.34,7.33-.34,7.33-100.67-2.64-100.94-3-7.92-3.49-7.92-3.49S48,94.58,51.57,87.21s4-16.07,10.53-22S72.81,55.06,72.81,55.06Z"/><path class="cls-3" d="M118.65,67.32s15.32-1.14,24.12,7.33,9.94,8,9.94,8-20.62-19.41-34.06-15.32"/><path class="cls-3" d="M89.59,45.64s8.65,8.11,8.65,19.69a184.25,184.25,0,0,1-.93,19.46S105,55.14,89.59,45.64Z"/><path class="cls-3" d="M90.82,44.69s14.26,3,13.25,26.91C104.07,71.6,106.58,49.61,90.82,44.69Z"/><path class="cls-4" d="M98.44,74.35a19,19,0,0,1-14-11.08C81.55,57.09,81.75,50,83.26,43.51c0-.07-.23-.09-.25,0-1.67,7.19-1.71,15.2,2.19,21.72a18.91,18.91,0,0,0,13.18,9.25c.12,0,.23-.09.07-.12Z"/><path class="cls-4" d="M130.38,75c6.94,1.24,10.63,9.48,15.17,14.17,3.89,4,8.48,7.31,14.09,8.31.12,0,.23-.09.07-.12-7.41-1.33-12.93-6.68-17.5-12.32-3.26-4-6.24-9.18-11.75-10.16-.12,0-.23.09-.07.12Z"/><path class="cls-4" d="M143.83,91.55a22,22,0,0,0,15.22,8.92c.12,0,.23-.1.07-.12a21.8,21.8,0,0,1-15-8.83c-.05-.07-.29,0-.24,0Z"/><path class="cls-4" d="M112.17,72.1a16,16,0,0,0,8.71-10.76c1.55-6.15-.38-12.5-3.57-17.77,0-.07-.29,0-.24,0,5.54,9.17,6.24,23.23-5.08,28.41-.13.06.11.12.18.09Z"/><path class="cls-4" d="M116.17,75.19A25.59,25.59,0,0,0,120,43.32c0-.07-.29,0-.24,0A25.52,25.52,0,0,1,116,75.12c-.08.08.16.12.22.06Z"/><path class="cls-4" d="M75.77,78.67c-5.41,2.08-11.67,2.25-16.69-1A14.32,14.32,0,0,1,52.44,67c0-.09-.26-.08-.25,0,1.1,11.73,14,15.51,23.7,11.81.15-.06,0-.14-.13-.11Z"/><path class="cls-4" d="M69,89.74A30.36,30.36,0,0,1,47.75,73.49c0-.07-.28-.05-.24,0A30.56,30.56,0,0,0,68.93,89.86c.12,0,.23-.09.07-.12Z"/><path class="cls-4" d="M59.31,104.86c-4.15-1.65-10.47-2.9-14.69-.69-5.58,2.93,1.51,10.5-3.14,14.07h0c3-2.3,1.11-6.24.9-9.31-.57-8.17,12.2-5.94,16.9-4.07Z"/><path class="cls-4" d="M129.55,48a7.3,7.3,0,0,1,7.53-.16c2.06,1.15,2.63,2.89,3.46,4.92s1.93,3.68,4.18,3.28c0,0,0,0,0,0a3.93,3.93,0,0,1-3.47-1.74,9.43,9.43,0,0,1-.69-1.53,13.51,13.51,0,0,0-1.43-3.13A6.87,6.87,0,0,0,136,47.32a7.18,7.18,0,0,0-6.44.67Z"/><path class="cls-4" d="M61.71,67.14c1.51-4.24,3.23-7.86,7.82-9.28A7.68,7.68,0,0,0,73,55.32a18.82,18.82,0,0,1,5.81-4.11h0a18,18,0,0,0-5,3.27C72.55,55.68,71.6,57,69.9,57.75c-.78.34-1.65.41-2.42.79-3.23,1.62-4.65,5.4-5.78,8.59Z"/><path class="cls-5" d="M100.81,244.52c-30.49,0-43.18-49.6-43.18-49.6s13.43,2.64,12.13-14.74h0s55.59-6.2,62.92.86h0s-3.87,14.11-1,25.11S113.05,244.52,100.81,244.52Z"/><path class="cls-6" d="M69.24,187.61s22.64,15.65,27.55,15.65,9-5.67,9-5.67L99.13,185l-29.37-4.77Z"/><path class="cls-6" d="M117.09,186.31s2.37,11.72,1.91,14S130.64,197,130.64,197a81,81,0,0,1,2-16c1.83-6.83-13.68,0-13.68,0Z"/><path class="cls-7" d="M104.59,65.24c34.76,2.68,44.49,25.49,45.79,38.5s1.44,17.38,1.44,17.38,3.18-3.18,4.47.71-1.48,8.15-1.67,9.63,1.3,10-3.15,16.29c-2.78,6.48-3.52,9.63-6.29,9.81s-2.78-.93-2.78-.93-7.78,36.47-23.88,31.47c0,0-5,3.7-15.74,3.7s-30-1.94-38.88-21.2a56.87,56.87,0,0,1-4.44-25.5c-.16-2-1.32-7.34-3.95-16.59S61,61.88,104.59,65.24Z"/><path class="cls-5" d="M74.64,120a6.28,6.28,0,0,1-2.39.34c-1.1-.12.76-8,7.26-9.3s11.07,4.47,12.64,6.84L91,119Z"/><path class="cls-5" d="M116.08,121.79a3,3,0,0,1-1-1.4c-.22-.83,5.64-9,12.42-6.25a27,27,0,0,1,8.79,9.16s-1.15.15-2.22.37S116.08,121.79,116.08,121.79Z"/><path class="cls-8" d="M108,149c3-2.06,2.88-2.27,3.6-2a3,3,0,0,1,1.65,2,.54.54,0,0,1-.51.62"/><path class="cls-8" d="M99.7,149.66c-.82-.62-1.24-3.4-2.16-4.12,0,0-2.27,0-2.06,1.43"/><path class="cls-9" d="M112,151.32a5.3,5.3,0,0,0,4.27-3,4.51,4.51,0,0,0-.08-3.86c-.06-.15-.55-.11-.48.07a4.32,4.32,0,0,1,.22,3.37,4.91,4.91,0,0,1-4.07,3.17c-.33.05-.1.28.13.24Z"/><path class="cls-9" d="M92.56,140.77c-.69,2.22-1.1,5,0,7.12.08.15.57.1.48-.07-1.07-2.08-.67-4.83,0-7,.06-.19-.43-.22-.48-.07Z"/><path class="cls-10" d="M116.08,121.79c1.64.09,4.72-2.06,5.94-2.62s6.68-2.15,12.06,4.49c0,0-10.33,2.38-14.58-.89-.37-.42-2.34.56-3.18.23S116.08,121.79,116.08,121.79Z"/><path class="cls-10" d="M74.64,120a56.34,56.34,0,0,1,6.29-4.27c2.5-.73,5.72-.32,10.07,3.22a29,29,0,0,1-8.18,1c-4.95,0-6.57-.52-7.47.19C74.92,120.64,74.64,120,74.64,120Z"/><path class="cls-11" d="M86.68,118.6c-.28,1.26-1.34,1.55-4.85,1.42l-3.52-.13s-1.26-1.09-.56-2.14c1-.71,3.18-2,3.18-2a8.69,8.69,0,0,1,5.4.36S87.11,116.64,86.68,118.6Z"/><path class="cls-10" d="M84.68,117.17c.76,0,.57-.67,0-.67S83.92,117.17,84.68,117.17Z"/><path class="cls-11" d="M124.55,124.41c2.56,0,3.75-1.36,4-2.34s.93-3.48-3.92-3.48c-2.94,0-3.33,1.67-3.33,3A3.29,3.29,0,0,0,124.55,124.41Z"/><path class="cls-12" d="M137.6,124.5c-1.69-.69-3.35-5.48-7.26-8.66s-7.44-2.07-9.31-1.54c0,0,.21-1.44,1-1.92s4.9-2.54,9.47,1.38,6.25,8.58,7,9S137.6,124.5,137.6,124.5Z"/><path class="cls-12" d="M70.89,160.63c.27,6.51,1.77,15.36,3.75,19.14,0,0-2-16.33,0-21.31s-1.88-11.07-1.88-11.07A34.93,34.93,0,0,0,70.89,160.63Z"/><path class="cls-13" d="M46.16,116.5C50,113.2,56,118.6,56,118.6l.28.38s-.42,6.54-.13,8.12,4.32,17,4.24,18.17-.14,7,0,7.67-2.48,2.89-7.51-4.62-7-16.7-7.11-20.61-.61-5-1-5.72S45.05,117.47,46.16,116.5Z"/><path class="cls-14" d="M114.12,112.15a9.82,9.82,0,0,0-.1-2.29,3.21,3.21,0,0,1,0-1.65,2.76,2.76,0,0,1,1.14-1.17"/><path class="cls-14" d="M116,111.47a23.94,23.94,0,0,1,.32-3,3.32,3.32,0,0,1,.31-1.06,1.24,1.24,0,0,1,.84-.66"/><path class="cls-14" d="M115.35,111.63a5.09,5.09,0,0,0-.13-1.78,4.49,4.49,0,0,1-.08-1.78,1.59,1.59,0,0,1,1.13-1.26"/><path class="cls-14" d="M117.11,111.28a17.68,17.68,0,0,0,.58-2.45,4.31,4.31,0,0,1,.27-1.11,1.25,1.25,0,0,1,.82-.74"/><path class="cls-14" d="M118.62,110.93l.47-2.75a4.12,4.12,0,0,1,.39-1.36,1.4,1.4,0,0,1,1.12-.76"/><path class="cls-14" d="M119.67,110.22a19.12,19.12,0,0,0,1.06-3.36,3.23,3.23,0,0,1,2.33-2.4"/><path class="cls-14" d="M120.78,109.62a13.24,13.24,0,0,0,1.17-2.64,3.49,3.49,0,0,1,1.87-2.1.33.33,0,0,1,.33,0"/><path class="cls-14" d="M122.24,109.12a4.83,4.83,0,0,0,1.6-2.38,4.94,4.94,0,0,1,2.49-2.38c.49-.27-.43-.51-.71-.35a6.58,6.58,0,0,0-2.33,1.81c-.75,1.05-.79,2.22-1.92,3-.34.25.61.44.86.25Z"/><path class="cls-14" d="M123.78,108.21c.54-.62.85-1.4,1.32-2.07a2.34,2.34,0,0,1,2-1.15"/><path class="cls-14" d="M124.63,108.41l1.5-1.93a5,5,0,0,1,.88-.95,4.74,4.74,0,0,1,1.43-.66"/><path class="cls-14" d="M126,108.23a8.66,8.66,0,0,0,1.85-2.09,2.73,2.73,0,0,1,2.37-1.24"/><path class="cls-14" d="M127.09,108.17a8.56,8.56,0,0,0,1.72-1.57c.21-.28.38-.58.62-.83a2.38,2.38,0,0,1,1.43-.74"/><path class="cls-14" d="M128.53,108.43c1.29-.9,2-2.6,3.52-3.07a.53.53,0,0,1,.57.08"/><path class="cls-14" d="M129.91,108.43a12.72,12.72,0,0,0,2.06-1.77,2.77,2.77,0,0,1,2.47-.81"/><path class="cls-14" d="M131,109a19.78,19.78,0,0,1,2.22-2,2.19,2.19,0,0,1,.8-.45.8.8,0,0,1,.84.25"/><path class="cls-14" d="M131.59,109.57a10.82,10.82,0,0,1,3.41-2.19"/><path class="cls-14" d="M132.38,110l1.35-.94a3.78,3.78,0,0,1,2.59-1"/><path class="cls-14" d="M133.06,110.6a5.13,5.13,0,0,1,3.63-1.64"/><path class="cls-14" d="M133.49,111.23l1.77-1a3.36,3.36,0,0,1,2.22-.65"/><path class="cls-14" d="M134.28,111.83a20.24,20.24,0,0,1,1.83-1.16,1.72,1.72,0,0,1,1.53-.28"/><path class="cls-14" d="M135.3,112.32a2.39,2.39,0,0,1,2-.78"/><path class="cls-14" d="M136.51,112.57a.34.34,0,0,1,.35-.17"/><path class="cls-14" d="M67.64,108.18a6.9,6.9,0,0,1,3-2.16"/><path class="cls-14" d="M67.87,106.81A6.08,6.08,0,0,1,71.68,105"/><path class="cls-14" d="M68.65,105a10.66,10.66,0,0,1,4.26-1.27"/><path class="cls-14" d="M70.18,103.46a6.6,6.6,0,0,1,4.14-.16"/><path class="cls-14" d="M75.19,102.86a4.71,4.71,0,0,0-3.18-.48c-.11,0-.23.19-.12.21"/><path class="cls-14" d="M76.36,102.34a4,4,0,0,0-3.55-.75"/><path class="cls-14" d="M77.49,103A2.32,2.32,0,0,0,75.87,101c-.36-.1-.73-.12-1.08-.24"/><path class="cls-14" d="M78.63,103.71a3.63,3.63,0,0,0-1.83-3.22"/><path class="cls-14" d="M79.61,104.43a2.21,2.21,0,0,0,0-1.93,6.53,6.53,0,0,0-1.19-1.6"/><path class="cls-14" d="M80.78,104.94a1.92,1.92,0,0,0,0-1.7,16.31,16.31,0,0,0-.79-1.93"/><path class="cls-14" d="M81.35,106a2.2,2.2,0,0,0,.76-1.63,20.74,20.74,0,0,0-.58-2.47"/><path class="cls-14" d="M82.5,106.66A6.09,6.09,0,0,0,83,102.2"/><path class="cls-14" d="M83.94,106.19a3.94,3.94,0,0,0,.1-3.69"/><path class="cls-14" d="M85.08,106.24a3.72,3.72,0,0,0-.1-3.81"/><path class="cls-14" d="M86.34,102.68a9.42,9.42,0,0,1,.52,3.49"/><path class="cls-14" d="M87.53,103.2a4.21,4.21,0,0,1,.69,2.66,1,1,0,0,0,.11.76"/><path class="cls-14" d="M88.94,103.49a2.61,2.61,0,0,1,.93,2.09c0,.37.05.8.36,1"/><path class="cls-14" d="M90.37,104l1.13,3"/><path class="cls-14" d="M91.51,104.45a6.55,6.55,0,0,1,1,2.77"/><path class="cls-14" d="M92.63,104.75a9.5,9.5,0,0,1,1.1,3.23"/><path class="cls-14" d="M95.09,108a3.48,3.48,0,0,0-.56-2.76"/><path class="cls-14" d="M96.11,108.73a4,4,0,0,0-.21-2.35"/><path class="cls-14" d="M97.45,108.07l-.19-1.33"/><circle class="cls-2" cx="125.17" cy="120.93" r="0.93"/><circle class="cls-2" cx="82.13" cy="117.48" r="0.93"/><path class="cls-12" d="M99.61,150.11c-5.7,4.23-15.26-1.84-7-9.38,0,0-1.7,5,.05,7.26,2.75-.92,2.16-1.67,6.77,1.55C99.45,149.54,99.81,149.62,99.61,150.11Z"/><path class="cls-12" d="M103.79,98.3s.54,9-1.08,12.43A25.27,25.27,0,0,1,103.79,98.3Z"/><path class="cls-12" d="M111.07,109.41c.38-6.12,1.4-7.14,1.4-7.14s-.64-.51-1-.13-1.28,7-1.28,8.29C110.82,110.29,111.07,109.41,111.07,109.41Z"/><path class="cls-5" d="M71.07,119.06s-4-.76-4.56-2.93Z"/><path class="cls-5" d="M70.83,120.16c-5.1-.36-6.56.36-6.56.36S66.73,119.07,70.83,120.16Z"/><path class="cls-5" d="M71.61,120.77c-3.39,1.42-3.88,3.51-3.88,3.51S67.74,121.63,71.61,120.77Z"/><path class="cls-5" d="M136.15,124.79c1.69,3.39,8.47,2.78,8.47,2.78S138.81,127.21,136.15,124.79Z"/><path class="cls-5" d="M137.74,124.9c1.12,1.06,4.76.79,4.76.79S139.19,126.82,137.74,124.9Z"/><path class="cls-5" d="M135.44,126c2.26,1.9,3.8,2.85,5.59,5.83A70.41,70.41,0,0,1,135.44,126Z"/><path class="cls-15" d="M122,119.17c-1.12.52-3.82,2.38-5.52,2.59,3.64-.23,5.75-3.18,9.06-2.86s8.51,4.76,8.51,4.76C128.7,117,123.23,118.61,122,119.17Z"/><path class="cls-15" d="M80.93,115.75A56.34,56.34,0,0,0,74.64,120s6-4.47,9.37-4.12,5.5,3.07,7,3.07C86.65,115.43,83.43,115,80.93,115.75Z"/><path class="cls-12" d="M116.14,124.37c1.82,2.55,8.76,6,8.76,6S116.82,127.17,116.14,124.37Z"/><path class="cls-12" d="M91.91,121.68a40.89,40.89,0,0,1-8.08,6S89.89,125.3,91.91,121.68Z"/><path class="cls-12" d="M92.77,123.05s2.49,2.4,5.26,2.4A5.91,5.91,0,0,1,92.77,123.05Z"/><path class="cls-12" d="M97.75,126.83s-4.15.37-4.89-1.2C92.86,125.63,94,127.85,97.75,126.83Z"/><path class="cls-12" d="M116.31,123a2.59,2.59,0,0,0,1.33-.05l.11-.07a1,1,0,0,0-.32-1.35,3.67,3.67,0,0,1-1.35.26S115.47,122.68,116.31,123Z"/><path class="cls-16" d="M118.53,166.08c-5.46-.24-10.93-3.52-12-3.52s-2.55,1.46-3.76,1.21,0,0-1.82-1.21-15.9.36-18.33.49c0,0,5,8.29,17.79,8.91s17.67-1.65,19.94-4.65Z"/><path class="cls-12" d="M93.86,117.93c-2.57,1.58-7.87-7.49-12.43-7.13a10.35,10.35,0,0,0-8.95,6.49h0S76.84,101.17,93.86,117.93Z"/><path class="cls-12" d="M81.32,162.22s11.84.52,15.25-.62a10.25,10.25,0,0,1,6.23,2.05,8.4,8.4,0,0,1,3.42-1c1.59,0,11.77,3.68,14.12,3.68,2.58,1.14,2.69,1.54,2.69,1.54a1.21,1.21,0,0,1-1.45-.05c-.68-.59-.28-.56-1.72-.48s-9-1.39-11.82-2.22c-2.73-.23-3.11.32-5.31.32s-3.34-1.38-4.18-1.31-9.55-1-15.32-.27A4.72,4.72,0,0,1,81.32,162.22Z"/><g class="cls-17"><path class="cls-15" d="M68.89,106.66c5-6.84,9.15-.85,14.68-.14A44.53,44.53,0,0,1,96,109.59c.43.19,2-1.86,1.87-2.27-.93-3.08-8.17-3.7-10.9-4.49-2.94-.84-8.3-3.73-11.12-2.11-.53.31-1.81,2.47-1.37,2.22,2.36-1.36,9.2,1.84,11.52,2.51s9.17,1.44,10,4.05l1.87-2.27a40.93,40.93,0,0,0-11.69-3c-3.29-.4-5.49-2.75-8.61-3.21-4.28-.64-7.34,2.86-9.59,5.94-1.23,1.68.31.56.93-.29Z"/></g><g class="cls-17"><path class="cls-15" d="M137.35,112.69c-2.91-11-16.26-6.44-23.5-3.28l2,2.16c1.54-3.06,5.16-4,8.31-4.42,5-.68,9,0,11.74,5.19.41.77,2.63,2.22,1.72.53-2.16-4-4.67-7.5-9.46-8.2s-12,.16-14.4,4.87c-.34.68,1.31,2.47,2,2.16,4-1.77,17.58-7.74,19.6-.14.19.71,2.37,2.6,2,1.11Z"/></g><path class="cls-12" d="M85.07,106.12s13.31,1.82,16.14,4.19,2,16.32,2,16.32-4.38-.91-4.56-3,7.38-14.4-13.13-13.31C85.53,110.31,83.16,109.4,85.07,106.12Z"/><path class="cls-18" d="M32.45,32H24.53l-1.89,5H20l7.11-17.87H30L37.06,37H34.39Zm-7-2.29h6.15l-3.1-8Z"/><path class="cls-18" d="M164.87,237.81h7.91l1.89-5h2.65l-7.11,17.87h-2.85l-7.11-17.87h2.67Zm7,2.29h-6.15l3.1,8Z"/><path class="cls-18" d="M36.13,52.74,29.31,41.88a.78.78,0,0,0-1.31,0L21.16,52.74a.78.78,0,0,0,0,.83L28,64.43a.78.78,0,0,0,1.31,0l6.83-10.87A.78.78,0,0,0,36.13,52.74Z"/><path class="cls-18" d="M176,217.68l-6.83-10.87a.78.78,0,0,0-1.31,0L161,217.68a.78.78,0,0,0,0,.83l6.83,10.87a.78.78,0,0,0,1.31,0L176,218.51A.78.78,0,0,0,176,217.68Z"/></svg>