<svg id="Layer_1" data-name="Layer 1" xmlns="http://www.w3.org/2000/svg" viewBox="0 0 196 266.67"><defs><style>.cls-1{fill:#f8e4e3;}.cls-2{fill:#be1e2d;}.cls-3{fill:#f1c9b1;}.cls-4{fill:#d0af9b;}.cls-5{fill:#e4b69d;}.cls-6{fill:#381c15;}.cls-7{fill:#231f20;}.cls-8{fill:#6b3720;}.cls-9{fill:#d39c82;}.cls-10{fill:#e9aba8;}.cls-11{fill:#ebf4f0;}.cls-12{fill:#572000;}.cls-13{fill:#1d1611;}.cls-14{fill:#cea28b;}.cls-15{fill:#c8a89f;}.cls-16{fill:#e9c3ac;}.cls-17{opacity:0.15;}.cls-18{fill:#eab286;}.cls-19{fill:#fece9c;}.cls-20{fill:#dca66d;}</style></defs><title>badbitchcards</title><rect class="cls-1" x="8.63" y="8.48" width="178.58" height="249.45" rx="8.5" ry="8.5"/><path class="cls-2" d="M22,30.84a3.53,3.53,0,0,0,3.68,3.38,3.34,3.34,0,1,0,0-6.68,4.19,4.19,0,0,0-3,1.18c-.86-.33-1.59-.66-2.42-1l2.12-8.12H31v2.27H24L22.8,26.6a4.58,4.58,0,0,1,3.33-1.21,5.18,5.18,0,0,1,5.55,5.42c0,3.07-2.37,5.57-6,5.57-3.48,0-5.82-2.27-6-4.84Z"/><path class="cls-2" d="M21.71,42.91c2.57,0,3.86,1.22,5.14,3.64,1.28-2.42,2.57-3.63,5.14-3.64a5,5,0,0,1,5.18,4.89c0,4.9-5.15,9.8-10.31,14.71-5.16-4.9-10.32-9.81-10.31-14.71A5,5,0,0,1,21.71,42.91Z"/><path class="cls-2" d="M173.61,224.89c-2.57,0-3.86-1.22-5.14-3.64-1.28,2.42-2.57,3.63-5.14,3.64a5,5,0,0,1-5.18-4.89c0-4.9,5.15-9.8,10.31-14.71,5.16,4.9,10.32,9.81,10.31,14.71A5,5,0,0,1,173.61,224.89Z"/><path class="cls-2" d="M173.32,235.78a3.53,3.53,0,0,0-3.68-3.38,3.34,3.34,0,1,0,0,6.68,4.18,4.18,0,0,0,3-1.18c.86.33,1.59.66,2.42,1L172.94,247h-8.62V244.7h7l1.21-4.69a4.58,4.58,0,0,1-3.33,1.21,5.18,5.18,0,0,1-5.55-5.42c0-3.07,2.37-5.57,6-5.57,3.48,0,5.82,2.27,6.05,4.84Z"/><path class="cls-3" d="M80.34,165s1.08,10,1.58,15.47-2.75,18.05-2.75,18.05,7.25,34.23,32,34.23,33.91-33.88,33.91-33.88-12.55-13-8.47-30"/><path class="cls-4" d="M81.33,166.64c-.28.68,1.94,24.47,2.21,25s5.07,3.44,7.86,6.84a108.25,108.25,0,0,0,8.87,8.79s17.23-1.52,19.55,0,11-23.35,15.42-24.59c0,0,.83-9.57.85-13S81.33,166.64,81.33,166.64Z"/><path class="cls-3" d="M81,75c19.19-7.88,46.78-7,61.17,56.34,4.8,31.52-1.37,30.83-2.4,34.26-1.71,6.17-3.77,12-10.28,11-7.88,2.74-23.18,4.8-27,4.11s-12.39,5.09-19.24-1.77c0,0-9.94-5.2-13.78-20.79s-8.74-30.73-6.71-49.25S81,75,81,75Z"/><path class="cls-5" d="M77.38,127.39l-3.15.26s1.68-9.17,8-11.09,12.14,3,13.17,4.8-1.25,1.49-1.25,1.49Z"/><path class="cls-5" d="M114.36,109.47A11.55,11.55,0,0,1,127.95,116l-1.2.56-18.11,3S107.48,111.54,114.36,109.47Z"/><path class="cls-6" d="M75.9,127.51s2.48-5.6,6.71-6.77,8.16,2,8.16,2L75.9,127.51"/><path class="cls-7" d="M108.53,110.26c-.18-.08-.2-.34-.17-.54a3.35,3.35,0,0,1,1.72-2.43"/><path class="cls-7" d="M109.9,110a8.46,8.46,0,0,1,2.71-3.33"/><path class="cls-7" d="M113.15,108.65a3.1,3.1,0,0,1,2.27-2.66"/><path class="cls-7" d="M115.45,108.15a3.94,3.94,0,0,1,2.87-2.66"/><path class="cls-7" d="M118.56,107.93a4,4,0,0,1,2.78-2.92"/><path class="cls-7" d="M121.14,107.22a4.7,4.7,0,0,1,2.5-2.43"/><path class="cls-7" d="M123,107a1.8,1.8,0,0,1,1.5-1.25"/><path class="cls-6" d="M111.46,118.31l15.28-1.79h0a9.18,9.18,0,0,0-7.64-4.16c-5.21,0-7.64,5.95-7.64,5.95"/><path class="cls-7" d="M90.8,114.45a4.72,4.72,0,0,0-1.95-2.56"/><path class="cls-7" d="M89.75,114.92a4.06,4.06,0,0,0-2.51-2.56"/><path class="cls-7" d="M87.83,114.86a9.43,9.43,0,0,0-3-2"/><path class="cls-7" d="M85.82,115.06A4.2,4.2,0,0,0,83,113.21"/><path class="cls-7" d="M83.52,114.94a10.06,10.06,0,0,0-3.25-1.14"/><path class="cls-7" d="M81.27,115.36A7.76,7.76,0,0,0,78.19,114"/><path class="cls-7" d="M76.39,115.68a4.26,4.26,0,0,1,3.26,1.09"/><path class="cls-7" d="M77.36,117.11a4.85,4.85,0,0,0-2.91-.91"/><path class="cls-7" d="M74.62,117.63a5,5,0,0,0-3.32-.56"/><path class="cls-7" d="M73.49,118.69a3.77,3.77,0,0,0-3.53-.3"/><path class="cls-7" d="M71.31,119.65a4,4,0,0,0-3.05.45"/><path class="cls-7" d="M69.74,120.74a2.12,2.12,0,0,0-1.95,1.21"/><path class="cls-7" d="M69,121.78A4.35,4.35,0,0,0,67.23,124"/><path class="cls-8" d="M99.65,143.26s-.69-2.41,1.2-2.58A3.85,3.85,0,0,1,104,142"/><path class="cls-8" d="M109.18,140.67s2-4,3.56-1"/><path class="cls-9" d="M97.07,134.8c-2.2,1.73-4.11,4.68-2.85,7.49a5.28,5.28,0,0,0,5.41,3.06c.5-.06.15-.4-.2-.36a4.65,4.65,0,0,1-4.89-4.83c.1-2,1.62-4,3.17-5.17.25-.2-.46-.34-.65-.19Z"/><path class="cls-9" d="M112.42,132.54c1.69,1.74,4.66,5.54,2.53,8.08-.15.18.56.3.72.1,2.21-2.63-.85-6.55-2.6-8.37-.16-.17-.89-.06-.65.19Z"/><path class="cls-10" d="M91.91,162.8a6.83,6.83,0,0,1,4-3.92c3.13-1.17,7.35-4.31,8-4.41a34.26,34.26,0,0,1,4.5.69,17.6,17.6,0,0,1,3.52-2.35c1.17-.39,12.43-.2,13.8.59s1,2,.59,1.17c-.59-1.17-11.1,3.82-13.63,5.19s-13,1.56-15.35,1C94.15,160,92.89,163.09,91.91,162.8Z"/><path class="cls-11" d="M111.46,118.31s3.72-4.54,7.44-4.69,7.84,2.9,7.84,2.9-5.21,2.31-7.64,2.6-7,.37-7,.37Z"/><path class="cls-11" d="M77.38,127.39s4.61.82,8.11-.45,5.8-2.31,5.8-2.31l-.52-1.93s-5.06-1.19-7.74,0S77.38,127.39,77.38,127.39Z"/><path class="cls-9" d="M94.15,122.85c.95.95-2.86,1.79-2.86,1.79l-.52-1.93S93.39,122.08,94.15,122.85Z"/><path class="cls-9" d="M108.63,119.5c.89,1.79,3.5,0,3.5,0l-.67-1.19Z"/><path class="cls-12" d="M84.67,126.35a3.64,3.64,0,0,0,2.46-4.15s-3.09,0-4.1.5a28.47,28.47,0,0,0-2.44,1.57A3.33,3.33,0,0,0,84.67,126.35Z"/><path class="cls-12" d="M118.61,118.31c2.23-1,3-2.67,2.61-4.42-2.12-.93-4.62.33-4.62.33l-2.24,1.36A3.73,3.73,0,0,0,118.61,118.31Z"/><circle class="cls-13" cx="83.89" cy="123.99" r="0.88"/><circle class="cls-13" cx="117.84" cy="115.36" r="0.88"/><path class="cls-14" d="M74.23,127.65s4.44-9.22,9.66-10,11.55,5,11.55,5-.72-6.28-12.42-6.28C79.64,116.36,73.37,124.3,74.23,127.65Z"/><path class="cls-14" d="M108.63,119.5s2.46-8.58,7.34-9.24,10.06,1.93,12,5.7C121.84,103.07,107,110,108.63,119.5Z"/><path class="cls-15" d="M91.91,162.8c.63.19,1.39-1,2.71-1.73a2.39,2.39,0,0,0-1.14-.63A6.53,6.53,0,0,0,91.91,162.8Z"/><path class="cls-15" d="M126.37,154.57c.4.81.78-.39-.59-1.17a2.56,2.56,0,0,0-.67-.21,8.41,8.41,0,0,0-.66,1.48C125.5,154.37,126.23,154.29,126.37,154.57Z"/><path class="cls-16" d="M115.53,141.8S125.05,152,128.28,153c0,0-11.22-10.15-11.74-10.89S115.53,141.8,115.53,141.8Z"/><g class="cls-17"><path class="cls-6" d="M110.11,108.61c-.83,1.36,1,.22,1.76,0,1.13-.29,2.31-.53,3.45-.76a17.8,17.8,0,0,1,7.6-.1l2.61-3.57a15.64,15.64,0,0,1-3.45,0,20.94,20.94,0,0,0-4.84.75,43.39,43.39,0,0,0-7.67,2.7,5.24,5.24,0,0,0-2.05,2.3c-.14.32-.77,1.51.09,1.1a39,39,0,0,1,8.25-2.76c2.39-.52,5,.08,7.22-.47.67-.17,3.13-3.46,2.61-3.57-6.12-1.31-14.26-.07-17.72,5.59-1.47,2.4,1.63-.36,2.14-1.21Z"/></g><g class="cls-17"><path class="cls-6" d="M68.58,122.5c3.28-4.51,7.47-4.48,12.1-6.3,3-1.2,5.43-2.75,8.54-.72l2.61-3.57a34.79,34.79,0,0,0-16.36,3.48c-2.06,1-6.76,3.26-1.66,2.61,3-.38,6.36-2,9.21-3,1.18-.38,2.54-3.63,2.45-3.6-6,1.92-15.68,2.86-17.54,10.16-.17.68.43.34.73.12a33.7,33.7,0,0,1,20.73-6.23c.69,0,3.23-3.16,2.61-3.57-2.25-1.47-4.07-1.21-6.56-.37-3.07,1-6.41,2-9.44,3.2-4,1.52-6.54,4.69-9,8-1.83,2.52.59,1,1.55-.31Z"/></g><path class="cls-18" d="M86.57,55.3c10.75-3.13,40.6-7.26,66.37,48.78s1.61,81.64-.53,84l-4.07,1a24.06,24.06,0,0,1-8.73,5.62,48.32,48.32,0,0,1-12.22-2.33s-6.4-5.82-4.65-9.5,26.3-20,16-44.18S119,78.06,91.94,75.91s-41,47.27-15.28,94.36c6.43,11,13.67,15.28,13.67,15.28s0,1.34-2.14,3.48,3.75,4.56,3.75,4.56-6.17,8.85-16.89,9.38-12.6-2.14-14.21-1.34-5.09-1.88-12.33-5.09-16.35-5.9-18.23-16.62,7.24-29.22,7.77-50.13,10.37-82,48.51-74.49"/><path class="cls-3" d="M84.06,55.44l1.72,22.25a32.47,32.47,0,0,1,4.08-1l0,0c-1.26-1.8-2.88-16-3.24-20.91V55.3a14,14,0,0,1-1.65.12Z"/><path class="cls-19" d="M60,176.11c5.7-2.45,8-8.19,7.22-14.18-.6-4.75-2.77-9.11-4-13.7-1.47-5.43-1.7-11.07-1.81-16.66-.22-10.79-.62-21.64-.45-32.43.08-5.23.56-10.75,2.94-15.51C67,77.35,74.49,72.89,81.14,76.81c.72.43,3.41-.67,2.33-1.31-5.79-3.41-13.06-1.55-18,2.65-7.16,6.13-7.54,16.29-7.47,25,.1,12.44-.31,25.18.85,37.57.57,6,2.58,11.32,4.31,17.06s2.49,14.37-4.3,17.29c-1.86.8-.14,1.54,1.1,1Z"/><path class="cls-19" d="M91.22,67.14c-1.27-7.76,11.35-6.75,15.16-5.63a31.36,31.36,0,0,1,9.55,5c5.75,4.21,10.28,9.74,14.31,15.56a129.47,129.47,0,0,1,22.65,78.2c-.43,10.45-4,23,3.35,31.87.87,1.05,3.61-.12,2.65-1.3-5.32-6.47-4.37-14.89-3.64-22.68a136.2,136.2,0,0,0,.29-23.38A131.7,131.7,0,0,0,143,98.28c-6.29-13.13-14.87-27.54-27.59-35.35-5.26-3.23-11.33-5.18-17.53-4.22-4.76.74-10.51,3.58-9.59,9.2.23,1.39,3.13.65,2.9-.78Z"/><path class="cls-20" d="M35.69,155.28c3.71,11.33-4,24,3.43,34.41a21.52,21.52,0,0,0,22,8.33c1.16-.24,2.55-1.56.52-1.13-9.53,2-19.94-4.38-22.47-13.84s2.49-19.1-.6-28.54c-.23-.71-3.11.13-2.9.78Z"/></svg>