<svg id="Layer_1" data-name="Layer 1" xmlns="http://www.w3.org/2000/svg" viewBox="0 0 196 266.67"><defs><style>.cls-1{fill:#f8e4e3;}.cls-2{fill:#231f20;}.cls-3{fill:#010101;}.cls-4{fill:#f5e0cd;}.cls-5{fill:#efc7b0;}.cls-6{fill:#ebc4ad;}.cls-7{fill:#cea28b;}.cls-8{fill:#e7c1aa;}.cls-9{fill:#8f5f4a;}.cls-10{fill:#ebf4f0;}.cls-11{fill:#514835;}.cls-12{fill:#9c7761;}.cls-13{fill:#e4b69d;}.cls-14{fill:#6b3720;}.cls-15{fill:#c29487;}.cls-16{fill:#f8e8d7;}.cls-17{fill:#1d1611;}.cls-18{fill:#d4b29e;}.cls-19{opacity:0.15;}.cls-20{fill:#381c15;}.cls-21{fill:#fff7e1;}.cls-22{fill:#413733;}.cls-23{fill:#fffef9;}</style></defs><title>badbitchcards</title><rect class="cls-1" x="8.63" y="8.48" width="178.58" height="249.45" rx="8.5" ry="8.5"/><path class="cls-2" d="M22.25,30.5l2.47-.55v1.69c0,2.37,1.29,3.43,3.08,3.43s2.92-1.18,2.92-3.25V19.11h2.47V31.64c0,3.13-2,5.72-5.37,5.72-3.5,0-5.57-2.27-5.57-5.7Z"/><path class="cls-3" d="M28.85,41.91c4.64,4.41,9.27,8.82,9.27,13.22a4.53,4.53,0,0,1-4.65,4.39c-2.12,0-3.27-.92-4.34-2.76,1.07,3.82,2.22,5.74,4.34,5.74H24.23c2.12,0,3.27-1.92,4.34-5.74-1.07,1.84-2.22,2.76-4.34,2.76a4.53,4.53,0,0,1-4.65-4.39C19.57,50.73,24.21,46.32,28.85,41.91Z"/><path class="cls-2" d="M174,239.3l-2.47.55v-1.69c0-2.37-1.29-3.43-3.08-3.43s-2.92,1.18-2.92,3.25v12.71h-2.47V238.16c0-3.13,2-5.72,5.37-5.72,3.5,0,5.57,2.27,5.57,5.7Z"/><path class="cls-3" d="M167.42,227.89c-4.64-4.41-9.27-8.82-9.27-13.22a4.53,4.53,0,0,1,4.65-4.39c2.12,0,3.27.92,4.34,2.76-1.07-3.82-2.22-5.74-4.34-5.74H172c-2.12,0-3.27,1.92-4.34,5.74,1.07-1.84,2.22-2.76,4.34-2.76a4.53,4.53,0,0,1,4.65,4.39C176.7,219.07,172.06,223.48,167.42,227.89Z"/><path class="cls-4" d="M142.19,108.22H148l4.3,13.12s5.68,35.22-10.07,46.36l-4.09,3.81-70.85,1.22s-17.74-3.57-18.13-33.87,3.6-25.29,3.6-25.29,9.54-15.92,10.19-15.7,73.85,0,73.85,0l5.42,10.35"/><path class="cls-5" d="M104.54,243.09c26.34,0,37.3-42.84,37.3-42.84s-11.6,2.28-10.48-12.73h0s-48-5.36-54.35.74h0s3.34,12.19.83,21.69S94,243.09,104.54,243.09Z"/><path class="cls-6" d="M58.58,124.18s-1.19-2.54-5.43-2.54c-4.58,0-5.77,9.93-1.36,17.23,0,0,0,6.88,1.19,9.12s2.5,17.81,15.16,12.74C68.15,160.73,62.66,133.42,58.58,124.18Z"/><path class="cls-6" d="M151.72,121.75c4.41,0,4.75,8.84,0,18.86,0,0-2.37,7.23-2,11s.34,6-1.36,8.29-8.64,5.22-8.64,5.22a81.14,81.14,0,0,0,3-23l-.51-18.6Z"/><path class="cls-7" d="M101,207.2c8.91,0,18.24-4.76,24.33-13.72L83.56,195.4S90.78,207.2,101,207.2Z"/><path class="cls-8" d="M100.89,200.75c13.25,0,16.06-1.78,19.88-4.08s10.45-6.88,15-18.86c5.25-13.7,7.39-23.52,7.39-32.12,0-6.89,0-6.87-1-37.47,0,0-4.59-3.57-41.29-3.57s-39.13-.13-48.17,8.92c3.57,11.72,12.74,42.57,12.74,47.15s.25,12.49,4.08,17.59,3.82,14,14,17.08C83.56,195.4,92,201.14,100.89,200.75Z"/><path class="cls-5" d="M111,200.2c4.43-6.07,9.92-16.81,11.59-16.81s.74,7,.94,6.65,11.84-25.32,14.53-25.32h2.21a69.62,69.62,0,0,0,3-19c0-6.89,0-6.87-1-37.47,0,0-4.59-3.57-41.29-3.57s-39.13-.13-48.17,8.92c3.57,11.72,12.74,42.57,12.74,47.15s.25,12.49,4.08,17.59a29.13,29.13,0,0,1,3,6c1.89,4.39,4.15,9.07,11,11.11,0,0,8.4,5.75,17.33,5.35a75.45,75.45,0,0,0,10.22-.55Z"/><path class="cls-9" d="M103.16,127.15h6.56s3.24-5.29,15.56-5.29a122.15,122.15,0,0,1,19.33,1.25,9.62,9.62,0,0,1,.66,5.1c-2.91,2.11-4.1,22.75-13.88,22.75s-21.91-.46-22.47-11.25c-.53-10.18-2.36-9.25-7.39-9.25C98,130.46,98,133,98,137s-4.36,12.72-15.59,12.72-17.58-6.87-17.58-19.43c0,0-.93-4-4-5.25l-3-1.23s-.26-3.83,1.06-4.36,25.06-1.85,38.59,6.74C97.43,126.23,98.45,127.15,103.16,127.15Z"/><path class="cls-5" d="M111.24,131.14c2.31-4.61,15.26-9,27.85-2.48,0,0,4.61,20.58-13.93,20.58C114.79,149.23,109.65,142.31,111.24,131.14Z"/><path class="cls-5" d="M67.25,126.7c0-4.77,18.1-5,27.85,3C98,144.8,85.87,148,81.17,148S67.25,148.34,67.25,126.7Z"/><path class="cls-10" d="M114.13,131.81c3.4-2.67,8.14-9.39,17.38-.93C131.51,130.88,125.68,133.51,114.13,131.81Z"/><path class="cls-10" d="M76.09,129.63c5.1-2.55,9.13-1.46,14.53,2.19-12,3.87-16.84,0-16.84,0Z"/><path class="cls-11" d="M122.82,132.37c2.85-.19,3.87-2.9,3.47-5a7.29,7.29,0,0,0-7.42.6A3.8,3.8,0,0,0,122.82,132.37Z"/><path class="cls-11" d="M81.78,133.53c4.26,0,4.23-4.3,4.23-4.3a11.13,11.13,0,0,0-8-.42S78,133.24,81.78,133.53Z"/><path class="cls-12" d="M112.55,124.18a4.33,4.33,0,0,1,2.45-3"/><path class="cls-12" d="M115.1,122.65a7.43,7.43,0,0,1,3.28-3.11"/><path class="cls-12" d="M118.2,122.13a5.3,5.3,0,0,1,3.65-4.3"/><path class="cls-12" d="M121.19,121a12.77,12.77,0,0,1,1.44-2.75,4.3,4.3,0,0,1,2.51-1.72"/><path class="cls-12" d="M123.32,121l1.64-2.79a7.74,7.74,0,0,1,1.18-1.66,2.61,2.61,0,0,1,1.81-.81"/><path class="cls-12" d="M122.75,120.66a9.21,9.21,0,0,1,3.56-4.76"/><path class="cls-12" d="M117.51,121.32a2.71,2.71,0,0,1,1.47-1.72"/><path class="cls-12" d="M113.86,123.26a5.3,5.3,0,0,1,1.6-2.38"/><path class="cls-12" d="M125.79,119.74a5.16,5.16,0,0,1,3.89-3.48"/><path class="cls-12" d="M126.75,119.31a8.5,8.5,0,0,1,1.47-2.49,2.88,2.88,0,0,1,2.61-1"/><path class="cls-12" d="M130.32,118.64a4.87,4.87,0,0,1,4.69-3"/><path class="cls-12" d="M132.89,117.61a2.63,2.63,0,0,1,2.46-1"/><path class="cls-12" d="M133.51,118.48a2.28,2.28,0,0,1,2.29-1.25"/><path class="cls-13" d="M135.11,118.25l.57-.34"/><path class="cls-12" d="M89.46,122.42s.08,0,0,.06-.09,0-.13-.06l-1.71-2"/><path class="cls-12" d="M87.6,122A2.67,2.67,0,0,0,86,119.92"/><path class="cls-12" d="M85.62,121.64a3.44,3.44,0,0,0-1.34-2.55"/><path class="cls-12" d="M84,121.09a6.38,6.38,0,0,0-1.36-2.6"/><path class="cls-12" d="M82.26,120.49A3.39,3.39,0,0,0,80.39,118"/><path class="cls-12" d="M80.68,120.41a3.06,3.06,0,0,0-2.34-2.67"/><path class="cls-12" d="M78.7,120a5.58,5.58,0,0,0-2.75-2.3"/><path class="cls-12" d="M76.44,119.49a4.2,4.2,0,0,0-2.39-1.1"/><path class="cls-12" d="M74.24,119.27a9.39,9.39,0,0,1-2.15-.58"/><path class="cls-12" d="M75.62,118.15a3.76,3.76,0,0,1,1.8,1.66"/><path class="cls-12" d="M78,118.36A3,3,0,0,1,79.55,120"/><path class="cls-14" d="M91,157.39c3.73-.53,7.45,2.31,9.94,5.32"/><path class="cls-14" d="M116.92,158.93c-3.19-1.63-6.3.83-9.23,3.76"/><path class="cls-13" d="M101.29,164c1.85.44,4.08.73,5.88,0,.5-.22-.42-.48-.71-.35a7.86,7.86,0,0,1-4.66,0c-.35-.08-1.14.28-.5.43Z"/><path class="cls-13" d="M91.42,149.11A8.24,8.24,0,0,0,89.58,158c.14.3,1.12.21,1-.13a7.94,7.94,0,0,1,1.73-8.5c.31-.34-.65-.49-.86-.25Z"/><path class="cls-13" d="M115,149.36a7.93,7.93,0,0,1,1.73,8.5c-.15.34.83.44,1,.13a8.25,8.25,0,0,0-1.84-8.89c-.21-.23-1.17-.09-.86.25Z"/><path class="cls-7" d="M78.36,167.9c-1-2.37,9.7-13.62,9.7-13.62v1.34s-8.26,9.6-8.46,10.84A1.7,1.7,0,0,1,78.36,167.9Z"/><path class="cls-15" d="M82.37,171.27c8.65-2,18.46-.1,19.17.4,1.6-.64,11.64-2.68,21.57-1.29C111,185.67,92.7,187,82.37,171.27Z"/><path class="cls-16" d="M101.54,176.18c6.13.2,17.46-4.25,18.77-4.66-8.8.61-17.3,4.86-34.3.61C86,172.13,95.25,175.61,101.54,176.18Z"/><circle class="cls-17" cx="82.18" cy="129.52" r="0.98"/><circle class="cls-17" cx="122.71" cy="128.29" r="0.98"/><path class="cls-10" d="M80.72,130.66a1.45,1.45,0,0,0,1.59,1A1.84,1.84,0,0,0,80.72,130.66Z"/><path class="cls-10" d="M124.66,129.11s.4,1.07-1.2,1.2C123.46,130.31,123.8,129.25,124.66,129.11Z"/><path class="cls-18" d="M77.63,123.44c-5.8-.38-10.39.86-10.39,3.26a50.12,50.12,0,0,0,.8,9.56C68.74,134.58,72.92,124.86,77.63,123.44Z"/><path class="cls-18" d="M139.1,128.65a29.09,29.09,0,0,0-10.48-3.17c1,1.71,5.82,8,11,10.43v-2.14C139.85,129.9,139.1,128.65,139.1,128.65Z"/><path class="cls-7" d="M118,139c.7.84,12.44-.16,17.72,4.92,0,0-.85-2.51-6.18-4-.26-.07,7.71-.53,7.32-.88s-9,.49-9.42.41A43.54,43.54,0,0,0,118,139Z"/><path class="cls-7" d="M89.22,140.88s-8.69-.24-14.57,4.65A15.21,15.21,0,0,1,89.22,140.88Z"/><path class="cls-7" d="M118.47,158.24a18.76,18.76,0,0,0,3.89,4.76c.21.19,5.81,2.36,5.55,2.27-4-1.44-4.53-1.39-4.33-1.24a8.46,8.46,0,0,0,3.81,1.92S121,165.8,118.47,158.24Z"/><path class="cls-7" d="M132.07,169.11A78.14,78.14,0,0,1,123.49,190Z"/><path class="cls-7" d="M135.42,167.57c1.34,4.39-.12,11.47-.12,11.47l-.74,1.7S136,172.94,135.42,167.57Z"/><path class="cls-7" d="M71.52,170.07s-1.21,7.05-.1,11.59a13.26,13.26,0,0,0-1.25-2.34S70.69,171.85,71.52,170.07Z"/><path class="cls-8" d="M59.67,137.13c3.06,10.77,5.8,21.1,5.8,23.6a56.94,56.94,0,0,0,.36,6.91C67.8,164.25,72.27,142.74,59.67,137.13Z"/><path class="cls-18" d="M54.83,124.79c-3-5.46-5.78,6.71-1.09,13C53.74,137.75,50.3,122.3,54.83,124.79Z"/><path class="cls-18" d="M146.78,124.86c7.64-2.55,7.89,5.86,2.8,15C149.58,139.89,153.91,128.93,146.78,124.86Z"/><path class="cls-18" d="M57.19,149.08a9.16,9.16,0,0,0,5.88,4.09S58.09,154,57.19,149.08Z"/><g class="cls-19"><path class="cls-20" d="M133.51,115.67c-6.55-1.62-15.8,3.47-21.4,6.44-.52.28,1.16,2.71,1.93,2.3a73.2,73.2,0,0,1,9.29-4.19c3.4-1.24,7.8-3.13,11.45-2.23,1,.24-.54-2.14-1.26-2.32Z"/></g><g class="cls-19"><path class="cls-20" d="M72.15,120.22a36.19,36.19,0,0,1,10.13.94c2.45.56,5.12.89,7.25,2.29.44.29,2.19-2.14,1.85-2.36-2.38-1.57-5.58-2-8.33-2.54a34.94,34.94,0,0,0-9.25-.71c-.73,0-1.85,2.4-1.65,2.38Z"/></g><path class="cls-21" d="M59,63.86c25.76-20.55,63-21.65,84.25,0l4.22,15.65L126.75,102H85.63L60.53,77.34Z"/><path class="cls-22" d="M62.5,77.93s9.55-8.76,20.17-10.41c0-10.63,6.39-17.23,18.5-17.23s23.36,6.42,23.36,18.88c9,3.3,17.08,6.6,20.88,10.82s-39.1,19.72-39.1,19.72S64.89,89.44,62.5,77.93Z"/><path class="cls-23" d="M95.32,60.11c-2.56-.18-7.67,2.92-10,2,0,0,8.59-7.86,11.14-7.86S100.25,57,100.25,57s1.61-2.08.68-2.85a3.88,3.88,0,0,0-2.64-.49,2.5,2.5,0,0,1,2.8-1.43c1.87-.22,3.74-.44,4.12,1.15s-.33,2-.33,2,.48,1.12.65,1.07,2.36-1.92,4-1.92,8.58,6,10.61,8.28c-3.72.56-9.35-3.27-9.69-2.7a10.66,10.66,0,0,1-.73,1.05,8.32,8.32,0,0,1,3.5.57c1.46.7,3.81,2.29,3.43,5.15a67.5,67.5,0,0,0-7.1-.17v1s1.25-.19,1.3.55,0,3.2,0,3.2,1.52.22,1.65.61c.38,0,0,5.16,0,5.16H92.16V71.17a5.73,5.73,0,0,1,1.51-.6c.4,0,.11-3.27.6-3.27s.62-.62.62-.62l-6.71-.07S89.43,60.33,95.32,60.11Z"/><path class="cls-17" d="M103.32,81.23a46.24,46.24,0,0,1,24,7.16,47.59,47.59,0,0,1,5.93,4.34,9,9,0,0,0,1.3,1.18c.49.26.15.05.48-.08a15.63,15.63,0,0,1-2.91.5l-5.85,1L110.33,98l-13.71,2.34a31.52,31.52,0,0,1-3.12.53c-.37,0,.37,0-.12,0s-1.11-.16-1.66-.24L77,98.52l-7.33-1.06a22.1,22.1,0,0,1-3.8-.55c.51.17-.06.26.65-.06a10.72,10.72,0,0,0,1.77-1.51A70.46,70.46,0,0,1,75.78,90c8.29-5.14,17.69-8.67,27.54-8.77.6,0,.6-.51,0-.5C89.5,80.87,75.2,87.52,65.21,97c-.22.2.14.34.3.37l13.67,2,9.53,1.38a35.69,35.69,0,0,0,4.62.67c3.09,0,6.51-1.06,9.54-1.58l19.74-3.36,12.76-2.17c.17,0,.51-.16.3-.37-8.22-8.41-20.76-13.08-32.35-13.2C102.72,80.72,102.72,81.22,103.32,81.23Z"/><path class="cls-17" d="M152.26,121.35h0c3.42-4.17,6.17-19.67,3.44-27.62s0-15.62-4.12-17.54C130.75,93.73,117,92.79,101,93.73,82.44,94.81,83.07,88.52,67.25,80S46.36,82.5,46.36,82.5c-10.14,26.58,2,40,2,40s9-21,53.52-20.66S152.26,121.35,152.26,121.35Z"/></svg>