<svg id="Layer_1" data-name="Layer 1" xmlns="http://www.w3.org/2000/svg" viewBox="0 0 196 266.67"><defs><style>.cls-1{fill:#f8e4e3;}.cls-2{fill:#bcbec0;opacity:0.85;}.cls-3{fill:#60434c;}.cls-12,.cls-4{fill:#1d1611;}.cls-4{opacity:0.7;}.cls-5{fill:#452d35;}.cls-6{fill:#efc7b0;}.cls-7{fill:#e4b69d;}.cls-8{fill:#e7c3ae;}.cls-9{fill:#c89881;}.cls-10{fill:#d8ab93;}.cls-11,.cls-14{fill:none;stroke-miterlimit:10;}.cls-11{stroke:#d39c82;stroke-linecap:round;}.cls-13{fill:#e4baa0;}.cls-14{stroke:#fff;stroke-width:0.25px;}.cls-15{fill:#b86764;}.cls-16{fill:#f5e0cd;}.cls-17{fill:#ddbba9;}.cls-18{fill:#8f5f4a;}.cls-19{fill:#f6cdb4;}.cls-20{fill:#ebf4f0;}.cls-21{fill:#7ba29e;}.cls-22{opacity:0.15;}.cls-23{fill:#381c15;}.cls-24{fill:#be1e2d;}</style></defs><title>badbitchcards</title><rect class="cls-1" x="8.63" y="8.48" width="178.58" height="249.45" rx="8.5" ry="8.5"/><path class="cls-2" d="M56,115.83c1.47,5.79-4.54,21.72-3.41,24.25s3.66,3.3,2.82,4.89,2,2,2,3.78,2.54.13,2.54,2.77-1.69,4.55-.28,6a30.16,30.16,0,0,1,2.71,3.31s1.52,2.53,2.93,1.6,3.07-1.48,3.52,0,77.75-7.32,78.68-7.37,2.9-2.78,2.9-4.23v-3.42l3.1-2.44v-7.6l2-5.43-1.13-5.7a5,5,0,0,0,1.13-5.24c-1.13-3.18,2-5.44.32-6.57s-.32-.85-2.29-5.07-.85-5.07-2.25-6.76a10,10,0,0,0-3.75-2.54s1.88-3,0-4.79-36.8-9.86-48.23-9.86S56,115.83,56,115.83Z"/><path class="cls-3" d="M37.47,110.8c-11.12,7.89-13.27,7.94-11.12,15.45C27.79,130.12,50,124.51,64,114.79s35.48-19,62-20.84,38.37,1.79,40.88,0,5.38-7.17,2.15-8.61-21.51,1.08-24.38,0c3.94-2.87,4.06-4.71,5.54-4.71s2.35-6.45,2-7.39c-1.25-3.09-3.67-10.21-6.86-11.42a10.17,10.17,0,0,1-4.42-2.88s-3.78-2.27-5.89-2-4.81-3.18-7.71-3.79-6.11-2.12-8.21-.91-3.62,1.38-4.22,2.27-4.05-3-6.19-2.73-5.78-2.12-7.74-1.36-6.77-.3-7.62,1.06-1.58,1.36-2.43,3-4.3-.19-5.45.89a36.24,36.24,0,0,0-2.54,3.2c-.59.61,2,2.12,1.55,2.73s-2.58-2.42-3.57-1.67-.65,2-1.5,3.18-2.08,3.18-3.21,3.33-4.61-3.33-7.18-3-2.42-.61-4.39-.3-.61.15-2,.3-.91,1.36-2.42,2.58a10.48,10.48,0,0,0-2.88,3.79c-.61,1.21-1.67-.61-2.58,0s-.61,1.67-3,1.51-2,.3-4.54.91-5.76,5-6.51,7.12,1.51,3.94-.3,6.36-4.24,1.67-4.7,4.54A29.39,29.39,0,0,1,34,97c-.91,2.27-2.88,1.82-1.82,5.45s1.36,6.36,3,6.36S37.47,110.8,37.47,110.8Z"/><path class="cls-4" d="M169.06,85.34c-3.23-1.43-21.51,1.08-24.38,0-4.61-.25-3.37-1.09-21.3-4.08S79.5,87.91,68.53,93.55s-11.63,9.64-18.61,14.62c-4.81,3.44-8.91,3.38-13.34,3.25-10.35,7.27-12.33,7.53-10.23,14.82C27.79,130.12,50,124.51,64,114.79s35.48-19,62-20.84,38.37,1.79,40.88,0S172.28,86.78,169.06,85.34Z"/><path class="cls-5" d="M61.54,74.45c2.92,1.59,3.72,2.13,5.58,4.78s3.6,6.24,6.71,6.18,11.37-.07,15.08-1.66,8.37-1.33,10.29-5.58a91.56,91.56,0,0,0,4.52-11.43c1.12-3.72,1.65-5.31.59-7.71s-1.72-5.34-2.05-3.6-.92,11.77-3.55,14.72S89.59,79.77,88.05,80.7s-9.44.14-11.87,0-4.82-2.26-6.68-3.32A64.94,64.94,0,0,0,61.54,74.45Z"/><path class="cls-5" d="M49.32,85.41c2.13,3.12,7.17,7.37,20.73,5.51a5.34,5.34,0,0,1,0-2.53c.27-2-10.74-1.07-13-10,0,0-2.28,5.06,0,7S49.32,85.41,49.32,85.41Z"/><path class="cls-5" d="M54.36,98.54c-5.85.89-7.17,2.78-11.43,5.55s-7.74,4.69-7.74,4.69,5.66,10.15,9.58,2C46.13,107.93,54.36,98.54,54.36,98.54Z"/><path class="cls-5" d="M118.14,57.44c.53,3.72,3.32,8.5-5.52,11.16,0,0-3.62,5.58-3.3,8.24,0,0,6.17,3.19,10.41-5.31S118.14,57.44,118.14,57.44Z"/><path class="cls-5" d="M121,78.44c3.79-2.39,7.14-1.86,10.51-5.31S135.19,67,137,64.35s2,2.66,2.58,4.25-3.43,6.49-4.08,8.82-4.11,2.21-6.67,3.27-7.78,0-10.05,0S121,78.44,121,78.44Z"/><path class="cls-5" d="M147.44,67.43c-4.32,2.76-5.57.78-3.75,5s-3.47,8.1-4,10-1.25,2.05,1.88,2.49,4.37-3,5.89-6.47,2-2.92,2.59-6S147.44,67.43,147.44,67.43Z"/><path class="cls-6" d="M81.92,181.38s1,9.31,1.48,14.46-2.57,16.87-2.57,16.87,6.78,32,29.92,32S142.44,213,142.44,213s-11.73-12.17-7.91-28"/><path class="cls-7" d="M87.11,192.53c2.31,3.23,13.09,27.11,26.27,27.11s18.81-18.15,18.81-18.15-2.3-3.27-2.3-10.73Z"/><path class="cls-6" d="M150.34,147.41c1.36,2.79.53,6.7,0,8.84s-1.54,3.54-.53,6.18-1.95,5.2-2.37,3.27c-.28-1.26-1.54-17.64-1.54-17.64v-6.48S150.34,144,150.34,147.41Z"/><path class="cls-6" d="M65.75,152.08c-.32,2.81.51,8.21,0,9.28s.32,1.77,1.08,3.69-.3,9.81,2.59,8.72a2.93,2.93,0,0,0,1.83-3.86l-3.34-16.26Z"/><path class="cls-6" d="M63.43,122.33c14.19-11.78,35.95-27.78,68.07-22.89,0,0,12.79,11.54,14.35,22.66s.44,32.8,1.33,37S146.74,174.56,141,181,128.35,193.31,124,197.23s-33.25,1.48-43.5-9.82S61,139.22,63.43,122.33Z"/><path class="cls-6" d="M63.43,122.33c14.19-11.78,35.95-27.78,68.07-22.89,0,0,12.79,11.54,14.35,22.66s.44,32.8,1.33,37S146.74,174.56,141,181,128.35,193.31,124,197.23s-33.25,1.48-43.5-9.82S61,139.22,63.43,122.33Z"/><path class="cls-8" d="M128.36,167.42c-.43,3.82-4.71,10.12-10.88,11.46,0,0-3-2.89-2.62-4.75s-.08-1-.08-1Z"/><path class="cls-9" d="M129.91,126.25c2.79,2.79,2.76,2.7,3.33,4.1l-2.08,1.06-10.87-1.61S126.22,122.56,129.91,126.25Z"/><path class="cls-10" d="M126.27,126.25c3.73,0,4.88,4.1,4.88,4.1l-10.87-.55A7,7,0,0,1,126.27,126.25Z"/><path class="cls-10" d="M86.57,130.88c5.12-1.61,7.34,3.43,7.34,3.43L82.6,137.05S82.33,132.22,86.57,130.88Z"/><path class="cls-11" d="M98.72,156.42c1.09.13,1.54-.13,2.44-1.16s6.24,2.06,7.59,3.6"/><path class="cls-11" d="M112.92,158.41a3.74,3.74,0,0,1-3.6,1.22"/><path class="cls-11" d="M113.37,157.51c.51-1.67,2.51-2.83,3-3.41s1.74-1,2.76.64"/><path class="cls-11" d="M121.41,150.83c.64,1.29.06,4.28-1.67,4.23"/><path class="cls-12" d="M98.72,156.42c1.1-.07,1.27,0,2.44-1.16s6.59,2.41,7.59,3.6c.95,1.49,3,.82,4.06-.32a10.35,10.35,0,0,1,2.48-3.51c1.26-1.15,2.25-2.47,3.81-.29-.32.56-2.85.74-4.52,4.11s-5.74,1.27-6.51.85l-.77-.42c-2.1-1.71-4.88-4-7.45-2.33C98.95,157.51,98.72,156.42,98.72,156.42Z"/><path class="cls-13" d="M84.5,168.31a32.31,32.31,0,0,1,3.1-4.74c.78-1.21,3.71-6.38,4.91-7.5s1.72-1.55,1.9-2.07-1.29-.93-1.72-.42S84.33,166.24,84,167.1A.91.91,0,0,0,84.5,168.31Z"/><path class="cls-14" d="M92.75,169.16c2.21,1.1,4.72,1.71,5.12,1a2.7,2.7,0,0,0,0-1.85S93.86,168.25,92.75,169.16Z"/><path class="cls-14" d="M120.7,166.75c1.06,1.1,1.06,3.07,1.56,2.64s4.42-1.83,5.12-2.64A11.86,11.86,0,0,0,120.7,166.75Z"/><path class="cls-15" d="M92.75,169.16c3.81-2.41,10.24-6.69,17.67-4.55,0,0,9.24-2.94,14.05,0s4.92,1.14,4.92,1.14-6.22,12-18.27,11.44S92.75,169.16,92.75,169.16Z"/><path class="cls-16" d="M106.81,167.85c2.38,1.49,11.64-1.1,11.64-1.1h8.93s-9.55,6.32-14.46,6.32-15.05-2.91-15.05-2.91v-1.85S104.4,166.35,106.81,167.85Z"/><path class="cls-17" d="M130.75,180c-2.57,7.23-7.7,17.85-15,17.85s-14.95-1.87-17-5.83c0,0,7.91,11.55,21,9.1S130.75,180,130.75,180Z"/><path class="cls-8" d="M133.28,163.3c-2.26-.1-5.15,3-5.15,3a11.39,11.39,0,0,0,3.92.49C133.42,166.48,135.33,164.83,133.28,163.3Z"/><path class="cls-8" d="M139,146.12c1.32-1.32,1.05-1.45,1.71-.66s2.89,9.32,3,11.5-3.16,4.44-2.37,6.34-1.05,10.19-3.82,11.77c-2.5-.79-2.11,1.71-1.58,0s4.48-7.11,3.69-11.18.53-10.57,0-13.05A35.25,35.25,0,0,1,139,146.12Z"/><path class="cls-18" d="M95.3,124.88a3.26,3.26,0,0,1-.75-1.59,4.68,4.68,0,0,0-1.94-2.47"/><path class="cls-18" d="M94.41,125.06a5.54,5.54,0,0,0-1.17-2.59,16.64,16.64,0,0,1-1.61-1.38"/><path class="cls-18" d="M93.09,124.75a18.53,18.53,0,0,0-2.88-3.45"/><path class="cls-18" d="M91.52,124.91a6.87,6.87,0,0,1-1.18-1.85,2.23,2.23,0,0,0-1.67-1.3"/><path class="cls-18" d="M90.28,125.07A8.63,8.63,0,0,0,87.56,122"/><path class="cls-18" d="M89.16,124.83c-1.17-.6-1.49-2.2-2.59-2.92"/><path class="cls-18" d="M88,124.9a8.83,8.83,0,0,1-2.51-1.06c-.19-.12-.4-.28-.41-.51"/><path class="cls-18" d="M87.16,123.87c-1-.23-1.17-1.84-2.17-1.94"/><path class="cls-18" d="M83.89,124a3.65,3.65,0,0,1-1.78-1.68"/><path class="cls-18" d="M84,123.08l-.87-.94"/><path class="cls-18" d="M84.59,122.52a2.44,2.44,0,0,0-2-1"/><path class="cls-18" d="M81.51,121.68a1.89,1.89,0,0,0-1.54-.24,5.6,5.6,0,0,0-1.46.66"/><path class="cls-18" d="M80.54,122.39a15,15,0,0,0-2.25.22,3.32,3.32,0,0,0-1.82.77"/><path class="cls-18" d="M78.24,123.6a4.9,4.9,0,0,1-1.64.54c-.56.15-1.15.51-1.23,1.08"/><path class="cls-18" d="M77.36,124.61c-.6.8-1.9.9-2.35,1.8"/><path class="cls-18" d="M76.59,126.25a3,3,0,0,1-1.2.74,1.51,1.51,0,0,0-1,1"/><path class="cls-18" d="M76.33,127.45c-.42.82-1.67.71-2.36,1.31-.13.12-.21.38,0,.42"/><path class="cls-18" d="M75.16,129.28a2.47,2.47,0,0,0-.75,2.13"/><path class="cls-18" d="M112.93,121.17a6,6,0,0,1,1.89-3.31c.63-.44,1.41-.64,2-1.14"/><path class="cls-18" d="M114.41,120.35a7.6,7.6,0,0,1,2.8-2.85,11.34,11.34,0,0,0,1.6-1"/><path class="cls-18" d="M116.56,119.76a4.38,4.38,0,0,0,2.17-1.85,3.71,3.71,0,0,1,2.26-1.7"/><path class="cls-18" d="M118.14,119.78c1-.12,1.62-1.06,2.13-1.91s1.17-1.78,2.16-1.87"/><path class="cls-18" d="M119.64,119.26a9.62,9.62,0,0,0,2.08-1.68,11.27,11.27,0,0,1,1.2-1.23,2.13,2.13,0,0,1,1.59-.52"/><path class="cls-18" d="M122.24,118.34a1.17,1.17,0,0,0,1.09-.21c.32-.22.58-.52.91-.73a2,2,0,0,1,2-.05"/><path class="cls-18" d="M124.3,118.23l2.28.09"/><path class="cls-18" d="M125,115.84a7,7,0,0,1,1.52-1.22,2.35,2.35,0,0,1,1.89-.21"/><path class="cls-18" d="M126.41,116a3.87,3.87,0,0,1,3.08-1.58"/><path class="cls-18" d="M128.29,116.75a5.36,5.36,0,0,1,2.74-2"/><path class="cls-18" d="M129.91,117a1.74,1.74,0,0,0,1.33-.49c.3-.3.48-.69.76-1a1,1,0,0,1,1.11-.4"/><path class="cls-18" d="M132.9,116.38a1.54,1.54,0,0,1,1.54,0,4.2,4.2,0,0,1,1.21,1.06"/><path class="cls-18" d="M132.3,113.91a2.58,2.58,0,0,0,.94.62"/><path class="cls-18" d="M133.93,115.07c0-.17.24-.22.42-.18a2.18,2.18,0,0,1,1.59,1.41"/><path class="cls-18" d="M136.7,117.51a2.12,2.12,0,0,1,.66,1.6"/><path class="cls-18" d="M136.56,118.9l.21.83"/><path class="cls-19" d="M109.32,149.54c6.52,0,3.66,6.11,1.8,8S104.33,149.54,109.32,149.54Z"/><path class="cls-20" d="M118.14,131.41c4.48-3.49,7.44-5.6,13-1.06,0,0,.47.07,0,1.06s-6.23,2.74-10.45,1.27a9.37,9.37,0,0,0-1.92.56.92.92,0,0,1-1.29-.57C117.44,132.4,118.14,131.41,118.14,131.41Z"/><path class="cls-21" d="M125.44,133.2c2.54,0,3.5-3.21,2.69-4.81a7.12,7.12,0,0,0-3.15-.63,8.54,8.54,0,0,0-3.09,1S121.49,133.28,125.44,133.2Z"/><circle class="cls-12" cx="125.17" cy="129.76" r="1.13"/><path class="cls-20" d="M97.16,136c-2.3.46-4.71.29-6,.69a15.69,15.69,0,0,1-2,.38c-2.22.32-5.46.56-6.56,0,0,0,1.33-4.48,4.55-5s4.55.92,5.87,1.72,1.14.78,2.38.88A2.26,2.26,0,0,1,97.16,136Z"/><path class="cls-21" d="M87.87,131.94c3.2,0,4.9,1,4.74,3s-1.49,1.51-3.44,2.1a2.66,2.66,0,0,1-3.5-2.54A2.11,2.11,0,0,1,87.87,131.94Z"/><circle class="cls-12" cx="89.16" cy="134.32" r="1.11"/><circle class="cls-20" cx="89.16" cy="134.66" r="0.61"/><circle class="cls-20" cx="124.8" cy="129.76" r="0.37"/><path class="cls-17" d="M145.85,122.1c-.83-6-4.9-12.05-8.5-16.41.61,5,2.42,12.77,1.27,16.64s0,10.66,2.3,12.94,4.61,9.2,3.78,17.67,1.65,15.11-2.63,22.73-6.39,10.8-6.42,10.85c1.8-1.77,3.6-3.62,5.31-5.53,5.78-6.45,7.11-17.78,6.22-21.94S147.41,133.22,145.85,122.1Z"/><path class="cls-17" d="M90.28,192.29c-6.08-1.65-14.31-17.71-15.89-22s-1.51-24.31-3.77-29c-1.34-6.1-6.43-14.9-7.49-10.86a8,8,0,0,0,.07,2.49c1.12,18.56,8.91,45.26,17.36,54.57,3.24,3.56,8.33,6.25,13.93,8.12A7,7,0,0,0,90.28,192.29Z"/><path class="cls-13" d="M114.41,135.43c.49-.87-1.38-5.19.46-7.7s4.35-7,13.54-5.12c0,0-6.42-4.63-12.85,1.8s-2.16,10.17-2.19,11S114.41,135.43,114.41,135.43Z"/><path class="cls-13" d="M99.45,130.57c1.22,1.36,2.81,3.53,2.81,4.09s-3.67,5.94-6.11,6.92c0,0,.52-4.55,3.82-6.31C100,135.27,98,131.65,99.45,130.57Z"/><path class="cls-13" d="M123.38,151.53c1,1.85,9.17,9.82,10.29,10.9s.51,1.4.51,1.4S123.05,152,123.05,151.6,123.38,151.53,123.38,151.53Z"/><g class="cls-22"><path class="cls-23" d="M114.17,118.18a9.13,9.13,0,0,0-1.16,2.77.45.45,0,0,0,.08.45c2.38.75,6.24-1.72,8.42-2.46,4.57-1.57,7.25-2.07,11.91-1,1,.24,3.36-3.41,2.39-3.64-3.45-.83-5.61-1-9,0q-2.76.83-5.47,1.83c-1,.35-5.91,3-4.84.93,1.31-2.54-1.8.06-2.32,1.07Z"/></g><g class="cls-22"><path class="cls-23" d="M95.46,122.52c-1-2-2.86-2-4.89-2.14-2.94-.28-6.7-1.16-9.61-.53-4.64,1-5.24,5.8-7.32,9.2l2.11-.55c.58-1.19,1.25-3.16,2.6-3.77,1.17-.53,3.51,0,4.8,0,3.4.07,6.78.27,10.16.55,1.14.09,2.76-2.43,2.67-3.42A1.75,1.75,0,0,0,94.6,120c-1.22-.45-3.42,3.31-2.77,3.55Q93,123.68,93,125l2.67-3.42c-3.12-.26-6.25-.45-9.38-.54-2.08-.05-4.73-.52-6.71.24-3.1,1.19-4.91,5.5-6.22,8.18-1.18,2.43,1.54.4,2.11-.55,1.74-2.84,2.34-5.75,6.47-5.44,2.54.19,9.23-.39,10.54,2.18.49,1,3.48-2.2,3-3.18Z"/></g><path class="cls-24" d="M20.33,37V25.46h-4V23.72a4.08,4.08,0,0,0,4.21-3.08h2.17V37Z"/><path class="cls-24" d="M27.49,22.89a5.72,5.72,0,0,1,5-2.62,5.72,5.72,0,0,1,5,2.62A10.52,10.52,0,0,1,39,28.81a10.52,10.52,0,0,1-1.46,5.92,5.72,5.72,0,0,1-5,2.62,5.72,5.72,0,0,1-5-2.62A10.52,10.52,0,0,1,26,28.81,10.52,10.52,0,0,1,27.49,22.89Zm2.42,11.22a3.71,3.71,0,0,0,5.19,0c1-1,1.44-2.8,1.44-5.29s-.45-4.26-1.44-5.29a3.71,3.71,0,0,0-5.19,0c-1,1-1.44,2.8-1.44,5.29S28.93,33.07,29.91,34.11Z"/><path class="cls-24" d="M176,232.82v11.52h4v1.74a4.08,4.08,0,0,0-4.21,3.08h-2.17V232.82Z"/><path class="cls-24" d="M168.82,246.91a6.11,6.11,0,0,1-10,0,12.73,12.73,0,0,1,0-11.85,6.11,6.11,0,0,1,10,0,12.73,12.73,0,0,1,0,11.85Zm-2.42-11.22a3.71,3.71,0,0,0-5.19,0c-1,1-1.44,2.8-1.44,5.29s.45,4.26,1.44,5.29a3.71,3.71,0,0,0,5.19,0c1-1,1.44-2.8,1.44-5.29S167.39,236.72,166.4,235.69Z"/><path class="cls-24" d="M36.13,52.74,29.31,41.88a.78.78,0,0,0-1.31,0L21.16,52.74a.78.78,0,0,0,0,.83L28,64.43a.78.78,0,0,0,1.31,0l6.83-10.87A.78.78,0,0,0,36.13,52.74Z"/><path class="cls-24" d="M176,216.68l-6.83-10.87a.78.78,0,0,0-1.31,0L161,216.68a.78.78,0,0,0,0,.83l6.83,10.87a.78.78,0,0,0,1.31,0L176,217.51A.78.78,0,0,0,176,216.68Z"/></svg>