<svg id="Layer_1" data-name="Layer 1" xmlns="http://www.w3.org/2000/svg" viewBox="0 0 196 266.67"><defs><style>.cls-1{fill:#f8e4e3;}.cls-2{fill:#ccb496;}.cls-3{fill:#d9b58c;}.cls-4,.cls-8{opacity:0.64;}.cls-5,.cls-8{fill:#ad7c4f;}.cls-6{fill:#9e865c;}.cls-7{fill:#c2b59b;}.cls-9{fill:#eec5a6;}.cls-10{fill:#d0af9b;}.cls-11{fill:#efcdb5;}.cls-12{fill:#f0d0b4;}.cls-13{fill:#cb565e;}.cls-14{fill:#f8e8d7;}.cls-15{fill:#6b3720;}.cls-16{fill:#e4b69d;}.cls-17{fill:#986c48;}.cls-18{fill:#3c3738;}.cls-19{fill:#ebf4f0;}.cls-20{fill:#f6dacb;}.cls-21{fill:#437f90;}.cls-22{opacity:0.7;}.cls-23{fill:#231f20;}.cls-24{fill:#d39c82;}.cls-25{fill:#f4d4c3;}.cls-26{fill:#fcdc51;}.cls-27,.cls-29{opacity:0.11;}.cls-28,.cls-29{fill:#e29067;}.cls-30{opacity:0.35;}.cls-31{fill:#ead3ca;}.cls-32{fill:#1d1611;}.cls-33{opacity:0.15;}.cls-34{fill:#010101;}</style></defs><title>badbitchcards</title><rect class="cls-1" x="8.63" y="8.48" width="178.58" height="249.45" rx="8.5" ry="8.5"/><path class="cls-2" d="M115.11,81.78c-1,0-1.37-.67-.44.1.45.37,1,.68,1.4,1.06.84.71,1.62,1.49,2.38,2.28,1.61,1.66,3.09,3.43,4.53,5.24a132.83,132.83,0,0,0,9.4,11.14c3.47,3.47,7.69,5.84,11.51,8.87,3.3,2.62,6.82,6.91,5.54,11.48-.69,2.45,2.22,3.41,4.19,3.69,1.66.23,6.73.24,7.38-2.1,3.59-12.79-11.72-18.22-18.83-25.56-7.94-8.21-14-22.07-27.06-22.19-1.8,0-5.93.52-6,3s4.43,3,6,3Z"/><path class="cls-2" d="M103.85,76.78C98.79,70,89.54,68,81.52,69.47s-14.75,6.8-18.74,14c-4.55,8.2-5.64,18-7.27,27.09L50.3,139.67c-1,5.44-2.72,11.35-1.95,16.9a19.69,19.69,0,0,0,6.25,11.73c2,1.85,5.8,1.8,8.21,1.08,1.85-.56,4.14-2.23,2.15-4.1C59,159.73,60,152.28,61.34,145l4.43-24.76c1.44-8,2.61-16.14,4.47-24.08,1.55-6.58,4.24-13.39,9.47-17.91a15.41,15.41,0,0,1,4-2.57,10.62,10.62,0,0,1,1.41-.5c.05,0,1.65-.16,1.11-.15a5.64,5.64,0,0,1,2.73.62,8.69,8.69,0,0,1,3.34,2.72c1.61,2.15,4.9,2.44,7.38,2.1,1.19-.17,5.8-1.55,4.19-3.69Z"/><path class="cls-2" d="M98.3,77.81c-9.17-7-21-3.48-30.26,1.22-2.16,1.09-2.13,3.14,0,4.24a10.16,10.16,0,0,0,8.49,0c3.52-1.78,8.14-4.93,11.42-2.43,2.22,1.69,5.61,1.86,8.21,1.08,1.62-.49,4.4-2.39,2.15-4.1Z"/><path class="cls-2" d="M97.95,73.47a98.87,98.87,0,0,1-13.91-2c-2.49-.56-6.17-.86-8.21,1.08S76,76.21,78,76.64a119.08,119.08,0,0,0,16.77,2.61c2.11.17,6.28.29,7.38-2.1s-2.58-3.56-4.19-3.69Z"/><path class="cls-2" d="M98.63,82.1l2.92-1.38c.77-.36,1.76-1.16,1.76-2.12s-1-1.76-1.76-2.12a10.39,10.39,0,0,0-8.49,0l-2.92,1.38c-.77.36-1.76,1.16-1.76,2.12s1,1.76,1.76,2.12a10.39,10.39,0,0,0,8.49,0Z"/><path class="cls-2" d="M145.92,130.56c2.61,10.49.5,21.37-1.75,31.73-1.06,4.88-2.47,9.76-5.11,14a21.23,21.23,0,0,1-3.91,4.75,16,16,0,0,1-2,1.59c-.52.33-1.11.54-1.64.86-1.77,1.07.46-3.25,3.7.44-2.49-2.83-14-1.14-10.36,3,2.34,2.66,6.95,2.88,10.2,2.36a20.86,20.86,0,0,0,8.76-3.86c4.87-3.51,8.12-8.89,10.06-14.48a113.22,113.22,0,0,0,4.42-19.7c1.06-6.92,1.38-13.92-.32-20.76-1.08-4.33-12.88-3.54-12,0Z"/><path class="cls-2" d="M134.05,189A16.65,16.65,0,0,0,146,186.8c3-1.91,4.89-4.84,6.64-7.84l-11.79-.8a8.48,8.48,0,0,1-2.26,4.62,8.67,8.67,0,0,1-1.89,1.44c-.75.45-.89.23-.47.22-1.77,0-5.39.41-5.89,2.6s2.77,3,4.3,3.29c6,1.13,12.66-.76,16.72-5.44s4.72-10.7,5.56-16.45c1.9-13.06,3.43-26.21,2.84-39.43-.19-4.23-12.18-4.11-12,0a185.35,185.35,0,0,1-1.89,32.65c-.66,5-1,10.24-2.48,15a16,16,0,0,1-2.89,5.75c-.69.8-1.67,1.25-2.38,2a3.5,3.5,0,0,1-.52.27c.2-.12,2.1.23.24-.12l-1.6,5.89c7.65-.11,15.4-4.12,16.62-12.28.33-2.17-3.93-2.87-5.2-2.95-2.08-.13-5.38.09-6.58,2.15a25.22,25.22,0,0,1-2.93,4.4c-.26.28-1.53,1.1-1.58,1.38a2.51,2.51,0,0,0-.32.21,1.26,1.26,0,0,0,1-.15c-2-.4-6.35-.14-7.38,2.1-1.12,2.43,2.64,3.39,4.19,3.69Z"/><path class="cls-2" d="M56,190.59c-7.12-7.88-5.45-20-2.61-29.25,3.4-11.06,8.62-22.23,6.64-34.07-.72-4.33-12.63-3.8-12,0,3.66,21.94-20.3,46.54-2.4,66.35,2.53,2.8,14.07,1.07,10.36-3Z"/><path class="cls-2" d="M131,131.33a16.51,16.51,0,0,1,7,9.88c.58,2.48,3.82,3,6,3,1.23,0,6.55-.64,6-3a21,21,0,0,0-8.67-12.91,9.87,9.87,0,0,0-8.21-1.08c-1.48.45-4.54,2.5-2.15,4.1Z"/><path class="cls-2" d="M122.3,176.2l-.29.07,8.21,1.08c.36.33.08-1.13.07-1.27-.07-.72-.12-1.44-.14-2.16a27.55,27.55,0,0,1,.24-4.31,25.76,25.76,0,0,1,2.65-8.23c2-4-9.75-5.21-11.57-1.6a30.15,30.15,0,0,0-3.32,13.7c0,1.92-.08,4.69,1.13,6.27,2,2.59,6.3,2.3,9.08,1.62,1.92-.47,4-2.3,2.15-4.1s-5.81-1.66-8.21-1.08Z"/><path class="cls-3" d="M58.48,88.87a178.14,178.14,0,0,0-8.71,30.66,133.22,133.22,0,0,0-2.15,15.3c-.3,4.37.25,8.44,3.17,11.85,1.63,1.9,9.32.8,6.91-2-2.7-3.15-2.3-7.87-1.91-11.7.49-4.81,1.24-9.6,2.16-14.35A171.81,171.81,0,0,1,66.2,89.93c1.1-2.89-6.77-3.52-7.71-1.06Z"/><path class="cls-3" d="M119,80.8A55.32,55.32,0,0,1,130,87.35c3.53,2.82,5.44,6.44,8.06,10s6,6,9.48,8.5c3.18,2.31,7.38,5.7,6,10.2-.9,3,7,3.52,7.71,1.06,3-10.21-10.67-14.28-15.52-20.83-2.79-3.77-4.85-7.69-8.55-10.71A60.81,60.81,0,0,0,124.69,78,6.68,6.68,0,0,0,119,78c-1.36.76-1.55,2.1,0,2.83Z"/><path class="cls-3" d="M141.46,131.44c5.35,9.69,3,21.06-.84,30.83-2,5.13-4.48,10.08-6.48,15.22-1.49,3.85-2.4,8.16.8,11.38,1.78,1.78,9.47.56,6.91-2-3.13-3.15.4-9.37,1.77-12.54,2.18-5.05,4.54-10.05,6.28-15.28,3.1-9.32,4.18-19.75-.74-28.66-1.3-2.35-9.13-1.5-7.71,1.06Z"/><path class="cls-3" d="M60.44,189.4c-6-6.41-4.4-16.2-1.89-23.72,3-8.9,6.21-17.33,7-26.78a81.43,81.43,0,0,0-.17-14.36,28.51,28.51,0,0,1-.06-6.67,28.77,28.77,0,0,1,2.34-6.77c1.63-3.92,2-7.85,2.66-12a15.86,15.86,0,0,1,6-10.43c3.5-3,7.19-6.31,12-6.56,4.09-.21,9.3-.73,11.34-4.89,1.31-2.67-6.53-3.48-7.71-1.06-.87,1.77-2.24,1.88-4,2a25.93,25.93,0,0,0-6.87,1.08c-4.17,1.39-7.66,4.18-11,6.95s-5.92,5.55-7,9.71-.94,8.81-2.55,13c-1.7,4.4-3.46,8.18-3.25,13s.79,9.45.56,14.25a70.9,70.9,0,0,1-2.26,14.75c-1.28,4.84-3.27,9.44-4.82,14.19-2.91,8.87-4,19,2.84,26.37,1.71,1.84,9.41.67,6.91-2Z"/><path class="cls-3" d="M113.14,75.84c-2.16-5.89.15-13.39,5.69-16.59,1.41-.81,1.43-2,0-2.83a6.59,6.59,0,0,0-5.66,0,16.91,16.91,0,0,0-7.74,20.48c.89,2.43,8.79,1.88,7.71-1.06Z"/><path class="cls-2" d="M93.76,77.11a20.89,20.89,0,0,1,3.58,4.32l10-2.92c-3.62-1.82-7.31-3.45-11.39-1.77-1.24.51-2.58,1.38-2.41,2.88s1.5,2,2.33,3l-.82-1.51.11.46,7.6-2.89H103l2.15,1.08a2.76,2.76,0,0,1-.94-.77c-2-2-13.11-1.89-11,2.31a5.19,5.19,0,0,0,2.62,2.36l8.49-4.24a32.55,32.55,0,0,0-3-1.19c-1.83-.61-10.78-.44-8.81,3.39a6.3,6.3,0,0,0,2.55,2.44l5.84-5a17,17,0,0,1-4.15-1.42A10.41,10.41,0,0,0,90.22,77c-1,.23-4,1.11-3.69,2.74.72,3.53,5,3.95,8,4.66l-1.21-4.71,3.58-.37a2.2,2.2,0,0,1-.67-.27,14,14,0,0,0-1.45-.91v3c-.41.48-1.47.51,0,.28A14.11,14.11,0,0,0,96.64,81a12.06,12.06,0,0,0,4.25-2c2.36-1.94,1.95-4.17-.39-5.94L95.31,77.6l.79,0-4.24-.88a14.47,14.47,0,0,1,3.21,2.21l9.42-3.64a34.92,34.92,0,0,0-8.8-3.73l2.76,3.39.29-.39L96,76.33c-3.43,1.15-4.56-.62-2.32.91a28,28,0,0,1,2.41,2c2.07,1.79,5.72,1.82,8.21,1.08,1.76-.53,4.25-2.29,2.15-4.1a22.59,22.59,0,0,0-8.27-5c-3.63-1.08-8.82-1.22-11.28,2.12-1.21,1.63,1.68,3.09,2.76,3.39A25,25,0,0,1,96,79.51c2.13,1.28,5.67,1.15,7.88.23,1.5-.62,3.53-2.33,1.55-3.87-3.16-2.45-5.9-4.43-10.12-4.27-1.69.06-3.87.25-5.18,1.49a1.86,1.86,0,0,0,0,3q.86.22.41.57l.82-1.51c-1.44,1.67-5.19.85-7,3-.82,1-1.23,2.09,0,3,4.81,3.66,11.72,5.55,17.39,2.76,3-1.49,1.42-4.07-1.21-4.71l-2.26-.55-.9-.22q-1.12-.3.41.22l.82,1.51-.09-.45L88.29,81.86a38.17,38.17,0,0,0,9.45,3c2.85.53,11-1.7,5.84-5l.53.21-8.81,3.39q.21-.29.61.25a10.24,10.24,0,0,0,8.49,0c2.08-1.08,2.29-3.19,0-4.24l.47.29L93.89,82a9.64,9.64,0,0,0,5.7,2.45c1.18.16,8.26,0,7.6-2.89a3.61,3.61,0,0,0-.92-2c-.8-.91-.39-.75-.87.31L101.21,82l.27-.05-4.62-.3q-.69,0,.55.38l1.48.74a10.47,10.47,0,0,0,7.27.47c1.24-.37,3.83-1.68,2.76-3.39a28.65,28.65,0,0,0-4.79-5.76c-2-1.84-5.79-1.8-8.21-1.08-1.84.55-4.16,2.24-2.15,4.1Z"/><path class="cls-2" d="M100.7,77a39.88,39.88,0,0,0-12-1.4,31.12,31.12,0,0,0-10.37,2.79c-5.35,2.37-10.44,6.36-12.56,12C64.14,94.73,76,95.67,77.36,92a15.73,15.73,0,0,1,7.43-8.31,16,16,0,0,1,5.34-2.11,13.85,13.85,0,0,1,4.51.65c2.48.58,6.18.86,8.21-1.08s-.23-3.66-2.15-4.1Z"/><path class="cls-2" d="M65.63,87.21a147.44,147.44,0,0,0-4.5,23.32h12a57.94,57.94,0,0,1,3-17.14l-11.79-.8L61.87,116.2c-.81,7.86-1.19,15.91-2.51,23.7-.56,3.28-2.4,6-3.93,8.93a21.89,21.89,0,0,0-2.68,9.39c-.25,7,2.9,13.75,6.2,19.71,2,3.53,13.7,2.24,11.57-1.6-3.26-5.88-6.39-12.43-5.7-19.35.32-3.22,1.8-5.91,3.34-8.69A26.33,26.33,0,0,0,71.49,139c2.14-15.38,3.22-31,4.81-46.44.4-3.89-10.7-4-11.79-.8a63.41,63.41,0,0,0-3.39,18.73c-.1,4.12,11.55,4.21,12,0A137.52,137.52,0,0,1,77.2,88.81C77.88,86.35,75,85.4,73,85.12c-1.65-.23-6.74-.24-7.38,2.1Z"/><path class="cls-2" d="M105.46,78.89c2.72,4.62,7.15,8,11.07,11.57,4.21,3.81,8.27,8.06,12.76,11.53a11.77,11.77,0,0,0,9.43,2c2.38-.46,5.48-1.91,4.82-4.81-1.1-4.78-5.32-9.53-8.61-13-1.67-1.74-5.39-1.71-7.49-1.23-1.21.28-4.87,1.59-3.47,3.54a191.62,191.62,0,0,0,15.52,19.32c5.23,5.61,10.5,12.18,9,20.35-.68,3.72,11.2,4.37,12,0,1.52-8.34-3.57-15.58-8.86-21.44a225.36,225.36,0,0,1-16.1-19.83l-11,2.31a35.92,35.92,0,0,1,4.18,5.25q.93,1.43,1.73,2.93c.23.43,1,2.38,1.3,2.14L134,98.46l4.19-.14,2.15,1.08c-4.45-3-8.34-7.38-12.33-11C124.2,85,119.65,81.73,117,77.3c-2.06-3.49-13.77-2.13-11.57,1.6Z"/><path class="cls-2" d="M132.54,126.32c.29,5,2.53,9.51,3.36,14.38a29.9,29.9,0,0,1-1.32,15c-1.6,4.69-3.26,9.33-4.56,14.11-1.13,4.13-3.28,9.22-1.27,13.35l11-2.31c-3.94-4.5-3.5-11.57-2.11-17,1.76-6.81,5.09-13.06,6.15-20.08h-12c-.65,7.21-1.27,14.57-4.06,21.33-2.4,5.81-6.47,12.74-2,18.66l10-2.92c-2.34-1.4-3.27-4.31-3.21-6.87.09-4.12-11.57-4.22-12,0-.4,3.94-.27,8.19,2.76,11.12,3.5,3.4,9.16,4,13.66,2.61,1.85-.57,4.08-2.24,2.15-4.1s-5.89-1.78-8.21-1.08c4.13-1.26,4,1.33,2.52-.81a5.89,5.89,0,0,1-.86-2.07,17.86,17.86,0,0,1,0-5.67h-12c-.11,4.89,2.66,8.68,6.72,11.11,2,1.17,5.15,1.11,7.27.47,1.12-.34,4-1.77,2.76-3.39-4.25-5.63,1.07-12.49,2.94-18,2.23-6.58,2.92-13.51,3.53-20.39.36-4-11.36-4.23-12,0-2,13.24-13.22,27.71-2.4,40.07,2,2.25,13,1.86,11-2.31-.91-1.87-.23-4,.22-6q.86-3.7,1.95-7.34c1.35-4.56,3.17-9,4.49-13.55a30.79,30.79,0,0,0,.93-14c-.82-4.86-3.07-9.43-3.36-14.38-.24-4.25-12.23-4.08-12,0Z"/><path class="cls-2" d="M56.8,158.19A18.1,18.1,0,0,1,60.5,165c.85,2.95.61,6,.9,9.07a14.24,14.24,0,0,0,9,12.35,10.91,10.91,0,0,0,6.55.62c1-.24,4-1.1,3.69-2.74l-2.16-11.42-11.79.8a23.9,23.9,0,0,1,1.86,8.55c.15,4,10.46,4,11.79.8a17.42,17.42,0,0,0,.26-13.13c-1.17-3.2-12.12-3.12-11.79.8l1,11.42c.36,4.18,11.71,4.21,12,0,.51-7.38-3.34-13.95-7.42-19.78-2-2.87-4.22-5.7-5.22-9.11A58.69,58.69,0,0,1,67.4,141.7l-11.79.8c1.92,3.28,2.9,6.9,4.15,10.46a66.31,66.31,0,0,0,4.79,9.9c3.12,5.64,6.27,12.81,1.89,18.67H78L73.43,166.2c-1.09-3.65-12.95-3-11.57,1.6l4.59,15.33c.54,1.82,4.36,2.2,5.79,2.2,2.07,0,4.48-.46,5.79-2.2,4.6-6.15,2.21-14.16-1-20.31-1.86-3.52-4-6.89-5.35-10.63s-2.38-7.74-4.45-11.28c-1.19-2-4.55-2.31-6.58-2.15-1.47.11-5.39.73-5.2,2.95a69.46,69.46,0,0,0,1.73,11.53,27.87,27.87,0,0,0,4.67,9.31c4.14,5.84,8.5,12.09,8,19.58h12l-1-11.42-11.79.8a13.64,13.64,0,0,1-.26,9.94l11.79.8a28.86,28.86,0,0,0-2.28-10.14c-.88-2.08-4.81-2.29-6.58-2.15-1.3.1-5.61.79-5.2,2.95l2.16,11.42,10.24-2.12c-5.42-2.17-5.41-7.58-5.7-12.62a23.08,23.08,0,0,0-6-14.4c-2.49-2.82-14-1.13-10.36,3Z"/><path class="cls-2" d="M52.47,162a37.24,37.24,0,0,0,5,27c2.08,3.32,13.78,2.26,11.57-1.6a39.78,39.78,0,0,1-5.3-18.24c-.17-3.93-10.7-4.14-11.79-.8-2.79,8.59-2.69,18,3.63,25,2,2.26,12.5,2.19,11-2.31a61.38,61.38,0,0,1-3.11-15.79l-11.79.8c1.64,3.9,3.14,7.91,5,11.72a10.38,10.38,0,0,0,8.59,6.05c1.49.18,9.37-.28,7.38-3.69a35.62,35.62,0,0,1-4.93-18.62h-12c1.23,7.72,3,17.6,10.61,21.56,2,1,11.84,1.52,10-2.92A35.9,35.9,0,0,1,73.75,179l-11.79.8c1.39,5.09,3.58,9.93,8.67,12.22a10.55,10.55,0,0,0,6.55.62c1-.23,4-1.12,3.69-2.74l-2.33-10.53c-1-4.34-12.8-3.63-12,0l2.33,10.53,10.24-2.12c-3.49-1.57-4.66-6.2-5.58-9.57s-12.07-3-11.79.8a41.53,41.53,0,0,0,3,12.65l10-2.92c-2.44-1.27-3.63-4.26-4.5-6.71a59.07,59.07,0,0,1-2.59-10.6c-.65-4.1-12-4.24-12,0A39.3,39.3,0,0,0,61,191.65L68.43,188c1,.12,1.34,1,.82-.07-.19-.4-.5-.78-.72-1.18-.65-1.22-1.14-2.52-1.68-3.79l-3.61-8.54c-.88-2.08-4.81-2.29-6.58-2.15-1.5.12-5.35.72-5.2,2.95A67.74,67.74,0,0,0,55,192.56l11-2.31c-4.86-5.37-4.52-13.87-2.42-20.33l-11.79-.8A43.83,43.83,0,0,0,57.48,189l11.57-1.6A34.48,34.48,0,0,1,64.47,162c.73-3.66-11.13-4.37-12,0Z"/><path class="cls-2" d="M109.75,73.68C104.13,60.81,86.23,57.43,74.8,64.4c-5.69,3.47-9.55,9.38-12.71,15.11a76.1,76.1,0,0,0-7.29,19.33h12l2.81-15.28c.4-2.15-4-2.87-5.2-2.95-1.74-.11-5.83,0-6.58,2.15a348.63,348.63,0,0,0-10.46,35h12c1.82-14.49,5.94-29.16,13-42,2.68-4.87,6.41-10.17,12.22-11.34,5.46-1.1,12.16.58,11.8,7.44-.21,4.06,11.77,4.27,12,0C108.94,61.7,97,58.16,88.93,58c-9.13-.13-17.83,2.53-23.79,9.7C59.75,74.22,56.5,82.62,53.75,90.5a133.52,133.52,0,0,0-6.38,27.27c-.31,2.43,4.49,3,6,3,2.21,0,5.4-.51,6-3a332.86,332.86,0,0,1,10-33.41l-11.79-.8L54.81,98.84c-.44,2.4,4.59,3,6,3,2.19,0,5.41-.51,6-3a69.9,69.9,0,0,1,5.26-14.67c2.23-4.56,4.88-9.36,8.42-13,2.41-2.5,5.7-4.9,9.27-4,4,1,6.86,4.59,8.42,8.16s13.41,2.61,11.57-1.6Z"/><path class="cls-2" d="M90.52,73.93q-.06-.18.07,0a10,10,0,0,0,8.49,0c2.33-1.2,2-3,0-4.24a28,28,0,0,0-13.93-3.9c-1.69-.08-4.41.39-5.48,1.84S79.51,70.28,80.9,71l6.16,3,7.27-4.71a40.85,40.85,0,0,0-13-2.16c-1.72,0-4.38.35-5.48,1.84-1,1.3-.18,2.65,1.24,3.28a28.18,28.18,0,0,0,15,2.11c2.92-.36,6.33-2.8,2.65-5a17.93,17.93,0,0,0-4.33-1.83l-6.06,5.18a15.19,15.19,0,0,1,5.23,2.2c2.47,1.58,8.33,1.41,10-1.32l1-1.67c2.23-3.59-9.41-5.08-11.57-1.6l-1,1.67,10-1.32a23.59,23.59,0,0,0-7.66-3.14c-2.5-.55-6.17-.87-8.21,1.08s.29,3.57,2.15,4.1a6.3,6.3,0,0,1,1.9.89l2.65-5a6.1,6.1,0,0,1-3.36-.57l-4.24,5.12a21.52,21.52,0,0,1,6.91,1.34c2.26.79,5.74.64,7.74-.77,1.73-1.23,1.53-3-.47-3.94l-6.16-3-4.24,5.12A11.6,11.6,0,0,1,90.59,74l8.49-4.24a14.3,14.3,0,0,0-5.37-1.59c-2.1-.2-6.29-.27-7.38,2.1s2.58,3.54,4.19,3.69Z"/><path class="cls-2" d="M94,70c-.49.14-1.63-.24-1.94-.07a10.21,10.21,0,0,0,.93.93l5.18-4.51a40.79,40.79,0,0,1-8.87-1.56l2.15,4.1c-2.21,1.62-4.48-.42-1.6,1.1,1.2.64,2.37,1.38,3.51,2.13a76.29,76.29,0,0,1,7.19,5.45c1.92,1.62,5.17,1.76,7.49,1.23,1.34-.3,4.72-1.51,3.47-3.54l-3.7-6c-1.24-2-4.5-2.31-6.58-2.15-1.48.11-5.37.72-5.2,2.95A10,10,0,0,0,98,75.36c2.06,2.8,13,3.4,11.57-1.6l-2.65-9.51-1.54,2.92a19.74,19.74,0,0,0,4-2.87L98.39,62a4.56,4.56,0,0,1-1.6,1.31L107,65.43a2,2,0,0,1,1.33-1.89l-8.49-4.24-5.8,3.56L104.32,65c-.3-2.11,3.47-2.37,4.94-2.75a20.92,20.92,0,0,1,6.92-.76,12.92,12.92,0,0,1,10.26,7.21l11-2.31a36,36,0,0,0-15.61-9.14c-2.21-.65-8.76-.93-9,2.59-.15,2,1.22,3.49,2.67,4.66,1.13.92,2.69,1.57,2.61,2.81l9-2.59a18,18,0,0,1-6.65-4.33c-1.75-1.7-5.31-1.72-7.49-1.23-1.09.25-5,1.68-3.47,3.54a28,28,0,0,0,8.11,6.78,10.23,10.23,0,0,0,7.27.47c1.19-.36,3.89-1.71,2.76-3.39a19.32,19.32,0,0,0-11.25-7.82c-1.86-.5-9.25-1-9,2.59a8.93,8.93,0,0,0,4,7l9.42-3.64-4.41-2.83c-1.72-1.11-4.7-1-6.55-.62-1.18.27-3.83,1-3.69,2.74a12.06,12.06,0,0,0,3.9,8c1.77,1.7,5.3,1.73,7.49,1.23,1.49-.34,4.53-1.43,3.47-3.54a21,21,0,0,0-5-6.36c-2.29-2-9.31-2.49-11,.72a15.8,15.8,0,0,0-1.8,7.59c.07,4,10.56,4,11.79.8a11.51,11.51,0,0,0-.14-9.07c-1.4-3.31-10-2.95-11.57,0a13.2,13.2,0,0,0-1.48,8.29c.64,4.12,10.06,3.93,11.79.8a9.35,9.35,0,0,0,1.16-5.76c-.5-4-9.06-3.7-11.18-1.51a9.62,9.62,0,0,0-2.48,10.24c.51,1.62,3.75,2.07,5,2.15,1.86.12,4.53,0,6-1.43a8,8,0,0,0,2.74-6.38c-.13-2.24-3.54-2.84-5.2-2.95-2.34-.15-5.05.19-6.58,2.15a17.67,17.67,0,0,0-3.13,6.68c-.48,1.81,3.4,2.75,4.4,2.89,2,.28,5.28.22,6.78-1.38a7.52,7.52,0,0,0,2.35-5.28c0-1.92-3-2.7-4.4-2.89-2.2-.31-5-.09-6.78,1.38-2.9,2.41-2.85,5.9-2.11,9.3s6.5,3.54,9,2.59c3.73-1.4,5.57-3.59,7.57-6.91,1.09-1.8,3.37-4.72,5.19-4.83l-5.18-4.51c-1.21.86,1.77,0,1.48.26l.3.16a3.7,3.7,0,0,1-.76-.7,4.28,4.28,0,0,1-.7-4c1.33-3.65-5.36-3.89-7.38-3.69l-3.3.32c-1.74.17-5.17,1.35-4.19,3.69s5.46,2.28,7.38,2.1l3.3-.32-7.38-3.69c-1.61,4.41.64,8.65,4.79,10.61A17.24,17.24,0,0,0,127.08,69c3.59-2.55-3.59-4.62-5.18-4.51-4.76.31-9.44,1.44-13.12,4.66a19,19,0,0,0-3.63,4.57c-.47.77-.89,1.58-1.43,2.31-.27.37-1.71,1.41-.63,1l9,2.59c-.4-1.83-1.2-4.88.47-6.27l-11.18-1.51a3.14,3.14,0,0,1-.71,2.25l11.18,1.51a14.33,14.33,0,0,1,2.7-5.09l-11.79-.8a4,4,0,0,1-1.1,3.36l11,.72a5.8,5.8,0,0,1,1.27-5.62l-11.18-1.51a6.26,6.26,0,0,1-.74,4.17l11.79.8a10.24,10.24,0,0,1,1-6.7H103.27a7.75,7.75,0,0,1,.14,5.88l11.79.8a11.8,11.8,0,0,1,1.37-6l-11,.72a15.65,15.65,0,0,1,3.74,4.92l11-2.31A7.47,7.47,0,0,1,118,64L107.8,66.09l4.41,2.83c2.06,1.33,5.72,1.13,7.88.23,1.39-.58,3.66-2.44,1.55-3.87a4.75,4.75,0,0,1-2.31-4l-9,2.59A10,10,0,0,1,116,68.13l10-2.92a17.93,17.93,0,0,1-5-4.13l-11,2.31a28.82,28.82,0,0,0,11,6.48c2.18.75,8.79.87,9-2.59.14-2-1.23-3.49-2.68-4.66-1.14-.92-2.69-1.57-2.59-2.81l-9,2.59a26.08,26.08,0,0,1,11.3,7c2,2,13.1,1.91,11-2.31-4.08-8.07-13.48-11.39-22-11.64a46.91,46.91,0,0,0-14.53,2.09c-3.31,1-9.8,2.84-9.14,7.45.53,3.7,7.86,3.58,10.24,2.12l5.8-3.56c2-1.22,2.26-3.07,0-4.24a10.49,10.49,0,0,0-8.49,0A7.47,7.47,0,0,0,95,65.43c-.21,1.66,2.64,2.52,3.69,2.74a10.21,10.21,0,0,0,6.55-.62,13.61,13.61,0,0,0,4.68-4c1.46-1.9-2.4-3.31-3.47-3.54-2.25-.47-5.69-.48-7.49,1.23a10.54,10.54,0,0,1-2.14,1.66c-1.28.71-1.95,1.46-1.54,2.92L98,75.36l11.57-1.6A6.71,6.71,0,0,1,108.07,70l-11.79.8,3.7,6,11-2.31c-7.54-6.39-19.89-15.95-29.82-8.68-2.26,1.65.59,3.66,2.15,4.1A67.93,67.93,0,0,0,98.2,72.35c2.16.12,8.07-1.48,5.18-4.51-3.81-4-10.36-4.48-15.4-3-1.87.55-4.07,2.26-2.15,4.1S91.71,70.68,94,70Z"/><path class="cls-2" d="M48.77,152.21c-2.4,3.18-2.16,7.69-2.4,11.47l-.92,14.47h12A106.61,106.61,0,0,1,57.16,157c.33-3.87-10.85-4.1-11.79-.8-1.52,5.36-3.11,10.88-2.89,16.5s2.6,10.33,5.08,15.16c1.84,3.57,13.61,2.37,11.57-1.6-2.25-4.37-4.47-8.55-4.66-13.56s1.09-10.07,2.46-14.91L45.16,157a106.61,106.61,0,0,0,.29,21.17c.47,4.16,11.73,4.23,12,0l.86-13.5c.23-3.54-.21-7.87,2-10.83,1.6-2.12-3-3.52-4.19-3.69-2.48-.35-5.76-.05-7.38,2.1Z"/><path class="cls-2" d="M47.66,113.41c-1.23,11.2-6.47,23.9,2.81,33.18,1.89,1.89,5.86,1.78,8.21,1.08,1.92-.58,4.07-2.19,2.15-4.1-7.77-7.77-2.18-21-1.17-30.15.43-3.92-11.52-4.33-12,0Z"/><path class="cls-2" d="M131.37,106.13a30.23,30.23,0,0,0,5.24,10.62c1.63,2.14,4.88,2.45,7.38,2.1,1.53-.22,5.41-1.36,4.19-3.69a57.92,57.92,0,0,1-5.48-15c-.53-2.48-3.85-3-6-3-1.62,0-6.09.52-6,3a27.8,27.8,0,0,0,1.79,8.7l11.57-1.6-3.23-6c-1.11-2-4.61-2.3-6.58-2.15-1.28.1-5.63.79-5.2,2.95a14.85,14.85,0,0,0,1.89,5.07l11.57-1.6a27.63,27.63,0,0,1-2.82-6l-11.57,1.6A55.17,55.17,0,0,1,132.5,114a57.14,57.14,0,0,1,1,7.13c.16,2.21.1,4.52.92,6.62,1.05,2.7,4.08,3.6,6.78,3.6,2.33,0,5.55-.4,6.69-2.76,1.8-3.74.82-8.82-.66-12.46l-11.57,1.6c2.41,3.82,2.94,8.11,3.4,12.51.23,2.24,3.45,2.84,5.2,2.95s5.93,0,6.58-2.15a22.81,22.81,0,0,0-.72-16.09l-11.57,1.6a24,24,0,0,1,3.24,9.81c.43,4.22,12.21,4.1,12,0a40.45,40.45,0,0,0-3.21-13.77c-.88-2.08-4.8-2.29-6.58-2.15-1.25.1-5.68.81-5.2,2.95l3.1,14c.55,2.48,3.84,3,6,3,1.34,0,6.42-.6,6-3a64.25,64.25,0,0,0-7.26-20.51c-1.15-2-4.58-2.3-6.58-2.15-1.43.11-5.44.74-5.2,2.95a16.58,16.58,0,0,0,2.62,7.51c1.32,2,4.43,2.32,6.58,2.15,1.33-.1,5.57-.77,5.2-2.95a31,31,0,0,0-4.67-12.13c-1.32-2-4.43-2.32-6.58-2.15-1.53.12-5.31.71-5.2,2.95l.26,5.52,3-2.59-.53.14,7.27.47-.54-.27,1.54,1.32c-.61-.81-.66-1.81-1.32-2.6a6.86,6.86,0,0,0-4.26-2c-2.75-.43-6.85-.22-8.45,2.47h11.57a58.79,58.79,0,0,1-5-11.31c-1.19-3.65-13-2.93-11.57,1.6a58.79,58.79,0,0,0,5,11.31c1.82,3.15,9.74,3.1,11.57,0l.2-.34-2.76,1.79.4-.12-4.62.3.46.09-3.59-1.38c.25.18.25,1,.4,1.29a4.8,4.8,0,0,0,2.19,2,11.24,11.24,0,0,0,8.07.47c1.09-.28,3-1.16,3-2.59l-.26-5.52-11.79.8a27,27,0,0,1,4.24,10.53l11.79-.8a12.8,12.8,0,0,1-2.2-5.92l-11.79.8a59.25,59.25,0,0,1,6.83,18.91h12l-3.1-14-11.79.8a35.3,35.3,0,0,1,2.78,12.18h12A28.25,28.25,0,0,0,150.09,115c-1.88-3.23-13.43-2.81-11.57,1.6a19,19,0,0,1,.72,12.9l11.79.8c-.51-4.87-1.16-9.88-3.83-14.11-1.94-3.08-13.41-2.93-11.57,1.6a14.54,14.54,0,0,1,1.09,4.89,15.83,15.83,0,0,1-.09,2.51c0,.24-.34,2-.08,1.67l3.59-1.38-.56,0,6.78,1.38c-1.28-1-.82-5.12-1-6.6a56.75,56.75,0,0,0-1.09-7.12,62.23,62.23,0,0,0-4.63-13.53c-1.64-3.44-13.08-3-11.57,1.6a27.63,27.63,0,0,0,2.82,6c2.14,3.42,13.82,2.06,11.57-1.6a10.41,10.41,0,0,1-1.46-3.48l-11.79.8,3.23,6c1.79,3.31,13.25,2.91,11.57-1.6a22.42,22.42,0,0,1-1.37-7.11h-12a63.86,63.86,0,0,0,5.91,16.55l11.57-1.6a30.23,30.23,0,0,1-5.24-10.62c-.63-2.34-5.62-2.34-7.38-2.1-2,.28-4.86,1.21-4.19,3.69Z"/><path class="cls-2" d="M122.4,76.11l2.22-2.39-11-2.31a8.43,8.43,0,0,1-3.9,2.91l10,2.92a7.33,7.33,0,0,1,2.43-2.73l-10-2.92a22.35,22.35,0,0,1-1.75,3.66c-1.2,2,2.16,3.26,3.47,3.54,2.41.51,5.49.38,7.49-1.23a30.08,30.08,0,0,1,7.69-4.46l-9.42-3.64v0l4.24-.88,2.64.5,1.54,1.32-.35-.44-.6,2.31c-.21.14-2.19.47-2.14.14a6,6,0,0,1,1.19.57,13.79,13.79,0,0,1,3.19,3.19l11-2.31A17,17,0,0,1,135,66.57l-11,2.31q3.81,3.46,7.32,7.21l10.36-3a24.59,24.59,0,0,1-4.1-5.22l-11,2.31A31,31,0,0,1,133,77.08l11.57-1.6-4-5.39-11,2.31a63.25,63.25,0,0,1,18.21,32.95c.82,4,11.91,4.32,12,0C160,98.73,157.19,92.64,154,87c-1.89-3.31-13.51-2.67-11.57,1.6a101.42,101.42,0,0,1,7.15,21.86c.88,4.34,12.75,3.69,12,0A108.81,108.81,0,0,0,154,87l-11.57,1.6c3,5.23,5.56,10.62,5.43,16.77h12a68.27,68.27,0,0,0-19.85-36c-1.77-1.69-5.3-1.73-7.49-1.23-1.19.27-4.9,1.6-3.47,3.54l4,5.39c1.59,2.16,4.92,2.44,7.38,2.1,1.31-.18,5.67-1.48,4.19-3.69A37.68,37.68,0,0,0,137,67.12c-2-1.6-5.13-1.77-7.49-1.23-1.36.31-4.69,1.49-3.47,3.54a32,32,0,0,0,5.31,6.66c1.93,1.86,5.83,1.79,8.21,1.08,2-.6,4-2.15,2.15-4.1q-3.52-3.76-7.32-7.21c-2-1.85-12.82-2.27-11,2.31A21.23,21.23,0,0,0,130,76.87c2,1.58,5.1,1.77,7.49,1.23,1.15-.26,4.95-1.63,3.47-3.54-2.64-3.41-5.67-6.13-9.9-7.34a17.38,17.38,0,0,0-14.28,2,1.85,1.85,0,0,0-.6,2.31c3,3.81,10.29,4.23,13.86,1,1.75-1.6.15-3.21-1.55-3.87a10.71,10.71,0,0,0-7.88.23,38.17,38.17,0,0,0-9.56,5.67l11,2.31a22.35,22.35,0,0,0,1.75-3.66c1.62-4.38-8-4.16-10-2.92a15,15,0,0,0-5.52,5.38c-1,1.75,1.51,3,2.76,3.39a11,11,0,0,0,7.27-.47,16,16,0,0,0,7-5.56c1.41-1.92-2.35-3.3-3.47-3.54-2.13-.45-5.84-.55-7.49,1.23L112,73.09c-3.73,4,7.76,5.83,10.36,3Z"/><path class="cls-2" d="M140.75,93.53l1.27,6.62,11.79-.8a86.07,86.07,0,0,0-7.22-16c-1.18-2-4.55-2.31-6.58-2.15-1.28.1-5.64.8-5.2,2.95a66.56,66.56,0,0,0,5,15.25c1.62,3.44,12.89,3,11.57-1.6a93.12,93.12,0,0,0-3.72-10.66c-1.4-3.32-2.62-6.45-5.9-8.28a10,10,0,0,0-6.55-.62c-1.24.28-3.76,1-3.69,2.74a20.84,20.84,0,0,0,4.06,11.7c1.45,2,4.32,2.32,6.58,2.15,1.77-.14,5-.68,5.2-2.95.32-3.57-1-6.94-2.65-10.06-2.2-4.26-5.9-6.22-10.78-5.66-3.11.36-6.28,1.82-6.6,5.3-.3,3.22,1.82,6.75,4.33,8.6a11.43,11.43,0,0,0,11.56.68c3.32-1.87,3-5.54,1.63-8.59a12.43,12.43,0,0,0-6.94-6.81c-3.56-1.2-10.25-1.38-12.5,2.43-4.18,7,11.85,9.56,14.8,3.23,3.59-7.71-12.32-9.87-15.65-4.45-4.44,7.21,11.28,9.49,14.9,4,1.84-2.78.32-5.77-2.35-7.27-3.42-1.93-9.13-2.08-12.31.5-3,2.41-2.08,6.21,1.21,7.69,3.59,1.61,10.94,1.33,11.23-3.86.56-9.88-15.68-9.26-18-1-1.15,4,6.51,4.18,8.81,3.39,2.48-.85,5.76-2,6.36-4.94.5-2.44-1.31-4.16-3.45-4.91-5.72-2-13.79.79-13.62,7.76A2.77,2.77,0,0,0,119,80c2.88,1.22,6.49,1.57,9.39.14,1.92-.95,3.32-2.74,2.1-4.82-2.63-4.46-12.7-3.7-14.66,1-1.69,4.09,6.88,3.88,8.81,3.39l.48-.12c1.91-.49,4-2.29,2.15-4.1s-5.83-1.69-8.21-1.08l-.48.12L127.45,78a.71.71,0,0,1,.52-.73l-2.15,1.08.59-.18-4.62.3L120.31,78l-1.54-1.32,3.36-1.51L128,76l-.44-.19,1.76,2.12a4.17,4.17,0,0,1,.29-2c.83-1.86,1.85-.41-2.3-.42L123,74.63l-.56-.64a1.08,1.08,0,0,1,0,.57c-.08,0-.42.23-.52.27l8.81,3.39a6.43,6.43,0,0,1,.78-1.89c.84-1.23,1.7-.6-1.16-.2l-4.62-.3.54.19-2.15-1.08a2.63,2.63,0,0,1,.74,3.44l1.54-1.32-.43.17h8.49l.42.51v-.55c1.28,0-6-1.81-6.67.28-.25.8.25.92-.67,1.55l2.15-1.08.34-.06,4.62.3q1.33,1.47,1.22.42.19-4-7.45-.15l.16.43q-.19,1.61,2-.1l4.62.3-.46-.13L137,80c-.19-.14,0-.23-.15-.58q-8.16-1.21-5.33,1.35l.47.66a15.2,15.2,0,0,1,2,4.79,1.65,1.65,0,0,1-.1.66q10.68,2.34,7.41-.58A12.53,12.53,0,0,1,140,84.52a5.66,5.66,0,0,1-.65-2.15c-.14-2.16,1-.83-2.21-.45l-4.62-.3q-1.05-.7-.12.35.41.7.77,1.43c.41.8.81,1.61,1.16,2.43a12.14,12.14,0,0,1,1.05,6l11.79-.8a17.63,17.63,0,0,1-3.63-10.11l-10.24,2.12c.75.42,1.19,2,1.54,2.74q1,2.25,2,4.57a93.87,93.87,0,0,1,3,9l11.57-1.6a59.61,59.61,0,0,1-4.57-13.66l-11.79.8a86.07,86.07,0,0,1,7.22,16c1.11,3.34,12.49,2.85,11.79-.8l-1.27-6.62c-.83-4.34-12.71-3.72-12,0Z"/><path class="cls-2" d="M149.11,104.23a27.66,27.66,0,0,1,2.79,12.46c0,3.73-.54,9.05-3.36,11.82-1.91,1.87.28,3.54,2.15,4.1,2.3.69,6.31.78,8.21-1.08,3.62-3.54,4.78-9.1,5-14a31.64,31.64,0,0,0-3.2-14.88c-1.73-3.6-13.53-2.48-11.57,1.6Z"/><path class="cls-2" d="M135.4,71.21l.66-.19H130l.72.23-2.15-1.08A52.4,52.4,0,0,1,142.8,85.23a39.48,39.48,0,0,1,6.53,20.52c.09,4.19,12.08,4.16,12,0a43.92,43.92,0,0,0-8.86-24.87A68.09,68.09,0,0,0,144,71.43a43.72,43.72,0,0,0-5.1-4.29A11.35,11.35,0,0,0,129.35,66c-1.88.54-4.07,2.26-2.15,4.1s5.87,1.74,8.21,1.08Z"/><g class="cls-4"><path class="cls-5" d="M109.93,73.71a27.11,27.11,0,0,1,1-7.82,9.88,9.88,0,0,1,4.82-6"/></g><g class="cls-4"><path class="cls-5" d="M104.67,72.17a24,24,0,0,0-2.31-6.41A11.28,11.28,0,0,0,97.57,61a11.88,11.88,0,0,0-7.11-.73,35.4,35.4,0,0,0-6.91,2.2"/></g><path class="cls-6" d="M99.2,73,87.06,69.52c-3.28-.95-6.53-1.92-9.93-1C74,69.4,71.41,71.42,69,73.43c-2.25,1.86-4.44,3.82-5.15,6.77-.06.26.43.33.48.1.72-3,3-5,5.34-6.87,2.69-2.2,5.65-4.38,9.19-4.83s7.08,1,10.42,2l9.81,2.84c.28.08.45-.27.13-.36Z"/><g class="cls-4"><path class="cls-5" d="M96,77.74a25.44,25.44,0,0,0-23.33,6.91c-5.54,5.67-8,13.57-10.09,21.22a55.31,55.31,0,0,0-2.13,11.27c-.11,2,0,4.07-.23,6.09a56.7,56.7,0,0,1-1.1,5.71,112.84,112.84,0,0,0-1.83,13.51c-.4,4.45-.57,9.43,2.33,12.82"/></g><path class="cls-7" d="M57.67,85.41a119.42,119.42,0,0,0-7.19,17.93,48.5,48.5,0,0,0-1.64,8.54c-.3,3.19,0,6.41-.34,9.6s-1.69,6-2.35,9.14a24.23,24.23,0,0,0-.36,7.75,33.58,33.58,0,0,0,5.81,15c.13.2.59.05.43-.19a32.41,32.41,0,0,1-5.87-16.39c-.27-5.71,2.54-10.61,2.91-16.18.19-2.9,0-5.8.26-8.69a48.92,48.92,0,0,1,1.88-9.32,125.46,125.46,0,0,1,6.94-17.05c.11-.24-.38-.32-.48-.1Z"/><g class="cls-4"><path class="cls-5" d="M55.13,155.38l-1.95,7.06c-2,7.1-3.93,14.6-2.13,21.75.7,2.77,2.13,5.57,4.68,6.84"/></g><path class="cls-7" d="M47.41,150.78c-2.2,7.9-6.77,15.13-7.91,23.32a21.75,21.75,0,0,0,7.26,19.53c.18.16.59-.06.35-.27-6.25-5.49-8.48-13.59-6.68-21.62,1.62-7.24,5.47-13.74,7.46-20.87.07-.26-.42-.33-.48-.1Z"/><g class="cls-4"><path class="cls-5" d="M135,110.51c-.66,4.19,2.28,8.06,5.4,10.93s6.75,5.55,8.21,9.53a20.34,20.34,0,0,1,.88,6.85A112.93,112.93,0,0,1,148,159.35a52.93,52.93,0,0,1-7.75,20,10.52,10.52,0,0,1-2.86,3.1,6.07,6.07,0,0,1-4.57.81"/></g><g class="cls-4"><path class="cls-5" d="M113.5,77.85a5.42,5.42,0,0,1,5.3-.34,16,16,0,0,1,4.46,3.28,109.74,109.74,0,0,1,12,12.5c2.32,3,4.39,6.26,7.44,8.49,3.7,2.7,8.62,3.69,11.65,7.11,2,2.25,2.87,5.23,3.7,8.11"/></g><path class="cls-7" d="M156,128.16c0,13.24.92,26.51-2.16,39.49q-1.06,4.48-2.3,8.92c-.79,2.83-1.57,5.76-3.46,8.08a12.87,12.87,0,0,1-18.15,1.77c-.38-.3-1.19.14-.71.53a14.09,14.09,0,0,0,15,1.85c5.9-2.91,7.43-8.8,9-14.69,1.94-7.32,3.7-14.64,3.82-22.25.13-7.89,0-15.8-.05-23.69,0-.5-1-.5-1,0Z"/><path class="cls-2" d="M125.18,127c-.15,4.62,2.42,8,4.55,11.83,1.76,3.16,1.57,6.51,0,10-1.85,4.16-4.7,7.66-5.83,12.16a30.91,30.91,0,0,0-.06,14.88c.82,3.59,6.26,4.55,9.23,3.93,3.46-.72,6.07-3.29,5.24-6.92a20.15,20.15,0,0,1,.82-11.36c1.58-4.26,4.67-7.77,6-12.15a17.71,17.71,0,0,0-.78-13.33c-1.62-3.15-4.24-6-4.14-9.08.23-7.46-14.76-7.52-15,0Z"/><path class="cls-8" d="M124,67.28S139.82,64,155.63,95"/><path class="cls-9" d="M100.24,219.8c-25.64,0-36.31-41.71-36.31-41.71s11.3,2.22,10.2-12.4h0s46.75-5.21,52.92.72h0s-3.25,11.87-.81,21.11S110.53,219.8,100.24,219.8Z"/><path class="cls-10" d="M73.69,171.94s19,13.16,23.17,13.16,7.55-4.76,7.55-4.76l-5.58-10.62-24.7-4Z"/><path class="cls-10" d="M113.93,170.85s2,9.85,1.61,11.81,9.79-2.82,9.79-2.82A68.15,68.15,0,0,1,127,166.42c1.54-5.75-11.5,0-11.5,0Z"/><path class="cls-11" d="M136.37,128.65s3.39,5.67,2.86,8.22-1.06,11.3-4.2,8.67C135,145.54,127.43,142.71,136.37,128.65Z"/><path class="cls-12" d="M109.88,79.5c.11-.2.41-.09.6,0l6.78,4.42-.28-.11c2.77.47,4.72,2.91,6.29,5.23,8.28,12.23,13.77,26.78,13.11,41.53-.12,2.75-.46,5.48-.79,8.21l-1.25,10.25a31,31,0,0,1-1.87,8.53,31,31,0,0,1-4.61,6.95c-3.18,4-6.47,8-10.9,10.49a29.17,29.17,0,0,1-7.85,2.79c-7.3,1.64-15.11,1.76-22.09-.91a29.64,29.64,0,0,1-17.94-20.5s-2.73-8.38-3-12.4l-1-14.15c-.28-4-.56-8,.19-11.88.83-4.3,2.9-8.3,3.68-12.61.43-2.39.46-4.86,1.22-7.16a23.65,23.65,0,0,1,4.34-7l4.27-5.38c1.27-1.6,2.63-3.26,4.53-4,1.21-.46,2.65-1,3.83-.48,8.29,3.77,15.55,2.8,21.76-1.81Z"/><path class="cls-13" d="M113.12,157a16.38,16.38,0,0,1-15.75,5.46,31.09,31.09,0,0,1-7.28-3l-2.16-1.11-.52-.28a17.24,17.24,0,0,0,6-1.22c2-.8,4.18-2,6.2-1.23a1.27,1.27,0,0,0,.45.12,1.12,1.12,0,0,0,.34-.08,12.14,12.14,0,0,1,9.11.64c1.13.56,2.45,1.32,3.57.71"/><path class="cls-14" d="M94.4,158.53a35.42,35.42,0,0,1,5.9-.92,17.74,17.74,0,0,1,6.17.83c-3,.87-6.15.65-9.25.42a10.31,10.31,0,0,1-2.63-.43"/><path class="cls-15" d="M103.92,145.41a5.73,5.73,0,0,1,2-1.33,1.8,1.8,0,0,1,1-.15.78.78,0,0,1,.65.68"/><path class="cls-15" d="M97.37,145.55a2.94,2.94,0,0,0-1.49-1.22,1.63,1.63,0,0,0-1.24,0,.88.88,0,0,0-.49,1"/><path class="cls-16" d="M98.27,146c.76.52,1.66,1.4,2.66,1.32a3.56,3.56,0,0,0,2.37-1.45c.16-.24-.3-.39-.43-.19a2.63,2.63,0,0,1-.76.71,1.67,1.67,0,0,1-1.45.35,4.28,4.28,0,0,1-2-1c-.2-.13-.61.09-.35.27Z"/><path class="cls-16" d="M109,139.06c1.3,2.64,1.93,6.41-2.07,6.86-.33,0-.1.27.13.24a3.51,3.51,0,0,0,3.23-2.06c.69-1.74,0-3.53-.81-5.11-.07-.15-.56-.1-.48.07Z"/><path class="cls-16" d="M91.65,139.39c-1.67,2.75-.72,8.94,3.59,7.55.31-.1,0-.4-.25-.32-4,1.3-4.17-4.95-2.9-7,.15-.25-.31-.39-.43-.19Z"/><path class="cls-16" d="M104.22,125.62a4.9,4.9,0,0,1-.05-2.82c.05-.19-.44-.22-.48-.07a5.08,5.08,0,0,0,.05,3c0,.15.54.12.48-.07Z"/><path class="cls-16" d="M96.24,122.92l.14,2.61c0,.18.51.17.5,0l-.14-2.61c0-.18-.51-.17-.5,0Z"/><path class="cls-17" d="M105.39,114.1a6.92,6.92,0,0,1,3.07-3.36"/><path class="cls-17" d="M106.3,113.93a16.16,16.16,0,0,1,3.76-3.36"/><path class="cls-17" d="M107.73,113.74a18.27,18.27,0,0,1,2.06-2,3.85,3.85,0,0,1,1.78-1"/><path class="cls-17" d="M109.2,113.94a29.4,29.4,0,0,1,3-2.58,3,3,0,0,1,1.65-.76"/><path class="cls-17" d="M111.59,113.46l1.29-.92c.48-.34,1-.68,1.42-1a8,8,0,0,1,.94-.65,3.57,3.57,0,0,1,1.32-.41"/><path class="cls-17" d="M114.6,112.4a10.91,10.91,0,0,1,4.43-2"/><path class="cls-17" d="M118.77,111.21a8.68,8.68,0,0,1,1-.37,4.39,4.39,0,0,1,3.14.36"/><path class="cls-17" d="M123.31,110.67q1.74.31,3.45.79"/><path class="cls-17" d="M124.37,111.8a8,8,0,0,1,2.82.13"/><path class="cls-17" d="M125.71,112.35a4,4,0,0,1,2.39.65"/><path class="cls-17" d="M128.81,113.28a2,2,0,0,1,1.12,1.27"/><path class="cls-17" d="M128.25,113.56a5.4,5.4,0,0,1,1.19,1.34"/><path class="cls-18" d="M77.1,122.57l-1.8-1.34S79,116.84,84.54,118a2.73,2.73,0,0,0,.55,1l-7.35,2.64-.39.21"/><path class="cls-18" d="M124.76,121.92l1-.86s-2.51-4.42-7.16-4.58c0,0-2.11,1.21-2.6,1.36Z"/><path class="cls-19" d="M77.34,122.44s2.79-3.26,6.1-3.33S90,122.44,90,122.44a1.12,1.12,0,0,0,0,.31C90,122.91,79.73,125.25,77.34,122.44Z"/><path class="cls-19" d="M110.06,122.06s5.3-4.42,7.26-4.12,2.72-.11,6.86,3.78c0,0-.65,1.61-7.06,1.78C117.12,123.5,113.85,122.85,110.06,122.06Z"/><path class="cls-20" d="M109.28,122.84c3-.6,5.42,1.2,8.32,1.25,2.51,0,4.77-1,7.1-1.76a.34.34,0,0,0,.18-.51c-1.46-2.33-4.71-4.49-7.55-4.29-3.15.22-6.07,3-8.53,4.69-.51.35.31.8.71.53,2.26-1.56,5.34-4.5,8.21-4.51,2.08,0,3.84,1.53,5.33,2.76,1.16,1,.75.85-.47,1.28a13.88,13.88,0,0,1-5,1.06c-1.59-.06-2.66-.78-4.1-1.13a10.83,10.83,0,0,0-4.49-.09c-.64.13-.29.83.27.72Z"/><path class="cls-21" d="M120.08,119a1.88,1.88,0,0,1,.43,1.85,5.13,5.13,0,0,1-.79,1.79,2,2,0,0,1-.41.51,1.74,1.74,0,0,1-1,.31,5.08,5.08,0,0,1-2-.22,2.76,2.76,0,0,1-.8-.38,2.41,2.41,0,0,1-.87-1.37,5,5,0,0,1-.09-1.64.69.69,0,0,1,.23-.55S116.91,116.64,120.08,119Z"/><path class="cls-19" d="M118,119.73s1.16.61.51,1.48A1.47,1.47,0,0,1,118,119.73Z"/><path class="cls-20" d="M77.61,122.53c2-1.87,4.7-3.58,7.55-2.72,2,.59,3.48,2.19,5.06,3.4.38.29,1.2-.15.71-.53-2.1-1.6-4.28-3.83-7.09-4-2.55-.13-5.16,1.64-6.94,3.29-.46.42.35.86.71.53Z"/><path class="cls-20" d="M77.14,123.08a10,10,0,0,0,5.44,1.1c2.55-.08,5.38-1.17,7.86-.86.55.07.92-.64.27-.72-4.44-.54-8.73,2.26-13.06-.15-.46-.25-1.07.33-.5.65Z"/><path class="cls-21" d="M85.82,119.81c.39.29.39.9.36,1.39a4.81,4.81,0,0,1-.36,1.41,1.6,1.6,0,0,1-.21.41,1.45,1.45,0,0,1-.54.39,4.78,4.78,0,0,1-2.45.46,2.14,2.14,0,0,1-1-.31,2,2,0,0,1-.59-.67,3.9,3.9,0,0,1-.41-3S83.36,118,85.82,119.81Z"/><path class="cls-19" d="M84.23,120.3s1.16.61.51,1.48A1.47,1.47,0,0,1,84.23,120.3Z"/><g class="cls-22"><path class="cls-23" d="M82.76,117.88l-.06.24"/></g><path class="cls-24" d="M76.74,123.2c1.92,1.29,5,1.45,7.21,1.18.33,0,.14-.4-.13-.36-2,.25-5,.08-6.72-1.09-.2-.13-.61.09-.35.27Z"/><path class="cls-24" d="M119.37,124.13c1.72-.25,3.61-.36,5-1.56.23-.21-.17-.43-.35-.27-1.3,1.14-3.12,1.23-4.75,1.46-.33,0-.15.4.13.36Z"/><path class="cls-25" d="M134.6,145.75c1,.68,2.32,1.38,3.19.21a7.2,7.2,0,0,0,1-3.59,46.93,46.93,0,0,1,.88-5.39c.12-.52-.86-.66-1-.2a42,42,0,0,0-.84,4.69c-.15,1.48-.24,5.3-2.61,3.76-.4-.26-1.23.19-.71.53Z"/><path class="cls-26" d="M137,146.5a20.69,20.69,0,0,1,1.18,4.07,6.94,6.94,0,0,1-.54,4.15,5.84,5.84,0,0,1-1.48-8.28"/><path class="cls-26" d="M65.93,147.47c-2.09-.8-1.92,4.21-1.09,6.29A.42.42,0,0,0,65,154c.13.08.3,0,.43-.09a4,4,0,0,0,1.41-1.75S67.45,148.05,65.93,147.47Z"/><path class="cls-17" d="M92.32,112.6l-.91-.5"/><path class="cls-17" d="M93.77,113.32a4.41,4.41,0,0,0-2.21-1.68"/><path class="cls-17" d="M92,113.58a5.93,5.93,0,0,0-3.36-2.1"/><path class="cls-17" d="M90.71,113.71a14.26,14.26,0,0,0-3.94-2.65"/><path class="cls-17" d="M88.79,114.22a10.87,10.87,0,0,0-3.52-2.72"/><path class="cls-17" d="M89.49,114.1l-1.55-1.45"/><path class="cls-17" d="M85.83,112.78a8.48,8.48,0,0,0-2.89-1"/><path class="cls-17" d="M81.37,111.82a2.46,2.46,0,0,0-1.19.15,3.73,3.73,0,0,1-1.65,0"/><path class="cls-17" d="M77.54,112a12.69,12.69,0,0,0-3.82,1"/><path class="cls-17" d="M72.72,113.44a4.4,4.4,0,0,0-1.67,1.9"/><path class="cls-17" d="M71.15,116a1.21,1.21,0,0,0-.3.91"/><path class="cls-17" d="M77.2,111.07a6.43,6.43,0,0,0-2.22,1"/><path class="cls-17" d="M79.28,111a5.41,5.41,0,0,0-1.73.53"/><path class="cls-17" d="M81.6,111.12a2.67,2.67,0,0,0-1.41,0"/><path class="cls-17" d="M83.6,111.35a3.24,3.24,0,0,0-1.42-.38"/><path class="cls-17" d="M86.49,111.63a5,5,0,0,0-2.65-.57"/><path class="cls-16" d="M99.73,167.11a5,5,0,0,1,2.68-.41c.28,0,.46-.32.13-.36a5.75,5.75,0,0,0-3.06.45c-.3.13,0,.43.25.32Z"/><path class="cls-16" d="M118.27,169.44a20.86,20.86,0,0,1-.62,3.66c-.07.26.42.33.48.1a21.42,21.42,0,0,0,.64-3.76c0-.25-.48-.25-.5,0Z"/><path class="cls-16" d="M94.76,138.38a10,10,0,0,0,.84,4.88c.1.22.59.14.48-.1a9.8,9.8,0,0,1-.82-4.79c0-.25-.48-.25-.5,0Z"/><g class="cls-27"><path class="cls-28" d="M75.05,109.45c.43-5,.46-9.76,3.34-14a50.27,50.27,0,0,1,4.49-5.49c1.47-1.62,2.89-3.27,5-4.07a2.71,2.71,0,0,0,1.44-4.1c-1.19-1.67-3.75-1.73-5.47-1.08C78.75,82.62,74.46,88,71.49,92.4c-3.59,5.29-3.9,10.86-4.44,17-.34,3.93,7.66,4,8,0Z"/></g><path class="cls-29" d="M65.08,129.25,77.93,139s2.75,8-1,15.7C76.92,154.72,66.19,155.38,65.08,129.25Z"/><path class="cls-29" d="M136.28,129l-12.85,9.78s-2.75,8,1,15.7C124.44,154.43,135.16,155.09,136.28,129Z"/><g class="cls-30"><path class="cls-31" d="M97.22,143a3.78,3.78,0,0,0,2.77,2.17,3.11,3.11,0,0,0,3.21-1.32c1.66-2.73-2.58-4.52-4.56-2.91a1.94,1.94,0,0,0-.14,3,2.58,2.58,0,0,0,3.56-.33c.82-1.14-.2-2.46-1.38-2.72s-2.78.42-2.77,1.84c0,3,5.58,2.11,4.59-.65-.76-2.11-4.86-2.1-5.1.33s3.1,3.74,4.85,2.3a2.61,2.61,0,0,0,.91-2.5,2.52,2.52,0,0,0-2.5-1.9,3.09,3.09,0,0,0-3,1.82,2.26,2.26,0,0,0,1.6,2.8,3.21,3.21,0,0,0,3.63-.9,2.66,2.66,0,0,0-.26-3.36,1.84,1.84,0,0,0-2.05-.4c-.53.24-1.07,1-.54,1.54a1,1,0,0,1,.32.91s-.14.32-.17.29.3-.1.3-.1.16,0,.07,0,0-.09,0,0c0-.06-.05-.05,0-.15a.22.22,0,0,1,.06-.15c0,.06.16-.15.08-.08s.18,0,0,0a2.71,2.71,0,0,1-.62-.12c-.13,0,.08,0,0,0s0,0,0,.15a2.08,2.08,0,0,1-.23.64c-.08-.13.62-.15.58-.15.12,0,.1.15.07,0s-.07-.06-.08-.09a.66.66,0,0,1-.08-.75l-.39.5c.21-.18-.1,0-.22,0s-.37-.13-.12,0c-.1-.05-.17-.21-.15-.12s0,0,.09-.16c.32-.34,1.18.24,1.22.29q0-.22,0-.12-1,.79-1.55.1a.77.77,0,0,1,1.17-.45c.46.24.25.38.31.17s0-.08,0-.07a.35.35,0,0,1-.3.13l0,0a1.36,1.36,0,0,1,0,.28s-.15.25-.19.21.39-.12.37-.05-.59-.59-.6-.6a1.64,1.64,0,0,0-1.85-.79c-.55.12-1.38.7-1,1.38Z"/></g><path class="cls-16" d="M86.93,147.32a19.87,19.87,0,0,1-2.78,4.5c-1.06,1.28-2.92,3.25-2.47,5.1.09.36,1.07.3,1,0-.53-2.19,2.12-4.46,3.3-5.95a17,17,0,0,0,1.91-3.52c.16-.34-.82-.44-1-.13Z"/><path class="cls-16" d="M114.62,148a40.43,40.43,0,0,0,2.23,3.57c1.37,1.89,1.84,3,.51,5.29-.18.31.79.43,1,.13,1-1.8,1.24-3.3-.05-5a36.5,36.5,0,0,1-2.69-4.17c-.17-.29-1.15-.18-1,.13Z"/><path class="cls-16" d="M96.09,111.78l.14-6.78c0-.17-.5-.18-.5,0l-.14,6.78c0,.17.5.18.5,0Z"/><path class="cls-16" d="M103.34,114.1a35.88,35.88,0,0,1-.62-4.66c0-.18-.51-.17-.5,0a35.88,35.88,0,0,0,.62,4.66c0,.18.53.16.5,0Z"/><circle class="cls-32" cx="83.66" cy="121.27" r="0.72"/><circle class="cls-32" cx="117.5" cy="120.79" r="0.71"/><g class="cls-33"><path class="cls-17" d="M130.31,114.34c-1.38-4.07-6.73-4.33-10.38-4.63s-10.29-1-13.47,1.43c-1,.76-2.29,2.51-1.16,3.66,2,2.08,10.37-1.77,12.39-2.63.44-.19,2.08-2.46,1.39-2.39-3.74.34-10.52-.9-12.41,3.26,0,.11-.38.75-.12.85,1.83.71,1.06.59,3,.53.68,0,2.31-2.33,1.58-2.44l-3.37-.5-1.58,2.44a26.07,26.07,0,0,0,11.75-1.38c.67-.23,2.07-2.65,1.2-2.35a25.24,25.24,0,0,1-11.38,1.29c-.75-.08-2.26,2.34-1.58,2.44l3.37.5,1.58-2.44q-3.18,1.27-1,.91l2.45-.22,4.9-.44,1.39-2.39c-2.63,1.12-5.61,2.41-8.46,2.64-.52,0-3.13.46-1.15-.11a18.21,18.21,0,0,1,4.12-.33c4.24-.13,13.24-.54,14.93,4.44.2.59,2.25-1.36,2-2.12Z"/></g><g class="cls-33"><path class="cls-17" d="M71.81,116.47c1-3.65,7.64-3.76,10.59-3.88,3.1-.13,7.89-.53,9.84,2.35L94,112.58c-6,.3-11.39-2.94-17.36-1.89-.55.1-1.77,2.36-1.76,2.36a35.17,35.17,0,0,0,6.71.39c2.27-.11,5-1.24,6.87.37.25.21,2.17-2.09,1.85-2.36-1.2-1-2.29-.84-3.74-.72a43.32,43.32,0,0,1-9.84,0L75,113.05c5.93-1,11.43,2.19,17.36,1.89.4,0,2-2,1.76-2.36-2.84-4.19-14.25-2.71-18.28-.91a10.72,10.72,0,0,0-5.88,7c.08-.28,1.66-1.37,1.89-2.2Z"/></g><path class="cls-23" d="M31.23,30.42H23.31l-1.89,5H18.78l7.11-17.87h2.85l7.11,17.87H33.17Zm-7-2.29h6.15l-3.1-8Z"/><path class="cls-34" d="M32.86,51h-.24a5.16,5.16,0,1,0-9.74,0h-.24a5.16,5.16,0,1,0,4.12,8.28c-.56,2.18-1.31,4.46-2.12,5.19h6.24c-.81-.73-1.56-3-2.12-5.19A5.16,5.16,0,1,0,32.86,51ZM28,54.43s0,0,0,0Z"/><path class="cls-23" d="M164.21,236.24h7.91l1.89-5h2.65l-7.11,17.87H166.7l-7.11-17.87h2.67Zm7,2.29h-6.15l3.1,8Z"/><path class="cls-34" d="M162.58,215.69h.24a5.16,5.16,0,1,0,9.74,0h.24a5.16,5.16,0,1,0-4.12-8.28c.56-2.18,1.31-4.46,2.12-5.19h-6.24c.81.73,1.56,3,2.12,5.19a5.16,5.16,0,1,0-4.11,8.28Zm4.87-3.45s0,0,0,0Z"/></svg>