<?xml version="1.0" encoding="utf-8"?>
<!-- Generator: Adobe Illustrator 20.0.0, SVG Export Plug-In . SVG Version: 6.00 Build 0)  -->
<svg version="1.1" id="Layer_1" xmlns="http://www.w3.org/2000/svg" xmlns:xlink="http://www.w3.org/1999/xlink" x="0px" y="0px"
	 viewBox="0 0 196 266.7" style="enable-background:new 0 0 196 266.7;" xml:space="preserve">
<style type="text/css">
	.st0{fill:#F8E4E3;}
	.st1{fill:#231F20;}
	.st2{fill:#010101;}
	.st3{fill:#9B7761;}
	.st4{fill:#947C68;}
	.st5{fill:#EEC8AF;}
	.st6{fill:#986C48;}
	.st7{fill:#D3B489;}
	.st8{opacity:0.86;fill:#CFAE9A;}
	.st9{opacity:0.86;fill:#D2B39F;}
	.st10{fill:#8F3D30;}
	.st11{fill:#F9F1E8;}
	.st12{fill:#6B3720;}
	.st13{fill:#786554;}
	.st14{fill:#C7A87F;}
	.st15{fill:#D4BB98;}
	.st16{fill:#E7D8C4;}
	.st17{fill:#3C3738;}
	.st18{fill:#EBF4F0;}
	.st19{fill:#438090;}
	.st20{fill:#F3D8C9;}
	.st21{fill:#1D1612;}
	.st22{fill:#FFFFFF;}
	.st23{fill:#EDC5A6;}
	.st24{fill:#CFAE9A;}
	.st25{opacity:0.28;fill:#CFAE9A;}
</style>
<title>badbitchcards</title>
<path class="st0" d="M17.1,8.5h161.6c4.7,0,8.5,3.8,8.5,8.5v232.4c0,4.7-3.8,8.5-8.5,8.5H17.1c-4.7,0-8.5-3.8-8.5-8.5V17
	C8.6,12.3,12.4,8.5,17.1,8.5z"/>
<path class="st1" d="M31.2,30.4h-7.9l-1.9,5h-2.6l7.1-17.9h2.9l7.1,17.9h-2.7L31.2,30.4z M24.2,28.1h6.1l-3.1-8L24.2,28.1z"/>
<path class="st2" d="M32.9,51h-0.2c0.9-2.7-0.5-5.6-3.2-6.6c-2.7-0.9-5.6,0.5-6.6,3.2c-0.4,1.1-0.4,2.3,0,3.4h-0.2
	c-2.8,0-5.2,2.3-5.1,5.2c0,2.8,2.3,5.2,5.2,5.1c1.6,0,3.1-0.8,4.1-2c-0.6,2.2-1.3,4.5-2.1,5.2h6.2c-0.8-0.7-1.6-3-2.1-5.2
	c1.7,2.3,5,2.7,7.2,1c2.3-1.7,2.7-5,1-7.2C36,51.8,34.5,51,32.9,51z M28,54.4L28,54.4z"/>
<path class="st1" d="M164.2,236.2h7.9l1.9-5h2.6l-7.1,17.9h-2.9l-7.1-17.9h2.7L164.2,236.2z M171.2,238.5h-6.1l3.1,8L171.2,238.5z"
	/>
<path class="st2" d="M162.6,215.7h0.2c-0.9,2.7,0.5,5.6,3.2,6.6c2.7,0.9,5.6-0.5,6.6-3.2c0.4-1.1,0.4-2.3,0-3.4h0.2
	c2.8,0,5.2-2.3,5.1-5.2c0-2.8-2.3-5.2-5.2-5.1c-1.6,0-3.1,0.8-4.1,2c0.6-2.2,1.3-4.5,2.1-5.2h-6.2c0.8,0.7,1.6,3,2.1,5.2
	c-1.7-2.3-5-2.7-7.2-1c-2.3,1.7-2.7,5-1,7.2C159.4,214.9,161,215.7,162.6,215.7L162.6,215.7z M167.4,212.2L167.4,212.2z"/>
<g>
	<path class="st3" d="M146.7,138.3c0,0,0.2-2.6,3.6-1.5c3.4,1.1-0.9,19.4-1,19.6s-3.3-0.9-3.3-0.9l-2.2,0.4
		C143.9,155.9,144.4,139.6,146.7,138.3z"/>
	<path class="st3" d="M61.1,145.8c1.2,6.1,2.9,19.1,8.4,18.5c0,0-1.1-7.6-1.2-11.7c-0.1-4.1,0-10.7,0-10.7l0-0.6l-2.7-0.8
		L61.1,145.8z"/>
	<path class="st4" d="M63.4,138.5c0,0-4.6,1.8,7.2,3.4s80.7-3.5,80.7-3.5s-0.8-64.5-28.5-67.3C95,68.4,59.4,77,63.4,138.5z"/>
	<g>
		<path class="st5" d="M142.6,176.3c0.1,0.1,0.1,0.1,0.2,0.2C142.8,176.5,142.7,176.4,142.6,176.3z"/>
		<path class="st5" d="M142.4,176.1c0.1,0.1,0.2,0.2,0.3,0.2C142.5,176.2,142.4,176.2,142.4,176.1z"/>
		<path class="st5" d="M141.9,175.7c0.1,0.1,0.3,0.3,0.5,0.4C142.2,176,142.1,175.8,141.9,175.7z"/>
		<path class="st5" d="M141.9,175.6C141.9,175.6,141.9,175.6,141.9,175.6C141.9,175.6,141.9,175.6,141.9,175.6z"/>
		<path class="st5" d="M141.9,175.6c-0.1-0.1-0.1-0.1-0.2-0.2C141.7,175.5,141.8,175.5,141.9,175.6z"/>
		<path class="st5" d="M143.9,177.5c0.1,0.1,0.3,0.3,0.4,0.4C144.2,177.8,144,177.7,143.9,177.5z"/>
		<path class="st5" d="M144.3,177.9c0.2,0.2,0.4,0.4,0.5,0.4C144.6,178.3,144.5,178.1,144.3,177.9z"/>
		<path class="st5" d="M142.8,176.5c0.1,0.1,0.2,0.2,0.4,0.3C143.1,176.7,142.9,176.6,142.8,176.5z"/>
		<path class="st5" d="M144.7,178.4C144.8,178.4,144.8,178.5,144.7,178.4L144.7,178.4z"/>
		<path class="st5" d="M143.2,176.9c0.1,0.1,0.3,0.3,0.4,0.4C143.4,177.1,143.3,177,143.2,176.9z"/>
		<path class="st5" d="M143.6,177.2c0.1,0.1,0.2,0.2,0.3,0.3C143.8,177.4,143.7,177.3,143.6,177.2z"/>
		<path class="st5" d="M144.6,154.6c-0.4-7.8,2.2-12.9,2.2-16.3c0-3.4,0.1-13.2-2.2-16.3c-2.3-3.1-3.4-8.6-4-17.9
			c-9.2-5.6-20.7-21.1-25.1-20.8c-4.4,0.3-16.9,2.7-24.5,1.8c0,0-17.9,15.7-22.6,31.5c-1.7,7.1,0.3,19.6,0,25.2s0,20.2,1.5,23.3
			c3,3.4,8.1,11.7,12.1,17.8c-2.8,7.1-10.5,5.6-10.5,5.6s11.9,46.4,40.4,46.4c11.5,0,31.6-25.6,28.9-35.9
			c-2.7-10.3,0.9-23.5,0.9-23.5c0,0-0.1-0.1-0.2-0.1C143,169,144.8,159.5,144.6,154.6z"/>
	</g>
	<g>
		<path class="st6" d="M74.5,125.6c-0.4,0.2-0.8,0.3-1.2,0.5"/>
	</g>
	<g>
		<g>
			<path class="st6" d="M96.7,124.8c-0.1-1.8-1.2-3.5-2.8-4.4"/>
		</g>
		<g>
			<path class="st6" d="M95.5,124.1c-0.7-0.5-1.1-1.3-1.6-2.1c-0.5-0.7-1.2-1.4-2-1.5"/>
		</g>
		<g>
			<path class="st6" d="M93.3,123.9c-1.3-1-1.9-2.9-3.5-3.4"/>
		</g>
		<g>
			<path class="st6" d="M90.8,123.2c-0.6-0.5-1.1-1.2-1.6-1.8s-1.2-1.2-2.1-1.3"/>
		</g>
		<g>
			<path class="st6" d="M88,122.1c-0.6-0.4-1.2-0.8-1.8-1.3c-0.5-0.3-0.9-0.7-1.5-0.7"/>
		</g>
		<g>
			<path class="st6" d="M85.4,122c-0.6-0.4-1.1-0.7-1.7-1.1c-0.5-0.3-1.1-0.7-1.7-0.7"/>
		</g>
		<g>
			<path class="st6" d="M82.9,122.3c-1-0.7-2.2-1.1-3.4-1.4"/>
		</g>
		<g>
			<path class="st6" d="M80.4,122.3c-0.8-0.3-1.7-0.4-2.5-0.4"/>
		</g>
		<g>
			<path class="st6" d="M78.1,123.2c-0.5,0.1-1.1,0-1.6-0.2c-0.5-0.2-1-0.5-1.4-0.2"/>
		</g>
		<g>
			<path class="st6" d="M76.2,124c-0.5,0-1-0.1-1.4,0.1c-0.5,0.2-0.9,0.5-0.9,1"/>
		</g>
	</g>
	<path class="st7" d="M83.2,183.4c-10.9,0-19.8-23-19.8-23s-2-5.1-4.8-9.6c-2.8-4.5-5.7-9.2-9.2-12.6c-3.5-3.4-3.2-12.3-3.2-12.3
		s0.5-3.8-1.2-5.6s-2.3-5.6-1.2-13.5c-2.4-6.4,1.4-7.1,0.1-13.8c-1.2-6.7,8.2-23.8,13.5-27.9c2.8-2.1,1.1-3.5,11.1-9.9
		c4.2-5.1,11.9-8.2,20.2-8.9c5.2-2.1,10.2,1.4,14.1,1.8s5.7,1,10.3,3.1c3.6-1.5,11.6,2,11.6,2c9-0.4,13.7,7.1,13.7,7.1
		c7.5,3.5,7.9,8.7,10.2,12.3c2.3,3.6,5.8,4.7,6.8,5.9c1,1.2,1.3,2.5,1.3,5s1.8,6.4,3.4,8.9c1.6,2.6,2,10.7,3.2,15.1
		c1.2,4.4,0.6,11.1,0.6,11.1s1.1,1.9,1.2,4.1c0.2,2.3-4.1,5.9-4.6,8.5s-1.1,7.8-4.1,10.4c0.2,3.4-2.8,17.5-3.2,21
		c-0.4,3.5-1.8,6.4-3.9,7.2s-4.4-1.4-4.4-1.4c-5.3,0.9,0.1-10.4-0.2-12.9c0,0,2.4,0.6,3.8-0.6s1.7-3.3,0.9-6.5
		c-0.8-3.2-1.1-7.8-0.2-9.5c0.9-1.7-2.3-1.7-3.1,0.6c-1.4,0-1-6,0-7.7c1-1.8,2.1-1.5,0.8-5c-1.3-3.5-6.1-9.1-6.3-12.9
		c-1.8-4.1-2.8-8.5-2.4-10.4c-4.8-4.8-20.3-14.5-23.9-19.5c-5.2,2-26.9-2.2-31.2,11.5c-2.8,9.7-16.6,19.1-16.6,19.1
		s1.9,4.7,1.1,10.6s1.8,14.7,0.9,16.1c-0.9,1.4-7,4.8-3.9,8.2c0.3,3.4,0.3,8.6,1.2,10.4c0.8,2.8,2.3,4.4,3.9,4.5
		c0,0,4.6,5.6,8.2,10.1c3.5,4.4,6.4,8.6,6.4,8.6L83.2,183.4z"/>
	<path class="st8" d="M86.5,174.3c5.6,9.7,15.3,20.4,26.3,17.6c3.7-1.1,6.7-2.7,6.7-2.7s-10.5,3.2-19.8-1.3
		C90.2,183.4,86.5,174.3,86.5,174.3z"/>
	<path class="st9" d="M128.6,152.2c0.7,1.2-0.6,5.4-0.2,6.7c0.4,1.3,1.8,1.9,2.5,3.7c0.7,1.7,0,6.7,0,6.7s0.3-0.7,0.8-4.1
		c0.5-3.4-1.8-5.8-1.8-8.8c0-3,3.5-3.2,3.5-3.2s-7.3-4.4-11.2-8.3c-3.7-2.5-4-2.3-4-2.3s0,1.4,1.1,2.2
		C120.5,145.8,128.6,152.2,128.6,152.2z"/>
	<path class="st10" d="M90.1,161.1c1.8-0.9,14.8-2.9,19.8-2.6c5.6-0.9,11.9-2.5,17.1-3c0.4,0.9-3,9.9-7.6,12.9
		c-4.6,3-9.8,4.5-17.7,3c-6-2.1-10.4-9-11.6-9.2C89.4,161.3,90.1,161.1,90.1,161.1z"/>
	<path class="st11" d="M91,161.6c0,0,6.6-1.3,17.3-0.7c6.6-0.8,14-3.9,17-3.8c-1.2,2.2-5.7,11.3-15.9,11.3
		C102.4,168.4,98.4,168.2,91,161.6z"/>
	<path class="st12" d="M116.8,150.8c0.3-0.4-0.3-2.3-5.3,3.2"/>
	<path class="st12" d="M100.1,153.1c-0.7-0.4-0.1-2.8,4.3-0.4c2.8,1.3,2.8,1.3,2.8,1.3"/>
	<path class="st9" d="M93.8,145.3c-2,4.8-8.4,12.4-8.7,13.5c1,1.4,2.9,3.2,3,5.9c0.9-1-0.5-5.7,0.7-7.3
		C90.1,155.7,92.9,151.3,93.8,145.3z"/>
	<path class="st8" d="M96.9,147.4c-0.7,1.6-1.3,5.7,1.3,6.5c0,0,1,0.2,1.5-0.3c0,0,0.1-1.2-0.6-1.4c-0.7-0.2-1.7-0.3-1.9-1.3
		c-0.2-1,0.2-3,0.2-3S97.3,147.6,96.9,147.4z"/>
	<path class="st9" d="M97,122.1c0,0,1.8,1,2.9,2.1c0.7-1.5,0.7-4.2,0-5.6c0,0,1.4,0.8,1.9,3.7c0.4,3,1.4,13.3,0.8,17.2
		c-1.3,0-2.7-3.3-2.9-4.7c-0.2-1.4,0.1-4.8-0.6-6c-0.7-1.2-1.3-2.9-1.4-3.6s-1-2.2-1-2.2S96.4,122,97,122.1z"/>
	<path class="st9" d="M100.4,143.4c1.7,0.4,1.5,2.9,2,3.4s0.9,0.7,1.1,0c0.2-0.7,0.3-4.5-0.8-4.9c-1.1-0.5-2.5,0-2.5,0
		s-0.2,0.4,0.1,0.9V143.4z"/>
	<path class="st8" d="M69.6,134.7c0,0,3,0.5,3.4,0.3c0.4-0.2,0.4-0.4-0.1-0.5c-0.5-0.1-3.2-0.1-3.2-0.1S69.5,134.4,69.6,134.7z"/>
	<path class="st8" d="M69.6,136c0,0,3,0.5,3.4,0.3c0.4-0.2,0.4-0.4-0.1-0.5c-0.5-0.1-3.2-0.1-3.2-0.1S69.5,135.7,69.6,136z"/>
	<path class="st8" d="M68.5,138.1c1.2,0.1,3.7-0.7,4.2-1.1c-0.5-0.1-2.1,0.7-4,0.8L68.5,138.1z"/>
	<path class="st8" d="M68.5,139.5c1.2,0.1,3.7-0.7,4.2-1.1c-0.5-0.1-2.1,0.7-4,0.8L68.5,139.5z"/>
	<path class="st8" d="M138,127.1c0,0-3-0.5-3.4-0.3c-0.4,0.2-0.4,0.4,0.1,0.5c0.5,0.1,3.2,0.1,3.2,0.1S138.1,127.4,138,127.1z"/>
	<path class="st8" d="M138,125.8c0,0-3-0.5-3.4-0.3c-0.4,0.2-0.4,0.4,0.1,0.5c0.5,0.1,3.2,0.1,3.2,0.1S138.1,126.1,138,125.8z"/>
	<path class="st8" d="M139.1,123.7c-1.2-0.1-3.7,0.7-4.2,1.1c0.5,0.1,2.1-0.7,4-0.8L139.1,123.7z"/>
	<path class="st8" d="M139.1,122.4c-1.2-0.1-3.7,0.7-4.2,1.1c0.5,0.1,2.1-0.7,4-0.8L139.1,122.4z"/>
	<path class="st8" d="M86.1,137.5c5.1-0.4,5.6-0.7,6.6-1.3c-1.3-0.9-6.3,1.4-11.5,0.4c0,0,1.3,0.9,2.3,0.9
		C84.5,137.5,86.1,137.5,86.1,137.5z"/>
	<path class="st8" d="M121.8,133.1c-4.5-0.3-4.9-0.6-5.8-1.1c1.2-0.8,5.5,1.3,10.1,0.3c0,0-1.1,0.8-2,0.8
		C123.1,133.1,121.8,133.1,121.8,133.1z"/>
	<path class="st8" d="M77.6,157.1c-0.5,2.8,0.4,10,3.7,14.3C81.4,171.4,76.1,165.2,77.6,157.1z"/>
	<path class="st8" d="M76,155.6c-0.5,2.8,0.4,10,3.7,14.3C79.7,169.9,74.4,163.7,76,155.6z"/>
	<path class="st8" d="M74.5,155.5c-0.5,2.8,0.4,10,3.7,14.3C78.3,169.8,73,163.6,74.5,155.5z"/>
	<g>
		<g>
			<path class="st13" d="M106.8,76.6c-3.4-7.3-12.5-9.7-19.3-5.6c-4.4,2.6-8.2,6.7-11.4,10.6c-3.8,4.6-6.7,11.6-13.4,12.3
				C62,94,62.5,94.5,63,94.4c3.5-0.4,6.3-2.5,8.5-5.2c3.3-4.1,6.1-8.4,9.9-12.1c3.5-3.4,7.5-7.5,12.7-7.7c5-0.2,9.7,2.8,11.8,7.3
				C106,77,107,76.9,106.8,76.6L106.8,76.6z"/>
		</g>
	</g>
	<g>
		<g>
			<path class="st13" d="M98.9,58.1c-7.6-3.8-16.3-4.2-24.1-0.6c-9.5,4.4-16.1,15-21.6,23.5c-0.4,0.6,1.8,2.5,2.1,2.2
				c4.8-7.4,10.3-16.2,17.7-21.3c7.9-5.5,18.4-6,26.9-1.8C101.2,60.6,99.4,58.3,98.9,58.1L98.9,58.1z"/>
		</g>
	</g>
	<g>
		<g>
			<path class="st13" d="M58.7,101.9c-0.8,3-2.5,5.6-5.1,7.3c-1.3,0.9-2.8,1.5-4.3,1.8c-0.9,0.2-4.2,0.6-4.7-0.5
				c-0.2-0.6-2.3-2.2-2-1.6c1.3,3.1,4.4,4.9,7.8,4.5c5.1-0.6,9.2-4.5,10.4-9.3C60.9,103.2,58.7,101.9,58.7,101.9L58.7,101.9z"/>
		</g>
	</g>
	<g>
		<g>
			<path class="st13" d="M53.5,118c-1.7,4.3-5.9,6.1-10,7.7c-0.1,0,1.4,2.4,2.1,2.2c4-1.6,8.3-3.4,10-7.7
				C55.9,119.4,53.6,117.9,53.5,118L53.5,118z"/>
		</g>
	</g>
	<g>
		<g>
			<path class="st14" d="M124,67.2c2-1.9,4.3-3.2,7.1-3.6c3.7-0.5,7.1,2.6,9.6,4.9c2.6,2.3,4.8,4.4,8.2,5.3c0.7,0.2-0.9-2-1.5-2.1
				c-5.5-1.4-8.8-7.3-13.9-9.7c-4-1.9-8.6,0.3-11.6,3.1C121.5,65.4,123.5,67.6,124,67.2L124,67.2z"/>
		</g>
	</g>
	<g>
		<g>
			<path class="st13" d="M143.3,103.1c1.6,0.4,3,2,4.5,2.8c1.6,0.8,3.2,1.2,5,1.3c3.6,0.2,7.9-1.4,9.6-4.8c0.3-0.6-2-2.4-2.1-2.2
				c-1.7,3.3-5.9,4.9-9.4,4.7c-3.9-0.2-6-3.2-9.5-4C141.5,100.9,142.5,102.9,143.3,103.1L143.3,103.1z"/>
		</g>
	</g>
	<g>
		<g>
			<path class="st13" d="M151.2,133.9c0.6,0.4,1,1.4,1.5,2c0.6,0.7,1.4,1.2,2.2,1.6c1.6,0.7,3.5,0.4,4.8-0.8
				c0.5-0.5-1.6-2.6-2.1-2.2c-1,0.9-3,1.6-4.2,0.7c-0.4-0.3-0.7-1.1-1.1-1.5c-0.5-0.6-1-1-1.6-1.5c-0.4-0.3-0.8-0.5-0.8,0.1
				C149.8,132.8,150.8,133.7,151.2,133.9L151.2,133.9z"/>
		</g>
	</g>
	<g>
		<g>
			<path class="st15" d="M118.1,77c3.9-1.1,8.2-1,11.8,1.2c3.9,2.3,5.8,6.9,9.1,9.9c4.1,3.7,9.2,5.2,14.7,4.3
				c0.5-0.1-1.1-2.4-1.9-2.2c-5.7,1-10.4-0.7-14.3-4.9c-2.1-2.3-3.6-5-6-7.1c-4.3-3.7-9.8-4.9-15.3-3.4
				C115.7,74.9,117.4,77.1,118.1,77L118.1,77z"/>
		</g>
	</g>
	<g>
		<g>
			<path class="st16" d="M103.8,77.6c-4.6-1.6-9.5,0.6-13.5,2.9c-4.5,2.6-8.5,6.2-11.8,10.2c-3.8,4.5-6.5,9.7-9.7,14.6
				c-3.7,5.7-9.2,8.5-15.3,11c-0.3,0.1,0.2,0.2,0.4,0.2c4.6-1.9,9.3-3.9,12.7-7.6c3.4-3.6,5.4-8.4,8.1-12.5
				c2.9-4.4,6.3-8.4,10.3-11.8c4.6-3.9,12.3-9,18.5-6.9C103.7,77.9,104.1,77.7,103.8,77.6L103.8,77.6z"/>
		</g>
	</g>
	<g>
		<g>
			<path class="st16" d="M116.7,80.4c1.6,0,3.1,0,4.7,0c0.6,0.3,1.1,0.6,1.5,1c0.4,0.3,0.8,0.7,1.1,1c1.1,1.1,2.1,2.4,3,3.6
				c1.5,2,3,4,4.8,5.7c2.8,2.6,6.3,4.3,10.2,3.6c0.3-0.1,0.1-0.3-0.1-0.2c-7.8,1.3-12-6.5-16.3-11.5c-2.3-2.7-5.7-5.4-9.3-3.4
				C116.1,80.3,116.6,80.5,116.7,80.4L116.7,80.4z"/>
		</g>
	</g>
	<g>
		<g>
			<path class="st14" d="M115.5,80.5c1.5,0,2.9,0,4.4,0c0.5,0.3,1,0.6,1.5,1c0.4,0.3,0.8,0.7,1.1,1c1.1,1.1,2.1,2.3,3,3.6
				c1.5,2,3,4,4.8,5.7c2.9,2.7,6.5,4.3,10.5,3.7c0.7-0.1,0.2-0.6-0.3-0.5c-7.6,1.3-11.8-6.6-16-11.4c-2.4-2.8-5.9-5.5-9.7-3.4
				C114.3,80.4,115.3,80.6,115.5,80.5L115.5,80.5z"/>
		</g>
	</g>
	<g>
		<g>
			<path class="st16" d="M109.5,58.9c0.5-1.9-1.1-3.3-2.5-4.4c-1.8-1.4-3.8-2.6-5.8-3.6c-0.1-0.1-0.6,0.1-0.4,0.2
				c1.8,0.9,3.6,2,5.3,3.2c1.5,1.1,3.4,2.5,2.9,4.6C108.9,59.1,109.4,59.1,109.5,58.9L109.5,58.9z"/>
		</g>
	</g>
	<g>
		<g>
			<path class="st16" d="M92.8,68.6c-7.1-0.4-13.1,6.7-17.2,11.6c-2.7,3.2-5.3,6.7-8.2,9.7c-4,4.2-8.8,4.8-14.3,4.8
				c-0.3,0-0.3,0.3,0,0.2c3.3,0,6.8,0,9.8-1.3c3.4-1.5,5.8-4.5,8.1-7.3c2.8-3.4,5.5-6.9,8.5-10c3.4-3.5,8-7.8,13.2-7.5
				C93.1,68.9,93.1,68.7,92.8,68.6L92.8,68.6z"/>
		</g>
	</g>
	<g>
		<g>
			<path class="st16" d="M52.5,84.1c0.4,4.6,5.9,3,7.9,0.7c4.2-4.9,4.4-12,8.9-16.8c8.4-9.2,31.7-13.5,35.9,2c0,0.2,0.5,0.1,0.5-0.1
				c-3.2-11.9-17.5-11.6-27-8.2c-4.7,1.7-9,4.5-11.8,8.7c-1.8,2.7-2.7,5.8-3.9,8.8c-0.7,1.6-1.4,3.2-2.4,4.7
				c-0.6,0.9-1.3,1.7-2.2,2.2c-2.2,1.4-5.2,0.7-5.4-2C53,83.9,52.5,83.9,52.5,84.1L52.5,84.1z"/>
		</g>
	</g>
	<g>
		<g>
			<path class="st14" d="M58.6,123.4c-1,6.8-6.7,11.8-13.7,11.3c-0.5,0-0.9,0.4-0.3,0.5c7.4,0.5,13.9-4.3,14.9-11.8
				C59.7,123,58.7,123,58.6,123.4L58.6,123.4z"/>
		</g>
	</g>
	<g>
		<g>
			<path class="st16" d="M145.8,119.9c1.9,1,3.3,2.8,5.1,4c1.4,0.9,2.9,1.6,4.6,2c2.6,0.6,5.3,0.2,7.6-1.2c0.2-0.1-0.2-0.3-0.4-0.2
				c-3.4,2.1-7.4,1.6-10.8-0.3c-2.2-1.2-3.7-3.3-5.9-4.4C146,119.7,145.5,119.8,145.8,119.9L145.8,119.9z"/>
		</g>
	</g>
	<g>
		<g>
			<path class="st16" d="M149.7,145.8c0.7,2.2,1.1,4.4,0.8,6.7c-0.2,2.3-1.2,4.3-1.8,6.5c-0.7,2.5-0.8,5.3,1.4,7.1
				c0.1,0.1,0.6,0,0.4-0.1c-3.5-2.9-1-7.4,0-10.9c0.8-3.1,0.6-6.3-0.4-9.3C150.1,145.6,149.6,145.6,149.7,145.8L149.7,145.8z"/>
		</g>
	</g>
	<g>
		<g>
			<path class="st16" d="M69.2,165.9c0.9,3.7,3.3,6.7,6.7,8.5c0.1,0.1,0.6,0,0.4-0.2c-3.3-1.7-5.7-4.7-6.6-8.3
				C69.7,165.7,69.2,165.8,69.2,165.9L69.2,165.9z"/>
		</g>
	</g>
	<g>
		<path class="st17" d="M117.1,126.1c0,0,3.2-4.9,7.9-4.5s6.9,3.1,6.9,3.1s-0.5,0.9-1.3,0.7L117.1,126.1z"/>
		<path class="st18" d="M115.2,127.1c2.1-0.9,3.2-2.2,5.4-3.4c2.2-1.2,5.3-1.4,9.9,1.7c0,0-3.6,1.6-6.6,2s-6.2-0.3-6.6-0.3
			c-0.4,0-1.1,0.4-1.6,0.4C115.3,127.5,115.2,127.1,115.2,127.1z"/>
		<path class="st19" d="M123.9,127.4c1.2-0.1,2.4-0.5,3.5-0.8c0-0.5-0.1-1-0.1-1.3c0-0.3-0.2-1.2-0.4-1.8c-2.5-0.9-4.4-0.7-5.9,0
			c-0.4,0.5-0.7,1.1-0.7,1.8c0,0.8,0.4,1.6,1,2.2C122.2,127.5,123,127.5,123.9,127.4z"/>
		<path class="st20" d="M115.2,127.1c-1,0.7,2.1,0,2.1,0l-0.3-1C117.1,126.1,116,126.5,115.2,127.1z"/>
		<circle class="st21" cx="123.6" cy="124.8" r="1.3"/>
		<path class="st22" d="M124.9,124.6c-1,0.2-1.5-0.4-1.6-1.1C124.8,123.4,124.9,124.6,124.9,124.6z"/>
	</g>
	<g>
		<g>
			<path class="st6" d="M133.6,117.5c0.8-0.2,1.5,0.4,2.1,0.9"/>
		</g>
		<g>
			<path class="st6" d="M110.5,122.1c-0.5-1.5,0.3-3.3,1.7-3.9"/>
		</g>
		<g>
			<path class="st6" d="M112.1,122.1c0.4-1.5,1-3.2,2.2-4.1"/>
		</g>
		<g>
			<path class="st6" d="M114.5,120.9c0.3-0.7,0.4-1.4,0.6-2.1c0.2-0.7,0.7-1.4,1.4-1.6"/>
		</g>
		<g>
			<path class="st6" d="M116.4,120.4c0.5-0.8,1-1.6,1.3-2.5c0.1-0.4,0.3-0.9,0.5-1.3c0.3-0.4,0.7-0.7,1.2-0.6"/>
		</g>
		<g>
			<path class="st6" d="M118.7,118.9c0.7-0.5,1.1-1.4,1.6-2.1s1.3-1.3,2.1-1.3"/>
		</g>
		<g>
			<path class="st6" d="M125.6,116c0.7-0.3,1.3-0.6,1.9-1c0.2-0.1,0.4-0.3,0.6-0.3c0.5-0.2,1.1,0.2,1.5,0.6"/>
		</g>
		<g>
			<path class="st6" d="M127.9,116.1c0.7-0.1,1.5-0.2,2.2-0.4c0.4-0.1,0.8-0.3,1.2-0.3c0.4,0,0.9,0.1,1.2,0.4"/>
		</g>
		<g>
			<path class="st6" d="M131.7,116.4c0.4,0,0.9,0,1.3,0c0.6,0,1.4,0.1,1.7,0.6"/>
		</g>
		<g>
			<path class="st6" d="M122.3,116.9c0.4-0.2,0.8-0.5,1.1-0.8c0.4-0.3,0.8-0.7,1.2-1c0.4-0.3,1-0.4,1.5-0.3"/>
		</g>
	</g>
	<g>
		<path class="st17" d="M94.5,130c-3-2.6-5.7-3.8-8.4-3.6c-2.7,0.1-7.5,3.6-7.5,3.6s-0.2,0.7,0.8,1.1L94.5,130z"/>
		<path class="st18" d="M95.6,130.5l-0.4,0.3c0,0-3-0.2-4.3,0.3c-1.3,0.5-7,1.2-9.1,0.8c-2.1-0.4-2.4-0.9-2.4-0.9c4.2-3.1,6-4,9.4-4
			c1.4,0,3.2,1.5,4.5,2.2S95.6,130.5,95.6,130.5z"/>
		<path class="st19" d="M91.8,131c0.2-0.4,0.3-0.8,0.3-1.3c0-0.4-0.1-0.8-0.2-1.1c-1.1-0.7-2.3-1.5-3.3-1.5c-0.8,0-1.6,0.1-2.3,0.2
			c-0.7,0.6-1.2,1.4-1.2,2.3c0,0.9,0.4,1.7,1.1,2.3c1.9-0.2,3.8-0.5,4.5-0.8C91.1,131.1,91.5,131,91.8,131z"/>
		<path class="st20" d="M96.2,130.7c-0.4,1-0.8,0-2.2,0.2c0,0,0.3-1,0.5-0.8C94.7,130.1,96.2,130.7,96.2,130.7z"/>
		<circle class="st21" cx="88.7" cy="129.5" r="1.3"/>
		<path class="st22" d="M87.3,129.2c0.5-0.9,1.2-1.1,1.8-0.8C89.2,129.4,87.3,129.2,87.3,129.2z"/>
	</g>
	<path class="st23" d="M61.1,144.4"/>
	<path class="st3" d="M115,77.5c1.1-4.2-0.7-12.1-1.8-15.3c-1.2-3.2-1-5.5-1-5.5s-1.6-0.9-1.9,0.4c-1.6,7.2,2,14.7,1.1,18
		c-0.9,3.3-9,9.8-9,9.8l9-1.1C111.4,83.7,114.1,81,115,77.5z"/>
	<ellipse class="st18" cx="146.1" cy="155.2" rx="1.6" ry="3.2"/>
	<ellipse class="st18" cx="67.7" cy="160.3" rx="1.6" ry="3.2"/>
	<path class="st24" d="M140,186.5c-0.5,6.2,1.1,13.4,1.1,13.4s-14.6,4.2-14.2,2c0.4-2.2-1.8-13.1-1.8-13.1l1.8-4.9
		c0,0,13.3-3.4,16.3-15.9L140,186.5z"/>
	<path class="st24" d="M110.3,179.2"/>
	<path class="st24" d="M84.3,182.8"/>
	<path class="st24" d="M82.9,174.7"/>
	<path class="st25" d="M84.3,182.8c0,0,2.6,5.3,7.5,7.2c0,0,0.6,1.6,0,2.5s-9.3,7.7-16.1,8.3c0,0-4.1-10.3-4.2-12.2
		c0,0,7.7,1.7,10.5-5.6C82,182.9,83.2,183.5,84.3,182.8z"/>
	<path class="st24" d="M70.5,185.3"/>
	<path class="st24" d="M65.4,190.7"/>
</g>
</svg>
