<svg id="Layer_1" data-name="Layer 1" xmlns="http://www.w3.org/2000/svg" viewBox="0 0 196 266.67"><defs><style>.cls-1{fill:#f8e4e3;}.cls-2{fill:none;}.cls-16,.cls-3{fill:#1d1611;}.cls-3{opacity:0.7;}.cls-4{fill:#414042;opacity:0.8;}.cls-5{fill:#808285;opacity:0.9;}.cls-6{fill:#d39274;}.cls-7{fill:#c58a6b;}.cls-8{fill:#381c15;}.cls-9{fill:#da9a79;}.cls-10{fill:#6b3720;}.cls-11{fill:#d28867;}.cls-12{fill:#d39372;}.cls-13{fill:#ebf4f0;}.cls-14{fill:#572000;}.cls-15{fill:#d39c82;}.cls-17{fill:#9a2f33;}.cls-18{fill:#f5e0cd;}.cls-19{fill:#e09f7e;}.cls-20{opacity:0.15;}.cls-21{fill:#be1e2d;}</style></defs><title>badbitchcards</title><rect class="cls-1" x="8.63" y="8.48" width="178.58" height="249.45" rx="8.5" ry="8.5"/><path class="cls-2" d="M74.72,178.85C62.88,170.64,55,166.27,53.56,161.46c-4.92,0-11.1-2.61-10-9.09-1.37-1.91-8.69-7.2-5-20.45-13.27-14-10-29.5-1-31.33,0,0-1.73-11.9,7.88-16.93C42,71.3,45.21,66,47.72,67.18s7.55,4.58,10.75,3,16.3-13.27,23.71-14.41c0,0,8.09-14.19,25.94,0,10.44-3,17.32-.92,20.1,3.2,6.4-5.84,25.54,4.61,25.19,15.4,5.1,3.71,3.25,11.52,3,12.14s10.9,2.67,15.63,11.72,1.44,31.25,2.67,36-7.81,22.06-6,27.27-28,5.47-34.34,17.39-59.74,0-59.74,0"/><path class="cls-3" d="M74.72,178.85C62.88,170.64,55,166.27,53.56,161.46c-4.92,0-11.1-2.61-10-9.09-1.37-1.91-8.69-7.2-5-20.45-13.27-14-10-29.5-1-31.33,0,0-1.73-11.9,7.88-16.93C42,71.3,45.21,66,47.72,67.18s7.55,4.58,10.75,3,16.3-13.27,23.71-14.41c0,0,8.09-14.19,25.94,0,10.44-3,17.32-.92,20.1,3.2,6.4-5.84,25.54,4.61,25.19,15.4,5.1,3.71,3.25,11.52,3,12.14s10.9,2.67,15.63,11.72,1.44,31.25,2.67,36-7.81,22.06-6,27.27-28,5.47-34.34,17.39-59.74,0-59.74,0"/><path class="cls-4" d="M130.49,65.67c-.62-1.83-1.3-4.3-2-6.94-.09.07-.19.14-.28.22-2.78-4.12-9.66-6.18-20.1-3.2-17.85-14.19-25.94,0-25.94,0-7.41,1.14-20.5,12.81-23.71,14.41s-8.24-1.83-10.75-3S42,71.3,45.44,83.66l-.46.26c4.25,4.78,11.27,10,22.71,15,36.28,15.87,30.57-12,30.57-12-8.14-10.81,3.57-20.14,13.49-18S132.76,72.39,130.49,65.67Z"/><path class="cls-5" d="M111.75,59.82c-8.14-5.19-18.93.37-24.86-1.11S63.52,56.85,78,86.49l20.57,3.57a20.41,20.41,0,0,0-.32-3.18c-8.14-10.81,3.57-20.14,13.49-18s21,3.49,18.74-3.23c-.62-1.83-1.3-4.3-2-6.94-.09.07-.19.14-.28.22-2.78-4.12-9.66-6.18-20.1-3.2a24.08,24.08,0,0,1,8.72,1.81C120.83,59.37,119.9,65,111.75,59.82Z"/><path class="cls-5" d="M39.7,101.52c-2.65,1.54,3.85,7.35,4.24,13.06s-5.3,11.24-9.76,5c0,0,4,7,8.17,3.49s8.39-15-.66-21.59Z"/><path class="cls-5" d="M63.32,145.78c-3.31-3.1-6.94-36,0-48.9l4.37,2,3.57,8.76-7.94,38.11"/><path class="cls-6" d="M84,183s-.86,25.51-2.89,29.86,9.5,34.74,29,34.74,28.4-32.3,28.4-32.3-8.28-26.75-4.24-32.3C134.26,183,101.24,165.78,84,183Z"/><path class="cls-7" d="M85.78,189.53a138.53,138.53,0,0,1,10.27,21.79c2.43,6.88,2.76,7.43,3.7,7.15,2.06-8.67-6.09-28.11-6.09-28.11Z"/><path class="cls-7" d="M126.9,187.86c-1.79-1.6-4.72-3.24-6,1.57-.82,3.08-1.17,18.57-1.54,24.05,3.53,2.82,7.73-17.3,8.79-22.73a39.21,39.21,0,0,0,6.38-7.78l.11-4.73S129.9,184.53,126.9,187.86Z"/><path class="cls-8" d="M80.31,123.3c6.47-2.41,10.33,4,10.33,4l-15.47,1.85S76.67,124.3,80.31,123.3Z"/><path class="cls-8" d="M122.83,120.13a7.33,7.33,0,0,1,7.15,5.28H115.52S117.41,120.13,122.83,120.13Z"/><path class="cls-9" d="M98.26,86.88c5.44,1.14,12.64-4.44,18.1-5.46s13.14,7.1,14.95,11.91,4.51,13.82,10.22,19.84c0,0,.29,14.27,1.9,17.49s3.06,29.23-3.18,38.89-6,15.3-14.5,19.53c-8.26.81-9.06,0-11.88,1.41s-16.11,1.81-18.33,0c-3.42-.4-11.48.4-15.71-4.23S71.58,172,70,170.75s-6.44-22.55-6.65-25,.2-26.18,3.83-34.84C66.75,97.25,67,80.33,98.26,86.88Z"/><path class="cls-10" d="M105.14,152.57c2.74-3.22,2.58-5.48,6-2.9"/><path class="cls-10" d="M95,150.56c1.29-.73,1.61-1.21,3.87.88"/><path class="cls-11" d="M99.5,152.78c1.52.5,2.84.08,4.38,0,.59,0,.61-.52,0-.5-1.33,0-2.55.47-3.87,0-.35-.12-1.12.23-.5.43Z"/><path class="cls-11" d="M112.27,142.43c2.19,2.38,3.55,6.15.08,8.07-.49.27.43.51.71.35,3.76-2.08,2.53-6,.08-8.68-.21-.23-1.17-.09-.86.25Z"/><path class="cls-11" d="M92.12,145.19c-.69,2.35-1.17,6.31,2.2,6.49.6,0,.6-.47,0-.5-2.53-.14-1.67-4.39-1.23-5.86.11-.38-.87-.44-1-.13Z"/><path class="cls-12" d="M106.6,126.38c-.17,5.57-1.52,8.61,0,10.13s3,5.58,3.21,7.1,1.92-1.52,1.3-3.89-4.17-4.9-3.83-6.76S108.48,128,106.6,126.38Z"/><path class="cls-12" d="M98.85,130.08c0,6.86-4.61,15,0,19.85,0,0-2.29-1.46-3.52-.5,0,0-1.64-3.78,1.59-12.92Z"/><path class="cls-7" d="M111.24,117c-3,2.46-5.52,5.93-4.67,7.45s.86,2.2,2.25,5.08c0,0,1.22.25.88-1.61s-1.69-4.15-1.14-5.76S111.93,118.64,111.24,117Z"/><path class="cls-13" d="M122.63,121.73c3.59,0,6.7,2.94,7.35,3.68,0,0-.33,3.76-7.35,3.76-4.82,0-6.7-1.55-6.7-1.55l-1.55-1,1.14-1.24S119.85,121.73,122.63,121.73Z"/><path class="cls-14" d="M122.54,128.43c2.29,0,4-2.45,3.76-3.68s-.08-3-3.68-3-3.43,2.61-3.19,3.72S120.5,128.43,122.54,128.43Z"/><path class="cls-13" d="M75.17,129.17c2.46-2,5.06-4.29,8.31-4.52,2.25-.16,4.82.67,7.86,3.23,0,0-3.84,3.57-8.58,3.57A12.9,12.9,0,0,1,75.17,129.17Z"/><path class="cls-14" d="M83.93,130.58c2.47,0,3.45-1.81,3.41-2.7s.75-3.23-3.86-3.23S79.52,130.58,83.93,130.58Z"/><path class="cls-15" d="M93.21,129.17c0,1.54-3.34-.15-3.34-.15s.07-2.26.77-1.7S93.21,128.23,93.21,129.17Z"/><circle class="cls-16" cx="84.53" cy="127.66" r="1.28"/><circle class="cls-16" cx="122.75" cy="125.08" r="1.28"/><path class="cls-13" d="M83.68,126.92c.71-.71.91,1.59.16,1.59A1,1,0,0,1,83.68,126.92Z"/><path class="cls-13" d="M122.18,124.56c1.24.19-.33,1.43-.33,1.43S121,124.38,122.18,124.56Z"/><path class="cls-17" d="M88.39,164.56s2.87,6.78,15.66,6.78,16.51-7.66,16.51-7.66-12.15-6.57-16.69-1.54C103.87,162.15,96.81,156.13,88.39,164.56Z"/><path class="cls-18" d="M90.64,164.56c3.22,1.09,11.43,1.2,13.23,1.15s11.44-.49,13-1.15C116.84,164.56,101.21,163.68,90.64,164.56Z"/><path class="cls-16" d="M112.93,114.86a4,4,0,0,1,2.6-2.74"/><path class="cls-16" d="M114.37,115.46a13,13,0,0,1,4.2-4.9"/><path class="cls-16" d="M116.6,114.74a8.43,8.43,0,0,1,4.05-4.95"/><path class="cls-16" d="M118.56,114.13a5.31,5.31,0,0,1,3.6-4"/><path class="cls-16" d="M120.12,114a5.42,5.42,0,0,1,4.13-3.41"/><path class="cls-16" d="M120.89,114.24A7.47,7.47,0,0,1,126,111"/><path class="cls-16" d="M124,114.11a4,4,0,0,1,3.46-2.49"/><path class="cls-16" d="M125.26,114.19a4.26,4.26,0,0,1,3-1.58"/><path class="cls-16" d="M126.13,114.71c.87-.78,2-1.61,3.08-1.21"/><path class="cls-16" d="M127.34,115.33a4.48,4.48,0,0,1,3.35-1.5"/><path class="cls-16" d="M128.42,115.85a4.48,4.48,0,0,1,3.22-1.16"/><path class="cls-16" d="M129.56,116.23a3,3,0,0,1,2.08-.38"/><path class="cls-16" d="M130.49,116.74a1.24,1.24,0,0,1,1.31.63"/><path class="cls-16" d="M131.8,118.24a1.21,1.21,0,0,1,1.52.46"/><path class="cls-16" d="M133.17,119.43c.1-.11.23-.23.38-.19s.12.32,0,.28"/><path class="cls-16" d="M88.26,116.36c-1.32-1-1.14-3.51-2.72-4"/><path class="cls-16" d="M86.15,116a3.65,3.65,0,0,0-1.94-4.17"/><path class="cls-16" d="M84.73,115.84a5.43,5.43,0,0,0-2.54-4.46"/><path class="cls-16" d="M83.39,115.4a9.65,9.65,0,0,1-1.26-2.52,3.18,3.18,0,0,0-1.9-2"/><path class="cls-16" d="M81.59,115l-1.26-2.27c-.51-.93-1.15-1.95-2.19-2.16"/><path class="cls-16" d="M79.73,113.67a12.73,12.73,0,0,0-3.45-2.48"/><path class="cls-16" d="M77.37,113.2a5.79,5.79,0,0,0-3.6-.88"/><path class="cls-16" d="M75.47,114.15a3.07,3.07,0,0,0-3-.05"/><path class="cls-16" d="M76.41,113.42a8.24,8.24,0,0,0-3.21-.44"/><path class="cls-16" d="M76.62,112.61l-1.9-.75"/><path class="cls-16" d="M73.58,114.35a2.09,2.09,0,0,0-2.32.88"/><path class="cls-16" d="M72.65,115.3a4.21,4.21,0,0,0-1.2,1.08"/><path class="cls-16" d="M71.68,117.52a2.35,2.35,0,0,0-1.32.79"/><path class="cls-16" d="M70.92,119.24l-1.14.76"/><path class="cls-16" d="M69.79,120.77l-.19.19"/><path class="cls-19" d="M104.47,178.26c6.3,0,5.66,7.21.67,7.21S99.13,178.26,104.47,178.26Z"/><path class="cls-7" d="M132.56,103.76c-.53,3.89-.48,6.38,0,7.43a16.88,16.88,0,0,1,2.49,6.17c.72,3.81.18,3.71.72,3.81s.85.4.91-.33-.68-7.57-1.72-9.22-1.38-5.26-1.31-6.43A1.41,1.41,0,0,0,132.56,103.76Z"/><path class="cls-7" d="M140.49,135.2c.35,3.73,1.63,15.87-.47,20.3s.23,14,.23,14l.95-1.72s-1.16-7,0-10.81a31.27,31.27,0,0,0,.92-14.12C141.31,136.59,140.49,135.2,140.49,135.2Z"/><path class="cls-7" d="M120.86,185.09c-6.89,6.51-22.82,9.31-28.78.18-.56-.85-3.47-.48-2.89.4,3.34,5.12,10.42,6.93,16.13,6.77,6.26-.17,13.45-2.17,18.13-6.59,1-.92-1.9-1.41-2.59-.76Z"/><path class="cls-12" d="M77.37,140c6.72,1.81,10.89-1.31,10.89-1.31s-11.26-3.32-13.53-6-2.76,4.16-1,5.61a8.32,8.32,0,0,0,3.6,1.73"/><path class="cls-12" d="M126.74,136.31c5.76,0,7.33-2.6,7.69-4.26s-.57-5.12-1.87-4.43S132.83,133.71,126.74,136.31Z"/><path class="cls-7" d="M134.51,155.95c-.78,9.62-.38,14.53-1.46,14.13s0-18.52-.59-21,2.81-2.59,2,6.84"/><path class="cls-19" d="M103.87,108.1c0,8,.25,12.15,1.27,11.13s7.18-6.75,7.56-9.45S103.87,101.59,103.87,108.1Z"/><path class="cls-12" d="M74,128.94c0-4.19,2.34-12.6,12.94-11.57a6.59,6.59,0,0,1,4.65,3.38S80.45,120.76,74,128.94Z"/><path class="cls-12" d="M131.64,125.45c0-8.08-6.74-10.33-10.09-9.07a5.79,5.79,0,0,0-2.22,1.54A18.28,18.28,0,0,1,131.64,125.45Z"/><path class="cls-7" d="M98.85,123.11c.37,3.49-2.21,9.46-3.87,9.74,0,0,4.55-9.95-1.77-12.71C93.21,120.13,98.44,119.18,98.85,123.11Z"/><path class="cls-7" d="M68.37,127.61c-1.78,5.11-4.48,14.93,1.43,32.45C69.79,160.07,60.37,137.83,68.37,127.61Z"/><path class="cls-15" d="M111.76,127.21c-.22,1.23,4.17.41,4.17.41s-.82-1.55-.41-2.21C115.52,125.41,111.92,126.31,111.76,127.21Z"/><path class="cls-19" d="M115.95,141.88c2.72,3.62,7.8,7.2,7.71,16,0,0-2.17,1.75-3.1,0s1.76-2.19-5.52-15.22Z"/><path class="cls-19" d="M90.64,144c-4.14,3.74-8.35,5.83-6.93,16.05q.06.4.12.82s2.18,1.49,3.2-.35-2.47-8.34,4.31-15.28C91.34,145.26,91.91,143.67,90.64,144Z"/><path class="cls-19" d="M123.66,161.46c1.76-2.54,4.86,10.1-.83,9.88s.66-4.6,1.2-6.4S122.56,163,123.66,161.46Z"/><path class="cls-19" d="M81.8,165.72c.32,3.23,3.15,9.94,5.09,8.31s.89-2.45-1.08-7.79S82,163.21,81.8,165.72Z"/><g class="cls-20"><path class="cls-8" d="M134.52,117.35c-3.38-5.92-13.15-10.55-19.43-6.33-1,.68-3.6,3.26-2.63,4.76.7,1.08,1.47.37,2.32,0,3-1.25,5.42-1.83,8.66-1.16,1.09.23,3.43-3.44,2.36-3.66a13.21,13.21,0,0,0-6.1,0c-.7.18-4.41,2.11-4.28.87l-1.69,2.59c4.8-4.65,15.18,1.46,17.8,6.07.56,1,3.52-2.23,3-3.18Z"/></g><g class="cls-20"><path class="cls-8" d="M71.41,118.67A42.17,42.17,0,0,1,74.51,113l-1.66,1.46c4.35-1.1,9.77-1.25,12.92,2.34l2.6-3.57c-4-.5-7.76-3.83-12.1-2.47-2.14.67-3.78,2.82-4.54,4.83s2.28-1.24,2.58-2c-.12.3,6.34,1.39,6.85,1.6a19,19,0,0,0,4.78,1.66c.74.09,3.17-2.92,2.6-3.57a8.15,8.15,0,0,0-4.66-2.81,19.32,19.32,0,0,0-8.22.32c-3.22,1.07-5,6.43-6.4,9.06s1.67-.31,2.16-1.2Z"/></g><path class="cls-21" d="M24,34.36a6.33,6.33,0,0,0,3,.78c4,0,5.57-2.6,5.67-5.8a4.61,4.61,0,0,1-4.24,2.09,5.41,5.41,0,0,1-5.65-5.52,5.76,5.76,0,0,1,6-5.65c3.2,0,6.35,2.29,6.35,7.51,0,6-2.67,9.58-8.17,9.58a7.91,7.91,0,0,1-3.78-1Zm4.79-11.92a3.4,3.4,0,0,0-3.53,3.43,3.35,3.35,0,0,0,3.53,3.45,3.44,3.44,0,1,0,0-6.88Z"/><path class="cls-21" d="M173.33,235.44a6.32,6.32,0,0,0-3-.78c-4,0-5.57,2.6-5.67,5.8a4.61,4.61,0,0,1,4.23-2.09,5.41,5.41,0,0,1,5.65,5.52,5.75,5.75,0,0,1-6,5.65c-3.2,0-6.35-2.29-6.35-7.51,0-6,2.67-9.58,8.17-9.58a7.92,7.92,0,0,1,3.78,1Zm-4.79,11.92a3.4,3.4,0,0,0,3.53-3.43,3.35,3.35,0,0,0-3.53-3.45,3.44,3.44,0,1,0,0,6.88Z"/><path class="cls-21" d="M36.13,52.74,29.31,41.88a.78.78,0,0,0-1.31,0L21.16,52.74a.78.78,0,0,0,0,.83L28,64.43a.78.78,0,0,0,1.31,0l6.83-10.87A.78.78,0,0,0,36.13,52.74Z"/><path class="cls-21" d="M176,216.68l-6.83-10.87a.78.78,0,0,0-1.31,0L161,216.68a.78.78,0,0,0,0,.83l6.83,10.87a.78.78,0,0,0,1.31,0L176,217.51A.78.78,0,0,0,176,216.68Z"/></svg>