<svg id="Layer_1" data-name="Layer 1" xmlns="http://www.w3.org/2000/svg" viewBox="0 0 196 266.67"><defs><style>.cls-1{fill:#f8e4e3;}.cls-2{fill:#4a1c00;}.cls-3{fill:#3e1100;}.cls-4{fill:#390c00;}.cls-5{fill:#edb989;}.cls-6{fill:#443123;opacity:0.07;}.cls-7{fill:#f0c8a2;}.cls-8{fill:#381c15;}.cls-9{fill:#f2728e;}.cls-10{fill:#f5e0cd;}.cls-11{fill:#6b3720;}.cls-12{fill:none;stroke:#d0a676;stroke-miterlimit:10;stroke-width:0.5px;}.cls-13{fill:#d0a676;}.cls-14{fill:#f0c5a3;}.cls-15{fill:#dbb393;}.cls-16{fill:#f5f7f4;}.cls-17{fill:#65695b;}.cls-18{fill:#1d1611;}.cls-19{fill:#e5bb99;}.cls-20{fill:#eec39f;}.cls-21{fill:#ebf4f0;}.cls-22{opacity:0.3;}.cls-23{fill:#be1e2d;}</style></defs><title>badbitchcards</title><rect class="cls-1" x="8.63" y="8.48" width="178.58" height="249.45" rx="8.5" ry="8.5"/><path class="cls-2" d="M18.75,148.27s11.78,18.85,20.81-2C37.2,121.57,40.34,60.72,81.18,58c0,0,3.53,2.36,9-.39s29.45-10.21,47.11,11.78c5.89,9,5.89,14.13,10.21,15.7s15.31.39,15.31,30.23S176.58,133,176.58,133s-4.32,7.54-11.25,1.91c.43,6.93,6.07,8.67,8.67,6.5,3,1.52,5,.87,5,.87s.65,15.38-7.58,14.51c0,4.33-2.82,22.75-17.55,30.11-5.85,12.35-14.51,8.67-14.51,8.67s-4.33.22-3,2.6,3.9.65,3.9.65-2.6,4.55-7.15,2.17-5.59-17.31-5.59-17.31l-53,5.8s4,9,2.9,12.12-16.87.26-19.77-4.48c1.32-4.48.79-6.85.79-6.85s-5.8-1.32-9-2.37-7.64,2.37-12.39-5-3.69-10-3.69-10S13.62,163,18.75,148.27Z"/><path class="cls-3" d="M132,94c-4.36,2.06-3.22-.59-1.91,1.13a11.39,11.39,0,0,1,2.87,7.88c.19,4.42-1.15,8.89-2.64,13-2.6,7.18-9,20.61-1.48,26.65,4.56,3.65,17-2.91,10.88-7.81-1-.76.47-6.62.72-7.75a69.46,69.46,0,0,1,2.78-8.62c1.84-5,3.73-10.18,3.89-15.59.15-5-.9-10.34-4.45-14-4.41-4.62-11.09-5.22-16.73-2.56-2.47,1.16-5.36,4.06-3.4,6.87s6.95,2,9.47.85Z"/><path class="cls-3" d="M150.7,191.83a21.83,21.83,0,0,0,3.15-5,26.63,26.63,0,0,0,4.58-2.92,6.82,6.82,0,0,1-2.78-2.78c-1.94-4,1.6-10.56,2.73-14.37a254.42,254.42,0,0,0,7.07-30.92c0-.32-.09-.65-.11-1l.24.19c.08-.52.17-1,.26-1.57l.15-1c-1.82-2.79-3.14-8-3.14-17.24,0-29.84-11-28.66-15.31-30.23-3.07-1.12-4-4-6.33-8.85-1.86,1.24-2.79,2.74-1.49,4,4.21,4.16,7.7,8,9.22,13.86,1.42,5.43,3.72,10.82,4.58,16.36,1,6.47-.08,13.22-.93,19.65q-1.22,9.11-3.09,18.12t-4.38,17.85c-1.47,5.17-4.64,11.38-3.94,16.9C141.78,187.79,146.38,190.51,150.7,191.83Z"/><path class="cls-3" d="M61.34,81.21a35.35,35.35,0,0,0-14.45,5,110.51,110.51,0,0,0-6.92,29,10.14,10.14,0,0,0,3.57-3c3.2-4.27,3-9.59,5.16-14.23,1-2.13,2.7-3.33,4.64-4.58s4.12-2.93,6.41-3.12c2.78-.23,7.4-2,7.84-5.22S63.71,81,61.34,81.21Z"/><path class="cls-3" d="M72.21,115.54c-2.79-1.78-7.46-.61-10,1.11-12.79,8.72-20.77,22.28-24.41,37.15a81.56,81.56,0,0,0-1.87,10.91c-.41,3.93-.43,8.24-2.07,11.9a29.45,29.45,0,0,0,3.19,6.23,13.7,13.7,0,0,0,2.56,3c.66-.46,1.3-.94,1.91-1.46,7.13-6,7.64-14.11,8.68-22.75,1.83-15.12,8-31,21-39.9C73.38,120.29,75,117.32,72.21,115.54Z"/><path class="cls-4" d="M75,179.34c.54-5.91-13.59-3.37-14,1.64-.43,4.64-.52,8.8,1.72,13,.87,1.63,1.54,3.17,1,5a6,6,0,0,1-.78,1.58l-.43,0c4,1.67,9.16,2.6,12.27,2.27a13.46,13.46,0,0,0,2-3,12.48,12.48,0,0,0,.57-1.4,47.23,47.23,0,0,0-2.9-8.95l1.85-.2A19,19,0,0,1,75,179.34Z"/><path class="cls-5" d="M74,176.4s1.06,9.72,1.54,15.09-2.68,17.61-2.68,17.61,7.08,33.39,31.24,33.39,33.08-33,33.08-33-12.24-12.71-8.26-29.24"/><path class="cls-6" d="M75,178c-.27.66,1.89,23.88,2.16,24.42s4.94,3.36,7.67,6.67a105.6,105.6,0,0,0,8.66,8.58s16.81-1.48,19.07,0,10.72-22.78,15-24c0,0,.81-9.33.83-12.64S75,178,75,178Z"/><path class="cls-7" d="M98.91,197.72c14.31,0,31.09-11.83,33.84-23.66,1.65-13.48,3.58-23.93,3.58-26.13a135,135,0,0,0-1.93-16.23c-.83-3.58,0-24.48,0-24.48L96.71,86.31l-34.39,22s-.82,24-1,26.94-2.73,12.89-2.54,15.43,2.15,12.69,2.93,16,3.12,14.45,6.25,16.79C71.46,186.8,78.72,197.7,98.91,197.72Z"/><path class="cls-8" d="M109.26,137.07s3.6-2.83,6.6-3.16a10.56,10.56,0,0,1,5.52,1Z"/><path class="cls-8" d="M82,137.92c-.81-1.27-3.89-2.34-6-2.42a9,9,0,0,0-2.79.17Z"/><path class="cls-9" d="M104.81,179.61c-2.86.79-15.39.79-17.14-.63s-5.24-4.92-7.46-5.39l-.09-.92,2.31-1A70.13,70.13,0,0,1,92.75,169c2.06-.16,4,.79,6.19.16s8.25-1,10.47-.16l5.1,1.66a25.44,25.44,0,0,1-1.65,2.74C111.83,174.89,107.08,179.12,104.81,179.61Z"/><path class="cls-10" d="M88.23,172.87a13,13,0,0,1,6.92-.54c1.71.27,5.57-1.17,7.82-1a58.32,58.32,0,0,0,5.84.45s-6.65,2.43-10.87,2.43A49.55,49.55,0,0,1,88.23,172.87Z"/><path class="cls-8" d="M109.39,171.61l4.26-1.26.87.28-.66,1S110.45,172.87,109.39,171.61Z"/><path class="cls-8" d="M81.2,172.34c1.53.26,5.87.45,5.87.45s-5.49.83-6.19.51C80.88,173.3,79.16,172.79,81.2,172.34Z"/><path class="cls-11" d="M98.91,162.66c1.69-2.14,2.82-2.71,5-2.71"/><path class="cls-11" d="M89.63,161.11c-.2-.17-.07-1.12,1.59-.56a16.92,16.92,0,0,1,3.3,1.65"/><path class="cls-12" d="M95.27,162.75a10.11,10.11,0,0,0,3,.22l.18,0"/><path class="cls-13" d="M107.44,155.4a11.55,11.55,0,0,1-.35,3.5,4.86,4.86,0,0,1-.61,1.76c-.51.67-1.62.62-2.35,1-.25.12.21.25.35.18.7-.35,1.74-.3,2.32-.88a3.31,3.31,0,0,0,.65-1.46,11.84,11.84,0,0,0,.5-4.07c0-.18-.52-.17-.5,0Z"/><path class="cls-13" d="M85.37,156.2a13.75,13.75,0,0,0,1.34,4.4,2.12,2.12,0,0,0,.69.87c.51.3,1.07,0,1.61.15.23,0,.46-.18.13-.24s-1.07.11-1.45-.13a3,3,0,0,1-.77-1.27,15.26,15.26,0,0,1-1.06-3.78c0-.18-.52-.16-.5,0Z"/><path class="cls-14" d="M101.11,157.35a3.09,3.09,0,1,1-6.18,0c0-1.71,3.09-3.28,3.09-3.09C98,154.26,101.11,155.64,101.11,157.35Z"/><path class="cls-15" d="M103.7,179.82a60.41,60.41,0,0,1-13.92-.17,4.37,4.37,0,0,0-1.38,1.76c-.38,1.13,6.8,1.32,6.8,1.32,8.69,0,9.82-.76,10.3-1.23S104.54,180.32,103.7,179.82Z"/><path class="cls-16" d="M107.41,138.14c3.21-1.79,3.88-2.54,6.49-3.51s5.22-1,10,2.31a10.77,10.77,0,0,1-2.68,1.57,8.16,8.16,0,0,1-4.62.6c-2.31-.15-2.68-.6-4.7-.52s-3.8.6-4.25.52A.53.53,0,0,1,107.41,138.14Z"/><path class="cls-16" d="M85.05,139.26a21.41,21.41,0,0,1-5-2.61A9,9,0,0,0,69,138.81a7,7,0,0,0,5.54,2.74,10.53,10.53,0,0,0,5.8-1.37c.85-.39,4.11-.07,4.5-.26A.56.56,0,0,0,85.05,139.26Z"/><path class="cls-17" d="M78.69,136a9.41,9.41,0,0,0-7.39.77,4.33,4.33,0,0,0,2.24,4.67,7,7,0,0,0,1,.07,13.94,13.94,0,0,0,3.15-.31C80.16,139.8,79,136.71,78.69,136Z"/><path class="cls-17" d="M113.89,134.64l-.58.23a4.55,4.55,0,0,0,.16,3.79,27.39,27.39,0,0,0,3.11.45,12.12,12.12,0,0,0,2.79,0,4.87,4.87,0,0,0,.82-4.14.77.77,0,0,0-.05-.11l-.24-.1A7.71,7.71,0,0,0,113.89,134.64Z"/><path class="cls-8" d="M106.74,132.35a17.75,17.75,0,0,1,3.77-4.86"/><path class="cls-8" d="M108.64,131.54a13.32,13.32,0,0,1,4-4.69"/><path class="cls-8" d="M110.64,130.88a11.56,11.56,0,0,1,3.9-4.82"/><path class="cls-8" d="M112.35,130.28a15.49,15.49,0,0,1,4-4.71"/><path class="cls-8" d="M114.16,130a13.14,13.14,0,0,1,4.16-4.86"/><path class="cls-8" d="M115.59,129.84a27.66,27.66,0,0,1,4.72-5.48"/><path class="cls-8" d="M117.47,129.42a25,25,0,0,1,4.75-5"/><path class="cls-8" d="M119.84,128.77a9.73,9.73,0,0,1,3.73-4"/><path class="cls-8" d="M121.72,128a10.07,10.07,0,0,1,3-3.19"/><path class="cls-8" d="M123.51,127.11a3.68,3.68,0,0,1,1.83-1.69"/><path class="cls-8" d="M124.82,126.92a3,3,0,0,1,1.58-1.37"/><path class="cls-8" d="M126.06,126.79a1.33,1.33,0,0,1,1.26-.87"/><path class="cls-8" d="M127.16,127.11a.9.9,0,0,1,.92-.61"/><path class="cls-8" d="M128.22,127.26A.71.71,0,0,1,129,127"/><path class="cls-8" d="M129,127.57a.25.25,0,0,1,.31-.16"/><path class="cls-8" d="M129.91,128.48v-.15"/><path class="cls-8" d="M82.89,129.45c1.52.41,2.31,2,2.91,3.48"/><path class="cls-8" d="M82.2,129.61a7.19,7.19,0,0,1,2.29,3.16"/><path class="cls-8" d="M80.8,129.66a9.13,9.13,0,0,1,2,2.83"/><path class="cls-8" d="M79.24,129.24a9.59,9.59,0,0,1,2.38,3.22"/><path class="cls-8" d="M77.55,128.8a9.14,9.14,0,0,1,2.36,3.13l.09-.41"/><path class="cls-8" d="M75.95,128.29a32.82,32.82,0,0,1,2.18,3.56"/><path class="cls-8" d="M74.07,128c-.09-.16.25-.12.35,0a16.44,16.44,0,0,1,1.49,3.44"/><path class="cls-8" d="M72.19,127.78a8,8,0,0,1,1.93,3.92"/><path class="cls-8" d="M70.46,127.06A7,7,0,0,1,72.38,132"/><path class="cls-8" d="M66,129.68A3.52,3.52,0,0,0,64.63,128"/><path class="cls-8" d="M65.72,127.51c-.08,0-.09-.13,0-.15s.15.06.21.13a9.91,9.91,0,0,1,1.52,2.95"/><path class="cls-8" d="M66.93,126.94a8.25,8.25,0,0,1,1.39,3.51"/><path class="cls-8" d="M68.13,126.81c.25-.09.48.19.6.43a10.92,10.92,0,0,1,1.08,3.69"/><path class="cls-8" d="M69.66,127.26a8.86,8.86,0,0,1,1.17,3.81"/><path class="cls-8" d="M65.09,129.85a2.2,2.2,0,0,0-1.52-.94"/><path class="cls-8" d="M64.2,130.45a1,1,0,0,0-.95-.59"/><path class="cls-8" d="M75.73,135.62l.24-.11c-5.51-.51-9.28,3.84-9.28,3.84.72.29,2.26-.54,2.26-.54A8.67,8.67,0,0,1,75.73,135.62Z"/><path class="cls-8" d="M124.33,136.26c-1.51-.57-5.18-3.11-8.48-2.35l.39.2c2-.14,4.27.53,7.64,2.85a8.55,8.55,0,0,1-.79.57l.11.05c.75.19,2.64-.75,2.64-.75Z"/><path class="cls-10" d="M82,137.9l-.08,0s-.68,1.42-.34,1.93a.65.65,0,0,0,.13.13,24.87,24.87,0,0,0,3-.06.56.56,0,0,0,.26-.65A26.4,26.4,0,0,1,82,137.9Z"/><path class="cls-10" d="M107.63,139.11a19.14,19.14,0,0,0,2.42-.34l.06-.19-.85-1.51c-.52.32-1.12.67-1.85,1.08A.53.53,0,0,0,107.63,139.11Z"/><circle class="cls-18" cx="75.95" cy="138.32" r="0.99"/><path class="cls-2" d="M119.15,97.44c-2,8.15-21.53,28.05-56.75,24.14L51,111.14l7.5-18.27L92.07,70.7s26.09,4.89,27.72,3.91S119.15,97.44,119.15,97.44Z"/><circle class="cls-18" cx="116.97" cy="136.53" r="0.93"/><path class="cls-15" d="M107.54,137.35c3.55-4.24,6.17-5,7.73-5s4.33-.89,11.06,3.82C126.33,136.17,115.27,125.8,107.54,137.35Z"/><path class="cls-15" d="M66.25,138.57c2.14-1.63,7-5.2,11.11-4.08a14.62,14.62,0,0,1,6.12,3.16S76.38,128.24,66.25,138.57Z"/><path class="cls-19" d="M85.11,141.61S76,145.73,73.38,145.8C73.38,145.8,83.54,140.75,85.11,141.61Z"/><path class="cls-19" d="M111,140.65s6.8,1.13,9.39.49c0,0,.73.73.16,1.22s-9-.24-9.67-.73S111,140.65,111,140.65Z"/><path class="cls-20" d="M109.37,156.83s8.23,2.21,8.85,13.1c0,0-4.33-10.43-9.47-11.66C108.76,158.26,108.51,157.09,109.37,156.83Z"/><path class="cls-20" d="M85.86,158a5.47,5.47,0,0,0-.52-1.58,1.19,1.19,0,0,0-1.57-.54c-4.45,2.15-9.13,12.79-9.13,12.79s0,1,.53,1,7.23-9.23,10-10.35A1.19,1.19,0,0,0,85.86,158Z"/><path class="cls-8" d="M69,138.81s.64,2.09,4.46,3c2,.15,5.89-.58,6.88-1.67a10.53,10.53,0,0,1-5.8,1.37A7,7,0,0,1,69,138.81Z"/><path class="cls-8" d="M121.2,138.52a8.16,8.16,0,0,1-4.62.6c-2.31-.15-2.68-.6-4.7-.52a17.16,17.16,0,0,0-1.83.18,23.71,23.71,0,0,1,7,.55c4.47.19,6-1.8,6-1.8h0A11.42,11.42,0,0,1,121.2,138.52Z"/><path class="cls-21" d="M75.61,136.88s-1.32.12-1.11,1.73C74.49,138.61,73.3,136.67,75.61,136.88Z"/><path class="cls-21" d="M115.54,136.34a1.16,1.16,0,0,1,1.66-1.1S115.23,134.08,115.54,136.34Z"/><g class="cls-22"><path class="cls-8" d="M63.78,131.8c5.87-3.86,14.54-.5,20.9.7,1,.19,1.15-2.78,0-3-6.64-1.25-15.17-4.63-21.32-.59-.89.59-.51,3.51.43,2.89Z"/></g><g class="cls-22"><path class="cls-8" d="M129.36,126.48c-3.09-1.85-8.55-1.25-12-.93s-6.65,2.49-9.74,4.13c-.92.49-.6,3.43.41,2.89,2.93-1.56,5.95-3.65,9.32-4s8.75-.9,11.63.82c.95.57,1.32-2.35.41-2.89Z"/></g><path class="cls-15" d="M104.85,132s-2.48,2.79-2.48,8.69c0,0,2.48-4.66,4-5.28C106.16,132.9,104.85,132,104.85,132Z"/><path class="cls-23" d="M28,28.86l-2.55,2.72V37H23V19.11h2.47v9.2l8.37-9.2h3.25l-7.44,8L37.21,37H34.08Z"/><path class="cls-23" d="M168.28,240.93l2.55-2.72v-5.39h2.47v17.87h-2.47v-9.2l-8.37,9.2h-3.25l7.44-8-7.54-9.91h3.13Z"/><path class="cls-23" d="M36.13,52.74,29.31,41.88a.78.78,0,0,0-1.31,0L21.16,52.74a.78.78,0,0,0,0,.83L28,64.43a.78.78,0,0,0,1.31,0l6.83-10.87A.78.78,0,0,0,36.13,52.74Z"/><path class="cls-23" d="M176,216.68l-6.83-10.87a.78.78,0,0,0-1.31,0L161,216.68a.78.78,0,0,0,0,.83l6.83,10.87a.78.78,0,0,0,1.31,0L176,217.51A.78.78,0,0,0,176,216.68Z"/></svg>