<svg id="Layer_1" data-name="Layer 1" xmlns="http://www.w3.org/2000/svg" viewBox="0 0 196 266.67"><defs><style>.cls-1{fill:#f8e4e3;}.cls-2{fill:#be1e2d;}.cls-3{fill:#f2ccae;}.cls-4{fill:#d0af9b;}.cls-5{fill:#ffebc6;}.cls-6{fill:#f5d8bc;}.cls-7{fill:#efc7b0;}.cls-8{fill:#fff1d0;}.cls-9{fill:#545456;}.cls-10{fill:#ebf4f0;}.cls-11{fill:#7d9297;}.cls-12{fill:#e98c88;}.cls-13{fill:#f5e0cd;}.cls-14{fill:#6b3720;}.cls-15{fill:none;stroke:#d39c82;stroke-linecap:round;stroke-miterlimit:10;}.cls-16{fill:#eac6a9;}.cls-17{fill:#1d1611;}.cls-18{fill:#d39c82;}.cls-19{fill:#f3cbb6;}.cls-20{fill:#fad4b5;}.cls-21{fill:#f7d0b1;}.cls-22{fill:#eabba4;}.cls-23{fill:#8f5f4a;}.cls-24{fill:#f4ceaf;}.cls-25{opacity:0.15;}.cls-26{fill:#381c15;}</style></defs><title>badbitchcards</title><rect class="cls-1" x="8.63" y="8.48" width="178.58" height="249.45" rx="8.5" ry="8.5"/><path class="cls-2" d="M19.63,29.45l7-9.81H30V30h2.8V32.3H30V36H27.64V32.3h-8Zm8-7.44L21.9,30h5.75Z"/><path class="cls-2" d="M21.71,42.91c2.57,0,3.86,1.22,5.14,3.64,1.28-2.42,2.57-3.63,5.14-3.64a5,5,0,0,1,5.18,4.89c0,4.9-5.15,9.8-10.31,14.71-5.16-4.9-10.32-9.81-10.31-14.71A5,5,0,0,1,21.71,42.91Z"/><path class="cls-3" d="M99.75,232.54c-27.24,0-38.57-44.3-38.57-44.3s12,2.36,10.83-13.17h0s49.65-5.54,56.2.77h0s-3.45,12.61-.86,22.42S110.69,232.54,99.75,232.54Z"/><path class="cls-4" d="M71.55,186s20.22,14,24.61,14,8-5.06,8-5.06l-5.92-11.28L72,179.42Z"/><path class="cls-5" d="M125.48,64.56c-9.45-21.16-49.83-12-71,13.09C40.29,94.41,41.4,101,38.62,105.5s-11.42,24.12-3.06,39.07-5.85,36.93-6.13,43.34,1.11,16.16,4.73,18.95S40,209.37,40,209.37s-5.29-2.23-.56-11.14,7.52-14,7.52-14,8.08,16.51,11.7,25.14c5.57-1.68,7.52-9.62,6.13-12.47s-.28-2.9-.28-9.7,3,4.06,6.54,6.29c10.57,4.46,12.36,1.95,12.36,1.95l.31-7.55L136.82,160s-4.36,10-1.57,18,3.34,12.31,9.47,18.92,9.47,12.74,7.52,17.76c5.85,4.73,9.19,4.18,9.19,4.18s3.18-37-5.85-40.86c0,0,9.62,3.61,9.47,18.92,0,0,6.23-12.54,0-20.24s-7-15.7-5.78-17.85c2.37,6.74,1.68,12.78,8.54,19.17s5.08,11.42,5.08,11.42,9.33-26.81-8.15-40.29c-12-21.7-5.33-40.68-7.56-45.6S139.24,64.31,125.48,64.56Z"/><path class="cls-6" d="M113.62,84.21s-6.88-23.91-23.84-7L74.39,97.7l39.23-13.49"/><path class="cls-7" d="M122,84.44l3.47-19.88s-4.72,16.11-6.95,17S122,84.44,122,84.44"/><path class="cls-8" d="M68.39,93.11S53.85,124.3,44.76,124.66"/><path class="cls-6" d="M58.46,141.14s4.51,3.33,4.33,6.47,2.22,13.67-5.54,20.88-6.62,18.81-6.62,18.81l-1.78-3.68s2.48-16,7.08-20.57,0-16.55,0-16.55S54.55,145,58.46,141.14Z"/><path class="cls-8" d="M95.28,69.05c.29.26,19.85-5.12,26.75,5l1.18-1.55S117.49,63,95.28,67.86Z"/><path class="cls-8" d="M127.28,91.36s22.58,5.92,17.91,36.45S147.52,178,147.52,178l1.56-2.61c-4.45-8.44-2.9-16.62-.23-47.27s-19.23-41.16-19.23-41.16A43.8,43.8,0,0,0,119,84.37l8.25,7"/><path class="cls-6" d="M154.16,144.57l1.95-3.68a21.76,21.76,0,0,0,5.06,12,35.51,35.51,0,0,1,6.23,8.9S152.21,148.25,154.16,144.57Z"/><path class="cls-6" d="M47,146s11.32,5.11,14.15-2.95h0l-.21-4.78S53.85,146.74,47,146Z"/><path class="cls-4" d="M114.3,180.54S116.42,191,116,193.08s10.39-3,10.39-3a72.38,72.38,0,0,1,1.82-14.25c1.64-6.1-12.22,0-12.22,0Z"/><path class="cls-3" d="M93.7,79.66c5.5,4,15.4,3.67,19.8,2.2s15,2.57,16.5,21.27a52.25,52.25,0,0,1,7.33,21.27c2.57,9.53,2.39,12.27,1.43,22.63s-2.6,28.39-22.21,40.86c-13.1,13-25.94,10.93-32.85,0-10.55-8.82-17.07-22.45-18-23a86.09,86.09,0,0,1-4.77-26.59s8.54-8.57,10.59-14.21,3.76-7.68,5.29-23.91S93.7,79.66,93.7,79.66Z"/><path class="cls-9" d="M108.4,133.61s3.18.79,9.61.29c5-1.88,3.87-1.42,5.11-2.55Z"/><path class="cls-9" d="M71.45,131.85A10.29,10.29,0,0,0,79.15,134c4.38-.69,6.4,0,7.17-.62Z"/><path class="cls-9" d="M123.12,131.35a7.09,7.09,0,0,0,5.16-1.86c-7.63-.77-8.08-2.59-14.79-2.59-4,0-8,3.09-8,6.56"/><path class="cls-9" d="M72.34,132.17s-2.87-.51-3.95-1.59c4.85-.24,8-2.2,9.25-2.49s4.43-1.45,9.44,3.57"/><path class="cls-10" d="M107.93,132.17a2.13,2.13,0,0,1,.48,1.44c2,0-.55.16,9.65,0,4.44-1.44,5.06-2.26,5.06-2.26s-5.38-4.44-9.74-3S107.93,132.17,107.93,132.17Z"/><path class="cls-11" d="M116.16,133.68c-2.87,0-3.54-1.57-3.54-5,2.91-1.51,6.74.4,6.74.4s.74,3-1.31,4.54Z"/><path class="cls-12" d="M78.41,162.55c.35-.12,17.73,1.15,19.46,1.61,2.3-.46,18.19-1.51,20.72-1.62C115.37,167.38,110,178,99.36,178S83.94,167.84,81.17,165.2Z"/><path class="cls-13" d="M97.52,168c7,0,14.42-4.61,17.66-4.32-1.08,2.15-6.67,8.63-16.68,8.63a18.87,18.87,0,0,1-15.11-7.95S93.3,169.08,97.52,168Z"/><path class="cls-14" d="M88.23,157.18c2.21,0,2.12-1,5.77,1.64"/><path class="cls-14" d="M105.15,157.46c-2.31-1-3.56-1.35-6.25,1.35"/><path class="cls-15" d="M106.2,157a4.54,4.54,0,0,0,2.12-4.85"/><path class="cls-15" d="M86.42,152.94s-.47,3.37.67,3.8"/><path class="cls-16" d="M104.75,127.41s-2.65,1.72-2.72,4.52a7.65,7.65,0,0,0,2.23,5S102.37,131.68,104.75,127.41Z"/><path class="cls-10" d="M87.09,131.66s.25,1.49-.77,1.77-3-.58-6.78.25a10.16,10.16,0,0,1-7.2-1.51S78.93,124,87.09,131.66Z"/><path class="cls-11" d="M80.74,133.46c-1.72,0-4.52-.09-4.46-2.58.14-1.74,1-2.39,3.44-2.5s3.66.54,3.66,2.73S80.74,133.46,80.74,133.46Z"/><circle class="cls-17" cx="80.4" cy="130.92" r="0.94"/><circle class="cls-17" cx="115.77" cy="130.58" r="1.09"/><path class="cls-18" d="M105.5,133.47c.67,1.26,2.9.15,2.9.15s.77-1.4-.48-1.44A3.86,3.86,0,0,0,105.5,133.47Z"/><path class="cls-18" d="M88.83,133.47c-.13.9-2.51,0-2.51,0s.17-1.95.77-1.77S88.93,132.75,88.83,133.47Z"/><path class="cls-19" d="M129.92,104c-3.43-3.43-1.64,11.75-1.64,11.75l1.64,4.89C131.74,120.66,129.92,104,129.92,104Z"/><ellipse class="cls-20" cx="96.41" cy="154.84" rx="3.76" ry="1.9"/><ellipse class="cls-21" cx="100.39" cy="187.91" rx="5.11" ry="3.68"/><path class="cls-21" d="M110.48,142.74a14,14,0,0,0,2.14,7.09c2.1,2.89,8.93,0,8.93,0v-8.41S112.27,139.58,110.48,142.74Z"/><path class="cls-16" d="M102,136.93s-1.61,16.29-.65,15.22,2.31-3.7,3.37-4,2.13-9.12,1.45-9.12S103.5,136.88,102,136.93Z"/><path class="cls-16" d="M112.22,187.2c0-.81,2.07-15.18,3.79-14.88a9.77,9.77,0,0,0,3.18,0Z"/><path class="cls-22" d="M81.62,155.29c.9-2-7.41,6.54-7.41,6.54l-3.85,3.85S78.88,161.54,81.62,155.29Z"/><path class="cls-16" d="M87.11,126.9c.48-.3,3.78.56,4,4.7l.22,4.13"/><path class="cls-23" d="M103.3,125a4.52,4.52,0,0,1,2.55-4.75"/><path class="cls-23" d="M104.6,124.66a6.83,6.83,0,0,1,3.5-4.91"/><path class="cls-23" d="M106.38,124.19a8.15,8.15,0,0,1,4.38-4.83"/><path class="cls-23" d="M108.47,123.57l2.91-3.51a4,4,0,0,1,2.23-1.65"/><path class="cls-23" d="M111.95,122.71a16.41,16.41,0,0,1,2.12-3,5.51,5.51,0,0,1,3.15-1.74"/><path class="cls-23" d="M114.27,122.82a12.94,12.94,0,0,0,2.85-3,4.36,4.36,0,0,1,3.53-1.86"/><path class="cls-23" d="M117.89,122.13c.88-.79,1.54-1.81,2.42-2.6a3.32,3.32,0,0,1,3.25-.91"/><path class="cls-23" d="M120.17,122.39a26.33,26.33,0,0,1,2.47-2c.84-.59,2-1.15,2.84-.6"/><path class="cls-23" d="M123.27,122.65a5.57,5.57,0,0,1,3.05-1.91c.56-.13,1.32-.06,1.48.49"/><path class="cls-23" d="M126.48,122.56a3.83,3.83,0,0,1,3.15-.44"/><path class="cls-23" d="M88.09,125.4a6,6,0,0,0-3.34-3.71"/><path class="cls-23" d="M85.79,125.11A7.64,7.64,0,0,0,81,120.6"/><path class="cls-23" d="M82.63,124.38c-.6-1.94-2.58-3.05-4.39-4"/><path class="cls-23" d="M79.27,123.74a11.46,11.46,0,0,0-3.74-3.94"/><path class="cls-23" d="M76.59,124a8.58,8.58,0,0,0-3.06-3.56"/><path class="cls-23" d="M74.43,123.61a5.93,5.93,0,0,0-2-2.22"/><path class="cls-24" d="M101.34,114.12c-13.24,0-11.1-15-11.1-17.18,0-1.3,7.59-1.16,13.59-.84a6.93,6.93,0,0,1,6.44,8.36C109.26,109.12,106.88,114.12,101.34,114.12Z"/><path class="cls-7" d="M85.69,167a5.92,5.92,0,0,0,1-1.27c-1.92-.76-3.28-1.4-3.28-1.4A16.67,16.67,0,0,0,85.69,167Z"/><path class="cls-4" d="M114.3,163.72a11.52,11.52,0,0,0-1.85.4,8.42,8.42,0,0,1,1.59,1.23,9.55,9.55,0,0,0,1.14-1.67Z"/><g class="cls-25"><path class="cls-26" d="M105.58,122.08v-.54l-1.3,2.5a33.75,33.75,0,0,0,3.82-.61c1.05-.2,3.26-3.72,2.37-3.66a6,6,0,0,0-3.36.8c-.58.25-3.36,3.37-2.09,3.59a12.35,12.35,0,0,0,5.68-.32c.8-.22,3.08-3.61,2.09-3.59a8,8,0,0,1-4.15-.64l-2.57,3.6a30.6,30.6,0,0,1,8.94-.59l2.37-3.66a21.64,21.64,0,0,0-4.82.56c-.63.14-3.58,3.22-2.57,3.6,2.55,1,4.4-.06,7-.5a16.84,16.84,0,0,1,10.11,1.53c1.13.52,3.5-3.21,2.77-3.55a18.43,18.43,0,0,0-7.5-1.88c-3-.05-6.71,1.94-9.59.85l-2.57,3.6a21.64,21.64,0,0,1,4.82-.56c1.11,0,3.35-3.58,2.37-3.66a30.6,30.6,0,0,0-8.94.59c-.65.14-3.56,3.26-2.57,3.6a11.87,11.87,0,0,0,4.56.75l2.09-3.59a10.49,10.49,0,0,1-5.13.18l-2.09,3.59,2.8-.66,2.37-3.66c-2.62.5-5,.49-6.75,2.69-.7.89-1.81,2.41-.44,3.19.26.15.61-.07.81-.2l.34-.22c.82-.52,3-4.31,1.15-3.14Z"/></g><g class="cls-25"><path class="cls-26" d="M71,124.41q7.62.52,15.18,1.52c.82.11,3.15-3.34,2.6-3.58a26.23,26.23,0,0,0-14.46-2c-1.18.17-2.81,3.66-2.43,3.61A25.63,25.63,0,0,1,86,125.9l2.6-3.58q-7.57-1-15.18-1.52c-1.07-.07-3.05,3.56-2.43,3.61Z"/></g><path class="cls-2" d="M173.61,224.89c-2.57,0-3.86-1.22-5.14-3.64-1.28,2.42-2.57,3.63-5.14,3.64a5,5,0,0,1-5.18-4.89c0-4.9,5.15-9.8,10.31-14.71,5.16,4.9,10.32,9.81,10.31,14.71A5,5,0,0,1,173.61,224.89Z"/><path class="cls-2" d="M175.69,237.16l-7,9.81h-3.4V236.61h-2.8v-2.29h2.8v-3.68h2.39v3.68h8Zm-8,7.44,5.75-8h-5.75Z"/></svg>