<?xml version="1.0" encoding="utf-8"?>
<!-- Generator: Adobe Illustrator 20.0.0, SVG Export Plug-In . SVG Version: 6.00 Build 0)  -->
<svg version="1.1" id="Layer_1" xmlns="http://www.w3.org/2000/svg" xmlns:xlink="http://www.w3.org/1999/xlink" x="0px" y="0px"
	 viewBox="0 0 196 266.7" style="enable-background:new 0 0 196 266.7;" xml:space="preserve">
<style type="text/css">
	.st0{fill:#F8E4E3;}
	.st1{fill:#BE1E2D;}
	.st2{fill:#F2CCAE;}
	.st3{fill:#CFAE9A;}
	.st4{fill:#E98C88;}
	.st5{fill:#F5E0CD;}
	.st6{fill:#6B3720;}
	.st7{fill:none;stroke:#D39C82;stroke-linecap:round;stroke-miterlimit:10;}
	.st8{fill:none;stroke:#FFFFFF;stroke-width:0.25;stroke-miterlimit:10;}
	.st9{fill:#EBF4F0;}
	.st10{fill:#E9C5A8;}
	.st11{fill:#7D9297;}
	.st12{fill:#1D1611;}
	.st13{fill:#D39C82;}
	.st14{fill:#545456;}
	.st15{fill:#9F856F;}
	.st16{fill:#231F20;}
	.st17{opacity:0.15;}
	.st18{fill:#381C15;}
	.st19{opacity:0.77;}
	.st20{fill:#DFBD8E;}
	.st21{fill:none;stroke:#DAB995;stroke-miterlimit:10;}
	.st22{opacity:0.77;fill:#DFBD8E;}
</style>
<title>badbitchcards</title>
<path class="st0" d="M17.1,8.5h161.6c4.7,0,8.5,3.8,8.5,8.5v232.4c0,4.7-3.8,8.5-8.5,8.5H17.1c-4.7,0-8.5-3.8-8.5-8.5V17
	C8.6,12.3,12.4,8.5,17.1,8.5z"/>
<path class="st1" d="M19.6,29.5l7-9.8H30V30h2.8v2.3H30V36h-2.4v-3.7h-8L19.6,29.5z M27.6,22l-5.7,8h5.8L27.6,22z"/>
<path class="st1" d="M21.7,42.9c2.6,0,3.9,1.2,5.1,3.6c1.3-2.4,2.6-3.6,5.1-3.6c2.8-0.1,5.1,2.1,5.2,4.8c0,0,0,0,0,0.1
	c0,4.9-5.2,9.8-10.3,14.7c-5.2-4.9-10.3-9.8-10.3-14.7C16.6,45,18.9,42.8,21.7,42.9C21.7,42.9,21.7,42.9,21.7,42.9z"/>
<path class="st1" d="M173.6,224.9c-2.6,0-3.9-1.2-5.1-3.6c-1.3,2.4-2.6,3.6-5.1,3.6c-2.8,0.1-5.1-2.1-5.2-4.8c0,0,0,0,0-0.1
	c0-4.9,5.1-9.8,10.3-14.7c5.2,4.9,10.3,9.8,10.3,14.7C178.7,222.8,176.4,225,173.6,224.9C173.6,224.9,173.6,224.9,173.6,224.9z"/>
<path class="st1" d="M175.7,237.2l-7,9.8h-3.4v-10.4h-2.8v-2.3h2.8v-3.7h2.4v3.7h8L175.7,237.2z M167.7,244.6l5.8-8h-5.8V244.6z"/>
<g>
	<path class="st2" d="M99,241.8c-28.6,0-37.8-38-37.8-38S74,191.3,72.8,175c-1.2-16.3,54.7,7.2,54.7,7.2s-3.8,13.2,0.5,23.6
		C130.7,216.1,110.5,241.8,99,241.8z"/>
	<path class="st3" d="M69.8,188.4c0,0,21.3,14.7,25.9,14.7s8.4-5.3,8.4-5.3l-6.2-11.9l-22.2-11.7L69.8,188.4z"/>
	<path class="st3" d="M114.2,187.2c0,0,2.2,11,1.8,13.2c-0.4,2.2,10-2.6,10-2.6s-0.6-9.2,1.4-15.5c1.7-6.4-11.4,0-11.4,0
		L114.2,187.2z"/>
	<path class="st2" d="M114.3,71.9c9.9,0,22.9,11.5,29.1,24.6c2.1,3.9,3.7,18.3,3.8,23.4c0.1,5.2,0.2,10.1,0.6,12.5
		c0.4,2.3,0.6,13.4-1.8,20.7c-1.5,3.6-3.2,8.4-3.5,9.9c-0.3,1.5-3,13.2-12.4,20.1s-11.9,10.8-24,10.8S88.8,188.1,85,185
		s-5.7-4.7-5.7-4.7l-25.7-59.9c0,0,36.9-31.9,40.2-35.2C97.2,81.9,104,71.9,114.3,71.9z"/>
	<g>
		<path class="st4" d="M95.3,166.2c1.6,2.4,8.2,8.9,16.7,8.8c8.5-0.1,11.8-7.7,11.8-7.7s0,0-0.6-0.1c-0.6-0.1-2.2-1.1-5.6-3.8
			c-3-2.5-5.8-0.2-7.7-0.3c-3.8-1.6-7.6,0-10.3,1c-3.4,1.3-4.7,1.2-4.7,1.2L95.3,166.2z"/>
		<path class="st5" d="M123,168.6c0.2-0.3,0.3-0.6,0.5-0.8l0,0c0,0-1.4,0.4-3.3,0.6c-1.9,0.2-9.9-0.4-14.8-1.2
			c-3.8-0.1-7.9-1.1-10.4-1.6l0.3,0.5c0.1,0.1,0.2,0.3,0.3,0.4c0.2-0.4,11.3,1.4,15.1,2C114.4,169.2,123,168.7,123,168.6z"/>
	</g>
	<path class="st6" d="M106,154c-0.6-0.1-0.7-1,0-1.1c0.7-0.1,2.7-0.4,3.3,0c0.9,0.6,1.7,1.2,1.8,1.6c0.1,0.4-1.7-0.9-3-0.9
		C106.7,153.6,106,154,106,154z"/>
	<path class="st6" d="M118.7,154.7c0.7-0.6-0.7-1.4-1.4-0.9c-0.8,0.4-2.6,1.3-3,1.6c0.7,0.4,2.4-0.7,3-0.8
		C117.9,154.4,118.7,154.7,118.7,154.7z"/>
	<path class="st7" d="M106,155.3c-3.9,0-5.3-5.1-3-7.6"/>
	<path class="st7" d="M117.8,155.9c3.9-1.2,4.5-3.1,3.8-6.2"/>
	<path class="st8" d="M103.1,129.3c-3.5-3.1-5-5.4-8.9-5.2s-9.5,2.1-9.5,2.1s3.8,2.8,8.2,2.9c4.4,0.1,5.7,0,8,0.1
		C103.1,129.3,102.7,129.9,103.1,129.3z"/>
	<path class="st9" d="M121.4,131c2.8-2.8,6.7-5.7,12.3-2.6c5.5,3.1,5.5,3.1,5.5,3.1s-5.7,1.5-7.7,1.2c-2.3,0-6.7-1.4-8-1.4
		c-1.2,0-2.1,0.3-2.1,0.3S121,131.5,121.4,131z"/>
	<path class="st10" d="M116.6,146.4c1.1,1.6,1,3.1,1,3.1s0.9,1.1,1.4,0.9c0.4-1.6,0.9-4.4,0.3-5.1
		C118.7,144.6,116.9,144.8,116.6,146.4z"/>
	<path class="st9" d="M103.1,129.3c-3.5-3.1-5-5.4-8.9-5.2s-9.5,2.1-9.5,2.1s3.8,2.8,8.2,2.9c4.4,0.1,5.7,0,8,0.1
		C103.1,129.3,102.7,129.9,103.1,129.3z"/>
	<path class="st11" d="M132.9,128c-2.9-1.4-5.4-1.1-7.5,0c0,0.1,0.2,3.7,1.5,4c1.3,0.3,2.7,0.6,3.8,0.7
		C130.7,132.6,133.9,130.9,132.9,128z"/>
	<path class="st11" d="M94.2,124.2c-1.5,0.1-3.3,0.4-4.9,0.8c0,0-0.2,3.4,1.7,4c0,0,0.1,0,0.1,0c0.1,0,0.2,0,0.3,0.1
		c0.5,0.1,1,0.1,1.5,0.2c0.6,0,1.2,0,1.7,0c0,0,2.7-2,1.7-4.9C95.7,124.2,95,124.1,94.2,124.2z"/>
	<circle class="st12" cx="93.1" cy="126.2" r="0.9"/>
	<circle class="st12" cx="129.3" cy="128.9" r="0.9"/>
	<path class="st13" d="M103.1,129.3c-0.7-0.6-1.4-1.3-2-1.8c-0.1,0.1-0.2,0.1-0.3,0.3c-0.6,1.2,0,1.5,0,1.5
		C103.1,129.3,102.7,129.9,103.1,129.3z"/>
	<path class="st13" d="M123.1,129.4c-0.6,0.5-1.1,1.1-1.6,1.6c-0.4,0.5,0,0.7,0,0.7s0.8-0.4,2.1-0.4
		C123.5,131.3,124.2,130.1,123.1,129.4z"/>
	<path class="st10" d="M121.4,123.4c-3,4-3.7,4.3-3.8,8.2c-0.2,3.9,0,12,0,12s3.1-4.7,2.3-9.3s-0.7-7.4,1.6-8.9
		C121.4,125.3,122.6,124.4,121.4,123.4z"/>
	<path class="st14" d="M124.9,127.9c-2.9,1.6-3.7,3.9-3.7,3.9l0,0l0,0c2.8-2.8,6.7-5.7,12.3-2.6c5.5,3.1,5.5,3.1,5.5,3.1
		c2.4,0.3,2.6-1,2.6-1C134,125.7,127.8,126.3,124.9,127.9z"/>
	<path class="st14" d="M139.1,131.4c0.2,0.1,0.2,0.1,0.2,0.1s-5.7,1.5-7.7,1.2c-2.3,0-6.7-1.4-8-1.4l0,0c0,0,4.1,2.1,8.1,2.2
		c4,0.1,7.9-1.8,8.6-2L139.1,131.4z"/>
	<path class="st14" d="M104,129.6c-0.1-0.2-0.9-1.1-2.6-2.9c0,0-2-2.4-4.5-3.5c-7.9-3.5-15.3,1.5-15.3,1.5c0.6,1.1,3.1,1.6,3.1,1.6
		s5.6-1.9,9.5-2.1c3.9-0.2,5.4,2.1,8.9,5.2c-0.4,0.6,0,0-2,0c1,0.2,1.6,0.3,1.7,0.4C103.1,129.9,104.4,130.2,104,129.6z"/>
	<g>
		<polygon class="st14" points="102.8,129.7 102.8,129.7 102.8,129.7 		"/>
		<path class="st14" d="M100.8,129.3c-2.2,0-3.6,0.1-8-0.1c-4.4-0.1-8.2-2.9-8.2-2.9l0,0l-1.8-0.6c0,0,2.7,3.5,8.4,4.3
			c5.8,0.8,7.4-1,11.5-0.3l-0.9-0.3C101.6,129.3,101.3,129.3,100.8,129.3z"/>
	</g>
	<path class="st15" d="M109.2,50.5c-3.6-4.7-21.5-6.8-38,7.1S41.9,78.1,40.3,85.7c-1.6,7.6,2.9,20.2,3.9,23.1
		c1,2.9-2.6,4.2,0.8,10.2c0,3,0.3,14.3,2.9,16.7c4.2,7.8,8.4,11.5,10.5,19.5c2.1,8.1,4.2,26.4,3.8,29.5c-0.3,3.1-1.5,5.6-1.5,5.6
		s11.8,5.9,13.8-0.8c2-6.8,2-8.4,2-8.4s1,18.6-1,22.8c3-17,4.6-33.5,3.5-36.7c-1.2-3.1-6.8-14.7-7.9-20.4c-1.2-5.8-1.8-15,4-23.4
		c2.1-5.6,1.8-6.3,4-8.9c2.1-2.6,10.3-19.6,10.3-19.6c1.8-4.5,8.4-22.9,27.3-19.8c6.9,1,22.5,12.2,26.7,21.5c4.2,9.2,3.9,29,4,31
		c0.1,2,1,11.4,0.4,16c-0.6,4.6,0,10.2,4.5,15c4.5,4.8-2.4,13.9-6.7,20.1s-9.5,13.5-1.2,30.9c2.2,4.5,4.5,5.4,4.5,5.4
		s-2.2-2.2-3.3-4.4c0,0,2.7,2.8,4.9,2.6c2.2-0.2,1.5-1.6,1.5-1.6s-0.6,2.5-4-0.6c-3.4-3.1-6.8-13.6-5.4-19.3
		c1.4-5.8,2.3-6.5,5.4-9.8c3-3.3,13.3-10.3,13.3-20s-4.4-16.8-5.4-18.9s-3.1-8.8-1.4-12.3c1.7-3.6,8.3-16.3,1.7-35.1
		c-5.4-13.8-7.8-17.2-8.2-22.8S132,50.5,125.4,49.9c-4.2-2.6-8.4-5.8-11.1-5.2S108.3,46.2,109.2,50.5z"/>
	<g>
		<path class="st16" d="M81,115.6c0-0.2,0.2-0.3,0.5-0.4c0.8-0.1,1.5-0.2,2.3-0.1c0.8,0.1,1.5,0.5,1.9,1.2"/>
	</g>
	<g>
		<path class="st16" d="M106,120.9c0.1-1.7-0.6-3.5-1.9-4.6"/>
	</g>
	<g>
		<path class="st16" d="M104.6,120c-0.4-0.9-0.8-1.7-1.2-2.6c-0.3-0.7-0.9-1.5-1.6-1.3"/>
	</g>
	<g>
		<path class="st16" d="M102,119.2c-0.1-2-1.6-3.8-3.5-4.4"/>
	</g>
	<g>
		<path class="st16" d="M99.2,118.2c-0.2-0.9-0.5-1.9-1.1-2.6c-0.6-0.8-1.5-1.3-2.5-1.1"/>
	</g>
	<g>
		<path class="st16" d="M97,117.8c-0.4-0.7-0.8-1.4-1.1-2c-0.3-0.5-0.5-0.9-0.9-1.3c-0.4-0.3-0.9-0.5-1.4-0.4"/>
	</g>
	<g>
		<path class="st16" d="M91.4,114.5c0.3-0.3,0.8-0.2,1.2,0.1c0.3,0.2,0.5,0.6,0.7,1c0.3,0.5,0.6,1.1,0.9,1.6"/>
	</g>
	<g>
		<path class="st16" d="M92.7,117.5c-0.6-0.2-0.8-0.9-1-1.5c-0.4-1-1.2-1.8-2.2-2.2"/>
	</g>
	<g>
		<path class="st16" d="M90.6,116.7c-0.4-0.5-0.7-1.1-1.1-1.6c-0.2-0.3-0.4-0.6-0.7-0.8s-0.7-0.2-1,0"/>
	</g>
	<g>
		<path class="st16" d="M88.9,116.5c-0.7-0.9-1.7-1.6-2.8-2"/>
	</g>
	<g>
		<path class="st16" d="M86.8,116c-0.5-0.3-1-0.6-1.4-1.1"/>
	</g>
	<g>
		<path class="st16" d="M143.4,121.4c0.2,0,0.4-0.1,0.7-0.1"/>
	</g>
	<g>
		<path class="st16" d="M122.1,120.7c0.2,0,0.4,0.2,0.7,0.2c0.2,0,0.5-0.1,0.7-0.2c0.7-0.5,1.3-1,1.7-1.7c0.2-0.3,0.4-0.7,0.7-1
			c0.3-0.3,0.7-0.5,1.1-0.5"/>
	</g>
	<g>
		<path class="st16" d="M125.5,120.3c0.5-0.3,0.8-0.9,1.1-1.4c0.3-0.5,0.6-1.1,1.1-1.5s1.1-0.6,1.7-0.3"/>
	</g>
	<g>
		<path class="st16" d="M127.9,120.3c-0.1-0.2,0.2-0.4,0.5-0.5c0.6-0.2,1-0.8,1.4-1.3c0.7-0.9,1.4-1.9,2.6-2.1"/>
	</g>
	<g>
		<path class="st16" d="M130.3,119.7c0.8-0.2,1.5-0.7,2-1.3c0.3-0.4,0.5-0.9,0.9-1.3c0.4-0.4,0.9-0.7,1.4-0.5"/>
	</g>
	<g>
		<path class="st16" d="M133.2,119.5c0.9-0.2,1.7-0.8,2.1-1.6c0.2-0.3,0.4-0.7,0.7-0.9c0.4-0.3,1-0.2,1.4,0"/>
	</g>
	<g>
		<path class="st16" d="M135.6,119.6c0.6-0.2,1.1-0.5,1.5-1c0.2-0.3,0.4-0.6,0.6-0.9c0.6-0.6,1.4-1,2.3-0.8"/>
	</g>
	<g>
		<path class="st16" d="M137.8,119.8c0.7,0.1,1.1-0.6,1.6-1.1c0.6-0.5,1.3-0.7,2.1-0.5"/>
	</g>
	<g>
		<path class="st16" d="M139.4,120c0.7,0.1,1.5,0.2,2-0.2c0.2-0.2,0.4-0.4,0.6-0.5c0.4-0.3,1-0.4,1.5-0.3"/>
	</g>
	<g>
		<path class="st16" d="M141.7,120.8c0,0.1,0.2,0.1,0.3,0.1c0.9-0.3,1.6-1.4,2.5-1.2"/>
	</g>
	<g>
		<path class="st16" d="M142.7,121.4c0.4-0.3,1-0.5,1.5-0.6"/>
	</g>
	<g class="st17">
		<g>
			<path class="st18" d="M80.8,117.1c3.9-0.8,8.3,0.3,12.2,0.7c3.7,0.4,9.5,0.3,11.4,4.2c0.1,0.2,3.3-2.4,2.8-3.5
				c-1.7-3.5-6.6-3.6-10-4c-4.4-0.5-9.6-1.8-14-0.9C82.1,113.7,80.5,117.2,80.8,117.1L80.8,117.1z"/>
		</g>
	</g>
	<g class="st17">
		<g>
			<path class="st18" d="M145.5,119.9c-3.8-2.8-8.7-3.9-13.4-3.9c-3.1,0.1-6.6,0-8.8,2.4c-0.1,0.1-1.9,2.4-1.2,2.7
				c0.2,0.1,0.5,0.2,0.7,0.3c1.2,0.4,3.4-3.3,2.8-3.5c-0.2-0.1-0.5-0.2-0.7-0.3c-0.4,0.9-0.8,1.8-1.2,2.7c0.2-0.2,0.3-0.4,0.5-0.5
				c-0.4,0.3-0.9,0.6-1.3,0.9c6.5-1.9,14.5-1.2,20,2.8C143.5,124.1,146.3,120.5,145.5,119.9L145.5,119.9z"/>
		</g>
	</g>
	<path class="st10" d="M92.7,165.1c-0.1,0.9,2.6,1,2.6,1l0.7-1C96,165.1,93.2,163.9,92.7,165.1z"/>
	<path class="st10" d="M125.2,167.4c-0.1,0.9,0.1,1.2-1,1.2c-1.1,0-1.1,0-1.1,0l0.7-1.3C123.7,167.3,125.2,166.8,125.2,167.4z"/>
	<path class="st9" d="M129.6,128.3c0,0,0.4,0.2,0.4,0.5C129.9,128.8,129.3,128.9,129.6,128.3z"/>
	<path class="st9" d="M92.9,125.4c0,0,0.4,0.2,0.4,0.5C93.3,125.9,92.7,126.1,92.9,125.4z"/>
	<g class="st19">
		<path class="st20" d="M76.7,197.4c-0.3,2.1-0.7,4.3-1.1,6.5C76.2,202.7,76.5,200.3,76.7,197.4z"/>
		<path class="st20" d="M108,75.1c-12.4,2.7-17.2,16-18.6,19.7c0,0-8.1,17-10.3,19.6c-2.1,2.6-1.8,3.3-4,8.9
			c-5.8,8.4-5.1,17.7-4,23.4c1.2,5.8,6.8,17.3,7.9,20.4c1,2.7-0.1,15.7-2.4,30.2c0.4-6.9-0.1-16.3-0.1-16.3s0,1.7-2,8.4
			c-2,6.8-13.8,0.8-13.8,0.8s1.2-2.5,1.5-5.6c0.3-3.1-1.7-21.4-3.8-29.5c-0.5-2.1-1.2-3.8-2-5.4c0,0,0,0,0,0
			c-5.9-12-3.6-32.2-1-41.3c2.6-9.1,12-17.2,17.2-26.1c5.2-8.8,13.3-17.5,25.7-23.3c11.9-3.5,16.9,4.8,17.4,6.3
			c0.5,1.5,0.8,9.6,0.8,9.6L108,75.1z"/>
		<path class="st20" d="M90.6,69.2"/>
	</g>
	<path class="st21" d="M145.7,90.7"/>
	<path class="st21" d="M149.4,102.5"/>
	<path class="st21" d="M139.2,72.4"/>
	<path class="st22" d="M130.4,82.2c5.5,4.2,10.7,9.5,12.9,14.2c4.2,9.2,3.9,29,4,31c0.1,2,1,11.4,0.4,16c-0.6,4.6,0,10.2,4.5,15
		c4.5,4.8-2.4,13.9-6.7,20.1c-4.2,6.2-9.5,13.5-1.2,30.9c2.2,4.5,4.5,5.4,4.5,5.4s-2.2-2.2-3.3-4.4c0,0,2.7,2.8,4.9,2.6
		c2.2-0.2,1.5-1.6,1.5-1.6s-0.6,2.5-4-0.6s-6.8-13.6-5.4-19.3c1.4-5.8,2.3-6.5,5.4-9.8c3-3.3,13.3-10.3,13.3-20
		c0-9.7-4.4-16.8-5.4-18.9c-1-2.1-3.1-8.8-1.4-12.3c1.7-3.6,8.3-16.3,1.7-35.1c-5.4-13.8-7.8-17.2-8.2-22.8c-0.1-1.9-2-5-4.7-8.3
		c-14.3-6.3-25.9,1.4-25.9,1.4s1.9,7.7,1.4,9.9L130.4,82.2z"/>
	<path class="st15" d="M121.2,66.4c-0.1,6.5,10.9,7.2,16.3,12.4c5.4,5.3,9.7,12.2,10.5,19.4c0.8,7.2,2.5,13,5.1,15.6
		c-3.8-11.3-2.3-29.4-11.4-36.3c-9.1-6.8-11.9-13.5-16.2-12.3C121.2,66.4,121.2,66.4,121.2,66.4z"/>
	<path class="st15" d="M88.9,76.4c6.1-8.2,13.5-11,14.2-12.5c0.6-1.5-4.6-0.4-2.9-2.1s10.9-1.7,14.1,1.1c3.2,2.8,2.3,12.1,2.3,12.1
		s-3.8-10.3-13.5-5.9c-9.6,4.5-13.8,9.5-13.8,9.5S87.2,78.5,88.9,76.4z"/>
</g>
</svg>
