<svg id="Layer_1" data-name="Layer 1" xmlns="http://www.w3.org/2000/svg" viewBox="0 0 196 266.67"><defs><style>.cls-1{fill:#f8e4e3;}.cls-2{fill:#be1e2d;}.cls-3{fill:#ebc0a8;}.cls-4{fill:#d0af9b;}.cls-5{fill:#efc7b0;}.cls-6{fill:#d51c29;}.cls-7{fill:#6b3720;}.cls-8{fill:#f2cfb7;}.cls-9{fill:#eabba4;}.cls-10{fill:#381c15;}.cls-11{fill:#f4d4c3;}.cls-12{fill:#cea28b;}.cls-13{fill:#ebf4f0;}.cls-14{fill:#310d00;}.cls-15{fill:#1d1611;}.cls-16{fill:#d39c82;}.cls-17{fill:#b39b97;}.cls-18{fill:#241c18;}</style></defs><title>badbitchcards</title><rect class="cls-1" x="8.63" y="8.48" width="178.58" height="249.45" rx="8.5" ry="8.5"/><path class="cls-2" d="M31.45,31H23.53l-1.89,5H19l7.11-17.87H29L36.06,36H33.39Zm-7-2.29h6.15l-3.1-8Z"/><path class="cls-2" d="M21.71,42.91c2.57,0,3.86,1.22,5.14,3.64,1.28-2.42,2.57-3.63,5.14-3.64a5,5,0,0,1,5.18,4.89c0,4.9-5.15,9.8-10.31,14.71-5.16-4.9-10.32-9.81-10.31-14.71A5,5,0,0,1,21.71,42.91Z"/><path class="cls-2" d="M163.87,236.81h7.91l1.89-5h2.65l-7.11,17.87h-2.85l-7.11-17.87h2.67Zm7,2.29h-6.15l3.1,8Z"/><path class="cls-2" d="M173.61,224.89c-2.57,0-3.86-1.22-5.14-3.64-1.28,2.42-2.57,3.63-5.14,3.64a5,5,0,0,1-5.18-4.89c0-4.9,5.15-9.8,10.31-14.71,5.16,4.9,10.32,9.81,10.31,14.71A5,5,0,0,1,173.61,224.89Z"/><path class="cls-3" d="M83.72,149.7s-.64,18.91-2.15,22.14,7,25.75,21.48,25.75,21.05-23.95,21.05-23.95S118,153.82,121,149.7C121,149.7,96.48,136.94,83.72,149.7Z"/><path class="cls-4" d="M99.13,156.8c0,3.36-3.1,6.43-10,6.43s-7.71-1.82-7.71-1.82,2.29-9.66,0-11.71Z"/><path class="cls-4" d="M108.49,153s9.45,2.89,11.74,2.7c-.41-4.48-1.4-13.25-1.4-13.25S110,145,108.49,153Z"/><path class="cls-5" d="M95.85,157.2c-6.25,0-9.29-4.29-14.11-7.5s-11.61-11.08-11.61-20.9c-1.07-10.72-3-20.54-3-20.54S77.34,80.69,98.43,80.69,126.64,98,126.64,107s-2.08,21.65-2.91,25.6C123.72,132.56,115.86,156,95.85,157.2Z"/><path class="cls-6" d="M96.38,141.33c8.07,0,10.17-2.91,10.17-5.17,0,0-5.25-3.87-6.54-3.87s-2.26.81-3.14.81h0c-.88,0-1.85-.81-3.14-.81s-6.54,3.87-6.54,3.87c0,2.26,2.1,5.17,10.17,5.17Z"/><path class="cls-7" d="M99.25,124.38s.47-1.18,1.51-1.18.91,1.18.91,1.18"/><path class="cls-7" d="M92.11,124.38s-.52-1.18.79-1.18a1.28,1.28,0,0,1,1.38,1.18"/><path class="cls-8" d="M96.05,132.95l-2.38-2s.83-4.72,3.19-4.72,3.19,4.72,3.19,4.72l-2.38,2"/><path class="cls-9" d="M93.14,117.67a7.3,7.3,0,0,0,2.49-2.82V100.48l-1.95-.3Z"/><path class="cls-8" d="M97,141.33c-4.58,0-8.19,3.73-7,4.9s3.68-1.6,7-1.6H97c3.32,0,5.83,2.76,7,1.6s-2.46-4.9-7-4.9Z"/><path class="cls-10" d="M80,107.46a20.8,20.8,0,0,0,7-1.83L74.87,104.2A6.57,6.57,0,0,0,80,107.46Z"/><path class="cls-10" d="M113.68,107.12c2.17,0,6.55-3,6.55-3l-12.56,1.68A14.87,14.87,0,0,0,113.68,107.12Z"/><path class="cls-11" d="M89,104.63c0,1-2,1-2,1l-1.09-.83,1.09-.69S88.62,103.95,89,104.63Z"/><path class="cls-12" d="M105.24,105.39s.83-5.2,7.16-5.2,7.82,3.92,7.82,3.92l-1.4.12Z"/><path class="cls-12" d="M88.24,104.17s-1.42-4-6.74-4-6.63,4-6.63,4l.61.43Z"/><path class="cls-10" d="M120.22,104.11S114.09,97,107.13,104Z"/><path class="cls-10" d="M74.87,104.2s4.71-7.53,12.16-.09C74.62,104.62,74.87,104.2,74.87,104.2Z"/><path class="cls-11" d="M105.24,105.39c.33,1,2.42.39,2.42.39l.82-1.28-1.35-.52S105.24,104.57,105.24,105.39Z"/><path class="cls-13" d="M107.13,104a2.48,2.48,0,0,1,.53,1.8,21.89,21.89,0,0,1,4.09.82c2.62,0,4.93-.22,7.07-2.37a8.78,8.78,0,0,0-6.5-2.62C108,101.61,107.13,104,107.13,104Z"/><path class="cls-13" d="M87,104.11s-.53,1,0,1.52a13.24,13.24,0,0,1-3.59,1.21c-3.48.21-6.09-.34-8-2.22C77.37,101.61,82.78,99.87,87,104.11Z"/><path class="cls-14" d="M81.25,106.86a2.73,2.73,0,0,0,2.89-2.63c0-.87.69-2.65-2.89-2.65S78.3,106.36,81.25,106.86Z"/><path class="cls-14" d="M112.32,101.61a2.79,2.79,0,0,1,3,2.73c0,1.4-1.55,2.07-3,2.07a2.5,2.5,0,0,1-2.5-2.3A2.3,2.3,0,0,1,112.32,101.61Z"/><rect class="cls-15" x="111.69" y="103.48" width="1.42" height="1.42" rx="0.62" ry="0.62"/><rect class="cls-15" x="80.73" y="103.26" width="1.83" height="1.83" rx="0.79" ry="0.79"/><path class="cls-16" d="M102.48,124.49a2,2,0,0,0,2.28-1.19,5.48,5.48,0,0,0-.28-3c0-.15-.54-.12-.48.07a8.13,8.13,0,0,1,.34,1.75,2.8,2.8,0,0,1-.12,1.3,1.48,1.48,0,0,1-1.48.87c-.18,0-.57.13-.25.22Z"/><path class="cls-16" d="M89.49,121.19a2.09,2.09,0,0,0-.21.73,2.46,2.46,0,0,0,.4,2.18,1.1,1.1,0,0,0,1.42.38c.17-.11-.3-.21-.43-.13s-.33-.14-.43-.25a2,2,0,0,1-.52-1.55,3,3,0,0,1,.26-1.3c.09-.15-.39-.21-.48-.07Z"/><path class="cls-9" d="M124.18,104.2s-5.4,39.37-11.2,45.17c6.64-5.45,10.75-16.81,10.75-16.81s3-17.2,2.91-25.6Z"/><path class="cls-9" d="M70.5,106.86l-2.64-.45-.77,1.85s2.9,22,3.32,24A27.68,27.68,0,0,0,81.74,149.7c-4.73-16.1-6.34-19.28-7.32-25.91s-2-16.66-2-16.66Z"/><path class="cls-13" d="M113.67,102.69a1.83,1.83,0,0,1,1,1.58S113.67,103.41,113.67,102.69Z"/><path class="cls-13" d="M80.66,102.13c-1.32.4-1.21,2.14-1.21,2.14A11.13,11.13,0,0,0,80.66,102.13Z"/><path class="cls-17" d="M85.93,136.27c0,.5,1.19.19,1.27.19s3.7.82,19.34,0c0,0,.92.14.94-.2a1.24,1.24,0,0,0-1.07-.23c-.67.14-19.13.06-19.13.06S85.93,135.92,85.93,136.27Z"/><path class="cls-15" d="M93.15,43s-13.33-3.36-26.06,13.9-13.17,56.27-13.17,74.66S53,201,51.45,212.47s0,28.7,0,28.7l28.7,6.26s7.4-29.81,7.4-39.66c0-6.37-1.56-38.54-5.81-58.06-3-1.42-8.88-7.29-11.32-17.41-.85-5.72-3.1-22.24-3.32-24,3.28-3.28,4.76-7.44,7.9-8.34,4.48.22,12.55,0,15.47,0s6.3.9,8,.9,5-2.91,7.05-2.91,11.45,4,16.14,4a31.7,31.7,0,0,1,5,5s-1,16.84-2.91,25.6a66.5,66.5,0,0,1-4.9,9.86c.82,7.4,1.9,24.24,4.81,27.3-5.41,11.79-5.73,31.86-5.73,31.86s4.84,42.05-12.65,42.05c0,0,32.51,1.79,37.66-4.93,2.69-12.78,7.85-22.72,7.85-42.6,0-18.92-1.79-22.2-1.79-34.08s-6-69.18-11-81.33C128.48,59,118.27,36.46,93.15,43Z"/><path class="cls-18" d="M94.38,47.51S82.14,52,75.47,62.29H71S84.56,44.95,93.14,44.95C95.62,45.54,94.38,47.51,94.38,47.51Z"/><path class="cls-18" d="M90.49,77.07l10.28.89,14.95-2,11.43,1.08s3.94,5.52,2,14.38c-3.1,0-9.85-2.17-9.85-2.17H98.43l-7.94,2.17A23.47,23.47,0,0,1,90.49,77.07Z"/><path class="cls-18" d="M73.74,67.81S67,86.92,69.2,98.15l-2.36,5.32-2.76-3.94S69.2,71.35,71,67.81C71,67.81,72.95,64.85,73.74,67.81Z"/><path class="cls-18" d="M60.53,131.06s11.18,42.6,11.18,50.59.58,54.85,2,57.51c-3.09,0-4.83-57.24-4.83-57.24Z"/><path class="cls-18" d="M131.62,120.94s-8.79,45.26-6.66,53.78c4.69-18.37,9.05-53.78,9.05-53.78Z"/><path class="cls-18" d="M120.71,58.85s15.24,20.77,15.24,37.34C130.61,72.19,122.42,63.81,120.71,58.85Z"/></svg>