<svg id="Layer_1" data-name="Layer 1" xmlns="http://www.w3.org/2000/svg" viewBox="0 0 196 266.67"><defs><style>.cls-1{fill:#f8e4e3;}.cls-2{fill:#231f20;}.cls-3{fill:#010101;}.cls-4{fill:#f0ccae;}.cls-5{fill:#60434c;opacity:0.5;}.cls-6{fill:#fedcc1;}.cls-20,.cls-21,.cls-7{fill:#f4d4c3;}.cls-8{fill:#523d33;}.cls-9{fill:#3c3738;}.cls-10{fill:#6b3720;}.cls-11{fill:#ebf4f0;}.cls-12{fill:#a2b9d1;}.cls-13{fill:#1d1611;}.cls-14{fill:#e6c4aa;}.cls-15{fill:#cea28b;}.cls-16{fill:#443123;opacity:0.07;}.cls-17{fill:#e4b69d;}.cls-18{fill:#f58675;}.cls-19{fill:none;stroke:#cea28b;stroke-miterlimit:10;}.cls-20{opacity:0.4;}.cls-21{opacity:0.6;}.cls-22{fill:#9c7761;}.cls-23{fill:#d2bab7;}.cls-24{opacity:0.15;}.cls-25{fill:#9f856f;}.cls-26{fill:#ffecd1;}.cls-27{fill:#eec5a6;}.cls-27,.cls-29{opacity:0.3;}.cls-28{fill:#ffeed2;}</style></defs><title>badbitchcards</title><rect class="cls-1" x="8.63" y="8.48" width="178.58" height="249.45" rx="8.5" ry="8.5"/><path class="cls-2" d="M24.21,27.35,29,22.92H21.21V20.65H32.3v2.22l-4.66,4.31a4.85,4.85,0,0,1,5,5c0,2.75-2.12,5.24-5.92,5.24s-5.92-2.47-6.08-5.14l2.42-.55a3.53,3.53,0,0,0,3.63,3.53c2.24,0,3.45-1.39,3.45-3a3,3,0,0,0-3.33-3,4.4,4.4,0,0,0-1.44.25Z"/><path class="cls-3" d="M28.85,41.91c4.64,4.41,9.27,8.82,9.27,13.22a4.53,4.53,0,0,1-4.65,4.39c-2.12,0-3.27-.92-4.34-2.76,1.07,3.82,2.22,5.74,4.34,5.74H24.23c2.12,0,3.27-1.92,4.34-5.74-1.07,1.84-2.22,2.76-4.34,2.76a4.53,4.53,0,0,1-4.65-4.39C19.57,50.73,24.21,46.32,28.85,41.91Z"/><path class="cls-4" d="M109.14,215.49c25.7,0,37.22-32.66,37.22-32.66s-22.82-7.76-23.73-26.51-42.54-16.46-43.94-2.74-2.21,27.64-7.3,31.92C73.27,195.14,78.09,214.42,109.14,215.49Z"/><path class="cls-5" d="M102.2,170.67c5.86,0,18-3.11,17.95-3.6s-.39-4.57-.39-4.57L69.13,136.94S74.24,167.89,102.2,170.67Z"/><path class="cls-6" d="M79.7,66.84c11.14-5.7,41-1.25,46.5,29.14,0,0,1.43,4.42,1.95,5.32s3,6.75,3.12,9.22c.91,3.25,2.78,11.76,1.5,16.87-.29,2.16-.69,13.17-1.28,15.34s-1.77,13.17-11.6,19.17c-8.06,2.16-11.45,2.85-13.44,3.54s-10.84.49-15.27-2.85a50.51,50.51,0,0,1-14.65-12c-4.72-5.7-5.8-12.29-7.27-14.25,0,0-1.47,2.26-3.15,2.26s-4.92-1.67-6.49-3.74C61.5,132.41,43.54,55,79.7,66.84Z"/><path class="cls-7" d="M91.66,111.92c-.07,1.08-2.63.93-2.63.93l-.36-.93.36-1S91,111.06,91.66,111.92Z"/><path class="cls-7" d="M107.53,108.14c.68.41,3-.82,3-.82l.27-.89-2-.07S107,107.18,107.53,108.14Z"/><path class="cls-8" d="M121.24,104.25s-6.14,5.07-10.7,3.07C110.53,107.32,117.32,103.06,121.24,104.25Z"/><path class="cls-9" d="M121.24,104.25s-1.88-2.62-6.41-2.62c-1.66-.1-5.07,2-6,4.74C118.8,104,121.24,104.25,121.24,104.25Z"/><path class="cls-9" d="M77.28,113.14s2-4.54,6.15-4.54,5.6,2.35,5.6,2.35Z"/><path class="cls-10" d="M105.65,132.49c-.18-1.32-7.31-2.29-6.87,0"/><path class="cls-10" d="M109.17,131.8c1.59-2.22,2.73-3.54,3.52-3.28s.35.62.35.62"/><path class="cls-11" d="M108.83,106.36c2-2,4.36-7.09,12.41-2.11-5.93,3.61-6.89,3.61-10.7,3.07Z"/><path class="cls-8" d="M77.28,113.14s5.79,4.3,11.75-.29C89,112.85,78.7,112.73,77.28,113.14Z"/><path class="cls-11" d="M81.37,109.63c4.16-1.39,6.42.66,7.66,1.31s0,1.9,0,1.9a11.14,11.14,0,0,1-11.75.29S79.84,110,81.37,109.63Z"/><path class="cls-12" d="M81.37,109.63a3.65,3.65,0,0,0-1.18.63,3.64,3.64,0,0,0,2.09,4.38l.77,0a10.8,10.8,0,0,0,1.55-.12,3.43,3.43,0,0,0,1.47-3.24,6.34,6.34,0,0,0-.57-2A7.75,7.75,0,0,0,81.37,109.63Z"/><path class="cls-12" d="M115.28,107.29c1.51-.6,2.31-2.11,2.07-3s-.82-3-3.79-1.88-2.07,2.72-1.59,3.5S113.35,108.06,115.28,107.29Z"/><circle class="cls-13" cx="83.09" cy="111.71" r="0.96"/><circle class="cls-13" cx="114.43" cy="104.34" r="0.96"/><path class="cls-11" d="M84,110.39c-.34-.6-1.57-.1-1.27,1.08C83.57,111.9,84.38,111,84,110.39Z"/><path class="cls-11" d="M114.43,104.34a.94.94,0,0,0,1-1s-1.25-.49-1.59.24S114.43,104.34,114.43,104.34Z"/><path class="cls-14" d="M98.19,115.83s-1.89-10.62-6.53-14.21c0,0,5.1,3.17,6.08,5.89S98.19,115.83,98.19,115.83Z"/><path class="cls-15" d="M123.8,139.49s1.54-5.18-2.79-8.38-4.94-6.13-4.94-6.13,4,5.28,6.22,6.13A7.19,7.19,0,0,1,123.8,139.49Z"/><path class="cls-14" d="M84.73,148.23c2.17,1.84,3.73,3.56,3.94,3.65s.38.89,0,.89S81.17,148,78.8,142.5c0,0-.22-1.88,1.27-.59S82.75,146.55,84.73,148.23Z"/><path class="cls-16" d="M67.91,119c.85,5.89.72,9.58,3.27,14a130.35,130.35,0,0,1,6.72,14,52.26,52.26,0,0,1,2.17,8,41.32,41.32,0,0,1-4.69-5.3C74,147.72,70,139,69.13,136.94s-6.11-6.8-6.11-6.8Z"/><path class="cls-14" d="M128,140.34c1-3.32.76-6.11,2-7.85s2.37-3.26,2.37-3.26,1-5.89.28-9.5c-2.19,2.56-1.42,8.26-3,10.31s-1.9,11.73-3.23,13.54Z"/><path class="cls-14" d="M107.5,117.55C102.81,105,103,102.4,104.79,99.62a12.53,12.53,0,0,1,.77,5.23c-.91,2.44,2.55,11.7,3.4,14.18S107.5,117.55,107.5,117.55Z"/><path class="cls-17" d="M94.62,131.14a4,4,0,0,0,3.23,2.31c.3,0,.3-.24,0-.25a3.6,3.6,0,0,1-2.75-2.13c-.07-.15-.56-.11-.48.07Z"/><path class="cls-18" d="M116.92,141.46c1.82-1.82,3.38-3.25,3.45-3.25s-2.5-2.48-7.12-1.12-5,2.28-6.25,2.39-9.93,1.74-14.58,5.26C92.41,144.75,107.07,151.31,116.92,141.46Z"/><path class="cls-19" d="M88,145.73c-1-1.67-1.37-3.2,5.2-12.4"/><path class="cls-14" d="M109.17,149.17c4.55-1.86,5.8-3.44,5.8-3.44s-2.89.61-5.82,1.38a30.51,30.51,0,0,0-6.16,2.64S107.28,149.94,109.17,149.17Z"/><path class="cls-20" d="M78.76,121.42c8.51-3.37,10.51-5,11-4s2.51,7.08,1.57,10.44-7.39,3.66-8.67,3.36S78.44,125.6,78.76,121.42Z"/><path class="cls-20" d="M115.39,117.13c-.34,3.88,6.63,6.72,8,6.91s4.53-7.7,3-9.37S115.53,115.45,115.39,117.13Z"/><path class="cls-20" d="M95,95.92c-11.15,0-10.73-8.88-9.75-17.87s24.91,0,24.91,0S112.1,95.92,95,95.92Z"/><path class="cls-21" d="M105.65,125.87c4.45.18,2.67,4.28,2.67,4.28s-1.65,1.23-2.67,0S103.5,125.78,105.65,125.87Z"/><path class="cls-22" d="M89.72,100.76a5,5,0,0,0-2.61-2.69"/><path class="cls-22" d="M88.17,100.7c.12-.1.07-.28,0-.42a2.92,2.92,0,0,0-2.1-1.54"/><path class="cls-22" d="M86.46,101A3.54,3.54,0,0,0,84,99.18"/><path class="cls-22" d="M84.18,101.52a3.78,3.78,0,0,0-2.38-1.89"/><path class="cls-22" d="M84.94,101.21a4.68,4.68,0,0,0-2.15-2"/><path class="cls-22" d="M82.8,101.87a4.78,4.78,0,0,0-2.48-2c-.11,0-.29,0-.23.12"/><path class="cls-22" d="M81.66,102.32a4.44,4.44,0,0,0-2.48-2"/><path class="cls-22" d="M80.49,102.67a22.66,22.66,0,0,0-2.59-2"/><path class="cls-22" d="M79,102.43l-2.53-1"/><path class="cls-22" d="M76.43,102.73a4.68,4.68,0,0,0-2.12-.48"/><path class="cls-22" d="M74.83,103a3.52,3.52,0,0,0-2.17.09"/><path class="cls-22" d="M73,104a8.87,8.87,0,0,0-1.87,0"/><path class="cls-22" d="M71.84,105a3,3,0,0,0-1,.31"/><path class="cls-22" d="M77.13,102.45a8.75,8.75,0,0,0-1.6-.9"/><path class="cls-22" d="M87.29,100.6a5.38,5.38,0,0,0-1.2-1.66"/><path class="cls-22" d="M106.77,97.27c-.17,0-.22-.25-.22-.43a5.06,5.06,0,0,1,1.1-3.25"/><path class="cls-22" d="M107.5,96.69a4.52,4.52,0,0,1,1.64-2.61"/><path class="cls-22" d="M109,96.42a4.56,4.56,0,0,1,2.39-3.07"/><path class="cls-22" d="M110.84,95.69a5.15,5.15,0,0,1,3.57-3.63"/><path class="cls-22" d="M112.88,94.74a4.93,4.93,0,0,1,4-3.13"/><path class="cls-22" d="M115.53,93.44a4.11,4.11,0,0,1,4-1.86"/><path class="cls-22" d="M117.54,93.4a3.91,3.91,0,0,1,3.25-.71"/><path class="cls-22" d="M119.22,94a6.69,6.69,0,0,1,3.55-.26"/><path class="cls-22" d="M120.93,94.5a4.28,4.28,0,0,1,2.44-.29"/><path class="cls-22" d="M122.84,95.28a1.28,1.28,0,0,1,1.39-.06"/><path class="cls-22" d="M124,96a1.69,1.69,0,0,1,1,.09"/><path class="cls-23" d="M93.85,144.9c4.16-.85,8.87-.59,12.8-2.32,1.91-.84,3.74-1.75,5.71-2.48,2.2-.81,5-2.1,7.38-1.93.12,0,.24-.11.07-.12-3.64-.25-8,2-11.23,3.42a25.82,25.82,0,0,1-6.73,2.13c-2.68.43-5.41.63-8.07,1.17-.16,0-.05.14.07.12Z"/><g class="cls-24"><path class="cls-25" d="M89.48,98.93c-3.71-.35-7.21.82-10.78,1.72-2.83.71-5.35,1.35-7.27,3.64-.29.34-1.23,2.67-.75,2.26,1.88-1.62,16.51-9.07,17.13-4.78,0,0,1.57-1.69,1.45-2.51-.7-4.83-15.56,3-17.68,4.84l-.75,2.26c1.91-2.27,5.14-2.69,7.84-3.37,3.12-.78,6.17-1.71,9.43-1.4.71.07,1.47-2.66,1.36-2.67Z"/></g><g class="cls-24"><path class="cls-25" d="M123.73,94.61c-2.87-1.44-4.71-3-8.13-2.51s-6.2,2.4-9.44,3.19l1.84,2c-.5-2.35,8-3.13,9.59-3.42s2.35-.52,3.73.33a19.79,19.79,0,0,0,2.83,1.66c.69.29-.71-2-1.34-2.26-1.39-.58-2.53-2.07-4-2.42-1.77-.41-4.39.58-6.14,1s-7.24.69-6.66,3.43c.1.48,1.2,2.19,1.84,2,2.53-.62,4.8-1.84,7.27-2.64,4.08-1.33,6.36.05,10,1.85.63.31-.73-1.95-1.34-2.26Z"/></g><path class="cls-26" d="M79.57,67.44c-18,6.12-13.13,21.69-10,33.65s-6.09,30-9.86,34.24c7.07,6.49,9.51,1.15,9.51,1.15s3.87,18.29,4.57,20.58,4.22,5.81,8.27,12.5-.88,23.23-4.75,27.63-15,7.74-15,7.74c3.7,7.92,12,9.13,10.56,11.09S62,219,55.53,212.5s-9.5-9.33-10.91-14.61-1.94-11.44-15.14-15.14C14,171.14,28.6,158.29,37.4,160.4S45,153.71,43,149.14s-5.63-7.22-6.34-12.89,3.87-8.06,3-25,1.41-26.93,12-41.36a35.29,35.29,0,0,1,26-14.61S84.57,42,101.46,47.41C124,54.1,142.3,79.09,148.28,108c1.06,4.22,7.92,17.42,7.22,22.7s-3.52,12.14-1.41,16.16,10.21,11.3,11.09,14.29,1.76,7.22-2.11,13.38-3.52,14.43-3.7,19-9,15.84-14.43,17.78-10,5.1-2.82,15.14c-5.1-1.58-9-2.64-13-12.34s6-10.54,8.45-16.35a7.19,7.19,0,0,0-2.56-9c-9.08-6.88-13.64-21.23-15.1-26.76-.2-.57,1.46-.53,5.62-4.53s5.85-14.11,6.27-17.22.3-10.64,1.12-13.61-1-12.42-1-12.42A108,108,0,0,1,128.94,103c-2.89-3.79-2.55-8.13-4.25-12.1-1.61-3.77-31.53-16.52-37-20.67s-8.17-2.81-8.17-2.81"/><path class="cls-27" d="M76.61,68.69S75,57.42,75.7,55.51l2.18-.2,2.36-3.22s6.45,14.86,6,17C80.66,66.38,81.6,66.83,76.61,68.69Z"/><path class="cls-28" d="M65.24,97.78c-1,9.13-6,26-6.77,27.1C67.57,122.84,70.61,100.88,65.24,97.78Z"/><path class="cls-28" d="M57.55,158c3.48,1,17.52,4.8,7.37,16.69Z"/><path class="cls-28" d="M146.32,140.46c-5.64,10,0,13.6,7.43,17.57s3.33,14.48,3.33,14.48,6.92-10.26,0-16-7.18-20.23-7.18-20.23Z"/><path class="cls-28" d="M144.84,174.73c4.31,6.24-4.06,14.36-4.06,14.36V174.73Z"/><path class="cls-28" d="M40.35,184c-20.68-3.69-11.76-21.74,6.4-19.2C46.75,164.83,28.29,174.19,40.35,184Z"/><path class="cls-27" d="M86.46,55.46c15-8,30.3,3.41,34.54,12.1C121,67.55,107.53,47.39,86.46,55.46Z"/><path class="cls-27" d="M72.65,65.69c-16.89,9.3-12.73,23.7-7.73,34.39C64.92,100.08,52.82,78.16,72.65,65.69Z"/><g class="cls-29"><path class="cls-25" d="M74,59.62c-15.13,7.71-20.57,25.06-21.37,40.93-.48,9.46,1,19.06-.13,28.48a34.26,34.26,0,0,1-5,13.59c-1.88,3.21-3.33,6.42-3.35,10.2a18.36,18.36,0,0,0,11.1,16.91c.14.06.61-.07.35-.18a18.14,18.14,0,0,1-10.95-16.41c-.06-3.87,1.41-7.17,3.33-10.45a34.6,34.6,0,0,0,4.59-11.07c1.63-8.51.31-17.39.38-26,.07-8.94,1-18.06,4.41-26.4,3.35-8.15,9-15.38,17-19.43.25-.13-.21-.25-.35-.18Z"/></g><g class="cls-29"><path class="cls-25" d="M87.78,70.16c13.29,2.35,28.34,5.4,36.3,17.49,7.34,11.16,7.39,25.52,15.46,36.33,3.63,4.86,8.57,8.57,14.73,9.21.23,0,.47-.21.13-.24-14.69-1.53-19.69-18.08-23.32-29.92-2-6.47-4.23-13.07-8.66-18.31A35.37,35.37,0,0,0,108.21,75c-6.51-2.58-13.43-3.89-20.29-5.1-.23,0-.46.18-.13.24Z"/></g><g class="cls-29"><path class="cls-25" d="M153,177.05c3.78,4.53,2.42,10.91-.67,15.42-3.42,5-8.39,8.66-12,13.5-2.91,3.89-7.15,9.73-5.89,14.92.77,3.17,4,5.45,7.19,4.36.31-.11-.08-.28-.25-.22a5.52,5.52,0,0,1-4.39-.9,6.38,6.38,0,0,1-1.45-1.76,7.14,7.14,0,0,1-.76-4,18.26,18.26,0,0,1,2.77-7.4,60.41,60.41,0,0,1,10-12.47c5.32-5.35,12-14.23,5.91-21.56-.11-.13-.59-.06-.48.07Z"/></g><g class="cls-29"><path class="cls-25" d="M159.3,180.63c1.57-3.8-.48-7.56-3.43-10-3.69-3.08-8.11-5.12-11.74-8.33-7.8-6.91-13-17.93-8-28,.08-.17-.41-.22-.48-.07-4.11,8.45-1.18,18.1,4.75,24.87a45.26,45.26,0,0,0,10.08,8.31c4.45,2.8,11,6.94,8.38,13.19-.07.18.42.22.48.07Z"/></g><g class="cls-29"><path class="cls-25" d="M61.62,137.22C65.54,156.51,54,173.81,50,192.05c-1.65,7.68-2.61,17.54,3.89,23.37a10.15,10.15,0,0,0,7.25,2.8c2.92-.21,5.35-2.35,5-5.41,0-.18-.52-.16-.5,0,.5,4-3.59,5.82-7.17,4.76a11.11,11.11,0,0,1-5.6-3.87,17.57,17.57,0,0,1-3.49-9.87c-.54-7.83,1.93-15.83,4.43-23.15,4.78-14,11.37-28.35,8.3-43.47,0-.18-.53-.15-.5,0Z"/></g><g class="cls-29"><path class="cls-25" d="M66.3,139.12c1.14,11.21,9.91,19.35,13.29,29.76,2,6.25,1.86,13.53-2.27,18.91-4.51,5.87-13.33,7.59-18.69,1.8-.11-.12-.59,0-.43.13a12.27,12.27,0,0,0,13.19,3c5.94-2.19,9.45-8.29,9.92-14.38,1.15-14.94-13.06-24.93-14.52-39.22,0-.18-.52-.17-.5,0Z"/></g><g class="cls-29"><path class="cls-25" d="M36.67,134.91c1.55,7.34,7.29,13.31,8.18,20.76.43,3.62-.85,7.93-4.37,9.6-2.94,1.4-6.36.62-9.48,1.08-5.1.76-6.72,5.73-4.72,10.2A11.17,11.17,0,0,0,37.76,183c.33,0,.1-.27-.13-.24-6.48.83-14.52-6.49-11-13.28,2.6-5,9.89-1.95,14.21-4,4.57-2.2,5.23-8,4-12.33-1.82-6.39-6.26-11.62-7.65-18.21,0-.18-.53-.15-.5,0Z"/></g><path class="cls-2" d="M172.06,242.45l-4.81,4.44h7.81v2.27H164v-2.22l4.66-4.31a4.85,4.85,0,0,1-5-5c0-2.75,2.12-5.24,5.92-5.24s5.92,2.47,6.08,5.14l-2.42.55a3.53,3.53,0,0,0-3.63-3.53c-2.24,0-3.45,1.39-3.45,3a3,3,0,0,0,3.33,3,4.38,4.38,0,0,0,1.44-.25Z"/><path class="cls-3" d="M167.42,227.89c-4.64-4.41-9.27-8.82-9.27-13.22a4.53,4.53,0,0,1,4.65-4.39c2.12,0,3.27.92,4.34,2.76-1.07-3.82-2.22-5.74-4.34-5.74H172c-2.12,0-3.27,1.92-4.34,5.74,1.07-1.84,2.22-2.76,4.34-2.76a4.53,4.53,0,0,1,4.65,4.39C176.7,219.07,172.06,223.48,167.42,227.89Z"/></svg>