<svg id="Layer_1" data-name="Layer 1" xmlns="http://www.w3.org/2000/svg" viewBox="0 0 196 266.67"><defs><style>.cls-1{fill:#f8e4e3;}.cls-2{fill:#be1e2d;}.cls-3{fill:#e9c9a0;}.cls-4{fill:#ffe5c7;}.cls-5{fill:#ffecd1;}.cls-6{fill:#f4ceae;}.cls-7{fill:#fed7b8;}.cls-8{fill:#fabeac;}.cls-9{fill:#d39c82;}.cls-10{fill:#dcb09b;}.cls-11{fill:#6b3720;}.cls-12{fill:#dfb89f;}.cls-13{fill:#edc6ad;}.cls-14{fill:#ebf4f0;}.cls-15{fill:#758478;}.cls-16{fill:#1d1611;}.cls-17{fill:#dc7e7b;}.cls-18{fill:#a16d63;}</style></defs><title>badbitchcards</title><rect class="cls-1" x="8.63" y="8.48" width="178.58" height="249.45" rx="8.5" ry="8.5"/><path class="cls-2" d="M30.79,22c-1.51,1.21-6.13,5.32-6.91,14H21.34c.73-9.5,6.73-14.07,6.73-14.07h-9.2V19.65H30.79Z"/><path class="cls-2" d="M21.71,42.91c2.57,0,3.86,1.22,5.14,3.64,1.28-2.42,2.57-3.63,5.14-3.64a5,5,0,0,1,5.18,4.89c0,4.9-5.15,9.8-10.31,14.71-5.16-4.9-10.32-9.81-10.31-14.71A5,5,0,0,1,21.71,42.91Z"/><path class="cls-2" d="M173.61,224.89c-2.57,0-3.86-1.22-5.14-3.64-1.28,2.42-2.57,3.63-5.14,3.64a5,5,0,0,1-5.18-4.89c0-4.9,5.15-9.8,10.31-14.71,5.16,4.9,10.32,9.81,10.31,14.71A5,5,0,0,1,173.61,224.89Z"/><path class="cls-2" d="M164.52,244.6c1.51-1.21,6.13-5.32,6.91-14H174c-.73,9.5-6.73,14.07-6.73,14.07h9.2V247H164.52Z"/><path class="cls-3" d="M86.55,48.78c29-8.25,50.88,12.37,61.6,42.88s14.36,59.4-7,86.8c-13.57,7.61-14,0-14,0s-38.83-5.26-47,4.91S55.8,200.5,49.61,200.5,20.75,171.41,31.88,142C46.27,63.62,50.1,52.9,86.55,48.78Z"/><path class="cls-4" d="M132.55,85.67s20.57,14.92,5.4,72"/><path class="cls-3" d="M44.78,92.58c-5.62,25.87-4.87,58.53,13.5,71.45,0,0,8.14,6.63,17.6,8"/><path class="cls-4" d="M58.28,178.44c6.75,8.25,7.53,10.07,14.68,7.5"/><path class="cls-4" d="M58.28,168.91s5,6.49,13.39,5.39"/><path class="cls-5" d="M51.43,74.5A160.23,160.23,0,0,0,36.94,122c-2.05,14.62-2.8,30.42,1.53,44.72a42,42,0,0,0,11.8,19.33c.06.05.3,0,.22-.06-10.67-9.61-14.14-24.22-14.73-38.06a151.21,151.21,0,0,1,6-47.63,160.49,160.49,0,0,1,9.88-25.78c0-.08-.2-.11-.24,0Z"/><path class="cls-5" d="M78.07,52.65C58.53,59.27,49.34,79.27,44.76,97.91a170.73,170.73,0,0,0-4.83,35.36c-.35,11.31.12,23,3.69,33.8,3.25,9.86,9.28,18.86,18.21,24.38.07,0,.3,0,.18-.09-18.23-11.26-22-34-21.91-53.75a170.69,170.69,0,0,1,3.43-33.1C45.68,93.94,48.64,83.28,54,73.87S67.69,56.32,78.2,52.76c.15-.05,0-.14-.13-.11Z"/><path class="cls-5" d="M100.16,49.66c18.63,1,34,15.3,41,31.91,8.27,19.56,7.09,42.15,3.69,62.68-1.93,11.64-5.27,23.11-11.78,33.05,0,.07.19.1.24,0,5.87-9,9.19-19.2,11.18-29.66A167.58,167.58,0,0,0,147.57,114c-.3-20-6-40.42-21.7-53.75a43.69,43.69,0,0,0-25.71-10.7c-.15,0-.15.12,0,.13Z"/><path class="cls-5" d="M106.32,54.74c8.49,3.84,16.87,8.2,24,14.27A53.5,53.5,0,0,1,146,91.67c7,19.33,4.27,40.52.92,60.31-1.59,9.38-4,19.37-11.68,25.72-.08.07.15.11.22.06,6.44-5.35,9.23-13.36,10.89-21.32a207.61,207.61,0,0,0,4.11-31.38c1-19.42-2.83-40-17.47-53.93-7.6-7.22-17-12.18-26.49-16.47-.07,0-.3,0-.18.09Z"/><path class="cls-6" d="M113.62,236.57c26.73,0,38.7-34,38.7-34s-23.73-8.07-24.67-27.56S83.42,157.93,82,172.19s-2.3,28.74-7.59,33.19C76.32,215.41,81.33,235.45,113.62,236.57Z"/><path class="cls-7" d="M85.16,186.88s7.57,7.41,14.19,6.46c7.72,1.58,9-.63,9.77-.95s6.46.47,9.62-6.31a20.78,20.78,0,0,1,6-3.31c2.84-.79,3.63-7.25,4.89-9.3a72.26,72.26,0,0,0,8-10.09c.47-6,1.82-45.06,1.28-51.29S139,70.63,90.86,70.63s-51.27,32.75-35.36,57.62c.67,2,5.6,12.54,5.82,16.8s-1.57,9-.67,10.53a50.34,50.34,0,0,0,2.69,4.7c1.12,1.57,2.91,7.62,4.48,9.18s6,9.18,9.41,11.2S81.68,185.92,85.16,186.88Z"/><path class="cls-8" d="M75.38,128.2c2.32.05,8.34-2,8.34-2l-15.66-.78S69.45,128,75.38,128.2Z"/><path class="cls-8" d="M118.8,123.42c2.14-.4,6-3.92,6-3.92L111,122.91A29.35,29.35,0,0,0,118.8,123.42Z"/><path class="cls-9" d="M110.24,119.42c-.35,1.11-.76,2.83.73,3.28s1-1.88,1-1.88Z"/><path class="cls-9" d="M84.89,125c.06.91-1.22,1-1.22,1l-1.33-1,1.94-1.15Z"/><path class="cls-10" d="M114.34,114.77c4.76-2.32,9.57,1.05,11.25,2.94l-.76,1.58-14.82.94S110,116.87,114.34,114.77Z"/><path class="cls-10" d="M68,125.3l-1.51-1.15s5-4.9,9.25-5.72,11,7.27,7.92,6.13C82.8,124.23,68,125.3,68,125.3Z"/><path class="cls-11" d="M103,152s2-3.24,3.95-3.47a1.74,1.74,0,0,1,1.69,2.82"/><path class="cls-11" d="M95.36,153.48c-3.66-3.9-5.24-2.92-4.63-.85"/><path class="cls-12" d="M96,155.26a11.91,11.91,0,0,0,7.27-.83c.38-.16-.32-.36-.53-.27a10.5,10.5,0,0,1-6.36.78c-.26-.06-.85.22-.38.32Z"/><path class="cls-12" d="M93.73,155.93c-6.75.36-5.8-8.3-3.29-12,.15-.21-.58-.31-.72-.1-1.84,2.67-2.84,6.18-1.4,9.27a5.39,5.39,0,0,0,5.42,3.16c.44,0,.46-.4,0-.37Z"/><path class="cls-12" d="M109.66,151.46c4.52-2.24-.46-9.22-3.29-10.75-.21-.11-.9.07-.53.27,2.53,1.36,7.5,8.13,3.29,10.22-.37.18.32.37.53.27Z"/><path class="cls-13" d="M77.95,111.61s12.86.94,13.8,6.66S93,143.14,93,145s-1.59-3.2-1.59-3.2,1.41-19.53-1.76-23.55-13.69-4.49-13.69-4.49Z"/><path class="cls-13" d="M106,108.91c-7.55,1.47-7,20.71-.42,34.33-.34-4.7-6.22-19.18-4.07-25.51,1.74-8.14,5.34-7.35,5.34-7.35Z"/><path class="cls-14" d="M116.48,115.92a6.53,6.53,0,0,1,8.35,3.37s-3.22,3.14-6.44,3.7a24.42,24.42,0,0,1-7.42-.29l-1-2.46A16.94,16.94,0,0,1,116.48,115.92Z"/><path class="cls-14" d="M75,127.64a32.49,32.49,0,0,0,8.63-1.57v-1.52s-4.39-6-9.22-4.32A11.34,11.34,0,0,0,68,125.3S69.52,127.64,75,127.64Z"/><path class="cls-13" d="M66.2,145.44c6.81,4.92,7.85,6,7.85,7.15s0,8,.89,9.62-.15,1.93-.74,1.78-.89-10.2-2.81-11.84S65,149,65.61,147.21Z"/><path class="cls-13" d="M71,142.56c2.73,2.73,4.33,1.7,4.84,1.18s-4.06-2.48-4.84-3.66S69.32,140.88,71,142.56Z"/><path class="cls-13" d="M111.55,145.44a23.17,23.17,0,0,1,8.28,8c2.31,3.79,1.77,4.33,1.36,4.2s-4.21-8.45-7.33-9.13l-2.31-1.35Z"/><path class="cls-15" d="M75,127.64c3.82,0,4.8-2.1,4.64-3.49s-.49-4.22-3.8-4.22-4.7,2.74-4.05,4.62S72.12,127.64,75,127.64Z"/><path class="cls-14" d="M74.46,122c2.53-1.22,3.1.66,3.1.66l-3.56.94Z"/><circle class="cls-16" cx="75.75" cy="124.15" r="1.14"/><path class="cls-3" d="M86.55,108.91c-4.24.11-1.48-14.36-2.88-8.59s-1.49,8.25-3.55,11.59-14,2-17.72,0-1.65-10.77-6.18-22.72c-4.12,2.89-7.4,26.31-7.4,26.31-14-65.22,37.74-66.71,37.74-66.71,47.66-1.24,53.76,68.85,51.77,63s-.26-3.71-7.9-7.71-5.59-7-13.87-16.9c.15,4.54,3.56,14,5,17.73s-3.5,3.71-14.7,5.53-15.2-16.59-14.5-12.95l2,10.49S88.17,108.86,86.55,108.91Z"/><path class="cls-13" d="M113,137.61s1.85,1.23,6.09,1.23,5.27-1.23,5.27-1.23A52.67,52.67,0,0,1,113,137.61Z"/><path class="cls-13" d="M125.59,148.55a10.83,10.83,0,0,0,1.38,4.93c.31.9-.77,2.41-1.38,1.81s-3.52-4.24-3-7.47,3.44-5.31,5.1-5.1S125.59,146,125.59,148.55Z"/><path class="cls-15" d="M118.38,123a10.51,10.51,0,0,0,3.7-1.57c.19-1.22-.05-3-1.37-5.7h0l-.46-.11a7.56,7.56,0,0,0-3.78.31,14,14,0,0,0-3.81,2h0c-.25.62,1.1,3.54,1.93,5.22A17.31,17.31,0,0,0,118.38,123Z"/><path class="cls-14" d="M116.31,117.78c2.53-1.22,3.1.66,3.1.66l-3.56.94Z"/><circle class="cls-16" cx="117.35" cy="119.57" r="1.14"/><path class="cls-17" d="M85.65,170.65c1.71,1.22,5.76,5.76,15.05,5.76s14.68-4.55,17.1-10c0,0-12.45.09-13.75.93s-2.69,1.67-2.69,1.67-5.48-1.58-18.86,1.3C82.49,170.28,85,170.19,85.65,170.65Z"/><path class="cls-18" d="M117.22,166.39c-2.45,1-13.62,5.3-16.42,5.38-2.12.06-10.25-.45-14.88-.91l.37.3c2.65.37,6.66.67,12,.94,8,.42,17.28-4.67,19.1-5.72Z"/><path class="cls-4" d="M83.56,51.69c-16.05,6.35-34,38.08-34,38.08S66.39,53.56,83.56,51.69Z"/><path class="cls-4" d="M90.43,50.69s23.47-5.87,21.19,53.45C111.62,104.14,111,50.69,90.43,50.69Z"/><path class="cls-5" d="M88.55,57.61c-2.15-2.17-4.33,3.28-4.88,4.41a91.16,91.16,0,0,0-6.06,16,92.66,92.66,0,0,0-2.8,33.62c0,.09.26.08.25,0a92,92,0,0,1,5.37-41.55q1.24-3.3,2.73-6.5c.47-1,3.23-7.94,5.18-6,.06.06.3,0,.22-.06Z"/><path class="cls-5" d="M86.84,53.37c.15,0,.15-.12,0-.12s-.15.13,0,.13Z"/><path class="cls-5" d="M86.41,53a65.23,65.23,0,0,0-14.34,59.55c0,.09.27.07.25,0A65.17,65.17,0,0,1,86.62,53c.08-.09-.16-.12-.22-.06Z"/></svg>