<?xml version="1.0" encoding="utf-8"?>
<!-- Generator: Adobe Illustrator 19.1.0, SVG Export Plug-In . SVG Version: 6.00 Build 0)  -->
<svg version="1.1" id="Layer_1" xmlns="http://www.w3.org/2000/svg" xmlns:xlink="http://www.w3.org/1999/xlink" x="0px" y="0px"
	 viewBox="0 0 215 326.9" style="enable-background:new 0 0 215 326.9;" xml:space="preserve">
<style type="text/css">
	.st0{fill:#F1CAB1;}
	.st1{fill:#E5C1A9;}
	.st2{fill:#543727;}
	.st3{fill:#C49A85;}
	.st4{fill:#FDD7B7;}
	.st5{fill:#EBF4F0;}
	.st6{fill:#7D3708;}
	.st7{fill:#D39C82;}
	.st8{fill:#201010;}
	.st9{fill:#1D1510;}
	.st10{fill:#EB9D88;}
	.st11{fill:#F7E8D7;}
	.st12{fill:#6B3720;}
	.st13{fill:none;stroke:#E3B59D;stroke-width:0.5;stroke-miterlimit:10;}
	.st14{fill:#E3B59D;}
	.st15{fill:#CDA18B;}
	.st16{opacity:0.5;}
	.st17{clip-path:url(#SVGID_2_);fill:#CFAE9A;}
	.st18{opacity:0.15;}
	.st19{clip-path:url(#SVGID_4_);fill:#381C15;}
	.st20{clip-path:url(#SVGID_6_);fill:#381C15;}
	.st21{fill:#CFAE9A;}
	.st22{clip-path:url(#SVGID_8_);fill:#C49A85;}
	.st23{fill:#3B2314;}
	.st24{fill:#7C5E52;}
	.st25{fill:#D9B994;}
</style>
<path class="st0" d="M125.1,134.5c0,0-14.9,49.8,6,70.8c0,16.6-17.6,44.5-44.9,44.5c-27.2,0-36-32.4-36-32.4s17.1-21,5.8-62.3
	C56,155.1,101,110.4,125.1,134.5"/>
<path class="st1" d="M89.7,175.2c0,0,8.9,30.1,12.7,47c1,4.5,6.9,5.6,9.4,1.7c5.4-8.1,10.7-19.9,12.8-24.6c0.5-1.2,0.6-2.7,0.1-3.9
	c-1.7-4.4-5.4-15.7-4.1-26.4c0.2-1.6-0.4-3.3-1.6-4.4C111,157.9,89.4,171.1,89.7,175.2"/>
<path class="st2" d="M119.2,205.7c0,0-14.7,33.8-10.7,46.4c12.6,48.8-11.5,44.6-11.5,44.6c2.2,0.9,19.9-6,12.6-29.1
	c-7.3-23.1,0.1-45.7,2.3-67.5c0,0-6.1-39.7-31-36.1s-54.8-53.4-54.8-53.4s-4.3-4.7,3.3-43.5c7.5-38.9,89.9-82.7,110-3.2
	C159.3,143.4,119.4,203.3,119.2,205.7"/>
<path class="st3" d="M60.3,98.3c0-11.3-7.4-10.4-10.8-9.6c-3.4,0.8-9,3.5-11.9,6.1c-2.9,2.6-1.7,1-1.7,1s0.7,1.3,3.1,1.1
	C41.5,96.7,60.3,98.3,60.3,98.3"/>
<path class="st3" d="M109.4,99.6c-3.1-3.1-9-8.7-16.8-8.5c-7.8,0.2-7.7,7.2-7.7,7.2c1.4-1.1,3.4-2.3,6.7-3.3
	c8.6-1.5,13.6,3.8,15.2,5.9c1.2,0.2,1.9,0.4,2.1,0.6c0.9,1.1,4.3,0.9,4.3,0.9S111.7,101.8,109.4,99.6"/>
<path class="st0" d="M125.2,133.7c3.2,2.3,10.8,1,12.2-2c1.4-3,3.3-22.9,0-31.8c0,0-7.1-1.6-8.7,0.4L125.2,133.7z"/>
<path class="st4" d="M99.4,170.2c13.3-10.3,20.1-21.9,24.2-31.6c4.1-9.8,5.9-34.9,4.7-42.3c-0.9-1.3-4.2-10.5-6.4-19.2
	c0,0-3.8-41.4-45.2-41.4c-32,0-38.9,24.7-41.3,31.9c-2.4,7.2-4.6,18.5-7.2,27.6c-2.5,9.1-3.5,25,0,39.1
	c3.5,14.1,20.4,36.4,22.8,38.3c7.2,7.1,12.3,13.2,31.1,7C95.7,173.7,99.4,170.2,99.4,170.2"/>
<path class="st5" d="M82.7,100.3c0.2,1.2,2.9,0,2.9,0c2.3,0.6,10.9,3.5,21.7,1.4c0,0-5.1-8.5-15.7-6.7
	C86.1,96.6,84.2,98.9,82.7,100.3"/>
<path class="st6" d="M102.7,98.6c0-0.6-0.1-1.1-0.3-1.6c-2.2-1.3-5.1-2.4-8.7-2.2c-1,1-1.6,2.3-1.6,3.8c0,1.3,0.5,2.5,1.3,3.4
	c2.2,0.3,4.9,0.5,7.8,0.4C102.1,101.5,102.7,100.1,102.7,98.6"/>
<path class="st7" d="M82.7,100.3c0.2,1.2,2.9,0,2.9,0s-0.1-1.2-0.7-2C84,99,83.3,99.7,82.7,100.3"/>
<path class="st5" d="M39,96.9c3.8-3.6,9.5-5.7,13.3-5.1c3.8,0.6,6.5,3.8,8,6.5c0.7,1.3-0.2,1.8-1.3,1.3c-1.1-0.5-6.5,0.8-10.8,0
	C44,98.7,39,96.9,39,96.9"/>
<path class="st6" d="M56,95.8c0-1.2-0.5-2.4-1.3-3.2c-0.8-0.4-1.6-0.6-2.4-0.8c-1.1-0.2-2.4-0.1-3.8,0.2c-1.2,0.9-2,2.2-2,3.8
	c0,1.6,0.8,3,2,3.8c1.7,0.3,3.6,0.3,5.2,0.2C55.1,98.9,56,97.4,56,95.8"/>
<path class="st8" d="M53,95.7c0,1-0.8,1.8-1.8,1.8c-1,0-1.8-0.8-1.8-1.8c0-1,0.8-1.8,1.8-1.8C52.2,94,53,94.8,53,95.7"/>
<path class="st8" d="M99.1,98.6c0,1-0.8,1.8-1.8,1.8c-1,0-1.8-0.8-1.8-1.8c0-1,0.8-1.8,1.8-1.8C98.3,96.8,99.1,97.6,99.1,98.6"/>
<path class="st9" d="M82.7,86.7c0.5-1.3,1.4-2.4,2.6-3.1"/>
<path class="st9" d="M84.9,86.9c0.6-1.6,1.8-3,3.4-3.8"/>
<path class="st9" d="M88.6,86.6c0.5-1.5,1.8-2.8,3.3-3.4"/>
<path class="st9" d="M91.6,86.6c0.7-1.6,2.2-2.9,4-3.2"/>
<path class="st9" d="M94.4,86.8c0.9-1.8,2.8-3.1,4.8-3.3"/>
<path class="st9" d="M97.8,86.5c0.9-1.4,2.5-2.3,4.1-2.4"/>
<path class="st9" d="M101.1,86.8c0.8-1.1,2.1-1.9,3.4-2.1"/>
<path class="st9" d="M103.9,87.1c0.8-0.9,1.9-1.5,3.1-1.5"/>
<path class="st9" d="M55.4,80.6c1.7,0.2,3.1,1.8,3.1,3.5"/>
<path class="st9" d="M55.9,83.9c-0.3-1.6-1.6-3-3.1-3.4"/>
<path class="st9" d="M53.4,83.5c-1.2-1-2.4-2.1-3.7-3.1"/>
<path class="st9" d="M49.7,83.7c-0.3-1.8-1.9-3.2-3.7-3.4"/>
<path class="st9" d="M47.4,83.3c-1.4-1.1-2.8-2.1-4.4-3"/>
<path class="st9" d="M42.8,82.5c-1.2-1-2.7-1.7-4.3-1.9"/>
<path class="st9" d="M39.9,83.5c-0.7-1.2-2.3-1.7-3.5-1"/>
<path class="st9" d="M37.5,84.7c-1-0.7-2.3-0.7-3.4-0.2"/>
<path class="st9" d="M107.2,87.7c0.3-0.8,1.3-1.4,2.2-1.3"/>
<path class="st10" d="M65.5,155.3c8,0,14.6,1.2,23.2-6.9l6.9-6.6c0,0-3.6-5.2-17.3-5.2c-13.7,0-33.1,0.7-33.1,0.7s3.4,5.3,5.5,8.7
	C52.7,149.3,55.1,154.4,65.5,155.3"/>
<path class="st11" d="M51.9,139c1.5,2.5,3.5,11.4,17,11.4c13.5,0,20.2-3.8,24.5-8.4c0,0-1.9-2-5.1-2.5c-3.2-0.5-10.3,0.5-16.4,0.5
	S51.9,139,51.9,139"/>
<path class="st12" d="M71.9,128.1c0.8-1.3,2.8-3.6,7-2.6"/>
<path class="st12" d="M57,124.1c2.7-0.3,4.4-0.5,5.7,2.5"/>
<path class="st13" d="M64.2,128.1c0,0,2.6,1.3,4,1.3h2.2"/>
<path class="st14" d="M56.8,117c-1.7,1.4-3.4,4.9-1.7,7c0.1,0.1,0.6,0.1,0.5-0.1c-1.6-2,0-5.4,1.6-6.8C57.4,117,56.9,116.9,56.8,117
	"/>
<path class="st14" d="M82.5,117.1c1.1,1.5,1.4,3.4,1.3,5.2c-0.1,0.8-0.2,1.7-0.6,2.4c-0.5,1-1.2,1-2.1,1.4c0.3-0.1-0.2-0.2-0.4-0.2
	c-0.1,0-0.2,0.1-0.2,0.2c0,0,0,0.1,0,0.1c0.3,0.3,1.4,0,1.7-0.1c0.7-0.2,1.1-0.7,1.5-1.4c1.2-2.3,0.8-5.6-0.7-7.8
	C82.8,116.9,82.4,117,82.5,117.1"/>
<path class="st7" d="M60.3,98.3c-0.2-0.3-0.4-0.7-0.6-1c-0.3,0.5-0.5,1.2-0.6,2.3C60.2,100.1,61.1,99.6,60.3,98.3"/>
<path class="st15" d="M101.1,95.7c-4.8-2.2-9.3-1.7-13.9,1c1.2-0.6,2.6-1.2,4.4-1.8c10.6-1.8,15.7,6.7,15.7,6.7
	c0.8,0.3,1.5-0.2,1.5-0.2S106.7,98.3,101.1,95.7"/>
<path class="st15" d="M84.9,98.3L84.9,98.3z"/>
<path class="st15" d="M52.3,91.8c3.3,0.5,5.8,3,7.4,5.5c0,0-3-6.2-9.9-6.2c-6.9,0-12.2,5.7-12.2,5.7l1.5,0.1
	C42.8,93.3,48.5,91.2,52.3,91.8"/>
<g class="st16">
	<g>
		<defs>
			<rect id="SVGID_1_" x="78.9" y="89.6" width="5.3" height="9"/>
		</defs>
		<clipPath id="SVGID_2_">
			<use xlink:href="#SVGID_1_"  style="overflow:visible;"/>
		</clipPath>
		<path class="st17" d="M78.9,98.6c0-6.3,2.3-10.4,5.1-8.6c0.9,1.9-1.7,3.9-1.3,5.8C83.1,97.6,78.9,98.6,78.9,98.6"/>
	</g>
</g>
<g class="st18">
	<g>
		<defs>
			<rect id="SVGID_3_" x="80.4" y="82.7" width="32.4" height="7.7"/>
		</defs>
		<clipPath id="SVGID_4_">
			<use xlink:href="#SVGID_3_"  style="overflow:visible;"/>
		</clipPath>
		<path class="st19" d="M83.6,88.2c7.6-3.1,21.2-3.1,28.2,1.7c2.3,1.6,0.2-1.8-0.7-2.4c-8-5.6-21.7-6.1-30.6-2.5
			C80,85.1,82.4,88.7,83.6,88.2"/>
	</g>
</g>
<g class="st18">
	<g>
		<defs>
			<rect id="SVGID_5_" x="32.6" y="80.3" width="27.4" height="8.5"/>
		</defs>
		<clipPath id="SVGID_6_">
			<use xlink:href="#SVGID_5_"  style="overflow:visible;"/>
		</clipPath>
		<path class="st20" d="M58,82.8c-3-2.7-6.2-2.6-10.1-2.5c-6.5,0.2-10.4,0.8-15.3,5.2c-0.3,0.3,2.7,3.6,3.1,3.2
			c2.9-2.6,5.6-4.6,9.6-5c3.8-0.3,10.7-1.8,13.9,1C61.3,86.7,58.6,83.4,58,82.8"/>
	</g>
</g>
<path class="st21" d="M114.1,103.3c7.1,0.3,8.6,1.1,8.6,1.1S118.5,102.3,114.1,103.3"/>
<path class="st21" d="M101.9,104.4c2.2,1.1,4.1,2.4,5.1,3.6C107,108,104.9,104.8,101.9,104.4"/>
<path class="st21" d="M101.1,106.2c0,0,3.2,0.7,5.8,3.4C107,109.6,105,106.2,101.1,106.2"/>
<path class="st3" d="M109.4,134.9c-0.2,5.5-1.6,11.2-3.4,14.3C106,149.2,112,141.4,109.4,134.9"/>
<path class="st3" d="M45.2,130c-4.7,3.9-4.3,5.4-2.9,9C42.2,139,37.7,133.7,45.2,130"/>
<path class="st3" d="M85,119.5c5.9,11.2,12.9,13.2,14.3,15.4c1.4,2.2-1.2,7.1-1.2,7.1s3.4-4.5,2.5-7.1S90,128,85,119.5"/>
<g class="st16">
	<g>
		<defs>
			<rect id="SVGID_7_" x="61.6" y="85.3" width="3.9" height="31"/>
		</defs>
		<clipPath id="SVGID_8_">
			<use xlink:href="#SVGID_7_"  style="overflow:visible;"/>
		</clipPath>
		<path class="st22" d="M61.9,85.3c3.8,7,3.6,10.7,3.2,16.5c-0.4,5.7,0.9,10.6,0.2,14.5c-2.6,0.9-0.7-18.1-1.6-21.9
			C62.8,90.6,60.9,87.4,61.9,85.3"/>
	</g>
</g>
<path class="st5" d="M96.7,97.7c0,0,1.3-0.5,1.7,0.6C98.5,98.3,97,98.3,96.7,97.7"/>
<path class="st4" d="M50.2,95.7c0,0,0.6-0.6,1.7-0.6C51.9,95.1,50.4,93.9,50.2,95.7"/>
<path class="st1" d="M130.4,126.7c4.9,0.1,8.9-4,8.8-10.3c-0.1-6.3-2.3-9-3.3-6.7c-1,2.3,1.5,9.2-3.7,12
	C127,124.5,130.4,126.7,130.4,126.7"/>
<path class="st23" d="M124.5,251.9c-5.6,8.3-20.6,42.5-35.8,47.3c0,0,18.1-13.2,27.2-34.7c9.1-21.5-11-53.9-1.5-78.6
	c9.5-24.6,32.6-55.1,16.3-98.9c-16.3-43.8-40.4-49.6-40.4-49.6S13.5,15,30.6,141.2c-1-2.4-16.2-48-9-71.1c16-50.2,62-72.1,89.8-52.5
	c8.8,0,21.2-3.5,35,31.2c13.8,34.6,41.7,60.1,53.3,65.1c0,0-27.6-14.7-40.3-36.6c0,0,18.5,40.1,30.6,54.4
	c12.2,14.3,10.1,38.8,9.8,47.2c0,0,3.9-35.6-16.5-49.5c0,0-4.3,0.9,1.9,7.1c14.3,14.3-4.3,36.5,3.7,50.2
	c17.6,51.9-51,126.2-60.2,126.2C99.1,315.2,97.8,301,97.8,301S128.5,269.3,124.5,251.9"/>
<path class="st24" d="M107.4,30.9c37.5-24,45,60,45,60S141.8,9.8,107.4,30.9"/>
<path class="st24" d="M144.9,136.4c-15.8,43.7-21.6,101-5.7,132.3C139.2,268.8,111.1,224,144.9,136.4"/>
<path class="st24" d="M183.8,193.7c0.9,17.7-3.5,35.1-12.2,49C171.7,242.7,191.7,221.2,183.8,193.7"/>
<path class="st25" d="M102.9,22.6c-12.4-7.1-27.8-8-41.1-2.9c-14.6,5.6-23.2,18.3-31.5,30.8c-5.1,7.7-10.4,15.3-17.6,21.1
	c-0.1,0.1,0.2,0.1,0.2,0.1c11.2-9,17.5-22.1,26.1-33.4c4.5-6,9.7-11.5,16.3-15.3c6.7-3.9,14.4-6,22.2-6.3c8.8-0.4,17.6,1.7,25.2,6.1
	C102.7,22.7,103,22.7,102.9,22.6"/>
<path class="st25" d="M133,153.4c-5.2,9.3-10.6,18.8-12.7,29.4c-2.2,10.7-1,21.7,1.2,32.3c2.3,11,5.8,21.8,8.2,32.8
	c2.5,11.1,3.7,22.5,3.6,33.9c0,6.1-0.2,12.3-1.4,18.3c-1.3,6.5-6.4,14.8-14.4,11.9c-0.1,0-0.3,0.1-0.1,0.1c3.2,1.2,6.6,0.3,9.3-1.7
	c3.7-2.8,5.1-7.5,5.7-11.9c1.8-12,1.5-24.6-0.1-36.6c-3-23.6-14.3-46.5-13-70.6c0.8-13.9,7.1-25.9,13.8-37.8
	C133.3,153.4,133,153.4,133,153.4"/>
</svg>
