<svg id="Layer_1" data-name="Layer 1" xmlns="http://www.w3.org/2000/svg" viewBox="0 0 196 266.67"><defs><style>.cls-1{fill:#f8e4e3;}.cls-2{fill:#231f20;}.cls-3{fill:#010101;}.cls-4{fill:#5d463a;}.cls-5{fill:#483735;}.cls-6{fill:#dfbea5;}.cls-7{fill:#443123;opacity:0.07;}.cls-8{fill:#e6c4ab;}.cls-9{fill:#1d1611;}.cls-10{fill:#d0af9b;}.cls-11{fill:#6b3720;}.cls-12{fill:#cca688;}.cls-13{fill:#c29487;}.cls-14{fill:#f8e8d7;}.cls-15{fill:#b08874;}.cls-16{fill:#d7b79f;}.cls-17{fill:#ebf4f0;}.cls-18{fill:#5a3b34;}.cls-19{fill:#f5e0cd;}.cls-20{fill:#b19585;}.cls-21{fill:none;stroke:#cca688;stroke-miterlimit:10;}.cls-22{opacity:0.15;}.cls-23{fill:#381c15;}</style></defs><title>badbitchcards</title><rect class="cls-1" x="8.63" y="8.48" width="178.58" height="249.45" rx="8.5" ry="8.5"/><path class="cls-2" d="M35.79,23c-1.51,1.21-6.12,5.32-6.91,14H26.34c.73-9.5,6.73-14.07,6.73-14.07h-9.2V20.65H35.79Z"/><path class="cls-3" d="M28.85,41.91c4.64,4.41,9.27,8.82,9.27,13.22a4.53,4.53,0,0,1-4.65,4.39c-2.12,0-3.27-.92-4.34-2.76,1.07,3.82,2.22,5.74,4.34,5.74H24.23c2.12,0,3.27-1.92,4.34-5.74-1.07,1.84-2.22,2.76-4.34,2.76a4.53,4.53,0,0,1-4.65-4.39C19.57,50.73,24.21,46.32,28.85,41.91Z"/><path class="cls-4" d="M100.84,52.1C85,47.61,41.16,63.9,39.78,151.49c-.2,32,4.26,36.68-24.51,35.23,17.14,4.84,23-.72,24.86-2,.15,7.72,7.14,34.57,22.09,34.57,6.92-13.89,19.22-13.89,19.22-13.89s-3.7-13.58,1.85-20.68,5.09-6.17,5.56-7.1.36-14.15.36-14.15l35.73,4.25s21.33,47-15,46.37c22.73,16.22,45.58,8.34,52.11-8.79S187.13,44.75,100.84,52.1Z"/><path class="cls-5" d="M96.81,79.75c-2.36-12,20.09-10.9,31.73,7.49S96.81,79.75,96.81,79.75Z"/><path class="cls-5" d="M75.85,143l-8.92,1.8c-.26,6.19-.89,36.41,11.92,42.81a1.42,1.42,0,0,0,.73.05,12.24,12.24,0,0,1,1.65-2.88c5.56-7.1,5.09-6.17,5.56-7.1s.36-14.15.36-14.15l-5.7.34Z"/><path class="cls-5" d="M71.89,84.61c-14.58.65-22.36,38.89-22.36,38.89S58.93,77.48,71.89,84.61Z"/><path class="cls-6" d="M77.55,161.64s1,9.61,1.53,14.92S76.42,194,76.42,194s7,33,30.88,33S140,194.31,140,194.31s-12.1-12.56-8.17-28.91"/><path class="cls-7" d="M78.51,163.24c-.27.66,1.87,23.6,2.13,24.13s4.88,3.32,7.58,6.59a104.38,104.38,0,0,0,8.56,8.48s16.62-1.47,18.85,0,10.6-22.52,14.87-23.72c0,0,.8-9.22.82-12.5S78.51,163.24,78.51,163.24Z"/><path class="cls-8" d="M96.81,79.75c22.19-6.34,42.65,10.38,48.13,38.33,1.73,33.14-6.63,40.93-11.82,49.57s-21,17-28.53,15.56S75.77,176.3,70,143.15,70.87,85.8,96.81,79.75Z"/><path class="cls-9" d="M98.53,117.82a3.83,3.83,0,0,0-1.71-3.92"/><path class="cls-9" d="M97.73,117.81a6.65,6.65,0,0,0-1.75-4"/><path class="cls-9" d="M95.91,117.21a5.58,5.58,0,0,0-1.31-4.09"/><path class="cls-9" d="M94.44,116.46a5.44,5.44,0,0,0-1.5-4.08"/><path class="cls-9" d="M93.2,116.15a7.46,7.46,0,0,0-1.15-4.69"/><path class="cls-9" d="M92.51,116a11.13,11.13,0,0,0-1.58-4.49"/><path class="cls-9" d="M91.31,115.09a11.27,11.27,0,0,0-2.13-4.36"/><path class="cls-9" d="M89.46,114.2a5.15,5.15,0,0,0-1.57-3.85"/><path class="cls-9" d="M88.38,114a3.77,3.77,0,0,0-1.62-3.61"/><path class="cls-9" d="M87.38,113.29A12.41,12.41,0,0,0,85.89,110"/><path class="cls-9" d="M85.91,113.17a6.53,6.53,0,0,0-2.21-3.72"/><path class="cls-9" d="M84.55,112.5a16.67,16.67,0,0,1-2.13-2.89"/><path class="cls-9" d="M82.66,112.7a2.81,2.81,0,0,0-1.95-2.62"/><path class="cls-9" d="M80.74,111.94a7.55,7.55,0,0,1-2.15-1.88"/><path class="cls-9" d="M81.35,111.94a2.49,2.49,0,0,0-1.64-1.86"/><path class="cls-9" d="M78.73,112.11A1.57,1.57,0,0,0,77,111"/><path class="cls-9" d="M77.43,112.1l-.6-.3"/><path class="cls-9" d="M117.27,119.49a2.19,2.19,0,0,1,.24-2.22,6.44,6.44,0,0,1,1.73-1.56"/><path class="cls-9" d="M119.18,118.27a5.31,5.31,0,0,1,3.16-4.32"/><path class="cls-9" d="M120.65,117.54a11.54,11.54,0,0,1,1.29-2.73,3.89,3.89,0,0,1,2.43-1.67"/><path class="cls-9" d="M122.76,116.47A6.87,6.87,0,0,1,126.1,112"/><path class="cls-9" d="M124.29,116.14a6.22,6.22,0,0,1,4.13-4.46"/><path class="cls-9" d="M126.63,114.37a8,8,0,0,1,3.53-3.12"/><path class="cls-9" d="M128.74,114.21a6.58,6.58,0,0,1,4.46-3.85"/><path class="cls-9" d="M130.52,113.31l2.24-1.87c.73-.61,1.69-1.26,2.56-.86"/><path class="cls-9" d="M133.38,112.71A4.21,4.21,0,0,1,137,111.5"/><path class="cls-9" d="M135.12,112.95a3.87,3.87,0,0,1,3.06-.92"/><path class="cls-10" d="M109.22,139.71c.92-2.16.41-3.08,0-5.75s1.85-4.31,2.05-5.64-.67-7.77,3.64-10.83c0,0,2.53.84,1.65,1.65-1.41,1.3-3.54,6.31-3,8.46s-1.86,5.69-1.55,7.16a20.16,20.16,0,0,1,.52,4.54C112.4,140.13,110.55,140.95,109.22,139.71Z"/><path class="cls-11" d="M97.68,146.51c3.51-3.12,6.51,1,6.51,1"/><path class="cls-11" d="M108.21,148.26c2.07-3.28,2.41-3.87,4.31-3.87s2.59,1.51,2.42,2.13"/><path class="cls-12" d="M115,138.74c2,2.43,3.92,4.76,2.13,7.9-.18.31.8.43,1,.13,1.83-3.22,0-5.63-2.13-8.16-.22-.26-1.17-.12-1,.13Z"/><path class="cls-12" d="M94.81,145.79c.6,0,.6-.5,0-.5s-.6.5,0,.5Z"/><path class="cls-12" d="M97.15,137.67c.6,0,.6-.5,0-.5s-.6.5,0,.5Z"/><path class="cls-10" d="M81.86,155.49a9.83,9.83,0,0,1-.45-7.11s2.75-2.87,14.29-11.51a.76.76,0,0,1,1.17.35s-2.48,3.41-13.51,12.72c-1.63,1.14-1.47,2.45-.65,5.55C82.71,155.49,82.55,156.16,81.86,155.49Z"/><path class="cls-10" d="M116.91,138.45c11.29,10.5,11.76,14.11,12.07,15.8s-2.35,11.65-2.23,11.4c0,0-.44-.81-.4-1,0,0,2-9.32,1.6-10.21s-8.51-11.3-9.11-12.27-2.22-3.34-2.22-3.34S116.57,138.3,116.91,138.45Z"/><path class="cls-10" d="M99.23,168.46c5.7.66,15.48,1.58,16.86,1.32,1.9-1.19,1-6.87.92-6.2s-16.75.07-17.78,1.35S99.23,168.46,99.23,168.46Z"/><path class="cls-13" d="M85.21,154.81a16.18,16.18,0,0,0,2.52.53c5.59.83,16.32,1.18,18,2,2.5,0,1.87-1.14,18.63,0a20.57,20.57,0,0,1-17.73,9.47C95.94,166.26,86.15,155.54,85.21,154.81Z"/><path class="cls-14" d="M91.73,157a110.23,110.23,0,0,0,23.59,2c.45.11,4.31,0,4.31,0s-4.49,2-13,2A26.94,26.94,0,0,1,91.73,157Z"/><path class="cls-15" d="M121.09,119.1c4.91-1.84,14.09,1.79,14.09,1.79l-.05,1.51-18.05,2.48s-2-.1-1.44-1S119.38,119.51,121.09,119.1Z"/><path class="cls-15" d="M82.42,122.27c-.33-.33-3.56.37-3.83-.54s1.95-4.13,6-4.13,7.39.21,8.69.21a18.15,18.15,0,0,1,5.54,4.64c.42.71-.45,1.63-2.8,1.37Z"/><path class="cls-10" d="M127.07,129.91A20.3,20.3,0,0,0,136,128s.38-1-.32-1.16-7.43,1.62-8.61,1.86S126.4,129.91,127.07,129.91Z"/><path class="cls-16" d="M70.35,145.14c.06-6.55-2.28-22.87-2.28-22.87s-.71.92-5.86,6.12c1.54,6,.17,17.67,7.38,16.75Z"/><path class="cls-14" d="M64.37,141.48s-1.43.82-1.06,3.23a5,5,0,0,1,3.62,2.56v-2.49A17,17,0,0,1,64.37,141.48Z"/><path class="cls-16" d="M143,147.6c2.08,1,5.29,2.8,6.12.83S153,133.9,151.9,131c-5-5.37-6.75-6.6-6.75-6.6S145,141.29,143,147.6Z"/><path class="cls-5" d="M80.71,120.52s9-5.75,16.11,2.12Z"/><path class="cls-5" d="M119.23,123.22c1.81-2.38,4.62-6,15.89-.82Z"/><path class="cls-17" d="M96.83,122.64c-5.51-4.24-6.56-5.19-16.11-2.12,0,0,1.56,2.36,8,2.71a62.38,62.38,0,0,1,7.3.59S97,124.05,96.83,122.64Z"/><path class="cls-17" d="M119.25,123.23c3.18-2.36,3.7-5.42,15.88-.83-5,3.89-12.1.71-18.05,2.48a.59.59,0,0,1,.18-.72A10.46,10.46,0,0,1,119.25,123.23Z"/><path class="cls-18" d="M130.49,120.85c-5.7-1.59-7.63-.65-9.33.77a7.05,7.05,0,0,0,2.14,2.69c2,.06,3.92.21,5.79.1A5.53,5.53,0,0,0,130.49,120.85Z"/><path class="cls-18" d="M84.57,119.38A4.78,4.78,0,0,0,86.64,123c.62.09,1.29.16,2,.2l1.51.09a3.34,3.34,0,0,0,2.75-3.46C90.67,118.54,88.66,118.34,84.57,119.38Z"/><circle class="cls-19" cx="64.38" cy="147.28" r="2.56"/><circle class="cls-19" cx="147.57" cy="150.32" r="2.56" transform="translate(-22.24 274.97) rotate(-81.81)"/><path class="cls-17" d="M124.44,122a9.61,9.61,0,0,1,2.64-.84S124.71,119.41,124.44,122Z"/><path class="cls-17" d="M87.4,120.56l2.55-.15S88.49,118.38,87.4,120.56Z"/><circle class="cls-9" cx="88.89" cy="121.11" r="1"/><circle class="cls-9" cx="126.07" cy="122.27" r="1"/><path class="cls-20" d="M89.64,155.57c-3.59-1.47-5.43-.83-5.43-.46s1.38,1.29,2.48,1.1a8.22,8.22,0,0,1,2.48.09A.55.55,0,0,0,89.64,155.57Z"/><path class="cls-21" d="M95.53,145.8a3.84,3.84,0,0,1-.2-5.07c1.37-1.56,2.44-2,2.73-2.83l.29-.78"/><path class="cls-5" d="M84.84,64.45c-18.74,4-30.09,37.47-30.09,37.47S70,55.8,84.84,64.45Z"/><g class="cls-22"><path class="cls-23" d="M76.14,113.17c7.17-1,14.14,1.69,20.31,5.17,1,.56,3.5-3.14,2.77-3.55-6.25-3.53-13.42-6.25-20.69-5.27-1.23.17-3,3.73-2.38,3.64Z"/></g><g class="cls-22"><path class="cls-23" d="M135.53,110.52c-6.53-1.67-14.21,2.66-19.62,5.89-.5.3,2.06,3.95,2.89,3.45,5.28-3.16,12.94-7.46,19.29-5.83.11,0-1.35-3.2-2.57-3.51Z"/></g><path class="cls-2" d="M161.48,246.79c1.51-1.21,6.13-5.32,6.91-14h2.55c-.73,9.5-6.73,14.07-6.73,14.07h9.2v2.27H161.48Z"/><path class="cls-3" d="M167.42,227.89c-4.64-4.41-9.27-8.82-9.27-13.22a4.53,4.53,0,0,1,4.65-4.39c2.12,0,3.27.92,4.34,2.76-1.07-3.82-2.22-5.74-4.34-5.74H172c-2.12,0-3.27,1.92-4.34,5.74,1.07-1.84,2.22-2.76,4.34-2.76a4.53,4.53,0,0,1,4.65,4.39C176.7,219.07,172.06,223.48,167.42,227.89Z"/></svg>