<svg id="Layer_1" data-name="Layer 1" xmlns="http://www.w3.org/2000/svg" viewBox="0 0 196 266.67"><defs><style>.cls-1{fill:#f8e4e3;}.cls-2{fill:#231f20;}.cls-3{fill:#010101;}.cls-4{fill:#d39372;}.cls-5{fill:#da9f7b;}.cls-6{opacity:0.6;}.cls-7{fill:#efd9c6;}.cls-8{fill:#381c15;}.cls-9{fill:#6b3720;}.cls-10{fill:#d28867;}.cls-11{fill:#d69a76;}.cls-12{fill:#e4a781;}.cls-13{fill:#ebf4f0;}.cls-14{fill:#572000;}.cls-15{fill:#2c1712;}.cls-16{fill:#8f3d30;}.cls-17{fill:#fff;}.cls-18{fill:#b34637;}.cls-19{opacity:0.15;}.cls-20{fill:#ba8a60;}.cls-21{fill:#dfb28b;}</style></defs><title>badbitchcards</title><rect class="cls-1" x="8.63" y="8.48" width="178.58" height="249.45" rx="8.5" ry="8.5"/><path class="cls-2" d="M23.83,26.22a5.88,5.88,0,0,1,0-.66,5.28,5.28,0,0,1,5.65-5.29c3.5,0,5.52,2.29,5.52,5a6,6,0,0,1-3.08,5l-3.23,2.07a4,4,0,0,0-2,2.29h8.39V37H23.63c.05-2.67,1.11-4.71,3.88-6.5l2.72-1.76a4.08,4.08,0,0,0,2.24-3.4,2.82,2.82,0,0,0-3.08-2.87c-2.14,0-3.15,1.49-3.15,3.35,0,.23,0,.48,0,.73Z"/><path class="cls-3" d="M28.85,41.91c4.64,4.41,9.27,8.82,9.27,13.22a4.53,4.53,0,0,1-4.65,4.39c-2.12,0-3.27-.92-4.34-2.76,1.07,3.82,2.22,5.74,4.34,5.74H24.23c2.12,0,3.27-1.92,4.34-5.74-1.07,1.84-2.22,2.76-4.34,2.76a4.53,4.53,0,0,1-4.65-4.39C19.57,50.73,24.21,46.32,28.85,41.91Z"/><path class="cls-2" d="M172.44,243.58a5.88,5.88,0,0,1,0,.66,5.28,5.28,0,0,1-5.65,5.29c-3.5,0-5.52-2.29-5.52-5a6,6,0,0,1,3.08-5l3.23-2.07a4,4,0,0,0,2-2.29H161.2v-2.29h11.45c-.05,2.67-1.11,4.71-3.88,6.5L166,241.09a4.08,4.08,0,0,0-2.24,3.4,2.82,2.82,0,0,0,3.07,2.87c2.14,0,3.15-1.49,3.15-3.35,0-.23,0-.48,0-.73Z"/><path class="cls-3" d="M167.42,227.89c-4.64-4.41-9.27-8.82-9.27-13.22a4.53,4.53,0,0,1,4.65-4.39c2.12,0,3.27.92,4.34,2.76-1.07-3.82-2.22-5.74-4.34-5.74H172c-2.12,0-3.27,1.92-4.34,5.74,1.07-1.84,2.22-2.76,4.34-2.76a4.53,4.53,0,0,1,4.65,4.39C176.7,219.07,172.06,223.48,167.42,227.89Z"/><path class="cls-4" d="M115.53,189.29c23.59,0,34.16-30,34.16-30s-20.95-7.13-21.78-24.33-39-15.1-40.34-2.51-2,25.37-6.7,29.3C82.59,170.61,87,188.3,115.53,189.29Z"/><path class="cls-5" d="M107.3,61.57c21.62,0,32.42,5,27.79,46.13.19,11.19-1.16,16.6-3.28,20.46s-5,9.08-7.4,11.72-6.13,6.49-13.7,6.49S99,142.89,96.4,140.6s-7-6.25-10.94-10.22S81,119.57,80.9,117.77C80.3,108.63,71.35,63.15,107.3,61.57Z"/><g class="cls-6"><path class="cls-7" d="M88,98.73s3.8-4.57,7.82-4.5,6.66,2.65,8.2,5.36c0,0-.26.43-1.08.29S88,98.73,88,98.73Z"/></g><g class="cls-6"><path class="cls-7" d="M129.84,96.38c-5.59-5.11-10.09-6.79-14.39.52,0,0-.5,1.43,0,1.92S128.93,95.46,129.84,96.38Z"/></g><path class="cls-8" d="M93.81,95.36c5.6-.28,6.8,2,9.16,4.52-12.69-.34-14.18-.54-14.94-1.15A9.8,9.8,0,0,1,93.81,95.36Z"/><path class="cls-8" d="M126.83,96.74c4.45-.45,3-.35,3-.35a10.78,10.78,0,0,0-7.37-3,5.94,5.94,0,0,0-5.31,3.37l-.46,1.06Z"/><path class="cls-9" d="M110.11,117.14a4,4,0,0,0-3.88-2.5s-2.83,0-1.5,1.89"/><path class="cls-9" d="M113.16,115.9c2.61-3,3.77-2.3,4-1.25"/><path class="cls-10" d="M110.76,117.39a3.93,3.93,0,0,0,2.46-.44c.18-.14,0-.3-.18-.34a.79.79,0,0,0-.68.09,2.79,2.79,0,0,1-1.59.19c-.15,0-.5,0-.5.25s.36.24.5.25Z"/><path class="cls-10" d="M102.77,110.86c-.7,1.89-1.58,5.66,1,6.5.35.11,1.12-.23.5-.43-2.15-.69-1.1-4.53-.57-5.94.13-.36-.85-.44-1-.13Z"/><path class="cls-10" d="M117.09,110.84a3.44,3.44,0,0,1,1.05,2.57c0,.61-.19,1.71-.87,2s.15.56.5.43c2.15-.8,1.45-4,.18-5.21-.22-.22-1.19-.06-.86.25Z"/><path class="cls-11" d="M112.65,98.23c.88-1.84,1.8-3.56,1.8-3.56s1.76-.48,1.76.44c-1.78,2.72-2.68,3.52-1.78,8.83l.38,2.4s-.4.2-.64,0Z"/><path class="cls-11" d="M108.44,97.08a86.74,86.74,0,0,1,0,13.12l-1.19.3s1.36-10.27-1.46-12.92S103,94.34,103,94.34s.46-2,1.51-1.91S108.44,97.08,108.44,97.08Z"/><path class="cls-12" d="M115.49,98.83c.4.4,1.67-.19,1.67-.19l.37-.66-.83-.19S115.21,98.41,115.49,98.83Z"/><path class="cls-12" d="M103,99.88c.07.85-1.38.27-1.38.27l-.58-.91.58-.41S102.93,99.33,103,99.88Z"/><path class="cls-13" d="M121.44,94.59a9.16,9.16,0,0,1,5.39,2.15s-.65,2.09-4.51,2.09-4.63-.38-5.17-.19-.46-.85-.46-.85S118.63,94.59,121.44,94.59Z"/><path class="cls-13" d="M90.28,99.54c2.73-2.69,5-3,6.74-2.83s4.57,2.12,4.57,2.12.42.9,0,1.32c-1.65,0-3.35,1-5.28.94S92,100.76,90.28,99.54Z"/><path class="cls-14" d="M96.22,100.75A2.41,2.41,0,0,0,98.44,99c0-.7.29-2.26-2.22-2.26S93.81,97.84,93.81,99,95.53,100.75,96.22,100.75Z"/><path class="cls-14" d="M121.76,98.83a1.86,1.86,0,0,0,2.09-2.12c0-.28.24-2.12-2.41-2.12s-2.28,1.94-2.28,2.27A2.38,2.38,0,0,0,121.76,98.83Z"/><circle class="cls-13" cx="96.47" cy="98.57" r="0.62"/><circle class="cls-13" cx="121.5" cy="96.68" r="0.62"/><path class="cls-15" d="M101.92,92.59a.61.61,0,0,0,.6,0,1.23,1.23,0,0,0,.42-.46,2.58,2.58,0,0,0,.34-1.35"/><path class="cls-15" d="M101,92.39a.75.75,0,0,1,.4-.21,2.1,2.1,0,0,0,1.12-1.79"/><path class="cls-15" d="M100.1,92.15a2.57,2.57,0,0,0,1.16-2.36"/><path class="cls-15" d="M99.26,92a3,3,0,0,0,.62-2.63"/><path class="cls-15" d="M98.45,91.64A3.8,3.8,0,0,0,99,89.76a.73.73,0,0,0-.16-.55"/><path class="cls-15" d="M97.63,91.32a3,3,0,0,0,0-2.63"/><path class="cls-15" d="M96.81,90.88a4.25,4.25,0,0,0-.22-1.95c-.07-.19-.18-.4-.38-.42"/><path class="cls-15" d="M95.73,90.58a3,3,0,0,0-.68-2"/><path class="cls-15" d="M94.45,90.09a2.67,2.67,0,0,0-.79-2"/><path class="cls-15" d="M93.48,89.66a2.94,2.94,0,0,0-.94-1.56"/><path class="cls-15" d="M92.5,89.85c-.15-.57-.83-.83-1.15-1.33"/><path class="cls-15" d="M90.92,89.54a1.19,1.19,0,0,0-1-1.16"/><path class="cls-15" d="M89.89,89.34l-1.12-.88"/><path class="cls-15" d="M89,89.79a1.27,1.27,0,0,0-.79-.66"/><path class="cls-15" d="M116.57,90.58a1.88,1.88,0,0,1,.6-2.17"/><path class="cls-15" d="M117.44,90.34a8.06,8.06,0,0,1,.36-1.62,2.71,2.71,0,0,1,1-1.32"/><path class="cls-15" d="M118.2,90l1.3-2.53c.12-.24.3-.51.56-.5"/><path class="cls-15" d="M119.51,89.6a4.74,4.74,0,0,0,.88-1.67,2.67,2.67,0,0,1,1.12-1.48"/><path class="cls-15" d="M121,88.8a5.28,5.28,0,0,0,1.14-1.69,2.65,2.65,0,0,1,1.42-1.4"/><path class="cls-15" d="M122.42,88.13a26.41,26.41,0,0,1,2.1-2.33,2.41,2.41,0,0,1,.59-.47.87.87,0,0,1,.73,0"/><path class="cls-15" d="M124.7,86.76A4.73,4.73,0,0,1,127,85.43a.59.59,0,0,1,.59.14"/><path class="cls-15" d="M126.42,86.59a3.68,3.68,0,0,1,1.9-.76c.19,0,.43,0,.51.18"/><path class="cls-15" d="M127.91,86.68a.87.87,0,0,1,.91-.13"/><path class="cls-16" d="M111.43,123.26c1.61,0,2.69-1,3.73-1.19s4.56.41,8.45,1.19c0,0-.83.78-1.24,1.24-.1,1.09-1.14,9.22-9.79,9.22s-13.78-7.46-13.78-7.46,6.89-3.06,9.48-3.63A27.72,27.72,0,0,1,111.43,123.26Z"/><path class="cls-17" d="M107.25,127.56c-2.36,0,5.58-1.19,9.26-.7C112.79,128.08,108.92,127.56,107.25,127.56Z"/><path class="cls-18" d="M109.58,129c-.87.75,5.46.57,5.84,0S110.12,128.52,109.58,129Z"/><path class="cls-12" d="M110.47,111.56c1.86-1.74,2.79.93,2.56,1.63s-2.33,1.4-2.79,1.16S110.47,111.56,110.47,111.56Z"/><g class="cls-19"><path class="cls-8" d="M88.4,90c.49-.59,4.69.81,5.34,1a33.75,33.75,0,0,1,6,2c2,.88,3,.23,3.48-1.95.06-.26.19-.66-.06-.86-1.81-1.51-4.8-2.15-7.06-2.67-1.91-.44-4.24-1.06-6.17-.45-.82.25-1.57,2.86-1.07,2.7,3.25-1,10.35.93,12.94,3.09l-.06-.86-.12.49,1.1-1.75c-1,.48-2.89-1-3.84-1.38A44.33,44.33,0,0,0,93.73,88c-2-.45-4-1.49-5.43.27-.53.64-1.12,3.23.1,1.75Z"/></g><g class="cls-19"><path class="cls-8" d="M129.92,85.3a6,6,0,0,0-5.84-.13c-.71.31-6.44,4.39-6.79,3.28l-1,2.29c1.7-2.21,5.27-2.7,7.76-3.46.66-.2,1.32-2.68,1.18-2.65a23.34,23.34,0,0,0-6.95,3.3c-.63.4-1.16,2.64-1.18,2.65a47.62,47.62,0,0,1,7.12-2.88c.71-.24,1.24-2.67,1.18-2.65a47.61,47.61,0,0,0-7.12,2.88l-1.18,2.65a23.32,23.32,0,0,1,6.95-3.3l1.18-2.65c-2.63.8-5.55,1.32-7.62,3.26-.59.55-2,2.13-1.74,3.06.46,1.74,4-1.29,4.67-1.75,2.43-1.6,5.31-2.95,8-1.22.28.18,1.79-2.41,1.36-2.67Z"/></g><path class="cls-20" d="M134.41,120.18s4.21-3.64,4.76-5.53.27-4.9,2.17-7.89,2.72-9.85,0-33.95c-6.25-18.47-16.29-29.6-40.65-29.6-48.22,9.94-33.94,66-30.88,70.52a25.11,25.11,0,0,1,4.82,11.94c-.77-.11-1.86,4.6-1.81,8.05C68.6,137,68.6,162.18,50.45,185.2s-5.51,49.61,5.84,63.87S83.84,252,83.84,252L77.36,238.7c-6.48-13.29,3.25-26.48,5.86-32.3.31,2.14,5.36,8.88,5.36,8.88s.24-.87-2.83-9.72S98.69,178.67,99,171.18,85.45,142.6,84.24,137.92c2.28-3.08,1.22-7.53,1.22-7.53s-7.34-7.53-4-22.72S94,67.83,105.83,61.57c5.37.27,19.93,7.27,29.76,41.09l-.51,5Z"/><path class="cls-21" d="M102.2,43.21S108,56,108.14,62l-2.31-.43-2.1,1.32-3.06-19.68Z"/><path class="cls-21" d="M110,61.34c10.43,6.87,20.47,17.8,27.08,43.23C137.1,104.57,131.76,71.13,110,61.34Z"/><path class="cls-21" d="M100.68,62.89C91,71.55,79,110,75.45,113.52,75.45,117.22,88.15,75.75,100.68,62.89Z"/><path class="cls-21" d="M77.8,134.78c-3.53,12.95,4.47,26.6-10.83,40s-19.54,49.44-10.36,62.62c5.18-4.47-2.35-48.49,16.24-60.74S77.8,134.78,77.8,134.78Z"/></svg>