<svg id="Layer_1" data-name="Layer 1" xmlns="http://www.w3.org/2000/svg" viewBox="0 0 196 266.67"><defs><style>.cls-1{fill:#f8e4e3;}.cls-2{fill:#ecba9b;}.cls-3{fill:#261e1a;}.cls-4,.cls-5{fill:#edbea3;}.cls-5{opacity:0.95;}.cls-6{fill:#58595b;}.cls-7{fill:#ebf4f0;}.cls-8{fill:#ecb499;}.cls-9{fill:#381c15;}.cls-10{fill:#d39c82;}.cls-11{fill:#e7908f;}.cls-12{fill:#f8e9db;}.cls-13{fill:#6b3720;}.cls-14,.cls-15{fill:none;stroke:#d39c82;stroke-linecap:round;stroke-miterlimit:10;}.cls-14{stroke-width:0.5px;}.cls-16{fill:#5f513b;}.cls-17{fill:#1d1611;}.cls-18{fill:#efc5ac;opacity:0.6;}.cls-19{fill:#d38c68;opacity:0.1;}.cls-20{opacity:0.15;}.cls-21{fill:#be1e2d;}</style></defs><title>badbitchcards</title><rect class="cls-1" x="8.63" y="8.48" width="178.58" height="249.45" rx="8.5" ry="8.5"/><path class="cls-2" d="M104,220.47c26.2,0,37.93-33.29,37.93-33.29s-23.26-7.91-24.18-27-43.35-16.77-44.79-2.79-2.25,28.17-7.44,32.53C67.42,199.73,72.33,219.38,104,220.47Z"/><path class="cls-3" d="M150.44,192.78s10.86-13,8-20.34,4.18-24.5,5.14-36.67-5.47-18.06-13.11-24.82-12-32.15-30-55a23.26,23.26,0,0,0-15.56-5.47C61.66,37.33,54.55,87.16,48.44,97.13,34,111.92,15.65,145.91,53.91,177c10.65,10.65.57,26.59.57,26.59s8-5.52,7.39-12c0,0,4.67,16.69-4.92,20.41a8.9,8.9,0,0,0,7-6.57c1.37-5.71-.53-14-.53-14s2.74,8.21,8.25,12.64-4.56,11.34-4.39,13.81a19.3,19.3,0,0,1,3.67-3.74c1.88-1.31,9.39-13.39,2.86-26l-2.5-4.88h0s1.37-10-.36-15.85h0l52.58-3.71s-19.3,53.69,8.62,56.9c8.77,0,8.5-5,8.5-5s-2.06,4.76-8.39,3.93-8.09-10.89-5.5-18.33,4.55-9.38,4.55-9.38,6.5,5,3.5,12.43c0,0-3.66,7.34-3.38,9.84s2,2.4,2,2.4-2.82-1.85.77-8.63,16.3-15.07,16.3-15.07"/><path class="cls-4" d="M56.14,115.24c-5.28,1.83-5.49,6.74-3.66,9l3.66-6.47Z"/><path class="cls-4" d="M56.95,134.17c2.44-2.47,5,.47,5,.47l.43,10.55S57.56,142.52,56.95,134.17Z"/><path class="cls-4" d="M130.11,145.68c3.23-1.18,4.65-11,4.65-11l-3.25-1.76-2.06-.41.66,13.21"/><path class="cls-5" d="M93.93,78.47c13.2,0,25.82,2.46,27.43,19.21h0l-52.73-.59S74.84,76.44,93.93,78.47Z"/><path class="cls-5" d="M96.53,63.84c-.45,4.67-.24,14.73-.24,14.73l-1.84-.1s.3-11.17.92-14.63C95.37,63.84,96.16,60.8,96.53,63.84Z"/><path class="cls-6" d="M70.3,70.53a192.75,192.75,0,0,1-13.36,21.2"/><path class="cls-6" d="M147.26,143.72c-4.8-10.42-.32,5.16,5.08,5.55l3.92.86S149.06,147.62,147.26,143.72Z"/><path class="cls-6" d="M111.2,65.12c10.86,2.7,21,19.8,23.56,31C134.76,96.17,127.13,71.62,111.2,65.12Z"/><path class="cls-6" d="M122.92,178.44s-9.91,21.45.71,37.38C123.63,215.82,111.92,200.63,122.92,178.44Z"/><path class="cls-6" d="M68.46,167.93S55,183.28,72.35,202.52C72.35,202.52,56.39,186.35,68.46,167.93Z"/><path class="cls-7" d="M37.85,133.26a26.48,26.48,0,0,0,.44,15.48A19.78,19.78,0,0,0,39.87,152S34.3,142.63,37.85,133.26Z"/><path class="cls-6" d="M97.63,64.37c6-.5,11.18,2.52,15.91,5.77a89,89,0,0,1,9.19,7.18c5.61,5.06,10.65,11.15,13.06,18.41,2.81,8.45.64,16.79-.62,25.29-.74,4.94-2.3,15.27,4.42,17.06.09,0,.28-.07.13-.11-4.87-1.29-5.07-7.53-4.87-11.6.23-4.5,1.22-8.92,1.93-13.36,1.31-8.3.74-16-3.5-23.42-3.85-6.71-9.64-12.17-15.76-16.8-5.75-4.35-12.37-9.17-19.95-8.54-.17,0,0,.13.07.12Z"/><path class="cls-6" d="M97,55.59c-8-4-16.61,1.34-21.35,7.79-5.78,7.87-7.92,17.72-12.63,26.18C57.23,100,46.75,105.93,38.75,114.48c-7.33,7.83-11.57,17.75-7.3,28.22,5.08,12.44,17.37,19.72,24.14,31,0,.07.29,0,.24,0-5.54-9.27-14.58-15.64-20.6-24.54-3-4.48-5.34-9.65-5.39-15.14-.05-5.29,2.07-10.27,5.06-14.55,6.23-8.91,15.91-14.4,23.08-22.42,6.07-6.79,8.87-15.3,12.43-23.5,2-4.53,4.23-9,7.62-12.69,4.7-5.05,12.17-8.57,18.83-5.19.07,0,.3,0,.18-.09Z"/><path class="cls-6" d="M67,169.59c3.28,9-5.35,16.95-4.75,25.89a11,11,0,0,0,2,5.49c1.76,2.63,3.28,4.94,3.81,8.15a16.38,16.38,0,0,1-.85,8.58c-1.43,3.64-5.86,9.11-10.11,5-.06-.05-.3,0-.22.06,3.61,3.49,8.15-.12,9.94-3.65,3-5.84,1.79-12.27-1.83-17.46-3.93-5.64-2.24-11,.06-17,1.85-4.8,4-10,2.17-15.12,0-.08-.27-.06-.24,0Z"/><path class="cls-6" d="M133,219.66a23,23,0,0,1-15.56-19.36A23.37,23.37,0,0,1,120,187.56c2.18-4.22,5.69-7.19,9.4-10,6.79-5.17,13.1-11.24,15.43-19.76,1.66-6-.35-14.74-8.06-14.54-.15,0-.15.13,0,.13,6.35-.16,9.05,6.4,8.35,11.78a27.32,27.32,0,0,1-5.26,12.12,47.2,47.2,0,0,1-10,9.69c-3.09,2.35-6.23,4.71-8.5,7.92-8.86,12.51-2.76,30,11.56,34.89.09,0,.28-.06.13-.11Z"/><path class="cls-6" d="M144.55,109.42c6.64,6.4,13.38,14,17.26,22.5,4.34,9.47.17,19.86-4.33,28.47-3.94,7.53-10.7,14.41-12.35,22.94-.66,3.41-.36,7.46,2.15,10.1,1.56,1.64,3.55,2.41,5.69,1.54.13-.05-.1-.12-.18-.09-3.82,1.55-6.57-2.39-7.31-5.41a14.19,14.19,0,0,1-.1-6.14c.78-4,2.89-7.67,5-11.09,4.51-7.13,9-14,11.74-22.1a28.59,28.59,0,0,0,1.72-11.7A24.39,24.39,0,0,0,160,128.18a94.57,94.57,0,0,0-15.27-18.82c-.06-.05-.3,0-.22.06Z"/><path class="cls-6" d="M131.94,212.24c3-4.85,5.4-10.61,5.73-16.39.23-4.05-.73-8.56-4.63-10.55-.07,0-.3,0-.18.09,4.28,2.18,5,7.44,4.44,11.76a37.39,37.39,0,0,1-5.6,15.06c0,.07.2.11.24,0Z"/><path class="cls-6" d="M102.67,53.58C109.44,47.17,118,54,122,59.79a83.13,83.13,0,0,1,5.19,8.27c1.7,3.17,2.48,6.55,3.64,9.93a29.5,29.5,0,0,0,4.68,8.34c1.48,1.93,3.09,4.34,5.14,5.73,4.26,2.88,8.79-.71,11.87-3.64.08-.08-.16-.12-.22-.06-3.71,3.53-8.74,6.82-13.19,2A45.22,45.22,0,0,1,133,82.18c-1.66-2.91-2.38-6.07-3.41-9.22a43.15,43.15,0,0,0-4.95-9.62c-2.79-4.39-5.94-9.38-11-11.4-3.76-1.51-8.16-1.29-11.2,1.58-.08.08.16.12.22.06Z"/><path class="cls-6" d="M92.85,76.35c-3.66-1.65-9.34,1.35-12.47,3.14A35.9,35.9,0,0,0,68.91,90.13,48.41,48.41,0,0,0,61.71,107c-1.56,6.71-1.57,13.53-2.3,20.34,0,.08.24.09.25,0,.59-5.5.62-11,1.54-16.52a54.15,54.15,0,0,1,5.14-15.95,38.62,38.62,0,0,1,9.24-11.75,33,33,0,0,1,6.66-4.4c2.63-1.3,7.54-3.55,10.44-2.25.07,0,.3,0,.18-.09Z"/><path class="cls-6" d="M97.12,76.42c2.47-1.8,8.12,1.71,10.4,2.89a47,47,0,0,1,7.69,5,32.17,32.17,0,0,1,10.24,13.43c4,10.66-2.23,26,8.1,34,.06,0,.3,0,.22-.06-6.31-4.89-6.32-13.3-6.3-20.56,0-6.89-.78-13.21-4.7-19A39.1,39.1,0,0,0,110,80.48a52.71,52.71,0,0,0-8-3.81c-1.67-.64-3.49-1.47-5.08-.31-.09.06.15.11.22.06Z"/><path class="cls-2" d="M96,82.19c-11.32,0-23.33.51-29.5,20.58-2.92,6.35-4.46,11.15-4.63,14.92,0,16.47.17,26.07,1,32.25s2.23,13.89,9.95,18.87,11.66,10.46,24.87,10.46c11.32,0,22-10.64,24.87-14.41s6.86-10.29,7.38-13.38-.69-12.69,0-16.64-2.57-8.06-3.43-12.35C122.77,102.6,123.46,82.19,96,82.19Z"/><path class="cls-8" d="M86.11,126.62c-7.68,4-20.88,2.3-24.2,1.77,0,3.69.08,6.91.17,9.75.18,2,.31,3.79.31,4.5,0,1.84.9,9.29,1.52,12.92a28.72,28.72,0,0,0,1,3.4,23.46,23.46,0,0,0,2,3.17s3.32-14.07,6-18.42S86.11,126.62,86.11,126.62Z"/><path class="cls-8" d="M130,134.85c.58-3.34-1.67-6.81-2.89-10.4-3,3.39-12.61,4.23-17.07,3.17,8,5.77,13.59,17.6,14.78,22.37a34.78,34.78,0,0,1,1.22,7.18l.73,1.51a25.87,25.87,0,0,0,3.23-7.19C130.49,148.4,129.29,138.79,130,134.85Z"/><path class="cls-9" d="M113.3,115.34c3.37-.67,7.87,2.36,9.05,4.89h-15.1v-.72A9.73,9.73,0,0,1,113.3,115.34Z"/><path class="cls-9" d="M71.35,120.77l-1-.24s5.6-4.95,9.72-4.95S88,120.77,88,120.77Z"/><path class="cls-10" d="M105.39,120.86c-.81,1.13,1.86.54,1.86.54l1.6-1.05-1.6-.85A4,4,0,0,0,105.39,120.86Z"/><path class="cls-11" d="M79.15,150c5.15-.7,14.19-4.45,18.36-2.36,4.31-1.95,12.52.31,17.94.28-3.05,7-8.35,14.88-17.67,14.19S82.77,155.69,79.15,150Z"/><path class="cls-12" d="M97.3,151.93a50.63,50.63,0,0,0,14.81-2.64c-4.59,6.26-9.88,7.23-14.81,7.23s-11.27-2-14.68-5.43a14.38,14.38,0,0,1,8.9.42C96,152.49,97.3,151.93,97.3,151.93Z"/><path class="cls-13" d="M99.69,142.65c2.77-2.61,3.91-3,5.71-3"/><path class="cls-13" d="M97.3,142.65c-3.73-3.67-6.75-3-6.75-3"/><path class="cls-14" d="M98.06,143h.88"/><path class="cls-10" d="M106.13,140.08c2.14-.1,2.6-1.5,2.43-3.44a8.18,8.18,0,0,0-2.21-4.23c-.11-.11-.59,0-.43.13,1.46,1.46,4.13,7.11.22,7.3-.3,0-.3.26,0,.25Z"/><path class="cls-10" d="M88.19,121.41c0,1.36-1.81.63-1.81.63l-1.8-1.16,2.32-.65A2.58,2.58,0,0,1,88.19,121.41Z"/><path class="cls-10" d="M90.62,141c-2.24-.17-4-3.07-3.05-5.08.63-1.35,1.91-2.45,2.38-3.86.06-.19-.43-.22-.48-.07-.65,1.94-3.24,3.48-2.65,5.68.49,1.82,1.7,3.41,3.66,3.57.23,0,.47-.21.13-.24Z"/><path class="cls-15" d="M115.46,140.78c3,3,3.62,4.46,3.62,4.46s.18,5.13-1.09,7.12"/><path class="cls-15" d="M79.15,143.72c-4.9,2.65-5.21,5-4,7.63"/><path class="cls-7" d="M107.25,119.5c3.41-3.17,8.48-6,14.28.63a13.62,13.62,0,0,1-7.61,2.54,15,15,0,0,1-6.67-1.27S108.19,120.14,107.25,119.5Z"/><path class="cls-7" d="M86.9,120.23c-3.14-2.72-6.12-7.88-15.55.54a23.32,23.32,0,0,0,9.15,1.86c5.25,0,5.89-.59,5.89-.59S86,120.23,86.9,120.23Z"/><path class="cls-16" d="M113.92,122.68c2.66,0,4.61-6.48-.73-6.48C107.94,116.88,109.94,122.58,113.92,122.68Z"/><path class="cls-16" d="M80.5,122.63c2.66,0,4.61-6.48-.73-6.48C74.52,116.83,76.51,122.54,80.5,122.63Z"/><circle class="cls-17" cx="80.02" cy="119.37" r="0.86"/><circle class="cls-17" cx="113.77" cy="119.2" r="1.03"/><path class="cls-9" d="M90.43,116.05a9.5,9.5,0,0,0-1.38-5.3"/><path class="cls-9" d="M89.47,116a9.57,9.57,0,0,0-1.53-5.55"/><path class="cls-9" d="M88.44,115.46a.52.52,0,0,1-.15-.33,15,15,0,0,0-2-5.06"/><path class="cls-9" d="M87.43,115l-1.51-3.89c-.16-.42-.45-.91-.89-.86"/><path class="cls-9" d="M86.11,114.56,84.88,111c-.21-.61-.51-1.31-1.14-1.45"/><path class="cls-9" d="M85.35,114.41c-.38-.1-.54-.54-.65-.92a19.45,19.45,0,0,0-1.81-4.17"/><path class="cls-9" d="M84,114c-.12.14-.36,0-.48-.14-1.13-1.33-1.15-3.35-2.34-4.62"/><path class="cls-9" d="M82.63,113.32c-.11.08-.23-.07-.29-.19-.36-.84-.58-1.73-1-2.54a3.27,3.27,0,0,0-1.94-1.8"/><path class="cls-9" d="M81.61,113.16a2,2,0,0,1-.88-1,22.3,22.3,0,0,1-1-2.21,2.71,2.71,0,0,0-.69-1.23l-.21-.15"/><path class="cls-9" d="M80.16,113c-1.07-1.23-1.06-3.07-1.93-4.44,0,0-.06-.09-.12-.1s-.11.07-.06.1"/><path class="cls-9" d="M78.64,112.61q-.68-1.36-1.42-2.68a2.29,2.29,0,0,0-1.07-1.15c-.14-.05-.37,0-.32.15"/><path class="cls-9" d="M77.71,112.66a7.07,7.07,0,0,1-1.24-1.92,3.35,3.35,0,0,0-1.54-1.64"/><path class="cls-9" d="M76.21,112.26,74.76,110c-.17-.27-.39-.56-.71-.56"/><path class="cls-9" d="M75.46,112.21a6.09,6.09,0,0,0-1-1.82,1.67,1.67,0,0,0-1.52-.79"/><path class="cls-9" d="M74.6,112.49a4.42,4.42,0,0,0-2.44-2.63"/><path class="cls-9" d="M73.58,112a6,6,0,0,0-1.17-1.2,2,2,0,0,0-1.59-.38"/><path class="cls-9" d="M73.37,112c-1.22,0-2.29-1.13-3.49-.93"/><path class="cls-9" d="M73.1,112.34,71,111.8a2.4,2.4,0,0,0-2,.07"/><path class="cls-9" d="M72.25,112.88c-1.25.43-2.61-.48-3.92-.31-.3,0-.66.2-.68.51"/><path class="cls-9" d="M70.9,113.58c-1.15-.18-2.45-.33-3.36.39"/><path class="cls-9" d="M70.3,114.09a7,7,0,0,0-2.75.19c-.27.07-.59.23-.59.51"/><path class="cls-9" d="M69.2,114.69a4.22,4.22,0,0,0-2,.59"/><path class="cls-9" d="M101.88,115.65a4.19,4.19,0,0,0,.55-1.46,28.21,28.21,0,0,1,.91-2.93c.11-.29.32-.63.62-.57"/><path class="cls-9" d="M102.72,115.23c.92-1.06,1-2.59,1.75-3.81a1.15,1.15,0,0,1,.43-.47.47.47,0,0,1,.58.09"/><path class="cls-9" d="M103.68,115.06a10.69,10.69,0,0,0,1.86-2.87,7.77,7.77,0,0,1,.63-1.29,1.77,1.77,0,0,1,1.14-.8"/><path class="cls-9" d="M104.89,114.58a13.72,13.72,0,0,0,2-2.9c.37-.73.75-1.57,1.52-1.85"/><path class="cls-9" d="M106.63,113.83a7,7,0,0,0,1.7-2.42l1-2a.53.53,0,0,1,.19-.24.18.18,0,0,1,.26.07"/><path class="cls-9" d="M108.15,113.26A9.81,9.81,0,0,0,110,110a2.74,2.74,0,0,1,.4-.77.88.88,0,0,1,.76-.34"/><path class="cls-9" d="M109.41,113.1c.62-.2.93-.89,1.19-1.49a18.5,18.5,0,0,1,1.07-2.09,1.73,1.73,0,0,1,.49-.59.63.63,0,0,1,.72,0"/><path class="cls-9" d="M110.95,112.5c1.21-.89,1.53-2.63,2.69-3.6.22-.19.55-.34.79-.18"/><path class="cls-9" d="M112.08,112.52a18.44,18.44,0,0,0,2.44-3.22c.31-.52.74-1.14,1.35-1.07"/><path class="cls-9" d="M113.59,111.85a4.27,4.27,0,0,0,1.94-2.3,5.21,5.21,0,0,1,.5-1,1.28,1.28,0,0,1,.93-.58"/><path class="cls-9" d="M115.31,111.66a10.15,10.15,0,0,0,1.24-1.9,5.84,5.84,0,0,1,.56-1,1.42,1.42,0,0,1,1-.59"/><path class="cls-9" d="M116.22,111.5a2.33,2.33,0,0,0,.87-1q.47-.77,1-1.5c.31-.41.76-.87,1.26-.71"/><path class="cls-9" d="M117.17,111.34a4.93,4.93,0,0,0,1.48-1.22,11.81,11.81,0,0,1,1-1.19,1.54,1.54,0,0,1,1.39-.47"/><path class="cls-9" d="M118.33,111.48a9.47,9.47,0,0,0,1.58-1.36c.49-.53,1-1.16,1.72-1.23"/><path class="cls-9" d="M119.73,111.27l2.34-1.57c.29-.19.71-.37.93-.1"/><path class="cls-9" d="M120.45,111.56c1-.13,1.76-.94,2.69-1.32.15-.06.35-.1.46,0"/><path class="cls-9" d="M122,111.71a10.15,10.15,0,0,0,2.08-1,.11.11,0,0,1,.11.14"/><path class="cls-9" d="M123.26,111.8a1.2,1.2,0,0,1,.76-.17"/><path class="cls-18" d="M97.3,167.89c7.53,0,9.33,5.14,9.33,5.14s-1,4-8,4-8.15-4.55-8.15-4.55S93.53,167.89,97.3,167.89Z"/><path class="cls-17" d="M97.73,179.28c-13.21,0-17.15-5.49-24.87-10.46a20.84,20.84,0,0,1-2-1.42l.73,3.84s11.94,10.37,24.65,10.58c0,0,4-.21,9.22-.83s16.85-13.1,16.85-13.1l.25-3C119.68,168.64,109,179.28,97.73,179.28Z"/><path class="cls-8" d="M102.3,136.29c-.81-1.73-2.46-6.63-.64-15.19a1.19,1.19,0,0,0-1.16-1.44H95.42a1.19,1.19,0,0,0-1.16,1.44c1.81,8.53.18,13.43-.63,15.18a1.19,1.19,0,0,0,.25,1.36l3.33,3.25a1.19,1.19,0,0,0,1.68,0l3.18-3.23A1.19,1.19,0,0,0,102.3,136.29Z"/><path class="cls-19" d="M99.79,147l5.91,4.56,4.54-4.56"/><path class="cls-18" d="M98.08,136.21s3.9,2.43,0,5C98.08,141.22,94.07,138.32,98.08,136.21Z"/><path class="cls-10" d="M124,134.44c1.82,1.88,3.69,8.62,3.69,11.23s1.19-5.05,0-7.64A7.66,7.66,0,0,0,124,134.44Z"/><path class="cls-10" d="M67,132.47c-1.37,2.15-1.64,6.71-1.64,6.71s.34.33.39-.11a23.25,23.25,0,0,1,1-3.66c.54-1.51,1.2-2.53.73-2.73Z"/><g class="cls-20"><path class="cls-9" d="M68.9,114.3c-.53.93,2.2-.19,2.87-.31a37,37,0,0,1,5.11-.52c3.83-.14,7.23.92,10.78,2.26,1.48.56,3.5-3.21,3.6-4.31l.09-1c.15-1.7-3.62,2.27-3.75,3.7l-.09,1,3.6-4.31c-7.79-2.95-19.74-4.77-24.61,3.75-2,3.57,1.22,1.81,2.41-.26Z"/></g><g class="cls-20"><path class="cls-9" d="M124.07,112.09c-5.22-7.16-15.08-2.62-22.21-1.08a.13.13,0,0,0-.16.14l.06,3.18c0,.46,1.4,2.6,2,2.19,5.28-3.74,11.49-4.77,17.77-5.61.47-.06-1-2.44-1.7-2.35A80.32,80.32,0,0,0,103,112.5l1.93,2.3a5.15,5.15,0,0,1,1.57-2c.45-.44-1.55-2.67-1.93-2.3a5.15,5.15,0,0,0-1.57,2c-.35.56,1.32,2.51,1.93,2.3a79.33,79.33,0,0,1,16.62-3.89l-1.7-2.35c-6.37.86-12.65,1.87-18,5.67l2,2.19c-.08-4.42,5.49-4.28,8.9-5,2.88-.62,8.15-2.35,10.29.58.66.9,2.33,1.79,1.11.11Z"/></g><ellipse class="cls-7" cx="113.39" cy="119.65" rx="0.36" ry="0.47"/><ellipse class="cls-7" cx="80.15" cy="119.76" rx="0.36" ry="0.47"/><path class="cls-21" d="M33.22,23.19a6.14,6.14,0,0,0-2.92-.71c-3.4,0-5.55,2.5-5.75,5.85a4.92,4.92,0,0,1,4.31-2.12,5.23,5.23,0,0,1,5.6,5.57c0,3.5-2.85,5.57-6,5.57S22,35.19,22,29.8c0-6.08,3.66-9.53,8.42-9.53a6.41,6.41,0,0,1,3.53.91Zm-4.79,12a3.44,3.44,0,1,0,0-6.88,3.35,3.35,0,0,0-3.53,3.45A3.42,3.42,0,0,0,28.43,35.22Z"/><path class="cls-21" d="M163.09,246.6a6.12,6.12,0,0,0,2.92.71c3.4,0,5.55-2.5,5.75-5.85a4.92,4.92,0,0,1-4.31,2.12,5.23,5.23,0,0,1-5.6-5.57c0-3.5,2.85-5.57,6-5.57s6.38,2.17,6.38,7.56c0,6.07-3.65,9.53-8.42,9.53a6.41,6.41,0,0,1-3.53-.91Zm4.79-12a3.44,3.44,0,1,0,3.53,3.43A3.42,3.42,0,0,0,167.88,234.58Z"/><path class="cls-21" d="M36.13,52.74,29.31,41.88a.78.78,0,0,0-1.31,0L21.16,52.74a.78.78,0,0,0,0,.83L28,64.43a.78.78,0,0,0,1.31,0l6.83-10.87A.78.78,0,0,0,36.13,52.74Z"/><path class="cls-21" d="M176,216.68l-6.83-10.87a.78.78,0,0,0-1.31,0L161,216.68a.78.78,0,0,0,0,.83l6.83,10.87a.78.78,0,0,0,1.31,0L176,217.51A.78.78,0,0,0,176,216.68Z"/></svg>