<svg id="Layer_1" data-name="Layer 1" xmlns="http://www.w3.org/2000/svg" viewBox="0 0 196 266.67"><defs><style>.cls-1{fill:#f8e4e3;}.cls-2{fill:#231f20;}.cls-3{fill:#010101;}.cls-4{fill:#ebc0a8;}.cls-5{fill:#cf9e76;}.cls-6{fill:#b98363;}.cls-7{fill:#9e563c;}.cls-8{fill:#d0af9b;}.cls-9{fill:#efc7b0;}.cls-10{fill:#d39c82;}.cls-11{fill:#381c15;}.cls-12{fill:#ebf4f0;}.cls-13{fill:#b66229;}.cls-14{fill:#1d1611;}.cls-15{fill:#6b3720;}.cls-16{fill:none;stroke:#e4b69d;stroke-linecap:round;stroke-miterlimit:10;stroke-width:0.5px;}.cls-17{fill:#e4b69d;}.cls-18{fill:#eabba4;}.cls-19{fill:#f8a79b;}.cls-20{fill:#f4d4c3;}.cls-21{fill:#ebc09b;}.cls-22{fill:#ac615a;}.cls-23{opacity:0.15;}.cls-24{fill:#562d00;}</style></defs><title>badbitchcards</title><rect class="cls-1" x="8.63" y="8.48" width="178.58" height="249.45" rx="8.5" ry="8.5"/><path class="cls-2" d="M27,28.86l-2.55,2.72V37H22V19.11h2.47v9.2l8.37-9.2H36.1l-7.44,8L36.21,37H33.08Z"/><path class="cls-3" d="M28.85,41.91c4.64,4.41,9.27,8.82,9.27,13.22a4.53,4.53,0,0,1-4.65,4.39c-2.12,0-3.27-.92-4.34-2.76,1.07,3.82,2.22,5.74,4.34,5.74H24.23c2.12,0,3.27-1.92,4.34-5.74-1.07,1.84-2.22,2.76-4.34,2.76a4.53,4.53,0,0,1-4.65-4.39C19.57,50.73,24.21,46.32,28.85,41.91Z"/><path class="cls-2" d="M170.24,240.94l2.55-2.72v-5.39h2.47v17.87h-2.47v-9.2l-8.37,9.2h-3.25l7.44-8-7.54-9.91h3.13Z"/><path class="cls-3" d="M167.42,227.89c-4.64-4.41-9.27-8.82-9.27-13.22a4.53,4.53,0,0,1,4.65-4.39c2.12,0,3.27.92,4.34,2.76-1.07-3.82-2.22-5.74-4.34-5.74H172c-2.12,0-3.27,1.92-4.34,5.74,1.07-1.84,2.22-2.76,4.34-2.76a4.53,4.53,0,0,1,4.65,4.39C176.7,219.07,172.06,223.48,167.42,227.89Z"/><path class="cls-4" d="M142.09,145.92c2.57-1.59,4.65-4,5.54-9.18s1.21-22.16,1.21-22.16l-10.32,16.63s.86,13.27-.12,15A15.51,15.51,0,0,0,142.09,145.92Z"/><path class="cls-5" d="M118.54,66.16s6-6.41,11.94-2.65,12.6,13.49,13,29.63c4.42,2.43,12.16,10.17,5.31,21.45,0,0-5.77,14.1,3.39,17.62s9.16,1.83,9.16,1.83-2.64,2-9.3-.77-6.79-4.73-6.79-4.73-9.25,6.34-1.48,14.11l7.77,7.77S141.21,142.15,140,138.5H61s-7.09-10.16-10.8-10c0,3.84,1.15,9,2.69,10.63C42.89,132.94,44,104.14,48,97c0,0-4.1-14,12.29-26.63C65.16,52.68,109.2,45.21,118.54,66.16Z"/><path class="cls-6" d="M143.53,93.14s-8.92,2.4-12.94-2.28c0,0-.67-4.35-2-4.35l14.95,6.63"/><path class="cls-6" d="M109.82,70.75c-28.57-10.41-38.09,12.5-38.09,12.5s-2.08,5.36-.89,6.84C70.84,90.09,83,65.09,109.82,70.75Z"/><path class="cls-7" d="M68.54,72.42s-3.85-3.52-8.25-2.08L58.52,71.7S62.72,69.55,68.54,72.42Z"/><path class="cls-7" d="M117.39,65.85c-3.51-4.44-7.2-9.06-12.19-11.92s-10.65-3.1-16.14-1.75a69.87,69.87,0,0,0-19,8.36c-5,3.06-9.37,7.3-10.69,13.21,0,.07.23.09.25,0,1.31-5.87,5.64-10.07,10.61-13.12A77,77,0,0,1,86.57,53C93,51,99.79,50.75,105.68,54.4c4.64,2.88,8.13,7.25,11.47,11.48.05.07.29,0,.24,0Z"/><path class="cls-7" d="M113.7,73.81c-11.92-3.41-25.56-3-35.53,5.18C73,83.21,70.6,89.24,66.65,94.42a31,31,0,0,1-18.22,11.4c-.16,0,0,.13.13.11a31.35,31.35,0,0,0,14.31-7.15c4.61-4.08,7-9.57,10.59-14.48,9.17-12.7,26-14.42,40.11-10.39.09,0,.28-.06.13-.11Z"/><path class="cls-7" d="M118.72,68.75a7.82,7.82,0,0,1,8.21-4.09c3.32.42,6,2.8,7.75,5.53,3.27,5.09,3.54,11.36,4.88,17.1,0,.09.27.07.25,0-1.7-7.27-1.89-16.89-9-21.35-4-2.54-10.12-1.83-12.34,2.77,0,.08.2.11.24,0Z"/><path class="cls-7" d="M116.36,80.47C128.61,83.77,136.16,95.22,139,107a86.59,86.59,0,0,1,2,19.85c0,5.66-.64,11.8,2.6,16.77,0,.07.29,0,.24,0-3.76-5.76-2.47-13.41-2.64-19.93a73.09,73.09,0,0,0-2.9-20.16C135,93,127.47,83.32,116.49,80.36c-.09,0-.28.07-.13.11Z"/><path class="cls-7" d="M159.8,135.14c-10.61-.3-20.4-9.79-16.23-20.77,0-.09-.21-.11-.24,0-4.24,11.17,5.79,20.63,16.47,20.93.15,0,.15-.12,0-.12Z"/><path class="cls-7" d="M48.17,97.55a8,8,0,0,0,9.8-3.4c0-.08-.2-.11-.24,0a7.65,7.65,0,0,1-9.38,3.35c-.07,0-.3,0-.18.09Z"/><path class="cls-7" d="M52.15,120.3c-2.9-3-4.35,4-4.49,5.61a18.16,18.16,0,0,0,5.13,14.26c.05.06.3,0,.22-.06a18,18,0,0,1-5.07-14.55c.12-1,1.4-7.92,4-5.19.05.06.29,0,.22-.06Z"/><path class="cls-7" d="M50.38,121.43A17.72,17.72,0,0,0,51,136.9c0,.07.28,0,.24,0a17.6,17.6,0,0,1-.67-15.4c0-.09-.21-.11-.24,0Z"/><path class="cls-4" d="M103.66,235.95C74.93,235.95,63,189.21,63,189.21s12.82.3,11.58-16.09-.16,2.19-.16,2.19,51.92-40.87,58.83-34.22.46,35,.46,35-3.64,13.3-.91,23.66S115.2,235.95,103.66,235.95Z"/><path class="cls-8" d="M73.91,182.31s21.33,14.74,26,14.74,8.46-5.34,8.46-5.34l-6.25-11.9-27.68-4.5Z"/><path class="cls-8" d="M119,181.09s2.24,11,1.8,13.23,11-3.16,11-3.16,1-18.46,3.68-24.9c2.59-6.14-14.65,9.87-14.65,9.87Z"/><path class="cls-8" d="M123.65,182.57c4.64-4.16,8.8-8.77,11.47-14.26v-3.64l-38.77,25a19.51,19.51,0,0,0,12.33.72C115.36,188.51,123.65,182.57,123.65,182.57Z"/><path class="cls-9" d="M112.77,80.79C88.83,76.34,83.1,87.57,79.08,93.3s-18.44,24.37-20.34,25.64c0,3.47-.68,19.69,1.59,23.19,1.54,4,7.59,18.9,8,21.7s11.3,26.56,34.91,26.56c7.55-1.18,20.33-7.54,24.94-12.15s9.15-15,9.5-16.61.92-10.23,2.12-15.4S139.69,85.36,112.77,80.79Z"/><path class="cls-10" d="M70.36,128a4.13,4.13,0,0,0,1.24,1.78c2.16.76,6.59.23,8.59-.91"/><path class="cls-10" d="M118,125.33a10.83,10.83,0,0,0,3.26-1.52l-.24-.79-9.34,2.33A25.89,25.89,0,0,0,118,125.33Z"/><path class="cls-11" d="M119.1,119.7c3.66,1.6,4.55,3.33,4.55,3.33a4.55,4.55,0,0,0-2.36.79c-1.47.86-13.74-1.36-13.74-1.36S110.1,116.2,119.1,119.7Z"/><path class="cls-11" d="M70.67,129.06a7.38,7.38,0,0,0-3.09-.3c-.71-1.85,7.31-11.16,14.74-3.73Z"/><path class="cls-12" d="M105.16,124.63a27.06,27.06,0,0,1,4.54-3.71,9.72,9.72,0,0,1,11.35,2.1c-3,2.44-6.2,2.33-10.41,2.33s-5.15.5-5.15.5S105.16,125.57,105.16,124.63Z"/><path class="cls-12" d="M70.36,128c2.43-3.61,7.36-7.36,14.58-1,0,0,.74,1.33-.29,1.55a15.31,15.31,0,0,0-6.11.81C75.81,130.43,71.1,129.32,70.36,128Z"/><path class="cls-13" d="M113.43,125.33c3.23,0,3.74-1.58,3.74-2.44S118,120,113.43,120,109.26,125.33,113.43,125.33Z"/><path class="cls-13" d="M77.46,123.55a10.76,10.76,0,0,1,3.62.83s1,3-.34,4.33l-2.21.61c-1.12.32-1.7.45-1.7.45s-2.35-1.47-2.35-3.11S74.09,123.55,77.46,123.55Z"/><path class="cls-14" d="M77.78,127.36c1.15,0,1.59-2.33,0-2.33A1.17,1.17,0,0,0,77.78,127.36Z"/><path class="cls-14" d="M113.15,123.81c1.15,0,1.59-2.33,0-2.33A1.17,1.17,0,0,0,113.15,123.81Z"/><path class="cls-15" d="M100.23,153.14a3.54,3.54,0,0,1,.47-1.32s3-2.33,3.78-2.33.68.47.68.47"/><path class="cls-15" d="M95.17,152.75c-2.57-1.87-4-2-4.35-1.79"/><path class="cls-16" d="M97,154.15a7.53,7.53,0,0,0,2.57,0"/><path class="cls-17" d="M105.44,142.15c1.31,2.62,3.91,6.53.13,8.55-.49.26.43.5.71.35,4-2.16,1.58-6.14.13-9-.15-.3-1.13-.2-1,.13Z"/><path class="cls-17" d="M90.5,152.53c-.55-.18-1.51-.5-1.78-1.06a4.9,4.9,0,0,1-.15-1.33,2.48,2.48,0,0,1,.09-1.52c.19-.29-.78-.42-1-.13a2.63,2.63,0,0,0-.13,1.66,3.89,3.89,0,0,0,.25,1.58A4.15,4.15,0,0,0,90,153c.35.12,1.12-.23.5-.43Z"/><path class="cls-18" d="M91.11,140.6c0,1.73-.76,5-2.35,5.32C88.76,145.92,87.65,144.61,91.11,140.6Z"/><path class="cls-18" d="M98.32,123.81c0,5.13,1.55,16.21,2.4,17.48s3,1.16,4,3.7c1.17-.42-5.14-12.87-5.09-17.63s.62-6.35.62-6.35A2.56,2.56,0,0,0,98.32,123.81Z"/><path class="cls-18" d="M86.19,121.45a10.87,10.87,0,0,1,3.19,3.88,13.22,13.22,0,0,1,.87,4.11A20.33,20.33,0,0,0,86.19,121.45Z"/><path class="cls-19" d="M86.23,165A38.81,38.81,0,0,0,94,162.61c1.32-.49,4.82-.49,5.75,0,1.88-.57,1.67-1.22,2.56-1.63s10.74.49,12.13,0c0,0-5.53,8.71-14.08,8.71S88.27,168.55,86.23,165Z"/><path class="cls-12" d="M78.12,125.56c-.19.5-.32.74.29,1.11C78.41,126.66,79.13,125.6,78.12,125.56Z"/><path class="cls-12" d="M112.54,122.67c.5.19.74.32,1.11-.29C113.64,122.38,112.58,121.66,112.54,122.67Z"/><path class="cls-20" d="M104.09,126.19c.8.72,1.41-.51,2.69-.64l-1.62-.93S104.6,124.88,104.09,126.19Z"/><path class="cls-20" d="M84.65,128.51s1.48.34,1.83,0c.48-1.18-1.54-1.55-1.54-1.55S83.83,127.78,84.65,128.51Z"/><path class="cls-4" d="M62.9,151.81c1.83,3.52,3.52,2.33,3.52,2.33L59.64,133s-.86,6.7.88,12S62.9,151.81,62.9,151.81Z"/><path class="cls-21" d="M116.5,81.81a150.1,150.1,0,0,0,2-15.64s-3.44,6.74-3.69,9.69-.67,5.24-.67,5.24Z"/><path class="cls-18" d="M116.18,160c.61.61-2,1.3-2,1.3S115.59,159.45,116.18,160Z"/><path class="cls-22" d="M83.41,163.82a7.19,7.19,0,0,0,6.4,1.66,42.59,42.59,0,0,1,9.34-.79c2.51.19,4.18-.94,6.64-1.3,3.72-.54,6.81-1,10.16-2.8.24-.14-.21-.25-.35-.18-3.45,1.91-6.76,2.17-10.56,2.83-2,.34-3.74,1.18-5.79,1.2a59.82,59.82,0,0,0-6.29.38c-1.09.13-2.19.27-3.28.43a7.25,7.25,0,0,1-5.83-1.55c-.13-.09-.6,0-.43.13Z"/><path class="cls-8" d="M114.39,161c1.08-3.16,3.08-1.59,3.08-1.59A7.7,7.7,0,0,1,114.39,161Z"/><g class="cls-23"><path class="cls-24" d="M64.66,121c2.84-3.44,6.71-1.84,10.25-1.29,2.56.4,5.1.76,7.68.91,1.21.07,2.51-3.56,2.77-3.55-4.67-.28-9.22-1.54-13.87-1.89-3-.23-4.91,2.25-6.69,4.41-1,1.17-2.15,3.84-.14,1.41Z"/></g><g class="cls-23"><path class="cls-24" d="M123.86,112.51c-3-1.9-5.59-2.75-9.12-1.49-2.44.87-4.64,2.16-7.18,2.8a36.1,36.1,0,0,0-6.35,1.85c-.51.23.36,1.57.48,1.76l.41.67c1,1.58,3.56,2.56,1.94-.07l-.41-.67.48,1.76c3.07-1.4,6.45-1.58,9.55-2.86,4.25-1.76,7-3.32,11.39-.59,1.86,1.17-.31-2.61-1.19-3.16Z"/></g><path class="cls-10" d="M102.05,118.18a3.85,3.85,0,0,1,1.35-2.56l.68-.74"/><path class="cls-10" d="M103.45,117.89a5.27,5.27,0,0,1,2.06-3.11"/><path class="cls-10" d="M104.69,117.77a5.67,5.67,0,0,1,2.35-3.29"/><path class="cls-10" d="M106.42,117.44a4.6,4.6,0,0,1,2.25-3.4"/><path class="cls-10" d="M107.75,116.92l1.4-2.42c.27-.47.63-1,1.17-1"/><path class="cls-10" d="M109.23,116.29c1.18-.87,1.16-2.89,2.48-3.54"/><path class="cls-10" d="M110.79,116c1-1.1,1.2-2.91,2.44-3.8"/><path class="cls-10" d="M112.57,115.26c1.17-.8,1.1-2.74,2.28-3.53"/><path class="cls-10" d="M114.45,114.69l.79-1.75a3.12,3.12,0,0,1,1.37-1.74"/><path class="cls-10" d="M115.7,114.07a5.86,5.86,0,0,0,.92-1.77A1.94,1.94,0,0,1,118,111"/><path class="cls-10" d="M117.76,112.56a5.12,5.12,0,0,1,1.37-1.45c.18-.13.47-.24.61-.06"/><path class="cls-10" d="M119.1,112.36a2.57,2.57,0,0,1,2-1.12"/><path class="cls-10" d="M120.07,112.58a2.15,2.15,0,0,1,1.83-.43"/><path class="cls-10" d="M121.29,113.14a1.63,1.63,0,0,1,2.12-.36"/><path class="cls-10" d="M122.44,113.66a3.78,3.78,0,0,1,1.94-.33"/><path class="cls-10" d="M123.39,114.15a1.61,1.61,0,0,1,1.64.05"/><path class="cls-10" d="M69.14,116.64c.25-.16.58,0,.78.24a3,3,0,0,1,.73,1.28c.12.44.25,1,.7,1.08"/><path class="cls-10" d="M70.15,115.94A4.2,4.2,0,0,1,72,119.18"/><path class="cls-10" d="M71.16,116c0-.15.25-.06.35,0a5.69,5.69,0,0,1,1.31,3.34"/><path class="cls-10" d="M72.43,116a1.28,1.28,0,0,1,.9.69,5.35,5.35,0,0,1,.84,2.81"/><path class="cls-10" d="M73.8,116.14a2.29,2.29,0,0,0,.52,1,3.71,3.71,0,0,1,.59,2.56"/><path class="cls-10" d="M75.15,116.78a3.25,3.25,0,0,1,.9,2.95"/><path class="cls-10" d="M76,116.58c-.14.11-.08.32,0,.48.41.86,1.12,1.75.8,2.65,0,.06.1,0,0,0"/><path class="cls-10" d="M77,117h0a.71.71,0,0,1,.6.45,2.09,2.09,0,0,1,.14.77l.07,1.46"/><path class="cls-10" d="M78.24,117.37a3.23,3.23,0,0,1,.9,2.57"/><path class="cls-10" d="M79.13,117.57a2.14,2.14,0,0,1,1.05,1.82"/><path class="cls-10" d="M80.85,119.64a2.35,2.35,0,0,0-.56-2.36"/><path class="cls-10" d="M81.84,119.93a3.91,3.91,0,0,0-.63-2.61"/><path class="cls-10" d="M82.64,119.95a1.87,1.87,0,0,0-.28-1.83"/><path class="cls-10" d="M84,120a3.08,3.08,0,0,0-.73-1.74"/><path class="cls-10" d="M70.16,118.86a4.47,4.47,0,0,0-2.32-1.93"/><path class="cls-10" d="M68.56,118.76a2.26,2.26,0,0,0-2-1.63"/><path class="cls-10" d="M67.81,119.37a3.12,3.12,0,0,0-1.87-1.06"/><path class="cls-10" d="M66.37,119.5a9.09,9.09,0,0,0-2.06-.22"/><path class="cls-10" d="M65.62,120.25a1.63,1.63,0,0,0-1.72.13"/><path class="cls-10" d="M64.42,121a1.15,1.15,0,0,0-1,.44"/><path class="cls-10" d="M64.84,118.55l1.86.71"/><path class="cls-10" d="M66.78,117.36l1,.93"/></svg>