<svg id="Layer_1" data-name="Layer 1" xmlns="http://www.w3.org/2000/svg" viewBox="0 0 196 266.67"><defs><style>.cls-1{fill:#f8e4e3;}.cls-2{fill:#e8b272;}.cls-3{fill:#dab995;}.cls-4{fill:#927050;}.cls-5{fill:#f5e0cd;}.cls-6{fill:#978466;}.cls-7{fill:#ebf4f0;}.cls-8{fill:#ebc0a8;}.cls-9{fill:#d0af9b;}.cls-10{fill:#efc7b0;}.cls-11{fill:#6b3720;}.cls-12{fill:#e4b69d;}.cls-13{fill:#443123;opacity:0.07;}.cls-14{fill:#da8091;}.cls-15{fill:#f8e8d7;}.cls-16{fill:#e5bfa9;}.cls-17{fill:#7ba29e;}.cls-18{fill:#f4d4c3;}.cls-19{fill:#1d1611;}.cls-20{fill:#fdd2b9;}.cls-21{opacity:0.15;}.cls-22{fill:#381c15;}.cls-23{fill:#be1e2d;}</style></defs><title>badbitchcards</title><rect class="cls-1" x="8.63" y="8.48" width="178.58" height="249.45" rx="8.5" ry="8.5"/><path class="cls-2" d="M131.49,145.68c7.36.2,5.59,15.72-1.3,14.32-2.06-.42-4.55-2-4.89-4.21-.27-1.8.78-3.57,1.81-5a25.52,25.52,0,0,1,6.1-5.66c.79-.54-.23-1.2-.72-1.37a3.21,3.21,0,0,0-2.74.36c-4.64,3.16-12.76,11-5.53,15.79,3.49,2.32,8.52,3.15,12.11.57,2.91-2.09,4.21-6.08,3.77-9.56-.58-4.65-4.09-7.17-8.63-7.29C129.09,143.62,129.09,145.62,131.49,145.68Z"/><path class="cls-2" d="M62.73,149.79c-.22,8.23-12.8,6.83-12.43-.78.1-2,1.21-4.89,3-6,1.38-.9,2.87.27,4,1.14a25.29,25.29,0,0,1,5.52,5.94c.77,1.12,4.64.61,3.86-.53-3.3-4.83-11.1-12.7-17.18-7.28-3.13,2.79-4.38,8.12-1.58,11.5,2.46,3,6.8,4,10.5,3.69,4.39-.39,8.21-2.92,8.33-7.64C66.77,148.41,62.77,148.37,62.73,149.79Z"/><path class="cls-3" d="M43.81,110.74c0-67.3,34-62.35,34-62.35s56.81-21.32,72,20.94-18.32,75.36-18.32,75.36L48.89,125.16l-5.08-14.42"/><path class="cls-3" d="M45.27,110.59c.08-18.36,1.4-44,17.34-56.46a22.5,22.5,0,0,1,11.11-4.77c1.61-.19,3.18,0,4.75-.3,3.52-.71,7.92-2.4,11.79-3.21a79.36,79.36,0,0,1,24.6-1.55c9.51,1,18.76,4.63,25.38,11.74,8.84,9.5,12.22,23.85,12.08,36.52-.21,18.65-8.7,38.58-22,51.81l2-.55C105.45,137.45,78.6,130,51.48,124.7a5.39,5.39,0,0,1-1.59-.38c.88.58-.05-1-.41-2l-4.23-12c-.4-1.14-3.29-.33-2.9.78l2.71,7.68c.63,1.79,1.12,5.66,2.49,7s4.85,1.31,6.41,1.68l39.22,9.27,34.68,8.2c1.9.45,3.28,1.11,5-.09,3-2.1,5.6-6.55,7.64-9.48,10.06-14.48,16-32,14.47-49.75S145.06,51.17,127.6,45c-12.36-4.36-26.23-3.38-38.83-.62a64.91,64.91,0,0,0-10.53,2.91c-1.37.56-1,.14-.06.15-.56,0-1.13-.06-1.7-.06-7.42-.07-14.6,3.85-19.55,9.18-13,14-14.5,36.3-14.58,54.33,0,1.34,2.91.8,2.91-.3Z"/><path class="cls-4" d="M58.46,93.2S49.6,102,47,113.06s9.82,14.48,9.82,14.48l9.82-31.86-8.2-2.48"/><path class="cls-5" d="M101.78,78.44A15,15,0,0,1,115.86,68c3.84,0,7.12,1.9,10.31,3.83,3.37,2,6.89,4,10.13,6.22,2.87,2,4.25,4.77,6.18,7.55a29.35,29.35,0,0,0,5.31,5.79A30.4,30.4,0,0,0,162,97.93c.12,0,.23-.09.07-.12a30,30,0,0,1-19.11-11.95c-1.87-2.62-3.11-5.41-5.73-7.4a108,108,0,0,0-9.26-5.76c-4.74-2.89-9.36-5.75-15.1-4.52a15.08,15.08,0,0,0-11.3,10.22c0,.09.22.11.24,0Z"/><path class="cls-5" d="M88.27,71.9A30.06,30.06,0,0,0,71.09,47.14c-.07,0-.3,0-.18.09A29.94,29.94,0,0,1,88,71.9c0,.09.26.08.25,0Z"/><path class="cls-5" d="M70.61,76.83c-1.93-5.76-9.15-4.14-13.58-3.11-5.93,1.38-12.2,4-14.19,10.31,0,.09.22.11.24,0,1.56-5,6-7.84,10.76-9.35s14.33-4.4,16.52,2.14c0,.08.27.06.24,0Z"/><path class="cls-5" d="M60.41,87.38c-4.57,1-7.88,4.3-10.61,7.94a81,81,0,0,0-8.95,15.4c0,.09.21.11.24,0a84.66,84.66,0,0,1,7.5-13.38c3-4.33,6.55-8.68,11.94-9.88.16,0,0-.13-.13-.11Z"/><path class="cls-5" d="M58,95c-2.72-2.5-5.43,1-6.9,3.12a83,83,0,0,0-9.29,17c0,.09.21.11.24,0a84,84,0,0,1,5.13-10.54c1.31-2.26,6.88-12.95,10.6-9.53.06.05.3,0,.22-.06Z"/><path class="cls-5" d="M137.2,105.2c4.66,5.94,3.28,14.58,3.85,21.64a73.32,73.32,0,0,0,1.6,11.59c.59,2.37,1.58,4.53,3.85,5.65.07,0,.3,0,.18-.09-3.4-1.67-3.92-5.77-4.44-9.13A111.1,111.1,0,0,1,141.06,123c-.28-6.07.36-12.8-3.62-17.88-.05-.07-.29,0-.24,0Z"/><path class="cls-5" d="M138.54,103.52a139.39,139.39,0,0,1,4.31,20.69c.58,4.43,1.15,9.28,4.89,12.23.06,0,.3,0,.22-.06-4.49-3.54-4.48-9.84-5.25-15a136.35,136.35,0,0,0-3.93-17.86c0-.08-.27-.06-.24,0Z"/><path class="cls-6" d="M90.87,74.37A45.33,45.33,0,0,0,75.32,47.12c-.06-.05-.3,0-.22.06A45.21,45.21,0,0,1,90.62,74.37c0,.09.26.08.25,0Z"/><path class="cls-6" d="M132,80.41c6.81.49,8.58-7,9-12.37.3-4.15.71-8.8,0-12.93-.39-2.3-1.71-4.16-4.16-4.15-.15,0-.15.13,0,.13,4.28,0,4.1,5.12,4.15,8q.07,3.76-.15,7.51c-.3,5.31-1.26,14.2-8.74,13.66-.12,0-.24.11-.07.12Z"/><path class="cls-6" d="M139.12,93.62c2.42-.08,2.48,6.36,2.46,7.93,0,2.45-.38,4.89-.5,7.34-.19,4,.23,8,2.92,11.09.05.06.29,0,.22-.06-4-4.56-2.83-10.75-2.47-16.27.12-1.85.61-10.25-2.62-10.15-.15,0-.15.13,0,.13Z"/><path class="cls-6" d="M46.31,81.59c1.6-4.77,6.24-6.83,10.88-7.67S70.87,71.42,71.66,78c0,.09.26.08.25,0-.7-5.86-7.86-5.14-12.05-4.62-5.5.69-11.81,2.27-13.78,8.16,0,.09.22.11.24,0Z"/><path class="cls-6" d="M107.38,73.28c-.46-2.63,4.67-3.11,6.26-3.17a19,19,0,0,1,5.59.69,29.5,29.5,0,0,1,8.21,3.75c4.69,3,8.74,7.16,10.1,12.7,0,.09.27.07.25,0C136,80,129.53,74.79,122.91,71.94A21.18,21.18,0,0,0,112.83,70c-1.74.15-6.15.67-5.7,3.25,0,.09.26.08.25,0Z"/><path class="cls-6" d="M109.59,73.16c3.27-4.82,10.93-2.36,15.13-.24a25.83,25.83,0,0,1,10.08,9.16c0,.07.29,0,.24,0a25.93,25.93,0,0,0-13.61-10.65c-3.85-1.27-9.42-2.18-12.07,1.74,0,.07.19.1.24,0Z"/><path class="cls-6" d="M110.53,74c7.4-5.6,15.43-.09,20.69,5.65.05.06.29,0,.22-.06-5.43-5.93-13.57-11.36-21.12-5.65-.09.06.15.11.22.06Z"/><path class="cls-6" d="M115.21,73.66a17.45,17.45,0,0,1,14.84,7.53c0,.07.29,0,.24,0a17.7,17.7,0,0,0-15.08-7.62c-.15,0-.15.13,0,.13Z"/><path class="cls-7" d="M73,118.45c5-2.34,8.54-3.94,12.38.73,0,0,.37.81,0,1.3a20.56,20.56,0,0,1-6.41.35c-3.12-.42-4.53-1.24-5.25-1.8Z"/><path class="cls-8" d="M68.33,175.55s-.93,27.5-3.12,32.2S75.45,245.2,96.43,245.2s30.62-34.82,30.62-34.82-8.92-28.84-4.57-34.82C122.49,175.55,86.88,157,68.33,175.55Z"/><path class="cls-9" d="M98.5,181.71s10.88,36.73,11.05,43.77c6.18-1.89,16-20.15,16-20.15s-6.66-20.83-3.12-29.77C118.32,166.28,98.21,178.2,98.5,181.71Z"/><path class="cls-10" d="M100.4,72.21c30.68,0,37.79,10.67,39.57,14.67s-2.67,27.57-2.22,30.23S132,153.29,127.2,166s-18.6,29.17-26.8,28.14c0,0-5.8,2.84-11.63,0A36.51,36.51,0,0,1,64.4,170.45c-5.15-5.49-7.21-19.56-7.89-23.68a130.84,130.84,0,0,1-2.28-25.39,80.28,80.28,0,0,1,2.28-18.19C59.58,91.1,59.4,81.79,70,76.66a33,33,0,0,1,6.44-2.26C82.11,73,89.84,72.21,100.4,72.21Z"/><path class="cls-8" d="M43.81,110.74c6.86,3.77,5.74,8.58,10.42,10.64,0,0,1.35,20,2.28,25.39,0,0-6.18,1.37-11.32-18C37.29,110.74,43.81,110.74,43.81,110.74Z"/><path class="cls-11" d="M91,151c-1.31-1.4-.65-2.24.56-2s4.38,4.38,5.32,5.13"/><path class="cls-11" d="M101.53,154.21c4-3.08,5.22-4.29,6.06-3.64s-.56,1-.56,1"/><path class="cls-12" d="M97.45,154.8a6.09,6.09,0,0,0,3.12,0c.18-.05.31-.18.18-.34s-.51-.14-.68-.09a4.15,4.15,0,0,1-2.11,0c-.18,0-.55-.08-.68.09s0,.29.18.34Z"/><path class="cls-12" d="M109,144.7c.39,1.8,1.8,4.92.07,6.4-.33.28.62.46.86.25,1.88-1.61.5-4.68.07-6.65-.08-.36-1.07-.3-1,0Z"/><path class="cls-12" d="M87.06,143c-1.28,2-.9,6.53,1.62,7.56.28.12,1.21-.15.71-.35-2.3-.94-2.51-5.25-1.36-7.07.19-.3-.78-.42-1-.13Z"/><path class="cls-13" d="M75.51,176.78c.75-5.22-1.49-16.13-1.77-17.16a4.44,4.44,0,0,1,.65-2.61c2.52-.28,8.3-6.53,10.91-11.75a7.74,7.74,0,0,1,0,1.49c-.09.29-7.37,10.82-10.07,11.2,0,0-.84,1.12-.65,1.68s2,16.32,1.77,17.16Z"/><path class="cls-13" d="M117.24,119.19c3.3-1.29,4.62-.54,7.67,2.1s3.63,3,3.63,3a39.83,39.83,0,0,1-7.67.85c-.93,0-5.77-3.12-5.77-3.12l-1.37.85S115.9,119.62,117.24,119.19Z"/><path class="cls-13" d="M79.52,114.44c-6.87,2.47-5.79,2.49-7.44,4.09s-2.39,2.31-2.39,2.31,2.51-.86,9.25,0l8.08-.59s-.19-2.42-3.4-4.48S79.52,114.44,79.52,114.44Z"/><path class="cls-13" d="M111.14,148c1.77,4,3.92,8.86,4.85,10.91s.37,3.82,0,5.41-1.77,9.51-4,12.5c0,0,3.64-11.94,3.82-14.92s-4.38-11.84-4.66-12.4A2.5,2.5,0,0,1,111.14,148Z"/><path class="cls-14" d="M79.52,163.82c5.13,3.36,10.54,9.14,17.35,9s15.69-7.37,15.69-7.37-13.45-.47-14.85.09a52.61,52.61,0,0,0-14.27-1.21S80.63,162.32,79.52,163.82Z"/><path class="cls-15" d="M86.87,165.87c3.09.37,8.41.56,9.62,1.49,0,0,7.67-.48,10.17,0A54.55,54.55,0,0,1,96,168.67,18.19,18.19,0,0,1,86.87,165.87Z"/><path class="cls-16" d="M111,128.76c5.49,7.66,10.6,10.43,12.79,10.87,0,0,4.82-4.24,4.24-7.16,0,0-10.6-1.61-14.28-4.82C113.75,127.66,111.08,126.8,111,128.76Z"/><path class="cls-16" d="M90.28,125.9c-7.2,7.2-13.91,4.62-18.59,2.86,0,0-.27.65.34-.94.06-.16-5.1,2.34-5,2.18s4.06-2.53,5.22-2.53c0,0,10.13,1.65,14.64-2.15C86.87,125.32,90.35,123.71,90.28,125.9Z"/><path class="cls-7" d="M73,118.45c5-2.34,8.54-3.94,12.38.73,0,0,.37.81,0,1.3a20.56,20.56,0,0,1-6.41.35c-3.12-.42-4.53-1.24-5.25-1.8Z"/><path class="cls-17" d="M82.9,117c-2.43-1.43-4.89-.79-7.83.49a6.25,6.25,0,0,0,1.57,2.89,17.82,17.82,0,0,0,2.29.45,15,15,0,0,0,1.9.12C82.49,120.08,82.83,118,82.9,117Z"/><path class="cls-18" d="M87.55,120.94c.11.88-3.59-.2-3.59-.2l1.39-.25a1.09,1.09,0,0,0,0-1.3S87.54,120.3,87.55,120.94Z"/><path class="cls-18" d="M112.56,124.08c.48.49,3.36-.08,3.36-.08v-1.66l-.82-.32A7.12,7.12,0,0,0,112.56,124.08Z"/><path class="cls-19" d="M79,118.57c2.25.27,1.85-2.26,0-2.26S77.67,118.42,79,118.57Z"/><path class="cls-19" d="M88.48,112.21a6.26,6.26,0,0,0-2.2-2.89"/><path class="cls-19" d="M85.78,111a20.84,20.84,0,0,1-2.4-2.29"/><path class="cls-19" d="M83.83,111.54a7.21,7.21,0,0,1-3.68-1.65"/><path class="cls-19" d="M83.31,110.57A19.11,19.11,0,0,1,81.25,109"/><path class="cls-19" d="M78.91,110.22a2.82,2.82,0,0,1-2.14-1.4"/><path class="cls-19" d="M76.32,110.44l-1.83,0c-.29,0-.67-.11-.64-.4"/><path class="cls-19" d="M74.47,111.74q-1.91.06-3.82.27"/><path class="cls-19" d="M71.38,113a1.9,1.9,0,0,1-2,.18"/><path class="cls-19" d="M74.6,111a7.79,7.79,0,0,1-2.24-.53"/><path class="cls-19" d="M114.68,113.79c.54-.79,1.75-.69,2.62-.29a6.46,6.46,0,0,0,2.66,1"/><path class="cls-19" d="M118.2,112.52a3.55,3.55,0,0,1,2.25,1,7.43,7.43,0,0,0,2.06,1.41"/><path class="cls-19" d="M122.39,113.21c1.55.11,2.21,2.26,3.71,2.64"/><path class="cls-19" d="M126.09,114.23a2.48,2.48,0,0,0,2.22,0"/><path class="cls-19" d="M127.08,115.35a8,8,0,0,1,3.08.46"/><path class="cls-19" d="M127.82,115.93a3.82,3.82,0,0,1,3.27,2.33"/><path class="cls-19" d="M130,118.17a4,4,0,0,1,1.39,2.57"/><path class="cls-7" d="M119.55,119.55a11.82,11.82,0,0,1,7.09,4.45s-5.52,2.56-10.71,0l-.82-2S118,119.32,119.55,119.55Z"/><path class="cls-17" d="M121.43,125.12c3-.3,3.33-2.26,2.24-3.89a10,10,0,0,0-4.12-1.69,3,3,0,0,0-1.7.45c-1.7,1.63-.84,4.67,2.23,5.09A13.11,13.11,0,0,0,121.43,125.12Z"/><path class="cls-19" d="M120,122.4c2.25.27,1.85-2.26,0-2.26S118.73,122.25,120,122.4Z"/><path class="cls-16" d="M70.13,126.75s-8.31,1-7.95,10.84C62.19,137.59,61,126.75,70.13,126.75Z"/><path class="cls-16" d="M68.69,121.7s-6,1.57-9.27-.12C59.42,121.58,62.79,124.35,68.69,121.7Z"/><path class="cls-16" d="M68.13,140.53a18.07,18.07,0,0,0-4.05,17.73l3.21,10.81S56.14,147.45,68.13,140.53Z"/><path class="cls-16" d="M120.88,147.29c1.23,4.17,4.91,2.95,4.91,5.65s-2,7.37-2,7.37,4.65-7,2.8-9.79A48.09,48.09,0,0,1,120.88,147.29Z"/><path class="cls-16" d="M128,126.25s5.32.92,5.78,4.39C133.79,130.64,134.25,126.71,128,126.25Z"/><path class="cls-16" d="M128,126.25a18.08,18.08,0,0,1,4.39,7.16A10.94,10.94,0,0,0,128,126.25Z"/><path class="cls-16" d="M119.91,161.94s-2,19.39-6.46,23.7l-4.5,4.31s-.17.86.13.86a61.4,61.4,0,0,0,6.7-6.4c1.1-1.4,6.61-21.13,6.12-22.24S119.91,161.94,119.91,161.94Z"/><path class="cls-16" d="M95.91,120.5s6.93-.28,7.77.55A9.79,9.79,0,0,0,95.91,120.5Z"/><path class="cls-16" d="M99.5,119.14a15.1,15.1,0,0,1-3.78-.25C94.58,118.51,98.23,118.51,99.5,119.14Z"/><path class="cls-16" d="M93,114.41s4.88-10.17,4.88-15.26c0,0-4.37,14-5.79,14.41C92.49,114.33,93,114.41,93,114.41Z"/><path class="cls-16" d="M103.12,99.29s-1.88,15.86-.81,16.13S103.12,99.29,103.12,99.29Z"/><path class="cls-16" d="M111,106.22S126,105,131.76,109.58C131.76,109.58,126.27,103.17,111,106.22Z"/><path class="cls-16" d="M68.89,103.37s14.53-3.66,21-.1C89.89,103.27,83.43,97.86,68.89,103.37Z"/><path class="cls-16" d="M69.2,97.28s14.53-3.66,21-.1C90.2,97.17,83.73,91.76,69.2,97.28Z"/><path class="cls-16" d="M111.94,98.91s14.94-1.22,20.73,3.35C132.67,102.26,127.19,95.86,111.94,98.91Z"/><path class="cls-20" d="M100.83,149.47s4.92-3.62,6.15-2.61c0,0-4.63-18.9.66-29,0,0-5.33,3.05-5.4,4.64S100.83,149.47,100.83,149.47Z"/><path class="cls-20" d="M113.21,148.57s3.25-.27,3.52-1.62c0,0,1.89,11.37,3.79,12.18,0,0-1.35,2.16-2.71,1.89C117.81,161,114.83,158.86,113.21,148.57Z"/><path class="cls-7" d="M80.75,116.27s1.29,1.12.43,2.07A2.9,2.9,0,0,1,80.75,116.27Z"/><path class="cls-7" d="M121.71,120.72s1.29,1.12.43,2.07A2.9,2.9,0,0,1,121.71,120.72Z"/><g class="cls-21"><path class="cls-22" d="M69.5,114.48c5.1-3.68,11.31-3.31,17.14-1.94.61.14,2.09-1.79,1.79-2.35-1.37-2.51-6.49-1.69-8.9-1.8-3.14-.15-4.37.5-6.2,3-1,1.4-.33,1.91.72.5,1.28-1.73,4.66-.94,6.49-.84s5.07-.39,6,1.4l1.79-2.35c-6.34-1.49-12.68-1.65-18.15,2.3-.49.36-1.85,2.92-.71,2.09Z"/></g><g class="cls-21"><path class="cls-22" d="M132.06,120.8c-.83-2.61-2.09-6.05-4.53-7.63-1.33-.86-2.62-.73-4.15-.71-2.81,0-5.62.11-8.43.17-.76,0,.79,2.37,1.62,2.42,2.44.13,5.77-.25,8.13.44,1,.29.9.53,1.59.86a14.33,14.33,0,0,1,2.52,1l-.19-1.74a36,36,0,0,1-3.23-2.21l.91,2.11,2.18.95c1.49,1.4,1.29-.45.35-1.33a6.83,6.83,0,0,0-4.15-2c-.86-.11.74,2,.91,2.11a42.41,42.41,0,0,0,3.76,2.56c1.26.77.17-1.42-.19-1.74-4-3.52-9.21-3.12-14.22-3.39l1.62,2.42,7.23-.14c2,0,3.52-.43,5,1.63a11.56,11.56,0,0,1,1.25,3.17c.23.71,2.46,2.56,2,1.09Z"/></g><path class="cls-23" d="M35.79,23c-1.51,1.21-6.12,5.32-6.91,14H26.34c.73-9.5,6.73-14.07,6.73-14.07h-9.2V20.65H35.79Z"/><path class="cls-23" d="M160.52,246.78c1.51-1.21,6.13-5.32,6.91-14H170c-.73,9.5-6.73,14.07-6.73,14.07h9.2v2.27H160.52Z"/><path class="cls-23" d="M36.13,52.74,29.31,41.88a.78.78,0,0,0-1.31,0L21.16,52.74a.78.78,0,0,0,0,.83L28,64.43a.78.78,0,0,0,1.31,0l6.83-10.87A.78.78,0,0,0,36.13,52.74Z"/><path class="cls-23" d="M176,216.68l-6.83-10.87a.78.78,0,0,0-1.31,0L161,216.68a.78.78,0,0,0,0,.83l6.83,10.87a.78.78,0,0,0,1.31,0L176,217.51A.78.78,0,0,0,176,216.68Z"/></svg>