<svg id="Layer_1" data-name="Layer 1" xmlns="http://www.w3.org/2000/svg" viewBox="0 0 196 266.67"><defs><style>.cls-1{fill:#f8e4e3;}.cls-2{fill:#231f20;}.cls-3{fill:#010101;}.cls-4{fill:#eec5a6;}.cls-5{fill:#60434c;opacity:0.5;}.cls-6{fill:#f1c9b1;}.cls-7{fill:#6b3720;}.cls-8{fill:none;stroke:#e4b69d;stroke-miterlimit:10;stroke-width:0.5px;}.cls-9{fill:#f4d4c3;}.cls-10{fill:#381c15;}.cls-11{fill:#e9c3b8;}.cls-12{fill:#ebf4f0;}.cls-13{fill:#959686;}.cls-14{fill:#1d1611;}.cls-15{fill:#e0b6a0;}.cls-16{fill:#e89378;}.cls-17{fill:#f8e8d7;}.cls-18{opacity:0.15;}.cls-19{fill:#e4b69d;}.cls-20{fill:#f4bf88;}.cls-21{fill:#7f6047;}.cls-22{fill:#bb8f6b;}.cls-23{fill:#ffe5be;}.cls-24{fill:#754f42;}</style></defs><title>badbitchcards</title><rect class="cls-1" x="8.63" y="8.48" width="178.58" height="249.45" rx="8.5" ry="8.5"/><path class="cls-2" d="M25,31.84a3.53,3.53,0,0,0,3.68,3.38,3.34,3.34,0,1,0,0-6.68,4.19,4.19,0,0,0-3,1.18c-.86-.33-1.59-.66-2.42-1l2.12-8.12H34v2.27H27L25.8,27.6a4.57,4.57,0,0,1,3.33-1.21,5.18,5.18,0,0,1,5.55,5.42c0,3.08-2.37,5.57-6,5.57-3.48,0-5.82-2.27-6-4.84Z"/><path class="cls-3" d="M28.85,41.91c4.64,4.41,9.27,8.82,9.27,13.22a4.53,4.53,0,0,1-4.65,4.39c-2.12,0-3.27-.92-4.34-2.76,1.07,3.82,2.22,5.74,4.34,5.74H24.23c2.12,0,3.27-1.92,4.34-5.74-1.07,1.84-2.22,2.76-4.34,2.76a4.53,4.53,0,0,1-4.65-4.39C19.57,50.73,24.21,46.32,28.85,41.91Z"/><path class="cls-4" d="M75.26,147.28s1,9.6,1.52,14.91-2.65,17.4-2.65,17.4,7,33,30.86,33,32.68-32.65,32.68-32.65-12.09-12.55-8.16-28.89"/><path class="cls-5" d="M103.43,185.85c9.81,0,24.65-22.27,24.65-22.27l.74-10.51-26.17,3.48L73.14,139.44a18.23,18.23,0,0,0,3.34,7.31C77.86,159.87,80.61,184.52,103.43,185.85Z"/><path class="cls-6" d="M101.76,170.11c13.85-.28,16.52-4.21,22.2-11.32s10.35-12.29,12-16.17,4.34-15.53,4.34-22S141.65,109,142,103.48s.67-33.32-24-33.32c-6,0-28.7,8.41-34,11s-11.68,16.17-11,20.7,6.42,28.32-1.59,37.38c0,0,.71,5.61,8.15,12.66,4.13,5,7.44,9.94,9.92,12.34A19.87,19.87,0,0,0,101.76,170.11Z"/><path class="cls-7" d="M107.42,137.78c3.21-3,4.55-3.74,5.26-3.56v.8"/><path class="cls-7" d="M97.39,135c-.53-.8-.18-1.38.8-.83s3.68,3.58,4.46,3.94l.78.36"/><path class="cls-8" d="M97,134.34c-2.61-1.6.47-7.67,2.24-7s1.49,1.59,1.49,1.59"/><path class="cls-8" d="M109.37,128.2c.51-1.55,5.92,1,3.86,6.36"/><path class="cls-9" d="M85.2,115.82a23,23,0,0,0,7.18-1L80,113.05A7.67,7.67,0,0,0,85.2,115.82Z"/><path class="cls-9" d="M122.18,115.78c2.82-.43,5-1.76,5.9-4.77-4.6-1.27-12.79,3.82-12.79,3.82S120.33,116.06,122.18,115.78Z"/><path class="cls-10" d="M126.75,111.56a4,4,0,0,0,2.07-1.18c-3.46-3.1-12.44-2.24-14,2.56C123.84,112.45,126.75,111.56,126.75,111.56Z"/><path class="cls-10" d="M80,113.05l-2-.45s3.9-3.45,7.94-3.45,7.46,4.36,7.46,4.36Z"/><path class="cls-11" d="M113.23,114c0,1.43,2.06.87,2.06.87l1-1.2-1.55-.69S114.34,113.18,113.23,114Z"/><path id="eye_right" data-name="eye right" class="cls-12" d="M114.78,112.94c2.24-1.78,5.33-4.7,12-1.38,0,1.49-3.21,3.27-6,3.27h-5.47Z"/><path id="eye" class="cls-12" d="M80,113.05c3.47-2.73,7.67-4.07,11.87-.62,1.58,1.56.53,2.39.53,2.39a52.58,52.58,0,0,0-6,0C84.72,115,80,113.05,80,113.05Z"/><path class="cls-13" d="M86.36,114.83c4,0,4.54-4.45.41-4.45S84.35,114.65,86.36,114.83Z"/><circle class="cls-14" cx="87.16" cy="112.37" r="0.8"/><path class="cls-13" d="M120.76,114.83c3,0,4.49-5.46-.79-4.68C118,109.84,116.08,114.58,120.76,114.83Z"/><path class="cls-12" d="M119.16,111.61l1.37-.22S119.49,110.07,119.16,111.61Z"/><circle class="cls-14" cx="120.37" cy="111.81" r="0.8"/><path class="cls-11" d="M94.35,114.36c-.2.56-2,.47-2,.47l.06-1.66A3.49,3.49,0,0,1,94.35,114.36Z"/><path class="cls-15" d="M85.8,139.15a14.52,14.52,0,0,0,4.9-4.71,15.07,15.07,0,0,1,3.25-3.6s-.46-.8-.77-.56-4.12,5.7-5.26,6.14-3,1.43-2.93,1.74S85.31,139.48,85.8,139.15Z"/><path class="cls-15" d="M117,132c1.54,2,6.45,7,7.71,7.71s-.42,2.8-.42,2.8a.55.55,0,0,1-.56-.7c.14-.7.91-1.39.21-1.68s-6.94-6.31-6.94-7.22Z"/><path class="cls-16" d="M87.91,141.35c4-.43,10.14-1.38,11.66-.86s3.76,1.89,5,2,2.5-.84,4-1.07,11,0,12.54,0c-6,6.26-9,12.52-16.57,12.52S94.78,146.79,87.91,141.35Z"/><path class="cls-17" d="M91.21,142.94c3.53,1.46,18,3.92,26.26-.47a12.34,12.34,0,0,1-13,7.08C95,148.45,91.21,142.94,91.21,142.94Z"/><path class="cls-15" d="M80,142.47c1.65,3,3.84,7.53,4.9,8.17-2.45.43-8.63-13.64-9.69-13.42l1-1.41S78.89,140.48,80,142.47Z"/><path class="cls-15" d="M97,110.93s.76-1.47,2.16.22c.65.87,2.7,5.62,3.25,14.71,0,0-3.46-5.95-3.84-7.62s1.2-4,.69-5.16S98.54,111.73,97,110.93Z"/><path class="cls-15" d="M109.13,111.08s-1.89,2-1.22,6.35.79,6.25.79,6.25-.12-10.24.75-11.49S109.13,111.08,109.13,111.08Z"/><path class="cls-12" d="M85.86,112.18s.71-.79,1.05-.83C86.92,111.36,85.53,110.42,85.86,112.18Z"/><g class="cls-18"><path class="cls-10" d="M77.23,105.24a16.27,16.27,0,0,1,9.42,1c2.82,1.26,5.57,2.72,8.34,4.09.76.38,1.65-1.84,1.53-2.36-.39-1.67-1-2.06-2.73-2.56a41.9,41.9,0,0,1-6-2.14L86.41,106c1.68.49,7.06,1.19,8.13,2.63.51.69,2.09-1.77,1.59-2.44-1.33-1.79-6.24-2.25-8.35-2.87-.81-.24-2.09,2.34-1.36,2.67a34.5,34.5,0,0,0,4.35,1.74c1.58.47,3.59.29,4.06,2.33l1.53-2.36c-3.11-1.53-6.2-3.29-9.43-4.56-2.89-1.13-5.61-1-8.65-.62-.86.12-1.8,2.82-1,2.72Z"/></g><g class="cls-18"><path class="cls-10" d="M130.85,100.49c-3.59-1.88-8.75.07-12.28,1.48-2.45,1-4.69,2.27-7.22,3-1.28.38-2.19,0-2.42,1.63-.09.6,1.3,2.52,2,2.18A138.28,138.28,0,0,1,124,103.28c.37-.14-1.11-2.6-1.93-2.3A138.28,138.28,0,0,0,109,106.51l2,2.18c.16-1.14,7.15-3.4,8.18-3.85,3.41-1.5,9.27-4,13-2.06.67.35-.68-2-1.31-2.29Z"/></g><path class="cls-19" d="M109.27,128.24a6.19,6.19,0,0,0-.37,3.2,18.15,18.15,0,0,1-.47-5.61A4.06,4.06,0,0,1,109.27,128.24Z"/><path class="cls-15" d="M119.9,118.52s7.78.34,11.33-2.54C131.23,116,128.33,119.22,119.9,118.52Z"/><path class="cls-15" d="M87.89,117.28s-6.83.14-9.82-2.28C78.08,115,80.78,118,87.89,117.28Z"/><path class="cls-15" d="M116.09,143.11a3.2,3.2,0,0,0,.62.74,10,10,0,0,0,.75-1.38C117,142.7,116.56,142.91,116.09,143.11Z"/><path class="cls-15" d="M92.6,144.45a2.33,2.33,0,0,0,.42-.93,14.93,14.93,0,0,1-1.82-.58A11.07,11.07,0,0,0,92.6,144.45Z"/><path class="cls-20" d="M104.47,42.37c16.37,0,34.86,15.34,40.76,24.78s2.36,13,9,18.88,12.59,21.39,7.87,34.3c3.93,10.82,9,11.72,9,15.26s-4.33,8.62-2,14,7.08,11,3.93,20.76-1.57,14.46,2.75,20.76,5.51,31.08-6.69,37S128.86,216.24,130,206.8s9.41-10.62,4.71-14.54-6-1.52-6.59-10.61.74-28.6.74-28.6,9.76-7,11.19-32.24-21.59-42.6-21.67-50.46c-5.63,1.56-12,2.39-33,11-8,5.37-10.71,17.95-10.69,19.33s6.51,34.44-1.52,38.75c0,4.82,5.59,13.13-1.47,22.18-1.51,7.7,4.49,9,6.36,13.42s6.44,15.47-6.61,22.37c0,2.69-.26,7.91,6,11.27s-1.35,10.6-11.44,10.6c0,0-10.26-7.4-11.61-5s-9.68,5.61-11.06-4.31c0,0-8.68-2.62-14.75,3.17-4.41-4,10.61-9.65,11.3-11.44s-9.37-4.13-9.37-13.09-6.26-5.42-11.53-6.64-3.75-3.45-3.75-3.45,11.24,4.86,8.61-3.85-6.49-21.45,1-28.86,8.31-4.6,9.53-8.54-.81-20.69,11.76-32.49,9.32-30.23,16-41.38S89.08,42.68,104.47,42.37Z"/><path class="cls-21" d="M109.26,72.74l7.81-2.38s3.26,5.61,3.3,5.21c.08-.78,7.92-23.28,6.38-25.66s-20.09-10.41-26-7.29C100.73,42.62,118.83,54.46,109.26,72.74Z"/><path class="cls-6" d="M118.34,70.36c1.67-5.18,2.9-7.19,3.1-10.33S116,44,111.7,43.28s-2.44-.91-2.44-.91,17.44,13.67,7.81,28h1.28"/><path class="cls-21" d="M61.12,90.66c3.85-5.78-6.29,19.71-6.29,19.71A37,37,0,0,1,61.12,90.66Z"/><path class="cls-22" d="M54.83,155.37c-9,7.19-10.78,13.18-10.78,13.18Z"/><path class="cls-21" d="M65.61,89.81C68.77,60.76,98,55,108.86,54.46c0,3.15-34.06.53-40.62,31.77Z"/><path class="cls-21" d="M139.69,67.33S142.15,78,148.21,82l-6.29-14.7Z"/><path class="cls-21" d="M130.37,75.1c-1.23,20.8,28.17,31.85,21,53.31-2,6-5.93,11.44-6.48,17.84a18.38,18.38,0,0,0,3.19,11.39c5.71,9.09,17.89,15.9,14.42,28.21-1.73,6.13-6.14,11.5-6.77,17.94a12.38,12.38,0,0,0,1.16,6.59c1.92,4.1,6.94,8.4,3.51,13-.48.64,1.63,2.69,1.93,2.3,2.9-3.86.41-7.75-1.8-11.25-4.53-7.17-2.07-12.57,1.22-19.56,2.23-4.75,4.34-9.74,3.12-15.06-.86-3.77-3.11-7.07-5.51-10-3.44-4.23-7.85-7.91-10.48-12.73-3.77-6.92-1.13-13.54,1.86-20.11,2.36-5.19,4.55-10.45,3.67-16.27a29.62,29.62,0,0,0-4.51-11c-6.37-10.23-18.31-19.3-17.54-32.43,0-.83-2-2.45-2-2.06Z"/><path class="cls-21" d="M69.09,143.15c1.77,7.39-2.89,13.62-5.76,20-3.06,6.84-2.78,12.22,1,18.7,1.86,3.15,4.25,6.23,5,9.9,1,4.76-1.58,8.42-2.92,12.74s-.69,10.35,4.63,11.24c.42.07,1.69-.6.9-.73-10.19-1.71-1.08-15.76-.92-20.85.2-6.32-4.89-11-7.25-16.42-5.56-12.78,9.76-22.37,6.73-35-.11-.45-1.56-.08-1.45.39Z"/><path class="cls-21" d="M41,201.08c6.55-3.14,7.29-10.66,4.79-16.85-4-9.87-13.6-18.41-7.37-29.73,4.31-7.83,14.15-9.06,17.86-17.63A20.47,20.47,0,0,0,54.36,117c-.35-.51-1.74,0-1.33.62A19.85,19.85,0,0,1,52.37,141c-4.44,5.58-11.82,6.76-15.35,13.38-3.18,6-2.49,12.29.52,18.17,3.77,7.36,15.11,21.85,2.8,27.75-.9.43-.09,1.14.63.8Z"/><path class="cls-23" d="M111.32,57.23A97.65,97.65,0,0,0,91.24,63.3c-5.52,2.35-11.79,5.1-15.53,10a20.89,20.89,0,0,0-3.37,8A51.58,51.58,0,0,1,68.9,92C66,97.82,62,103,59.46,109c-2.3,5.56-2.38,11.33-2,17.25.34,6.13,1.2,12.91-1.53,18.64-2.61,5.48-8.16,7.55-12.63,11.14s-5.82,8.77-4.1,14.34c2.3,7.46,7.76,13.56,8.68,21.5.45,4-.27,8.13-3,11.16-2.91,3.21-7.56,5-11.58,2.77-.21-.11-.9.06-.53.27,3.83,2.09,8.32,1,11.56-1.69,4.65-3.92,5.15-10.23,3.69-15.81-1.84-7-6.86-12.71-8.47-19.77A11.87,11.87,0,0,1,41,159.23c1.89-2.73,4.89-4.44,7.62-6.2,4.52-2.91,8-6.25,9.24-11.66,1.44-6.19.28-12.68.15-18.95a35.49,35.49,0,0,1,5.15-19.18c3.19-5.53,7-10.81,8.74-17,1.13-4,1.54-8.31,3.86-11.87s5.93-5.84,9.57-7.74a94.54,94.54,0,0,1,26.2-9c.49-.09.15-.43-.2-.36Z"/><path class="cls-23" d="M126.75,67.73c1.13,6.42,1.95,13,3.67,19.3,1.65,6,4.8,10.53,9.09,15,4.84,5,8.74,10.1,9.56,17.23s-2,12.94-4.9,19.1c-2.33,4.91-4.44,10.3-3.28,15.83,1.28,6.08,6.52,7.75,10.91,11.21a24.23,24.23,0,0,1,8.66,14.73c1.09,6.23-.82,11.87-3.19,17.57-2.3,5.52-4.62,11.15-3,17.19,1.13,4.26,4,7.9,8.52,8.5.35,0,.7-.3.2-.36-5.71-.76-8.34-6.75-8.54-11.92-.22-5.81,2.8-11.18,4.84-16.45,3.77-9.74,2.62-20.51-5.18-28-4-3.86-10.19-5.41-12.1-11.14-2-6.1.66-12.41,3.28-17.86,2.53-5.25,4.87-10.4,4.69-16.36a24.89,24.89,0,0,0-5.8-15.12c-4.47-5.41-9.72-9.54-12.15-16.38-2.49-7-3.25-14.74-4.53-22,0-.27-.79-.24-.75,0Z"/><path class="cls-23" d="M126.29,57.29c3.28-2,7.38,3.91,8.76,6A50.49,50.49,0,0,1,138.59,70c2.11,4.62,3.93,9.46,6.93,13.61,3.38,4.67,8.17,8.07,11.42,12.85a33.54,33.54,0,0,1,5.65,16.11,32.53,32.53,0,0,1-.37,8.23c-.52,3-1.56,5.84-2,8.82-.8,5.54,1.7,9,5.16,12.95,2.06,2.36,3.86,4.7,4.35,7.89s-.34,6.55-1.22,9.66c-1.49,5.28-3,10.33-1.83,15.85,1.07,4.9,4,10.09,8.29,12.84a5.29,5.29,0,0,0,4.61.85,2.83,2.83,0,0,0,1.73-3.85c-.11-.22-.85-.15-.72.1,1.73,3.6-3.84,3.57-5.66,2.22a18.06,18.06,0,0,1-3.17-3.13,21.76,21.76,0,0,1-3.75-6.91c-2-6-.59-11.56,1.1-17.47,1.34-4.67,2.51-9.73,0-14.22s-7.4-7.27-8.2-12.57c-.85-5.65,2.22-11.31,2.5-16.95a33.89,33.89,0,0,0-2.72-15c-2.08-4.83-5.29-8.64-9-12.31a45,45,0,0,1-9.41-13c-2.36-5-4.21-10.34-7.55-14.8-1.87-2.5-5.51-6.9-9-4.74-.36.22.32.39.53.27Z"/><path class="cls-23" d="M107.87,43.6c-11.94-.58-25,2-35,8.84S61.25,70.73,59,81.75A58.14,58.14,0,0,1,52.52,99.3c-3.3,5.73-7.4,11-11.3,16.28C34,125.41,27,136.69,28.15,149.38c.68,7.65,3.5,15.09.49,22.62a44.77,44.77,0,0,1-5,9.2A9.68,9.68,0,0,1,19.11,185c-2.58.83-5.67-.43-6.2-3.19-.05-.27-.79-.23-.75,0,.67,3.48,4.92,4.55,7.87,3.31a10.66,10.66,0,0,0,4.33-3.86,46.58,46.58,0,0,0,4.85-8.8c2.71-6.46,1.21-12.92.16-19.56a36.81,36.81,0,0,1,2.7-21c5.44-12.53,15.54-22.13,22-34A59.73,59.73,0,0,0,59.88,81c1.27-6.26,2.19-12.76,5.05-18.55,3.38-6.83,9.52-11.07,16.4-13.93A61.32,61.32,0,0,1,107.87,44c.45,0,.45-.35,0-.37Z"/><path class="cls-23" d="M110.77,70.69c-7.65,2.75-15.51,5.21-23,8.39C81.83,81.61,76.52,85.36,75,92c-.89,3.75-.65,7.66-.51,11.48A80.42,80.42,0,0,1,74,115.86a75.37,75.37,0,0,1-7.68,25.26c-.13.25.61.33.72.1A75.7,75.7,0,0,0,74.34,119a74.54,74.54,0,0,0,.94-11.67c0-3.78-.39-7.56-.15-11.34.53-8.17,5.26-13.15,12.49-16.34,7.6-3.36,15.7-5.81,23.52-8.62.46-.17-.12-.42-.38-.32Z"/><path class="cls-23" d="M70.59,144.27c.83.66,0,4.44-.16,5.32a23.17,23.17,0,0,1-2.1,5.3c-1.64,3.17-3.68,6.12-5.18,9.37a16.13,16.13,0,0,0-1.71,8.89c.56,4.13,3.06,7.62,4.94,11.22a29.2,29.2,0,0,1,3.42,13.78,28.64,28.64,0,0,1-.65,5.9c-.49,2.23-1.68,4.38-1.94,6.65-.68,6,6.86,8.11,10.2,3.68.15-.2-.57-.31-.72-.1a4.82,4.82,0,0,1-8.38-.84c-1-2.35.22-4.63.92-6.87a28.92,28.92,0,0,0,1.28-10.12A28.62,28.62,0,0,0,68,186.11c-1.53-3.38-3.78-6.41-5-9.91-2.44-6.77,1.15-12.6,4.46-18.3A33.26,33.26,0,0,0,71,150.24c.47-1.68,1.34-5.3-.24-6.58a.61.61,0,0,0-.59,0c-.39.18-.36.11-.47.53a.12.12,0,0,0,0,.14l.2.16c.18.15.9,0,.65-.19Z"/><path class="cls-23" d="M74.73,145.25a28.73,28.73,0,0,1-2.89,15.51c-1.84,3.83-3.4,7.54-1.16,11.55,1.94,3.49,5.52,6.09,6.26,10.2a10.13,10.13,0,0,1-1.71,7,19.21,19.21,0,0,1-2.51,3.15A7.63,7.63,0,0,1,71.27,194q-.8.87-2.1-.06-2.57.49-1.5-1.12c.14-.22-.58-.32-.72-.1a1.9,1.9,0,0,0,1.52,2.81c1.43.26,2.73-.72,3.73-1.59,4-3.44,7.19-8.9,4.62-14.08-2.7-5.46-8.38-8.59-5.87-15.49,1.16-3.19,3-6,3.83-9.35a28,28,0,0,0,.7-9.82c0-.27-.77-.25-.75,0Z"/><path class="cls-23" d="M130.87,154.45v-.61c0-.26-.75-.26-.75,0v.61c0,.26.75.26.75,0Z"/><path class="cls-23" d="M135.71,203.65c3.71-2.13,4.34-6.63,3.35-10.5-1.55-6.09-7.11-10.21-8.72-16.32-3.79-14.34,9.79-26.86,7-41.3-.05-.27-.79-.23-.75,0,2.61,13.55-8.74,24.9-7.53,38.34.53,5.93,4.33,10,7.27,14.89,2.6,4.32,4.17,11.58-1.16,14.62-.36.21.32.38.53.27Z"/><path class="cls-24" d="M110.49,107.88a3.78,3.78,0,0,1,1.12-2.66"/><path class="cls-24" d="M112,107.83a3.78,3.78,0,0,1,1.51-3.1"/><path class="cls-24" d="M113.7,107.53a7.62,7.62,0,0,1,.95-3c.15-.27.44-.57.73-.44"/><path class="cls-24" d="M115.22,107l.45-1.65a3.83,3.83,0,0,1,.44-1.13,1.3,1.3,0,0,1,1-.62"/><path class="cls-24" d="M117.06,106.36a5.3,5.3,0,0,0,.61-1.34,7.92,7.92,0,0,1,.4-1.28,1.35,1.35,0,0,1,1-.81"/><path class="cls-24" d="M119.34,104.81l.67-1.66a3.15,3.15,0,0,1,.5-.93,1.07,1.07,0,0,1,.94-.39"/><path class="cls-24" d="M120.87,104.17c.81-.75.87-2.15,1.8-2.75a.85.85,0,0,1,.82-.11"/><path class="cls-24" d="M123,102.91a6.46,6.46,0,0,1,.85-1.25,2.17,2.17,0,0,1,1.3-.71,2.4,2.4,0,0,0,.65-.09"/><path class="cls-24" d="M124.92,102.13l2-1.27a1.1,1.1,0,0,1,.38-.17.37.37,0,0,1,.38.13"/><path class="cls-24" d="M127.51,101.77l1.93-1.23a1.21,1.21,0,0,1,1.11-.26c.16.08.33.22.48.14"/><path class="cls-24" d="M130,101.51a3.6,3.6,0,0,1,1.07-.63,1.22,1.22,0,0,1,1.17.19"/><path class="cls-24" d="M131.43,101.65a.42.42,0,0,1,.48-.14"/><path class="cls-24" d="M109.8,108.26l-.16.17a4.93,4.93,0,0,1-.3-3c0-.21.12-.48.33-.46"/><path class="cls-24" d="M95.88,110.16a3.1,3.1,0,0,0-.47-3.61"/><path class="cls-24" d="M94.92,110a4.38,4.38,0,0,0-.63-3.38"/><path class="cls-24" d="M93.31,109.11a4.36,4.36,0,0,0-.85-3.68"/><path class="cls-24" d="M91.93,108.33a.75.75,0,0,0,0-.67l-.6-2.26"/><path class="cls-24" d="M90.41,107.61a2.22,2.22,0,0,0-.13-1.74c-.24-.55-.59-1-.81-1.6"/><path class="cls-24" d="M89.33,107.18a2.19,2.19,0,0,0-.39-1.75,6.49,6.49,0,0,0-1.3-1.3"/><path class="cls-24" d="M88,106.81a16.66,16.66,0,0,0-1.67-3.12"/><path class="cls-24" d="M86.16,105.89A8,8,0,0,0,85,103"/><path class="cls-24" d="M85,105.69a4.42,4.42,0,0,0-1.66-2.84"/><path class="cls-24" d="M83.37,104.79a3.87,3.87,0,0,0-1-1.92c-.12-.13-.35-.25-.46-.1"/><path class="cls-24" d="M82,104.84a2.49,2.49,0,0,0-.93-1.9"/><path class="cls-24" d="M80.32,104.34a1.65,1.65,0,0,0-1-1.64"/><path class="cls-24" d="M79.13,103.76a3.18,3.18,0,0,0-1.23-.9"/><path class="cls-24" d="M78,103.83a4.79,4.79,0,0,0-1.28-.06"/><path class="cls-2" d="M173.27,238a3.53,3.53,0,0,0-3.68-3.38,3.34,3.34,0,1,0,0,6.68,4.18,4.18,0,0,0,3-1.18c.86.33,1.59.66,2.42,1l-2.12,8.12h-8.62v-2.27h7l1.21-4.69a4.58,4.58,0,0,1-3.33,1.21,5.18,5.18,0,0,1-5.55-5.42c0-3.07,2.37-5.57,6-5.57,3.48,0,5.82,2.27,6.05,4.84Z"/><path class="cls-3" d="M167.42,227.89c-4.64-4.41-9.27-8.82-9.27-13.22a4.53,4.53,0,0,1,4.65-4.39c2.12,0,3.27.92,4.34,2.76-1.07-3.82-2.22-5.74-4.34-5.74H172c-2.12,0-3.27,1.92-4.34,5.74,1.07-1.84,2.22-2.76,4.34-2.76a4.53,4.53,0,0,1,4.65,4.39C176.7,219.07,172.06,223.48,167.42,227.89Z"/></svg>