<svg id="Layer_1" data-name="Layer 1" xmlns="http://www.w3.org/2000/svg" viewBox="0 0 196 266.67"><defs><style>.cls-1{fill:#f8e4e3;}.cls-2{fill:#231f20;}.cls-3{fill:#010101;}.cls-4{fill:#7b1315;}.cls-5{fill:#1d1611;}.cls-6{fill:#381c15;}.cls-7{fill:#58595b;}.cls-8{fill:#5d0101;}.cls-9{fill:#e1bb9e;}.cls-10{fill:#e1bca6;}.cls-11{fill:#c6a694;}.cls-12{fill:#b86764;}.cls-13{fill:#6b3720;}.cls-14{fill:#d39c82;}.cls-15{fill:#ebf4f0;}.cls-16{fill:#572000;}.cls-17{fill:#b08874;}.cls-18{fill:none;stroke:#b08874;stroke-miterlimit:10;stroke-width:0.5px;}.cls-19{fill:#f8e8d7;}.cls-20{fill:#d0af9b;}.cls-21{fill:#e7c1aa;}.cls-22{opacity:0.15;}</style></defs><title>badbitchcards</title><rect class="cls-1" x="8.63" y="8.48" width="178.58" height="249.45" rx="8.5" ry="8.5"/><path class="cls-2" d="M23,33.36a6.32,6.32,0,0,0,3,.78c4,0,5.57-2.6,5.67-5.8a4.61,4.61,0,0,1-4.23,2.09,5.41,5.41,0,0,1-5.65-5.52,5.76,5.76,0,0,1,6-5.65c3.2,0,6.35,2.29,6.35,7.51,0,6-2.67,9.58-8.17,9.58a7.91,7.91,0,0,1-3.78-1Zm4.79-11.92a3.4,3.4,0,0,0-3.53,3.43,3.35,3.35,0,0,0,3.53,3.45,3.44,3.44,0,1,0,0-6.88Z"/><path class="cls-3" d="M33.08,50.55h-.24a5.16,5.16,0,1,0-9.74,0h-.24A5.16,5.16,0,1,0,27,58.82C26.41,61,25.66,63.28,24.85,64h6.24c-.81-.73-1.56-3-2.12-5.19a5.16,5.16,0,1,0,4.11-8.28ZM28.2,54s0,0,0,0Z"/><path class="cls-2" d="M172.45,232.45a6.32,6.32,0,0,0-3-.78c-4,0-5.57,2.6-5.67,5.8a4.61,4.61,0,0,1,4.23-2.09,5.41,5.41,0,0,1,5.65,5.52,5.75,5.75,0,0,1-6,5.65c-3.2,0-6.35-2.29-6.35-7.51,0-6,2.67-9.58,8.17-9.58a7.92,7.92,0,0,1,3.78,1Zm-4.79,11.92a3.4,3.4,0,0,0,3.53-3.43,3.35,3.35,0,0,0-3.53-3.45,3.44,3.44,0,1,0,0,6.88Z"/><path class="cls-3" d="M162.36,215.25h.24a5.16,5.16,0,1,0,9.74,0h.24a5.16,5.16,0,1,0-4.12-8.28c.56-2.18,1.31-4.46,2.12-5.19h-6.24c.81.73,1.56,3,2.12,5.19a5.16,5.16,0,1,0-4.11,8.28Zm4.87-3.45s0,0,0,0Z"/><path class="cls-4" d="M91.28,56.8c10.64.42,17.63-.42,36.34,11.83,18.92,15.57,12.07,22,17.88,32.17s16.19,32.6,17.23,46c1.45,9-4.36,13.79-4.57,15-.1.59,2.89,1.32,6.54,2.59-2.37,5.31-35.06,62.6-35.06,62.6l-77.45-.1s-14.67-62.59-14.67-65.7c0-2.62,2-4.14,3.06-5.43-.31-6.63-1.87-34.64,1.87-47.19,1.87-14.73,5-21.3,11.21-30.79S69.75,60.35,75,59,91.28,56.8,91.28,56.8Z"/><path class="cls-5" d="M113.88,69.55s-6-6.34-7.17-6.71-15.07-4-16.9-3.78-9,2.56-10.34,2.68S64.06,72.11,62.29,74.43,56.28,77,55,86.5c-4,9.27-4,13.66-3.49,16.47S49.83,124.12,54,131.71l1.61,2.69a77,77,0,0,1-.15-19.52c1.8-8,3.14-9.89,7.33-11.23s7.86-6.55,15.2-9.29,25.47-9,26.63-8.5,7.82,18.05,10,19.93,4.08,8.27,12.73,20.1l.26-3.38s-3.09-8.26-2.36-12.14-.37-7.8.37-9.63-.49-4-.86-5.51-.37-8.22-1.1-9.5-1.35-5.93-2.45-8S113.88,69.55,113.88,69.55Z"/><path class="cls-6" d="M108,81.72c.26-.7,5.06-7.35,5.9-7.87s-2.19,5.95-2.95,7.17S108,81.72,108,81.72Z"/><path class="cls-6" d="M104.59,85.77s7.64,3.47,10.55,18.34l-2.2,1.75Z"/><path class="cls-7" d="M69.64,71.8s5.05-4.76,7.59-4.94,6.74-.91,7.66-1.65,0-2.74,0-2.74S77.12,64.84,75,65.94s-6.88,4-7.72,5.85S69.64,71.8,69.64,71.8Z"/><path class="cls-8" d="M138.93,95.81s-1.07,23-1.23,25,.61,22.38.61,22.38,3.07-6.13,3.07-8S139.85,102.27,138.93,95.81Z"/><path class="cls-8" d="M150.38,139.95s-8.46,19.44-10.8,35.55-4.75,20.55-8.64,23.89-6.3,5-6.3,5,8.7-1.85,12.87-10.18,18.24-21.29,18.79-23.15.19-3.89,1.11-5.56,1-2.23,0-2.15-2.16,2.83-4,2.66-.75-7.07-1.91-8.15-4.66-.83-4.9-1.25,4.66-9.89,4.57-11.47S151.65,141.06,150.38,139.95Z"/><path class="cls-8" d="M145.81,197.83c.66-1.09,2.62-4.23,5.06-8.24,6.81-12.1,12.87-23,13.84-25.17l-1.58-.53c-4.21,5.41-10.86,18-11.1,19.76-.29,2.11-9,16.19-9,16.19-6.4,10.8-21.49,26.95-21.7,27.17h8.32l.47-.82C132.48,221.87,143.59,201.51,145.81,197.83Z"/><path class="cls-8" d="M53.7,226.93c-.55-2.5-12.25-52.19-15.84-67.46a4.86,4.86,0,0,0-.32,1.75c0,3.11,14.67,65.7,14.67,65.7Z"/><path class="cls-9" d="M76.39,178.6a61,61,0,0,0,17.34,24.25c10.79,2.79,11.52,2.3,11.52,2.3s1.7-18.55,11.28-22.55c0,0,1.94-6.43,3.27-7.27v-7.87s.28-11.39.66-13.29S79,166.41,76.39,178.6Z"/><path class="cls-10" d="M57.36,108.54s.84-2.93,4.81-4.6,11.28-8.15,18-10.45,21.52-8.36,24.45-7.73,7.73,18.39,10.66,20.69,4.18,2.72,7.31,8.78,3.13,9.4,4.81,10.66-5.43,12.33-6.06,22.36S115,179.6,84.73,179.6,51.72,115,57.36,108.54Z"/><path class="cls-11" d="M75.77,156.88s-1-1-1.59-1.08-2.79,1.61-2.24,3.17,2.93.89,3.11.61"/><path class="cls-12" d="M81.27,153.52c1.17.16,2.57,1.39,3,1.24s2.57-1.55,3.35-1.63a51.48,51.48,0,0,1,14.09,4s-8.25,6.7-16.82,6.7-10.74-5.68-10.74-5.68S80.1,153.36,81.27,153.52Z"/><path class="cls-13" d="M80.43,144s-.73-1.8-1.94-1.8-2.67,1.41-1.41,2.38"/><path class="cls-13" d="M87.07,145.55s-3.67-1.75,1.84-3.76c6.18-.47,3.93,2.58,3.42,2.79"/><path class="cls-5" d="M94.84,122.69s4.62-7.36,9.92-5.5a47.5,47.5,0,0,1,8.42,3.77v.38Z"/><path class="cls-14" d="M93.32,137.51a10.57,10.57,0,0,1,2,3.46c1.1,3.26-1.22,5-4.23,5.65-.47.1.12.38.38.32,2.71-.58,5.44-2,4.8-5.24A10,10,0,0,0,94,137.32c-.15-.18-.88-.07-.65.19Z"/><path class="cls-14" d="M75.24,139.08a5.72,5.72,0,0,0-1.09,3.31c.11,1.31,1.55,2.56,2.56,3.26.19.13.91,0,.65-.19-1.08-.74-2.49-2-2.47-3.35A5.93,5.93,0,0,1,76,139.18c.14-.22-.58-.32-.72-.1Z"/><path class="cls-15" d="M94.84,122.69a56.19,56.19,0,0,1,4.59-4.47c1.32-.81,4.47-2.89,13.76,3.12a50.8,50.8,0,0,1-10.78,1.59c-4.79,0-4.53-.91-5.34-.55S95.34,123.45,94.84,122.69Z"/><path class="cls-5" d="M78,123.62A8.62,8.62,0,0,0,67.93,119c-5.14,2.06-5.92,4.42-5.92,4.42l.28.18S75.17,120.47,78,123.62Z"/><path class="cls-15" d="M78,123.62s-3.85-5.81-9.21-4.38c-4.83,1.55-6.49,4.38-6.49,4.38s1.06,1.51,5.66,1.43,5.61-1.13,7.82-1.28Z"/><path class="cls-16" d="M68.27,119.42s-2.37,3.75,1.46,5.55l4.48-.93s1.14-2.13.57-3.58C74.79,120.46,71.39,117.9,68.27,119.42Z"/><path class="cls-16" d="M101.62,117.31s-1,4.57,1.58,5.61l3.93-.37a4,4,0,0,0,1.51-3.77S104.6,116.66,101.62,117.31Z"/><circle class="cls-5" cx="71.25" cy="121.28" r="1.23"/><circle class="cls-5" cx="105.05" cy="119.58" r="1.23"/><path class="cls-17" d="M76.84,119.55c-1.69-2.39-6.1-2.44-8.59-2s-7.09,2.31-7.12,5.4c0,.17.5.18.5,0,0-2.34,3.07-3.95,4.87-4.6,2.59-.94,7.9-1.45,9.85,1.3.1.14.58.07.48-.07Z"/><path class="cls-18" d="M95.65,119c.17-.26,4.8-5.94,14.16-1.53a21.29,21.29,0,0,1,4.06,2.56"/><path class="cls-5" d="M78.61,116.14l-.1,0a20.24,20.24,0,0,0-1.34-3,3.18,3.18,0,0,0-.46-.78,5.41,5.41,0,0,1-.61-.73c-.19-.29-.75-.87-1.13-.87"/><path class="cls-5" d="M77.22,116c0-.19-.16-.33-.22-.5s-.08-.34-.15-.5a3.82,3.82,0,0,0-.63-1c-.3-.33-.59-.68-.88-1s-.64-.86-1.26-1"/><path class="cls-5" d="M75.84,116c0-.42-.41-.71-.63-1a6.11,6.11,0,0,0-1.1-1.36c-.37-.31-.68-.7-1.06-1a3.44,3.44,0,0,0-1.48-.63"/><path class="cls-5" d="M73.84,115.64c0-.2-.38-.47-.5-.65-.4-.62-.87-1.15-1.32-1.73a3.94,3.94,0,0,0-1.11-.88c-.32-.22-.81-.81-1.22-.75"/><path class="cls-5" d="M72,115.39c-.56-.58-.92-1.26-1.43-1.87a3.85,3.85,0,0,0-1-.71,5.91,5.91,0,0,1-.88-.81"/><path class="cls-5" d="M70.07,115.26c0-.18-.13-.35-.22-.5s-.3-.55-.47-.8a5.52,5.52,0,0,0-.63-.77c-.29-.29-.69-.51-.95-.82"/><path class="cls-5" d="M68.44,114.89c0-.17-.14-.47-.21-.63a2.79,2.79,0,0,0-.6-.68c-.27-.28-.36-.71-.69-.92a6,6,0,0,0-.88-.4"/><path class="cls-5" d="M66.18,114c-.29-.89-1.63-1.3-2.39-1.63"/><path class="cls-5" d="M64.3,113.63a1.1,1.1,0,0,1-.56-.13,7.71,7.71,0,0,0-.88-.25,2.87,2.87,0,0,0-.92-.12,3.54,3.54,0,0,0-.65.12"/><path class="cls-5" d="M61.78,114.26c-.2,0-.32.1-.5.13a2.66,2.66,0,0,1-.47,0,3.56,3.56,0,0,0-1.27.15l0,.1"/><path class="cls-5" d="M60,115.39a1.8,1.8,0,0,0-1.13.44,2.62,2.62,0,0,0-1,1.57"/><path class="cls-5" d="M57.64,119.15c-.2.07-.21.34-.38.5"/><path class="cls-5" d="M91.28,115A4.75,4.75,0,0,1,94,110.87"/><path class="cls-5" d="M92.54,116a2.69,2.69,0,0,0,.63-1.25,12.33,12.33,0,0,1,1-2,3.77,3.77,0,0,1,.94-1.28c.23-.18.53-.51.83-.52l0-.1"/><path class="cls-5" d="M95.93,114.26c-.07-.36.35-.8.51-1.1s.18-.49.3-.74.31-.53.45-.8.2-.85.49-1.13a2.17,2.17,0,0,1,1-.5"/><path class="cls-5" d="M98.31,113.76c-.06-.2.28-.69.37-.88.2-.4.35-.82.58-1.21a11.37,11.37,0,0,1,.61-1.16c.26-.33.74-.89,1.2-.9"/><path class="cls-5" d="M101.83,113a2.36,2.36,0,0,1,.5-1.41,6.77,6.77,0,0,1,1.51-1.72,1.9,1.9,0,0,1,.65-.38,1.78,1.78,0,0,0,.6-.35,2.52,2.52,0,0,1,1-.53"/><path class="cls-5" d="M104.34,111.37c.16,0,.19-.19.3-.31a1.94,1.94,0,0,1,.57-.38c.51-.26,1-.55,1.52-.82a2.11,2.11,0,0,1,.9-.38c.32,0,.85.12,1.1-.12"/><path class="cls-5" d="M108,112.25a10,10,0,0,1,.72-.76A3.13,3.13,0,0,1,110,111a4.47,4.47,0,0,1,2,0"/><path class="cls-5" d="M110.74,112.88a3.48,3.48,0,0,1,1.65-.54c.7-.16,2.22-.34,2.74.29"/><path class="cls-5" d="M114.63,113.76a6.56,6.56,0,0,1,1.12,0,1.69,1.69,0,0,1,.92.38,2.81,2.81,0,0,0,.65.48c.36.19.57.53,1,.72.17.08.33.12.51.19s.23.18.37.22"/><path class="cls-19" d="M76.39,157.89c-.13,0,4.64-.51,6.16,0s8.56-.79,13.48-.24C96,157.66,82,159.27,76.39,157.89Z"/><path class="cls-20" d="M84.09,179.59C108.48,173.4,112,160,112,160c4.47-5.48,9.45-22.53,11.09-26.14s2.62-7.86,2.29-8.8a10,10,0,0,0-2.29-2.55s1.15-1.68,2-1.23-.87.41,2.23,4.61c0,0,.53.35.09,1.77s-6,12-7,26.51S102.07,177.51,96,178.44,84.09,179.59,84.09,179.59Z"/><path class="cls-11" d="M101.08,123.38s1.16,2.12,2.39,2.12,8.59.06,10.4-2.58C113.57,121.76,107.68,124.25,101.08,123.38Z"/><path class="cls-21" d="M94.23,125.06a5.8,5.8,0,0,1,1.8,5.15c-.57,3.13,0,8.24,2.66,11.54s.94,5,1.52,6,5.79,2,6.84,1.16,11.8-19.35,12.1-20.63-2.48-2.43-3.53-2.43a41.44,41.44,0,0,1-19.7-1.51S94.51,124,94.23,125.06Z"/><path class="cls-21" d="M56.4,125.06c.26-.2,2.46-2.64,3.13-2.14s.08,4.95,6.53,5.87,12.86-5.79,13.39-4.53S73,151.57,63.79,151.83s-6.46-19.51-6.34-21.21S56.4,125.06,56.4,125.06Z"/><path class="cls-21" d="M71.25,167.37s4.42,10.41,9.18,10.41,19.51-5.61,18-9.12-17.09-1.05-19-2.46-4.83-6.32-5.63-6.2-3.74,1.75-4.14,2.69S71.25,167.37,71.25,167.37Z"/><path class="cls-21" d="M56.4,118.35s.63-9.5,24-9,19.26-4.18,19.26-7.23S99.16,95,78.61,97.9,57,114,55.22,117.21C55.83,119.15,56.4,118.35,56.4,118.35Z"/><path class="cls-15" d="M69.34,121.22s.16-1.32.66-1.48C70,119.74,68.27,119.61,69.34,121.22Z"/><path class="cls-15" d="M102.83,119.34s.16-1.32.66-1.48C103.49,117.86,101.75,117.73,102.83,119.34Z"/><path class="cls-20" d="M123.09,122.51s1.15-1.68,2-1.23-.56.31,2.23,4.61"/><g class="cls-22"><path class="cls-6" d="M92.4,113.93c.87-1,5.85-1.44,7.19-1.62a22.1,22.1,0,0,1,5.41-.18c4.4.48,8.36,2.65,12.18,4.71l2.77-3.55c-4-1.53-9.14-4.67-13.6-4.33-2.3.17-12.18,5.33-12.68,2.8l-1.76,2.82c.54-.51,3-.48,3.6-.55l2.18-3.52-1.3.73c-.76.42-3,3.9-1.93,3.42a25.37,25.37,0,0,1,9.77-2.32c1.15-.05,2.95-3.63,2.43-3.61a26.7,26.7,0,0,0-10.27,2.51l-1.93,3.42,1.3-.73c.55-.31,2.92-3.61,2.18-3.52-2.58.31-4.31.27-6,2.36-.85,1.06-2.06,2.9-.18,3.69s6.43-2.12,8.13-2.75c6.13-2.28,11.53.92,17.28,3.11.95.36,3.36-3.23,2.77-3.55-5.11-2.76-10.18-5.2-16.13-4.8-3.72.25-9,.79-11.57,3.81-1.08,1.26-1.89,4,.15,1.63Z"/></g><g class="cls-22"><path class="cls-6" d="M56,121.07v.23c0,.54,1.3-.84,1.37-.92a10.49,10.49,0,0,0,1-1.39,2.22,2.22,0,0,0,.44-1v-.23c0-.54-1.3.84-1.37.92a10.49,10.49,0,0,0-1,1.39,2.22,2.22,0,0,0-.44,1Z"/></g><g class="cls-22"><path class="cls-6" d="M58.55,118.58c1-2.47,1.39-3.29,3.9-4.07a35.63,35.63,0,0,1,6-1.08c3.71-.47,6.84-1.19,7.82,3.21L78,113.82c-.27.25-7-2-8.4-2.13A17.47,17.47,0,0,0,61,112.78c-.84.32-2.67,3.62-2.17,3.52,4.8-1,11.46-3.59,16-.82.83.51,3.4-3.16,2.77-3.55-4.74-2.9-11.35-.25-16.35.75l-2.17,3.52c4-1.55,8-1.08,12-.14,1.69.39,3.84,1.63,5.5.84a4.15,4.15,0,0,0,1.3-6.46c-1.64-1.89-5-.9-7.11-.62-2.74.35-6.1.61-8.59,1.82-3.29,1.6-5,5.78-6.32,8.93-.78,1.88,2.29-1.2,2.62-2Z"/></g></svg>