<svg id="Layer_1" data-name="Layer 1" xmlns="http://www.w3.org/2000/svg" viewBox="0 0 196 266.67"><defs><style>.cls-1{fill:#f8e4e3;}.cls-2{fill:#231f20;}.cls-3{fill:#010101;}.cls-4{fill:#a57242;}.cls-5{fill:#c8a27d;opacity:0.8;}.cls-6{opacity:0.09;}.cls-7{fill:#8b5e3c;}.cls-8{fill:#dca66d;}.cls-9{fill:#eec5a6;}.cls-10{fill:#443123;opacity:0.07;}.cls-11{fill:#f0d0b4;}.cls-12{fill:#f7d6b9;}.cls-13{fill:#e4b69d;}.cls-14{fill:#b08874;}.cls-15{fill:#ebf4f0;}.cls-16{fill:#381c15;}.cls-17{fill:#fff;}.cls-18{fill:#6b3720;}.cls-19{fill:#814245;}.cls-20{fill:#f8e8d7;}.cls-21{fill:#d4a68c;}.cls-22{opacity:0.1;}.cls-23{fill:#be6d48;}.cls-24{opacity:0.15;}.cls-25{fill:#a36949;}</style></defs><title>badbitchcards</title><rect class="cls-1" x="8.63" y="8.48" width="178.58" height="249.45" rx="8.5" ry="8.5"/><path class="cls-2" d="M33.22,22.19a6.14,6.14,0,0,0-2.92-.71c-3.4,0-5.55,2.5-5.75,5.85a4.92,4.92,0,0,1,4.31-2.12,5.23,5.23,0,0,1,5.6,5.57c0,3.5-2.85,5.57-6,5.57S22,34.19,22,28.8c0-6.08,3.65-9.53,8.42-9.53a6.41,6.41,0,0,1,3.53.91Zm-4.79,12a3.44,3.44,0,1,0,0-6.88,3.35,3.35,0,0,0-3.53,3.45A3.42,3.42,0,0,0,28.43,34.22Z"/><path class="cls-3" d="M33.08,50.55h-.24a5.16,5.16,0,1,0-9.74,0h-.24A5.16,5.16,0,1,0,27,58.82C26.41,61,25.66,63.28,24.85,64h6.24c-.81-.73-1.56-3-2.12-5.19a5.16,5.16,0,1,0,4.11-8.28ZM28.2,54s0,0,0,0Z"/><path class="cls-2" d="M162.21,243.6a6.12,6.12,0,0,0,2.92.71c3.4,0,5.55-2.5,5.75-5.85a4.92,4.92,0,0,1-4.31,2.12A5.23,5.23,0,0,1,161,235c0-3.5,2.85-5.57,6-5.57s6.38,2.17,6.38,7.56c0,6.07-3.65,9.53-8.42,9.53a6.41,6.41,0,0,1-3.53-.91Zm4.79-12a3.44,3.44,0,1,0,3.53,3.43A3.42,3.42,0,0,0,167,231.58Z"/><path class="cls-3" d="M162.36,215.25h.24a5.16,5.16,0,1,0,9.74,0h.24a5.16,5.16,0,1,0-4.12-8.28c.56-2.18,1.31-4.46,2.12-5.19h-6.24c.81.73,1.56,3,2.12,5.19a5.16,5.16,0,1,0-4.11,8.28Zm4.87-3.45s0,0,0,0Z"/><path class="cls-4" d="M132.67,170.14c-.3,1,2.15.21,2.49,0a6.06,6.06,0,0,0,2.45-3.15c.42-1.06.74-2.31,1.86-2.84a7.82,7.82,0,0,1,1.55-.33c.4-.1.78-.21,1.18-.34a22.93,22.93,0,0,0,3.37-1.31,9.4,9.4,0,0,0,2.67-1.49,12.71,12.71,0,0,0,2.69-3.17,14.37,14.37,0,0,0,.82-3.06,5.37,5.37,0,0,1,.44-1.6,13.33,13.33,0,0,1,1.15-1.41,8.43,8.43,0,0,1,1.23-1.44,17.51,17.51,0,0,0,1.34-1.42,6.64,6.64,0,0,0,1.52-3.18c.24-1.08.56-2.17.85-3.25a20.6,20.6,0,0,1,1.19-3.69,5.17,5.17,0,0,0,.52-1.07,5.2,5.2,0,0,1,.21-.88,6.22,6.22,0,0,1,1-1.29,6.43,6.43,0,0,0,1.26-3.56,30.87,30.87,0,0,0,.23-4.51,29.82,29.82,0,0,0-.86-4.76c-.34-1.46-.87-2.82-1.25-4.26-.48-1.81-.74-3.63-1.14-5.46a19.56,19.56,0,0,1-.39-4.33,17.23,17.23,0,0,0-1-5.5,7.61,7.61,0,0,0-1-1.82,3.16,3.16,0,0,0-1.18-1.36,8.93,8.93,0,0,1-1.72-.89,2.83,2.83,0,0,1-.6-1.77c-.26-1.46-.45-2.93-.79-4.38a5.63,5.63,0,0,0-1-2c-.37-.52-.62-1.08-1-1.6a1.65,1.65,0,0,0-.45-.42,3.58,3.58,0,0,1-.76-.91,16.28,16.28,0,0,1-1-1.37c-.93-1.76-1.53-3.67-2.44-5.43a15.05,15.05,0,0,0-.75-1.41c-.33-.5-.78-.9-1.09-1.43-.43-.74-.68-1.5-1.17-2.21-.94-1.38-1.52-2.91-2.73-4.09a24.71,24.71,0,0,0-3.91-3.47,49.57,49.57,0,0,0-5.17-2.66,26.91,26.91,0,0,0-5-1.42c-1.57-.41-3.14-1-4.74-1.26s-3.4.18-5.07-.21-3.33-.61-4.95-1a17.5,17.5,0,0,0-4.37-.17,8.93,8.93,0,0,1-2.5-.29,14.71,14.71,0,0,0-1.91-.18,12.44,12.44,0,0,0-1.89-.21c-.84,0-1.72-.07-2.56,0a8.84,8.84,0,0,0-2.11.52c-.6.2-1.15.28-1.75.44s-1.27.65-1.94.88-1.57.4-2.35.68-1.54.48-2.31.67a17,17,0,0,0-3,1.17,19,19,0,0,0-2.45,1.38c-.79.51-1.75,1.39-2.78,1.34a17.78,17.78,0,0,1-3.6-1.1,15.86,15.86,0,0,0-2-.33c-.9-.15-1.82-.07-2.71-.23a9.44,9.44,0,0,0-3.26,0,17.42,17.42,0,0,0-2.55.33c-.86.25-1.77.32-2.62.61a16,16,0,0,0-4.44,2.5,30.36,30.36,0,0,0-4.39,4.16,5.91,5.91,0,0,0-1.3,1.93,10.74,10.74,0,0,1-.73,1.65c-.61,1.1-1.4,2-2.05,3.07a5.9,5.9,0,0,0-.55,1.23c-.22.66-.67,1.25-.87,1.9a13.51,13.51,0,0,1-.93,2.69,31.7,31.7,0,0,1-2.51,3.2l-1,1.31c-.3.41-.76.69-1,1.12-1,1.56-1.94,3.14-2.79,4.79a10.52,10.52,0,0,0-.73,2.77,14.85,14.85,0,0,0-.41,1.95,18.33,18.33,0,0,1-.47,3.11,9,9,0,0,0-.44,1.67,2,2,0,0,1-.21,1.06c-.55,1-1.09,2-1.61,3a20.49,20.49,0,0,0-1.35,3,26.78,26.78,0,0,0-.91,3.24,19.24,19.24,0,0,0-.45,3.41c0,.75-.31,1.47-.25,2.23,0,.54.24,1,.25,1.56,0,1,.08,2,0,3,0,.6-.23,1.16-.24,1.77,0,1.39,0,2.78,0,4.16a17.91,17.91,0,0,0,.56,4.32,30.11,30.11,0,0,0,1,3.57c.43,1.11.88,2.15,1.41,3.21S38,146,38.61,147.2c.44.94.87,1.84,1.23,2.82.26.71.35,1.45.57,2.17a21.79,21.79,0,0,0,1.71,4.1,30.4,30.4,0,0,0,2.28,3.31c.95,1.25,2.23,2.21,3.13,3.5a24.72,24.72,0,0,1,1.57,3.11,29,29,0,0,0,2.23,3c.75,1.1,1.69,2.17,2.34,3.31a16.9,16.9,0,0,0,2,2.68,26.57,26.57,0,0,0,2.49,2.49,4.33,4.33,0,0,0,1.36.93,4.7,4.7,0,0,0,.63,0c.31,0,.56.17.86.22a6.05,6.05,0,0,0,1.71,0,4.77,4.77,0,0,0,1.12-.55,9.71,9.71,0,0,1,2.73-1s4.76-7.9,4.49-8.84"/><path class="cls-5" d="M72.45,138.25s-12.4-34.1,12.26-39.43,28.05,5.88,28.05,5.88"/><g class="cls-6"><path class="cls-7" d="M161.5,64.92l.57.28a4.89,4.89,0,0,0,2.12.44,4.66,4.66,0,0,0,2.12-.44c.37-.21.92-.55.88-1.06a1.4,1.4,0,0,0-.88-1.06l-.57-.28a4.89,4.89,0,0,0-2.12-.44,4.66,4.66,0,0,0-2.12.44c-.37.21-.92.55-.88,1.06a1.4,1.4,0,0,0,.88,1.06Z"/></g><path class="cls-8" d="M134.67,83.3s11,12.77-1.42,35.54C133.26,118.85,143.26,98.47,134.67,83.3Z"/><path class="cls-8" d="M108.52,61.49a52.13,52.13,0,0,1,10.94,49.19c-.75,2.45,5,1.78,5.7-.51,4.93-16.22,1.33-34-8.57-47.45h0c-1.64-.39-3.33-.61-4.95-1A10.86,10.86,0,0,0,108.52,61.49Z"/><path class="cls-9" d="M77.93,179.74s1,9.14,1.45,14.19-2.52,16.55-2.52,16.55,6.65,31.39,29.36,31.39,31.09-31.06,31.09-31.06-11.51-11.95-7.77-27.49"/><path class="cls-10" d="M78.84,181.26c-.26.62,1.77,22.44,2,22.95s4.64,3.15,7.21,6.27a99.25,99.25,0,0,0,8.14,8.06s15.8-1.4,17.92,0,10.08-21.41,14.14-22.55c0,0,.77-8.77.78-11.88S78.84,181.26,78.84,181.26Z"/><path class="cls-11" d="M104.46,103.64c31.37,3.21,29.15,14.08,29.4,17.79s.15,16,1.19,18.9,2.28,9.93,1,15.31-4.34,16.55-5,21.31-5.86,13.65-10.58,17-6,7.24-13.62,7.24-11.38-2.48-12.62-3.93-8.48.41-15.72-10.76c-12.21-23.58-9.31-27.93-9.1-40.75a64.2,64.2,0,0,0,3.89-14.85c.41-2.07-2.34-9.44-.54-19.61C74.29,102.86,104.46,103.64,104.46,103.64Z"/><path class="cls-12" d="M98.05,146.47s.86-.71.75-1.15,1.61.59,1.44,1.12S99.32,146.82,98.05,146.47Z"/><path class="cls-13" d="M92.58,180.55a11.08,11.08,0,0,1-.92-3.59c-.05-1.58.79-2.41,1.77-3.54,1.82-2.1,4-4.08,5.32-6.54.09-.16-.4-.22-.48-.07-1.59,2.92-4.29,5-6.27,7.67-1.41,1.87-.71,4.11.1,6.14.06.15.55.11.48-.07Z"/><path class="cls-12" d="M86.17,145.84a8,8,0,0,0,6,2.2,16.92,16.92,0,0,0,6.33-1.7,18.9,18.9,0,0,1-9.78,1.17"/><path class="cls-12" d="M118.25,146.09a18.41,18.41,0,0,0,11.48-.43"/><path class="cls-14" d="M92.68,141.79c-11.78,4-11.42,6.93-11.42,6.93s0,1,.65.89,7.28-8,12.44-7.32c1.93.24,6.66,3.75,6.9,3.54C101.66,145.46,96.16,141.23,92.68,141.79Z"/><path class="cls-14" d="M124.37,141.71c4.78.72,8.57,5.14,8.57,5.14a1.86,1.86,0,0,1-1.24.36c-.67-.08-4-5.56-9.19-4.92-1.93.24-6.66,3.31-6.9,3.09C115.2,145,120.88,141.15,124.37,141.71Z"/><path class="cls-15" d="M98.8,145.32s-3.28-3.41-6.37-3-5.88,3.32-5.88,3.32,1.18,1.95,4.66,1.95a23.46,23.46,0,0,0,7.09-1.35l.5-.24Z"/><path class="cls-16" d="M87,145.21a4.38,4.38,0,0,0,4,2.26c2.89,0,3.39-4.6,2.5-5.17S87.3,143.74,87,145.21Z"/><circle class="cls-2" cx="90.92" cy="144.35" r="0.86"/><path class="cls-17" d="M90.37,146h.93l-.38.47A.51.51,0,0,1,90.37,146Z"/><path class="cls-17" d="M91.78,144.35l.79-.86s-.57-.35-.79-.23-.47.27-.32.42A2.62,2.62,0,0,1,91.78,144.35Z"/><path class="cls-12" d="M115.71,146.11c-.12-.59,2.54-1.45,2.54-1.45l.28,1.26S115.8,146.53,115.71,146.11Z"/><path class="cls-15" d="M117.69,144.83c.45.27.38,1.16.38,1.16a29.34,29.34,0,0,0,5.64.47,14.05,14.05,0,0,0,5.34-.85,9,9,0,0,0-2.93-2.93,7.86,7.86,0,0,0-5.7.27"/><path class="cls-16" d="M120.24,143a7.38,7.38,0,0,1,3.5-.75c2.23,0,2.58,1.4,2.58,2.37a2,2,0,0,1-1.06,1.77,27.21,27.21,0,0,1-4.36,0C120.43,146.29,119.95,143.91,120.24,143Z"/><circle class="cls-2" cx="123.11" cy="144.15" r="0.83"/><path class="cls-17" d="M122.68,145.52h1.21l-.49.61A.67.67,0,0,1,122.68,145.52Z"/><path class="cls-17" d="M123.79,143.63l.58-.49s-.42-.2-.58-.13-.35.15-.24.24A1.38,1.38,0,0,1,123.79,143.63Z"/><path class="cls-18" d="M102.81,167a5.73,5.73,0,0,1,2.35,0c1.09.29,1.21.63,1.21.63"/><path class="cls-18" d="M117.12,166.83a2.69,2.69,0,0,0-1.22.76c-.75.69-.63.75-.63.75"/><path class="cls-13" d="M107.72,167.71a2.52,2.52,0,0,1,1.23.54c.62.52.39,1.35,1.09,1.67a3.06,3.06,0,0,0,2.94-.2c.17-.12-.3-.21-.43-.13a1.66,1.66,0,0,1-2.49-.42,2.61,2.61,0,0,0-.68-1.05,3.1,3.1,0,0,0-1.53-.66c-.23,0-.47.19-.13.24Z"/><path class="cls-13" d="M100.55,160.79c-1.16,1.76-1.79,5.1.25,6.48.13.09.61,0,.43-.13-2-1.34-1.31-4.59-.2-6.29.1-.14-.39-.21-.48-.07Z"/><path class="cls-13" d="M117.31,162.1c.23,1.11.54,2.65,0,3.7-.08.17.41.22.48.07.54-1.08.24-2.63,0-3.77,0-.18-.53-.15-.5,0Z"/><path class="cls-19" d="M93.68,179c2.54,0,12.74-1.73,13.61-1.47s2.51,1.33,3,1.2,1.64-1.4,2.49-1.53,8-.4,8-.4a.7.7,0,0,1-.2.63c-.29.29-.62.24-.62.62a8.08,8.08,0,0,1-8.34,6.34c-6.91,0-16.16-4.53-17.92-5.39"/><path class="cls-20" d="M117.94,178.54c-6.28,3.06-17.56,1-17.56,1a30.84,30.84,0,0,1,4.81-.14c.86.22,4.88,1.19,8.19,0S117.94,178.54,117.94,178.54Z"/><path class="cls-21" d="M99.74,140.05a2.53,2.53,0,0,0-.8-1.2"/><path class="cls-21" d="M98.14,139.65l-.08,0c0-.28-.33-.52-.54-.68a8.61,8.61,0,0,0-1.08-.8"/><path class="cls-21" d="M95.84,139.15a5.06,5.06,0,0,1-.52-.52,4,4,0,0,0-1.59-1.09"/><path class="cls-21" d="M93.13,138.75c-.25,0-.41-.16-.57-.31a5.12,5.12,0,0,0-1.64-1"/><path class="cls-21" d="M90.53,139.15a1.85,1.85,0,0,0-.41-.35,5.64,5.64,0,0,0-.89-.25"/><path class="cls-21" d="M87.32,139.25c-.2-.25-.78,0-1,.1"/><path class="cls-21" d="M81.91,142.66c-.39-.08-1,.43-1.3.6"/><path class="cls-21" d="M84.92,140.15a.45.45,0,0,0-.4.1"/><path class="cls-21" d="M118.28,139.75a4.85,4.85,0,0,0,2.4.2"/><path class="cls-21" d="M121.38,139.05a3.77,3.77,0,0,0,1.4-.1"/><path class="cls-21" d="M124.69,138.65c0-.2.43-.1.56-.1a3.67,3.67,0,0,0,1.25-.2"/><path class="cls-21" d="M126.19,139.35a3,3,0,0,0,1.4-.2"/><path class="cls-21" d="M128.3,138.25c.58,0,1.13-.05,1.7-.1"/><path class="cls-21" d="M129.5,139a1.72,1.72,0,0,0,.42-.1,4.2,4.2,0,0,0,.58-.1"/><path class="cls-21" d="M132,138.35a1.26,1.26,0,0,1,1,.3"/><path class="cls-21" d="M133.81,139.05c.34.1.61.83.8,1.1"/><path class="cls-21" d="M101,140.23c0-.34-.18-.57-.32-.86"/><g class="cls-22"><path class="cls-23" d="M93.37,180.17c-3.72-4.36,3.18-10,5.83-12.83l-3.45-1-2,2.36c-1.2,1.39,2.62,2,3.45,1l2-2.36c1.21-1.41-2.6-1.93-3.45-1-3.44,3.71-10.4,9.49-5.83,14.85.81,1,4.66.4,3.45-1Z"/></g><g class="cls-22"><path class="cls-23" d="M102.94,166.74a6.36,6.36,0,0,1,.67-5.32c.73-1.21-3.15-1.7-3.86-.53a7.54,7.54,0,0,0-.67,6.39c.4,1.22,4.35,1,3.86-.53Z"/></g><path class="cls-14" d="M94.43,139.2c-.18,0-.3-.29-.4-.41a6.85,6.85,0,0,0-.73-.68,2.23,2.23,0,0,0-.6-.41.92.92,0,0,1-.44-.27"/><path class="cls-14" d="M96.46,139.07c0-.12-.05-.14-.11-.21a2.06,2.06,0,0,0-.46-.5c-.22-.14-.41-.31-.62-.47s-.35-.3-.51-.31"/><path class="cls-14" d="M91.44,138.93a1.4,1.4,0,0,0-.39-.27l-.62-.39a5.59,5.59,0,0,1-.9-.49"/><path class="cls-14" d="M89.27,139.2a.46.46,0,0,1-.35-.13,3.16,3.16,0,0,0-.7-.37,5.33,5.33,0,0,0-.68-.27c-.19-.05-.38,0-.58-.1"/><path class="cls-14" d="M86.62,139.81a1,1,0,0,1-.48-.06,1.47,1.47,0,0,0-.68-.21,6.42,6.42,0,0,1-.75-.08,1.91,1.91,0,0,0-.39,0,1.7,1.7,0,0,1-.35.06"/><path class="cls-14" d="M84.85,140.9a1.51,1.51,0,0,1-.5-.08,4.35,4.35,0,0,0-1.23-.19,5,5,0,0,0-1,.11,3.27,3.27,0,0,1-.35,0c-.12,0-.22.07-.34.07"/><path class="cls-14" d="M83,141.58c-.09,0-.17.06-.26.07-.27,0-.52,0-.79.1a3.57,3.57,0,0,0-.77.24c-.18.08-.51.11-.62.27"/><path class="cls-14" d="M98.3,139.13a1.22,1.22,0,0,1-.27-.42,8,8,0,0,0-.62-.8"/><path class="cls-14" d="M100.06,139.88a1.08,1.08,0,0,0-.17-.34,2.13,2.13,0,0,0-.31-.54"/><path class="cls-14" d="M119.28,139.13a1.06,1.06,0,0,1,.42.09,2.42,2.42,0,0,0,.63.11c.18,0,.36-.06.55-.06h.37"/><path class="cls-14" d="M122.13,139.41c.12,0,.23-.09.35-.12a2,2,0,0,0,.6-.18,2.92,2.92,0,0,1,.81-.37"/><path class="cls-14" d="M124.84,139v.06a1.94,1.94,0,0,0,1.55-.53"/><path class="cls-14" d="M127.22,138.8a1.21,1.21,0,0,0,.4,0,5.69,5.69,0,0,0,.62-.3,3.21,3.21,0,0,0,.48-.29,4.11,4.11,0,0,0,.41-.25"/><path class="cls-14" d="M129.05,138.73c.28,0,.36-.21.56-.34a3.38,3.38,0,0,1,.65-.35,3.46,3.46,0,0,1,1.31-.12"/><path class="cls-14" d="M131.23,138.39a2.69,2.69,0,0,1,.85.1,3.58,3.58,0,0,1,.44.11c.06,0,.1.09.15.13s.18.06.26.13"/><path class="cls-14" d="M132.86,139.2a2,2,0,0,1,1.15.48"/><path class="cls-14" d="M118.53,139.88a1.88,1.88,0,0,0,1,.44c.16,0,.31,0,.48,0s.36.06.48-.07"/><path class="cls-14" d="M122.6,139.81a4.48,4.48,0,0,0,1-.1,1.82,1.82,0,0,0,.49-.17,1.08,1.08,0,0,1,.32-.13"/><path class="cls-12" d="M92,104.7s-3.47,27-18.81,27c0,0-2.22-21.84,0-22.79S82.8,103.63,92,104.7Z"/><g class="cls-24"><path class="cls-25" d="M135.16,138.26c-1.43-1.75-4.47-1.43-6.49-1.23-2.65.26-5.33,1.45-8,1.24-1-.08-3,3.55-2.44,3.6,3.82.3,11.14-3.73,14.15-.07.33.41,3.44-2.73,2.77-3.55Z"/></g><g class="cls-24"><path class="cls-25" d="M82,143.59c2-2.67,5.69-2.59,8.68-3s6-.56,9,.67c1.16.48,3.43-3.27,2.77-3.55-4.34-1.79-9-.88-13.47-.23-3.84.55-5.77,2.11-8,5.19-1.54,2.09-.46,3,1.12.87Z"/></g></svg>