<svg id="Layer_1" data-name="Layer 1" xmlns="http://www.w3.org/2000/svg" viewBox="0 0 196 266.67"><defs><style>.cls-1{fill:#f8e4e3;}.cls-2{fill:#be1e2d;}.cls-3{fill:#1d1611;}.cls-4{fill:#daccbf;}.cls-5{fill:#d39372;}.cls-6{fill:#443123;opacity:0.07;}.cls-7{fill:#da9f7b;}.cls-8{fill:#ebf4f0;}.cls-9{fill:#572000;}.cls-10{fill:#6b3720;}.cls-11{fill:#cd8a6e;}.cls-12{fill:none;stroke:#d28867;stroke-miterlimit:10;}.cls-13{fill:#f5e0cd;}.cls-14{fill:#c13122;}.cls-15{fill:#231f20;}.cls-16{fill:#d29875;}.cls-17{fill:#d8cac6;}.cls-18{fill:#545456;}.cls-19{opacity:0.15;}.cls-20{fill:#381c15;}</style></defs><title>badbitchcards</title><rect class="cls-1" x="8.63" y="8.48" width="178.58" height="249.45" rx="8.5" ry="8.5"/><path class="cls-2" d="M20.25,29.5l2.47-.55v1.69c0,2.37,1.29,3.43,3.08,3.43s2.92-1.18,2.92-3.25V18.11h2.47V30.64c0,3.13-2,5.72-5.37,5.72-3.5,0-5.57-2.27-5.57-5.7Z"/><path class="cls-2" d="M21.71,42.91c2.57,0,3.86,1.22,5.14,3.64,1.28-2.42,2.57-3.63,5.14-3.64a5,5,0,0,1,5.18,4.89c0,4.9-5.15,9.8-10.31,14.71-5.16-4.9-10.32-9.81-10.31-14.71A5,5,0,0,1,21.71,42.91Z"/><path class="cls-2" d="M173.61,224.89c-2.57,0-3.86-1.22-5.14-3.64-1.28,2.42-2.57,3.63-5.14,3.64a5,5,0,0,1-5.18-4.89c0-4.9,5.15-9.8,10.31-14.71,5.16,4.9,10.32,9.81,10.31,14.71A5,5,0,0,1,173.61,224.89Z"/><path class="cls-2" d="M175.07,237.12l-2.47.55V236c0-2.37-1.29-3.43-3.08-3.43s-2.92,1.18-2.92,3.25v12.71h-2.47V236c0-3.13,2-5.72,5.37-5.72,3.5,0,5.57,2.27,5.57,5.7Z"/><path class="cls-3" d="M54.82,134.22c-2.57-6.09-4.42-9.77-9.58-6.45-2.21-14.12-5.54-33.6,0-39.51s9.23-8.64,5.17-8.56c-10,3,15.5-28,40.61-27.61,0,0,8.12-1.85,11.63,0s2,.74,2,.74,7.57-7.32,15.17,3.69c0,0,11,1.11,14,13.66,0,0,18.12.37,12.21,15.87,0,0,4,7.16,4.43,12.92.57,8.49,1.09,17.32,0,22-2.58,11.11-9.45,13.39-9.45,13.39l-7.19.92-74.61,3.54-4.38-4.59"/><path class="cls-3" d="M100.75,65c-.81,1.51-7.08,6.61-3.38,14.84"/><path class="cls-3" d="M113.29,69a9.15,9.15,0,0,0-4.69,10.71"/><path class="cls-4" d="M115.71,64c1.25,1,2.43.36,3.2-.91a7.67,7.67,0,0,0,.07-7.46c0-.07-.28,0-.24,0a7.75,7.75,0,0,1,.92,4.11,7.63,7.63,0,0,1-.42,2.08c-.37,1-1.54,3.52-3.31,2.09-.06,0-.3,0-.22.06Z"/><path class="cls-4" d="M135.52,76c4.17-1.09,5.85,2.88,5.38,6.2-.26,1.89-1.08,3.66-1.4,5.54s.15,4.07,2.46,3.79c.17,0,.05-.13-.07-.12-1.2.14-2.24-1.29-2.29-2.33a6.55,6.55,0,0,1,.15-1.34c.23-1.34.73-2.62,1.06-3.94a8.93,8.93,0,0,0,.08-5.18,4.4,4.4,0,0,0-5.5-2.73c-.16,0,0,.13.13.11Z"/><path class="cls-4" d="M49.72,79A3.26,3.26,0,0,1,50,77.65L53,77.27l.57.64a8.19,8.19,0,0,1,1.1,2,9.82,9.82,0,0,1,.47,5c0,.08.24.09.25,0,.4-2.62-.13-6.43-2.53-8.07-1.9-1.3-3.22.23-3.42,2.1,0,.08.24.09.25,0Z"/><path class="cls-4" d="M107.88,60a5.23,5.23,0,0,0-2.24-6c-1.94-1.33-9.79-2.1-7.17-5.47.05-.06-.19-.1-.24,0-1.22,1.56.14,3.17,1.68,3.74,2,.74,4,.65,5.81,2a5.11,5.11,0,0,1,1.92,5.7c0,.09.22.11.24,0Z"/><path class="cls-4" d="M81.86,80a24.38,24.38,0,0,1-8.61-11.45,13.37,13.37,0,0,1-.92-4A6,6,0,0,1,72.8,62c.66-1.47,1.21-1.26,2.92-1.35,2-.11,2.89.05,4,1.65a5.48,5.48,0,0,1,.65,1.18c.94,2.4-.59,5.64-3.73,5.2-.12,0-.23.1-.07.12A3.81,3.81,0,0,0,80.86,64c-.57-2.46-3.7-5.08-6.33-4.06-3.6,1.39-2.39,6.25-1.39,9a24.5,24.5,0,0,0,8.5,11.12c.06,0,.3,0,.22-.06Z"/><path class="cls-4" d="M119.33,83.89c5.75-.44,6.52,7.17,11.47,8.39,2.06.51,4.7-.37,4.68-2.86a3,3,0,0,0-4-2.75c-2.53.92-2.41,4-.32,5.39.07,0,.3,0,.18-.09a3,3,0,0,1-1.23-4q3.89-2.32,4.94.29a3.07,3.07,0,0,1,0,2.26c-1.23,3-5.34,1.51-7.07-.19a34.08,34.08,0,0,1-2.51-3.15c-1.6-2-3.5-3.64-6.18-3.44-.17,0,0,.13.07.12Z"/><path class="cls-4" d="M56.11,104.36c2.37-2.31-.48-4.82-2.79-5.44-2.56-.7-5.9-.59-7.74,1.59-1.46,1.72-1.76,5,.62,6a3.16,3.16,0,0,0,4.37-1.67c0-.08-.11-.08-.15-.08-.71.1-1.06.45-.93,1.21,0,.09.26.08.25,0q.93-1.44,0,0l-1.57.7a2.93,2.93,0,0,1-3.4-2.54,4.68,4.68,0,0,1,1.47-4c1.88-1.76,5-1.79,7.33-1.05,2.11.67,4.56,3.05,2.38,5.19-.08.08.16.12.22.06Z"/><path class="cls-5" d="M65.88,171.3s1.15,10.57,1.68,16.41-2.92,19.15-2.92,19.15,7.69,36.3,34,36.3,36-35.93,36-35.93-13.31-13.81-9-31.79"/><path class="cls-6" d="M66.93,173.06c-.3.72,2.05,26,2.35,26.54s5.37,3.65,8.33,7.25A114.79,114.79,0,0,0,87,216.18s18.27-1.61,20.73,0,11.65-24.76,16.36-26.08c0,0,.88-10.14.9-13.74S66.93,173.06,66.93,173.06Z"/><path class="cls-3" d="M92.25,195c16.33.45,31.92-14.26,31.92-14.26l1.84-10.8L65.2,175S70.15,194.36,92.25,195Z"/><path class="cls-7" d="M91.93,79.66c30.48,0,36.95,13.39,39.26,38.8,0,7.16,2.31,9.93,2.54,12.24s-1.39,9.24-.92,12,.69,15.47-1.15,20.78-6.7,19.17-23.09,24.25-21.71,3-27.25,0-10.85-7.17-18.7-15.36c-5.54-13.27-3-26.2-3.46-33.59s1.62-23.55,1.85-30.94S65.37,81.05,91.93,79.66Z"/><path class="cls-5" d="M109.43,120.9c6.76-2.08,10.57,2.76,13.67,5.28a11.24,11.24,0,0,0-2.32.05c-1.23.17-15.5,0-15.5,0C103.23,126,106.45,121.82,109.43,120.9Z"/><path class="cls-5" d="M66.8,127.5H65.2s2-6.15,7-7.11,9.39,3.55,9.39,3.55.49.65-1.12,1.76Z"/><path class="cls-8" d="M66.8,127.5c4.32-3.37,6.75-6.75,13.71-1.79C78.18,128.35,71.23,127.82,66.8,127.5Z"/><path class="cls-8" d="M105.28,126.24c3.48-4,7.91-6.75,15.5,0-10.65,1.53-12.76,0-14.13,0A1.7,1.7,0,0,0,105.28,126.24Z"/><path class="cls-9" d="M71.69,123.88s-.57,3.15.6,3.89a37.28,37.28,0,0,0,4.92-.42s1.09-2,.14-3.47C75,122.14,71.69,123.88,71.69,123.88Z"/><path class="cls-8" d="M74.53,124.53c1.08-.14.36-.67-.09-.67S73.7,124.51,74.53,124.53Z"/><circle class="cls-3" cx="74.53" cy="125.62" r="1.09"/><path class="cls-9" d="M110.75,126.85s-1.72-2.34-.48-4.36a7.38,7.38,0,0,1,6.49.86s-.26,3.49-1.21,3.5S110.75,126.85,110.75,126.85Z"/><circle class="cls-3" cx="113.29" cy="124.47" r="1.09"/><path class="cls-10" d="M92.8,146.27c-3.29-2.15-3.58-3.86-8.44-3.29"/><path class="cls-10" d="M97.38,144.86c1-2.6,1.14-2.74,3-2.74H103s.47.17,0,1.37"/><path class="cls-11" d="M98.87,132.08c1.43,2.46,1.17,4.41,1.94,4.54s1.94-.74,1.81-1.34S98.87,132.08,98.87,132.08Z"/><path class="cls-12" d="M111.24,143.49s8.83,8.44,9.54,9.62-.12,2.17,0,2.76"/><path class="cls-12" d="M77.74,146.27c-1.18.53-7.49,3.88-8.47,9.6"/><path class="cls-12" d="M83.79,136.63c-4.52,1.29-4.82,10,2.86,10.77"/><path class="cls-12" d="M105.28,137.61s5.29,5.43-.65,8.66"/><path class="cls-13" d="M76.4,159.83s16.53-1.33,17.66-2.32,21.12,1.78,21.12,1.78-5.6,13.48-18.11,10.48-15.77-1.88-15.77-1.88S75.26,163.15,76.4,159.83Z"/><path class="cls-14" d="M87.48,159.83c6,1.7,9.69,1.6,11.93-.43,4.58,0,12-.53,13.88-.32l1.88.21a7.45,7.45,0,0,0-3-2c-1.82-.64-8.67-1.38-17-.75-8.54-1-15-1-16.87,1.17l-1.92,2.13A26.16,26.16,0,0,0,87.48,159.83Z"/><path class="cls-14" d="M107.45,166.87c-4.1,0-23.66-.53-25.76-.21,0,0-1.73.25-3.4-2.41a12.47,12.47,0,0,1-1.9-4.41s-.89.54-.78,1.19c0,0,.68,5.41,3,7.33s5.83,3.41,16.55,3.41,12.58-.32,14.64-2.77c3.78-4.51,3.18-4.92,5.35-9.69C115.18,159.3,111.55,166.87,107.45,166.87Z"/><path class="cls-15" d="M82.35,113.93a7.4,7.4,0,0,0-3.07-4"/><path class="cls-15" d="M79.07,112.55a3.45,3.45,0,0,0-2.46-1.89"/><path class="cls-15" d="M76.11,111.94a6.3,6.3,0,0,0-3.36-2.13"/><path class="cls-15" d="M72.77,111.76a5.53,5.53,0,0,0-3.85-1.59"/><path class="cls-15" d="M74,111.56a9.93,9.93,0,0,0-2.72-2"/><path class="cls-15" d="M77.12,111.93l-1-1"/><path class="cls-15" d="M80.54,112.74a6,6,0,0,0-1.44-2.12"/><path class="cls-15" d="M68.92,111.1a6.83,6.83,0,0,0-3.18-.51"/><path class="cls-15" d="M67.92,111.74a11.77,11.77,0,0,0-3-.13"/><path class="cls-15" d="M65.73,112.21A5.53,5.53,0,0,0,62.61,114"/><path class="cls-15" d="M64.57,113.65a2.17,2.17,0,0,0-2.07,1.78"/><path class="cls-15" d="M62.88,116.76a2.14,2.14,0,0,0-1.53,1.87"/><path class="cls-15" d="M61.9,119.31a1.66,1.66,0,0,0-.17,1.66"/><path class="cls-15" d="M107.24,113.11a1.62,1.62,0,0,1,1.36-2.29"/><path class="cls-15" d="M109.28,112.77a3.86,3.86,0,0,1,2.32-2.2"/><path class="cls-15" d="M112.39,112.25a2.68,2.68,0,0,1,1.92-1.92"/><path class="cls-15" d="M115.51,112.15a13.52,13.52,0,0,1,2.27-1.76"/><path class="cls-15" d="M118.61,111.91a2.67,2.67,0,0,1,2.37-1.3"/><path class="cls-15" d="M121.48,111.91a2.81,2.81,0,0,1,2-.29"/><path class="cls-15" d="M123.32,113.09a2.43,2.43,0,0,1,2.21.13"/><path class="cls-15" d="M124.84,114.41a2.5,2.5,0,0,1,1.64.74"/><path class="cls-15" d="M126,115.78a1.83,1.83,0,0,1,1.33,1"/><path class="cls-15" d="M127.19,118l.5,1"/><path class="cls-15" d="M117.7,112.23a1.21,1.21,0,0,1,.76-1.69"/><path class="cls-15" d="M114.4,111.9a6,6,0,0,1,1.1-1.43"/><path class="cls-15" d="M110.87,112.39a3.66,3.66,0,0,1,1.26-1.27"/><path class="cls-15" d="M124.18,113.9l1.85.31"/><path class="cls-16" d="M133,153.3s-2.62-1.76-7,1.78-4.7,12-7.4,20.47S103,187.17,93.76,186.38,82.15,184,79.07,179.49s-5-12.94-19.46-18.41a45.88,45.88,0,0,0,3,11.33c7.85,8.19,13.16,12.36,18.7,15.36s10.85,5.08,27.25,0,21.25-18.94,23.09-24.25a37.86,37.86,0,0,0,1.37-9.4C133,153.59,133,153.3,133,153.3Z"/><path class="cls-7" d="M132,134.75c4-.07,8.37.64,9-.47s3.35,5.21-1.38,10.51c-3,4.82-2.56,7.95-2.17,8s-2.55,5.47-3.65,5.61-.95-15.73-.95-15.73Z"/><path class="cls-7" d="M59.13,136.63c-7.29-4.77-6.11-2.4-4.34,3.7S59,152.21,59,152.86,59.13,136.63,59.13,136.63Z"/><ellipse class="cls-17" cx="57.67" cy="155.87" rx="2.53" ry="4.55" transform="translate(-54.94 33.64) rotate(-22.35)"/><ellipse class="cls-17" cx="136.46" cy="156.95" rx="4.55" ry="2.53" transform="translate(-69.24 187.64) rotate(-57.48)"/><path class="cls-18" d="M61,107.84c.49-17.51,12.79-20.14,16.6-24.54S98.38,82.13,101.31,81s6.74,2.64,11.13,1.76c4.69,2.93,6.44,5.56,8.49,5.56,1.35,2.14,6.06,8.89,6.06,8.89s.89,7.65,2.55,9.18c0,0,.37,15.25,1.93,17.53s1.28,7.4,2.28,8.25c0,0,2.58-31.64-9.42-45.58S90.26,78.43,84.45,75.72s-5.81-13.16-13.55-12-7,9.29-11.23,9.68-.77,10.07-5.42,13.16-6.58,8.9-2.32,12,1.55,7.74,3.87,12.78,4.35,6.46,4.35,6.46Z"/><path class="cls-18" d="M134.41,74.48c2.83.61,6.42,1.42,7.63,4.45,1,2.52-.62,4.59-1.15,7s1,3.94,3.35,3.18c1-.32.06-.57-.52-.38-1.53.5-1.58-2.26-1.4-3a25.76,25.76,0,0,1,1-2.5,6.54,6.54,0,0,0,.21-4.59c-1.24-3.12-5-4-7.89-4.65-.36-.08-1.62.49-1.18.59Z"/><path class="cls-18" d="M104.51,53.77c6.11.79,3.9,7.7,2.22,11.24-.34.72,1.12.69,1.38.14,1.18-2.49,2.48-5.27,1.84-8.1A5.45,5.45,0,0,0,105,52.76c-.68-.09-1.49.88-.51,1Z"/><path class="cls-18" d="M119.25,57.38c.9,1.84,1.5,4.08.53,6-1.13,2.3-4.33,3-5.47.28-.25-.58-1.68-.15-1.45.39a4.29,4.29,0,0,0,6.23,1.7c3.16-1.9,3.05-5.84,1.6-8.79-.28-.57-1.7-.13-1.45.39Z"/><path class="cls-18" d="M46.6,127.65c.39-1.72,1.06-3.73,2.6-4.8a3,3,0,0,1,4.84,2c.31,1.87.12,4.26,2.73,4,.76-.08,1.16-1,.17-.92-1.77.18-1.17-4.29-2.31-5.45a4.63,4.63,0,0,0-3.6-1.17c-3.44.24-5.2,3.45-5.89,6.47-.14.62,1.33.41,1.46-.15Z"/><path class="cls-18" d="M49.29,79.67c.73-1.47,1.64-5.88,4.15-3.77,1.38,1.16,2.23,3.35,2.79,5,.17.51,1.61.1,1.45-.39-.71-2.13-2.32-6.27-5.08-6.21-3,.07-3.6,3.19-4.66,5.32-.31.62,1.14.46,1.35,0Z"/><path class="cls-18" d="M49.21,129.79c.39-1.6,2.1.51,2.39.87A24.07,24.07,0,0,1,53.17,133c.58,1,1,1.78,2.2,1.06.83-.51-.43-.71-.9-.42l-.15.1,1-.14c-.46-.21-.81-1.13-1.06-1.53s-.63-1-1-1.43a5.32,5.32,0,0,0-2.2-2.07c-1.23-.47-3,0-3.37,1.43-.13.52,1.33.3,1.45-.18Z"/><path class="cls-18" d="M141.88,123.28a4,4,0,0,1,2.33,7.26c-.59.4.85.22,1.11,0a4.26,4.26,0,0,0-2.5-7.89c-.31,0-1.63.61-.94.59Z"/><path class="cls-8" d="M113.68,123.33c-.08-.63.86-.27,1.06.18C114.74,123.51,113.79,124.24,113.68,123.33Z"/><g class="cls-19"><path class="cls-20" d="M62.79,118.73c.45-2.82.72-5.82,4.12-7.14a12.29,12.29,0,0,1,4.45-.36c3.51.05,6.93.32,10,2.16L83.08,111c-2.67.19-5.36-.39-8-.46a61.18,61.18,0,0,0-8.73.45c-.77.09-1.86,2.42-1.63,2.4a61.19,61.19,0,0,1,8.73-.45c2.67.07,5.38.65,8,.46.44,0,2.18-2.11,1.74-2.38-4.3-2.6-12.74-3.68-17.07-.74-3.41,2.32-4.59,6.41-5.21,10.26-.11.67,1.78-1.17,1.88-1.82Z"/></g><g class="cls-19"><path class="cls-20" d="M109,113.23c3.4-.93,7.27-2.61,10.84-2a9.16,9.16,0,0,1,3.13,1.08c.5.3,3.6,3.66,2.27,1.42a9.24,9.24,0,0,0-1.45-1.77c-4.6-4.55-11-.29-16.39-1.22l1.82,2.32a7.52,7.52,0,0,1,6.27-1.44c.12,0-.91-2.18-1.72-2.34a7.52,7.52,0,0,0-6.48,1.48c-.46.34,1.42,2.25,1.82,2.32,4,.69,7.63-1.27,11.61-1,3.13.25,4.27,3.11,6.38,5,.37.33,1,.65.62-.12a14.49,14.49,0,0,0-6.6-7.1c-4.67-2.29-9.41-.21-14.06,1.06-.13,0,1.15,2.51,1.93,2.3Z"/></g></svg>