<svg id="Layer_1" data-name="Layer 1" xmlns="http://www.w3.org/2000/svg" viewBox="0 0 196 266.67"><defs><style>.cls-1{fill:#f8e4e3;}.cls-2{fill:#231f20;}.cls-3{fill:#010101;}.cls-4{fill:#f4d7af;}.cls-5{fill:#d6b991;}.cls-6{fill:#cba777;}.cls-7{fill:#ffebc6;}.cls-8{fill:#eecbb1;}.cls-9{fill:#443123;opacity:0.07;}.cls-10{fill:#f0d1b9;}.cls-11{fill:#d9bea9;}.cls-12{fill:#6b3720;}.cls-13{fill:#dbc0aa;}.cls-14{fill:#eec5a6;}.cls-15{fill:#b86764;}.cls-16{fill:#f8e8d7;}.cls-17{fill:#381c15;}.cls-18{fill:#ebf4f0;}.cls-19{fill:#c68079;}.cls-20{fill:#3c3738;}.cls-21{fill:#1d1611;}.cls-22{fill:#f0d0b4;}.cls-23{opacity:0.15;}.cls-24{fill:#c8a27d;}.cls-25{opacity:0.2;}.cls-26{fill:#9c7761;}</style></defs><title>badbitchcards</title><rect class="cls-1" x="8.63" y="8.48" width="178.58" height="249.45" rx="8.5" ry="8.5"/><path class="cls-2" d="M20.63,30.45l7-9.81H31V31h2.8V33.3H31V37H28.64V33.3h-8Zm8-7.44L22.9,31h5.75Z"/><path class="cls-3" d="M28.85,41.91c4.64,4.41,9.27,8.82,9.27,13.22a4.53,4.53,0,0,1-4.65,4.39c-2.12,0-3.27-.92-4.34-2.76,1.07,3.82,2.22,5.74,4.34,5.74H24.23c2.12,0,3.27-1.92,4.34-5.74-1.07,1.84-2.22,2.76-4.34,2.76a4.53,4.53,0,0,1-4.65-4.39C19.57,50.73,24.21,46.32,28.85,41.91Z"/><path class="cls-4" d="M112.32,60c-20.27-20.79-50.41-13.76-61.5,16.5-18.36,22.3-11.43,63.25-11.09,64.08,6.24,26.46,8,34.09,5.89,41s-14.55,17-24.94,11.78C16.86,203.76,32,223,49.79,212.77S62.91,179.64,66.21,175l3.3-4.59L125.8,172s-7.15,45.25,13.81,52.88,38.69-10.38,38.69-10.38-30.49-4.5-26-19.05c15.59-20.4,23.9-45.88,15.94-57.24-1.73-15.52-.69-28.33-5.89-31.79C165.84,97.41,161,45.79,112.32,60Z"/><path class="cls-5" d="M97.38,71.92c25.26,0,39.27,1.93,42.55,55.18h0l-76.36-1.5S45.93,71.92,97.38,71.92Z"/><path class="cls-5" d="M65.41,124.82c-4.09-7-33.31-7.86-11.13,18.92l22.18,26.78L54.28,143.74l13,6.74Z"/><path class="cls-5" d="M57.8,153.64c-3.22,8.82,1.08,17.92,3,29.55s.45,16.15.45,16.15,4.44-26.63,8.24-28.88-2.25-22.25-2.25-22.25l-9.45,5.43"/><path class="cls-6" d="M107.93,70.63C106.57,63.37,63.22,51.8,60.82,93.5l.28,5.88,46.84-25.79Z"/><path class="cls-6" d="M143.63,118.45c8.4,8.4-.31,43.67-.31,63.55,0,19.43-12,36.72-12,36.72l-4.21-16s-2.85-20.29,0-27.63,9.47-22.12,9.47-22.12Z"/><path class="cls-5" d="M124.83,81.26c.54.76,18.06,12.78,23.71,14.93s2.69,23.67,2.15,27.44-10.76,3.48-10.76,3.48Z"/><path class="cls-7" d="M147.12,125.34a24.55,24.55,0,0,1,18.78,13.85c4.15,8.79,1.67,18.62-2.36,27-5.76,11.94-23.9,33-9.15,45a15.54,15.54,0,0,0,19.57-.37c.34-.28-.62-.45-.86-.25a14.15,14.15,0,0,1-22.34-5.86c-3.24-8.48,2.35-18.17,6.46-25.37,7.46-13.05,17.73-29.37,7.55-43.88a25.28,25.28,0,0,0-17.38-10.59c-.47-.06-.94.4-.27.48Z"/><path class="cls-7" d="M61.66,119.25c-4.7-3-10.52-1.9-14.9,1.19-6.39,4.5-8.06,12.33-7.87,19.74.25,9.55,2.21,19.17,3.5,28.62,1.17,8.6,3.06,17.45,2.8,26.16-.12,4.15-.87,8.42-3.09,12-2.92,4.69-9.54,8.54-14.57,4.48-.24-.2-1.2,0-.86.25,4.65,3.76,11.34,1.57,14.92-2.61,4.68-5.46,5-13.2,4.42-20-.74-9.36-2.41-18.69-3.68-28-1.24-9.1-3.6-18.92-2-28.09.82-4.7,2.9-9,6.74-11.91,4-3.06,9.39-4.32,13.86-1.48.27.17,1.18-.05.71-.35Z"/><path class="cls-7" d="M116.92,67.57c-2.66-6.95-10.16-10.4-17-11.88s-14.31-1.22-20.54,2C72.3,61.44,68.93,68.54,67,76c-2.62,9.94-4.47,20.12-6.65,30.16-2.23,10.25-4.39,21.11-11.61,29.16-.31.34.65.49.86.25,5-5.53,7.61-12.42,9.47-19.51,2.29-8.73,4-17.65,5.88-26.46,1.75-8,2.83-17,7.26-24.07S84.8,55.12,93.1,55.34c8.53.23,19.53,3.65,22.86,12.36.12.3,1.1.23,1-.13Z"/><path class="cls-7" d="M117.8,61.9c13-5.63,27.26.27,35.44,11a35.46,35.46,0,0,1,7.23,16.5c.82,6.51-2.5,12.74-1.28,19.19.07.36,1.06.31,1,0-.73-3.85.24-7.51.93-11.28A25.53,25.53,0,0,0,160.77,86a38.62,38.62,0,0,0-9.65-16.76c-8.77-9-22.24-12.79-34-7.67-.5.22.42.48.71.35Z"/><path class="cls-7" d="M120.24,80.91c-.77,3.26.81,6.09,2.4,8.85s3.3,5.55,5.12,8.22a61.91,61.91,0,0,0,12.62,14c8.72,6.84,20.61,10.28,31.31,6.37.61-.22-.15-.56-.5-.43-11.46,4.19-23.81-.5-32.49-8.34A67,67,0,0,1,128,96.79c-1.56-2.34-3-4.74-4.42-7.17-1.56-2.71-3.11-5.51-2.36-8.72.07-.3-.91-.36-1,0Z"/><path class="cls-7" d="M119.87,84.16c-1.06,2.12,1.08,4.17,2.26,5.8,1.63,2.26,3.3,4.51,5,6.68a61.11,61.11,0,0,0,11.18,11.14c9.18,6.75,20.13,7.7,31.19,7.37.59,0,.61-.52,0-.5-11,.33-21.88-.67-30.95-7.59a60.68,60.68,0,0,1-10-9.93c-1.52-1.85-3-3.76-4.38-5.69-1.23-1.68-4.56-4.88-3.43-7.14.17-.33-.81-.43-1-.13Z"/><path class="cls-7" d="M110.59,85.71c-.11-13.4-6.7-28.91-21.88-30.09-.46,0-.94.43-.27.48,14.86,1.15,21,16.64,21.15,29.61,0,.35,1,.35,1,0Z"/><path class="cls-7" d="M113.48,81.14C111.37,71,108,58.58,96.52,55.85c-.35-.08-1.14.28-.5.43,11.25,2.67,14.41,15.07,16.47,24.86.08.36,1.06.31,1,0Z"/><path class="cls-7" d="M66.16,154.81C59.47,171,60,190.21,48.81,204.4c-.2.26.75.4,1,.13,11.2-14.19,10.66-33.42,17.35-49.59.15-.35-.84-.44-1-.13Z"/><path class="cls-8" d="M67.66,165.12s1.15,10.6,1.68,16.45-2.93,19.2-2.93,19.2,7.71,36.4,34.05,36.4,36.06-36,36.06-36-13.34-13.85-9-31.88"/><path class="cls-9" d="M68.71,166.88c-.3.72,2.06,26,2.35,26.61s5.39,3.66,8.36,7.27a115.11,115.11,0,0,0,9.44,9.35s18.32-1.62,20.79,0S121.33,185.29,126,184c0,0,.89-10.17.9-13.78S68.71,166.88,68.71,166.88Z"/><path class="cls-10" d="M101.09,190.74c6.26,0,15.79-1,29-18.62a42.59,42.59,0,0,0,5.81-15.64,211.66,211.66,0,0,1,5.66-24.58c.89-2.68-2.38-8-2.68-10s-13-36.79-14.15-41.26c-19.06-9.23-48.85-.6-53.62,1.79s-.3,25.32-4.77,31.87C64.6,125.05,63.11,148,63.7,150.67s.6,16.38,9.23,23.53S90.51,190,101.09,190.74Z"/><path class="cls-11" d="M113.38,127.1c1.3-.66,11.52-.36,12.48-1.62l-7.48-1.35Z"/><path class="cls-11" d="M78.6,125.48c0-.09,12.08,1.08,14.2-.49C92.8,125,79.75,123.72,78.6,125.48Z"/><path class="cls-12" d="M103.16,152.27c4.29-3.29,4.83-5.16,7-4.63,1,.27.94.74.94.74"/><path class="cls-12" d="M95.18,146.82c.8-.56,3.29,1.41,6.17,5.49"/><path class="cls-13" d="M106.12,125.76c0-1.65.65,4.68,1.65,6.16.45,2.26-.16,8-.83,8.5s-.75-.23-.83-.47S106.12,130.51,106.12,125.76Z"/><path class="cls-13" d="M100.47,125.48c.31,6.25.1,11.15-1,12.73-2.5,0-1.39-4.59-1.39-4.59S99.84,132,100.47,125.48Z"/><path class="cls-14" d="M81.23,152.22c1.21-1.54,7.06-5.46,7.06-5.46.17-1-.61-.88-1.82,0s-5.35,4-6,4.74-.66,2.27.44,5.77C81.79,157.27,80.63,153.21,81.23,152.22Z"/><path class="cls-14" d="M124.07,154.43c-1.8-2.75-2.94-4.84-4-5.33s-.84.16,0,1.3a33.69,33.69,0,0,1,2.73,4,11.61,11.61,0,0,1,0,5.61c1,.49,1.05.42,1.26-.21S124.67,155.34,124.07,154.43Z"/><path class="cls-15" d="M83.48,156.22c3.18-.87,16.3.19,19.18,1,3.16-.24,13.32-.76,16.21.34,0,3.24-2.16,13.42-15.79,13.42S83.48,156.22,83.48,156.22Z"/><path class="cls-16" d="M85.3,157.84c3.89-.18,14.21,2.74,18.52,3s11-2.93,14-1.51c0,0-.88,3.72-7,5.31s-14.74.18-16.57-.53S88.13,161.55,85.3,157.84Z"/><path class="cls-17" d="M78.22,125.38c-.3-.08-.73-.19-1.16-.28a.73.73,0,0,1-.43-1.18,11.78,11.78,0,0,1,12-3.63.76.76,0,0,1,.41.27,19.11,19.11,0,0,0,4.17,4.08s.53.1-.4.35-11.6-1.55-14,.27A.7.7,0,0,1,78.22,125.38Z"/><path class="cls-17" d="M125.86,125.48a14.59,14.59,0,0,0,2.78,0c-.51-1.61-4.7-4.7-9.77-4.59-3.91,2.53-5.15,3.55-6.51,4.57s1.59.28,1.59.28S122.09,123.73,125.86,125.48Z"/><path class="cls-13" d="M117.2,185.42c5.74-11.52,9.15-22.59,9-23s-1-.26-1.37,1-9.92,23.61-11.58,24.41Z"/><path class="cls-13" d="M91.25,186.37c-5-5.15-10.09-15.45-11.24-19.31-2.92-1.68,1.82,8.83,4.84,13.84l3,5,3.46,2Z"/><path class="cls-18" d="M112.49,125.84c3.8-3.48,8.49-4.25,13.37-.35-3.67,1.24-11.09.86-11.78,1.24l-.7.38S111.81,126.42,112.49,125.84Z"/><path class="cls-18" d="M78.6,124.32c2.43-2.43,7.5-5.08,14.2.67-1,.49-6.34.78-9.31.49a21.83,21.83,0,0,0-4.89,0S77.84,125.08,78.6,124.32Z"/><path class="cls-19" d="M99.49,168c7.89.14,8.29,1.24,8.29,1.24S101.75,171.11,99.49,168Z"/><path class="cls-20" d="M85.2,125.48c2.78,0,4-.27,3.36-3.18a7.25,7.25,0,0,0-6.5-.23S81.38,125.77,85.2,125.48Z"/><path class="cls-20" d="M118.08,126.46c4.37,0,4-.52,3.87-3.15-3.87-1.63-6,.26-6,.26S115.09,126.7,118.08,126.46Z"/><circle class="cls-21" cx="85.37" cy="123.63" r="0.75"/><circle class="cls-21" cx="119.24" cy="124.58" r="0.7"/><path class="cls-18" d="M85.3,122.13s1.45,0,1.14.75S85.3,122.13,85.3,122.13Z"/><path class="cls-18" d="M119.35,123.39s1.45,0,1.14.75S119.35,123.39,119.35,123.39Z"/><path class="cls-14" d="M55.06,128.74c-1.43,6-.57,10.84,0,11.84s-4.11,14.91,8.64,10.09C64.45,131.59,55.06,128.74,55.06,128.74Z"/><path class="cls-22" d="M143.3,127.1c.24,5.34-1.91,13.43-1.55,15.33s1.88,6.67.76,8-3.46,4.7-6,2.53,3.39-25.83,3.39-25.83S141.87,124.62,143.3,127.1Z"/><circle class="cls-18" cx="57.8" cy="150.63" r="3.01"/><circle class="cls-18" cx="141.75" cy="152.93" r="3.01"/><g class="cls-23"><path class="cls-24" d="M35.61,166.22l1.17,3.51c.13.39.78-.67.83-.75.22-.37.8-1.26.64-1.75l-1.17-3.51c-.13-.39-.78.67-.83.75-.22.37-.8,1.26-.64,1.75Z"/></g><g class="cls-25"><path class="cls-24" d="M72.09,117.86c2.3-2.65,4.14-3.74,7.49-3.58a19.24,19.24,0,0,1,8,1.66c2,1,4,3.17,5.8.59.93-1.31,1.05-3.07-.35-4a3.83,3.83,0,0,0-2.13-.41,42.34,42.34,0,0,1-5-.33,20.5,20.5,0,0,0-6.84,0c-.64.1-1.83,2.19-1.22,2.69l.44.36c.44.36,2-2.13,1.36-2.67l-.44-.36L77.9,114.5c1-.16,14.83-.32,14.38,2.24l1.16-2.05c-1.79,1.11-5.32-1.89-7.1-2.38a25.58,25.58,0,0,0-6.38-.74c-3.68,0-5.64,1.88-8,4.55-.54.63-1.16,3.19.09,1.75Z"/></g><g class="cls-25"><path class="cls-24" d="M133.77,119.12a10.71,10.71,0,0,0-5.62-6c-4.74-2-10.11.4-14.66,1.85l1.93,2.3c1.88-5,10.72-3.47,14.76-2.94L128.46,112l-4.51-.1,1.82,2.32c3.66-1.41,5.48,1.49,7.58,4,1.1,1.31,1.65.9.53-.44-2.64-3.15-5.29-7.67-10-5.85-.32.12,1.32,2.3,1.82,2.32l4.51.1c.27,0-1-2.24-1.72-2.33-3.89-.5-13.1-2-15,3-.21.55,1.34,2.49,1.93,2.3,3.85-1.23,14.13-5.62,16.42.13.24.59,2.14,2.28,1.93,1.76Z"/></g><path class="cls-26" d="M91.94,116.36a.26.26,0,0,0,.29-.19.73.73,0,0,0,0-.37,12.78,12.78,0,0,0-.59-2.06.94.94,0,0,0-.48-.62"/><path class="cls-26" d="M91,116.76a11,11,0,0,0-1.45-3.95"/><path class="cls-26" d="M89.08,116.06l0,.05A5.62,5.62,0,0,0,88,112.75"/><path class="cls-26" d="M87.32,115.67a5.13,5.13,0,0,0-1.2-3.11"/><path class="cls-26" d="M85.91,115.75a4.85,4.85,0,0,0-1.43-3.18"/><path class="cls-26" d="M84.62,115.22a6.61,6.61,0,0,1-1-1.78A2.67,2.67,0,0,0,82.22,112"/><path class="cls-26" d="M82.06,113.76a5.83,5.83,0,0,0-2.65-2.14"/><path class="cls-26" d="M80.15,113.68a15.45,15.45,0,0,0-2.28-1.59"/><path class="cls-26" d="M78,113.8a2.23,2.23,0,0,0-1.89-1.21"/><path class="cls-26" d="M76.52,114a2.59,2.59,0,0,0-2.07-.57"/><path class="cls-26" d="M75.38,114.2l-2,.09"/><path class="cls-26" d="M74.3,115.29a1.51,1.51,0,0,0-1.78.45"/><path class="cls-26" d="M73.38,115.83a1,1,0,0,0-1.16.84"/><path class="cls-26" d="M72.53,116.82a1.44,1.44,0,0,0-.61.62"/><path class="cls-26" d="M93.06,117.24a4.17,4.17,0,0,0-.24-4.09"/><path class="cls-26" d="M114.81,117.49a9.9,9.9,0,0,1-.19-2.17,2.33,2.33,0,0,1,.88-2.06"/><path class="cls-26" d="M116,117.24a4.18,4.18,0,0,1-.25-1.42,8.36,8.36,0,0,1,.18-1.49c.07-.41.2-.89.6-1"/><path class="cls-26" d="M117.34,116.89a9.63,9.63,0,0,1,.15-3.57c.08-.34.24-.75.59-.8"/><path class="cls-26" d="M118.92,116.49a9.16,9.16,0,0,1,.47-3.55c.09-.25.28-.55.53-.47"/><path class="cls-26" d="M120.49,115.76a9.08,9.08,0,0,1,0-1.86,3,3,0,0,1,.74-1.68"/><path class="cls-26" d="M122,115.57l.23-2.08a1.59,1.59,0,0,1,.21-.74.55.55,0,0,1,.67-.22"/><path class="cls-26" d="M123.34,114.77a5.28,5.28,0,0,1,.63-1.9,2.63,2.63,0,0,1,.41-.68.89.89,0,0,1,.7-.31"/><path class="cls-26" d="M124.77,114.3a1.37,1.37,0,0,1,.27-1,7.07,7.07,0,0,0,.57-.87,2.52,2.52,0,0,1,.25-.53,1.48,1.48,0,0,1,1.2-.38"/><path class="cls-26" d="M126.53,113.19a4.33,4.33,0,0,1,1.14-1.21,1.65,1.65,0,0,1,1.59-.17"/><path class="cls-26" d="M127.52,113.61c-.15-.2,0-.48.18-.65a1.56,1.56,0,0,1,2.09.09"/><path class="cls-26" d="M129.38,114.24a1.7,1.7,0,0,1,2.2.59"/><path class="cls-26" d="M130.91,115.52a1.82,1.82,0,0,1,1.92.84"/><path class="cls-26" d="M132.49,117.23a1.22,1.22,0,0,1,1.26.78"/><path class="cls-26" d="M133.68,119.27l.6.53"/><path class="cls-2" d="M175.64,239.35l-7,9.81h-3.4V238.79h-2.8V236.5h2.8v-3.68h2.39v3.68h8Zm-8,7.44,5.75-8h-5.75Z"/><path class="cls-3" d="M167.42,227.89c-4.64-4.41-9.27-8.82-9.27-13.22a4.53,4.53,0,0,1,4.65-4.39c2.12,0,3.27.92,4.34,2.76-1.07-3.82-2.22-5.74-4.34-5.74H172c-2.12,0-3.27,1.92-4.34,5.74,1.07-1.84,2.22-2.76,4.34-2.76a4.53,4.53,0,0,1,4.65,4.39C176.7,219.07,172.06,223.48,167.42,227.89Z"/></svg>