<svg id="Layer_1" data-name="Layer 1" xmlns="http://www.w3.org/2000/svg" viewBox="0 0 196 266.67"><defs><style>.cls-1{fill:#f8e4e3;}.cls-2{fill:#be1e2d;}.cls-3{fill:#050606;}.cls-4{fill:#381c15;}.cls-5{fill:none;}.cls-6{fill:#351909;}.cls-7{fill:#a36949;}.cls-8{fill:#956042;}.cls-9{fill:#ad704d;}.cls-10{fill:#cb565e;}.cls-11{fill:#f5e0cd;}.cls-12{fill:#6b3720;}.cls-13{fill:#ebf4f0;}.cls-14{fill:#211010;}.cls-15{fill:#905d3f;}.cls-16{fill:#fff;}.cls-17{opacity:0.15;}</style></defs><title>badbitchcards</title><rect class="cls-1" x="8.63" y="8.48" width="178.58" height="249.45" rx="8.5" ry="8.5"/><path class="cls-2" d="M21,33.36a6.32,6.32,0,0,0,3,.78c4,0,5.57-2.6,5.67-5.8a4.6,4.6,0,0,1-4.23,2.09,5.41,5.41,0,0,1-5.65-5.52,5.76,5.76,0,0,1,6-5.65c3.2,0,6.35,2.29,6.35,7.51,0,6-2.67,9.58-8.17,9.58a7.92,7.92,0,0,1-3.78-1Zm4.79-11.92a3.4,3.4,0,0,0-3.53,3.43,3.35,3.35,0,0,0,3.53,3.45,3.44,3.44,0,1,0,0-6.88Z"/><path class="cls-3" d="M113.45,61.47a39.07,39.07,0,0,0-25.24-9.81c-15.17,0-38.08,5.42-38.08,20-6,7.7-5.4,10-5.4,10s-10.68,1.48-7.92,16.19a8.2,8.2,0,0,0-4.58,9.71c-2.12,5.86-1.71,8.19-.26,11.49-13.89,8.33-10.06,32.42,0,42.53,2.53,18.45,19.46,23.5,19.21,25.27-2.48,4.65-5.1,3.92-5.1,3.92s13.27,9.71,18.76,5.68c0,0,15.07-12.35,13.37-23.08l-10.06-9.77,44.45,2.79.76.42s10.33,26.1,22.57,26.1,12.57-6.12,12.57-6.12,9.26.82,10.92-.85-2.06-9.51-2.06-9.51a34.74,34.74,0,0,0,1.58-8.72c0-3.8-4-5.85-4.44-14.49s6.56-22.61,5.34-32.11,2.34-12.27-6.61-21.22-22.34-32.64-29.47-35S113.45,61.47,113.45,61.47Z"/><path class="cls-4" d="M35.75,153.25s1.93-4.43,4.91-4.61,5.87,7,5.87,7,.38-5.63,1.53-5.77,3.45,2.84,4,3.39,2.3-.23,3.57,1.18,5.62,5.12,2.81,13.41-.94,10.22.93,11a7.71,7.71,0,0,0,3.4.7s-8.53,9.6-15.2,4.43-12.07-9-13.79-15.7c6.53-1.22,11.51,3.61,12.28,5.27,1.15-3.32,5.74-4.34-1.53-12S36.2,156,35.75,153.25Z"/><path class="cls-4" d="M32,119.06s5.59,9.07,16.27,9.07,16.39-9,18-10.29,5.29-6.63,5.29-6.63,9.38-3.74,10.82-3.93,7.55-11.71,3.43-25.13c0,0,9.54-10.33,9.54-16.87,0,0-5.46-1.07-10.45,4.28l.91-4.36a6.25,6.25,0,0,0-4.38,2.94l1.3-4.63a4.9,4.9,0,0,0-4.65,0s.19-1.07-1.13-3.09-1.28-2.26-.65-3.56a3.91,3.91,0,0,0,0-2.85S53.83,59.18,50.13,71.67c0,0-3.3,7.49-5.4,10,.75,3,6.1-.47,6.1-.47s-4.87,7.25-6.3,7.48c2.14,3.33,7,1.19,7,1.19S49.29,94.61,47.86,95c0,0,6-.21,4.63,2.26-.59,1.07-9.56,8.61-15.68,2.49,0,0-5.61-.8-4.83,6.19,0,0-1.57,6.47-1.22,8.65A27.45,27.45,0,0,0,32,119.06Z"/><path class="cls-4" d="M118.66,75S135,78.7,138.08,85.14s2.54,45.2,5.85,50.8c-7.61,2.48-9.17-42.41-15-48.65S119.15,79.88,118.66,75Z"/><path class="cls-5" d="M140.95,161.28s5.28,4.87,6.12,7.23S143.31,165.87,140.95,161.28Z"/><path class="cls-4" d="M139.7,167.26c-.48.34-3.89,3.75-3.75,6.53s11.22,7,11.22,7,4.63-4.2,4.49-8.08C151.65,172.66,142.06,165.59,139.7,167.26Z"/><path class="cls-6" d="M154.13,144.48s-8.17,10.77-3,15.92C156,160.13,150.28,151.24,154.13,144.48Z"/><path class="cls-7" d="M102.18,226.29c26.28,0,38-33.39,38-33.39S116.9,185,116,165.79,72.49,149,71,163s-2.26,28.26-7.46,32.64C65.5,205.48,70.43,225.19,102.18,226.29Z"/><path class="cls-8" d="M108.92,196.81c2.6-.39,11.14-16.44,11.87-17.82a24,24,0,0,1-4.81-13.2,11.75,11.75,0,0,0-.61-3.26c-7.57-.82-46.64,6.89-40.41,13,0,0,14.66,12.53,16.29,14.43S106.2,197.22,108.92,196.81Z"/><path class="cls-8" d="M73.28,195l1.67-19.47L74.71,173l-6.06-7s1.09,21.12,0,24.25S72.32,193.68,73.28,195Z"/><path class="cls-7" d="M97.56,76.05c15.22,0,26.53,1.23,23.58,30.24,1.72,14.51,4.92,17.21,4.92,17.21s3.44,14.26-2.46,25.82c-13.77,23.85-14.75,32-30.24,32s-25.08-14.75-31.47-25.82c-8.61-23.11,1.23-33.44,2.7-34.91a89.51,89.51,0,0,0,6.88-9.34c.49-1,8.85-2.46,10.82-3.93s5.41-6.64,5.16-23.11C95.07,76.05,97.56,76.05,97.56,76.05Z"/><path class="cls-4" d="M74,125s-7.1-2.34-7.78-3.08a12.32,12.32,0,0,1,9.47-4.07c6.32,0,8.36,5.06,8.47,6.21Z"/><path class="cls-4" d="M113.27,125l4.41-1.72s-3.16-5.43-12-5.43c0,0-4.05,1.12-7,6.54Z"/><path class="cls-9" d="M81.13,124.32s2.78,0,3-.27-1.41-.83-1.41-.83S81.11,123.41,81.13,124.32Z"/><path class="cls-10" d="M74.27,150.68S82,146.13,91,148.16c0,0,7.32-2,18,4.07,0,0-5,12.94-19.21,11.23C78.74,163.62,74.27,150.68,74.27,150.68Z"/><path class="cls-11" d="M75.65,151.42s12.13-.9,13.27-.41a6.41,6.41,0,0,1,2,1.55s1.14-2.52,13.27-.33l2.6.73s-3.74,5-15.59,5S75.65,151.42,75.65,151.42Z"/><path class="cls-12" d="M92.72,143.77s3.42-3.74,7.72-2.86"/><path class="cls-12" d="M81.42,139.31s6.21,1.51,6.29,3.34"/><path class="cls-13" d="M100.14,123.49a8.46,8.46,0,0,1,7.71-3.41,10.12,10.12,0,0,1,7.08,3.86s-.76,1.75-7.4,1.75c0,0-5.41-1.34-7.1-1.26S100.14,123.49,100.14,123.49Z"/><path class="cls-14" d="M103.53,120.74s.12,4.95,4,4.95,3-4.95,3-4.95a9.46,9.46,0,0,0-3.65-.77A7.52,7.52,0,0,0,103.53,120.74Z"/><path class="cls-13" d="M82.71,123.22C82.55,123,79.1,120,75.65,120a8.84,8.84,0,0,0-5.94,2.83A8.19,8.19,0,0,0,75.65,125a18.8,18.8,0,0,0,6.42-1Z"/><path class="cls-14" d="M72.38,120.85s.48,4.13,3.27,4.13,4.23-3.17,3.76-4c-.28-.49-2.09-1-3.89-1A6.18,6.18,0,0,0,72.38,120.85Z"/><path class="cls-14" d="M97.5,115.1c-.09-.06.1-.32.13-.38.19-.37.41-.73.62-1.1a17.39,17.39,0,0,1,1.44-1.88"/><path class="cls-14" d="M99.08,114.82c0-.13.12-.24.18-.34s.24-.38.37-.56c.34-.48.7-1,1-1.47a11,11,0,0,1,.86-1.16,5.81,5.81,0,0,1,1-1"/><path class="cls-14" d="M101.31,113.94c0-.15.16-.34.23-.46a7.41,7.41,0,0,1,.7-.9c.25-.31.48-.66.75-.94s.48-.5.71-.77c.37-.43.76-.85,1.14-1.27a3.39,3.39,0,0,1,1.3-.91"/><path class="cls-14" d="M104.47,112.26c.07,0,.05-.06.09-.13a3.39,3.39,0,0,1,.19-.29c.27-.42.57-.81.88-1.2a7.42,7.42,0,0,1,.8-.89c.28-.26.6-.48.89-.74.07-.06.13-.16.21-.21s.1,0,.15-.07.12-.16.18-.23a1.31,1.31,0,0,1,.23-.2,4,4,0,0,1,1-.56"/><path class="cls-14" d="M106.61,110.87a1.33,1.33,0,0,1,.46-.42c.3-.21.6-.4.89-.61s.51-.34.75-.54.21-.14.3-.23l.31-.27a3.45,3.45,0,0,1,.47-.4l.19-.09a1.21,1.21,0,0,0,.26-.19,2.48,2.48,0,0,1,1.34-.56"/><path class="cls-14" d="M110.43,109.05a1.51,1.51,0,0,1,.73-.51c.16-.07.29-.17.45-.22l.44-.14a1.76,1.76,0,0,1,.58-.1,1.75,1.75,0,0,0,.3,0,3.76,3.76,0,0,1,.51,0"/><path class="cls-14" d="M112.43,108.82a1.87,1.87,0,0,1,.36-.14,4.55,4.55,0,0,1,.54,0h.49a1.67,1.67,0,0,1,.39.09c.15,0,.29.12.44.14a3.66,3.66,0,0,1,.37,0,2.13,2.13,0,0,1,.9.4"/><path class="cls-14" d="M115.45,109.94c.07,0,.08,0,.14,0a.67.67,0,0,0,.16,0,2.14,2.14,0,0,1,.41.08c.21,0,.39.13.6.2s.62,0,.93.08.65.13,1,.2"/><path class="cls-14" d="M117.87,111h.3a.75.75,0,0,1,.4.12l.84.39"/><path class="cls-14" d="M83.83,114.57c.26,0,.06-.84,0-1a4.87,4.87,0,0,0-.23-.71c-.07-.27-.35-.43-.49-.65a2.59,2.59,0,0,1-.13-.37c0-.12-.19-.29-.19-.41"/><path class="cls-14" d="M82.92,114c0-.07-.06-.14-.09-.2a2.35,2.35,0,0,1-.17-.43,2.44,2.44,0,0,0-.19-.46c-.08-.15-.21-.28-.3-.43s-.11-.29-.18-.42-.18-.36-.28-.54-.26-.32-.37-.5a3.76,3.76,0,0,1-.28-.6"/><path class="cls-14" d="M81.34,113.25a.49.49,0,0,1-.1-.22,3.73,3.73,0,0,0-.16-.4,8.9,8.9,0,0,0-.55-.94c-.16-.26-.21-.56-.35-.83a1.72,1.72,0,0,0-.3-.4c-.1-.11-.2-.23-.3-.33"/><path class="cls-14" d="M80,112.48a1.45,1.45,0,0,1-.27-.37,5.75,5.75,0,0,1-.36-.63,3,3,0,0,0-.6-.76c-.19-.21-.16-.58-.4-.73"/><path class="cls-14" d="M78,111.71a3.06,3.06,0,0,1-.54-.77,4,4,0,0,0-.33-.5,2.42,2.42,0,0,1-.26-.45"/><path class="cls-14" d="M76.09,110.85c-.11-.12-.1-.29-.16-.43a2.68,2.68,0,0,0-.25-.45,2.22,2.22,0,0,0-.41-.39"/><path class="cls-14" d="M74.68,110.36a1.47,1.47,0,0,0-.33-.23c-.13-.06-.34-.08-.4-.23"/><path class="cls-15" d="M97.66,135.12c1.9-2.15,3.32.08,3.9,1.81.38,1.12.84,3-.21,4l.51-.07-.09,0c-.26-.07-.85.2-.38.32.68.19,1-.41,1.19-1,.46-1.21-.09-2.79-.55-3.94a3.35,3.35,0,0,0-2.16-2.33A2.64,2.64,0,0,0,97,134.93c-.23.26.49.37.65.19Z"/><path class="cls-15" d="M84,132.19a4.09,4.09,0,0,0-3.73,2.63c-.66,1.38-1,3.83.43,4.78.19.13.91,0,.65-.19-1.22-.8-1-3-.49-4.18a3.84,3.84,0,0,1,3.34-2.68c.5,0,.15-.39-.2-.36Z"/><path class="cls-15" d="M74.62,143.61c-.65.52-1.22,1.14-1.88,1.64a10.13,10.13,0,0,0-2.1,1.6,4.51,4.51,0,0,0-.57,2.35,7.14,7.14,0,0,0,.1,2.72c.09.23.83.17.72-.1a7,7,0,0,1-.07-2.62,3.43,3.43,0,0,1,1.29-2.84c1-.86,2.11-1.72,3.16-2.57.25-.2-.46-.34-.65-.19Z"/><path class="cls-9" d="M84,126.34s-4.88,3.28-8.69,3.28-7.42-3.9-8.89-3.93-9.94,4.13-4.18,17c0,0,6.15,8.39,14.66-3.34,7.71-11.73,6.13-10,8.17-10.64S84,126.34,84,126.34Z"/><path class="cls-9" d="M97.06,125.69s-1.53,2.34,0,6c0,0,8.44,4.1,9.55,10.15s15.87,4.61,15.87-5-5.2-10.32-5.8-10.32-9,4.39-14.31,1.79S98.09,124.45,97.06,125.69Z"/><path class="cls-9" d="M94.9,83c9,0-.19,32.15-4.86,29.53S91.21,100,90,94.86,90.34,83,94.9,83Z"/><path class="cls-9" d="M78.14,166.48s.38,12.41,12.16,12.41,15.48-8.32,15.35-10.88-9.44,1.92-13.42,1.92S83.39,166,78.14,166.48Z"/><path class="cls-9" d="M88.87,138.41c4.3.57,3.82-20.57,1.71-20.57S88.87,138.41,88.87,138.41Z"/><path class="cls-15" d="M112.11,149.25c1.13.78.69,2.61.69,3.78,0,.79-.32,2.28.14,3,.14.21.87.12.72-.1-.29-.43-.11-1.19-.11-1.68,0-.84,0-1.68,0-2.51,0-1,.14-2-.8-2.64-.19-.13-.91,0-.65.19Z"/><path class="cls-9" d="M100,124.49s-.87-.05-1.28-.05,0-.9,1.51-.95A2.47,2.47,0,0,1,100,124.49Z"/><path class="cls-16" d="M105.39,122.21c1.48.83,1.43-1.55,1.43-1.55s-.85.06-1.05.32-.91-.06-.91-.06S104.93,121.94,105.39,122.21Z"/><path class="cls-16" d="M75.15,121.75c1,0,.66-1.1.66-1.1l-.66-.12-.54.12S74.64,121.75,75.15,121.75Z"/><path class="cls-8" d="M123.59,149.32a30.09,30.09,0,0,0,2.53-7.18c-2.16,3.21-4.91,7.1-4.91,7.1s-10.42,15.65-19.24,30.7C109.94,176.78,113,167.76,123.59,149.32Z"/><g class="cls-17"><path class="cls-4" d="M100.68,110.41c-.91.78-5.36,5.6-1.94,5.68,1.81,0,5.35-3.55,6.9-4.26,4.26-1.94,8.46-.66,12.5,1.2l2.77-3.55c-3-.57-5.64-2.16-8.61-2.6s-4.92.72-7.47,1.73c-2.16.86-8.28,2.59-6.56,6.35.1.23.26.25.5.1.49-.3,4-2.77,4.55-2.47.88.49,3.36-3.21,2.77-3.55s-.48-.08-1.07,0c0,0-4.07,2.07-3.92,1.77l-2.27,2.71c2.46-1.26,6.57-3,9.22-3.12,3.47-.16,6.74,2,10.1,2.65,1,.19,3.38-3.26,2.77-3.55-3.57-1.65-7.44-3-11.38-1.84a16.86,16.86,0,0,0-4.11,2,52.47,52.47,0,0,0-6,3.79c.63-.54,2.82-4.3,1.31-3Z"/></g><g class="cls-17"><path class="cls-4" d="M85,112.54c-.56-1.76-2.15-2.44-3.77-3a43.27,43.27,0,0,0-6.88-1.88l-2.07,3.6c3.18-1.16,6.82,1.92,9.42,3.44,1,.61,3.61-3.06,2.77-3.55-3.07-1.8-6.66-4.79-10.4-3.43-.64.23-3.38,3.35-2.07,3.6A40.18,40.18,0,0,1,78.42,113c1.41.52,3.05,1.09,3.55,2.66.29.92,3.37-2,3-3.17Z"/></g><path class="cls-2" d="M21.71,42.91c2.57,0,3.86,1.22,5.14,3.64,1.28-2.42,2.57-3.63,5.14-3.64a5,5,0,0,1,5.18,4.89c0,4.9-5.15,9.8-10.31,14.71-5.16-4.9-10.32-9.81-10.31-14.71A5,5,0,0,1,21.71,42.91Z"/><path class="cls-2" d="M173.61,224.89c-2.57,0-3.86-1.22-5.14-3.64-1.28,2.42-2.57,3.63-5.14,3.64a5,5,0,0,1-5.18-4.89c0-4.9,5.15-9.8,10.31-14.71,5.16,4.9,10.32,9.81,10.31,14.71A5,5,0,0,1,173.61,224.89Z"/><path class="cls-2" d="M174.33,233.26a6.32,6.32,0,0,0-3-.78c-4,0-5.57,2.6-5.67,5.8a4.61,4.61,0,0,1,4.23-2.09,5.41,5.41,0,0,1,5.65,5.52,5.75,5.75,0,0,1-6,5.65c-3.2,0-6.35-2.29-6.35-7.51,0-6,2.67-9.58,8.17-9.58a7.92,7.92,0,0,1,3.78,1Zm-4.79,11.92a3.4,3.4,0,0,0,3.53-3.43,3.35,3.35,0,0,0-3.53-3.45,3.44,3.44,0,1,0,0,6.88Z"/></svg>