<svg id="Layer_1" data-name="Layer 1" xmlns="http://www.w3.org/2000/svg" viewBox="0 0 196 266.67"><defs><style>.cls-1{fill:#f8e4e3;}.cls-2{fill:#231f20;}.cls-3{fill:#010101;}.cls-4{fill:#d39372;}.cls-5,.cls-6{fill:#1d1611;}.cls-12,.cls-16,.cls-18,.cls-20,.cls-22,.cls-23,.cls-6{opacity:0.99;}.cls-7{fill:#d69a79;}.cls-8{fill:#e6847a;}.cls-9{fill:#f8e8d7;}.cls-10,.cls-15,.cls-28{fill:#443123;}.cls-11{fill:#6b3720;}.cls-12{fill:#250800;}.cls-13{fill:#d28867;}.cls-14{fill:#d39371;}.cls-15{opacity:0.07;}.cls-17{fill:#270e0b;}.cls-18{fill:#ebf4f0;}.cls-19{fill:#451d12;}.cls-20{fill:#441e14;}.cls-21,.cls-22{fill:#d49372;}.cls-23{fill:#dca17c;}.cls-24{fill:#f5e0cd;}.cls-25{fill:#cc9674;}.cls-26{fill:#58595b;}.cls-26,.cls-27{stroke:#f5e0cd;stroke-miterlimit:10;}.cls-27{fill:#58585a;}.cls-28{opacity:0.3;}.cls-29{fill:#a07159;}.cls-30{fill:#dca583;}.cls-31{fill:#a78b86;}.cls-32{fill:#e9f1ee;}.cls-33{fill:#ecf4f2;}.cls-34{opacity:0.15;}.cls-35{fill:#381c15;}</style></defs><title>badbitchcards</title><rect class="cls-1" x="8.63" y="8.48" width="178.58" height="249.45" rx="8.5" ry="8.5"/><path class="cls-2" d="M22.88,32.67a4.27,4.27,0,0,1,3.1-4,4.11,4.11,0,0,1-2.67-3.83c0-2.67,2.37-4.54,5.5-4.54s5.5,1.87,5.5,4.54a4.12,4.12,0,0,1-2.67,3.83,4.25,4.25,0,0,1,3.1,4c0,2.62-2.17,4.69-5.92,4.69S22.88,35.29,22.88,32.67Zm9.35-.2c0-1.56-1.26-2.8-3.43-2.8s-3.43,1.24-3.43,2.8,1.24,2.75,3.43,2.75S32.23,34,32.23,32.47Zm-.4-7.54a2.73,2.73,0,0,0-3-2.62,2.73,2.73,0,0,0-3,2.62,2.77,2.77,0,0,0,3,2.67A2.77,2.77,0,0,0,31.83,24.93Z"/><path class="cls-3" d="M28.85,41.91c4.64,4.41,9.27,8.82,9.27,13.22a4.53,4.53,0,0,1-4.65,4.39c-2.12,0-3.27-.92-4.34-2.76,1.07,3.82,2.22,5.74,4.34,5.74H24.23c2.12,0,3.27-1.92,4.34-5.74-1.07,1.84-2.22,2.76-4.34,2.76a4.53,4.53,0,0,1-4.65-4.39C19.57,50.73,24.21,46.32,28.85,41.91Z"/><path class="cls-4" d="M111.06,240.69c31.44,0,45.52-40,45.52-40s-27.91-9.49-29-32.42-52-20.13-53.75-3.35-2.7,33.8-8.92,39C67.18,215.8,73.08,239.38,111.06,240.69Z"/><path class="cls-5" d="M104.94,185.89c11.33-.27,22.54-14.7,22.54-14.7V158.64l-54,10a9.77,9.77,0,0,0-.3,2.73C73.17,172.62,88.62,188.19,104.94,185.89Z"/><path class="cls-6" d="M90.47,44.07c30.25,0,45.88,25.82,46.44,39.18,0,0,.8,10.19,1.17,13.65s1.17,13.23,1.17,13.23S54.62,131.64,52,130.93,51.8,142,48.23,116.45,45.4,82.88,46.86,79.78,59.43,44.07,90.47,44.07Z"/><path class="cls-7" d="M100.95,182.82c16,0,27.88-15.54,33.06-25.66,5.43-19,2.71-23.19,3-28.62s1.34-19.28.46-24-7.49-43-42.11-43S53,109.87,52.87,112.27s2.78,15.79,5,20.49c.87,6.09,1.74,19.31,6.09,25C71.49,167.55,82,181.75,100.95,182.82Z"/><path class="cls-8" d="M79.9,147.88c7.94-3.54,17.87-4.25,20.84-2.84,4.25-.68,2-1.28,22.26-1.42-5.81,23.25-24.53,20.81-30.77,17.78S79.9,147.88,79.9,147.88Z"/><path class="cls-9" d="M82.68,149.16c7.53-1.28,9.45-1.07,13.56-.43a37.26,37.26,0,0,0,16.26-1.92,17.71,17.71,0,0,1,8.59-1.21s-7.17,11-17.9,11S84.81,153.35,82.68,149.16Z"/><path class="cls-10" d="M116.62,147.81a7.73,7.73,0,0,1-.39,3.25s3.78-3.47,4.87-5.45a13,13,0,0,0-5.16.2A6.09,6.09,0,0,1,116.62,147.81Z"/><path class="cls-11" d="M91.32,137.08c5.66-2.94,8,2.87,8,2.87"/><path class="cls-11" d="M103.67,139.65c3.68-6.25,8.75-4,8.75-4"/><path class="cls-12" d="M70.31,115.69a7.26,7.26,0,0,1-2.81-1.28c-.83-.83,10.54-10.4,21.57.64a16.33,16.33,0,0,1,1.42,1.74c.35.58-1.8.45-1.8.45Z"/><path class="cls-12" d="M107.55,115s2.48-12.41,18.58-6.16l3.93,2s-.37,1.46-3.9.73S107.55,115,107.55,115Z"/><path class="cls-13" d="M99.78,140.76a5.43,5.43,0,0,0,3.6,0"/><path class="cls-14" d="M87.73,129.24c-1.18,2.31-1.35,6.55,1,8.32.19.14.91,0,.65-.19-2.25-1.7-2-5.84-.92-8,.13-.25-.61-.33-.72-.1Z"/><path class="cls-14" d="M112.06,128.9c.7,1.5,2.52,5.12,1.07,6.69-.23.25.49.36.65.19,1.57-1.7-.22-5.33-1-7-.1-.23-.84-.16-.72.1Z"/><path class="cls-15" d="M83.91,132.27c-8.78,11.44-8,16-8,16"/><path class="cls-15" d="M118.52,132.27c6.07,3.89,8.54,8.8,7.31,13.2"/><g class="cls-16"><path class="cls-5" d="M87,107.34a7.31,7.31,0,0,0,.06-5.18c-.15-.41-.41-.87-.84-.94l-.21.34"/></g><path class="cls-5" d="M85.84,107.23a9.71,9.71,0,0,0-.36-5.29c-.05-.14-.24-.3-.32-.17"/><path class="cls-5" d="M84.59,106.79a25.39,25.39,0,0,0,.12-3.59,2.67,2.67,0,0,0-.7-1.9"/><path class="cls-5" d="M83,106.79a10.24,10.24,0,0,0,.05-5.91"/><path class="cls-5" d="M82.17,106.45a11.8,11.8,0,0,0-.3-5.49.31.31,0,0,0-.13-.21c-.07,0-.19,0-.16.11"/><path class="cls-5" d="M80.77,106.05a7.26,7.26,0,0,0-.28-5.27"/><path class="cls-5" d="M79.8,106.26a8.25,8.25,0,0,0-.87-5.46"/><path class="cls-5" d="M78.67,106A6.73,6.73,0,0,0,77,100.8"/><path class="cls-5" d="M77.69,105.7A9.41,9.41,0,0,0,76.12,101c-.08-.12-.29-.24-.35-.1"/><path class="cls-5" d="M76.56,105.37a7.05,7.05,0,0,0-1.15-3.2,3.16,3.16,0,0,1-.65-1.27"/><path class="cls-5" d="M75.83,105.6a9.86,9.86,0,0,0-.72-2.5,3.32,3.32,0,0,0-1.83-1.75"/><path class="cls-5" d="M74.51,105.58a9.72,9.72,0,0,0-2.48-4.3"/><path class="cls-5" d="M73.17,105.69c.23-.23.06-.61-.11-.88a21.83,21.83,0,0,0-2.49-3.15"/><path class="cls-17" d="M70.31,115.69s4.4,4.63,16.94,1.63Z"/><path class="cls-17" d="M111.16,114.52c3.8,2,14.82-1.13,15-3l-14.83.15Z"/><path class="cls-5" d="M72,105.16a5.67,5.67,0,0,0-3.06-3.21c-.11,0-.3.07-.2.12"/><path class="cls-5" d="M71.22,105.15a4.81,4.81,0,0,0-3.71-2.05"/><path class="cls-5" d="M69.72,105a9.33,9.33,0,0,0-3.07-1.52.53.53,0,0,0-.32,0,.19.19,0,0,0-.11.26"/><path class="cls-5" d="M68.54,105.32a4.11,4.11,0,0,0-2.78-1.13"/><path class="cls-5" d="M67.9,105.67l-2.35-1.05a1,1,0,0,0-.56-.12c-.19,0-.36.26-.27.43"/><path class="cls-5" d="M66.73,106.16a4.89,4.89,0,0,0-3.16-.17"/><path class="cls-5" d="M65.46,107.07a1.81,1.81,0,0,0-2.19.61"/><path class="cls-5" d="M64.79,107.61a2.32,2.32,0,0,0-2.21.8"/><path class="cls-5" d="M64.23,108.62a2.51,2.51,0,0,0-1.72,1.45"/><g class="cls-16"><path class="cls-5" d="M106.95,106.24c.26-2.17-.26-4.51.69-6.48.1-.21.42-.41.51-.2"/></g><g class="cls-16"><path class="cls-5" d="M108.18,105.58a1,1,0,0,1-.08-.82l.65-3.26a7.87,7.87,0,0,1,.53-1.86.79.79,0,0,1,.29-.37.31.31,0,0,1,.42.09"/></g><g class="cls-16"><path class="cls-5" d="M109.62,105A24.22,24.22,0,0,1,111,100.2a1.69,1.69,0,0,1,.39-.66.61.61,0,0,1,.71-.11"/></g><g class="cls-16"><path class="cls-5" d="M110.85,104.74c.84-1.88,1.2-4,2.55-5.58a1.52,1.52,0,0,1,.88-.58"/></g><g class="cls-16"><path class="cls-5" d="M113,104a4.48,4.48,0,0,0,1.26-2.36A15.32,15.32,0,0,1,115,99c.27-.59.78-1.19,1.43-1.17"/></g><g class="cls-16"><path class="cls-5" d="M114.86,103.32a14,14,0,0,0,1.47-3.32,5.74,5.74,0,0,1,2-2.94c.27-.17.7-.25.83,0"/></g><g class="cls-16"><path class="cls-5" d="M117.08,102.47,119,98.82a2.6,2.6,0,0,1,1.22-1.36c.47-.17,1.05-.09,1.39-.45"/></g><g class="cls-16"><path class="cls-5" d="M118.8,102l.78-2a5.83,5.83,0,0,1,.81-1.57,2,2,0,0,1,1.52-.8"/></g><g class="cls-16"><path class="cls-5" d="M120.35,100.93a9.14,9.14,0,0,1,1.6-2.76,2.51,2.51,0,0,1,2-1.11"/></g><g class="cls-16"><path class="cls-5" d="M122.31,100.4a7.44,7.44,0,0,1,1.13-2.22,2.52,2.52,0,0,1,2.19-1"/></g><g class="cls-16"><path class="cls-5" d="M123.41,100.35a3.16,3.16,0,0,1,2.76-2.48"/></g><g class="cls-16"><path class="cls-5" d="M124.45,100.47a3.31,3.31,0,0,1,3.14-2"/></g><g class="cls-16"><path class="cls-5" d="M125.63,100.26A3.31,3.31,0,0,1,129,99.2"/></g><g class="cls-16"><path class="cls-5" d="M126.73,100.5a6.57,6.57,0,0,1,1.6-.79,2.21,2.21,0,0,1,1.73.15"/></g><g class="cls-16"><path class="cls-5" d="M128,100.84a4.49,4.49,0,0,1,1.89-.2c.28,0,.64.19.59.47"/></g><g class="cls-16"><path class="cls-5" d="M129.32,101.61a2.21,2.21,0,0,1,1.83.53"/></g><g class="cls-16"><path class="cls-5" d="M130.19,102.5a2.12,2.12,0,0,1,1.85.38"/></g><g class="cls-16"><path class="cls-5" d="M131,103.72a2,2,0,0,1,1.3.58"/></g><path class="cls-18" d="M89,116.23c-4.39-3.65-3-2.41-4.68-3.26a12.52,12.52,0,0,0-14.06,2.72c6.67,4,16.94,1.63,16.94,1.63a2.32,2.32,0,0,0,1.44-.08A.91.91,0,0,0,89,116.23Z"/><path class="cls-19" d="M78.93,118c4.15,0,4.49-4.72,3.45-5.76-1.89-1-7.36-.08-7.83.54S74.92,117.5,78.93,118Z"/><path class="cls-18" d="M107.55,115c4-5.11,7.8-9,18.61-3.47-5,3.81-13.6,2.88-15,3s-2.45,1.71-3,1.48S107.59,115.95,107.55,115Z"/><path class="cls-20" d="M116.76,114.42c4.9-.21,3.81-5.62,3.81-5.62s-5.16-1-7.95,1.11C111.49,113.23,114.52,114.36,116.76,114.42Z"/><path class="cls-21" d="M60.07,147.51c-7.7,0-6.23-3.25-12.1-16.58s1.41-20.15,5.75-8.72l4.2,10.54Z"/><path class="cls-22" d="M137.35,140c1.88-.14,4.56-3.34,4.4-11.85,2.66-7.42,2-25.48-4-14.64,0,0-.75,15-.74,16.86C137,130.37,137.86,138.25,137.35,140Z"/><path class="cls-23" d="M93.87,61.6c.17-12.14-1-17.53-1-17.53H92L93.18,61.6Z"/><path class="cls-24" d="M57.9,147.38s-.51,7,1.12,11.26c2.61-6.36,1.05-11.14,1.05-11.14Z"/><path class="cls-24" d="M137.35,140c.89-.28.35,9.6-1.82,11.87Z"/><path class="cls-25" d="M94.1,129.29a10,10,0,0,1,1.21-4.85s-2.86,1.18-2.86,2.43S94.1,129.29,94.1,129.29Z"/><path class="cls-26" d="M58.85,155.33c3.12,3.12,4.26,5.48,0,9.74C53.37,160.2,58.85,155.33,58.85,155.33Z"/><path class="cls-27" d="M135.94,149.52a17.69,17.69,0,0,1,1,8.24s-3.52-1.08-4-3.21Z"/><path class="cls-28" d="M51.24,122.21s-6.58-3.53,0,12.13"/><path class="cls-29" d="M139.25,116s3-5.36,2.75,3.38"/><path class="cls-29" d="M52.92,138.08s1.34,6.14,4.9,6.5"/><path class="cls-30" d="M107.67,115.78c.4.4.94.18,1.4-.17,0,0-.53-1.15-1.18-1.19C107.89,114.42,107.13,115.21,107.67,115.78Z"/><path class="cls-30" d="M90.82,116.91c-.31,1.22-3.56.41-3.56.41s1.16-.75,1.21-1.57C89.08,115.53,90.78,116.3,90.82,116.91Z"/><path class="cls-31" d="M94.1,53.77s31.76.79,38.9,24.93C133,78.7,125,54,94.1,53.77Z"/><path class="cls-31" d="M92,46.45c.78,0-31.26-1.58-42.54,34.83C49.51,81.27,60.47,46.45,92,46.45Z"/><path class="cls-32" d="M77.79,114.14a3.81,3.81,0,0,0,2.06-.47S78.63,112.13,77.79,114.14Z"/><circle class="cls-5" cx="79.29" cy="114.96" r="1.45"/><path class="cls-33" d="M115.92,110.41a1.53,1.53,0,0,1,2.84.29S116.31,110.81,115.92,110.41Z"/><circle class="cls-6" cx="117.02" cy="111.6" r="1.45"/><g class="cls-34"><path class="cls-35" d="M64.36,109.24a29.91,29.91,0,0,1,1.58-2.79c.61-.44,2.46-.25,3.27-.37a45,45,0,0,1,8.94-.55c3.94.25,6.77,2.87,9.44-.81,2-2.8.49-4.14-1.6-1.25l-.23.32L88.13,102c-2.84-.18-5.51-1.36-8.45-1.39a44.91,44.91,0,0,0-10.2,1c-4.09.94-5.63,4.34-7.64,7.66-2.13,3.51,1.25,2.05,2.53,0Z"/></g><g class="cls-34"><path class="cls-35" d="M132.7,104.31c-1.93-3.27-4.43-6.89-8.45-7.55-5.61-.92-12.62,1.85-17.65,4.09l4,4.36q.93-2.35,3.06-2L110,98.59c-1.81.55-2.49,2.38-4.17,3.18l3.86,4.6.58-.41c1-.69-2.7-5.42-3.86-4.6l-.58.41c-1,.7,2.57,5.21,3.86,4.6,1.68-.8,2.36-2.63,4.17-3.18.88-.27-2.41-4.69-3.6-4.67-2.09,0-3.45.36-3.8,2.57-.18,1.2,2.6,5,4,4.36,3.25-1.45,16.29-7.19,19.1-2.45.77,1.3,5.07,4.58,3.14,1.32Z"/></g><path class="cls-2" d="M172.39,237.13a4.27,4.27,0,0,1-3.1,4A4.11,4.11,0,0,1,172,245c0,2.67-2.37,4.54-5.49,4.54S161,247.67,161,245a4.13,4.13,0,0,1,2.67-3.83,4.25,4.25,0,0,1-3.1-4c0-2.62,2.17-4.69,5.92-4.69S172.39,234.51,172.39,237.13Zm-9.35.2c0,1.56,1.26,2.8,3.43,2.8s3.43-1.23,3.43-2.8-1.24-2.75-3.43-2.75S163,235.79,163,237.33Zm.4,7.54a3.06,3.06,0,0,0,6,0,3,3,0,0,0-6,0Z"/><path class="cls-3" d="M167.42,227.89c-4.64-4.41-9.27-8.82-9.27-13.22a4.53,4.53,0,0,1,4.65-4.39c2.12,0,3.27.92,4.34,2.76-1.07-3.82-2.22-5.74-4.34-5.74H172c-2.12,0-3.27,1.92-4.34,5.74,1.07-1.84,2.22-2.76,4.34-2.76a4.53,4.53,0,0,1,4.65,4.39C176.7,219.07,172.06,223.48,167.42,227.89Z"/></svg>