<svg id="Layer_1" data-name="Layer 1" xmlns="http://www.w3.org/2000/svg" xmlns:xlink="http://www.w3.org/1999/xlink" viewBox="0 0 196 266.67"><defs><style>.cls-1{fill:none;}.cls-2{fill:#f8e4e3;}.cls-3{fill:#231f20;}.cls-4{fill:#010101;}.cls-5{clip-path:url(#clip-path);}.cls-6,.cls-7{fill:#cf9e76;}.cls-6{opacity:0.7;}.cls-8{fill:#ffdeab;}.cls-9{fill:#615142;}.cls-10{fill:#ebc0a8;}.cls-11,.cls-22{fill:#443123;}.cls-11{opacity:0.07;}.cls-12{fill:#1d1611;}.cls-13{fill:#3c3738;}.cls-14{fill:#efc7b0;}.cls-15{fill:#eabba4;}.cls-16{fill:#381c15;}.cls-17{fill:#d19391;}.cls-18{fill:#f8e8d7;}.cls-19{fill:#6b3720;}.cls-20{fill:#e4b69d;}.cls-21{fill:#d39c82;}.cls-22{opacity:0.14;}.cls-23{fill:#ebf4f0;}.cls-24{fill:#572000;}.cls-25{fill:#f5e0cd;}.cls-26{opacity:0.15;}</style><clipPath id="clip-path"><rect class="cls-1" x="12.63" y="9.79" width="174.58" height="236.99"/></clipPath></defs><title>badbitchcards</title><rect class="cls-2" x="8.63" y="8.48" width="178.58" height="249.45" rx="8.5" ry="8.5"/><path class="cls-3" d="M22.33,37V25.46h-4V23.72a4.08,4.08,0,0,0,4.21-3.08h2.17V37Z"/><path class="cls-3" d="M29.49,22.89a5.72,5.72,0,0,1,5-2.62,5.72,5.72,0,0,1,5,2.62A10.52,10.52,0,0,1,41,28.81a10.52,10.52,0,0,1-1.46,5.92,5.72,5.72,0,0,1-5,2.62,5.72,5.72,0,0,1-5-2.62A10.52,10.52,0,0,1,28,28.81,10.52,10.52,0,0,1,29.49,22.89Zm2.42,11.22a3.71,3.71,0,0,0,5.19,0c1-1,1.44-2.8,1.44-5.29s-.45-4.26-1.44-5.29a3.71,3.71,0,0,0-5.19,0c-1,1-1.44,2.8-1.44,5.29S30.93,33.07,31.91,34.11Z"/><path class="cls-4" d="M28.85,41.91c4.64,4.41,9.27,8.82,9.27,13.22a4.53,4.53,0,0,1-4.65,4.39c-2.12,0-3.27-.92-4.34-2.76,1.07,3.82,2.22,5.74,4.34,5.74H24.23c2.12,0,3.27-1.92,4.34-5.74-1.07,1.84-2.22,2.76-4.34,2.76a4.53,4.53,0,0,1-4.65-4.39C19.57,50.73,24.21,46.32,28.85,41.91Z"/><g class="cls-5"><path class="cls-6" d="M115.71,54.17C88.05,40.75,54.7,65.65,49.82,76s-8.54,23.75-8.13,25.78.28,4.69,1,6.32S40.9,114.3,41.65,121s-3,30.19-2.65,44.75c.15,5.45-11.11,12.45-10.52,16.6s.74,8.89,4,9.93,32.69,1.83,34.23-1.91-4.65-24.59-4.65-24.59l57.28,3.34s-1.4,10.65,0,15.58,15.49.75,17.47,6.92-4,9.68-2.64,14.31,4.28,7.15,14,9.93,32,7,37.54,12.86,15.64-1,21.9,3.82,12.86-3.13,11.82-7c0,0-2.22,2.5-4.46,2S213.62,216.7,201.06,211s-15.83-5.51-16.7-8.26,3.08-16.24-3.44-22.76-17-7.7-21.35-12S143,154.61,143.87,113.45,115.71,54.17,115.71,54.17Z"/><path class="cls-7" d="M32.16,190.34l-1-.52A3.63,3.63,0,0,0,32.16,190.34Z"/><path class="cls-7" d="M58.54,187.63c-.06.18-.12.36-.18.51C58.42,188,58.48,187.82,58.54,187.63Z"/><path class="cls-7" d="M171.65,194.59c-6.12-15.7-15.17-23.15-21-28.22a19,19,0,0,1-4.14-5.72q-.23-.46-.46-.94a38.9,38.9,0,0,1-3.52-15.91,24.57,24.57,0,0,1,2.07-10.27,148.45,148.45,0,0,1-1-22c.82-41.16-28.16-59.28-28.16-59.28-27.66-13.42-61,11.48-65.89,21.81S41,97.81,41.36,99.84s.28,4.69,1,6.32-1.82,6.22-1.06,12.89a29.84,29.84,0,0,1,.06,4.23l1.19-3.1,19.25,38.89,57.2,8.11s-1.4,10.65,0,15.58,15.49.75,17.47,6.92-4,9.68-2.64,14.31,4.28,7.15,14,9.93,32,7,37.54,12.86,15.64-1,21.9,3.82C207.32,211.52,177.77,210.3,171.65,194.59Z"/><path class="cls-8" d="M45.66,132.65c.66,6.25,1.32,12.55.84,18.84s-3,11.81-4.52,17.89c-1,4.29-1,9.89,2.7,13,1.86,1.52,6.21,2,5.92-1.59,0-.09-.26-.08-.25,0q.26,3.36-4.49,2.19a6.89,6.89,0,0,1-2.28-2.07,9.69,9.69,0,0,1-1.34-2.66,14.33,14.33,0,0,1-.52-6c.48-4.46,2.57-8.54,3.73-12.83,2.36-8.71,1.41-17.85.47-26.69,0-.09-.26-.08-.25,0Z"/><path class="cls-8" d="M144.36,124.65c.54,10.58,1.2,21.64,5.6,31.44,4.11,9.17,11.54,14.5,19.4,20.25,3.85,2.81,7.73,5.82,10.47,9.78,3.05,4.42,3.31,9.24,4.06,14.38.58,4,2.07,7.59,5.81,9.54,4.13,2.15,9,2.05,13.25,4,4.79,2.2,6.76,8.54,12.17,9.55,5.24,1,6.12-4,5.49-8.12,0-.09-.26-.08-.25,0,.42,2.67.81,6.19-2.07,7.71-4.16,2.18-7.79-2.46-10-5.06a16.87,16.87,0,0,0-9.55-5.61c-4.42-1.07-9.63-1.6-12.44-5.67s-2.11-9.17-3.09-13.67c-1.66-7.65-7.85-12.69-13.87-17.08-7.28-5.31-14.35-10.32-18.45-18.64-5-10.1-5.67-21.73-6.24-32.79,0-.09-.25-.09-.25,0Z"/><path class="cls-8" d="M120.08,127.62c-.59-1.88-.68-2,.24-.15a25.14,25.14,0,0,1,1.26,3.09,37.78,37.78,0,0,1,1.67,8.66c.48,5.49.12,11,.38,16.5.41,8.63,2.95,18.37,11.23,22.71,3.4,1.78,6.79,1.66,10.51,1.34s7.37-.3,10.24,2.58a24,24,0,0,1,4.22,6.66c1.27,2.64,2.41,5.63,1.67,8.59a5.88,5.88,0,0,1-1.95,3.19,4.36,4.36,0,0,1-1.53,1q-.38-1.51.72-.72a7,7,0,0,1,1.33.6c4.11,2.18,7.24,6,11.18,8.54,7.83,5,17.52,7.68,26.44,4.07.13-.05-.1-.12-.18-.09-9.72,3.93-20.27.23-28.37-5.62-3.84-2.77-10.13-11-15.52-7.11a0,0,0,0,0,0,.06c3.66,2.49,8-1.17,8.33-5s-1.7-7.5-3.52-10.61c-1.34-2.3-3-4.56-5.57-5.65-3.2-1.38-6.79-.53-10.12-.35A15.09,15.09,0,0,1,130.66,175c-6-6.3-6.81-15.12-6.88-23.41-.07-9,.4-18.38-4.45-26.34,0-.06-.27-.07-.24,0l.75,2.38c0,.08.27.06.24,0Z"/><path class="cls-9" d="M44.38,129.45c5.15,13.95,1.06,28.68,1.48,43.06.32,11.11,4.15,23.29,14.76,28.6.07,0,.3,0,.18-.09-11.93-6-14.93-20.13-14.7-32.32.26-13.12,3.21-26.58-1.48-39.28,0-.08-.27-.06-.24,0Z"/><path class="cls-10" d="M62,164.87s1.13,10.39,1.65,16.12-2.87,18.82-2.87,18.82,7.56,35.67,33.37,35.67,35.34-35.31,35.34-35.31S115.76,184.1,120,166.44"/><path class="cls-11" d="M62,163.86c-.29.71,3,28.24,3.34,28.82s5.28,3.59,8.19,7.13A112.82,112.82,0,0,0,82.77,209s18-1.59,20.37,0,11.45-24.34,16.08-25.63c0,0,.24-14.33.25-17.87S62,163.86,62,163.86Z"/><path class="cls-12" d="M75.06,178.93a71.37,71.37,0,0,0,7.43,4.6s9.6,12.34,22.52,12.15l14-12.91a96.28,96.28,0,0,1,0-15.58l-47.65,6.39A10.94,10.94,0,0,0,75.06,178.93Z"/><circle class="cls-13" cx="129.18" cy="154.07" r="4.94" transform="translate(-42.81 258.21) rotate(-81.22)"/><path class="cls-14" d="M85,77.26S66.44,68,59.87,85c3,8.07-6.27,11.05-6.87,13.74s-1.2,23.3-1.49,26.29,2.09,20,3,24.5C60.46,166,62,164.21,64,166s11.65,17.33,27.79,17.33c12.25,0,28.38-14.64,33.46-23.9,3.88-15.24,1.79-37.94,3.88-43.62,0-8.37-9.26-48.4-40.33-40Z"/><path class="cls-15" d="M105,123.1c3.63,0,8.94,1.73,11.72-4.72H98.54A7.22,7.22,0,0,0,105,123.1Z"/><path class="cls-15" d="M70.23,124.54c4.31,0,10.91-4.91,10.91-4.91l-17.46-.68S64,123.87,70.23,124.54Z"/><path class="cls-16" d="M70.41,115.07c4.23,0,10.74,3.88,10.74,3.88H63.68S66.61,115.22,70.41,115.07Z"/><path class="cls-16" d="M108.55,112.73c4.16,0,8.18,4.06,8.18,5.65H98.54S104,113.15,108.55,112.73Z"/><path class="cls-11" d="M93.48,170.13c8,0,10.07-7.5,10.07-7.5H91.42l-5.7,1.72S86.34,169.7,93.48,170.13Z"/><path class="cls-17" d="M76.27,158c7.57-.83,14.35-1,15.73,0s1.95-.68,1.95-.68,5.26-.66,14.59.49a18.55,18.55,0,0,1-15.4,7.89A23.32,23.32,0,0,1,76.27,158Z"/><path class="cls-18" d="M92.41,160.74a65.59,65.59,0,0,0,14.13-1.66H80.41S83.68,160,92.41,160.74Z"/><path class="cls-15" d="M123,93.25s-7.19,9.84-5,27.15c5.69,1.81,5.78-4.49,6.6-4,1,6.61-.78,21.42-5.91,32.55s-3.37,17.47-5,18.88-5.75,5.21-5.09,8.37c0,0,11.93-8.72,16.68-17.36,3.1-12.09,2.36-40.53,3.88-43.62C129.18,104.74,123,93.25,123,93.25Z"/><path class="cls-19" d="M88.94,148.25c-.63-1.16-4.3-4.3-6.45-5.28"/><path class="cls-19" d="M94,148.58c1.52-1.88,3.17-5.78,4.33-5.61l1.16.18"/><path class="cls-20" d="M82,135.11c-1,2.07-.89,4.8-.73,7.05,0,.36,1,.34,1,0-.15-2.19-.29-4.91.7-6.92.16-.33-.82-.44-1-.13Z"/><path class="cls-20" d="M97.73,135.31c1,.72,1.37,2.34,1.6,3.49a6.81,6.81,0,0,1,.14,3.3c-.13.37.85.44,1,.13a7.29,7.29,0,0,0-.17-3.75c-.26-1.18-.62-2.7-1.67-3.43-.25-.18-1.21,0-.86.25Z"/><path class="cls-21" d="M89.65,149s2.25.72,3.54,0"/><path class="cls-22" d="M101,141.24c2.44,2.91.42,11.07-5.73,11.07s-6.69-3.18-6.69-3.18,3.78,1,4.86,0S101,141.24,101,141.24Z"/><path class="cls-11" d="M96.73,138.67c-2.66-5-3.81-18.38-3.54-24.69,2.11-4.78,3.74-3.54,3.54-3.08a30.32,30.32,0,0,0-.66,8.94c.46,3.08,2,8.78,4,9.55s-3.47,2.62-3.36,4.31a19.45,19.45,0,0,0,.73,3.7Z"/><path class="cls-12" d="M98.22,110.82c-.07.07-.15-.06-.16-.15a5.83,5.83,0,0,1,.21-1.91c.11-.38.37-.82.76-.77"/><path class="cls-12" d="M99.31,110.59a4.69,4.69,0,0,1,.2-1.74,1.59,1.59,0,0,1,1.28-1.08"/><path class="cls-12" d="M100.46,110.67a3.84,3.84,0,0,1,.19-1.63,1.79,1.79,0,0,1,1.15-1.11"/><path class="cls-12" d="M101.29,110.42q.47-1.2,1.05-2.35a1.4,1.4,0,0,1,.33-.47.49.49,0,0,1,.54-.08"/><path class="cls-12" d="M102.59,110.14a3.83,3.83,0,0,0,.76-1.56c.2-.55.58-1.12,1.16-1.19"/><path class="cls-12" d="M103.86,110c.19,0,.35-.11.46-.27a8.24,8.24,0,0,0,.72-1.64,2.33,2.33,0,0,1,1.12-1.34"/><path class="cls-12" d="M105.39,110.16a6.12,6.12,0,0,0,.95-1.74,2.29,2.29,0,0,1,1.35-1.38"/><path class="cls-12" d="M107.76,108.68c0,.06-.12,0-.11,0s.06-.1.12-.14a2.55,2.55,0,0,0,1-1.41,1.44,1.44,0,0,1,.29-.58.44.44,0,0,1,.59-.06"/><path class="cls-12" d="M109.1,108.61l.92-1.46c.35-.56.8-1.17,1.46-1.23"/><path class="cls-12" d="M110.79,107.69A4.52,4.52,0,0,1,113.7,106"/><path class="cls-12" d="M112.63,107.37l2-1.1a.89.89,0,0,1,.81-.15"/><path class="cls-12" d="M114.21,107.8a4.47,4.47,0,0,1,1.18-1,1.52,1.52,0,0,1,1.48,0"/><path class="cls-12" d="M115.42,108.45c0-.16.17-.27.32-.35a4.5,4.5,0,0,1,2.49-.51"/><path class="cls-12" d="M116.73,109.09a1.3,1.3,0,0,1,1-.5l1.59-.32"/><path class="cls-12" d="M117.44,109.75a1.71,1.71,0,0,1,1.27-.74c.43,0,1,.05,1.2-.32"/><path class="cls-12" d="M118.7,110.28l1-.69"/><path class="cls-12" d="M81.07,112.45a3.87,3.87,0,0,0-.12-2c-.29-.67-.94-1.12-1.28-1.76"/><path class="cls-12" d="M79.89,112.73a2.16,2.16,0,0,0-.27-2l-.8-1.57"/><path class="cls-12" d="M78.23,112.39a6.18,6.18,0,0,0-1.2-3.73"/><path class="cls-12" d="M76.7,111.75a5,5,0,0,0-1.29-3.56"/><path class="cls-12" d="M75.06,110.49a3.51,3.51,0,0,0-1.75-3.1"/><path class="cls-12" d="M73.41,110a11.54,11.54,0,0,1-.63-1.5,3.33,3.33,0,0,0-1.72-1.22"/><path class="cls-12" d="M71.37,109.9a3.7,3.7,0,0,0-1.92-2.7"/><path class="cls-12" d="M70.23,109.86a6.3,6.3,0,0,0-2.41-2.75"/><path class="cls-12" d="M67.76,109.47a2.52,2.52,0,0,0-1.12-1.65,13.26,13.26,0,0,0-1.27-.59"/><path class="cls-12" d="M66.72,109.64a2.49,2.49,0,0,0-1.33-1.1c-.54-.22-1.12-.35-1.66-.58"/><path class="cls-12" d="M65.6,109.91a3.88,3.88,0,0,0-2.1-.77,3.26,3.26,0,0,1-1.1-.14"/><path class="cls-12" d="M64.55,110.35l-1.75-.26a3.18,3.18,0,0,1-1.6-.55"/><path class="cls-12" d="M63.68,111.44a3.07,3.07,0,0,1-2.79-.87"/><path class="cls-12" d="M62.48,112.21A4.78,4.78,0,0,0,61.2,112a1.61,1.61,0,0,0-1.16.49"/><path class="cls-12" d="M61.83,113.28a1.59,1.59,0,0,0-1.7.31"/><path class="cls-12" d="M61.21,114.23a.81.81,0,0,0-.87.35"/><path class="cls-23" d="M98.54,118.38c5.11-3.64,8-4.8,10.56-4.8s5.82,2.3,7.63,4.8a40,40,0,0,1-8.11,1.14A78.89,78.89,0,0,1,98.54,118.38Z"/><path class="cls-23" d="M81.15,118.95c-5.92-3.64-11.84-5.12-17.46,0,5.34,4.43,12.8,2.27,15.13,1.14a14.6,14.6,0,0,0,2.33-.46C81.24,119.48,81.43,119.12,81.15,118.95Z"/><path class="cls-24" d="M71.68,121.16c4.37,0,5-2.32,4.38-4.71a10.84,10.84,0,0,0-8.24-.13S67.75,120.53,71.68,121.16Z"/><path class="cls-24" d="M107.69,119.26c3.7.07,4.55-3.83,4.27-4.9-3.89-2.09-8.09.71-8.09.71S103.88,119.18,107.69,119.26Z"/><path class="cls-15" d="M51.5,124.5c4.58,9.8,5.42,18.23,8.55,21.46s.47,3.65-.95,2.29-6.74-13.52-6.74-13.52Z"/><path class="cls-10" d="M51.47,118.83c-6.51-10.28-12-10.56-8.89,1.36,4.63,12.2,6.17,17.69,6.45,20.06s-1.12,6.52,3.51,6.52h1.55s-2.75-17.47-2.59-24.66Z"/><circle class="cls-13" cx="52.83" cy="157.1" r="4.94" transform="translate(-19.41 7.93) rotate(-7.25)"/><path class="cls-25" d="M52.54,146.78s-2.6,2.8,0,5.4A3.65,3.65,0,0,0,52.54,146.78Z"/><path class="cls-23" d="M70.33,117.54s1.58-1.28,2.49-1C72.82,116.51,70.33,114.8,70.33,117.54Z"/><circle class="cls-12" cx="72.24" cy="117.57" r="1.25"/><path class="cls-23" d="M106.5,116.08l2.33-.6s-.71-1.19-1.58-.95S106.5,116.08,106.5,116.08Z"/><circle class="cls-12" cx="107.79" cy="116.32" r="1.25"/><g class="cls-26"><path class="cls-16" d="M82,110.4a68.85,68.85,0,0,0-10.85-3.8c-1.9-.48-3.38-.81-5.16.21s-7,5.51-6.11,8c.23.64,3.29-2.2,2.92-3.23-.28-.78,4.51-2.08,3.19-1.95,1.21-.12,3.88.89,5.16,1.28a70.9,70.9,0,0,1,8.08,3c1,.44,3.29-3.32,2.77-3.55Z"/></g><g class="cls-26"><path class="cls-16" d="M97.6,110.72c6.78.07,14.92-4.36,21,.82.66.56,3.52-2.91,2.77-3.55-6-5.18-14.48-.83-21.33-.9-1.15,0-3.1,3.62-2.4,3.63Z"/></g></g><path class="cls-3" d="M175.94,232.82v11.52h4v1.74a4.08,4.08,0,0,0-4.21,3.08h-2.17V232.82Z"/><path class="cls-3" d="M168.78,246.91a6.11,6.11,0,0,1-10,0,12.73,12.73,0,0,1,0-11.85,6.11,6.11,0,0,1,10,0,12.73,12.73,0,0,1,0,11.85Zm-2.42-11.22a3.71,3.71,0,0,0-5.19,0c-1,1-1.44,2.8-1.44,5.29s.45,4.26,1.44,5.29a3.71,3.71,0,0,0,5.19,0c1-1,1.44-2.8,1.44-5.29S167.34,236.73,166.36,235.69Z"/><path class="cls-4" d="M167.42,227.89c-4.64-4.41-9.27-8.82-9.27-13.22a4.53,4.53,0,0,1,4.65-4.39c2.12,0,3.27.92,4.34,2.76-1.07-3.82-2.22-5.74-4.34-5.74H172c-2.12,0-3.27,1.92-4.34,5.74,1.07-1.84,2.22-2.76,4.34-2.76a4.53,4.53,0,0,1,4.65,4.39C176.7,219.07,172.06,223.48,167.42,227.89Z"/></svg>