<svg id="Layer_1" data-name="Layer 1" xmlns="http://www.w3.org/2000/svg" viewBox="0 0 196 266.67"><defs><style>.cls-1{fill:#f8e4e3;}.cls-2{fill:#231f20;}.cls-3{fill:#010101;}.cls-4{fill:#d39372;}.cls-5{fill:#2c1712;}.cls-6{fill:#443123;opacity:0.07;}.cls-7{fill:#da9f7b;}.cls-8{fill:#d69a76;}.cls-9{fill:#d29473;}.cls-10{fill:#c76e5c;}.cls-11{fill:#f8e8d7;}.cls-12{fill:#6b3720;}.cls-13{fill:#d28867;}.cls-14{fill:#381c15;}.cls-15{fill:#ebf4f0;}.cls-16{fill:#572000;}.cls-17{fill:#1d1611;}.cls-18{fill:#d39c82;}.cls-19{fill:#d79b86;}.cls-20{opacity:0.2;}.cls-21{fill:#7d3e1f;}.cls-22{fill:#361711;}.cls-23{opacity:0.08;}.cls-24{fill:#f8f8f9;}</style></defs><title>badbitchcards</title><rect class="cls-1" x="8.63" y="8.48" width="178.58" height="249.45" rx="8.5" ry="8.5"/><path class="cls-2" d="M32.45,32H24.53l-1.89,5H20l7.11-17.87H30L37.06,37H34.39Zm-7-2.29h6.15l-3.1-8Z"/><path class="cls-3" d="M28.85,41.91c4.64,4.41,9.27,8.82,9.27,13.22a4.53,4.53,0,0,1-4.65,4.39c-2.12,0-3.27-.92-4.34-2.76,1.07,3.82,2.22,5.74,4.34,5.74H24.23c2.12,0,3.27-1.92,4.34-5.74-1.07,1.84-2.22,2.76-4.34,2.76a4.53,4.53,0,0,1-4.65-4.39C19.57,50.73,24.21,46.32,28.85,41.91Z"/><path class="cls-2" d="M163.82,237.81h7.91l1.89-5h2.65l-7.11,17.87h-2.85l-7.11-17.87h2.67Zm7,2.29H164.7l3.1,8Z"/><path class="cls-3" d="M167.42,227.89c-4.64-4.41-9.27-8.82-9.27-13.22a4.53,4.53,0,0,1,4.65-4.39c2.12,0,3.27.92,4.34,2.76-1.07-3.82-2.22-5.74-4.34-5.74H172c-2.12,0-3.27,1.92-4.34,5.74,1.07-1.84,2.22-2.76,4.34-2.76a4.53,4.53,0,0,1,4.65,4.39C176.7,219.07,172.06,223.48,167.42,227.89Z"/><path class="cls-4" d="M102.24,211c21.75,0,31.49-27.64,31.49-27.64s-19.31-6.57-20.08-22.43-36-13.92-37.18-2.32-1.87,23.38-6.17,27C71.88,193.78,76,210.09,102.24,211Z"/><path class="cls-5" d="M88.81,60.68c23.3-4.8,30.16,1.69,38.73,6.49s12.52,7.34,13.09,10.16.28,3.67,4.24,4.52,7.34,2,7.91,7.62.56,9.6,5.36,12.42,8.47,3.33,7.91,9.57-5.81,10.49.06,12.74-.06,8.7,1.35,12,4-1.1,6.49,5.6-2,5.47,1.41,11.17,5.08,9.95,2.82,13.33-7.62,3.56-6.78,8.7,1.13,9.65-2.82,11.34-6.21,3.11-7.06,7.06-5.65,5.93-10.16,3.67-10.16-.64-12.71,1-4.14,6.1-9.32-1.52.43-10.16-4.58-11-10.25,1.1-8.63-5.36S113,167.94,113,167.94l-.69-10.47s-27.85-9.13-33.52-.86a117.11,117.11,0,0,1-.5,18.38c-.39,4.85-.87,3.85-4.51,6.83S70.6,189.43,68.77,194s-3.25,6.21-12.56,4-8.19,6-14.68,2.88-7.62.51-9.32-9.66S32.77,180,26.27,175s-6.78-3.9-5.36-11,3.67-10.6.85-14.33-3.67-4.12,0-8-.56-1.8,2.82-8.78,2.82-8.73,7.91-11.52,1.13-12.68,4.24-17.76,7.62-1.69,9-12.71-2-10.73,7.62-14.68,8.19-3.8,18.07-11S88.81,60.68,88.81,60.68Z"/><path class="cls-6" d="M96.19,174.94c8.75.7,17.82-7.86,17.82-7.86a60.21,60.21,0,0,1-1.63-14.52c.25-7-34.31,1-34.31,1s.92,12.48,0,16.26C96.19,174.94,87.41,174.24,96.19,174.94Z"/><path class="cls-7" d="M95.33,86.13c15.55,0,24,9.92,24.48,12.89-.76,3.38,1.74,9.27,3.22,12.36a30.14,30.14,0,0,1,1,16.35c-.15,5.89-.74,13.55-2.95,18.56s-7.85,10.9-11.07,13-6.46,6.38-13.63,7-9.76-3.19-11.25-4.38-5.18-4.08-7.47-6.37-5.87-9.46-6.77-14-.3-8.16-1.1-11.25-2.09-9.16.4-19.62C73.9,105,74.7,93.74,81.07,90.35S90,86.29,95.33,86.13Z"/><path class="cls-8" d="M119.73,121c0-7.45-5.1-7.28-8.93-3.69Z"/><path class="cls-9" d="M74.36,121.36c0-7.58,6.11-10.15,11-3.66h0l-11,3.66"/><path class="cls-10" d="M97.29,142.19c2.53,0,7.39-.4,12.38,2.46,0,0-4.53,10-13.24,10s-13.71-11.58-13.71-11.58S94.3,140.6,97.29,142.19Z"/><path class="cls-11" d="M96.76,145.52c3.53,0,6.92-.47,10.58,0C102,147.58,99.15,149,96.19,149s-9-2.72-10.55-4.46C89.44,144.59,96.09,145.12,96.76,145.52Z"/><path class="cls-12" d="M99.22,136.64s2.52-3.17,5.25-1"/><path class="cls-12" d="M89.5,135.76a3,3,0,0,1,2.59-.88,4.11,4.11,0,0,1,2.73,1.76"/><path class="cls-13" d="M96,137.16a2.76,2.76,0,0,0,2.18,0c.31-.11-.08-.28-.25-.22a2,2,0,0,1-1.57,0c-.14-.08-.6,0-.35.18Z"/><path class="cls-5" d="M89.51,114.25a3.65,3.65,0,0,0-1.41-2.88"/><path class="cls-5" d="M88.37,113.93a12.28,12.28,0,0,0-1.06-2.47.87.87,0,0,0-.44-.45"/><path class="cls-5" d="M87,113.35a.74.74,0,0,0,0-.61,5.74,5.74,0,0,0-1.41-2.15"/><path class="cls-5" d="M85.57,112.88a1.06,1.06,0,0,0-.06-.61A7.1,7.1,0,0,0,84.25,110"/><path class="cls-5" d="M84.6,112.5a8.33,8.33,0,0,0-1-2.08.67.67,0,0,0-.37-.32"/><path class="cls-5" d="M83.3,112.28a6.15,6.15,0,0,0-1.82-2.66"/><path class="cls-5" d="M81.75,111.48a5.67,5.67,0,0,0-1.56-1.91"/><path class="cls-5" d="M80.62,111.17a3.19,3.19,0,0,0-1.92-1.49"/><path class="cls-5" d="M79.4,111a3.59,3.59,0,0,0-2.13-.83"/><path class="cls-5" d="M77.59,110.91a1.63,1.63,0,0,0-1.38,0"/><path class="cls-5" d="M76.46,111.73a.94.94,0,0,0-1.16.29"/><path class="cls-5" d="M75.2,112.49a.69.69,0,0,0-.8.22"/><path class="cls-5" d="M74.82,113.31a.84.84,0,0,0-.93.37"/><path class="cls-5" d="M74.44,114.18a1.12,1.12,0,0,0-.63.77"/><path class="cls-5" d="M90.21,114.36a5.53,5.53,0,0,0-.76-2.88"/><path class="cls-5" d="M103.58,114.53a4.24,4.24,0,0,1,.69-3c.07-.1.23-.2.3-.1"/><path class="cls-5" d="M104.58,114.32a4,4,0,0,1,1.07-2.85"/><path class="cls-5" d="M105.89,114.36a14.76,14.76,0,0,1,.57-2.39c.08-.23.2-.5.43-.55"/><path class="cls-5" d="M107.14,113.9l.09-1a4.59,4.59,0,0,1,.25-1.29,1,1,0,0,1,.27-.42.51.51,0,0,1,.47-.12"/><path class="cls-5" d="M108.39,113.34a3.38,3.38,0,0,1,.22-1.58,2.39,2.39,0,0,1,1-1.19"/><path class="cls-5" d="M109.39,113.13a4,4,0,0,1,.4-1.45,4.26,4.26,0,0,1,.92-1,.71.71,0,0,1,.37-.21"/><path class="cls-5" d="M110.57,112.63a11.69,11.69,0,0,1,.7-1.6,1.94,1.94,0,0,1,.41-.58.74.74,0,0,1,.66-.18"/><path class="cls-5" d="M111.93,112.54a8,8,0,0,1,1.3-2.08,1,1,0,0,1,.69-.42"/><path class="cls-5" d="M113.4,112.24a2,2,0,0,1,.38-1,2.58,2.58,0,0,1,.52-.63,1.12,1.12,0,0,1,.75-.27"/><path class="cls-5" d="M114.46,112.54a2.53,2.53,0,0,1,1.65-1.57"/><path class="cls-5" d="M115.89,112.53a4.17,4.17,0,0,1,.83-.74,1.4,1.4,0,0,1,1.07-.21"/><path class="cls-5" d="M117.18,112.6s0,0,0,.06.06,0,.09,0a1.76,1.76,0,0,1,1.19-.37"/><path class="cls-5" d="M118.11,113.36a1.37,1.37,0,0,1,1.26-.15"/><path class="cls-5" d="M118.91,114a2.49,2.49,0,0,1,1.18,0"/><path class="cls-5" d="M119.88,114.82l.68.08"/><path class="cls-5" d="M120.09,115.5a1.49,1.49,0,0,1,.68.13"/><path class="cls-13" d="M105.72,136.3c1.35-.34,1.58-2,1.43-3.16,0-.18-.52-.16-.5,0,.13,1,0,2.64-1.18,2.94-.31.08.08.26.25.22Z"/><path class="cls-13" d="M88.59,135.7a3,3,0,0,1-.72-3.54c.08-.17-.42-.22-.48-.07a3.12,3.12,0,0,0,.77,3.74c.12.1.6,0,.43-.13Z"/><path class="cls-14" d="M110.8,117.31c3.89,0,8.45,3.15,8.93,3.69s-.87,1-1.16.93-13-.38-13-.38S108.68,117.34,110.8,117.31Z"/><path class="cls-14" d="M80.62,116.6c4.5,0,6.47,2.12,9.24,5.15l-14-.47s-1.25.35-1.48.08S77.53,116.6,80.62,116.6Z"/><path class="cls-9" d="M81.63,138.28a2.94,2.94,0,0,0-1.51,1.37s-1,1.53.53,5.65"/><path class="cls-9" d="M109.06,151.15s4-4.35,4-7.77c-.06-2.26-.83-2.26-.83-2.26"/><path class="cls-8" d="M99.22,124.43c0,4.58.78,7.52,1.31,8.46,1.32-.35,3.93-2.64,3.93-2.64s-5.65-2.76-2.23-10.77l-1.53-2.62A26.17,26.17,0,0,0,99.22,124.43Z"/><path class="cls-8" d="M94.83,131.41s1-10.09.5-12.23c-2-3-2.44-2.57-2.44-2.57s2.5,7-1.74,13.28C94.3,133.14,94.83,131.41,94.83,131.41Z"/><path class="cls-15" d="M88.09,120.65c-3.86-3.11-9-3.79-12.25.62,0,0,8.08,1,12.36.31l.23-.49Z"/><path class="cls-15" d="M105.59,121.55c2-1.38,4.78-5.36,12.7.34,0,0-4.25.27-6.54.46a36.76,36.76,0,0,1-6.16-.34Z"/><path class="cls-16" d="M82.72,121.19c1.92.08,2.93-2.09,2.93-2.09a8.37,8.37,0,0,0-3.29-1,7,7,0,0,0-3,.43S79.5,121,82.72,121.19Z"/><path class="cls-16" d="M111.4,122.4c1.89,0,2.26-2.82,1.79-3.17-2-1.15-4.65.24-4.65.24S108.54,122.42,111.4,122.4Z"/><circle class="cls-17" cx="83.04" cy="119.68" r="0.9"/><circle class="cls-17" cx="111.08" cy="120.38" r="0.9"/><path class="cls-18" d="M89.86,121.74c-.22.35-2,0-2,0l.26-1.09S90,121.08,89.86,121.74Z"/><path class="cls-18" d="M104.11,122.21c.22.35,2,0,2,0l-.26-1.09S103.95,121.55,104.11,122.21Z"/><path class="cls-15" d="M82.39,118.74c0,.24-.32.43-.32.43s-.32-.19-.32-.43.32-.43.32-.43S82.39,118.5,82.39,118.74Z"/><path class="cls-15" d="M112.3,119.62c0,.24-.32.43-.32.43s-.32-.19-.32-.43.32-.43.32-.43S112.3,119.38,112.3,119.62Z"/><path class="cls-19" d="M93.3,142.78c1.42.34,3.78.52,3.46,0S93.72,142,93.3,142.78Z"/><path class="cls-9" d="M104.95,156.53c1.29,3.88-.15,6.83-3.34,8.44a19.18,19.18,0,0,0,3.78-2.16C106.71,159.81,104.89,156.35,104.95,156.53Z"/><path class="cls-9" d="M84.69,157.35c-.17,2,.91,4.65,3,6.7a11.15,11.15,0,0,0,1.51.94C86.41,163.29,85.52,160.2,84.69,157.35Z"/><g class="cls-20"><path class="cls-21" d="M120.8,115.78a7.31,7.31,0,0,0-4.41-4.52,10.89,10.89,0,0,0-5.43.15c-2.07.43-5.49,2.1-7.52,1.5l1,1.29c-.8-1.61,4.87-2.11,5.57-2.18,3.11-.32,6.09-.4,8.88,1.22l-1-1.81a16,16,0,0,0-6.85-1.07c-2.47.32-4.67,1.56-7.17,1.79,0,0,.64,1.92,1.26,1.87,2.16-.2,4-1.12,6.13-1.59,2.69-.6,5.19.07,7.73.88a4.24,4.24,0,0,0-1-1.81c-2.91-1.69-6-1.69-9.26-1.34-1.65.18-6,.22-5.61,2.72a2.44,2.44,0,0,0,2.27,2c1.74.06,4-1,5.67-1.36,2.2-.52,7.26-1.81,8.49,1.12.15.36,1.56,2,1.18,1.12Z"/></g><path class="cls-22" d="M79.44,76.83c-3.59-2.69-9.61-1.41-11.16,3-.51,1.47-.29,3.71-1.4,4.87-1.43,1.5-4.26,1.32-6.09,2.21-2.53,1.23-4.76,3.69-4.58,6.66.12,1.93,1.41,3.63,1.41,5.56s-1.36,3.12-3,3.94c-2.22,1.13-5,1.65-6.69,3.6-1.84,2.1-1.12,4.75-.29,7.13a14.33,14.33,0,0,1,1.27,5.07c-.09,2.61-2.15,3.8-4.21,5-3,1.68-5.11,4.29-4.72,7.91.22,2.06,1.63,3.36,2.28,5.23,1.1,3.17-1.48,6.19-3.46,8.33-.31.34.65.49.86.25,1.94-2.1,4.37-4.86,3.77-8-.37-1.92-2-3.28-2.36-5.22a7.46,7.46,0,0,1,.78-5c1.64-3,5.33-3.27,7.21-5.9,1.58-2.21.57-4.91-.24-7.21-1.17-3.32-1.88-6.61,1.65-8.69,2-1.16,4.35-1.59,6.21-3,2-1.49,2.14-3.49,1.41-5.79-.68-2.14-1.36-3.87-.35-6a8.17,8.17,0,0,1,4.92-4c1.37-.43,3-.25,4.25-1.07a4.87,4.87,0,0,0,1.77-3.28c.42-1.89.66-3.61,2.18-5a6.13,6.13,0,0,1,7.7-.45c.25.19,1.21,0,.86-.25Z"/><g class="cls-23"><path class="cls-24" d="M81.21,77.72C77.62,75,71.6,76.31,70,80.75c-.51,1.47-.29,3.71-1.4,4.87-1.43,1.5-4.26,1.32-6.09,2.21C60,89.07,57.8,91.52,58,94.49c.12,1.93,1.41,3.63,1.41,5.56s-1.36,3.12-3,3.94c-2.22,1.13-5,1.65-6.69,3.6-1.84,2.1-1.12,4.75-.29,7.13a14.33,14.33,0,0,1,1.27,5.07c-.09,2.61-2.15,3.8-4.21,5-3,1.68-5.11,4.29-4.72,7.91.22,2.06,1.63,3.36,2.28,5.23,1.1,3.17-1.48,6.19-3.46,8.33-.31.34.65.49.86.25,1.94-2.1,4.37-4.86,3.77-8-.37-1.92-2-3.28-2.36-5.22a7.46,7.46,0,0,1,.78-5c1.64-3,5.33-3.27,7.21-5.9,1.58-2.21.57-4.91-.24-7.21-1.17-3.32-1.88-6.61,1.65-8.69,2-1.16,4.35-1.59,6.21-3,2-1.49,2.14-3.49,1.41-5.79-.68-2.14-1.36-3.87-.35-6a8.17,8.17,0,0,1,4.92-4c1.37-.43,3-.25,4.25-1.07a4.87,4.87,0,0,0,1.77-3.28c.42-1.89.66-3.61,2.18-5a6.13,6.13,0,0,1,7.7-.45c.25.19,1.21,0,.86-.25Z"/></g><path class="cls-22" d="M108.19,82.3c3.88-3.52,10-4.1,12.8,1,1.29,2.36,2.1,4,4.88,4.69,3,.7,6.3,0,9.11,1.55,3.62,2,4.16,5.6,4,9.34-.08,2.19.53,4,2.81,4.6,2.55.66,8.25-1.17,8.24,2.91,0,2-2.22,4.54.2,6.08a6.33,6.33,0,0,0,2.4.67c2.25.39,4.2,1.19,5.11,3.45,1.06,2.64-1.8,6.52.43,8.61,1.35,1.27,3.07,1.29,4,3.18a5.2,5.2,0,0,1-.47,5.32c-.2.28.77.41,1,.13a5.55,5.55,0,0,0-.4-6.91c-1.21-1.32-3.72-1.54-3.91-3.55s1-3.65.72-5.57a6,6,0,0,0-4.58-4.9,12,12,0,0,1-3.06-.86c-1.68-.85-1.5-1.74-1-3.39.35-1.13.88-2.31.38-3.49-.84-2-3.46-2.11-5.28-2-1.26,0-2.83.25-4-.32S140,100.53,140,99.23a15.22,15.22,0,0,0-.23-5,8.9,8.9,0,0,0-5.41-5.69c-3.62-1.29-8.87.46-11.3-3.21-1.11-1.67-1.51-3.46-3.16-4.74a8.42,8.42,0,0,0-3.78-1.6,10.66,10.66,0,0,0-8.78,3c-.33.3.63.47.86.25Z"/><g class="cls-23"><path class="cls-24" d="M106.33,82.63c3.88-3.52,10-4.1,12.8,1,1.29,2.36,2.1,4,4.88,4.69,3,.7,6.3,0,9.11,1.55,3.62,2,4.16,5.6,4,9.34-.08,2.19.53,4,2.81,4.6,2.55.66,8.25-1.17,8.24,2.91,0,2-2.22,4.54.2,6.08a6.33,6.33,0,0,0,2.4.67c2.25.39,4.2,1.19,5.11,3.45,1.06,2.64-1.8,6.52.43,8.61,1.35,1.27,3.07,1.29,4,3.18a5.2,5.2,0,0,1-.47,5.32c-.2.28.77.41,1,.13a5.55,5.55,0,0,0-.4-6.91c-1.21-1.32-3.72-1.54-3.91-3.55s1-3.65.72-5.57a6,6,0,0,0-4.58-4.9,12,12,0,0,1-3.06-.86c-1.68-.85-1.5-1.74-1-3.39.35-1.13.88-2.31.38-3.49-.84-2-3.46-2.11-5.28-2-1.26,0-2.83.25-4-.32s-1.58-2.24-1.56-3.54a15.22,15.22,0,0,0-.23-5,8.9,8.9,0,0,0-5.41-5.69c-3.62-1.29-8.87.46-11.3-3.21-1.11-1.67-1.51-3.46-3.16-4.74a8.42,8.42,0,0,0-3.78-1.6,10.66,10.66,0,0,0-8.78,3c-.33.3.63.47.86.25Z"/></g><path class="cls-22" d="M133.17,123.25c-1.68,1.3-3.84,3.08-3.39,5.45.66,3.53,7.32,3.43,6.26,7.94-.37,1.57-3.26,2.84-4.27,4.24a6.41,6.41,0,0,0-1.17,2.75c-.67,4,2.74,5.83,4.31,9a8.49,8.49,0,0,1-.38,8.25c-.84,1.5-2.24,2.76-2.81,4.42-.79,2.3-.18,4.54,2.19,5.37.28.1,1.23.12,1.45.23,1.29.65,2.86,3.44,2.48,4.91-.31,1.2-1.59,2.07-1.46,3.45a3,3,0,0,0,1.28,2.31,6.46,6.46,0,0,0,1.79.7,7.83,7.83,0,0,1,1.57.51q4.17.95-.34,6.68c-1.39-.17-3,1.82-1,2.06,5,.61,9.76-4.68,5.66-9.08-1.38-1.48-3.55-1.09-4.74-2.22-2-1.88,1.18-5.12,1.08-7.27-.13-2.81-2.17-3.1-4.15-4a1.87,1.87,0,0,1-1.89-1.34q-2.47-1.17-.36-3c.37-1.33,1.5-2.15,2.1-3.33a11.05,11.05,0,0,0,1.43-5.39c-.06-4.62-4.13-6.31-4.92-10.32-1-4.81,5.49-5.58,5.08-10.28a6.3,6.3,0,0,0-1.81-3.72c-1.7-1.71-7.68-2.64-2.07-7,1.55-1.21-.8-2.14-1.91-1.27Z"/><g class="cls-23"><path class="cls-24" d="M134.53,123.76c-2.18,1.62-4.58,4.45-1.58,6.59,1.6,1.14,3.34,1.45,4.33,3.36,1.35,2.62.19,4.26-2,5.74-2.36,1.6-3.76,4.25-2.59,7.1.81,2,2.7,3.24,3.75,5a9.35,9.35,0,0,1,1.12,6.15c-.4,2.47-1.87,4-3.19,5.94a5.22,5.22,0,0,0-1.13,4c.88,4,7.62,1,7.31,5.8-.16,2.4-4.37,5.42-1.16,7.46,1.92,1.22,4.13.65,5.59,2.88,1.76,2.71.09,7.14-3.83,6.36-.47-.09-.92.35-.27.48a4.66,4.66,0,0,0,4.1-8.1,6.82,6.82,0,0,0-2.9-1.37c-1.27-.37-3-.77-2.92-2.39a5.93,5.93,0,0,1,1.19-2.54c1.23-2,1.85-4.43-.42-6a4.79,4.79,0,0,0-2.14-.68c-1.32-.23-2.83,0-3.43-1.46a4.23,4.23,0,0,1,.32-3.31c.74-1.6,2.17-2.79,3-4.36a9.46,9.46,0,0,0,1-4.21c0-3.36-1.76-5.48-3.75-8-1.35-1.68-2.09-3.58-1.34-5.71.67-1.9,2.17-2.5,3.65-3.59,2.21-1.63,2-4.57.3-6.56a10.45,10.45,0,0,0-3.24-2.15c-3.25-1.87-1.16-4.68,1.1-6.36.34-.25-.61-.44-.86-.25Z"/></g><path class="cls-22" d="M64.1,139c-4,1.68-7.23,4.68-4,8.66,1.36,1.67,3.09.17,3.68,3.74,1,5.89-2.14,2.83-3.52,4.86-.84,1.24-1.58,2.08-1,3.69s1.64,1.63,2.93,2.29c6,3,5.76,1.47,3,5.2-1,1.43-2.38,2.59-.76,4.45a5.09,5.09,0,0,0,1.68.92,17.21,17.21,0,0,1,3,.7q2.52,3.81-2.77,4.51c-1-.17-3.42,1.43-1.74,1.71,3.36.56,8.9-.73,8.17-5.32-.37-2.35-1.9-2.17-3.23-3.29-4.5-3.8-.68-2.19.61-4.71.95-1.84-.16-4.07-1.74-5.15-2.41-1.65-9.1.17-4.57-5,1.38-1.57,3-1.58,3-4.24.07-4.88-10.93-7.77-1.61-11.67,1.85-.77.18-2-1.2-1.38Z"/><path class="cls-22" d="M96.25,80.86a7.53,7.53,0,0,1-.92-3.32c.2-2.06,2-2.75,4-3a26.6,26.6,0,0,0,3.57-.29c2.32-.67,3.4-2.07,4.3-4.24.33-.79.48-2.09,1.07-2.71,2.4-2.56,2.79-.29,4.54-.27a7,7,0,0,0,2.37-.2,4.6,4.6,0,0,0,3.32-5.25c-.17-1.15-3.08-.46-2.9.78l-2.37,2.5a3.58,3.58,0,0,0-1.29-.45c-.56,0-1.13-.17-1.69-.13a6.46,6.46,0,0,0-2.58.76c-4.09,2.27-1.93,7-7.86,7.61-2.24.24-4.42-.14-6.2,1.62-2.09,2.08-1.19,5-.23,7.41.46,1.15,3.33.31,2.9-.78Z"/><g class="cls-23"><path class="cls-24" d="M48.39,148c-4,.35-8.74,2.72-7.61,7.6.85,3.66,5.22,5.06,5,9.22-.25,4.78-4.77,4.62-6.77,7.88a4.43,4.43,0,0,0,.73,5.56c1.49,1.39,3.79,1,5.39,2.21,2.72,2.08,2.31,5.1.21,7.22-1.86,1.88-4.64,2.28-4.83,5.48-.18,2.86,2,4.33,4.5,4.78.67.12,3.14-1,2.39-1.1-2.5-.45-4.89-2.7-3.74-5.54.54-1.33,2.33-2,3.34-2.79,1.37-1,2.47-1.94,2.88-3.75,1.49-6.58-6.91-5.07-8.49-9.34-1.45-3.93,6.21-6.29,7.11-10.14.55-2.35-.27-4.1-1.6-6-.86-1.19-2-1.72-2.72-3.19-1.14-2.28-1.16-6.67,2.94-7,.75-.06,3.15-1.3,1.26-1.13Z"/></g><g class="cls-20"><path class="cls-21" d="M74.86,113.38c1.07-2.51,7.16-1.4,8.8-1,2.05.5,3.91,1.33,6,1.41.76,0,2-2.59,1.27-2.61-4.38-.17-8.14-2.9-12.67-1.64a7.41,7.41,0,0,0-5,4.69c-.74,1.75,1.2-.14,1.51-.86Z"/></g></svg>