<svg id="Layer_1" data-name="Layer 1" xmlns="http://www.w3.org/2000/svg" viewBox="0 0 196 266.67"><defs><style>.cls-1{fill:#f8e4e3;}.cls-2{fill:#231f20;}.cls-3{fill:#010101;}.cls-4{fill:#997b6c;}.cls-5{fill:#3c3738;}.cls-6{fill:#ebc0a8;}.cls-7{fill:#d0af9b;}.cls-8{fill:#efc7b0;}.cls-9{fill:#d39c82;}.cls-10{fill:#6b3720;}.cls-11{fill:#cd8a6e;}.cls-12{fill:none;}.cls-13{fill:#ebf4f0;}.cls-14{fill:#437f90;}.cls-15{fill:#1d1611;}.cls-16{fill:#f8e8d7;}.cls-17{fill:#eabba4;}.cls-18{fill:#381c15;opacity:0.3;}</style></defs><title>badbitchcards</title><rect class="cls-1" x="8.63" y="8.48" width="178.58" height="249.45" rx="8.5" ry="8.5"/><path class="cls-2" d="M25,28.86l-2.55,2.72V37H20V19.11h2.47v9.2l8.37-9.2H34.1l-7.44,8L34.21,37H31.08Z"/><path class="cls-3" d="M33.08,51.55h-.24a5.16,5.16,0,1,0-9.74,0h-.24A5.16,5.16,0,1,0,27,59.82C26.41,62,25.66,64.28,24.85,65h6.24c-.81-.73-1.56-3-2.12-5.19a5.16,5.16,0,1,0,4.11-8.28ZM28.2,55s0,0,0,0Z"/><path class="cls-4" d="M101.94,62.17c13.76,0,20.92,38.45,26.4,53.92-4.83,19.66-2,32.54-.36,35.77-12.71,12.37-6.47,26.77-4.87,36.34,1.74,10.38,10.31,22.36,11,32l18.79-2.9,6.67,2.9s12.57-14.56,9.35-24.23,1-34.81-2.58-43.83-1.29-49-6.77-56.73-30.74-47.7-57.59-45.77c-28.14-6.12-51.67,28-57.8,43.19s-11,42.22-7.41,55.44a55,55,0,0,1-1.2,31.91c-2.34,6.12,3.31,31.26,0,38.36,2.92,3.17,17.45-7.22,17.45-7.22l21.14,8.89s9.67-16.5,3.87-26.81,6.77-26.29.29-32.58c-4-3.88-8.08-18.12-7.71-24.77C71,128.31,71.75,61.78,101.94,62.17Z"/><path class="cls-5" d="M100.15,58.91,97.43,49l4.51.65s6.2,10,3.51,9.84-3,1.67-5.3-.53"/><path class="cls-5" d="M105.76,57.8c13.35-.9,23.32,10.06,27.46,21.74,4.44,12.51,4.12,26,7.26,38.86a53.11,53.11,0,0,0,6.32,15.5c3,4.79,6.59,9.12,9.72,13.8,3.35,5,6.12,10.57,6.16,16.74s-2.22,12.25-4.39,18c-2,5.4-4.22,10.87-4.9,16.64a27,27,0,0,0,.07,7.32c.35,2.22,2.48,9.29-1.67,9-.8-.06-.84,2,0,2,3.77.3,3.87-4.72,3.6-7.35-.31-3-1.13-5.71-1-8.75a41.24,41.24,0,0,1,2.45-11.06c3.63-10.71,9.36-21.62,5.92-33.17-3.78-12.7-15.18-21.35-19.55-33.87-4.85-13.9-3.92-29-8.4-43-4.07-12.73-14.42-25.38-29.05-24.39-.83.06-.81,2.08,0,2Z"/><path class="cls-5" d="M55.8,209c-1.46-6.32,2.34-12,5.4-17.25,2.45-4.16,4.69-8.32,5.65-13.09,2.22-11-.26-23-1.46-34C62.81,121,60.71,95.9,72,74A56.77,56.77,0,0,1,82.12,59.95c4.45-4.47,10.39-9.32,16.94-9.62.71,0,.69-2.06,0-2-10.27.46-19.44,10.85-24.63,18.86a76.46,76.46,0,0,0-10.7,28.65c-2.17,12.63-1.61,25.58-.45,38.28.66,7.19,1.53,14.35,2.26,21.53.72,7,1.71,14.21.56,21.18C64.2,188.45,52.05,197.54,54.93,210c.3,1.28,1-.32.87-1Z"/><path class="cls-6" d="M78.28,160.77s-.75,22.31-2.53,26.12,8.31,30.38,25.33,30.38S125.92,189,125.92,189s-7.24-23.39-3.7-28.25C122.21,160.77,93.33,145.71,78.28,160.77Z"/><path class="cls-7" d="M102.76,165.76s8.83,29.8,9,35.51c5-1.53,13-16.35,13-16.35s-5.4-16.89-2.53-24.15C118.83,153.25,102.52,162.92,102.76,165.76Z"/><path class="cls-8" d="M102.71,58.72c-14.93,0-29.47,26.37-30,49.54-6.65,25.14.49,46.83,2.46,50,10.11,7.89,16.51,10.6,25.14,10.6s22.18-7.15,26.37-14.79,3.45-13.8,3.45-13.8-3.2-10.35-1.48-31.06S113.2,58.47,102.71,58.72Z"/><path class="cls-9" d="M107.15,105s5.27-5.93,9.85-5.93,8.92,5.93,8.92,5.93l-1.83.46Z"/><path class="cls-9" d="M89.27,105.52s-4.35-5.72-9.5-5.72-7.38,5.31-7.38,5.31Z"/><path class="cls-10" d="M95.58,126.2s-1.53-2.3-3-1.05-.57,1.53,0,1.82"/><path class="cls-10" d="M101.13,127s2.11-2.49,3.64-1.53,0,2.2,0,2.2"/><path class="cls-11" d="M83.8,144.87a33.35,33.35,0,0,0,8-4.4,7.93,7.93,0,0,1,6.44-.48s3-2.2,7.19,0a71.46,71.46,0,0,1,7.65,4.88s-2.39,2.68-14.65,2.68S83.8,144.87,83.8,144.87Z"/><path class="cls-12" d="M107.74,122.08s2.49,3.54,0,5.55c-1.44,1.34-2.29,1.15-2.29,1.15"/><path class="cls-12" d="M91.27,128.31s-3.35-1.31-2.39-3.53"/><path class="cls-13" d="M109.49,104.51a39.12,39.12,0,0,0,4.72-2.95c1.31-1.11,7.27-1.7,9.89,3.93a23.82,23.82,0,0,1-11.72,0,11.58,11.58,0,0,0-2.88-.2Z"/><path class="cls-13" d="M86.89,104.54c-1.61-.77-3.46-1.38-4.69-2.07s-4.76-1.77-8.53,2.69c.85,3.53,9.84,1.38,10.53,1.07s2.61.16,2.69-.3A7.8,7.8,0,0,0,86.89,104.54Z"/><path class="cls-14" d="M77.22,102.35a4.08,4.08,0,0,0,1.91,4.77,25.76,25.76,0,0,0,3.93-.58c.72-.77.74-2.84.74-3.31a16.38,16.38,0,0,1-1.6-.76A5.62,5.62,0,0,0,77.22,102.35Z"/><path class="cls-14" d="M120.24,106.15c1.08-.87.72-3.67.62-4.31-2.69-1.55-5.76-1-6.66-.28l-.08.06a4.18,4.18,0,0,0,1.29,4.44A27.5,27.5,0,0,0,120.24,106.15Z"/><path class="cls-13" d="M117.6,102l-.61.6s1.05,1.77,1.64,1.72.74-.74.74-.74S118.54,102,117.6,102Z"/><path class="cls-13" d="M78.87,103.8a1.06,1.06,0,0,0-.06.51s1.6.42,2-1c0,0-.45-.09-.48-.24C80.29,103,79.21,103.28,78.87,103.8Z"/><circle class="cls-15" cx="80.76" cy="104.52" r="0.99"/><circle class="cls-15" cx="117" cy="103.52" r="0.95"/><path class="cls-9" d="M109.49,105.3s-2.34.58-2.34-.26,3.3-1.06,3.3-1.06S110.17,105.17,109.49,105.3Z"/><path class="cls-9" d="M86,106.14s3.28.49,3.28-.62S85.62,104,85.62,104Z"/><path class="cls-16" d="M86.14,145s7.5-2,8.57-2.1c2.34-.74,5.48-.53,8.05-.27s8,2.41,9.19,2c-1.47.37-8.57-.14-12.9-.94S86.14,145,86.14,145Z"/><path class="cls-17" d="M104.22,96.21s-4.86-2.27-2.48,19.23l2.48,7.45,1.23-5.73s-3.5-8.17-1.77-14.51Z"/><path class="cls-2" d="M90.06,97c.17-1.53-.74-3-1.6-4.23-.11-.17-.41-.32-.46-.12"/><path class="cls-2" d="M89.26,96.4a9.9,9.9,0,0,0-2.58-3.8"/><path class="cls-2" d="M87.53,95.44c.13-.32-.11-.66-.32-.92a8.44,8.44,0,0,0-2.28-2.15"/><path class="cls-2" d="M86,95A4.85,4.85,0,0,0,84,92.57"/><path class="cls-2" d="M84.76,95.33a7.7,7.7,0,0,0-2.68-3.2"/><path class="cls-2" d="M83,94.89a10.46,10.46,0,0,0-2.21-2.27"/><path class="cls-2" d="M81.38,95a3.48,3.48,0,0,0-1.83-2.25"/><path class="cls-2" d="M80.14,94.89a3.71,3.71,0,0,0-1.57-2.17"/><path class="cls-2" d="M79,95.44a6,6,0,0,0-1.51-2.55"/><path class="cls-2" d="M77.51,95.66a3.23,3.23,0,0,0-1.24-2.18"/><path class="cls-2" d="M76.62,95.76A13.86,13.86,0,0,0,75.4,93.7"/><path class="cls-2" d="M75.75,96A3.56,3.56,0,0,0,75,94.46"/><path class="cls-2" d="M106.26,96a7.15,7.15,0,0,1,3.69-3.34"/><path class="cls-2" d="M107.44,95.88a10.5,10.5,0,0,1,3.54-3.1"/><path class="cls-2" d="M109.17,95.75a10.46,10.46,0,0,1,3.54-3.35"/><path class="cls-2" d="M110.48,95.86a10.48,10.48,0,0,1,3.18-3.07"/><path class="cls-2" d="M112.05,95.67a7.73,7.73,0,0,1,3.25-3.22"/><path class="cls-2" d="M113.47,95.56a6.91,6.91,0,0,1,3.59-2.77"/><path class="cls-2" d="M115.53,95.54A6.44,6.44,0,0,1,119.05,93"/><path class="cls-2" d="M116.85,95.87a10.06,10.06,0,0,1,3.83-2.53"/><path class="cls-2" d="M119.48,95.33a5.09,5.09,0,0,1,3.28-1.75"/><path class="cls-2" d="M121.12,95.44a4.54,4.54,0,0,1,2.63-1.1"/><path class="cls-2" d="M122.31,96a3.74,3.74,0,0,1,2.31-.63"/><path class="cls-2" d="M123.3,96.64a2.61,2.61,0,0,1,1.53-.2"/><path class="cls-2" d="M124.08,97.5a3.35,3.35,0,0,1,1,.37"/><path class="cls-17" d="M101.88,95.44l1.39-.45s-.5-5-.51-5.83-1.68,0-1.68,0Z"/><path class="cls-17" d="M97.43,128.79a3,3,0,0,0,1.62,0c.91-.25-.6,9.64-.6,9.64h-1Z"/><path class="cls-17" d="M124.24,157.76a18,18,0,0,0,2.54-3.46c4.19-7.64,3.45-13.8,3.45-13.8s-2.5-8.1-1.89-24.29c-3.46,2-10.16,6.6-10.25,11.73C118,134.78,124.69,152.86,124.24,157.76Z"/><path class="cls-18" d="M124.6,95.75c-.69-2.76-4.23-3.19-6.64-3.44-3.66-.39-7.39-.44-11.07-.65-.18,0-.33,4,0,4.06,3.3.18,6.6.29,9.89.55,2.51.2,7,.34,7.72,3.39-.19-.76.38-2.75.09-3.91Z"/><path class="cls-18" d="M74.48,97.58c4.39-1.36,10.87-3.25,15.2-.87-.17-.09.87-3.58,0-4.06-4.33-2.38-10.81-.49-15.2.87-.75.23-.08,4.08,0,4.06Z"/><path class="cls-2" d="M170.41,238.94l2.55-2.72v-5.39h2.47v17.87H173v-9.2l-8.37,9.2h-3.25l7.44-8-7.54-9.91h3.13Z"/><path class="cls-3" d="M162.36,216.25h.24a5.16,5.16,0,1,0,9.74,0h.24a5.16,5.16,0,1,0-4.12-8.28c.56-2.18,1.31-4.46,2.12-5.19h-6.24c.81.73,1.56,3,2.12,5.19a5.16,5.16,0,1,0-4.11,8.28Zm4.87-3.45s0,0,0,0Z"/></svg>