<svg id="Layer_1" data-name="Layer 1" xmlns="http://www.w3.org/2000/svg" viewBox="0 0 196 266.67"><defs><style>.cls-1{fill:#f8e4e3;}.cls-2{fill:#f2c48a;}.cls-3{fill:#cb565e;}.cls-4{fill:#e8b272;}.cls-5{fill:#eae7e0;}.cls-6{fill:#f0cdb7;}.cls-16,.cls-7{fill:#dfb39d;}.cls-7{opacity:0.5;}.cls-8{fill:#d9b4a0;}.cls-9{fill:#dedcdc;}.cls-10{fill:#ebc4ad;}.cls-11{fill:#f2d3be;}.cls-12{fill:#785340;opacity:0.4;}.cls-13{fill:#ebf4f0;}.cls-14{fill:#7ba29e;}.cls-15{fill:#6b3720;}.cls-17{fill:#d4aa86;}.cls-18{fill:#c37080;}.cls-19{fill:#f8e9db;}.cls-20{fill:#1d1611;}.cls-21{fill:#d39c82;}.cls-22{fill:#eabba4;}.cls-23{fill:#bcbec0;opacity:0.85;}.cls-24{fill:#c3a291;}.cls-25{opacity:0.15;}.cls-26{fill:#be1e2d;}</style></defs><title>badbitchcards</title><rect class="cls-1" x="8.63" y="8.48" width="178.58" height="249.45" rx="8.5" ry="8.5"/><path class="cls-2" d="M150.44,91.28c-.09-1.79-2.39-2.14-2.39-2.14.68-1.88-1.28-3.67-1.28-3.67.85-2.56-2.17-4-2.17-4,.68-1.09.14-3.07.14-3.07,1.09-.27,2-3.35.68-4.64s-2.95,1.78-2.95,1.78c-1.31.2-1.38-1.68-1.35-1.58s2.36-2.46.83-4a2,2,0,0,0-2.89-.22c.88-1.75-1.75-4.49-1.75-4.49.22-2.63-2.74-2.85-2.74-2.85.11-5.8-7.89-4.6-7.89-4.6-2.08-.55-2.41,2.08-4.05,3.67s.77,2.9-.11,3.56a21.6,21.6,0,0,1-3.59,1.28A3.25,3.25,0,0,0,120,65.7a1.59,1.59,0,0,0-.42-2.35c-.5-.42-7.73,2.6-7.73,2.6s6.76-2.94,9-6.13c3.27-1.43,3.27-3,2.27-4s-2-1.34-3.44,2S110.14,64,110.14,64c4-1.34,8.9-9.66,8.9-9.66,1.6-1,3.11-3.61.84-4.87s-2.52,1.18-3,4.28S109,62.09,109,62.09s4.53-4.62,5-6-2.1-2.94-2.18-1.68-3.53,6-3.86,6.3-.25-1.34-.25-1.34c2-1.85,2.69-6.21,2.69-6.21,1.6-.76,1.43-4-.59-4.28s-2.18,1.68-1.85,4.11-2,5.21-2,5.21a4.72,4.72,0,0,0,.34-3.61c-.67-1.85-3.11-2.18-3.11-2.18s3.53-2.52-.84-5.79-6-.42-6-.42,1.09-4-4.7-3.61-6.38,4.11-6.38,4.11c-6-1.76-7.81,4.2-7.81,4.2-2.6,3.44,1.85,5.79,1.85,5.79a3.31,3.31,0,0,0-3,3.19C76,58,75.27,53,75.71,52.6s1.43-5.21-1.44-3.69S72.6,53,73,53.28s.25,1.26,0,1.34,1.18,6,1.18,6,.34.42-.42-.5S72,55.29,72,55.29a7.41,7.41,0,0,0-2.35,1.18c-.5.59,3.61,7.39,3.61,7.39-1.18-.59-5.12-5.71-5-9s-1.43-4.53-1.43-4.53c-5,2.44-.84,5.54-.84,5.54.67,2.44,5.23,10.18,5.23,10.18s-4.95-4.76-6.21-6.47S65,56.91,62.91,57.1s-2.17,3.81-2.17,3.81C54,58.25,53.7,63,53.7,63c-4.45,1.9-4.27,8.38-4.27,8.38-1.29.57-3.28,6.09,0,9l54.23-2.6,28.46,18,11.78,5a12.41,12.41,0,0,1,2.95-.72C148.73,99.82,150.52,93.07,150.44,91.28ZM62.35,63.88a13.93,13.93,0,0,0,1.37-3.24l6.13,7.8C67.94,68.59,62.35,63.88,62.35,63.88Zm19.19-2.22c-3.82.13-1.3-3.47-1.3-3.47.09.58,2.61,1.28,2.61,1.28C82,62,84.2,64.24,84.2,64.24,81.54,65.93,81.55,61.66,81.55,61.66Zm-.29-11c-.86.07-.64,3.34-1.77,2.83-2.59-1.16,1.25-4.41,1.25-4.41,2.24-3.29,4.32.16,4.32.16C83.94,47.73,81.26,50.68,81.26,50.68ZM101,47.59c3.77,1.27,1,4.2,1,4.2,1.18-1.48-2.39-3.27-2.39-3.27-.29-.81-3.38.28-3.2-.95C96.84,44.77,101,47.59,101,47.59Zm-6.85.09c.3-1.87-3.68-1.68-3.68-1.68-.65-.56-2.81,1.91-3.25.74-1-2.65,4-2.23,4-2.23C95.12,43.77,94.15,47.68,94.15,47.68ZM98.7,64.9c.13,3.82-3.47,1.3-3.47,1.3.58-.09,1.28-2.61,1.28-2.61,2.5.84,4.77-1.35,4.77-1.35C103,64.91,98.7,64.9,98.7,64.9Zm3.74-5.4c.61-.65-.77-2.79-.77-2.79.12-.56-1.65-.83-1.65-2.23s1.71-.84,3.2-.65.47,3.54.47,3.54A1.6,1.6,0,0,1,102.44,59.5Zm41.25,20.12A6.38,6.38,0,0,1,138,80.94c0-.44,4.77-2.37,4-4.67C141.93,76.28,144.43,78.59,143.69,79.62Z"/><path class="cls-3" d="M84.15,52.83s.57-4.86,4.07-3.43c0,0,6.23-1.86,7,2.14,0,0,2.79,4.71,0,6.43,0,0,.14,4.86-3.47,4.28,0,0-5.61,2-6.47-.57,0,0-2.43-1.57-2-3.71C83.3,58,81.58,53.4,84.15,52.83Z"/><path class="cls-3" d="M128,66.11s.57-4.86,4.07-3.43c0,0,6.23-1.86,7,2.14,0,0,2.79,4.71,0,6.43,0,0,.14,4.86-3.47,4.28,0,0-5.61,2-6.47-.57,0,0-2.43-1.57-2-3.71C127.14,71.25,125.43,66.68,128,66.11Z"/><path class="cls-3" d="M48.25,66.11s.57-4.86,4.07-3.43c0,0,6.23-1.86,7,2.14,0,0,2.79,4.71,0,6.43,0,0,.14,4.86-3.47,4.28,0,0-5.61,2-6.47-.57,0,0-2.43-1.57-2-3.71C47.39,71.25,45.68,66.68,48.25,66.11Z"/><circle class="cls-4" cx="90.68" cy="57.06" r="1.08"/><circle class="cls-4" cx="134.61" cy="70.34" r="1.08"/><path class="cls-3" d="M141.37,99s.57-4.86,4.07-3.43c0,0,6.23-1.86,7,2.14,0,0,2.79,4.71,0,6.43,0,0,.14,4.86-3.47,4.28,0,0-5.61,2-6.47-.57,0,0-2.43-1.57-2-3.71C140.52,104.18,138.8,99.61,141.37,99Z"/><circle class="cls-4" cx="147.99" cy="103.27" r="1.08"/><circle class="cls-4" cx="52.62" cy="69.26" r="1.08"/><path class="cls-5" d="M65,52.1c3.68,8.53,7.48,17.09,13.67,24.14.21.24,1.17.1.86-.25C73.42,69,69.66,60.44,66,52c-.13-.3-1.12-.22-1,.13Z"/><path class="cls-5" d="M70.22,56.14q2.73,5.43,5.64,10.76,1.4,2.56,2.85,5.09a19.23,19.23,0,0,0,2.59,4.18.78.78,0,0,0,.68.09l.23-.07a.31.31,0,0,0,.25-.22l.05-.21c.07-.29-.91-.36-1,0,.36-1.44-1.87-4-2.56-5.19q-1.32-2.33-2.59-4.67Q73.69,61,71.19,56c-.15-.3-1.13-.2-1,.13Z"/><path class="cls-5" d="M73.38,49.54a26.4,26.4,0,0,0,3.23,13.7,53,53,0,0,0,7.84,11.59c.21.23,1.18.08.86-.25a52.58,52.58,0,0,1-7.74-11.47,26.15,26.15,0,0,1-3.19-13.57c0-.34-1-.36-1,0Z"/><path class="cls-5" d="M109.26,49.13c-1.47,7.56-1.92,17.18-8.18,22.51-.33.28.62.46.86.25,6.35-5.4,6.84-15.13,8.32-22.76.06-.31-.93-.36-1,0Z"/><path class="cls-5" d="M111.88,54.39a76.05,76.05,0,0,0-4.3,9.5c-1.18,3.19-2.09,6.11-4.56,8.59-.32.32.64.48.86.25,2.26-2.27,3.29-4.89,4.35-7.86a76.18,76.18,0,0,1,4.61-10.36c.17-.32-.8-.43-1-.13Z"/><path class="cls-5" d="M118,49.55c.23,5.23-3.23,9-6.4,12.73-2.8,3.3-5,7-7.66,10.43-.2.25.75.4,1,.13,3.2-4,5.9-8.31,9.21-12.24,2.7-3.2,5.07-6.7,4.88-11.06,0-.35-1-.34-1,0Z"/><path class="cls-5" d="M121.19,55c-.61,4.39-4.32,6.71-7.58,9.13A20.62,20.62,0,0,0,107,72.5c-.16.34.82.44,1,.13a20.25,20.25,0,0,1,4.06-6.24,43.58,43.58,0,0,1,4.29-3.33c2.78-2.05,5.33-4.43,5.83-8,0-.32-.95-.36-1,0Z"/><path class="cls-5" d="M84.46,65.44c1.28,1.77,3.11,2,5.09,1.53a5.3,5.3,0,0,1,2.87-.15,4.47,4.47,0,0,0,1,.31,1.3,1.3,0,0,0,1.38-.72c.16-.34-.82-.44-1-.13s-2-.4-2.55-.4a4.63,4.63,0,0,0-1.28.28c-1.91.54-3.4.79-4.58-.85-.2-.28-1.16-.14-1,.13Z"/><path class="cls-5" d="M83.92,66.61c1.49,2.8,4,2.25,6.56,1.82s5.51,1.81,7.24-1.34c.17-.32-.8-.43-1-.13-1.24,2.27-3.63.56-5.54.55a2.7,2.7,0,0,0-.72.25c-2.18.67-4.36,1.09-5.61-1.27-.16-.3-1.14-.19-1,.13Z"/><path class="cls-5" d="M82.54,68a6.27,6.27,0,0,0,4.26,3.3,6.72,6.72,0,0,0,2.6,0c.4-.08.77-.26,1.17-.35a4.93,4.93,0,0,1,3,.24c3.08.88,6.82-.71,5.53-4.55-.1-.3-1.09-.24-1,.13a3,3,0,0,1,0,2.28c-.44,1-3.48,1.72-4.44,1.49-.58-.14-.91-.6-1.55-.64a4.32,4.32,0,0,0-1.19.22c-1.35.3-3.67.81-5,.25a5.5,5.5,0,0,1-2.4-2.52c-.16-.29-1.14-.19-1,.13Z"/><path class="cls-5" d="M82.32,70c1.75,1.59,1.86,4,4.56,4.41a6.1,6.1,0,0,0,2.46-.21,11.62,11.62,0,0,1,4.58-.52c5.17.52,7.85-4,6.82-8.75-.08-.36-1.07-.3-1,0a7.68,7.68,0,0,1-.92,6.27c-1.42,1.93-3,2-5.55,1.65-.3,0-.62-.27-.94-.23-1.35.14-2.18.86-3.5,1.15-3.9.86-3.68-2.22-5.65-4-.23-.21-1.19,0-.86.25Z"/><path class="cls-5" d="M133.86,61.83c-1.32-1.12-2.94-2.16-4.75-1.71a3.06,3.06,0,0,0-1.47.8c-1.09,1.08-.46,2.24-1.11,3.39-.35.62-1.32.9-1.82,1.5a3.8,3.8,0,0,0-.9,2.66c.08,1.49,1.13,2.72,1.26,4.21.08.91-.32,1.61.44,2.23.2.16.88.22.93-.13l.12-.72c.05-.32-.94-.36-1,0l-.12.72.93-.13c-.68-.57-.22-1.6-.32-2.35a7.09,7.09,0,0,0-.47-1.48c-.86-2.37-1.32-5.05,1.9-6,.09,0,.26-.1.25-.22a4.63,4.63,0,0,1,.34-2.83c1.38-2.28,3.65-.82,4.91.26.24.2,1.2,0,.86-.25Z"/><path class="cls-5" d="M134.75,61.53c-2.08-2.55-8.16-4.41-9.8-.43-.57,1.39-.12,2.71-1.17,4s-2.06,1.68-2.62,3.1c-1,2.48,1,4.07,2.53,5.75.21.23,1.17.09.86-.25-1.12-1.26-2.8-2.61-2.68-4.44.15-2.25,2.48-2.9,3.46-4.55.5-.85.17-1.64.34-2.6.69-3.94,6.21-2.74,8.11-.41.22.26,1.17.12,1-.13Z"/><path class="cls-5" d="M121.78,66c.6,0,.6-.5,0-.5s-.6.5,0,.5Z"/><path class="cls-5" d="M121.55,65.34,119.91,68a11.36,11.36,0,0,0-1.51,2.55c-.32,1.25,1.48,2.56,2.32,3.21.25.19,1.21,0,.86-.25a6.77,6.77,0,0,1-2-2c-.36-.81,0-1.37.46-2.07l2.46-4c.18-.3-.79-.42-1-.13Z"/><path class="cls-5" d="M56,60.47c1.17,1,2.64,1.42,3.8,2.36a5.27,5.27,0,0,1,1.72,4.48c0,1.08-.56,2.36-.39,3.41.35,2.22,1.53,3.31-.44,5.32-.32.32.64.48.86.25a4,4,0,0,0,1.27-3.8c-.25-1.15-.69-1.38-.62-2.75,0-.81.29-1.61.31-2.44a5.78,5.78,0,0,0-1.26-4.17c-1.18-1.32-3-1.8-4.4-2.92-.24-.2-1.2,0-.86.25Z"/><path class="cls-5" d="M138.45,97.72l0,.8h1c-.37-2.32,1.48-4.61,3.72-5.25,2.64-.76,5.81,1.29,4.84,4.19-.12.37.86.44,1,.13,1-2.86-1.71-4.93-4.35-5-3.14-.09-6.7,2.6-6.17,5.93.05.34,1,.35,1,0l0-.8c0-.35-1-.34-1,0Z"/><path class="cls-5" d="M62.07,64.13a6.74,6.74,0,0,0,.85,2.27,4.73,4.73,0,0,1,.79,2.16c0,.62-.53,1.15-.67,1.72a2.14,2.14,0,0,0,.3,1.84,5.17,5.17,0,0,1,.85,3.7h1l-.05-.57c0-.36-1-.33-1,0l.05.57c0,.36.94.34,1,0a4.62,4.62,0,0,0-.09-2.38A11.62,11.62,0,0,0,64.3,72c-.54-1.09-.23-1.29.14-2.43.69-2.12-1.07-3.39-1.38-5.43-.06-.36-1-.32-1,0Z"/><path class="cls-5" d="M64,66c.32.8,1,1.36,1.33,2.15a3.26,3.26,0,0,1-.49,3.18c-.16.23.39.32.48.32,1.72,0,2.41,1.48,2,2.91-.11.38.88.44,1,.13.6-2.1-.91-3.59-3-3.55l.48.32a3.49,3.49,0,0,0,.66-2.9c-.25-1-1.11-1.72-1.5-2.69-.12-.3-1.11-.23-1,.13Z"/><path class="cls-5" d="M138.55,94.88a5.8,5.8,0,0,1,1.57-2.68c1.36-1.13,2.63-.68,4-.43,1.13.2,2.58.73,3.75.5a1.71,1.71,0,0,0,.77-3.13c-.24-.2-1.2,0-.86.25,1.21,1,.57,2.24-.82,2.35a12.76,12.76,0,0,1-2.56-.45,10.51,10.51,0,0,0-3.16-.39c-1.92.27-3.12,2.19-3.68,3.86-.12.37.86.44,1,.13Z"/><path class="cls-6" d="M81.3,185.73s.33,12.7-6.48,21.35A43.38,43.38,0,0,1,58,219.49c65,65,94.58-21.27,94.58-21.27a43.38,43.38,0,0,1-16.77-12.41c-6.81-8.65-6.48-21.35-6.48-21.35Z"/><path class="cls-7" d="M112.25,184.79c2,3.91,7.06,13.85,12.21,23.71a13.34,13.34,0,0,0,23.72-.12c1.61-3.18,2.77-5.89,3.51-7.7a2.71,2.71,0,0,0-1.32-3.46,42.89,42.89,0,0,1-14.51-11.4c-3.84-4.88-5.41-11-6-15.49a2.72,2.72,0,0,0-4.65-1.51l-12.44,12.85A2.72,2.72,0,0,0,112.25,184.79Z"/><path class="cls-8" d="M126.74,160.87c-2.23,6.54-6.87,20.61-17.07,24.83A41.28,41.28,0,0,1,100,187.9c-15.5,1.78-15.9-1.58-21-4.35s-11-8.31-16.31-19q.15.61.31,1.21c5.33,11.06,11.46,16.79,16.59,19.56s5.53,6.12,21,4.35,21-9.28,25.78-15.41a14.71,14.71,0,0,0,2.52-6.3C130,161.89,128.48,155.8,126.74,160.87Z"/><path class="cls-9" d="M62.91,76.27c-10.77-.62-26.6,9.81-17.56,24.53s-1.44,8.78,0,7c-2.68,1-2.32,4.86-1,6.15-2.12,0-6.79,8.93-3,18.61s.51,8-.64,7C40,143,43.46,151.6,53.26,152c2.42,4.37,2.76,9.49,8.51,9.49l67.6,1.4,1.67,5.24s3.4-1.47,4.11-4.49c3.22,1.09,10.55-.16,8.94-5.71-2.15,2.91-4.11,2-4.47.72s7.87-1.79,9.66-5.19a8.44,8.44,0,0,0,.72-6.37,9.39,9.39,0,0,0,1.79-8.75c-1.43-5.45,7.51-22.37-3.58-29.21-4.47-1.35-3-8.27-5-9.16s-6.08-.18-4.83-5.9-3.22-24.86-25.67-20c0,0-5.6-4.29-22,0S77.5,71.26,62.91,76.27Z"/><path class="cls-10" d="M91.62,88.34c17.38,0,23.86,1.91,26.67,6.12,3.56,5.33,4.54,11.46,7.7,17s4.54,25.88,6.12,28.25c0,4-1.58,26.67-6.32,32.79S115.52,186.12,100,187.9s-15.9-1.58-21-4.35S67.72,175.06,62.39,164c-3.16-12-4.74-29.24-3.75-32.4s3-16,3.56-23.11S68.51,89.65,77.8,89.78,91.62,88.34,91.62,88.34Z"/><path class="cls-11" d="M126.74,160.87c2.39-7-1.34-19.39,0-25.11s3.21-7,3.21-7c-1-6.6-2.2-14.24-4-17.31-3.16-5.53-4.15-11.65-7.7-17-2.81-4.21-9.28-6.12-26.67-6.12,0,0-4.54,1.58-13.83,1.44s-15,11.6-15.61,18.71-2.57,20-3.56,23.11.59,20.35,3.75,32.4c5.33,11.06,11.46,16.79,16.59,19.56s5.53,6.12,21,4.35a41.28,41.28,0,0,0,9.66-2.21C119.88,181.48,124.51,167.41,126.74,160.87Z"/><path class="cls-10" d="M98.95,128.5c-.32.56,2.59,0,2.59,0l.9-.69-1.16-.26S99.38,127.75,98.95,128.5Z"/><path class="cls-10" d="M83.22,128.77c.48.66-2.85,0-2.85,0l.66-1.2A5.45,5.45,0,0,1,83.22,128.77Z"/><path class="cls-10" d="M74.76,124c3.83,0,4.59.12,7.68,2.23.82.66-.61,1.91-.61,1.91Z"/><path class="cls-12" d="M107,123.6a14.75,14.75,0,0,1,7,2c1.23.78,1,1.08-.15,1.08s-13.09.82-13.09.82S104.43,123.6,107,123.6Z"/><path class="cls-12" d="M73.81,124c2.83,0,7.42,2.32,8.63,4.14H67.08S69.91,123.87,73.81,124Z"/><path class="cls-13" d="M81.83,128.15c-3.56-2.79-6-3-7.67-3s-4.28,1.87-6,3a13.88,13.88,0,0,0,6.25,1.49c2.05,0,5.25-1,5.92-.89S81.57,128.82,81.83,128.15Z"/><path class="cls-14" d="M74.45,129.64c3.54,0,4.09-1.86,3.85-3.67a11,11,0,0,0-4.14-.86,3.85,3.85,0,0,0-2.52.82S71,129.66,74.45,129.64Z"/><path class="cls-15" d="M92.84,150.22c2.59-2,2.4-2.5,3.84-2.4a5.88,5.88,0,0,1,2,.38"/><path class="cls-16" d="M99.74,151.09a3.62,3.62,0,0,0,2.28-3.88c0-.18-.51-.17-.5,0a3.43,3.43,0,0,1-2.14,3.7c-.25.12.21.25.35.18Z"/><path class="cls-16" d="M83.3,141.41C82,143,80,145.75,80.76,148c.55,1.63,3.2,2,4.64,2.37.18,0,.57-.13.25-.22-1.52-.41-4.26-.88-4.49-2.65-.28-2.11,1.27-4.41,2.56-5.92.15-.18-.33-.25-.43-.13Z"/><path class="cls-15" d="M83.22,148.11c1.55.1,3.57,1.83,5,3.07"/><path class="cls-16" d="M88.87,154.24a3.5,3.5,0,0,0,3.83-1c.1-.12-.37-.2-.48-.07a2.82,2.82,0,0,1-3.09.89c-.18-.06-.56.11-.25.22Z"/><path class="cls-10" d="M85.53,124.37c1.15,1.63,2.69,7.4.77,12.3a16,16,0,0,0-.77,9.18s-2.35-6.43-.34-10.74S85.53,124.37,85.53,124.37Z"/><path class="cls-10" d="M94.18,127.54c.37,2.76,2.59,5.38,3.75,5.86,0,0-3.75-5.19-1.87-9.8C96.06,123.6,94,126.31,94.18,127.54Z"/><path class="cls-17" d="M95.81,120.64a7.62,7.62,0,0,1,2.82-4.56"/><path class="cls-17" d="M97.26,120.37a7.73,7.73,0,0,1,3.36-4.68"/><path class="cls-17" d="M98.34,120.65l3-4.68c.26-.41.66-.88,1.12-.75"/><path class="cls-17" d="M100.28,120.24c1.28-1.49,1.6-3.89,3.38-4.7"/><path class="cls-17" d="M101.54,119.57c2-.77,2.38-3.71,4.31-4.69"/><path class="cls-17" d="M104.13,119.07l1.65-2.32A7.77,7.77,0,0,1,108.6,114"/><path class="cls-17" d="M106,118c1.89-.4,2.5-3.36,4.43-3.49"/><path class="cls-17" d="M109,116.9l2.74-2a2.4,2.4,0,0,1,2-.69"/><path class="cls-17" d="M110.76,117.32a5.91,5.91,0,0,1,3.9-2.13"/><path class="cls-17" d="M112.64,117.33l4.62-2.24"/><path class="cls-17" d="M115.33,117.77a4.34,4.34,0,0,1,3.6-1.65"/><path class="cls-17" d="M117.31,117.56a3.14,3.14,0,0,1,1.91-.73"/><path class="cls-17" d="M118.34,118a2.72,2.72,0,0,1,1.32-.14"/><path class="cls-17" d="M119.23,118.57l.59.29"/><path class="cls-17" d="M83.84,121.36a6.29,6.29,0,0,0-4-4.45"/><path class="cls-17" d="M82.6,121.38a1.71,1.71,0,0,0-.55-1.4,16.65,16.65,0,0,0-3.94-3.42"/><path class="cls-17" d="M80.37,120.57a7.37,7.37,0,0,0-1.15-1.5c-1.07-1.17-2.25-2.4-3.81-2.67"/><path class="cls-17" d="M78.3,119.79a12.83,12.83,0,0,0-5.06-3.69"/><path class="cls-17" d="M75.51,119.5a27.2,27.2,0,0,0-3.07-2.56,2.38,2.38,0,0,0-2.2-.6"/><path class="cls-17" d="M72.11,119l-3.87-2.12a2.21,2.21,0,0,0-1.85-.38"/><path class="cls-17" d="M72.91,119.08c-2.09-.3-3.21-3.13-5.32-3.17"/><path class="cls-17" d="M69.67,118.88c-1.7,0-2.91-2.2-4.59-1.95"/><path class="cls-17" d="M68.2,118.87a3.41,3.41,0,0,1-2.28-.86,2.74,2.74,0,0,0-2.32-.64"/><path class="cls-17" d="M66.11,119.5a5.58,5.58,0,0,0-2.74-1.09c-.22,0-.54.09-.45.3"/><path class="cls-17" d="M66.53,120.75a10.85,10.85,0,0,0-3.92-1"/><path class="cls-17" d="M64.9,120.85a1.68,1.68,0,0,0-2.35.19"/><path class="cls-16" d="M112.16,132.36c3,0,9.6-1.22,13.25,5.08C125.41,137.44,123,130.14,112.16,132.36Z"/><path class="cls-16" d="M117.13,128.5c.72.21,5.16,1.54,8.28,1A26.8,26.8,0,0,1,117.13,128.5Z"/><path class="cls-16" d="M118.27,127.47c-.84.09,5.81,0,7.14-1A15.06,15.06,0,0,1,118.27,127.47Z"/><path class="cls-16" d="M81.83,131.94c-4.41,2.83-13.44,2.93-16.76,3.71a6.21,6.21,0,0,0-4.29,3.91S59.36,134.8,73.24,134C73.24,134,80.28,134.49,81.83,131.94Z"/><path class="cls-16" d="M67.37,129.64c-1.49,2.06-9,3.77-9,3.77S66.06,131.72,67.37,129.64Z"/><path class="cls-16" d="M65.9,128.5c-2.94.66-6.25-1.48-6.25-1.48S63.37,129.58,65.9,128.5Z"/><path class="cls-16" d="M65.9,129.64c-.28.19-4.23,1.28-6.25,0a5.33,5.33,0,0,0,6,.19"/><path class="cls-16" d="M104.13,147.12c3.18,3.29,6,7.38,6.62,9.81C110.76,156.92,111,152.17,104.13,147.12Z"/><path class="cls-16" d="M79,148.11c-2.73,3.21-6.43,9-5.72,12.76C73.24,160.87,72,154.45,79,148.11Z"/><path class="cls-18" d="M78.06,161.74c4.33-2,11.05-2.16,13.37-2s6-.4,7.65,0,9.58,1,9.58,1-3.14,9.28-15.83,9.28C85.53,169.94,79.22,164.37,78.06,161.74Z"/><path class="cls-19" d="M80,162.29c4.79,2.71,17.88,6.72,27.45-.77H92.84C87.11,161.51,80,162.29,80,162.29Z"/><path class="cls-16" d="M100,187.9s12.17-5,13.91-13.12C113.92,174.78,112.65,183.48,100,187.9Z"/><path class="cls-16" d="M76.06,175.79s5.48,10.9,9.74,11.71C85.8,187.5,79.23,185.28,76.06,175.79Z"/><path class="cls-13" d="M102,127c2.61-2,3.81-2.65,6-2.65s4,1,5.83,2.36c-1.86,1.77-2.58,2.52-8.89,2a30.22,30.22,0,0,0-3.34-.27l-.27-1Z"/><path class="cls-14" d="M108.2,128.75c3.59,0,3.47-1.17,3.5-3.34a8.46,8.46,0,0,0-3.75-1,6.28,6.28,0,0,0-3.09.69S103.52,128.67,108.2,128.75Z"/><circle class="cls-20" cx="108.2" cy="126.24" r="1.13"/><circle class="cls-20" cx="75.4" cy="127.02" r="1.13"/><path class="cls-13" d="M75.4,127c.69,0,.65-.78.65-.78a.83.83,0,0,0-.65-.35,1.44,1.44,0,0,0-.82.35A1,1,0,0,0,75.4,127Z"/><path class="cls-13" d="M108.2,126.24c.69,0,.65-.78.65-.78a.83.83,0,0,0-.65-.35,1.44,1.44,0,0,0-.82.35A1,1,0,0,0,108.2,126.24Z"/><path class="cls-21" d="M99.56,126.49c1.42-1.42,9.43-7.45,16.88,0C116.44,126.49,109.69,117.61,99.56,126.49Z"/><path class="cls-10" d="M95.23,142.37c.16,1.87.73,2.74,1.16,2.85s-.54-3.29-.34-4.51,0-1.42-.28-1.14A5,5,0,0,0,95.23,142.37Z"/><path class="cls-16" d="M88.22,110.51s-.47,8.31,0,9.28"/><path class="cls-22" d="M68.37,110.6c3.5-1.92,7.93-2.4,11.85-2.52a37.89,37.89,0,0,1,7.94.56,12.63,12.63,0,0,0,4.63,0,94.81,94.81,0,0,1,12.37-.7c3.21,0,7,0,10,1.37.14.07.6-.06.35-.18-2.62-1.23-5.78-1.3-8.61-1.4a92.37,92.37,0,0,0-13.53.59c-5,.56-9.8-.76-14.82-.41-3.51.25-7.39.79-10.53,2.51-.25.13.21.25.35.18Z"/><path class="cls-22" d="M69.43,103.72a21.66,21.66,0,0,1,12.32-2.67c.23,0,.47-.21.13-.24a22.55,22.55,0,0,0-12.81,2.73c-.25.13.21.25.35.18Z"/><path class="cls-23" d="M118.78,91.74c-1.91-7.11,19.71-10.89,6.63,9.06C125.41,100.79,124.5,88,118.78,91.74Z"/><path class="cls-23" d="M63.72,93.41c-5.14-9.58-14-5.78-8,7.39C55.68,100.79,58.69,89.91,63.72,93.41Z"/><path class="cls-23" d="M146.2,107.82c-2-2.48-1.41-7.09-3-7.81-1.34-.61-3.68-.47-4.64-2.14h0C132.68,104.65,130.42,116.06,146.2,107.82Z"/><path class="cls-23" d="M49.07,109.16h0c.07,3.13-4.71-.12-3.71-1.35-2.68,1-2.32,4.86-1,6.15-1.2,0-3.21,2.85-4,7.08C59.4,129.2,56.16,111.68,49.07,109.16Z"/><path class="cls-4" d="M56.65,152c1.06-3,3.36.28,3.36.28l1.77,9.21S52.89,162.7,56.65,152Z"/><path class="cls-10" d="M132.12,143.17c1.91-1.34,3.1.54,3.69,2.05S131,153,131,153Z"/><path class="cls-4" d="M134.13,158.35c3.3-.14,6.87-10.54.78-10.54A34.82,34.82,0,0,1,131,153S130.51,158.5,134.13,158.35Z"/><path class="cls-16" d="M102.44,133.4c1.91.3,11.21,1.36,13.93.56s7.71,4.25,9,7.51c0,0-2.78-8.84-10.46-7.77S102.44,133.4,102.44,133.4Z"/><path class="cls-24" d="M105.57,162.81a19.45,19.45,0,0,0,1.88-1.3h-2.21A2.46,2.46,0,0,1,105.57,162.81Z"/><path class="cls-24" d="M80,162.29a21.73,21.73,0,0,0,2.21,1.07,7.44,7.44,0,0,1,.2-1.3C80.93,162.18,80,162.29,80,162.29Z"/><g class="cls-25"><path class="cls-17" d="M97,118a10.32,10.32,0,0,0-.95,3.37c-.06.3.37.07.42,0l2.14-1.61a15.77,15.77,0,0,0,2.26-3.46H99.21c-.78-.32-2.36,2.29-2.62,2.83L96,120.3c-.08.16-.4.73,0,.73,3.73,0,7.35-2.22,10.74-3.63,4.25-1.77,6.86-1.07,10.65,1.38l2.77-3.55a15.51,15.51,0,0,0-10-1.49c-2.44.41-9.06,4.4-10.32,1.51l-2.63,3.56a133.76,133.76,0,0,1,14.62-3.3l2.48-3.57a48.21,48.21,0,0,1-12.8,3.57c-1.14.2-2.59,3.59-2.48,3.57a48.18,48.18,0,0,0,12.8-3.57c.75-.36,2.83-3.63,2.48-3.57a133.76,133.76,0,0,0-14.62,3.3c-.78.22-3,2.68-2.63,3.56,1.36,3.13,5.59-.13,7.79-.8a16.19,16.19,0,0,1,12.53.78c.72.37,3.22-3.26,2.77-3.55-3.16-2-5.85-3.37-9.5-2-1.94.72-3.84,1.6-5.75,2.4-.4.17-6.2,2.08-5.87,1.4l-2.62,2.83c1.21.5.76.51,2,0l2.26-3.46c1.25-.94-2.41,1.59-1.62.25,1.43-2.42-1.55.52-2,1.31Z"/></g><g class="cls-25"><path class="cls-17" d="M84.1,118.56c-4.69-4.17-11-5.14-16.94-3.44-2.89.82-6.26,3.35-5.65,6.73.08.45.65,0,.8-.11,3.25-2.28,5.19-3.17,9.14-2.59,3.61.53,6.79,2.16,10.31,2.88.88.18,3.47-3.09,2.77-3.55-4.18-2.71-7.7-2.43-12.45-2.53-3.71-.08-6.31-1.16-9,1.73-1.15,1.22-2,3.91.15,1.64.88-.94,7.57.17,9.12.14A15.83,15.83,0,0,1,81.75,122l2.77-3.55c-4.12-.84-7.84-2.7-12.12-3.12-3.93-.39-5.66,1.18-8.79,3.37l.8-.11q-1,.77,1-.07a22.69,22.69,0,0,1,2.61-.48,19.53,19.53,0,0,1,4-.09,15.84,15.84,0,0,1,9.37,4.12c.57.51,3.47-2.93,2.77-3.55Z"/></g><path class="cls-26" d="M22.88,32.67a4.27,4.27,0,0,1,3.1-4,4.11,4.11,0,0,1-2.67-3.83c0-2.67,2.37-4.54,5.5-4.54s5.5,1.87,5.5,4.54a4.12,4.12,0,0,1-2.67,3.83,4.25,4.25,0,0,1,3.1,4c0,2.62-2.17,4.69-5.92,4.69S22.88,35.29,22.88,32.67Zm9.35-.2c0-1.56-1.26-2.8-3.43-2.8s-3.43,1.24-3.43,2.8,1.23,2.75,3.43,2.75S32.23,34,32.23,32.47Zm-.4-7.54a2.74,2.74,0,0,0-3-2.62,2.74,2.74,0,0,0-3,2.62,2.77,2.77,0,0,0,3,2.67A2.77,2.77,0,0,0,31.83,24.93Z"/><path class="cls-26" d="M174.44,237.13a4.27,4.27,0,0,1-3.1,4A4.11,4.11,0,0,1,174,245c0,2.67-2.37,4.54-5.49,4.54S163,247.66,163,245a4.13,4.13,0,0,1,2.67-3.83,4.25,4.25,0,0,1-3.1-4c0-2.62,2.17-4.69,5.92-4.69S174.44,234.51,174.44,237.13Zm-9.35.2c0,1.56,1.26,2.8,3.43,2.8s3.43-1.23,3.43-2.8-1.24-2.75-3.43-2.75S165.08,235.79,165.08,237.33Zm.4,7.54a3.06,3.06,0,0,0,6,0,3,3,0,0,0-6,0Z"/><path class="cls-26" d="M36.13,52.74,29.31,41.88a.78.78,0,0,0-1.31,0L21.16,52.74a.78.78,0,0,0,0,.83L28,64.43a.78.78,0,0,0,1.31,0l6.83-10.87A.78.78,0,0,0,36.13,52.74Z"/><path class="cls-26" d="M176,216.68l-6.83-10.87a.78.78,0,0,0-1.31,0L161,216.68a.78.78,0,0,0,0,.83l6.83,10.87a.78.78,0,0,0,1.31,0L176,217.51A.78.78,0,0,0,176,216.68Z"/></svg>