<svg id="Layer_1" data-name="Layer 1" xmlns="http://www.w3.org/2000/svg" viewBox="0 0 196 266.67"><defs><style>.cls-1{fill:#f8e4e3;}.cls-2{fill:#231f20;}.cls-3{fill:#010101;}.cls-4{fill:#1d1611;}.cls-5{fill:#58595b;}.cls-6{fill:#d39372;}.cls-7{fill:#da9f7b;}.cls-8{fill:#8f3d30;}.cls-9{fill:#f8e8d7;}.cls-10{fill:#6b3720;}.cls-11{opacity:0.5;}.cls-12{fill:#be6d48;}.cls-13{fill:#d28867;}.cls-14{fill:#381c15;}.cls-15{fill:#ebf4f0;}.cls-16{fill:#d38c68;opacity:0.67;}.cls-17{fill:#5f513b;}.cls-18{fill:#fff;}.cls-19{opacity:0.46;}.cls-20{opacity:0.15;}</style></defs><title>badbitchcards</title><rect class="cls-1" x="8.63" y="8.48" width="178.58" height="249.45" rx="8.5" ry="8.5"/><path class="cls-2" d="M25.21,26.35,30,21.92H22.21V19.65H33.3v2.22l-4.66,4.31a4.85,4.85,0,0,1,5,5c0,2.75-2.12,5.24-5.92,5.24s-5.92-2.47-6.08-5.14l2.42-.55a3.53,3.53,0,0,0,3.63,3.53c2.24,0,3.45-1.39,3.45-3a3,3,0,0,0-3.33-3,4.4,4.4,0,0,0-1.44.25Z"/><path class="cls-3" d="M33.08,50.55h-.24a5.16,5.16,0,1,0-9.74,0h-.24A5.16,5.16,0,1,0,27,58.82C26.41,61,25.66,63.28,24.85,64h6.24c-.81-.73-1.56-3-2.12-5.19a5.16,5.16,0,1,0,4.11-8.28ZM28.2,54s0,0,0,0Z"/><path class="cls-2" d="M170.23,239.45l-4.81,4.44h7.81v2.27H162.13v-2.22l4.66-4.31a4.85,4.85,0,0,1-5-5c0-2.75,2.12-5.24,5.92-5.24s5.92,2.47,6.08,5.14l-2.42.55a3.53,3.53,0,0,0-3.63-3.53c-2.24,0-3.45,1.39-3.45,3a3,3,0,0,0,3.33,3,4.38,4.38,0,0,0,1.44-.25Z"/><path class="cls-3" d="M162.36,215.25h.24a5.16,5.16,0,1,0,9.74,0h.24a5.16,5.16,0,1,0-4.12-8.28c.56-2.18,1.31-4.46,2.12-5.19h-6.24c.81.73,1.56,3,2.12,5.19a5.16,5.16,0,1,0-4.11,8.28Zm4.87-3.45s0,0,0,0Z"/><path class="cls-4" d="M102.25,44.5s18.54-6.09,40.34,14.42,19.23,77,18.91,84-11.54,30-11.54,30-6.17,3.08-15.75,0-10.46,0-10.46,0-36.93.34-42.41,0-9.3,1.71-17.43,1.37-12.8.32-14.77-1.37-1.48-12.2-4.92-19.25-9.35-17.14-5.17-33.39S48.16,75,66.63,56.41,102.25,44.5,102.25,44.5Z"/><path class="cls-5" d="M106,51s31.73,5.29,31.09,28.91C137.14,79.93,139.4,59.55,106,51Z"/><path class="cls-5" d="M45.85,108.68s-10.56,13.35,0,40.43C45.85,149.11,36.05,125.33,45.85,108.68Z"/><path class="cls-6" d="M93.74,230.06c-28.53,0-41.3-36.25-41.3-36.25s25.33-8.62,26.33-29.42,47.21-18.26,48.77-3,2.45,30.67,8.1,35.43C133.55,207.48,128.2,228.87,93.74,230.06Z"/><path class="cls-4" d="M79.25,163.17s12.37,10.65,23,11a36,36,0,0,0,25.51-10l.47-10.87-52.64-1.5.61,8.79Z"/><path class="cls-7" d="M100.33,56.28C75,56.28,68.54,87.78,68.54,90.85s.28,55.48,1.67,57.71,10.32,22,35.13,22,34.29-29,34.29-29-6.13-11.43-3.9-28.16-.56-35.13-3.9-38.75S124,66,117.06,62.13C112.42,59.54,100.33,56.28,100.33,56.28Z"/><path class="cls-8" d="M88.89,144.75s7.15-9.2,11.7-8.61a3.26,3.26,0,0,1,2.79,1.76s1.76-2,3.52-1.79,4.7-.41,11.74,8.1c0,0-3,6.61-14.62,6.61S88.89,144.75,88.89,144.75Z"/><path class="cls-9" d="M96,142.75s4.22-1.61,6.58-.75a21.39,21.39,0,0,1,9.06.75s-7.82.75-8.57,1.24S100.34,142.75,96,142.75Z"/><path class="cls-10" d="M101.51,128.84a5,5,0,0,0-5.81-1.52"/><path class="cls-10" d="M106.46,128.84s1.58-3.21,5.67-1.87"/><g class="cls-11"><path class="cls-12" d="M102,130.16a6.46,6.46,0,0,0,4.4,0c.22-.09.13-.25,0-.35a.83.83,0,0,0-.71,0,4.71,4.71,0,0,1-3.19,0c-.35-.12-1.12.22-.5.43Z"/></g><path class="cls-13" d="M114.39,123.25c1.26,2.28,2.55,6.68-1.41,6.78-.6,0-.61.52,0,.5,2.09-.05,3.8-1,3.7-3.26a9.87,9.87,0,0,0-1.32-4.15c-.16-.29-1.14-.19-1,.13Z"/><path class="cls-13" d="M92.7,122.7c-1.08,2-2.73,6.13.13,7.42.28.13,1.21-.13.71-.35-2.55-1.15-.81-5.17.13-6.93.17-.32-.8-.43-1-.13Z"/><path class="cls-14" d="M77.05,110.21s-3.54,1.24-4.39.39c.36-3.65,5-9.61,16.77-5,0,0,.51,2.3.89,2.49"/><path class="cls-15" d="M77.05,110.21a10.67,10.67,0,0,1,7-3.24c4.35-.18,6.4,1.31,8.56,2.7l-.93.39a13.54,13.54,0,0,1-4.42.74c-1.19,0-4.32.14-6.67.05A10.64,10.64,0,0,1,77.05,110.21Z"/><path class="cls-16" d="M68.76,115.94s14,6.29,13.64,21.4S70.19,148.7,70.19,148.7Z"/><path class="cls-16" d="M134.39,119c.51-.07-11.88,1.29-9.95,15,1.89,13.47,14,7.66,14,7.66"/><path class="cls-14" d="M130.29,109.14,134.5,107s-6.4-5.67-12.35-3.75a11.49,11.49,0,0,1-2.2,2.66"/><path class="cls-15" d="M114,109.14s7.93-7.93,16.28,0a23.41,23.41,0,0,1-16.28,0Z"/><path class="cls-17" d="M81.57,107.41s-1,2.54.84,3.68l4.87-.49S89,109,88,107.31C88,107.31,84.18,106.32,81.57,107.41Z"/><path class="cls-17" d="M119,106.16s-.34,3,.62,4.47l5.14-.1s1.2-2.8.32-4.52A10.76,10.76,0,0,0,119,106.16Z"/><circle class="cls-4" cx="122.29" cy="107.79" r="1.35"/><path class="cls-18" d="M122.75,107c0,.14-.55.26-.69.26a.26.26,0,0,1,0-.52C122.21,106.75,122.75,106.87,122.75,107Z"/><g class="cls-19"><path class="cls-2" d="M121.31,107.6a.9.9,0,0,1,.91-.63c.51,0,.85.08,1,.49a.63.63,0,0,0,1.21-.33c-.56-2.05-3.74-1.8-4.28.14a.63.63,0,0,0,1.21.33Z"/></g><path class="cls-13" d="M113.72,109.14s-.61.14-.61.61.94,0,1.83,0,8.37,2.57,15.51-.57C130.46,109.18,123.45,111.94,113.72,109.14Z"/><path class="cls-13" d="M92.63,109.67s.61.14.61.61-.94,0-1.83,0-7.66,2.26-14.36-.08C77.05,110.21,82.69,112,92.63,109.67Z"/><circle class="cls-4" cx="84.99" cy="108.68" r="1.38"/><path class="cls-18" d="M85.47,108.11c0,.14-.55.26-.69.26a.26.26,0,0,1,0-.52C84.92,107.85,85.47,108,85.47,108.11Z"/><g class="cls-19"><path class="cls-2" d="M83.93,108.83c0-.45.69-.84,1.07-.87.62,0,.92.3,1.07.86a.63.63,0,0,0,1.21-.33,2.18,2.18,0,0,0-2.44-1.77,1.93,1.93,0,0,0-1.41.69,2.32,2.32,0,0,0-.75,1.41c-.07.8,1.18.8,1.25,0Z"/></g><path class="cls-4" d="M110.53,98l.08,0a5.66,5.66,0,0,1,.32-1.38,2.56,2.56,0,0,1,.38-.66,4.45,4.45,0,0,1,.55-.68"/><path class="cls-4" d="M112.42,97.93l.08,0c0-.27.14-.57.21-.84a3.4,3.4,0,0,1,.42-1,5.33,5.33,0,0,1,.57-.8l.81-.81"/><path class="cls-4" d="M114.41,97.65l.08,0a7.88,7.88,0,0,1,1.16-2.47,3.13,3.13,0,0,1,.76-.85,1.36,1.36,0,0,1,.45-.29c.12,0,.31-.05.4-.16"/><path class="cls-4" d="M116.88,96.79a1.44,1.44,0,0,1,.28-.83c.25-.41.47-.83.71-1.24a4.14,4.14,0,0,1,1-1.11c.26-.21.45-.42.79-.42"/><path class="cls-4" d="M118.77,96.42a2.51,2.51,0,0,1,.57-.93,7.44,7.44,0,0,1,.71-.92,6.39,6.39,0,0,0,.81-1,1.41,1.41,0,0,1,.45-.48c.17-.1.38-.09.5-.28"/><path class="cls-4" d="M121.14,95.94c.14,0,.17-.19.21-.31a1.28,1.28,0,0,1,.26-.44,6.65,6.65,0,0,0,.59-1,3.38,3.38,0,0,1,.85-1c.15-.12.3-.27.45-.38a1.73,1.73,0,0,0,.38-.28"/><path class="cls-4" d="M123.41,95.37c0-.37.2-.48.36-.78a1.19,1.19,0,0,1,.21-.36,2.82,2.82,0,0,0,.31-.37c.16-.24.37-.43.52-.67s.58-.6.88-.57"/><path class="cls-4" d="M125.69,94.24l.08,0a2.19,2.19,0,0,1,.8-1.05c.29-.27.68-.32.93-.64"/><path class="cls-4" d="M127.77,93.67c.17,0,.21-.18.31-.28s.21-.18.31-.28a1,1,0,0,1,.32-.29c.12-.05.25-.06.37-.11s.18-.17.3-.17"/><path class="cls-4" d="M129.29,93.86c0-.31.4-.5.66-.57a3.86,3.86,0,0,1,.95-.19"/><path class="cls-4" d="M130.9,94.24a5.91,5.91,0,0,0,.75-.1,3.34,3.34,0,0,1,.55,0c.15,0,.25.08.4.1"/><path class="cls-4" d="M133,94.81l.18.09a2.12,2.12,0,0,0,.34.19,3.14,3.14,0,0,0,.7,0"/><path class="cls-4" d="M133.74,95.94c.29,0,.42.25.66.33a4,4,0,0,1,.43.14,1.56,1.56,0,0,0,.43.19"/><path class="cls-4" d="M93.76,98.22a4,4,0,0,0,0-.85,1.73,1.73,0,0,0-.27-.49c-.14-.24-.19-.51-.33-.74s-.26-.25-.41-.4-.19-.25-.3-.36-.49-.25-.66-.47"/><path class="cls-4" d="M91.68,98.31a3.85,3.85,0,0,0-.26-1.21c-.07-.21-.17-.41-.24-.62a3.26,3.26,0,0,0-.3-.54c-.17-.31-.3-.63-.48-.94a1.24,1.24,0,0,0-.51-.43c-.16-.1-.28-.27-.48-.24"/><path class="cls-4" d="M89.69,98.12v.06a4.32,4.32,0,0,0-.07-1.1A8,8,0,0,0,89.26,96c-.15-.35-.37-.66-.55-1a2.46,2.46,0,0,0-.26-.4.86.86,0,0,0-.48-.36"/><path class="cls-4" d="M88.27,97.93a1.91,1.91,0,0,0-.28-.87c-.19-.37-.38-.77-.6-1.12s-.33-.51-.47-.78-.49-.83-.83-.83"/><path class="cls-4" d="M86.28,97.65c.23-.17,0-.53,0-.73s-.27-.67-.4-1a5.93,5.93,0,0,0-.42-.79,5.27,5.27,0,0,0-.86-.88"/><path class="cls-4" d="M84.86,97.27a2.45,2.45,0,0,0-.28-.68c-.16-.33-.34-.65-.51-1s-.28-.47-.39-.73c-.19-.42-.6-.46-.9-.75"/><path class="cls-4" d="M83.06,96.79v.06c0-.29-.21-.58-.33-.82s-.31-.55-.45-.85a2.36,2.36,0,0,0-.55-.67c-.19-.19-.38-.44-.66-.47"/><path class="cls-4" d="M81.64,96.61c-.21-.06-.32-.44-.42-.61a4.37,4.37,0,0,0-.62-.91c-.37-.38-1-1.21-1.61-1.13"/><path class="cls-4" d="M79.93,96.32c0-.17-.27-.51-.38-.64a3.67,3.67,0,0,0-.71-.65,6.52,6.52,0,0,0-.81-.57c-.24-.12-.44-.48-.76-.42"/><path class="cls-4" d="M78.6,96.61c0-.31-.16-.35-.38-.57s-.33-.35-.52-.52A5.36,5.36,0,0,0,77,95a4.57,4.57,0,0,0-.46-.29c-.17-.09-.38-.11-.49-.28"/><path class="cls-4" d="M77.37,96.79c-.22-.07-.33-.31-.5-.45a5.12,5.12,0,0,0-.62-.43,2.83,2.83,0,0,0-1.54-.54"/><path class="cls-4" d="M76,96.51c-.4,0-.64-.31-1-.38s-.92.09-1.37-.05v.06"/><path class="cls-4" d="M73.49,96.79a2.88,2.88,0,0,0-.76,0c-.26.08-.46.42-.76.36"/><path class="cls-4" d="M72.64,97.74a3.89,3.89,0,0,0-.71.27,1.32,1.32,0,0,0-.33.13c-.12.08-.21.27-.38.27"/><path class="cls-7" d="M102,46l-1.68,10.28H99.14S102.36,43.81,102,46Z"/><g class="cls-20"><path class="cls-14" d="M72.93,97.7c1-2.07,7.43-.35,8.8-.09,3.46.66,7,.94,10.4,1.71,1,.23,3.36-3.42,2.39-3.64-3.22-.72-6.49-1-9.73-1.58-2.63-.47-5.32-1.33-8-.66-3.21.81-5.25,3.29-6.58,6.17-.87,1.88,2.33-1.08,2.72-1.92Z"/></g><g class="cls-20"><path class="cls-14" d="M134.51,96.11c-7-6.45-16.76-2.35-25-.61l3.13,3.24c3.26-2.13,7-2.41,10.76-2.94,3.5-.49,7.17-1.45,10.45.34.62.34-1.53-2.65-2.37-3.11-3.48-1.91-7.17-1-10.92-.52s-7.72.82-11,3c-.42.28,2.34,3.4,3.13,3.24,5.78-1.22,17-5.82,22.06-1.16,2.29,2.12,1-.38-.21-1.46Z"/></g></svg>