<svg id="Layer_1" data-name="Layer 1" xmlns="http://www.w3.org/2000/svg" viewBox="0 0 196 266.67"><defs><style>.cls-1{fill:#f8e4e3;}.cls-2{fill:#231f20;}.cls-3{fill:#010101;}.cls-4{fill:#e7bc96;}.cls-5{fill:#443123;opacity:0.07;}.cls-6{fill:#d6d1c9;}.cls-7{fill:#777470;}.cls-8{fill:#ecc19c;}.cls-9{fill:#785340;}.cls-10{fill:#b86764;}.cls-11{fill:#f8e8d7;}.cls-12{fill:#6b3720;}.cls-13{fill:#f7f2e5;}.cls-14{fill:#d28867;}.cls-15{opacity:0.22;}.cls-16{fill:#b67d6c;}.cls-17{opacity:0.6;}.cls-18,.cls-23{fill:#995c42;}.cls-19{fill:#d89d6d;}.cls-20,.cls-23{opacity:0.5;}.cls-21{fill:#ebf4f0;}.cls-22{fill:#381c15;}.cls-24{fill:#e4bf9b;}.cls-25{opacity:0.1;}.cls-26{fill:#be6d48;}</style></defs><title>badbitchcards</title><rect class="cls-1" x="8.63" y="8.48" width="178.58" height="249.45" rx="8.5" ry="8.5"/><path class="cls-2" d="M21.83,25.22a5.88,5.88,0,0,1,0-.66,5.28,5.28,0,0,1,5.65-5.29c3.5,0,5.52,2.29,5.52,5a6,6,0,0,1-3.08,5l-3.23,2.07a4,4,0,0,0-2,2.29h8.39V36H21.63c.05-2.67,1.11-4.71,3.88-6.5l2.72-1.76a4.08,4.08,0,0,0,2.24-3.4,2.82,2.82,0,0,0-3.08-2.87c-2.14,0-3.15,1.49-3.15,3.35,0,.23,0,.48.05.73Z"/><path class="cls-3" d="M33.08,50.55h-.24a5.16,5.16,0,1,0-9.74,0h-.24A5.16,5.16,0,1,0,27,58.82C26.41,61,25.66,63.28,24.85,64h6.24c-.81-.73-1.56-3-2.12-5.19a5.16,5.16,0,1,0,4.11-8.28ZM28.2,54s0,0,0,0Z"/><path class="cls-2" d="M173.6,241.58a5.88,5.88,0,0,1,0,.66,5.28,5.28,0,0,1-5.65,5.29c-3.5,0-5.52-2.29-5.52-5a6,6,0,0,1,3.08-5l3.23-2.07a4,4,0,0,0,2-2.29h-8.39v-2.29h11.45c-.05,2.67-1.11,4.71-3.88,6.5l-2.72,1.77a4.08,4.08,0,0,0-2.24,3.4,2.82,2.82,0,0,0,3.07,2.87c2.14,0,3.15-1.49,3.15-3.35,0-.23,0-.48,0-.73Z"/><path class="cls-3" d="M162.36,216.25h.24a5.16,5.16,0,1,0,9.74,0h.24a5.16,5.16,0,1,0-4.12-8.28c.56-2.18,1.31-4.46,2.12-5.19h-6.24c.81.73,1.56,3,2.12,5.19a5.16,5.16,0,1,0-4.11,8.28Zm4.87-3.45s0,0,0,0Z"/><path class="cls-4" d="M80.2,163.73s1.08,10,1.58,15.48S79,197.29,79,197.29s7.26,34.26,32.05,34.26S145,197.64,145,197.64s-12.56-13-8.48-30"/><path class="cls-5" d="M81.19,165.39c-.28.68,1.94,24.5,2.21,25.05s5.07,3.44,7.87,6.85a108.35,108.35,0,0,0,8.88,8.8s17.25-1.52,19.57,0,11-23.37,15.44-24.62c0,0,.84-9.57.85-13S81.19,165.39,81.19,165.39Z"/><path class="cls-6" d="M73.38,87.29l0-.33c-.11-.76-.83-1.09-1.49-1.3-3.44-1.08-5.89.73-7.63,3.55-1.15,1.88-3.26,6.17-1.08,8,2.66,2.27,6.27.3,7.9-2.07a15.11,15.11,0,0,0,2.49-9.84c-.18-2.14-4.49-1.63-5.59-.76a13.13,13.13,0,0,0-4.81,7.65c-.58,2.77-.33,5.58,2.94,6,3.63.52,5.63-2.32,7.14-5.16a11.1,11.1,0,0,0,1.09-9c-.56-1.71-4.45-1.23-5.48-.36a17.14,17.14,0,0,0-6.18,13.58c0,2.16,4.56,1.57,5.59.76a16.78,16.78,0,0,0,5.83-8.46c.77-2.63,1.34-5.72-1.9-6.64-1.26-.36-3.58-.4-4.41.9a19.7,19.7,0,0,0-2.88,14c.17,1,1.35,1.28,2.2,1.45,3.44.69,5.78-1,7.53-3.81,1.88-3,3.46-6.17,3.29-9.78-.11-2.29-5-1.64-5.89-.4a19.63,19.63,0,0,0-3.84,13.93c.24,2.32,4.88,1.62,5.89.4A22,22,0,0,0,79,87.59c.22-2.31-5-1.49-5.89-.4a17.61,17.61,0,0,0-3.8,10.61c-.06,2.1,5.15,1.85,5.89.4a50.4,50.4,0,0,0,3.66-9.3L73,88.51a64.23,64.23,0,0,0-1.61,9.63c-.18,2,5.25,1.93,5.89.4l4.58-10.9c.89-2.13-4.93-2.57-5.79-.8a40.74,40.74,0,0,0-2.95,8.41c-.5,2.13,5.07,1.5,5.89.4a45.18,45.18,0,0,0,4.85-8.15c1.11-2.4-4.55-1.8-5.48-1.16a9.76,9.76,0,0,0-4.14,6.55c-.37,2,4.75,1.55,5.59.76a51.75,51.75,0,0,0,5.75-6.43c1.24-1.64-4.4-2.36-5.48-1.16a29.94,29.94,0,0,0-5.9,9.54c-.85,2.26,4.49,2.22,5.48,1.16a40.36,40.36,0,0,0,6.21-8.64c1.15-2.17-4.71-2.08-5.79-.8a50.69,50.69,0,0,0-5.77,8.47c-1.17,2.15,4.7,2.09,5.79.8a28.63,28.63,0,0,0,5.25-9.35c.84-2.48-4.44-1.91-5.48-1.16a9.71,9.71,0,0,0-3.19,3.83c-1,2.07,4.83,2.49,5.79.8l4.2-7.45c1.09-1.93-3.59-1.94-4.41-1.69a9.65,9.65,0,0,0-5,3.32C76,86.4,81.62,87.34,82.74,86a32.54,32.54,0,0,0,6.08-10.11c.76-2.05-3.38-2-4.41-1.69A13.33,13.33,0,0,0,76,80.6c-1.24,2.2,4.55,1.89,5.48,1.16a17.45,17.45,0,0,0,5.12-6.47c1.08-2.35-4.53-1.89-5.48-1.16q-4.72,3.64-9.48,7.24l5.59.76a8.52,8.52,0,0,1,1.9-5.69l-5.79-.8L70.41,82.3c-1.06,2.41,4.53,1.84,5.48,1.16a27.07,27.07,0,0,0,5.36-5.13l-5.79-.8L73.4,82.9c-.86,2.23,4.85,2.43,5.79.8l3.16-5.53-5.79-.8a19.41,19.41,0,0,1-2.43,5.49l5.89.4a19,19,0,0,1,1.82-6.09l-5.89-.4a58.81,58.81,0,0,1-3,9.68l5.89.4A36.28,36.28,0,0,1,81,77.93l-5.89-.4a17.77,17.77,0,0,1-1.27,6.91c-.86,2.16,5,2.57,5.79.8l2.28-4.92-5.89-.4a10.26,10.26,0,0,0,1.07,6.59c.8,1.55,4.36,1.43,5.48.36A8.32,8.32,0,0,0,85,82.67c.31-1.2-2.48-1.47-3-1.5a11.53,11.53,0,0,0-3.59.4l4.41,1.69.56-1.49c.82-2.18-5.07-2.63-5.79-.8l-1.71,4.39,5.89.4a5.68,5.68,0,0,1,.28-4.15l-5.89-.4a9.91,9.91,0,0,1-4,7.51l5.48.36a6.43,6.43,0,0,1,1.7-7l-5.59-.76c.08,2.49-1.16,5.1-3.71,5.82l4.51,1.3a7.16,7.16,0,0,1,0-2.37L75,85q1.4-1.12-.37-.83l-.88-1.06-.13.42,2.12-.44-.64,0L78,85a13.23,13.23,0,0,1,1.59-2.93c.32-.43,1.47-2.05,2-2.13l-2.31-.15-.37,0c.14,2.08,5.12,1.92,5.89.4l1.88-3.69-5.79-.8A4.8,4.8,0,0,0,80.8,79c.48,1.67,5.16,1.45,5.79,0a9.76,9.76,0,0,0,.86-3.7c.07-2-5.43-2.05-5.89-.4a9.48,9.48,0,0,0-.4,3.74c.2,1.91,4,1.7,5.12,1.06,2.62-1.43,4.29-4.08,3.5-7.11-.46-1.79-3.8-1.87-5.12-1.06C82.36,73,80.92,75,81.19,77.83c.19,2,4.59,1.87,5.59.76,2.83-3.14-.11-6-3.62-6.19-3.11-.13-7.26,2.7-3.95,5.68a4.6,4.6,0,0,0,5.18,0,7.5,7.5,0,0,0,1.28-10.31c-1.1-1.43-3.52-1.31-5-.66-2.82,1.23-4.29,4.74-2.29,7.35,1,1.31,3.65,1.49,5,.66,2.13-1.29,3.46-3.11,3.27-5.69-.05-.71-.87-1.16-1.49-1.3-3.51-.75-8.61.15-8.79,4.61-.08,2,4.12,1.58,5.12,1.06,1.68-.87,2.55-2.38,1.7-4.2-.64-1.35-3.32-1.21-4.41-.9a7.58,7.58,0,0,0-5.2,4.3C72.72,75,77,75,78,74.7l1.7-.49-4.41-1.69L72.2,76.94l5.79.8a9.13,9.13,0,0,0,.55-4.55l-5.89.4.72,2.27c.49,1.54,5.34,1.58,5.79,0a2.68,2.68,0,0,0-.23-2.49c-.93-1.54-4.87-1.59-5.79,0a6.21,6.21,0,0,0-.85,4.06c.24,2,5.2,2.06,5.89.4,1.44-3.46-5.16-3.56-6.9-2.07-1.29,1.1-1.77,3.15-2.69,4.55a19.32,19.32,0,0,1-4.7,4.85l5.59.76,1.15-8.28c.3-2.18-5.08-1.6-5.89-.4A60.2,60.2,0,0,0,58.6,88.81c-.87,2.18,4.91,2.52,5.79.8a25.33,25.33,0,0,0,2.55-8.29c.26-2-5.19-1.86-5.89-.4a13.17,13.17,0,0,0-1.36,6c0,2,4,1.48,5.12,1.06a3.78,3.78,0,0,0,2.6-3.35c.19-2-4.71-1.66-5.59-.76a12,12,0,0,0-3.2,5.87c-.43,1.85,4.31,1.56,5.12,1.06a24.67,24.67,0,0,0,4.11-3.07l-5.48-1.16-1.23,3.88c-.71,2.26,5.05,2.59,5.79.8a18.17,18.17,0,0,1,2.5-4.34l-5.79-.8L61,95.2c-.68,2.38,4.83,2.38,5.79.8A18.23,18.23,0,0,0,69,90.17c.38-1.84-5.3-2-5.89-.4a26.06,26.06,0,0,0-1.41,5.75c-.28,2.23,5.06,1.55,5.89.4a38.22,38.22,0,0,0,3.77-6.45l-5.79-.8A44.82,44.82,0,0,0,64,95.31c-.34,2.1,5.1,1.68,5.89.4a51.86,51.86,0,0,0,3.34-6.35c1-2.32-4.74-2.1-5.79-.8l-2.45,3,5.89.4A42.08,42.08,0,0,1,73,82.51c.72-2-3.35-2-4.41-1.69a6.82,6.82,0,0,0-2.58,1.4l5.48,1.16,3.94-5.32c1.2-1.62-4.55-2.43-5.79-.8l-6.42,8.48,5.79.8a73.07,73.07,0,0,0,4.45-7.75L67.74,78,65.8,82.62c-1,2.32,4.49,2,5.48,1.16a8.13,8.13,0,0,0,2.39-3.4c.87-2.34-4.47-2.09-5.48-1.16l-3,2.76,5.18,1.51a25.65,25.65,0,0,0,4.8-6c1.12-1.93-3.61-1.92-4.41-1.69l-3.91,1.12,4.41,1.69a10.2,10.2,0,0,1,4.48-3.35l-4.41-1.69-.82,2.33c-.8,2.3,4,1.93,5,1.46l7.21-3.24-5-1.46a12.41,12.41,0,0,1-2.48,4.7c-1.42,1.71,4.18,1.95,5,1.46A53,53,0,0,0,85.89,75l-5.59-.76c.39,3.22-3,5.68-1.16,8.93.82,1.45,3.77,1.36,5,.66a3.84,3.84,0,0,1,3-.57l-2.1-1.85-5.51,9.37c-1.18,2,4.67,2.2,5.79.8l4.56-5.74-5.79-.8-1.76,2.33c-.72,1,1.19,1.65,1.74,1.77a4.55,4.55,0,0,0,3.75-.61A38,38,0,0,0,93,83c1.33-1.76-3.73-1.91-4.41-1.69l-4.87,1.52,4.41,1.69a37.85,37.85,0,0,0,4.08-8.62c.69-2.1-3.32-1.94-4.41-1.69l-2.86.66,4.41,1.69a63.35,63.35,0,0,1,3.91-7.3c1.2-1.93-4.65-2.23-5.79-.8l-2.72,3.44,5.79.8,2-2.76-5.79-.8-1.42,3.73c-.84,2.21,4.51,2.3,5.48,1.16l1.48-1.75L86.82,71.1a21.56,21.56,0,0,0-2.35,5.54c-.54,2,3.23,2.11,4.41,1.69a12.07,12.07,0,0,0,3.69-2l-5.48-1.16-2.82,3.47C83,80.15,88.62,81.1,89.75,79.8a5.77,5.77,0,0,1,1.86-1.53L86.48,77.2l-.66,2.92c-.38,1.7,3.78,1.53,4.51,1.3A24.3,24.3,0,0,0,95.78,79l-5-.66a.84.84,0,0,1-.52,1.08l5.48,1.16a8.83,8.83,0,0,0,1.57-5.44c-.06-1.91-4-1.68-5.12-1.06L88.42,76.2l5,1.46a19.05,19.05,0,0,1,2.42-3.41c1.92-2.14-3.86-2.63-5.18-1.51L87.9,75.09l5.48,1.16a7.36,7.36,0,0,1,1.27-1.84l-5.48-1.16-2.05,3.13c-1.26,1.92,4.16,2,5,1.46a7.17,7.17,0,0,1,2.28-1L90,75.15,88.06,79.5c-1,2.23,4.09,1.9,5,1.46l1.38-.65-5-1.46L85.08,84.3c-1.31,1.64,4.39,2.21,5.48,1.16L92.09,84c.69-.67.32-1.44-.47-1.82l-.93-.44a5,5,0,0,0-4.24,0c-1,.57-1.16,1.57,0,2.12l.93.44-.47-1.82-1.52,1.47,5.48,1.16,4.35-5.45c.65-.81-.88-1.54-1.38-1.69a5.22,5.22,0,0,0-3.64.23l-1.38.65,5,1.46L95.79,76c.91-2-3.48-1.92-4.41-1.69a11.55,11.55,0,0,0-3.5,1.47l5,1.46L95,74c1.23-1.87-4.47-2.22-5.48-1.16a10.9,10.9,0,0,0-1.88,2.56c-1.15,2.22,4.53,2,5.48,1.16l2.77-2.35-5.18-1.51a23.3,23.3,0,0,0-3,4.12c-1.17,2.06,4.15,2,5,1.46l3.76-2.17L91.3,75.09a7.32,7.32,0,0,1-1.36,4.64c-.67,1,1.15,1.64,1.74,1.77a4.82,4.82,0,0,0,3.75-.61,2.79,2.79,0,0,0,1.13-3.4c-.42-1.54-4.06-1.25-5-.66a19,19,0,0,1-4.23,2l4.51,1.3.66-2.92c.43-1.9-4.31-1.48-5.12-1.06a9,9,0,0,0-2.8,2.14L90,79.44,92.87,76c.76-.93-1.23-1.66-1.74-1.77a4.64,4.64,0,0,0-3.75.61,3.92,3.92,0,0,1-1.54.92l4.41,1.69a21.56,21.56,0,0,1,2.35-5.54c1.14-1.92-4.5-2.31-5.48-1.16l-1.48,1.75,5.48,1.16,1.42-3.73c.9-2.37-4.76-2.18-5.79-.8l-2,2.76c-.8,1.07,1.47,1.75,2.1,1.85a4,4,0,0,0,3.69-1l2.72-3.44-5.79-.8a63.35,63.35,0,0,0-3.91,7.3c-.93,2,3.5,1.9,4.41,1.69l2.86-.66-4.41-1.69A37.85,37.85,0,0,1,82.3,83.7c-1.19,1.87,3.65,1.93,4.41,1.69l4.87-1.52-4.41-1.69a33.12,33.12,0,0,1-4.52,4.87l5.48,1.16,1.76-2.33c.81-1.07-1.48-1.75-2.1-1.85a4,4,0,0,0-3.69,1l-4.56,5.74,5.79.8,5.51-9.37c.68-1.16-1.44-1.72-2.1-1.85a12.93,12.93,0,0,0-8.84,1.35l5,.66c-1.43-2.51,1.71-5.38,1.37-8.13-.26-2.14-4.44-1.65-5.59-.76a44.17,44.17,0,0,1-4.7,3.2l5,1.46a12.41,12.41,0,0,0,2.48-4.7c.66-2.32-3.88-2-5-1.46l-7.21,3.24,5,1.46.82-2.33c.7-2-3.34-2.09-4.41-1.69a15.61,15.61,0,0,0-7.23,5.15c-1.37,1.75,3.76,1.88,4.41,1.69l3.91-1.12-4.41-1.69A22.34,22.34,0,0,1,65.18,82c-2,1.82,3.78,2.8,5.18,1.51l3-2.76-5.48-1.16a6.17,6.17,0,0,1-1.79,2.68l5.48,1.16,1.94-4.63c.9-2.14-4.92-2.55-5.79-.8a73.07,73.07,0,0,1-4.45,7.75c-1.19,1.81,4.62,2.33,5.79.8l6.42-8.48-5.79-.8-3.94,5.32c-1.34,1.81,4.46,2.07,5.48,1.16l.42-.33-4.41-1.69A45.75,45.75,0,0,0,64.88,92c-.26,2.31,5,1.46,5.89.4l2.45-3-5.79-.8a51.86,51.86,0,0,1-3.34,6.35l5.89.4a39.38,39.38,0,0,1,1.41-5.86c.73-2.26-5-2.55-5.79-.8a38.22,38.22,0,0,1-3.77,6.45l5.89.4a22.29,22.29,0,0,1,1.2-4.95L63,90.17a15.85,15.85,0,0,1-2,5l5.79.8,2.62-9.09c.72-2.5-4.73-2.16-5.79-.8a18.17,18.17,0,0,0-2.5,4.34l5.79.8,1.23-3.88c.75-2.36-4.43-2.14-5.48-1.16a19.39,19.39,0,0,1-3.17,2.47l5.12,1.06A9.19,9.19,0,0,1,67,85.38l-5.59-.76a1.08,1.08,0,0,1-.85,1.23l5.12,1.06a11.25,11.25,0,0,1,1.15-5.21l-5.89-.4a22.8,22.8,0,0,1-2.33,7.49l5.79.8A60.2,60.2,0,0,1,70.52,78l-5.89-.4-1.15,8.28c-.3,2.17,4.72,1.41,5.59.76a22.56,22.56,0,0,0,4.36-4.26,20.09,20.09,0,0,0,1.77-2.7c.28-.52.68-2.09,1.23-2.4l-2.12.44.51,0-2.59-.74h.16l5.89.4a4.79,4.79,0,0,1,.64-3.26H73.13l.23.89h5.79l-.72-2.27c-.52-1.65-6.15-1.49-5.89.4a7.37,7.37,0,0,1-.34,3.75c-.85,2.36,4.78,2.25,5.79.8l3.07-4.43c1.27-1.83-3.71-1.9-4.41-1.69l-1.7.49,4.41,1.69a3.86,3.86,0,0,1,2.44-2.5l-4.41-.9a.93.93,0,0,1-.15,1.28l5.12,1.06a2,2,0,0,1,.36-1.39q1.34-1-.6-.63l-1.49-1.3A3.63,3.63,0,0,1,79.13,73l5,.66c-1.05-1.37-1-3.66.75-4.43l-5-.66a5.75,5.75,0,0,1-.67,8h5.18c-1-.92.78-1.65-1.33-1.07s-.36.36-1.46,1.59l5.59.76a4.13,4.13,0,0,1,1.71-4.14l-5.12-1.06c.49,1.88.1,4-1.74,5l5.12,1.06a7.29,7.29,0,0,1,.18-2.94l-5.89-.4a7.55,7.55,0,0,1-.64,2.9h5.79a2.43,2.43,0,0,1,.08-1.71c.8-2.24-4.92-2.5-5.79-.8L79,79.43l5.89.4c-.22-3.12-4.65-3.25-6.89-2.31-2.73,1.15-4.75,4-5.83,6.68-.61,1.48,2,1.92,2.89,1.9,2.12-.06,4.34-.59,4.65-3,.06-.46-.55-.9-.88-1.06-5-2.52-11,.51-10.26,6.39.21,1.76,3.35,1.63,4.51,1.3,3.87-1.1,6.82-4.24,6.68-8.41-.07-2.09-4.58-1.68-5.59-.76a8.33,8.33,0,0,0-2.3,9.34c.64,1.74,4.38,1.2,5.48.36a12.05,12.05,0,0,0,4.85-9c.13-2-5.2-1.89-5.89-.4a6.83,6.83,0,0,0-.5,4.94c.48,1.81,5.17,2.25,5.89.4l1.71-4.39L77.62,81l-.56,1.49c-.78,2.06,3.39,2,4.41,1.69H82l-3-1.5a5.48,5.48,0,0,1-1.61,2.68l5.48.36a8.73,8.73,0,0,1-.85-5.79c.33-2-5.2-1.89-5.89-.4l-2.28,4.92,5.79.8a20,20,0,0,0,1.48-7.7c0-2-5.27-2-5.89-.4a39.67,39.67,0,0,0-2.47,9.72c-.24,2,5.26,1.94,5.89.4a63.68,63.68,0,0,0,3.26-10.48c.42-1.91-5.17-1.88-5.89-.4a21.81,21.81,0,0,0-2,6.89c-.27,2.16,5.09,1.65,5.89.4a19.41,19.41,0,0,0,2.43-5.49c.64-2.37-4.86-2.43-5.79-.8L73.4,82.9l5.79.8,2.07-5.37c.93-2.41-4.74-2.09-5.79-.8a23.69,23.69,0,0,1-4.75,4.41l5.48,1.16,2.94-6.67c1-2.29-4.74-2.16-5.79-.8a10.1,10.1,0,0,0-2.11,6.49c0,2.18,4.56,1.54,5.59.76q4.76-3.59,9.48-7.24l-5.48-1.16a15.25,15.25,0,0,1-4.52,5.75l5.48,1.16a9,9,0,0,1,5.66-4.56L83,75.14a30.34,30.34,0,0,1-5.48,9.39L83,85.68a4.34,4.34,0,0,1,2.25-1.53l-4.41-1.69-4.2,7.45,5.79.8a7.7,7.7,0,0,1,2.58-3.11l-5.48-1.16a28.63,28.63,0,0,1-5.25,9.35l5.79.8a50.69,50.69,0,0,1,5.77-8.47l-5.79-.8a36.81,36.81,0,0,1-5.6,7.92L80,96.4a27.69,27.69,0,0,1,5.3-8.83l-5.48-1.16a46,46,0,0,1-5.15,5.72l5.59.76a7.52,7.52,0,0,1,3.32-5L78.08,86.7a45.18,45.18,0,0,1-4.85,8.15l5.89.4a37,37,0,0,1,2.73-7.62l-5.79-.8-4.58,10.9,5.89.4A64.23,64.23,0,0,1,79,88.51c.43-1.74-5.4-2.13-5.89-.4a50.4,50.4,0,0,1-3.66,9.3l5.89.4A16.14,16.14,0,0,1,78.91,88L73,87.59a20.45,20.45,0,0,1-4.73,11.32l5.89.4A18.26,18.26,0,0,1,77.8,86.18l-5.89-.4a11.9,11.9,0,0,1-1.38,6c-.66,1.34-2,4.64-3.5,5l2.31-.15-.66-.13,2.2,1.45a18.33,18.33,0,0,1,2.66-13.22l-4.41.9c-.68-.19-.55,1.73-.63,2.16a14,14,0,0,1-1.19,3.61A14.72,14.72,0,0,1,63,96.61l5.59.76A15.07,15.07,0,0,1,74,85.3l-5.48-.36a8.46,8.46,0,0,1-.4,5.94A17.14,17.14,0,0,1,67,93c-.27.46-1.18,2.35-1.67,2.51l3.64.23c-.69-.29.3-4.23.58-5a11,11,0,0,1,3.55-4.72l-5.59-.76A13.75,13.75,0,0,1,67,91c-.33,1-1.39,4-2.33,4.36h3c.69.22,1.2-3,1.45-3.61A13.93,13.93,0,0,1,70,90c.12-.2,1.21-1.8.75-1.72l-2.31-.15.37.12L67.33,87l0,.33c.31,2.16,6.28,1.93,6,0Z"/><path class="cls-6" d="M96.41,76.44q-3.31-1.68-2.86.19a1.22,1.22,0,0,1-.38,1.29l1.83.84a3.79,3.79,0,0,1,.39-1c0-.08,1.12-1.55,1.21-1.43q-1.66-.52-.83.37a.89.89,0,0,1,.26,1l-.3.65q2.69.53,2-.87c0-.55-.22-1.18-.14-1.79a5.88,5.88,0,0,1,2.72-4.15l-5.59-.76q-.12,1.35,1.78,1a2,2,0,0,1-.53-1,4.53,4.53,0,0,1,0-2.29c.26-1.46-3.14-1.57-3.8-1.45-2,.4-4.62-1.19-6.77-1.26a8.42,8.42,0,0,0-5.76,1.72l5.18,1.51a6.85,6.85,0,0,1,3.42-1.71L85.93,64.6l-6.15,1.7,4.1,2.05c1.76-2.06,4.18-1.47,6.63-1.34a15.1,15.1,0,0,0,7.84-1.37l-4.71-1.82a5.32,5.32,0,0,1-2.78,1.13L93,67.51c1.35-.77,2.66-2.06,3.46-.13l5.79-.8-2.5-3.32L96,65.11c.41.08.62,1.55.6,2.06l5.89-.4a8.08,8.08,0,0,0-2-2.67c-1.14-1-4.06-1.13-5.18,0a5.68,5.68,0,0,0-1.81,5c.31,2.11,5,1.9,5.89.4,2.77-4.64-9.57-5.65-7.54-.16.56,1.52,4,1.28,5,.66a3.21,3.21,0,0,0,1.85-2.42h-6c-.47,2.72.67,5.23,3.63,5.44a5.54,5.54,0,0,0,3.57-.76c1.09-.77,1.2-2,2-3L96,68.92a5.06,5.06,0,0,0,1.2,3.88c1.2,1.46,4.63,1.63,5.79,0a6.19,6.19,0,0,0,1.15-4.75c-.28-1.87-5.41-2.18-5.89-.4A2.53,2.53,0,0,0,99.84,71c1.15.56,3.73.8,4.71-.3a2.82,2.82,0,0,0-.09-4.29l-4.1,2.05,2,.76,1.51-2.8A6.06,6.06,0,0,1,102,65.9l-.72,2.74.6.34c.93.53,5.31.85,5.12-1.06-.22-2.2-2.88-2.24-4.59-2.11l1.6,2.89.94.07-2.1-1.85-.08.18,2.89-1.1h-.26l2.89,1.1q-3.06.38-2,1.66a1.64,1.64,0,0,1,.39,1.1l5.59-.76a4.28,4.28,0,0,1-1.08-2l-5.12,1.06.69.49,5-1.46a15.86,15.86,0,0,0-8.13-2c-1.86,0-4.61,1.88-1.51,2.8A12.42,12.42,0,0,1,110,75.25l5.79-.8a24.69,24.69,0,0,1-2-3.83l-5.48,1.16a18.27,18.27,0,0,1,2,2.18c.86,1.13,6.07,1.88,5.89-.4A5.45,5.45,0,0,0,115,70.45c-.83-1.08-6.33-1.78-5.89.4a15,15,0,0,0,1.07,3.39c.83,1.81,6.73,1.27,5.79-.8a11,11,0,0,1-.86-2.59l-5.89.4a3.62,3.62,0,0,1,.93,2.31l5.89-.4a24.78,24.78,0,0,0-2.56-2.89c-1-1-6.41-1.1-5.48,1.16a24.69,24.69,0,0,0,2,3.83c1,1.55,6.75,1.41,5.79-.8a16.31,16.31,0,0,0-10.59-9l-1.51,2.8a7.22,7.22,0,0,1,3.88,1.09c.83.47,6.42.32,5-1.46A5.69,5.69,0,0,0,110.33,66c-.77-.36-5.61-.83-5.12,1.06a7.77,7.77,0,0,0,1.89,3.54c.85,1,5.85,1.22,5.59-.76a5.19,5.19,0,0,0-4.1-4.35c-1.93-.51-5.08-.56-6.24,1.39a.8.8,0,0,0,0,.8c.82,1.11,2,1.25,3.29,1.31.82,0,2.48-.2,2.89-1.1l.08-.18c.55-1.2-1.32-1.7-2.1-1.85a13.18,13.18,0,0,0-4.13-.07c-.87.11-2.58.66-2.1,1.85s2.73,1.12,3.69,1l.42,0L101,68l0-.06,5.12-1.06a10.18,10.18,0,0,0-6.44-1.11c-2,.23-3,1.94-.72,2.74a17.92,17.92,0,0,0,5,.88c2.08.12,4.37-1.73,1.51-2.8l-2-.76c-1-.38-6,.13-4.1,2.05a1,1,0,0,1,.09,1.26l4.71-.3-.07-.38-5.89-.4a5,5,0,0,1-.93,4H103a3.81,3.81,0,0,1-1-3.09c.19-2.31-5-1.5-5.89-.4-.56.71-.64,1.68-1.37,2.25l1.79-.69-.58,0,3.39.69c-1-.7-.8-2.17-.62-3.21.33-1.89-5.56-2.14-6,0l-.09.29,5,.66.25-.61-1.79.69.5-.09-2.31-.15-.68.32,5.89.4a3.84,3.84,0,0,1,1-3.5H95.31a5.59,5.59,0,0,1,1.43,2c.73,1.55,5.81,1.66,5.89-.4.12-3-2.37-4.47-5-5-.62-.11-4.87.28-3.69,1.85l2.5,3.32c1,1.35,6.76,1.55,5.79-.8-2.22-5.33-9.78-3.31-13.49-1.19-2.28,1.3.72,2.63,2.12,2.56a14.23,14.23,0,0,0,8-2.61c1-.73-.07-1.63-.77-1.94a5,5,0,0,0-3.94.12c-2.51,1.28-6,.15-8.75.41-2.46.23-5,1-6.66,2.91-1.8,2.11,3,2.35,4.1,2.05L89,67.19c.93-.26,1.81-.9,1.23-1.87s-2.63-1-3.54-.87a13.87,13.87,0,0,0-7,3.09c-1.05.89.23,1.77,1.08,2.05a4.73,4.73,0,0,0,4.1-.54c.85-.69,3.28.63,4.3.84a11.64,11.64,0,0,0,4.65.07L90,68.51a4.93,4.93,0,0,0,4.45,6.08c2.37.3,6.63-.61,6.32-3.78-.21-2.21-4.45-1.54-5.59-.76-2.48,1.71-4.36,5-3.28,8.06,1,2.81,4.33,3.6,7,2.89,2.42-.64,4.21-3.27,2.5-5.53S95.49,73,93,74c-1.77.72-4.78,3.38-3.79,5.62,1.19,2.66,6.37,1.55,8.21.5,2.22-1.27,3.18-4.23.75-5.83-2.05-1.36-6.43-1.19-7.51,1.36-.89,2.11,5,2.63,5.79.8Z"/><path class="cls-6" d="M67.47,94.5c-.62,5.65-.92,11.48-3.3,16.72l5.89.4a57.34,57.34,0,0,1,2.65-15.71c.72-2.25-5.09-2.61-5.79-.8C65.07,100,64.67,105.3,62.46,110l5.89.4c-.81-4.67,1-9.94,1.93-14.52.36-1.86-5.3-2-5.89-.4q-2.77,7.6-5.18,15.32l5.89.4q1.82-8.3,4.21-16.45c.67-2.28-5.2-2.63-5.79-.8l-4.45,13.86,5.89.4q1.31-6.92,3.24-13.68c.67-2.32-4.93-2.5-5.79-.8a76.9,76.9,0,0,0-5,13.86l5.89.4,4-16c.44-1.78-5.27-2-5.89-.4q-2.92,7.68-5.37,15.52l5.89.4a138.91,138.91,0,0,1,3.44-14c.69-2.29-5-2.53-5.79-.8q-2.73,5.74-4.89,11.71c-.79,2.2,5.12,2.64,5.79.8q2.16-6,4.89-11.71l-5.79-.8A147,147,0,0,0,56,107.55c-.35,1.83,5.37,2.07,5.89.4q2.45-7.84,5.37-15.52L61.32,92l-4,16c-.43,1.74,5.4,2.13,5.89.4a76.9,76.9,0,0,1,5-13.86l-5.79-.8Q60.38,101,59,108.27c-.35,1.84,5.36,2.06,5.89.4l4.45-13.86L63.54,94q-2.52,8.54-4.43,17.24c-.39,1.79,5.37,2.09,5.89.4q2.41-7.72,5.18-15.32l-5.89-.4c-.89,4.58-2.74,9.84-1.93,14.52.34,2,5.12,2.07,5.89.4,2.21-4.76,2.61-10.05,4.47-14.93l-5.79-.8a60.25,60.25,0,0,0-2.87,16.51c-.06,2.05,5.2,1.91,5.89.4,2.5-5.5,2.87-11.6,3.52-17.52.21-2-5.76-2.17-6,0Z"/><path class="cls-6" d="M68,98.56a67.19,67.19,0,0,1-1.82,13.36c-.43,1.77,5.47,2.17,6,0a120.69,120.69,0,0,0,2.65-14.67h-6l-.64,12.49c-.11,2.07,5.62,2.06,6,0l2-11h-6a45.83,45.83,0,0,1-.66,9.49c-.33,1.88,5.6,2.17,6,0L77,100.19H71c0,1.9-.19,3.79-.43,5.68h6l.31-4.65h-6a18.4,18.4,0,0,1-.42,4.45h6l.4-5.49h-6A61.4,61.4,0,0,1,71,107h6l.22-8.39h-6a20.1,20.1,0,0,1,0,5.91h6a60.13,60.13,0,0,1,1-7.93h-6a35.49,35.49,0,0,1-.27,6.84h6a28.7,28.7,0,0,1,.67-5.84h-6l-2,11.13h6a19.46,19.46,0,0,1,.76-4.48l-5.89-.4L70.1,113.91c-.27,2,5.6,2.12,6,0l2-10.74h-6L71.33,112c-.18,2,5.71,2.13,6,0l.76-5.61c.27-2-5.54-2.07-6,0l-1.22,5.47h6a34.4,34.4,0,0,1,.47-5.08h-6a94.14,94.14,0,0,1-2,10.08c-.46,1.83,5.19,1.94,5.89.4a22.65,22.65,0,0,0,1.53-4.66c.4-1.84-5.45-2.11-6,0l-1.22,4.65c-.51,1.93,5.1,1.75,5.89.4a13.84,13.84,0,0,0,1.61-4.31h-6l-.9,5.17c-.33,1.9,5.28,2,5.89.4a26.45,26.45,0,0,0,1.21-4.16c.38-1.83-5.32-2-5.89-.4L70,118.27l5.89.4,1.35-5.9c.41-1.81-5.28-2-5.89-.4l-2.41,6.43,5.89.4.25-6c.08-2-5.25-1.95-5.89-.4l-3.53,8.5,5.89.4a73.27,73.27,0,0,1,1.32-10.45c.36-1.82-5.37-2.08-5.89-.4l-3.22,10.41,5.89.4,1.43-9.75c.28-1.9-5.36-2-5.89-.4l-4,12.43,5.89.4,1.09-9.62c.22-2-5.3-2-5.89-.4l-4.68,12.39,5.89.4,2.12-13.47c.3-1.92-5.28-2-5.89-.4A51.1,51.1,0,0,0,56.75,124c-.3,1.91,5.62,2.16,6,0q1.15-6.55,2.84-13h-6l-1.72,10.05c-.33,2,5.2,1.89,5.89.4l3.62-7.84-5.89-.4-.67,5.19c-.26,2,5.56,2.08,6,0l1.68-8c.38-1.79-5.42-2.11-5.89-.4l-1.78,6.47,5.89.4L67.91,111c.36-1.81-5.43-2.1-5.89-.4A52.25,52.25,0,0,1,56.88,123l5.89.4A32.66,32.66,0,0,1,63.37,110c.44-1.75-5.31-2.08-5.89-.4a103.08,103.08,0,0,0-3.31,11.69c-.39,1.78,5.41,2.11,5.89.4q1.83-6.55,3.12-13.22c.35-1.82-5.42-2.09-5.89-.4a71.2,71.2,0,0,1-3.09,8.87l5.89.4q.16-4.69.73-9.35c.24-2-5.26-1.94-5.89-.4a104,104,0,0,0-3.52,10l5.89.4,1.87-10.32c.33-1.85-5.38-2.06-5.89-.4q-1.6,5.21-2.76,10.53c-.39,1.81,5.51,2.17,6,0L58.9,107c.4-1.8-5.49-2.17-6,0l-2.24,9.55h6l1.5-11.2c.26-2-5.59-2.11-6,0l-2.53,13.17h6q.15-5.13-.07-10.25c-.09-2-5.39-2.08-5.89-.4q-1.31,4.36-2.93,8.6l5.89.4a85.13,85.13,0,0,1,.74-11.48c.26-2-5.6-2.12-6,0l-1.47,7.81h6c.22-2.47.55-4.92,1-7.37.34-1.87-5.58-2.16-6,0l-1.25,6.37h6l.54-3.64c.28-1.89-5.36-2-5.89-.4l-2.58,7.94,5.89.4c-1.18-7.19,2.85-13.47,6.71-19.18l-5.89-.4a68.79,68.79,0,0,1-1.47,10c-.4,1.79,5.36,2.09,5.89.4A62.4,62.4,0,0,1,58.63,98l-5.89-.4L51,104.57c-.46,1.8,5.22,2,5.89.4L60.8,95.8,55,95l-2.52,7.17,5.79.8,3.38-9.83c.78-2.25-4.93-2.52-5.79-.8l-2.49,5,5.79.8a82.94,82.94,0,0,1,4-8.89c1-1.95-4.84-2.6-5.79-.8a82.94,82.94,0,0,0-4,8.89c-.84,2.19,4.93,2.53,5.79.8l2.49-5-5.79-.8-3.38,9.83c-.76,2.22,5.14,2.64,5.79.8L60.8,95.8c.78-2.22-5-2.59-5.79-.8l-3.93,9.18,5.89.4,1.77-6.94c.47-1.87-5.15-1.87-5.89-.4a62.4,62.4,0,0,0-3.79,9.29l5.89.4a68.79,68.79,0,0,0,1.47-10c.16-2.22-5.06-1.63-5.89-.4-4,5.89-8.14,12.55-6.92,20,.31,1.88,5.32,2.17,5.89.4L52.09,109l-5.89-.4-.54,3.64c-.29,1.94,5.58,2.13,6,0l1.25-6.37h-6c-.44,2.44-.77,4.89-1,7.37-.18,2,5.61,2.08,6,0l1.47-7.81h-6a85.13,85.13,0,0,0-.74,11.48c0,2,5.28,2,5.89.4q1.62-4.25,2.93-8.6l-5.89-.4q.22,5.13.07,10.25c-.06,2.1,5.61,2,6,0l2.53-13.17h-6l-1.5,11.2c-.27,2,5.52,2.05,6,0L58.9,107h-6l-2.4,10.73h6q1.07-4.92,2.55-9.73l-5.89-.4-1.87,10.32c-.33,1.84,5.4,2.07,5.89.4a104,104,0,0,1,3.52-10l-5.89-.4q-.57,4.66-.73,9.35c-.07,2,5.24,1.94,5.89.4a71.2,71.2,0,0,0,3.09-8.87l-5.89-.4c-.8,4.18-1.76,8.32-2.91,12.42l5.89.4a96,96,0,0,1,3.09-10.89l-5.89-.4a32.66,32.66,0,0,0-.59,13.43c.34,2.08,5,1.95,5.89.4a52.25,52.25,0,0,0,5.14-12.39l-5.89-.4-1.18,5.93c-.36,1.81,5.43,2.1,5.89.4l1.78-6.47-5.89-.4-1.68,8h6l.67-5.19c.26-2-5.21-1.88-5.89-.4L58,120.69l5.89.4L65.59,111c.33-2-5.46-2-6,0q-1.69,6.43-2.84,13h6a47.19,47.19,0,0,1,2.71-10l-5.89-.4-2.12,13.47c-.3,1.91,5.29,2,5.89.4L68,115.1l-5.89-.4L61,124.32c-.22,1.93,5.36,2,5.89.4l4-12.43-5.89-.4-1.43,9.75c-.28,1.89,5.38,2,5.89.4l3.22-10.41-5.89-.4a73.27,73.27,0,0,0-1.32,10.45c-.11,2,5.25,1.94,5.89.4l3.53-8.5-5.89-.4-.25,6c-.08,2,5.3,2,5.89.4l2.41-6.43-5.89-.4-1.35,5.9c-.41,1.8,5.31,2.06,5.89.4l1.39-3.95-5.89-.4a21.35,21.35,0,0,1-1,3.36l5.89.4.9-5.17c.33-1.89-5.56-2.14-6,0a11.2,11.2,0,0,1-1.4,3.51l5.89.4,1.22-4.65h-6a18.64,18.64,0,0,1-1.32,3.86l5.89.4a94.14,94.14,0,0,0,2-10.08c.27-1.93-5.64-2.15-6,0a34.4,34.4,0,0,0-.47,5.08c0,2.14,5.56,2,6,0l1.22-5.47h-6L71.33,112h6l.81-8.81c.19-2-5.6-2.08-6,0l-2,10.74h6l1.39-10.07c.26-1.9-5.4-2-5.89-.4a23,23,0,0,0-1,5.28c-.13,2.06,5.63,2.07,6,0l2-11.13c.34-1.89-5.53-2.13-6,0a28.7,28.7,0,0,0-.67,5.84c0,2.08,5.72,2.09,6,0a35.49,35.49,0,0,0,.27-6.84c-.12-2.15-5.62-2-6,0a60.13,60.13,0,0,0-1,7.93c-.11,2.05,5.69,2.09,6,0a20.1,20.1,0,0,0,0-5.91c-.29-2.06-5.94-2.12-6,0L71,107c-.05,2.06,5.93,2.12,6,0a61.4,61.4,0,0,0-.16-6.83c-.17-2.09-5.85-2.1-6,0l-.4,5.49c-.15,2.08,5.56,2,6,0a18.4,18.4,0,0,0,.42-4.45c-.05-2.08-5.86-2.1-6,0l-.31,4.65c-.13,2,5.74,2.12,6,0,.24-1.89.38-3.77.43-5.68.05-2.1-5.62-2-6,0l-1.49,8.08h6a45.83,45.83,0,0,0,.66-9.49c-.07-2.14-5.63-2-6,0l-2,11h6l.64-12.49c.1-2-5.75-2.12-6,0a120.69,120.69,0,0,1-2.65,14.67h6A67.19,67.19,0,0,0,74,98.56c.07-2-5.92-2.13-6,0Z"/><path class="cls-6" d="M57.28,99.22c.76-4.89-9.72-4.84-8.86,0,.33,1.86,3.88,1.77,5.12,1.06,3-1.73,2-4.8-1.1-5.58-2.59-.64-7.07.26-6.69,3.78.31,2.85,5.1,3.49,6.87,1.67a3.63,3.63,0,0,0-1.93-6.23c-2.82-.44-6.12,1.09-5.47,4.42.57,2.88,5.21,3,7,1.28,2.7-2.59.19-5.29-2.79-5.29-3.82,0-5.51,2.7-3.27,5.87l.3-1.16a2.13,2.13,0,0,0-.87,2.3c.56,2.18,4.76,1.82,5.89.4a1.69,1.69,0,0,0,.06-2.24c-1-1.55-4.15-1.4-5.48-.36A2,2,0,0,0,46,102.5L51.19,101c-2-1.71-3.29-7-.14-8.45L48.93,93q-.74-.13.38.21a1.51,1.51,0,0,1,1,1.08l2.1-1.85a6.55,6.55,0,0,0-5.2,3l5.79.8a8.53,8.53,0,0,0,.5-4.91c-.38-2-4.44-1.87-5.59-.76a5.85,5.85,0,0,0-1.84,3.42c-.39,2.08,5.1,1.67,5.89.4a10.08,10.08,0,0,0,1-8.79c-.52-1.62-5.2-1.51-5.79,0a3.8,3.8,0,0,0,.43,4c.85,1.15,6.09,1.86,5.89-.4a5.89,5.89,0,0,0-1-3c-.62-.88-1.78-1.5-1.77-2.69,0-2.53,3.94-4.1,6-3.91l-1.32-2.51a28.69,28.69,0,0,0-8.21,6.19l5.59.76a15.07,15.07,0,0,1,1.09-2.89c1-2-4.87-2.57-5.79-.8a11.47,11.47,0,0,0-1.32,5c-.1,2.35,5,1.49,5.89.4l4.49-5.47-5.89-.4-1.62,6.38c-.53,2.08,5.07,1.53,5.89.4q2.3-3.18,4.33-6.53l-5.89-.4A42.34,42.34,0,0,1,51,88.18l5.79.8a45.09,45.09,0,0,1,3.85-7.69l-5.89-.4Q53.11,87.8,51,94.57c-.71,2.28,5,2.53,5.79.8A59.48,59.48,0,0,0,60.74,84.2c.44-1.78-5.27-2-5.89-.4a105.48,105.48,0,0,0-3.74,12c-.44,1.77,5.28,2.05,5.89.4L60,88l-5.89-.4-1,5.8c-.35,1.94,5.21,1.9,5.89.4l6.69-14.58c1-2.08-4.87-2.53-5.79-.8a25.19,25.19,0,0,0-2.49,7.27c-.38,2,5.12,1.74,5.89.4a79.85,79.85,0,0,0,4.14-8.28c1-2.32-4.74-2.13-5.79-.8L57.5,82.32l5.89.4a15.07,15.07,0,0,1,.51-4.21c.5-1.78-2.55-2.06-3.69-1.85a8.82,8.82,0,0,0-4.73,2.19L61,80a33,33,0,0,1,2.77-4.82c1.21-1.75-4.59-2.32-5.79-.8a15.72,15.72,0,0,0-1.78,2.86C55.1,79.46,60.9,79.39,62,78l2.68-3.43-5.79-.8-2.39,3.76,5.79.8,2-3.66c1.16-2.1-4.51-2.08-5.48-1.16l-1.22,1.16,5.48,1.16,1.07-1.65c1.13-1.75-4.67-2.52-5.79-.8l-1.07,1.65C56,77,61.76,77.18,62.76,76.23L64,75.07,58.5,73.91l-2,3.66c-1.08,2,4.74,2.45,5.79.8l2.39-3.76c1.2-1.89-4.64-2.26-5.79-.8l-2.68,3.43L62,78a15.72,15.72,0,0,1,1.78-2.86L58,74.38a33,33,0,0,0-2.77,4.82c-1,2.23,4.51,2.08,5.48,1.16a2.61,2.61,0,0,1,1.15-.81L58.12,77.7a17.92,17.92,0,0,0-.73,5c0,2.32,5,1.57,5.89.4l4.11-5.27L61.62,77a79.85,79.85,0,0,1-4.14,8.28l5.89.4a22.41,22.41,0,0,1,2.27-6.48l-5.79-.8L53.17,93l5.89.4,1-5.8c.34-1.88-5.3-2-5.89-.4l-3,8.12,5.89.4A98.56,98.56,0,0,1,60.63,84.6l-5.89-.4A55.45,55.45,0,0,1,51,94.57l5.79.8q2.23-7.17,4-14.48c.48-2-5.09-1.67-5.89-.4A45.09,45.09,0,0,0,51,88.18c-.84,2.18,5,2.57,5.79.8a46.24,46.24,0,0,0,3.14-9.3c.45-2-5.1-1.7-5.89-.4q-2,3.36-4.33,6.53l5.89.4,1.62-6.38c.55-2.17-5.07-1.4-5.89-.4L46.84,84.9l5.89.4a9.53,9.53,0,0,1,1.11-4.16l-5.79-.8A19.39,19.39,0,0,0,46.75,84c-.49,1.91,4.79,1.63,5.59.76a25.43,25.43,0,0,1,7.28-5.58c2-1,0-2.38-1.32-2.51-3.94-.38-8.29.28-11.37,3-1.24,1.09-2.43,2.72-2.16,4.47.32,2.08,2.52,2.79,2.72,5l5.89-.4a2.26,2.26,0,0,1-.43-2.43H47.15a8.37,8.37,0,0,1-1,7.2l5.89.4a2.81,2.81,0,0,1,1-1.91l-5.59-.76a7.09,7.09,0,0,1-.29,4.11c-.87,2.28,4.81,2.35,5.79.8a1.28,1.28,0,0,1,1-.87c.82-.08,2.64-.68,2.1-1.85-1.76-3.77-8.49-4.76-11.17-1.62s-2,8,1.08,10.65c1.38,1.21,7.18.34,5.18-1.51l.08-.31-5.48-.36-.06.65,5.89.4.05-.79c.29-.26.58-.77.3-1.16s-1.24-2.22-1.72-2.12l-2.31-.15c-1.08-.24-.43.67-1.34,1.3L50,97.77l-.53-.06,1.79.69a2.38,2.38,0,0,1,.28-1.94l-2.12.44h.48l-2.12-.44a6,6,0,0,1-.66,2.43l4.1-.54-.46-.14,1.38.9c-.83-1.11,0-2.57-2.84-.92l5.12,1.06a1.59,1.59,0,0,1-.07-.86h-3a1.13,1.13,0,0,1,0,.83c-.3,1.9,5.66,2.18,6,0Z"/><path class="cls-6" d="M57.68,80A41.1,41.1,0,0,1,64,73.85a23,23,0,0,1,3.32-2.32c.66-.35,0-.6.94,0A8.6,8.6,0,0,1,70,73.28l1.38-1.69a31.88,31.88,0,0,0-9.84,5.06L67,77.81a14.8,14.8,0,0,0,2.37-6c.37-2.16-4.75-1.38-5.59-.76A9.19,9.19,0,0,0,60,77.65c-.21,1.94,4.19,1.56,5.12,1.06a6.58,6.58,0,0,0,3.81-5.87c0-2-4.65-1.72-5.59-.76a9.67,9.67,0,0,0-3,7c0,2.1,4.61,1.64,5.59.76a12,12,0,0,0,4.09-8.71c.07-2.08-4.65-1.66-5.59-.76a10.38,10.38,0,0,0-3.26,9.45c.35,2,3.82,1.57,5.12,1.06a12.38,12.38,0,0,0,7.53-8.07c.7-2.44-4.39-2-5.48-1.16a10.09,10.09,0,0,0-3.66,6.19c-.4,2.08,4.76,1.48,5.59.76A10.2,10.2,0,0,0,74,71.43c.15-2-4.15-1.53-5.12-1.06a4.7,4.7,0,0,0-2.91,4c-.14,1.81,3.61,1.49,4.51,1.3A6.43,6.43,0,0,0,75.24,72c.95-2.2-4.06-2-5-1.46A6.25,6.25,0,0,0,68,72.5l5.79.8.8-2.61c.78-2.53-4.41-1.87-5.48-1.16l-2,1.31L72.62,72A11.12,11.12,0,0,1,74,69.24l-5.79-.8-1.15,1.84,5.79.8a11.22,11.22,0,0,1,1.25-2.16l-5.79-.8L68,69c-.9,2.39,4.75,2.16,5.79.8.68-.89,1.84.27,2.64.71L79.35,68l-4.58-.43L74,70.53h3.82L77,67.58l-.14-.06-.61,2.36a4.78,4.78,0,0,1,3.32.25c1.45.54,6.54-.72,3.64-2.36a8.89,8.89,0,0,0-10,.9c-1,.89.14,1.83,1.08,2.05,2,.47,4.16.51,5.74-1,2.05-1.95-3.57-2.5-4.71-1.82a12.23,12.23,0,0,0-3.61,3.19l5.79.8a2.71,2.71,0,0,0,.59-1.75c.19-2-4.18-1.54-5.12-1.06a5.31,5.31,0,0,0-3,3.41c-.63,2.34,3.86,1.94,5,1.46a8.7,8.7,0,0,0,4.74-4.56c.65-1.47-2-1.92-2.89-1.9-2.16.06-4.92.93-4.1,3.58.36,1.16,2.87,1.16,3.69,1a16.28,16.28,0,0,0,7-2.7c1-.71-.1-1.64-.77-1.94a5,5,0,0,0-3.94.12c-.26.13-3.12-1-3.83-1.09a11.14,11.14,0,0,0-4.79.26l3.64,2.36c1.17-.62,3.29.91,4.4,1.32a13.57,13.57,0,0,0,4.15.88c3.18.14,6.09-.91,9-2.14l-5-1.46-3,3.84,5.89.4.43-2.49c.39-2.26-5.06-1.43-5.89-.4A6.37,6.37,0,0,0,82.35,72c-.44,2,4.78,1.61,5.59.76a5.64,5.64,0,0,0,1.76-4.64c-.2-2.33-4.89-1.6-5.89-.4a12,12,0,0,0-2.45,4.72L86.84,72c-2.21-1.78-5.53-1.47-7.78.1-3.13,2.19-5.78,5.68-8.46,8.4l5.59.76-.26-3.83c-.15-2.19-5-1.78-5.89-.4a9.54,9.54,0,0,0-1.37,3.7c-.31,1.88,5.64,2.18,6,0a7.32,7.32,0,0,1,1.15-2.9l-5.89-.4.26,3.83c.14,2,4.58,1.78,5.59.76l4.42-4.49c.71-.72,2.86-3.68,3.92-3.79l-2.31-.15-.15-.07c1,.78,5,1.41,5.48-.36a12,12,0,0,1,2.45-4.72l-5.89-.4a3.66,3.66,0,0,1-.94,3.13l5.59.76a4.6,4.6,0,0,1,1.07-2.05l-5.89-.4L83.1,72c-.39,2.25,5.06,1.45,5.89.4l3-3.84c.64-.81-.88-1.54-1.38-1.69A5.37,5.37,0,0,0,87,67.1c-1.66.71-3.32,1.54-5.14,1.06-1.35-.36-2.61-1.15-3.94-1.57a11,11,0,0,0-8.45.46c-1,.53-1.07,1.28-.23,2s2.78.69,3.87.39c.4-.11,1.59.49,2,.61a17.34,17.34,0,0,0,2.59.58,9.07,9.07,0,0,0,5.23-.83l-4.71-1.82a7.9,7.9,0,0,1-3.44,1.32l3.69,1-.07-.21-2.12.44h.5l-2.89-1.9a5.71,5.71,0,0,1-3.2,3.24l5,1.46a2.86,2.86,0,0,1,1.47-2.09l-5.12-1.06-.38.95c-1.2,1.79,4.61,2.33,5.79.8A7.15,7.15,0,0,1,79.55,70l-4.71-1.82,0,0h3l-.6-.14,1.08,2.05q.54-.89.58-.29l3.64-2.36a14.93,14.93,0,0,0-9.38-.25c-1.2.34-2.23,1.65-.61,2.36a10.92,10.92,0,0,0,6,.83c.84-.1,2.34-.55,2.15-1.65s-2.15-1.3-2.95-1.3H74c-.84,0-2.76.21-2.95,1.3s1.32,1.57,2.15,1.65l4.58.43c1.21.11,5.74-1,2.92-2.51C76.84,66.29,71.09,64.94,68,69l5.79.8.34-.89c.89-2.36-4.76-2.2-5.79-.8a11.22,11.22,0,0,0-1.25,2.16c-1,2.17,4.8,2.38,5.79.8L74,69.24c1.15-1.84-4.67-2.41-5.79-.8a11.12,11.12,0,0,0-1.4,2.75C66,73.7,71.3,73,72.32,72.34l2-1.31-5.48-1.16L68,72.5c-.75,2.45,4.75,2.2,5.79.8l.7-.62-5-1.46a2.66,2.66,0,0,1-2,1.89l4.51,1.3a2,2,0,0,1,1.15-1.91L68,71.43a7.93,7.93,0,0,1-2.83,5.67l5.59.76a7.67,7.67,0,0,1,2.84-4.68L68.1,72a9.79,9.79,0,0,1-6,6.75l5.12,1.06a8.6,8.6,0,0,1,2.44-7.94l-5.59-.76a9.82,9.82,0,0,1-3.27,7.2l5.59.76a7.46,7.46,0,0,1,2.14-5.48l-5.59-.76a4,4,0,0,1-2,3.74L66,77.65A7,7,0,0,1,69,72.57l-5.59-.76A12.74,12.74,0,0,1,61.21,77c-.67,1,1.15,1.64,1.74,1.77a4.7,4.7,0,0,0,3.75-.61,25,25,0,0,1,7.69-4c.49-.15,2-.9,1.38-1.69-3.08-3.74-7.28-5.78-12-3.46s-8.61,6.23-11.87,10.15c-.86,1,1.53,1.76,2.1,1.85a4,4,0,0,0,3.69-1Z"/><path class="cls-6" d="M46.08,115.72a80.13,80.13,0,0,1,.44,11.89h6a65.74,65.74,0,0,1,.39-10.54h-6a81,81,0,0,1-.07,10.79c-.15,2.07,5.58,2,6,0a26.64,26.64,0,0,1,3-7.84l-5.89-.4a93.52,93.52,0,0,1-1.28,10.93c-.34,1.9,5.52,2.11,6,0l2.61-11.43h-6l-2.53,11.5c-.39,1.79,5.36,2.08,5.89.4l3.78-11.91-5.79-.8a79.09,79.09,0,0,0-2.75,14.15c-.2,2,5.27,2,5.89.4l4.39-11-5.89-.4-2.94,11.49c-.46,1.79,5.23,2,5.89.4l4.94-12-5.89-.4-2.52,13.69c-.34,1.87,5.3,2,5.89.4l4.83-13.21-5.79-.8A70.54,70.54,0,0,0,56,132.75c-.29,2,5.16,1.8,5.89.4a63.24,63.24,0,0,0,4.58-11.28c.68-2.27-5.18-2.63-5.79-.8a55.25,55.25,0,0,0-2.51,11.49c-.21,1.94,5.35,2,5.89.4l4.26-12.78-5.89-.4-1.87,10.53c-.33,1.87,5.34,2,5.89.4q2.35-6.9,5.22-13.59l-5.89-.4-1.66,9.93c-.33,2,5.2,1.88,5.89.4l4.1-8.75-5.79-.8-3.16,10.56c-.69,2.31,4.92,2.49,5.79.8a49,49,0,0,0,3.81-10.22c.44-1.72-5.38-2.14-5.89-.4l-1.52,5.18c-.67,2.28,5.1,2.61,5.79.8l5-13.12H72.32c1,3.53-1.22,7-2.78,10l-5.22,10c-1.47,2.82-2.78,6.53-5.23,8.65-1.52,1.31-1.69,0-1.44-1.42.19-1.05,1-2.8,2.23-2.9l-2.31-.15c-.58-.17-1,2-1.22,2.36a4.64,4.64,0,0,1-2.18,1.86l5.12,1.06a5.4,5.4,0,0,1,3-6.18l-5.12-1.06a5.44,5.44,0,0,1-1.1,5l5.89.4a10.24,10.24,0,0,1,2-3.74l-5.89-.4L58,137.88c-.06,2.17,5.09,1.75,5.89.4a12.52,12.52,0,0,0,1.72-5.19c.26-2.33-5-1.43-5.89-.4a23.67,23.67,0,0,0-4,6.9l5.89.4-.47-5.3c-.17-2-4.6-1.87-5.59-.76A20.08,20.08,0,0,0,51.74,140l5.89.4a26,26,0,0,1-.3-5.21c.09-2.21-5.06-1.67-5.89-.4a15.09,15.09,0,0,0-1.75,3.66l5.89.4a34.5,34.5,0,0,0-.54-6.19c-.33-1.85-5.36-2.2-5.89-.4l-1.79,6.08,5.89.4,0-6.74c0-2.13-5.6-2-6,0l-1.22,6.28h6a14.1,14.1,0,0,0-1.58-5c-.85-1.58-4.93-1.55-5.79,0a16.05,16.05,0,0,0-1.89,5.92h6l-.42-4.77c-.18-2.11-6.08-2.06-6,0l.07,1.67h6c-.31-3.61-1.48-6.69-1-10.39.48-4,1.12-7.89,1.69-11.83l-5.89.4c1.56,1.85.8,5.27.71,7.5-.12,3.08-.31,6.15-.54,9.22-.15,2,5.77,2.14,6,0l.58-5.43c.22-2-5.51-2-6,0a18.31,18.31,0,0,0-.46,5.91c.18,2.21,5.5,2,6,0L51,125.82H45l-.59,8.77c-.14,2.1,5.54,2,6,0l.92-4h-6a25,25,0,0,0,.11,7.89c.32,1.87,5.31,2.18,5.89.4a4.21,4.21,0,0,0,.22-2.45l-5.89.4c.83,2.68,1.84,5.34,4.3,6.92a9.34,9.34,0,0,0,8,.9c2.46-.89,4.77-3.09,6.65-4.85a16.84,16.84,0,0,0,4.77-7c.74-2.24-5.18-2.64-5.79-.8-1.12,3.41-3.51,5.83-6.25,8-.61.49-1.22,1-1.85,1.45-.82.61-.72.7-1.44-.06A13.2,13.2,0,0,1,51.4,136c-.53-1.7-6.26-1.39-5.89.4a2.37,2.37,0,0,1,0,1.65l5.89.4a25,25,0,0,1-.11-7.89c.28-2-5.52-2.07-6,0l-.92,4h6l.59-8.77c.14-2.12-5.49-2-6,0l-1.45,5.64h6a18.31,18.31,0,0,1,.46-5.91H44L43.38,131h6c.26-3.39.45-6.79.58-10.19.08-2.32.67-5.39-1-7.32-1.06-1.25-5.56-1.9-5.89.4-.56,3.94-1.2,7.88-1.69,11.83-.46,3.71.71,6.77,1,10.39.18,2.11,6.08,2.06,6,0l-.07-1.67h-6l.42,4.77c.18,2.11,5.74,2.09,6,0a13.81,13.81,0,0,1,1.68-5.12H44.69a11.71,11.71,0,0,1,1.37,4.17c.28,2.14,5.6,2.06,6,0L53.29,132h-6l0,6.74c0,2,5.4,2.06,5.89.4L54.94,133l-5.89-.4a34.5,34.5,0,0,1,.54,6.19c0,2,5.36,2,5.89.4a15.09,15.09,0,0,1,1.75-3.66l-5.89-.4a26,26,0,0,0,.3,5.21c.3,1.93,5.22,2.12,5.89.4a17.56,17.56,0,0,1,3.19-5.34l-5.59-.76.47,5.3c.18,2,5.27,2.07,5.89.4a23.67,23.67,0,0,1,4-6.9l-5.89-.4a10.47,10.47,0,0,1-1.5,4.4l5.89.4.09-3.23c.06-2.32-5-1.53-5.89-.4A11.82,11.82,0,0,0,56,138.8c-.57,2.13,5.07,1.44,5.89.4a6.65,6.65,0,0,0,1.31-5.84c-.47-2-3.74-1.65-5.12-1.06a7.68,7.68,0,0,0-4.8,8.3c.34,2,3.83,1.64,5.12,1.06,2.35-1.07,4.57-3.31,4.64-6.06.08-3.1-3.75-3.37-6-2.82a6.91,6.91,0,0,0-5.26,5,4.55,4.55,0,0,0,3.74,5.83c8.1,1.65,11.5-5.73,14.58-11.65q3-5.67,5.91-11.34c1.72-3.32,3.18-6.54,2.1-10.29-.47-1.63-5.22-1.49-5.79,0l-5,13.12,5.79.8L74.63,119l-5.89-.4a45.47,45.47,0,0,1-3.6,9.43l5.79.8,3.16-10.56c.69-2.29-5-2.54-5.79-.8l-4.1,8.75,5.89.4,1.66-9.93c.32-1.94-5.24-1.93-5.89-.4Q63,123,60.64,129.92l5.89.4,1.87-10.53c.33-1.86-5.35-2-5.89-.4l-4.26,12.78,5.89.4a51.28,51.28,0,0,1,2.29-10.69l-5.79-.8a63.24,63.24,0,0,1-4.58,11.28l5.89.4a65.67,65.67,0,0,1,2.5-10.94c.72-2.25-5.12-2.62-5.79-.8l-4.83,13.21,5.89.4,2.52-13.69c.35-1.9-5.25-2-5.89-.4l-4.94,12,5.89.4,2.94-11.49c.45-1.78-5.25-2-5.89-.4l-4.39,11,5.89.4a74.64,74.64,0,0,1,2.53-13.35c.66-2.28-5.2-2.63-5.79-.8l-3.78,11.91,5.89.4,2.53-11.5c.4-1.81-5.5-2.17-6,0l-2.61,11.43h6a93.52,93.52,0,0,0,1.28-10.93c.12-2.14-5.12-1.77-5.89-.4a29.23,29.23,0,0,0-3.2,8.64h6a81,81,0,0,0,.07-10.79c-.13-2.1-5.76-2.09-6,0a65.74,65.74,0,0,0-.39,10.54c.09,2.09,5.92,2.1,6,0a80.13,80.13,0,0,0-.44-11.89c-.24-2.15-6.22-2-6,0Z"/><path class="cls-6" d="M64.77,170a5.09,5.09,0,0,0,1,3.06c1.12,1.55,4.67,1.55,5.79,0a5.37,5.37,0,0,0,1-3.58c-.11-2.21-5.5-2-6,0a7.71,7.71,0,0,0-.25,2.54c.11,2.08,5.14,1.93,5.89.4A7.19,7.19,0,0,0,73,170c.23-1.91-5.42-2.05-5.89-.4l-.28,1,5.89.4c.06-.9.15-1.77.28-2.66.27-1.89-4.23-1.6-5.12-1.06l-.22.13,4.71.3-.21-.15.3,1.16L73,168l-1.79.69.46-.07-2.92-.39-.15-.12c.89,1.65,6.45,1.56,5.79-.8l-.47-1.66c-.38-1.34-3.55-1.22-4.41-.9a4.79,4.79,0,0,0-3.07,2.44c-.72,1.5,2.11,1.85,2.89,1.9a7.06,7.06,0,0,1,.81,2.21l5.89-.4L75.08,168l-5.48,1.16A51.09,51.09,0,0,1,74.18,174a4,4,0,0,0,3.69,1c.56-.08,2.93-.8,2.1-1.85a12.08,12.08,0,0,1-1.76-3l-5.48,1.16c.16.16,4.09,3.82,3.58,4.08l5.12,1.06a7.32,7.32,0,0,1,.57-2.43H76.21a2.85,2.85,0,0,1,0,2.43l1.38-.9-2,.64c-.75.25-1.75.76-1.38,1.69A3.3,3.3,0,0,0,75,179c1.12,1.22,4.56,1.06,5.48-.36a1.85,1.85,0,0,0,.43-.92l-5.48.36c1.47,1.26,4.71,1.51,6.09-.06l-5.48-.36.35.51c.9,1.3,5.8,1.83,5.89-.4a3.64,3.64,0,0,0-.28-1.61c-.55-1.65-5.14-1.48-5.79,0a5.41,5.41,0,0,0-.51,1.87l5.89-.4c-2.07-2.53-4.64-1.15-7.32-1.86-1.49-.4-2.85-1.17-4.37-1.52a18.44,18.44,0,0,0-5-.41c-1.17.05-4.67,1.41-2.12,2.56l.86.52,1.79-2.2-.66.07,3.69,1.85c.93-1.89,0-5.17-1-6.93-.27-.45-.64-.79-.95-1.21a4.83,4.83,0,0,0-.72-.69l0-1.26c-1.64-1.18-.53,1.82-.53,1.88a7.67,7.67,0,0,1-.83,2.82c-.91,2.19,4.51,2.26,5.48,1.16,1.78-2,1.18-3.69-1.22-4.6-1.24-.47-3.58-.31-4.41.9-2.69,4,3.24,5.73,6.16,4.51a2.73,2.73,0,0,0,1.38-4.13c-1-1.68-3.18-2.1-5-1.93-4.28.4-3.9,5.72.12,6.3,1.63.24,4.27-.16,4.69-2s-.93-3.38-2.46-4.22c-1.27-.7-4.15-.78-5,.66-1.46,2.43-.18,5.15,2.29,6.23,1.18.52,4.33.93,5-.66,1.66-3.83-2.09-5.7-5.38-5.74-.9,0-2.94.26-3,1.5a1.91,1.91,0,0,0,.73,1.66c.89,1,5,1.26,5.48-.36.83-2.69-.83-4.69-3.41-5.39l.61,2.36.27-.11H62.52c-.64-.39.21.67.35.91A19,19,0,0,0,63.92,170a25,25,0,0,0,2.33,2.76l.47-1.82c-3.66,2.08-.2,5.35,2.81,5.35,1.23,0,3.56-.4,3.74-2s-1.59-2-2.77-2.25c-.91-.18-3.28-.07-3.69,1-1.44,3.94,8.86,4.66,7.25-.62-.51-1.66-5.92-1.56-5.89.4,0,2.54,2.18,3.66,4.44,4,1,.14,3.15.09,3.69-1a2.16,2.16,0,0,0-.82-3c-.91-.6-5.84-1.47-5.59.76a4.38,4.38,0,0,0,4.28,3.89c2.56.18,4.72-1.12,3.57-3.75-.67-1.53-6-1.62-5.89.4a2.65,2.65,0,0,0,1.77,2.4c1,.49,5.25.89,5.12-1.06a4.09,4.09,0,0,0-1.45-3c-1-1-6.31-1.16-5.48,1.16A4,4,0,0,0,74.64,176c1.09.38,5.11.3,4.41-1.69a4,4,0,0,0-3.68-2.78,5.93,5.93,0,0,0-2.77.31c-1.1.41-1.36,1.2-2.3,1.83a10.05,10.05,0,0,1-2.61,1.17c-.55.14,0,.52-.13-.18-.11-.46-.13-.9-.2-1.37-.11-.77-1.75-5.65-1.48-5.85l-2.59.74c-.77,0,.91.54,1.1.63.47.23.93.47,1.38.72a24.4,24.4,0,0,1,3.69,2.58,26.4,26.4,0,0,1,5.49,6.43l4.41-1.69L76,176.06c-.81-.19-5.51-.23-4.41,1.69,1.48,2.57,6.11,3.14,8.67,2.25,3.6-1.25,3.3-5.59,3.45-8.78.09-2-5.9-2.13-6,0-.06,1.19-.14,2.38-.28,3.56q-.11.89-.25,1.77,1.48,1.32.2.4L73,178.65l3.36.78c.78.18,5.57.2,4.41-1.69a29.67,29.67,0,0,0-10.05-9.95c-1.92-1.15-4.2-2.41-6.47-2.61-1.68-.15-4.47.25-4.41,2.46a10.82,10.82,0,0,0,1,3.11,18.25,18.25,0,0,1,.67,3.49,4.28,4.28,0,0,0,3.55,3.7c4,1,9.59-1.23,12-4.43l-1.38.9.46-.16-2.31.15.49.09-1.79-.69a1.83,1.83,0,0,1,.79,1.28l4.41-1.69q.37-.09-.08-.55L72.1,174a1.57,1.57,0,0,1,.63,1.44l5.12-1.06v-.28l-5.89.4.22,1.11.88-1.06-.61.37h4.24a1.37,1.37,0,0,1-.8-1.36l-5.59.76.22.7,3.69-1a1.47,1.47,0,0,0,0-1.08l-5.89.4-.2.68,2.59-.74h-.5l2.59.74-.15,0-3.69,1,.35.07-2.1-1v.27l1.38-.9-.52.14h3a.28.28,0,0,0-.08-.43c.79-.45,1.16-1.1.47-1.82a18.54,18.54,0,0,1-2.38-3,10.55,10.55,0,0,0-1.5-2.41c-1.43-1.3-3.67-1-5.31-.39s-.56,2,.61,2.36c.74.2.82,1.47.65,2l5.48-.36.09-.15-3,1.5a7.52,7.52,0,0,1-.4,1.94l5-.66a2.24,2.24,0,0,1-.75-3.31l-5,.66c.92.5.84,1.54.63,2.39l1.49-1.3-.82.28,4.1.54a1.38,1.38,0,0,1-.21-2.22l-2.89,1.1.57,0-2.12-.44a2.43,2.43,0,0,1,1,1.18l2.31-.15a3.18,3.18,0,0,0,1.12-1.19l-4.41.9.67.25L65,169.8l-.23,1.14,5.48,1.16c.93-2.23,1.78-5-.3-6.85-1.77-1.6-4.69-1.88-6.91-1.31-1.87.48-4.34,2.14-3.25,4.37.55,1.11,1.72,1.72,2.27,2.88s1.24,3.56.68,4.7c-.87,1.77,2.85,1.93,3.69,1.85l.66-.07c.86-.09,3.19-1.06,1.79-2.2a7.12,7.12,0,0,0-1.8-1.13l-2.12,2.56c2.58-.12,4.45,1,6.84,1.71a11.91,11.91,0,0,0,3.14.53q.81,0,1.63-.08,2-.17-.69-.57c1,1.25,5.61,1.9,5.89-.4L82,177H76.26l.06.81,5.89-.4-.35-.51c-.93-1.34-4.36-1.64-5.48-.36l-.24.28,1.79-.69-.39,0,3.39.69-.28-.24c-1-.84-5-1.37-5.48.36a1.85,1.85,0,0,1-.43.92l5.48-.36-.18-.41-1.38,1.69c1.23-.4,2.8-.62,3.49-1.82s.22-2.54-.14-3.74c-.51-1.65-5.17-1.47-5.79,0a9.92,9.92,0,0,0-.79,3.23c-.14,2,4.15,1.56,5.12,1.06,4.25-2.17-.76-5.91-2.64-7.71-1-1-6.42-1.1-5.48,1.16a12.08,12.08,0,0,0,1.76,3l5.79-.8a58.27,58.27,0,0,0-5.19-5.52c-1.07-1-6.24-1.19-5.48,1.16l.94,2.89c.53,1.64,6.05,1.54,5.89-.4-.3-3.66-3.55-5-6.81-5.21l2.89,1.9q.68-.5.31-.65l-4.41-.9.47,1.66,5.79-.8c-1.53-2.86-6.38-1.8-7.72.61a.93.93,0,0,0,.3,1.16l.21.15a4.83,4.83,0,0,0,4.71.3l.22-.13L67,168.33c-.13.89-.22,1.76-.28,2.66-.13,1.94,5.42,2,5.89.4l.28-1L67,170a3.15,3.15,0,0,1-.5,1.65l5.89.4a7.71,7.71,0,0,1,.25-2.54h-6a3.93,3.93,0,0,1-.83,2.78h5.79a3.63,3.63,0,0,1-.8-2.26c-.06-2.1-6.06-2.07-6,0Z"/><path class="cls-6" d="M78,99.18a14,14,0,0,1,3.07-5L75.59,93l-3.12,7c-.94,2.09,4.89,2.55,5.79.8a45.36,45.36,0,0,1,6-9l-5.48-1.16a13.53,13.53,0,0,1-2.6,4.88c-1.23,1.49,4.35,2.47,5.48,1.16q4.45-5.15,9.37-9.85l-5.48-1.16a24.47,24.47,0,0,1-5,4.88L85.73,92a52,52,0,0,1,9.1-8.36l-5.18-1.51a32.79,32.79,0,0,1-5.25,4.43l5.18,1.51c2.14-1.6,4.33-3.08,6.62-4.46l-4.71-1.82a28,28,0,0,1-5.77,4.54l4.71,1.82a38.41,38.41,0,0,1,8.49-4.84L94.67,81.2l-5.61,3.23c-1,.56-1.09,1.26-.23,2s2.79.69,3.87.39a60.86,60.86,0,0,0,7.9-2.85c1.06-.46,1-1.32.23-2A4.72,4.72,0,0,0,97,81.57l-6.51,2.11c-.91.3-1.83.88-1.23,1.87s2.62,1,3.54.87a52.17,52.17,0,0,0,9.82-2.32c.91-.31,1.83-.87,1.23-1.87s-2.59-.94-3.54-.87l-4.42.33c-.84.06-2.34.58-2.15,1.65s2.14,1.25,2.95,1.3a25.09,25.09,0,0,0,7-.6c1.07-.23,1.89-1.1,1.08-2.05a11.26,11.26,0,0,0-3.9-2.92c-.92-.43-6-.75-5,1.46a9.34,9.34,0,0,0,3.43,4c1,.66,6.42,1.33,5.48-1.16a3.94,3.94,0,0,0-2.87-2.3c-.78-.24-5.6-.11-4.41,1.69a5.14,5.14,0,0,0,2.86,2.09c1.07.41,3.78.39,4.41-.9,1.41-2.88-3.6-3.61-5.38-3.08-3.17.94-2.23,4.06.61,4.72.91.21,4,.52,4.41-.9s-.1-2.31-1.41-3.13-4.87-.8-5.12,1.06c-.17,1.23,1,1.77,2,2.08s4,.48,4.41-.9c1.39-4.67-7.93-5.17-8.1-.76,0,1.23,2.24,1.51,3,1.5,1.77,0,3.88-.44,4.83-2.15S104,78.94,102.5,78A7.38,7.38,0,0,0,92,81c-1.05,2.4,4.52,1.86,5.48,1.16a14.35,14.35,0,0,0,3.64-3.87c1.26-1.94-4.16-2-5-1.46a7.17,7.17,0,0,0-3.81,6.32c0,1.93,4.08,1.64,5.12,1.06a7,7,0,0,0,3.94-6.66c-.13-2-4-1.52-5.12-1.06a3.7,3.7,0,0,0-2.56,3.74c.16,2.2,4.48,1.55,5.59.76a10.22,10.22,0,0,0,4.35-9.38c-.22-2.29-4.91-1.66-5.89-.4-6.21,8,11.69,9.56,9,2.37-.62-1.69-4.42-1.27-5.48-.36a7.82,7.82,0,0,0-2.87,7c.23,1.94,4.59,1.92,5.59.76a13.23,13.23,0,0,0,3.44-9.38c-.06-1.74-3.47-1.64-4.51-1.3-3,1-5.17,3.08-5.26,6.36-.06,2,4.09,1.47,5.12,1.06a7.86,7.86,0,0,0,5.13-8.2c-.25-2.06-4.49-1.75-5.59-.76-3.13,2.83-4.14,9.37,1.27,10.2s7.81-4.77,4.34-8.57c-1.08-1.19-4.62-1.09-5.48.36a5.28,5.28,0,0,0,.85,6.57c1.06,1.17,4.08,1,5.18,0a5.59,5.59,0,0,0,.42-8.18c-.84-1-5.85-1.21-5.59.76a10.85,10.85,0,0,0,3.79,7c1,.85,5.63,1.36,5.59-.76a6.87,6.87,0,0,0-1.18-3.86l-5.79.8,2.14,2.63c1.07,1.32,5.49,1.86,5.89-.4a5.33,5.33,0,0,0-1.52-4.75c-.85-1-5.83-1.21-5.59.76a11.06,11.06,0,0,0,2.42,5.83c1.06,1.3,6.51,1.76,5.79-.8a5,5,0,0,0-2.65-3.07c-.9-.52-5.36-.84-5.12,1.06a11.82,11.82,0,0,0,1.24,4.06c.79,1.52,5.75,1.68,5.89-.4a7.2,7.2,0,0,0-.4-2.91c-.54-1.72-4.46-1.22-5.48-.36a43.55,43.55,0,0,0-3.79,3.61c-1.87,2,3.87,2.89,5.18,1.51l1.56-1.63c1.92-2-3.84-2.77-5.18-1.51A27.82,27.82,0,0,0,102,81.6c-1.35,2,4.25,1.83,5,1.46a8.14,8.14,0,0,0,3.31-2.8c.69-1-1.16-1.64-1.74-1.77a4.62,4.62,0,0,0-3.75.61l-3,2.45L107,83.07A11.67,11.67,0,0,0,109.5,79c.76-2.28-4-2-5-1.46l-4,2,5.12,1.06a13.48,13.48,0,0,1,1.62-3.72l-5.79-.8L98.33,81.8c-1.08,2,4.52,2.27,5.48,1.16l2.91-3.36-5.48-1.16c-.78,1.72-2.48,3.31-.71,5,1.42,1.4,4.19,1.34,5.82.42l-4.71-1.82a8.16,8.16,0,0,0-2.08,2.64c-1.11,2.22,4.52,2,5.48,1.16a15.59,15.59,0,0,0,3.15-3.82c1.26-2.15-4.55-1.91-5.48-1.16a6.18,6.18,0,0,0-2,2.74c-.85,2.2,4,2,5,1.46a24.84,24.84,0,0,0,6.62-5.41c1.79-2.09-3-2.38-4.1-2.05a6.84,6.84,0,0,0-3.28,1.92c-2,2.16,3.87,2.52,5.18,1.51a35.13,35.13,0,0,0,4.21-3.81c2-2.1-3.58-2.48-4.71-1.82a6.39,6.39,0,0,0-3.22,3.76c-.46,1.53,1.87,1.89,2.89,1.9a9.48,9.48,0,0,0,6.78-2.35c1-.92-.19-1.76-1.08-2.05a4.81,4.81,0,0,0-4.1.54A4.3,4.3,0,0,0,109.14,80c-.29,1.18,2.46,1.5,3,1.5,2.39,0,5.21-1.1,4.42-3.93-.45-1.62-4.57-1.34-5.48-.36-1.67,1.79-.42,3.67,1.71,4.23,1,.27,4.47.49,4.51-1.3a7.32,7.32,0,0,0-1.71-5,4,4,0,0,0-3.69-1c-.66.09-2.83.74-2.1,1.85a9.47,9.47,0,0,0,3.56,3.23c1.1.6,5.73.78,5-1.46a27.29,27.29,0,0,0-3.24-6.77l-5,1.46,4.68,3c.92.58,6.11.59,5-1.46a13.41,13.41,0,0,0-7.09-6.25c-.76-.29-5.62-.87-5.12,1.06l.72,2.77,5.89-.4c-1.1-2.08-2.52-3.53-5-3.85-2-.27-4.64.13-5.67,2.11l5.79.8a8.58,8.58,0,0,0,.73-4.42l-3.8,1.45c4.19.29,6.77,4.72,9.48,7.42,2.37,2.36,8.21,4.17,7.64,8.09l5.89-.4a7.15,7.15,0,0,0-5.8-4.46c-1.41-.18-6.29.67-4.42,3.1,1,1.32,3.64,1.47,5,.66s1.79-1.89.66-3.12-4.05-1-5.18,0c-1.42,1.23-1.36,2.73-.2,4.09.91,1.07,5.6,1.21,5.59-.76,0-2.93-2.58-4.21-5.31-3.86-1.8.23-4.7,2.23-2.21,3.88,1.22.81,5.28,1.44,5.59-.76s-.49-4-2.91-4.46c-1.64-.34-4.74-.21-5.34,1.75a1.14,1.14,0,0,0,.77,1.46c1.76.7,4.38,1,5.88-.49,1.67-1.67,0-3.09-1.76-3.45s-4.66,0-5.49,1.82c-1,2.33,1.73,3.44,3.48,3.75,1.23.22,3.41,0,3.8-1.45,1.13-4.26-6.67-5.12-8.44-2.08-2.23,3.82,5.65,4.7,7.56,2.5,1.41-1.62-1.49-2.19-2.59-2.26-1.89-.12-4.25.53-4.39,2.72l3.8-1.45A20.11,20.11,0,0,0,103.21,83l5.18,1.51c4.24-4.26,9.58-2,14,.71,1.64,1,7.13-.37,4.24-2.12-6.87-4.17-17.07-6.52-23.45-.1-1,1,.14,1.75,1.08,2.05a4.81,4.81,0,0,0,4.1-.54,10.8,10.8,0,0,1,7.46-2.27c1,.1,3.7.09,3.8-1.45l0-.2-2.12.44.54,0-2.59-2.26-.26.22,2.12-.44,1.7,0-2.12.44h.57l-2.12-.44a1,1,0,0,1,.17,1.28l3.8-1.45-.62-.11,1.79.69-1.11-.44-2.31-.15.49.14-1.38-.9-.22.28,1.79-.69-.41.08,2.92.39-.4-.16.77,1.46q-3.52-1.19-3.43.86a5.11,5.11,0,0,1-.11,1l5.59-.76.13-.35-1.38.9.59-.17h-3a10.36,10.36,0,0,1,0,1.12l5.59-.76a.78.78,0,0,1,.2-1.07h-5.18l.27-.52,5,.66.08-.32-2.1,1,.65-.13-2.31-.15A3.55,3.55,0,0,1,123.56,83c.66,1.72,5.61,1.54,5.89-.4.32-2.25-1-4.12-2.71-5.44-2.14-1.64-4.42-2.74-6.31-4.73-3.62-3.82-6.85-7.83-12.51-8.23-.75-.05-3.95-.09-3.8,1.45a7,7,0,0,1-.51,3.62c-.91,2.14,4.89,2.52,5.79.8q-3.28-1-1.61.56.36.57.66,1.18c.77,1.45,6.37,1.46,5.89-.4l-.72-2.77-5.12,1.06A10.22,10.22,0,0,1,114,74.64l5-1.46-4.68-3c-.88-.55-6.27-.45-5,1.46a27.29,27.29,0,0,1,3.24,6.77l5-1.46a5.13,5.13,0,0,1-2-1.9l-5.79.8a6,6,0,0,1,1.49,4.24l4.51-1.3.45-.13-5.48-.36-.25.57,2.12-.44h-.51l3,1.5a1.65,1.65,0,0,1,.92-1.23l-5.18-1.51a2.23,2.23,0,0,1-1.6.87l2.89,1.9a3.83,3.83,0,0,1,1.68-2.44l-4.71-1.82a35.13,35.13,0,0,1-4.21,3.81l5.18,1.51a2.07,2.07,0,0,1,1.13-.84l-4.1-2.05A21.73,21.73,0,0,1,101.45,83l5,1.46a4.27,4.27,0,0,1,1.43-2l-5.48-1.16a12.5,12.5,0,0,1-2.55,3.11l5.48,1.16a5.66,5.66,0,0,1,1.47-1.93c.93-.8,0-1.59-.77-1.94a4.94,4.94,0,0,0-3.94.12l-.36.2,2.92-.39-.39-.06,1.79.69c-.88-.64.62-2.26,1-3,1-2.15-4.52-2.27-5.48-1.16l-2.91,3.36,5.48,1.16,3.08-5.79c1.06-2-4.77-2.47-5.79-.8a15.94,15.94,0,0,0-1.83,4.52c-.48,1.91,4.33,1.45,5.12,1.06l4-2-5-1.46a9.7,9.7,0,0,1-1.85,3.4c-1.92,2.2,3.87,2.58,5.18,1.51l3-2.45-5.48-1.16a4,4,0,0,1-1.76,1.48l5,1.46a23.54,23.54,0,0,1,3.48-4.1l-5.18-1.51-1.56,1.63,5.18,1.51a43.55,43.55,0,0,1,3.79-3.61L108,76a4,4,0,0,1,.19,2.11l5.89-.4a9.4,9.4,0,0,1-1-3.26L108,75.47a2.49,2.49,0,0,1,1.11,1.75l5.79-.8a9.41,9.41,0,0,1-2.2-5l-5.59.76a3.58,3.58,0,0,1,.7,3.24l5.89-.4-2.14-2.63c-1.15-1.41-7-1.08-5.79.8a5.26,5.26,0,0,1,1,3.06l5.59-.76a8.46,8.46,0,0,1-3-5.49l-5.59.76a3.74,3.74,0,0,1-.42,5.15h5.18a3.49,3.49,0,0,1-.24-4.26l-5.48.36a3.64,3.64,0,0,1,1,2.17c0,.34-.22,2-.12,2l2.92.39c-2.31-.93-.07-5.21,1-6.18l-5.59-.76a5.5,5.5,0,0,1-3.37,6.08l5.12,1.06c0-1.52.7-3.24,2.29-3.77l-4.51-1.3a11.19,11.19,0,0,1-2.62,7.86l5.59.76a5.92,5.92,0,0,1,2-5.51L101,74.41a.93.93,0,0,1-.58,1.37l2.12-.44c.66,0,.08-1.06.14-1.55a3.31,3.31,0,0,1,.87-1.75l-5.89-.4a8.3,8.3,0,0,1-3.53,7.87l5.59.76c-.05-.75,0-1.31.8-1.62L95.4,77.58a4.58,4.58,0,0,1-2.18,4.54l5.12,1.06A4.69,4.69,0,0,1,100.39,79l-5-1.46a11.66,11.66,0,0,1-3,3.16l5.48,1.16c.26-.6,1-1.34.21-1.84,1.3.77-1.23,1.53,1.07,1.5l3,1.5.39-.67L100.7,83l.58-.07-2.92-.39.05.4,4.41-.9-.35-.1,1.38.9,0-.28-5.12,1.06-.14.22L103,83v.23l-2.92.39-1.13-.46,4.41-.9-.11-.29L98.8,83.62q-.36,0,.11.5L104.4,83a7.39,7.39,0,0,1-2.82-3.24l-5,1.46a8.5,8.5,0,0,1,3,2.31l1.08-2.05a14.16,14.16,0,0,1-4,.19l.8,2.95,4.42-.33-2.31-2.74a44.44,44.44,0,0,1-8.39,2l2.31,2.74L100,84.16l-3.64-2.36a51.31,51.31,0,0,1-6.68,2.39l3.64,2.36,5.61-3.23c1.07-.61,1.06-1.51,0-2.12a5.12,5.12,0,0,0-4.24,0,42.94,42.94,0,0,0-9.43,5.45c-1,.75,0,1.62.77,1.94A4.91,4.91,0,0,0,90,88.47a32.22,32.22,0,0,0,6.71-5.15c2-2-3.58-2.5-4.71-1.82-2.6,1.57-5.12,3.25-7.56,5.07-1.13.84.29,1.79,1.08,2.05a4.87,4.87,0,0,0,4.1-.54,32.79,32.79,0,0,0,5.25-4.43c.93-1-.12-1.74-1.08-2.05a4.82,4.82,0,0,0-4.1.54,52,52,0,0,0-9.1,8.36C78.61,92.77,84.44,93,85.73,92a27.79,27.79,0,0,0,5.57-5.6c1.31-1.73-4.42-2.17-5.48-1.16Q80.9,90,76.45,95.11l5.48,1.16a13.53,13.53,0,0,0,2.6-4.88c.68-2.27-4.48-2.33-5.48-1.16A49,49,0,0,0,72.47,100l5.79.8,3.12-7c1-2.2-4.51-2.17-5.48-1.16a16.25,16.25,0,0,0-3.68,5.71c-.81,2.18,5.1,2.64,5.79.8Z"/><path class="cls-6" d="M116.17,78.18l1.56.55a4.82,4.82,0,0,0,3.87-.39,1.17,1.17,0,0,0,.64-.91c0-.52-.49-.83-.88-1.06a21.11,21.11,0,0,0-3-1.48,5.45,5.45,0,0,0-3.64-.23,3.34,3.34,0,0,0-1.08.54c-.27.22-.6.81-.3,1.16a4.9,4.9,0,0,0,3.33,1.72,5.74,5.74,0,0,0,2.31-.15,2.33,2.33,0,0,0,1.38-.9c.59-1.16-1.35-1.75-2.1-1.85a1.34,1.34,0,0,1,.87.38l-5,1.46a21.11,21.11,0,0,1,3,1.48l3.64-2.36-1.56-.55a4.59,4.59,0,0,0-4.1.54c-1,.94.22,1.75,1.08,2.05Z"/><path class="cls-6" d="M122.59,85.38l6,3.11a5,5,0,0,0,3.94.12c.82-.34,1.69-1.11.77-1.94a35.82,35.82,0,0,1-4-4.16v.8l.1-.17-.77.66.17-.07-2.12.44L125,83.79l.5.47.83.79L128,86.64c.89.85,2.65.86,3.75.61.6-.14,2.44-.8,1.74-1.77a60,60,0,0,0-3.83-4.75c-1.24-1.39-7-.62-5.18,1.51,1.32,1.55,2.59,3.88,4.81,4.06.92.08,3.28.14,3.69-1,.11-.33.22-.62,0-.93-1.08-1.36-3.56-1.4-5-.66l0,0c-1.08.55-1.07,1.57,0,2.12a5.08,5.08,0,0,0,4.24,0l0,0-5-.66.05.06v-.8l0,.07,3.69-1h-.13l1.79.69a31.75,31.75,0,0,1-2.89-3.36l-5.18,1.51a50.78,50.78,0,0,1,3.23,4l5.48-1.16c-1.18-1.13-2.39-2.7-3.87-3.43s-4.69-.93-5.75.82a.8.8,0,0,0,0,.8,41.59,41.59,0,0,0,4.57,4.88l4.71-1.82-6-3.11a5,5,0,0,0-4.24,0c-1.09.56-1.09,1.55,0,2.12Z"/><path class="cls-6" d="M130.88,88.33l1.83,1.88c.43.45,2.36.17,1.73-.5l-2-2.08c-.42-.45-2.34-.2-1.73.5l1.37,1.57c.33.37,2.15.32,1.83-.39l-1.3-2.86-1.93.27a4.14,4.14,0,0,1,.79,1.48l1.93-.27-.74-1.41c-.29-.56-2.2-.49-1.93.27A8.41,8.41,0,0,0,132,89.13c.34.45,2.27.5,1.93-.27l-.59-1.34-1.93.27.88,1.5c.33.56,2.28.39,1.93-.27l-1.61-3-1.93.27,1.23,2c.32.52,2.15.53,1.93-.27A8.34,8.34,0,0,0,133,86c-.31-.54-2.23-.48-1.93.27a35.08,35.08,0,0,0,1.55,3.34c.3.56,2.22.47,1.93-.27a20.77,20.77,0,0,0-2.12-4.09c-.52-.76-1.49-2.39-2.31-2.78-1-.49-.53.16-.35.76A19.08,19.08,0,0,0,131,85.42,33.09,33.09,0,0,1,132.73,90l1.93-.27a7.43,7.43,0,0,0-3.08-2.58c-.37-.17-1.91-.28-1.67.49a3,3,0,0,0,1.23,1.73c.45.34,2.42.14,1.73-.5a7.33,7.33,0,0,0-2.17-1.45c-.26-.12-2.11-.2-1.67.49a8.07,8.07,0,0,0,2.09,2.24c.43.32,2.41.19,1.73-.5L131,87.77l-1.73.5,2.62,2.41,1.73-.5a20.79,20.79,0,0,0-4-2.85l-1.41.71a18.5,18.5,0,0,1,7.28,6.24l1.83-.39-2.77-2.95c-.33-.35-2.15-.34-1.83.39a19.53,19.53,0,0,0,2,3.52c.39.55,2.32.29,1.93-.27l-2.2-3.1c-.36-.51-2.31-.4-1.93.27l.85,1.48c.31.54,2.24.46,1.93-.27L134,90.12c-.22-.52-2.1-.48-2,.13a13.76,13.76,0,0,0,.76,2.45l1.93-.27a5.55,5.55,0,0,0-1.59-2.16c-.35-.3-2.27-.22-1.83.39l1.2,1.65c.39.53,2.33.32,1.93-.27a13.36,13.36,0,0,0-2.33-2.62c-.43-.38-2.37-.21-1.73.5a17.31,17.31,0,0,0,2.2,2c.32.25,1.9.47,1.86-.25a2.85,2.85,0,0,0-.33-1.5l-1.83.39a8,8,0,0,1,1.11,1.58c.31.53,2.21.5,1.93-.27a5.09,5.09,0,0,0-1-1.72c-.37-.44-2.34-.41-1.93.27l1.19,2,1.93-.27-1.29-2c-.35-.53-2.3-.4-1.93.27l1.08,2c.31.56,2.25.44,1.93-.27l-1-2.17-1.93.27,1.12,1.84c.33.54,2.26.44,1.93-.27L134.61,90l-1.93.27,3.11,5.48,1.83-.39-1.06-1.22c-.33-.38-2.1-.35-1.83.39l.74,2,1.93-.27-.41-.51c-.28-.34-2.15-.57-2,.13l.24.9,2-.13-.92-1.55c-.32-.54-2.25-.46-1.93.27a13.44,13.44,0,0,0,1,1.79c.35.55,2.3.37,1.93-.27l-1.62-2.78c-.34-.58-2.29-.36-1.93.27l1.45,2.49,1.93-.27-2.22-3.51-1.93.27q2,3,3.69,6.24c.3.56,2.24.45,1.93-.27l-1.15-2.65c-.26-.59-2.2-.47-1.93.27l1.32,3.52,1.93-.27a27.08,27.08,0,0,1-1.31-3.35l-1.93.27A11.27,11.27,0,0,0,137,99.25c.33.37,2.12.34,1.83-.39l-1.19-2.94-1.93.27,1.92,2.89,1.93-.27-1.77-2.64-1.93.27L137.79,99c.39.52,2.33.33,1.93-.27L137.9,96l-1.83.39,2.39,2.68c.36.41,2.23.16,1.83-.39l-2-2.76-1.93.27,1.91,2.28,1.83-.39-2.22-2.6-1.73.5L138,98c.37.39,2.24.17,1.83-.39l-1.72-2.3-1.83.39a13.38,13.38,0,0,1,1.65,1.93l1.93-.27L138,95l-1.93.27a25.18,25.18,0,0,1,1.72,2.37l1.93-.27-1.32-1.69-1.83.39a6.14,6.14,0,0,1,1.24,1.38c.4.55,2.33.29,1.93-.27L138,94.79l-1.83.39a20.14,20.14,0,0,1,2.08,2.69l1.93-.27-1.62-2.23c-.37-.51-2.32-.36-1.93.27l2.49,4,1.93-.27-.54-.72c-.34-.45-2.24-.53-1.93.27s.71,1.7,1.12,2.53l1.93-.27-1-1.86c-.29-.57-2.24-.45-1.93.27l1.07,2.48,1.93-.27-1.38-1.67c-.35-.43-2.16-.59-1.93.27l.58,2.14,1.93-.27-1.33-1.72c-.35-.45-2.3-.47-1.93.27l.62,1.23,1.93-.27-1-1.6c-.33-.5-2.22-.51-1.93.27l.78,2.08,1.93-.27a5.52,5.52,0,0,1-.49-2.1l-1.71.35.66.29c.27.12,1.84.29,1.71-.35L139.84,99l-2,.13.52,1.62,1.93-.27-.37-.84c-.23-.51-2-.55-2,.13l0,1.84,1.71-.35a3,3,0,0,1-1.39-.9c-.36-.34-2.06-.4-1.83.39a6.72,6.72,0,0,0,.81,1.77c.32.51,2.19.52,1.93-.27A21.5,21.5,0,0,0,138,99.16c-.29-.56-2.17-.51-1.93.27l.82,2.66,1.93-.27a64.94,64.94,0,0,1-2.57-6.41c-.21-.61-2.18-.48-1.93.27a64.94,64.94,0,0,0,2.57,6.41c.27.58,2.16.5,1.93-.27L138,99.16l-1.93.27a21.5,21.5,0,0,1,1.31,3.12l1.93-.27a6.72,6.72,0,0,1-.81-1.77l-1.83.39a5.32,5.32,0,0,0,1.7,1.1c.34.14,1.72.32,1.71-.35l0-1.84-2,.13.37.84c.26.58,2.17.49,1.93-.27l-.52-1.62c-.18-.56-2.08-.47-2,.13l.29,1.45,1.71-.35-.66-.29c-.31-.14-1.78-.31-1.71.35a9,9,0,0,0,.57,2.37c.23.61,2.2.47,1.93-.27l-.78-2.08-1.93.27,1,1.6c.34.52,2.28.43,1.93-.27l-.62-1.23-1.93.27,1.33,1.72c.35.45,2.16.58,1.93-.27l-.58-2.14-1.93.27,1.38,1.67c.34.42,2.27.53,1.93-.27l-1.07-2.48-1.93.27,1,1.86c.3.59,2.26.41,1.93-.27-.42-.84-.78-1.66-1.12-2.53l-1.93.27.54.72c.37.5,2.32.37,1.93-.27l-2.49-4-1.93.27,1.62,2.23c.38.52,2.32.34,1.93-.27a22.62,22.62,0,0,0-2.28-2.93c-.36-.39-2.24-.18-1.83.39l1.75,2.42,1.93-.27a10.59,10.59,0,0,0-1.45-1.62c-.36-.33-2.27-.17-1.83.39l1.32,1.69c.38.48,2.33.37,1.93-.27A25.18,25.18,0,0,0,138,95c-.42-.51-2.34-.27-1.93.27l1.81,2.34c.39.51,2.34.32,1.93-.27A14.9,14.9,0,0,0,138,95.19c-.36-.35-2.25-.19-1.83.39l1.72,2.3,1.83-.39-1.86-2c-.42-.45-2.34-.21-1.73.5l2.22,2.6c.39.45,2.23.09,1.83-.39L138.24,96c-.4-.48-2.35-.3-1.93.27l2,2.76,1.83-.39-2.39-2.68c-.35-.39-2.23-.21-1.83.39L137.79,99l1.93-.27-1.89-2.56c-.38-.52-2.33-.33-1.93.27l1.77,2.64c.38.56,2.32.32,1.93-.27l-1.92-2.89c-.33-.5-2.24-.5-1.93.27l1.19,2.94,1.83-.39a7.11,7.11,0,0,1-1.34-1.94c-.3-.55-2.17-.51-1.93.27a27.08,27.08,0,0,0,1.31,3.35c.27.58,2.21.47,1.93-.27l-1.32-3.52-1.93.27,1.15,2.65,1.93-.27q-1.72-3.2-3.69-6.24c-.36-.56-2.31-.34-1.93.27l2.22,3.51c.35.55,2.3.37,1.93-.27l-1.45-2.49-1.93.27,1.62,2.78,1.93-.27a13.44,13.44,0,0,1-1-1.79l-1.93.27.92,1.55c.27.45,2.13.51,2-.13l-.24-.9-2,.13.41.51c.34.43,2.23.55,1.93-.27l-.74-2-1.83.39,1.06,1.22c.33.38,2.2.27,1.83-.39L134.61,90c-.32-.56-2.26-.43-1.93.27l.88,1.86,1.93-.27L134.37,90c-.32-.53-2.25-.46-1.93.27l1,2.17,1.93-.27-1.08-2-1.93.27,1.29,2c.36.55,2.31.36,1.93-.27l-1.19-2-1.93.27a5.09,5.09,0,0,1,1,1.72l1.93-.27a12.9,12.9,0,0,0-1.31-1.82c-.33-.39-2.11-.34-1.83.39l.26,1.24,1.86-.25a17.31,17.31,0,0,1-2.2-2l-1.73.5a12.38,12.38,0,0,1,2.13,2.38l1.93-.27-1.2-1.65-1.83.39a5,5,0,0,1,1.39,1.92c.26.6,2.23.45,1.93-.27a8.43,8.43,0,0,1-.69-2.19l-2,.13,1.21,2.83,1.93-.27-.85-1.48-1.93.27,2.2,3.1,1.93-.27a19.53,19.53,0,0,1-2-3.52l-1.83.39,2.77,2.95c.35.38,2.24.2,1.83-.39a19.88,19.88,0,0,0-7.8-6.68c-.54-.26-2.42.16-1.41.71a19.23,19.23,0,0,1,3.71,2.65c.46.42,2.39.1,1.73-.5L131,87.77c-.44-.41-2.38-.16-1.73.5l1.87,1.91,1.73-.5a7.44,7.44,0,0,1-1.89-2l-1.67.49a4.39,4.39,0,0,1,1.86,1.24l1.73-.5a2,2,0,0,1-1-1.49l-1.67.49A6.16,6.16,0,0,1,132.73,90c.34.47,2.18.55,1.93-.27-.44-1.43-4.33-12.52-7.18-8a.31.31,0,0,0,.1.39,20,20,0,0,1,5.07,7.43l1.93-.27A35.08,35.08,0,0,1,133,86l-1.93.27a8.34,8.34,0,0,1,.85,2.06l1.93-.27-1.23-2c-.33-.56-2.28-.4-1.93.27l1.61,3,1.93-.27-.88-1.5c-.32-.54-2.25-.46-1.93.27l.59,1.34,1.93-.27a8.41,8.41,0,0,1-1.27-2.34l-1.93.27.74,1.41c.29.56,2.23.46,1.93-.27a4.14,4.14,0,0,0-.79-1.48c-.33-.5-2.26-.47-1.93.27l1.3,2.86,1.83-.39-1.37-1.57-1.73.5,2,2.08,1.73-.5-1.83-1.88c-.44-.45-2.36-.15-1.73.5Z"/><path class="cls-6" d="M137.22,102.89a3.62,3.62,0,0,0,1,1.69c.35.34,2.09.38,1.83-.39a4.74,4.74,0,0,0-1.06-1.75c-.34-.38-2.08-.37-1.83.39a7,7,0,0,0,1.11,2.11c.34.45,2.27.51,1.93-.27a9,9,0,0,0-2.07-3c-.27-.26-2-.4-1.86.25a5.45,5.45,0,0,0,1.67,2.8c.34.31,2.16.36,1.83-.39a8.71,8.71,0,0,0-1.17-1.91c-.37-.47-2.33-.39-1.93.27l2,3.28,1.93-.27a4.83,4.83,0,0,0-1.15-1.19c-.38-.28-2.06-.44-1.83.39a2.37,2.37,0,0,0,1,1.44c.33.23,2.17.41,1.83-.39a4.71,4.71,0,0,0-1.72-2.1c-.31-.22-2.26-.35-1.83.39a4.38,4.38,0,0,0,1.65,1.64c.36.22,1.68.28,1.71-.35a4.76,4.76,0,0,0-.37-2c-.24-.61-2.22-.45-1.93.27a4.88,4.88,0,0,0,1.31,1.87c.33.3,1.87.44,1.86-.25a4.56,4.56,0,0,0-.62-2.35l-1.93.27,1.28,1.93c.34.51,2.27.45,1.93-.27a16.85,16.85,0,0,0-1.61-2.68c-.35-.48-2.29-.45-1.93.27a9.42,9.42,0,0,0,2,2.63c.34.33,2.23.27,1.83-.39l-1.2-1.92-1.93.27a18.58,18.58,0,0,0,2.39,2.66c.33.3,2.19.34,1.83-.39a14.35,14.35,0,0,0-2-2.9c-.39-.45-2.23-.1-1.83.39a16,16,0,0,0,2,2.07c.33.28,2.26.27,1.83-.39a18.3,18.3,0,0,0-2.07-2.6c-.36-.38-2.24-.17-1.83.39a25.82,25.82,0,0,0,2.5,2.89c.37.37,2.25.16,1.83-.39a17,17,0,0,0-1.92-2.1c-.43-.4-2.35-.22-1.73.5a8.29,8.29,0,0,0,1.47,1.35c.34.24,2.31.2,1.83-.39L141.45,102c-.4-.48-2.35-.32-1.93.27a23.29,23.29,0,0,0,2.86,3.29c.38.36,2.26.14,1.83-.39l-2.47-3-1.83.39,1.64,1.83c.35.39,2.23.19,1.83-.39l-1.59-2.29-1.93.27,2.11,2.62,1.83-.39-2.09-2.42-1.73.5a36.79,36.79,0,0,1,2.6,3c.38.49,2.33.36,1.93-.27a4.94,4.94,0,0,0-.6-.77c-.29-.32-1.93-.41-1.86.25s.45.76.7,1.31l.26-.49-.12.07,1.67.22,0-.09-1.83.39.62.41c.3.2,2.3.31,1.83-.39a2.15,2.15,0,0,0-.81-.76c-.42-.27-2.26.07-1.57.61a9.63,9.63,0,0,1,1.19,1.1l1.37-.68c-2.06-.62-3.77.71-5.79.92l1.27.48A5.39,5.39,0,0,1,141,106l-2,.13.45.62c.34.46,1.84.6,2-.13a3.79,3.79,0,0,0,0-1.3c-.1-.69-1.94-.71-2,0a1.59,1.59,0,0,0,.62,1.46,1.52,1.52,0,0,0,1.73,0,1.21,1.21,0,0,0,.43-1.11c-.07-.64-1.8-.71-2-.13a1.12,1.12,0,0,0,0,.86c.16.55,1.33.36,1.67.22a1.26,1.26,0,0,0,.93-1.19c.08-.66-1.58-.57-1.86-.25l-.13.15a.32.32,0,0,0-.1.39c.46,1.3,2.57.41,3.24-.14l-1.83-.39c-.67,1.52,1.45,1.63,2.37,1.12s-.25-.87-.71-.85a6,6,0,0,0-2.55.6c-1,.5.8.89,1.21.79l1.51-.36-1-.86-1.41.54c-1,.38-.15.9.5.93a4,4,0,0,0,1.16-.09,8,8,0,0,1,1.14-.42l-.26-.49c-.14.47-1.32.19-1.69.22-1.18.08-1.22,1.08,0,1s3.15.63,3.62-1a.38.38,0,0,0-.26-.49,3.24,3.24,0,0,0-1.54-.29c-.74.05-1.45.55-2.19.51l.5.93,1.41-.54c1.26-.48-.34-1-1-.86l-1.51.36,1.21.79,1.13-.3-.71-.85-.34.19,1.21-.08.1-.26c.34-.78-1.5-.65-1.83-.39l.44.62-1.86-.25-.35.48,1.67.22v-.33l-2-.13-.16.61h1.73a.88.88,0,0,1-.34-1h-2a3.79,3.79,0,0,1,0,1.3l2-.13-.45-.62c-.37-.5-1.78-.57-2,.13a5.39,5.39,0,0,0-.19,1.5c0,.51,1,.51,1.27.48a10.73,10.73,0,0,0,1.89-.35c.65-.19,1.71-.86,2.36-.67.35.1,2,0,1.37-.68a9.63,9.63,0,0,0-1.19-1.1l-1.57.61.29.31,1.83-.39-.62-.41c-.3-.2-2.26-.37-1.83.39l0,.09c.28.49,1.25.44,1.67.22l.12-.07c.18-.1.36-.26.26-.49-.2-.43-.57-.43-.63-1l-1.86.25.4.53,1.93-.27a39.69,39.69,0,0,0-2.8-3.22c-.42-.44-2.34-.21-1.73.5l2.09,2.42c.38.44,2.23.12,1.83-.39l-2.11-2.62c-.39-.49-2.34-.33-1.93.27l1.59,2.29,1.83-.39L141.63,102c-.38-.43-2.24-.11-1.83.39l2.47,3,1.83-.39a21.53,21.53,0,0,1-2.65-3l-1.93.27,1.94,2.34,1.83-.39a8.29,8.29,0,0,1-1.47-1.35l-1.73.5a15.15,15.15,0,0,1,1.71,1.86l1.83-.39a23.71,23.71,0,0,1-2.3-2.65l-1.83.39a16.56,16.56,0,0,1,1.87,2.36l1.83-.39a14.21,14.21,0,0,1-1.83-1.83l-1.83.39a13.1,13.1,0,0,1,1.76,2.66l1.83-.39a16.88,16.88,0,0,1-2.19-2.42c-.37-.5-2.32-.37-1.93.27l1.2,1.92,1.83-.39a8.51,8.51,0,0,1-1.75-2.39l-1.93.27a16.85,16.85,0,0,1,1.61,2.68l1.93-.27-1.28-1.93c-.35-.53-2.3-.39-1.93.27a4,4,0,0,1,.55,2.08l1.86-.25a4.22,4.22,0,0,1-1.11-1.63l-1.93.27a3.78,3.78,0,0,1,.3,1.77l1.71-.35a3.13,3.13,0,0,1-1.13-1.19l-1.83.39a4.17,4.17,0,0,1,1.51,1.86l1.83-.39a2,2,0,0,1-.83-1.2l-1.83.39a2.81,2.81,0,0,1,1,1c.37.52,2.32.36,1.93-.27l-2-3.28-1.93.27a8.71,8.71,0,0,1,1.17,1.91l1.83-.39a4.48,4.48,0,0,1-1.4-2.29l-1.86.25a8.23,8.23,0,0,1,1.87,2.71l1.93-.27a7,7,0,0,1-1.11-2.11l-1.83.39a3.81,3.81,0,0,1,.86,1.51l1.83-.39a2.83,2.83,0,0,1-.84-1.45c-.18-.61-2.15-.5-1.93.27Z"/><path class="cls-6" d="M142.91,111.94l1.23,1.31,1.73-.5a14.73,14.73,0,0,1-3.16-3.13l-1.67.49a7.91,7.91,0,0,1,4.19,6.21l2-.13a11.38,11.38,0,0,0-1.67-2.93c-.34-.44-2.21-.56-1.93.27l.66,1.92,1.93-.27q-1-1.91-2-3.76l-1.93.27a8.06,8.06,0,0,1,1.86,4.34l2-.13-1.2-3.14-1.93.27c1.28,2.33,1.13,5.11,3,7.12.28.3,2,.41,1.86-.25a27.44,27.44,0,0,0-1.09-4.44l-1.93.27a12.09,12.09,0,0,1,1.53,3.43c.15.56,2,.5,2-.13a12.69,12.69,0,0,0-1.11-3.88l-1.93.27.8,1.45c.3.54,2.19.5,1.93-.27a15.08,15.08,0,0,0-1-2.24l-1.93.27a8.21,8.21,0,0,1,1.09,6.49l2-.13a19.71,19.71,0,0,1-.52-2.1l-2,.13a9.7,9.7,0,0,1,.73,2.78c.08.72,2.07.66,2,0a10.4,10.4,0,0,0-.8-3c-.22-.52-2.09-.49-2,.13.17.8.37,1.58.59,2.37.18.62,1.83.46,2-.13a8.56,8.56,0,0,0-1.16-6.75c-.34-.54-2.28-.41-1.93.27a15.08,15.08,0,0,1,1,2.24l1.93-.27-.8-1.45c-.31-.56-2.25-.44-1.93.27a11.93,11.93,0,0,1,1,3.62l2-.13a12.09,12.09,0,0,0-1.53-3.43c-.32-.5-2.19-.52-1.93.27a25.87,25.87,0,0,1,1,4.18l1.86-.25c-1.75-1.87-1.61-4.7-2.81-6.88-.3-.55-2.21-.48-1.93.27l1.2,3.14c.2.53,2,.51,2-.13a8.62,8.62,0,0,0-1.93-4.61c-.36-.45-2.33-.43-1.93.27q1.07,1.86,2,3.76c.29.56,2.19.49,1.93-.27l-.66-1.92-1.93.27a11.38,11.38,0,0,1,1.67,2.93c.21.53,2,.52,2-.13a8.79,8.79,0,0,0-4.78-6.91c-.27-.15-2.13-.14-1.67.49a15.67,15.67,0,0,0,3.36,3.37c.42.31,2.4.22,1.73-.5l-1.23-1.31c-.43-.46-2.35-.16-1.73.5Z"/><path class="cls-6" d="M146.25,122a2.34,2.34,0,0,1,.27,1.19c-.06.66,1.94.72,2,0a3,3,0,0,0-.34-1.46c-.26-.6-2.24-.43-1.93.27Z"/><path class="cls-6" d="M50.65,139.12l1.25,1.49A1.26,1.26,0,0,0,53,141c.23,0,.92-.13.87-.49a2.29,2.29,0,0,0-1.16-1.67c-.38-.24-1.88-.25-1.67.49A4.29,4.29,0,0,0,52,141a1.48,1.48,0,0,0,1.25.2c.2,0,.81-.26.58-.59a4.27,4.27,0,0,0-.77-.84c-.37-.3-2.06-.42-1.83.39a3.65,3.65,0,0,0,1,1.6,1.48,1.48,0,0,0,1.13.23c.2,0,.8-.17.73-.48a1.8,1.8,0,0,0-.58-1c-.33-.31-1.86-.44-1.86.25a1.12,1.12,0,0,0,.7,1,1.66,1.66,0,0,0,1.41,0c.35-.19.37-.52,0-.71-.12-.06-.11-.21-.11-.32L51.8,141a1,1,0,0,1,.3.52l1.86-.25a3.07,3.07,0,0,1-.78-1.36l-1.83.39a3.05,3.05,0,0,1,.57.6l1.83-.39A3.72,3.72,0,0,1,53,139l-1.67.49a1.37,1.37,0,0,1,.57,1l2-.13-1.25-1.49a1.35,1.35,0,0,0-1.23-.35c-.18,0-1,.27-.7.62Z"/><path class="cls-6" d="M61.53,132.85l4-4.09-1.83-.39q-.48,1.43-.92,2.87c-.24.77,1.48.74,1.83.39a7.56,7.56,0,0,0,1.56-2.3l-1.93-.27a12.82,12.82,0,0,0-.72,2.67c0,.31.54.46.73.48,1.71.24,2.57-1.35,3.17-2.73.32-.74-1.59-.77-1.93-.27a8.58,8.58,0,0,0-1.07,2.23c-.26.84,1.58.7,1.93.27a6.37,6.37,0,0,0,1.15-2.11c.27-.82-1.58-.72-1.93-.27l-1.68,2.21,1.93.27.87-2c.31-.69-1.66-.88-1.93-.27l-.87,2c-.34.76,1.58.72,1.93.27l1.68-2.21-1.93-.27a6.37,6.37,0,0,1-1.15,2.11l1.93.27a8.58,8.58,0,0,1,1.07-2.23l-1.93-.27a5.39,5.39,0,0,1-1.58,2.3l1.13-.23-.25,0,.73.48a11.58,11.58,0,0,1,.65-2.4c.28-.72-1.67-.87-1.93-.27a6.69,6.69,0,0,1-1.36,2.06l1.83.39q.44-1.44.92-2.87c.26-.77-1.49-.74-1.83-.39l-4,4.09c-.63.65,1.28,1,1.73.5Z"/><path class="cls-6" d="M60.8,129.61c1.25,1.61,3.22.71,4-.85l-2-.13c0,1.35-.35,3,1.39,3.11a1.58,1.58,0,0,0,1.84-1.66c0-.66-1.76-.66-2-.13a2.18,2.18,0,0,0,0,2c.23.53,1.69.51,1.93,0a1.38,1.38,0,0,0-.08-1.57,1.39,1.39,0,0,0-1.93,0,3,3,0,0,0-.64,2.2c0,.73,1.84.66,2,0a1.31,1.31,0,0,0-.45-1.44c-.32-.34-1.63-.42-1.83.12a1.93,1.93,0,0,0,.31,2.2c.28.35,2.1.61,2-.13-.27-1.49-1-2.57-2.7-2.44-2,.16-2.7,2.87-3.49,4.33h1.93c-1.19-3.77-4.92-2.94-6.29.22-.33.75,1.59.75,1.93.27.65-.93-.16-1.76-1.11-2-1.78-.39-2.63,1.1-4,1.9l1.71.35.23-1.5-2-.13V135c0,.7,2,.69,2,0v-.64c0-.66-1.78-.68-2-.13a3.14,3.14,0,0,0-.3,1.76c0,.63,1.36.56,1.71.35s.59-.44.88-.61c0,0,1.31-1,.84-.29l1.93.27c.32-.74.37-1.25,1.27-1.39s.87.24,1.17,1.16c.18.58,1.68.46,1.93,0l1-1.94c.3-.55.84-2.26,1.21-.22l2-.13a1.35,1.35,0,0,1-.31-1.67l-1.83.12a.71.71,0,0,1,.18.94h2a2.1,2.1,0,0,1,.56-1.93H64l.08,1h1.93l0-1.46-2-.13-.44.92,1.13-.23c.19,0,.08-2.22.08-2.15,0-.69-1.72-.63-2-.13l-.13.85c-.42-.54-2.34-.26-1.93.27Z"/><path class="cls-6" d="M45.29,139.3a19.64,19.64,0,0,1,1.19,5.43h2L47.57,140c-.14-.7-2.08-.66-2,0l.56,4.39h2L47,139.53c-.16-.67-2.07-.69-2,0l.47,5h2a32.72,32.72,0,0,1-.74-4.91h-2l.28,3.68h2L46.44,139h-2l.61,3.61c.12.72,2.11.63,2,0a6.91,6.91,0,0,1,0-2.52l-2,.13a19.84,19.84,0,0,1,1.48,3.68c.16.55,2,.51,2-.13a27.63,27.63,0,0,1,0-3.74h-2l1,5.23c.13.69,2.06.68,2,0l-.4-4.52h-2l.95,5.52c.12.68,2,.7,2,0L50,142.34H48l.73,3.48c.14.67,2,.7,2,0l-.13-2.58h-2a15.34,15.34,0,0,0,.61,3.48c.16.55,2,.51,2-.13l-.27-3.06h-2c.11,1.2.27,2.38.47,3.56.12.7,2.07.67,2,0l-.24-2.47h-2L50,148c.16.65,2,.72,2,0a16.4,16.4,0,0,0-.83-4.68c-.19-.57-2.1-.46-2,.13a30.63,30.63,0,0,1,.71,5l2-.13-1.1-2.81c-.21-.53-2.06-.51-2,.13l.67,4.53,2-.13-2-4.71c-.23-.54-2.12-.45-2,.13.36,1.36.77,2.7,1.25,4,.22.6,2.14.5,1.93-.27a19.64,19.64,0,0,0-1.73-4.27c-.25-.46-2-.56-2,.13a39.55,39.55,0,0,0,.66,4.51l2-.13L48,145.56c-.21-.52-2.06-.51-2,.13a30.2,30.2,0,0,0,.89,4.06l1.93-.27a21.17,21.17,0,0,1-1.33-3.59c-.18-.68-2.12-.65-2,0l.73,4.11,2-.13a14.87,14.87,0,0,1-1.46-8.47h-2c.17,5.81.94,12.47,6.84,15.25.36.17,2.28.07,1.57-.61a17.2,17.2,0,0,1-4.43-7l-1.93.27,4,5.89c.33.49,2.25.5,1.93-.27l-2.13-5.1-1.93.27,1.8,3.95c.23.5,2.06.52,2-.13-.21-1.36-.46-2.7-.75-4l-2,.13,1.35,3.43c.21.53,2.08.49,2-.13a25.43,25.43,0,0,0-1-3.71l-1.93.27a80.69,80.69,0,0,1,2.44,7.77l1.71-.35a8.18,8.18,0,0,1-2.77-2.52l-1.83.39a18.13,18.13,0,0,0,3.89,3.3c.4.26,2.24,0,1.57-.61a8.28,8.28,0,0,1-2.51-4.74c-.13-.72-2.11-.63-2,0a9.23,9.23,0,0,0,2.78,5.24l1.57-.61a16.92,16.92,0,0,1-3.57-3.09c-.36-.4-2.23-.18-1.83.39a10,10,0,0,0,3.28,3c.26.15,1.86.26,1.71-.35a83.43,83.43,0,0,0-2.51-8c-.22-.6-2.18-.48-1.93.27a23.8,23.8,0,0,1,.9,3.44l2-.13-1.35-3.43c-.21-.54-2.1-.47-2,.13.29,1.34.54,2.69.75,4l2-.13-1.8-3.95c-.27-.59-2.23-.45-1.93.27l2.13,5.1,1.93-.27-4-5.89c-.33-.48-2.2-.53-1.93.27a17.86,17.86,0,0,0,4.63,7.26L53,156c-5.54-2.62-6.09-9.15-6.25-14.54,0-.7-1.92-.7-2,0a15.35,15.35,0,0,0,1.53,8.73c.24.49,2.08.52,2-.13l-.73-4.11h-2a22.77,22.77,0,0,0,1.4,3.85c.27.57,2.15.51,1.93-.27a28.06,28.06,0,0,1-.82-3.79l-2,.13,1.59,3.9c.22.53,2.09.48,2-.13a39.55,39.55,0,0,1-.66-4.51l-2,.13a19.64,19.64,0,0,1,1.73,4.27l1.93-.27c-.45-1.24-.84-2.49-1.18-3.76l-2,.13,2,4.71c.22.52,2.06.51,2-.13l-.67-4.53-2,.13,1.1,2.81c.21.53,2,.53,2-.13a30.63,30.63,0,0,0-.71-5l-2,.13A15.16,15.16,0,0,1,50,148h2l-.84-3.36c-.17-.66-2.07-.7-2,0l.24,2.47h2c-.21-1.19-.36-2.37-.47-3.56-.07-.71-2.06-.67-2,0l.27,3.06,2-.13a13.59,13.59,0,0,1-.54-3.22c0-.71-2-.68-2,0l.13,2.58h2L50,142.34c-.14-.67-2-.71-2,0l.13,3.94h2l-.95-5.52c-.12-.69-2.06-.68-2,0l.4,4.52h2l-1-5.23c-.13-.67-2-.72-2,0a27.63,27.63,0,0,0,0,3.74l2-.13A19.84,19.84,0,0,0,47,140c-.28-.54-1.85-.54-2,.13a6.91,6.91,0,0,0,0,2.52h2L46.44,139c-.12-.71-2.08-.66-2,0l.54,4.29c.09.7,2.05.68,2,0l-.28-3.68c-.05-.71-2-.67-2,0a32.72,32.72,0,0,0,.74,4.91c.15.67,2.07.69,2,0l-.47-5H45l1.16,4.86c.16.68,2.09.68,2,0L47.57,140h-2l.92,4.74c.13.68,2.05.69,2,0a20.53,20.53,0,0,0-1.27-5.7c-.23-.61-2.2-.47-1.93.27Z"/><path class="cls-6" d="M49.59,148.39l1,2.61c.22.6,2.16.49,1.93-.27a14.67,14.67,0,0,1-.5-2.25l-2,.13.72,2c.19.54,2.06.49,2-.13a10.81,10.81,0,0,0-.47-1.86c-.21-.6-2.14-.5-1.93.27l.65,2.36c.17.61,2.14.51,1.93-.27l-.65-2.36-1.93.27a9.19,9.19,0,0,1,.39,1.59l2-.13-.72-2c-.19-.54-2.06-.5-2,.13a16.43,16.43,0,0,0,.57,2.52l1.93-.27-1-2.61c-.22-.61-2.2-.47-1.93.27Z"/><path class="cls-6" d="M46.44,144.86l.45,1.62,1.93-.27a13.48,13.48,0,0,0-.81-1.83c-.25-.46-1.75-.57-1.93,0a2.3,2.3,0,0,0,0,1.52l1.93-.27a1,1,0,0,1-.1-.69l-2,.13c.54,1,1.09,2.64,2.13,3.17.52.26,1.09.06,1.59.28s1,1,1.43,1.45,1.95.44,1.86-.25a8.8,8.8,0,0,0-.8-2.77c-.29-.6-2.25-.42-1.93.27a13.76,13.76,0,0,1,.84,2.44l2-.13-.37-.93c-.22-.54-2.11-.46-2,.13l.11.43c.18.72,2.15.59,2,0l-.11-.43-2,.13.37.93c.22.55,2.12.45,2-.13a15.28,15.28,0,0,0-.91-2.71l-1.93.27a7.88,7.88,0,0,1,.73,2.5l1.86-.25c-.86-.81-1.41-1.8-2.67-2-.22,0-.67.06-.83,0l-.31-.62-1.12-2c-.28-.49-1.92-.57-2,.13a1.9,1.9,0,0,0,.17,1c.25.59,2.16.5,1.93-.27a1.38,1.38,0,0,1,0-1H46.09a13.48,13.48,0,0,1,.81,1.83c.21.6,2.14.5,1.93-.27l-.45-1.62c-.17-.61-2.14-.51-1.93.27Z"/><path class="cls-6" d="M57.68,144.67c5.06-2,8.68-6,11.5-10.58l-1.93-.27L64,139.41l1.93.27,3.27-6.45c.38-.74-1.57-.69-1.93-.27l-.84.75c-.69.49,1.21.87,1.73.5a3.77,3.77,0,0,0,1-1L67.25,133,64,139.41c-.34.67,1.6.83,1.93.27l3.28-5.58c.37-.62-1.58-.84-1.93-.27-2.7,4.36-6.12,8.24-11,10.14-1,.39.84.93,1.41.71Z"/><path class="cls-6" d="M53.62,88.63c-.93-.28-1.86,0-2,1a14.4,14.4,0,0,0,0,2.32l0,2.32c0,.72,1.86.67,2,0a12.1,12.1,0,0,0,.15-4c-.08-.63-1.8-.72-2-.13l-.4,1.46,2,.13a2.15,2.15,0,0,1,.1-1.41H51.59a5.19,5.19,0,0,1,.31,2.15c0,.68,2,.71,2,0a5.86,5.86,0,0,0-.38-2.41c-.2-.53-1.72-.51-1.93,0a2.64,2.64,0,0,0-.17,1.67c.13.6,1.79.75,2,.13l.4-1.46-2-.13a12.1,12.1,0,0,1-.15,4h2l0-2.51c0-.51-.28-2.16.17-2.5l-1.37.18.18.05c.35.11,1.11.16,1.37-.18s0-.57-.36-.68Z"/><path class="cls-7" d="M53.54,157.81c-5.35-2.75-7.61-7.63-8.08-13.41-.45-5.63-3.13-11.1-2.62-16.77.22-2.49,1.58-4.65,1.79-7.12.23-2.71-.14-5.4.23-8.12a21.1,21.1,0,0,1,2.66-8c1.16-2,2.54-3.65,2.85-6,0-.32-1-.36-1,0-.37,2.81-2.44,4.85-3.62,7.33a22.75,22.75,0,0,0-2,7.44c-.31,3,.39,6.28-.5,9.21-.81,2.69-1.62,4.83-1.44,7.73a45.63,45.63,0,0,0,1.78,8.32c.8,3.13.64,6.34,1.3,9.48a14.86,14.86,0,0,0,7.93,10.18c.28.14,1.2-.1.71-.35Z"/><path class="cls-7" d="M79.37,67.37a13.1,13.1,0,0,1,7.16-3.54c2.31-.32,4.61.37,6.91-.07.89-.17,1.75-.59,2.64-.72,1.73-.25,3.31-.19,4.43,1.19a8.57,8.57,0,0,0,.62.92,2.36,2.36,0,0,0,2,.64c1.19-.07,2-.43,3.33-.42a8.34,8.34,0,0,1,5.25,1.89,39.23,39.23,0,0,1,4.53,4.32A18.6,18.6,0,0,0,120.47,75c2.25,1.21,5.51,1.71,5.86,4.76,0,.17.23.22.37.24,6,1.13,6.09,9.43,9.4,13.38A36.47,36.47,0,0,1,139,96.75c.76,1.17,1.22,2.51,1.87,3.74a32.82,32.82,0,0,0,4.83,6.44c.21.23,1.17.09.86-.25a39.4,39.4,0,0,1-3.84-4.79c-1.08-1.68-1.67-3.61-2.76-5.28a31.13,31.13,0,0,0-2.68-3.18,16.63,16.63,0,0,1-2.9-5.18c-1.07-2.85-2.07-6-4.75-7.75-.65-.43-1.62-.58-2.12-1.12-.81-.88-1-1.94-2-2.7a21.14,21.14,0,0,0-3.57-1.7,16.55,16.55,0,0,1-4.55-3.38c-2.26-2.23-4.31-4.73-7.25-6.09a9.43,9.43,0,0,0-3.15-.86c-1.2-.1-2.13.41-3.26.47-1.8.08-2-1.19-3.05-2a4.52,4.52,0,0,0-2.6-.81,16.36,16.36,0,0,0-4.11.81c-2.33.5-4.55,0-6.87.18a14.13,14.13,0,0,0-8.52,3.85c-.33.3.63.47.86.25Z"/><path class="cls-7" d="M53.16,95.37c4.55-3.16,5.66-9,9.63-12.66,2.28-2.1,5.28-3.08,7.64-5s2.11-6.92,5.5-7.68c.63-.14-.16-.51-.5-.43-2.87.64-3.05,3.34-4.15,5.64-1.51,3.15-5.42,4.24-8.1,6.23C58.32,85,57.26,91.67,52.3,95.12c-.34.24.61.43.86.25Z"/><path class="cls-7" d="M47.69,102.8c-2.14-.75-2.53-3.56-2.69-5.53a6.38,6.38,0,0,1,.3-3.08c.44-1,1.34-1.3,2.14-1.83,3.42-2.27.16-4.38-.68-7.19-1.58-5.3,5.89-6.78,9.11-8.72,3.81-2.29,7.43-9.61,12.84-7.33a.74.74,0,0,0,.84-.11A5.65,5.65,0,0,1,75,66.67c1,.14,1.86.63,2.84.69a1.94,1.94,0,0,0,2-.82c.2-.27-.76-.41-1-.13-.67.91-2.95-.24-3.9-.35a7,7,0,0,0-2.32.12,6.8,6.8,0,0,0-4.08,2.71l.84-.11c-4-1.68-7.46.89-10.16,3.68a21.27,21.27,0,0,1-7.4,5.2c-2.18.93-4.43,2-5.65,4.12s-.52,3.81.74,5.64a7,7,0,0,1,.9,1.52c.6,1.66-.51,2.5-1.72,3.34a4.79,4.79,0,0,0-1.53,1.27c-1.73,2.64-.56,8.6,2.57,9.69.35.12,1.12-.22.5-.43Z"/><path class="cls-6" d="M57.47,89.45l.86,6.8c.24,1.93,5.3,2.13,5.89.4a13.6,13.6,0,0,0,.68-6.38c-.16-1.12-1.69-1.42-2.6-1.47s-3,0-3.29,1.07a8.84,8.84,0,0,0-.35,3.77c.15,1.12,1.69,1.42,2.6,1.47s3,0,3.29-1.07l.59-1.91c.7-2.26-5.16-2.63-5.79-.8l-.32.94c-.76,2.23,5.16,2.64,5.79.8l.32-.94-5.79-.8-.59,1.91,5.89.4a7.17,7.17,0,0,1,.14-3l-5.89-.4a12,12,0,0,1-.46,5.58l5.89.4-.86-6.8c-.27-2.16-6.25-2-6,0Z"/><path class="cls-7" d="M62.5,121.08a3.47,3.47,0,0,0-2.77-2.59,10.19,10.19,0,0,0-4,.16l-3.35.58a5.73,5.73,0,0,1-2,.11,4.36,4.36,0,0,1-1.46-.62,9.29,9.29,0,0,1-4.27-8.46"/><path class="cls-7" d="M57.78,86.77a5.23,5.23,0,0,0-4-4.19,4.45,4.45,0,0,0-4.92,2.8c-.38,1.15.2,2.82,1.41,2.74"/><path class="cls-7" d="M67.61,78.17c-1.76-.2-3.84.63-5.16-.55a3,3,0,0,1-.74-1.12,5,5,0,0,1,4.84-6.81"/><path class="cls-7" d="M101,71.42A8,8,0,0,1,107.13,65"/><path class="cls-7" d="M50.71,143a2.71,2.71,0,0,0-1.62-1.89c-.78-.38-1.64-.56-2.42-.92A5.81,5.81,0,0,1,43.37,135"/><path class="cls-7" d="M52,151.57a5.05,5.05,0,0,0-5.55-2.41"/><path class="cls-7" d="M62.27,132.2a6.49,6.49,0,0,0-5.86-2.83c-1.88.17-3.65,1.17-5.54,1.13A6.68,6.68,0,0,1,46.1,128a15.68,15.68,0,0,1-2.6-4.85"/><path class="cls-7" d="M93,74.28c-.77-.67-.41-1.9-.11-2.87.84-2.72.5-6.16-1.87-7.75"/><path class="cls-7" d="M76.86,104.93c-.48-1.61-2.44-2.15-4.09-2.44l-10.5-1.84a15.83,15.83,0,0,1-3.67-1,8,8,0,0,1-4.19-4.39"/><path class="cls-7" d="M60.3,167.44a4.84,4.84,0,0,0,1.39,3,5.55,5.55,0,0,1,1.13,1.94c.27,1-.23,1.82-.14,2.81.23,2.42,2.61,2.21,4.43,2.24,4.13.06,8,2.41,12.18,2.32,2.33,0,2.86-2,3-4,0-.34-1-.36-1,0-.1,1.8-.51,3.1-2.62,3.46-1.32.23-3.32-.61-4.63-1a27.87,27.87,0,0,0-6.12-1.35,5.25,5.25,0,0,1-1,.06l-3.23-1.74.09-.76c0-.75.28-1.39.08-2.16-.5-1.86-2.54-2.79-2.55-4.86,0-.35-1-.35-1,0Z"/><path class="cls-7" d="M72,166.77c.3,3.88-4.08,6.75-4.34,10.64"/><path class="cls-7" d="M76,178.67c-.53-3.85,4.53-6.76,4.1-10.63"/><path class="cls-8" d="M148.37,125.24l-2.72-6.14a29.11,29.11,0,0,1-1.4-3.57,18.55,18.55,0,0,0-.78-2.49,11.33,11.33,0,0,0-.94-1.59c-1.39-2.08-2.22-3.74-3.62-5.82l-.57-.47a27.11,27.11,0,0,1-1.71-4.93,28.48,28.48,0,0,0-2.33-6.13c-2-3.65-5.41-6.37-8.95-8.59a27.11,27.11,0,0,0-9.84-4.11,13.47,13.47,0,0,0-10.22,2.14,8.66,8.66,0,0,1-2.47,1.61c-1.61.5-3.31-.38-5-.43a8.89,8.89,0,0,0-3.32.7A32.85,32.85,0,0,0,78.87,97.66a10.07,10.07,0,0,0-1.67,3.46c-.37,1.73,0,3.59-.52,5.27-.28.86-.82,1.77-.48,2.62a9,9,0,0,0,.86,1.22,3.8,3.8,0,0,1,.16,2.75,48,48,0,0,1-3.84,10.13l-7.08,15.11-.37.36c-2.06,2.06-4.2,4.17-6.9,5.26s-6.14.91-8.13-1.21a17.78,17.78,0,0,0,.57,4.36c1.06,4.94,2.14,9.94,4.41,14.46a13.55,13.55,0,0,0,5,5.91c2.28,1.3,5.39,1.42,7.38-.29a11.68,11.68,0,0,1,1.79-1.57,1.6,1.6,0,0,1,2.13.34l.56,1.29a36.9,36.9,0,0,0,7.61,7.08,122.59,122.59,0,0,0,11.49,8.12c10,6,22.16,9.16,33.64,6.87,0,0,8.4-2.19,13.05-8.51a45.14,45.14,0,0,1,3.12-3.72c1.5-1.64,3.39-2.91,4.73-4.68a20.32,20.32,0,0,0,2.85-6.37,25.73,25.73,0,0,0,1.65-8.4c-.06-2-.59-4-.62-6a32.88,32.88,0,0,1,.45-4.67,46.39,46.39,0,0,0-1-16.95c-.2-.8-.42-1.6-.64-2.4l-.82-3"/><path class="cls-9" d="M89.31,126.22s1-4.6,4.65-4.6a7.06,7.06,0,0,1,6,2.73S90.64,123.76,89.31,126.22Z"/><path class="cls-9" d="M126.93,120.82s1.27-4.17,4.74-4.17,5.23,1.91,5.77,3.44"/><path class="cls-10" d="M100,156.84s10.69-10.38,14.25-10.23,8.49.23,11.14-.91S135.52,148,137,154a15.08,15.08,0,0,1-5.15,9.63s-9.1,3.79-21.15,0C106.86,162.07,100,156.84,100,156.84Z"/><path class="cls-8" d="M100.26,156.9a78.17,78.17,0,0,1,9.18-7.8,17.29,17.29,0,0,1,3.27-2c1.54-.63,3.21-.34,4.84-.33a35.42,35.42,0,0,0,4.92-.25c1.44-.2,2.88-1,4.32-1,3.39,0,7,2.86,8.76,5.6,1.51,2.37,1.32,4,.3,6.54s-2.7,5.44-5.38,6.25a31,31,0,0,1-9,1.22,27,27,0,0,1-14.39-3.72c-2.34-1.45-4.61-3-6.8-4.72-.12-.09-.6,0-.43.13,2.13,1.63,4.33,3.18,6.6,4.6A26.37,26.37,0,0,0,119,165.38a33.84,33.84,0,0,0,10.22-.78,7,7,0,0,0,4.83-3c1.47-1.86,3.34-5,3.18-7.56-.19-3.08-3.72-6-6.19-7.38a7.76,7.76,0,0,0-6.31-.89,25.2,25.2,0,0,1-7.62.78,13.53,13.53,0,0,0-4.1.13c-2.83.86-5.44,3.24-7.65,5.08-1.92,1.6-3.79,3.26-5.58,5C99.66,156.93,100.14,157,100.26,156.9Z"/><path class="cls-11" d="M101.92,157.12a30.31,30.31,0,0,0,5.82-1.56c3.51-1.33,7-3.35,10.73-3.07a21.17,21.17,0,0,0,3.38.28,13.82,13.82,0,0,0,2.87-.76c3.79-1.18,8.27-.84,11.25,1.78l-1.86,2.61a3.22,3.22,0,0,1-.79.87c-.86.57-2,.2-3-.05-3.06-.78-6.28-.34-9.41.11l-12.27,1.75a11.46,11.46,0,0,1-1.64.15,7.2,7.2,0,0,1-4.9-2.19"/><path class="cls-12" d="M110.17,140.43s-1.2-1.72,1.12-1.57,5.29,2.1,7.66,2.17"/><path class="cls-12" d="M125.35,138.85s2-2.34,2.73-2.06,1.19.64,1.19,1"/><path class="cls-13" d="M74.74,120.75l-.08.86c0,.36.85.29,1,.07a3.53,3.53,0,0,0,.33-.73c.13-.4-.8-.37-1-.13l-.59.84,1,.13.52-1.35c.16-.4-.79-.34-1-.13a2,2,0,0,0-.46,1.19c0,.34,1,.36,1,0a1.74,1.74,0,0,1,.43-1.05l-1-.13-.52,1.35c-.15.39.8.37,1,.13l.59-.84-1-.13a3.53,3.53,0,0,1-.33.73l1,.07.08-.86c0-.33-1-.36-1,0Z"/><path class="cls-13" d="M76.68,121.87a9.71,9.71,0,0,0,1.74-.62c1.94-.88-1.16-1.77-1.95-1.67a13.18,13.18,0,0,0-1.84.37l2,1.73c1.92-.67,3.85-1.5,5.81-2a10.61,10.61,0,0,0,4-1.44c.75-.56-.2-1.2-.72-1.37a3.2,3.2,0,0,0-2.74.36c-.93.69-2.86.79-3.94,1.16l-4.47,1.57c-.66.23-1.3.7-.72,1.37s2,.55,2.74.36l.88-.17-1.95-1.67a3.24,3.24,0,0,1-.93.31c-.7.17-1.27.73-.72,1.37s2,.54,2.74.36Z"/><path class="cls-13" d="M87,118l.93-.51c1.58-.72-1.21-1.31-1.82-1.18L84,116.8l1.51,1.3a81.85,81.85,0,0,1,10.68-2.69c3.14-.51,7.62-.8,9.82,1.95.64.8,3.51.37,2.89-.4-2.3-2.87-6-3.47-9.58-3.38-5.2.14-10.39,1.72-15.33,3.22-1.92.58.52,1.52,1.51,1.3l2.09-.47-1.82-1.18a7.9,7.9,0,0,0-1.4.81c-1,.71,1.81,1.29,2.59.76Z"/><path class="cls-13" d="M84.79,117.73c-3.7,3.76-5.35,8.79-3,13.7s8.08,6.51,13.19,6.58a15,15,0,0,0,7.26-2c2.24-1.14,4.69-2.16,6.38-4.07a13,13,0,0,0,3.3-7.3c.25-3.07-1.24-5.37-3.19-7.59-.41-.47-2.34-.19-1.73.5,3.53,4,3.77,8.44.67,12.86-2.42,3.44-8.55,6.52-12.68,6.56-5.15,0-9.8-2.06-11.74-7-1.67-4.2.29-8.75,3.31-11.81.64-.64-1.28-1-1.73-.5Z"/><path class="cls-13" d="M110.28,118.25a5.55,5.55,0,0,1,.85-1.38l-1.93-.27a8.69,8.69,0,0,0-.83,1.71l2,.13a3.69,3.69,0,0,1,1-1.74c.29-.33,0-.57-.36-.68s-.53-.41-.79-.54a4.38,4.38,0,0,0-1.16-.38c-.93-.19-1.88-.28-2.82-.41-.31,0-1.11,0-1.23.35s.39.57.7.62c.85.12,1.74.17,2.58.36.65.15,1.08.65,1.71.86l-.36-.68a4.64,4.64,0,0,0-1.27,2.24c-.11.62,1.77.67,2,.13a8.69,8.69,0,0,1,.83-1.71c.41-.65-1.55-.72-1.93-.27a5.55,5.55,0,0,0-.85,1.38c-.3.7,1.67.88,1.93.27Z"/><path class="cls-13" d="M111.28,117.26a4,4,0,0,0,1.21-.84c.7-.64-1.2-.82-1.57-.61A18.81,18.81,0,0,0,109.1,117l1.73.5a5.62,5.62,0,0,1,1.66-1c.93-.44-.54-.92-1-.84h-1l.24.91,1-.17c1.14-.13.65-1-.27-1l-1.18-.17-.71.85a25,25,0,0,0,6.06-.57l-1-.86-3.54,1.17c-1.18.39.15,1,.77.91a12.72,12.72,0,0,0,1.76-.3c1.18-.26-.13-1-.77-.91a8.27,8.27,0,0,0-2.21.61c-.84.36.3.87.71.85,1.68-.06,2.84-.93,4.49-1.27l-.77-.91-2.87.93c-1.17.38.13,1,.77.91a26.49,26.49,0,0,0,3.82-.81c1.25-.36-.31-1.06-1-.86l-2.51.7c-1.28.36.34,1,1,.86a15.64,15.64,0,0,0,2.86-1c.85-.37-.32-.85-.71-.85l-1.35,0,.5.93a34.26,34.26,0,0,1,4.37-.89l-1-.84a5.59,5.59,0,0,1-2.55.87l.53,1c1-.15,2-.66,3-.23v-.71c.6-.38-2.65,0-2.82,0-.86.14-.91.86,0,1a23.87,23.87,0,0,1,2.39.09c2.58.61,2,2.46,1.9,4.32a8.13,8.13,0,0,0,1.44,5.54c.34.49,2.27.48,1.93-.27a15.74,15.74,0,0,1-1.1-3.25c-.16-.72-2.14-.6-2,0a17.66,17.66,0,0,0,1.17,3.51l1.93-.27a7.83,7.83,0,0,1-1.37-5.27c.08-1.28.35-2.53-.31-3.7-1.13-2-3.54-1.45-5.45-1.67v1c1.17-.19,2.67.39,3.7-.27.31-.2.42-.52,0-.71-1.72-.77-3.14-.31-4.94,0-1.33.21-.41,1.1.53,1a9.61,9.61,0,0,0,3.43-1.13c.92-.51-.55-.89-1-.84a38,38,0,0,0-4.85,1c-1,.28-.1.92.5.93l1.35,0-.71-.85a13,13,0,0,1-2.46.8l1,.86,2.51-.7-1-.86a23.28,23.28,0,0,1-3.35.71l.77.91,2.87-.93c1.14-.37-.1-1.06-.77-.91-1.22.26-2.8,1.2-4,1.24l.71.85,1.33-.36-.77-.91-1.28.19.77.91,3.54-1.17c1.29-.42-.36-1-1-.86a20.82,20.82,0,0,1-5.05.44c-.4,0-1.56.52-.71.85a6.63,6.63,0,0,0,2.59.46l-.27-1a10.2,10.2,0,0,0-1.46.27c-.86.22-.34.79.24.91a4,4,0,0,0,2.09,0l-1-.84a10,10,0,0,0-2,1.24c-.69.55,1.24.86,1.73.5a10,10,0,0,1,1.51-1l-1.57-.61-.89.64c-1,.52.85,1,1.41.71Z"/><path class="cls-13" d="M120.39,115a4.94,4.94,0,0,0,2.5-.79c.33-.25,0-.53-.26-.65a1.72,1.72,0,0,0-1.31,0,1.41,1.41,0,0,1-1,.1v1a14.9,14.9,0,0,0,5.32-1.76c1-.6-.87-1.05-1.41-.71a12.34,12.34,0,0,1-4.44,1.5c-.86.17-.91.82,0,1a5.38,5.38,0,0,0,3-.36l-1.57-.61a2.67,2.67,0,0,1-1.3.33c-.32,0-.83.21-.7.62s.95.39,1.23.35Z"/><path class="cls-13" d="M120.05,115a4.23,4.23,0,0,0,1.37,1.37c.52.26,1.79.31,1.89-.46s-1.9-.72-2,0V116l.29-.35-.08,0,1.21-.08c.16,0,.24.18.06,0l-.31-.28a4.27,4.27,0,0,1-.49-.59,1.31,1.31,0,0,0-1.23-.35c-.21,0-1,.25-.7.62Z"/><path class="cls-13" d="M123.6,116.18c2-4.25,6.29-5.95,10.59-7.09,1.26-.33-.31-1.05-1-.86-4.62,1.23-9.33,3.12-11.51,7.69-.32.67,1.64.87,1.93.27Z"/><path class="cls-13" d="M122.5,125.48c1.88,2.06,3.61,4.06,6.25,5.13a14.63,14.63,0,0,0,7.53,1.16c1.32-.22.41-1.12-.53-1-4.87.81-8.56-2.58-11.53-5.84-.42-.46-2.35-.18-1.73.5Z"/><path class="cls-13" d="M136.28,131.78c-.33.19,1.54-.15,1.89-.24a37.43,37.43,0,0,0,4.23-1.27,11.5,11.5,0,0,0,7.14-13.85,12.05,12.05,0,0,0-2.21-4.42c-1.05-1.26-2.51-2.06-3.51-3.38-.41-.54-2.33-.27-1.93.27,1.51,2,3.68,3.11,4.82,5.43a10.87,10.87,0,0,1,.28,9.62,10.56,10.56,0,0,1-7,5.93,18.1,18.1,0,0,1-3.54.9,3.19,3.19,0,0,0-1.63.31c-1,.56.86,1,1.41.71Z"/><path class="cls-13" d="M134.52,108.84l1,.05c.93,0,1.38-.76.27-1l-1-.19-.53,1,3.41.28c.9.07,1.89-.74.53-1l-2.25-.37-.27,1a34.55,34.55,0,0,1,4.78.12v-1h-1.88c-.61-.06-2,.58-.77.91l4.29,1.19c.27.08,1.85.06,1.47-.56L142.8,108l-1.93.27a2.1,2.1,0,0,1,.44.9l1.93-.27a3.36,3.36,0,0,0-.65-1c-.28-.35-2.06-.63-2,.13l.07.54c.09.71,2.05.67,2,0a2,2,0,0,0-.24-1c-.13-.3-.69-.37-1-.37-1.56,0-3.1.09-4.64.24-1.12.1-.67,1,.27,1a32,32,0,0,1,7.16.32l-.24-.91a4.45,4.45,0,0,0-1.49.71c-.63.42.63.75.86.75h1.54l-.5-.93-1.29.37c-1.17.34.12,1,.77.91l1.42-.22c1.36-.21.38-1-.53-1l-.77.06.77.91,1.4-.4c.61-.18.6-.69,0-.86-.78-.23-1.56-.41-2.36-.58v1l1.5-.2c.89-.12.89-.84,0-1l-2.21-.3.24.91,1.26-.21c1.12-.09.68-1-.27-1a16.39,16.39,0,0,0-4.34.46c-1,.33-.17,1,.5.93a36,36,0,0,1,6.75.29c.39.05,2-.43,1-.84a6.73,6.73,0,0,0-4-.46c-1.09.2-.7,1,.27,1a12.49,12.49,0,0,1,2.92.19l.53-1a7.88,7.88,0,0,1-2.28-.5l-.77.91a17.27,17.27,0,0,1,3.16.66l.5-.93a13.56,13.56,0,0,0-2.43.09c-.66.08-1,.66-.24.91a6.09,6.09,0,0,0,1.87.32c.92,0,1.4-.79.27-1a9.51,9.51,0,0,0-2.63-.08c-.43,0-1.12.52-.44.84a5.9,5.9,0,0,0,1.73.54v-1l-1.26.14c-.88.1-.9.89,0,1a10,10,0,0,0,1.6,0c1.14-.09.66-1-.27-1l-1.6,0c-1.2,0-1.2,1,0,1,1.56.06,3.65-.11,5.1.49.51.21,2.44-.12,1.41-.71a18.25,18.25,0,0,0-3.17-1.41l-.77.91,1.4.45,1.21-.79a14.39,14.39,0,0,1-2.51-1l-.71.85a7,7,0,0,1,4,1.25l1.57-.61-1.39-.76-1.21.79q1.22-.12,1,1.2l1.83.39.28-.76c.28-.76-1.61-.79-1.93-.27a13.62,13.62,0,0,1-.79,1.23l2,.13-.08-1c-.05-.65-1.78-.7-2-.13l-.19.58,2,.13a3.18,3.18,0,0,0-.25-1.13c-.19-.54-2-.5-2,.13a3.61,3.61,0,0,1-.79,2.94l1.93.27a10.2,10.2,0,0,1,1-1.29l-1.93-.27-.16.57c-.23.8,1.47.71,1.83.39a10.89,10.89,0,0,0,1.44-1.57c.41-.54-1.51-.77-1.93-.27l-1,1.21,1.93.27,1.13-1.82-1.93-.27c-.48,1.25-1.05,2.79-2.79,2.83l.71.85,1-.54c.91-.49-.54-.91-1-.84a6.29,6.29,0,0,1-1.93.16l.27,1a11,11,0,0,0,3.54-.95l-1.57-.61a3.82,3.82,0,0,1-2.4,1.33c-1.34.24-.39,1.07.53,1a12.72,12.72,0,0,0,2.49-.52c1.28-.4-.34-1-1-.86l-1.18.28c-1.27.3.32,1,1,.86,1.44-.32,5-2.45,4.31-4.27-.23-.61-2.2-.47-1.93.27.44,1.19-2.54,2.95-3.4,3.14l1,.86,1.18-.28-1-.86a6.65,6.65,0,0,1-2,.42l.53,1a6.23,6.23,0,0,0,3.59-1.79c.71-.71-1.23-.76-1.57-.61a6.26,6.26,0,0,1-2.66.69c-1.15.11-.64,1,.27,1a12.34,12.34,0,0,0,2.46-.19l-1-.84-1,.54c-.79.43.26.86.71.85,2.49,0,3.84-1.26,4.71-3.56.29-.76-1.61-.79-1.93-.27l-1.13,1.82c-.41.65,1.55.72,1.93.27l1-1.21-1.93-.27a6.39,6.39,0,0,1-1.24,1.33l1.83.39.16-.57c.24-.85-1.57-.7-1.93-.27a10.2,10.2,0,0,0-1,1.29c-.4.58,1.53.78,1.93.27a4,4,0,0,0,.86-3.21l-2,.13.18.87c.06.65,1.78.7,2,.13l.19-.58-2-.13.08,1c.06.74,1.66.58,2,.13a13.62,13.62,0,0,0,.79-1.23l-1.93-.27-.28.76c-.29.78,1.49.69,1.83.39,1.7-1.54-.07-2.22-1.67-2.57-.41-.09-2.24.22-1.21.79l1.39.76c.43.23,2.28-.12,1.57-.61a9.79,9.79,0,0,0-5.7-1.75c-.44,0-1.5.43-.71.85a16.59,16.59,0,0,0,2.92,1.21c.47.14,2.22-.31,1.21-.79a8.46,8.46,0,0,0-2.28-.71c-.65-.11-1.93.52-.77.91a15.45,15.45,0,0,1,2.77,1.25l1.41-.71c-2-.85-4.33-.69-6.51-.78v1l1.6,0-.27-1H146v1l1.26-.14c.93-.1.85-.81,0-1l-.85-.28-.44.84,1.57.08.27-1-.87-.18-.24.91a7.09,7.09,0,0,1,1.9-.06c.66,0,1.5-.62.5-.93a19.76,19.76,0,0,0-3.64-.76c-.62-.07-2,.53-.77.91a14.55,14.55,0,0,0,2.76.6c.92.11,1.87-.72.53-1a14.69,14.69,0,0,0-3.46-.23l.27,1,2.1.2,1-.84a39,39,0,0,0-7.28-.33l.5.93a13.91,13.91,0,0,1,3.33-.33l-.27-1a7,7,0,0,0-1.73.31c-.81.22-.39.83.24.91l2.21.3v-1l-1.5.2c-.93.13-.84.79,0,1a17.76,17.76,0,0,1,1.88.48v-.86l-1.4.4c-1.21.35.17,1,.77.91l.77-.06-.53-1-1.42.22.77.91,1.29-.37c1-.3.12-.93-.5-.93h-1.54l.86.75.77-.35c.82-.25.38-.8-.24-.91a34.47,34.47,0,0,0-7.69-.36l.27,1c1.37-.13,2.74-.19,4.11-.2l-1-.37.17.69h2l-.07-.54-2,.13a3.36,3.36,0,0,1,.65,1c.3.54,2.2.5,1.93-.27a2.1,2.1,0,0,0-.44-.9c-.36-.55-2.31-.36-1.93.27l.79,1.31,1.47-.56-4.29-1.19-.77.91a14.1,14.1,0,0,0,2.95,0c.89-.09.89-.88,0-1a38.36,38.36,0,0,0-5.31-.15c-.88,0-1.44.79-.27,1l2.25.37.53-1-3.41-.28c-.91-.08-1.88.7-.53,1l1,.19.27-1-1-.05c-1.2-.06-1.19.94,0,1Z"/><path class="cls-14" d="M108.46,134.07a4.27,4.27,0,0,0-3.15,5.37c.46,1.93,2.42,2.29,4,1.54.25-.12-.21-.24-.35-.18-3,1.42-3.41-1.67-3.14-3.47a3.51,3.51,0,0,1,2.76-3c.33-.07.1-.29-.13-.24Z"/><path class="cls-14" d="M128.38,132.94c1.67,1.07,2.24,4.09.57,5.43-.17.14.31.23.43.13,1.82-1.45,1.14-4.59-.65-5.73-.14-.09-.59,0-.35.18Z"/><path class="cls-14" d="M118.58,141c2,.7,4.83.69,5.8-1.54.08-.17-.42-.22-.48-.07-.87,2-3.28,2-5.06,1.39-.18-.06-.56.11-.25.22Z"/><g class="cls-15"><path class="cls-14" d="M131.15,135.29c3.65,2.36,7.17,5.15,9.33,9a15.68,15.68,0,0,1,1,2.11c.66,1.74.42,2.21-.35,3.78a7.87,7.87,0,0,0-.94,4.48c0,.36,1,.33,1,0a7.28,7.28,0,0,1,.54-3.67c.37-.82,1.17-1.45,1.3-2.34.25-1.6-1.19-3.88-2-5.16-2.25-3.62-5.65-6.27-9.19-8.55-.27-.17-1.18,0-.71.35Z"/></g><g class="cls-15"><path class="cls-16" d="M100.55,172.47c5.73,6.55,11.35,13.14,20.63,13.43,1.71.05,3.5.47,5.2.15a30,30,0,0,0,5.23-1.7c3.72-1.49,7.09-3.87,8.3-7.85.11-.38-.87-.44-1-.13-1.08,3.55-3.9,5.84-7.21,7.29-2.17,1-4.9,2-7.31,1.93l-4-.21c-8.38-.38-13.89-7.31-19-13.15-.21-.24-1.17-.1-.86.25Z"/></g><g class="cls-17"><path class="cls-18" d="M153.07,108.59c-2.59-1.54-5.52-1.68-8.46-1.62a56.59,56.59,0,0,0-11,1c-3.54.79-6.19,2.54-9.36,4.17a22.91,22.91,0,0,1-7,1.9,47.16,47.16,0,0,1-7.59,1c-4.16,0-8.11-1.59-12.36-1.42a37.87,37.87,0,0,0-10.85,2.41l-6.28,2.17c-1.46.5-4.26.93-5.43,1.88-.82.66-1.4,2.63-1.89,3.57-.1.19.38.15.46.1,2.55-1.91,5.53-2.7,8.48-3.72a27.65,27.65,0,0,1,3-1.19c-.61-.31-1.66,1.28-2,1.74a10.27,10.27,0,0,0-.27,12c5.38,7.77,16.21,6.37,23.21,1.87a12.27,12.27,0,0,0,4.2-4.11c1.19-2.08,2.31-5.63,1.79-8-.24-1.09-1.27-1.94-1.49-2.92-.62-2.78,3.38-2.64,5.08-3a15.46,15.46,0,0,1,3.81-.64c3.19.06,2.55,1.76,2.38,4-.72,9.54,10.07,13.47,17.8,11.82,5-1.07,9.72-4.55,10.5-10,.65-4.48-1.27-10.34-5.78-12-.17-.06-.56.1-.25.22,3.75,1.39,5.06,5.27,5.48,8.92a11.61,11.61,0,0,1-3.24,9.1c-5.34,6.08-17.44,5.14-22-1.34a11.06,11.06,0,0,1-1.79-8.15c.19-1.64-.18-2.48-1.9-3-2-.61-4.16.63-6.05,1s-3.89.53-5,2.44a.07.07,0,0,0,0,.07,7.81,7.81,0,0,1,1.71,7.17,12,12,0,0,1-3.73,6.94,20.64,20.64,0,0,1-15,4.94c-4.39-.51-8.72-3.27-10.36-7.49a10.3,10.3,0,0,1,3.68-11.87c.18-.14-.3-.2-.39-.15-3.4,1.73-7.28,2.31-10.6,4.21-.25.14-1.58.83-1.16,1.14,0,0,.62-1.19.65-1.25.58-1.12.78-1.91,1.92-2.43,3.93-1.79,8.42-3,12.53-4.32a30.22,30.22,0,0,1,15.07-1.34,40.31,40.31,0,0,0,5.65,1.06,29.17,29.17,0,0,0,5.77-.68c3.62-.59,7.19-.94,10.42-2.78a30.56,30.56,0,0,1,12.59-4.33c4.59-.47,10.7-1.28,14.81,1.18.14.08.6,0,.35-.18Z"/></g><g class="cls-17"><path class="cls-18" d="M143.88,109.83a18.1,18.1,0,0,1,4.25-.12c.67.07,2.29.05,1.89,1.29-.25.78-1.89,1-2.53,1-.3,0-.3.24,0,.25.75,0,4.31-.9,3.19-2.13-.5-.55-2.21-.6-2.89-.65a20.24,20.24,0,0,0-4,.17c-.33,0-.1.27.13.24Z"/></g><g class="cls-17"><path class="cls-18" d="M148.32,113.7a5.09,5.09,0,0,0,4.1-1.91c.41-.52,1.79-3,.54-3.22-.23,0-.46.17-.13.24.72.15-.82,2.84-1,3.1a4.52,4.52,0,0,1-3.46,1.54c-.3,0-.3.24,0,.25Z"/></g><g class="cls-17"><path class="cls-18" d="M86.48,118.5A20.22,20.22,0,0,1,96,115.31c3.71-.36,8.94-.8,11.4,2.48,3.53,4.73,3.67,11.3-1.29,15.08a24,24,0,0,1-8.61,3.75,11.31,11.31,0,0,1-8.11-.48c-1.44-.63-3.21-1.19-4.18-2.42-3.87-4.9-3.15-12.27,2.13-15.79.17-.12-.3-.21-.43-.13a10.39,10.39,0,0,0-4.68,9.11c.13,3.17,1.58,7.11,4.62,8.49s5.65,2.53,9.17,1.86A25.26,25.26,0,0,0,106.52,133a9.73,9.73,0,0,0,3.93-8.9c-.33-3-2-7.14-5-8.51-2.69-1.26-6.8-.79-9.65-.51a20.84,20.84,0,0,0-9.79,3.3c-.17.12.3.21.43.13Z"/></g><g class="cls-17"><path class="cls-18" d="M123.2,116.29c3.11-5.25,9.44-7.46,15.31-7.31,6.95.17,10.64,7.73,9.06,13.93-1.71,6.71-10.06,8.82-16.1,7.27-6.35-1.63-9-7.84-8.26-13.93,0-.16-.48-.18-.5,0-.8,7,2.88,13.52,10.2,14.48,5.93.77,13.51-1.28,15.18-7.78,1.56-6.09-2-13.69-8.75-14.19-6.25-.46-13.3,1.86-16.62,7.46-.09.15.4.21.48.07Z"/></g><g class="cls-17"><path class="cls-18" d="M107,115.55a8.61,8.61,0,0,0,.7,1c.28.33.74.65.86,1.08,0,.16.41.17.49,0,.17-.31.71-1,.33-1.28a5.2,5.2,0,0,0-.88-.35c-.37-.18-.72-.38-1.08-.57-.14-.07-.6,0-.35.18a17.08,17.08,0,0,0,1.55.78c.24.1.44.08.36.38a4.2,4.2,0,0,1-.4.8l.49,0a2.06,2.06,0,0,0-.63-.88,8.08,8.08,0,0,1-.95-1.23c-.09-.14-.58-.08-.48.07Z"/></g><g class="cls-17"><path class="cls-18" d="M121.43,114.81a2.73,2.73,0,0,0,.68.8.36.36,0,0,0,.46,0l1.34-2c.11-.16-.37-.17-.46-.1a4.76,4.76,0,0,1-1.9,1.19c-.31.08.08.26.25.22a5.18,5.18,0,0,0,2.08-1.28l-.46-.1-1.34,2,.46,0a2.52,2.52,0,0,1-.63-.74c-.08-.15-.57-.09-.48.07Z"/></g><path class="cls-19" d="M166.61,125.5h.25c.3,0,.3-.25,0-.25h-.25c-.3,0-.3.25,0,.25Z"/><g class="cls-15"><path class="cls-14" d="M95,158.53c-.82-1.43-2.24-3.46-2.21-5.17,0-1.88,1.85-3.45,2.94-4.81l7.16-9c.2-.25-.75-.4-1-.13-2.79,3.49-5.58,7-8.36,10.46-1.11,1.4-2,2.41-1.66,4.29a15.68,15.68,0,0,0,2.12,4.46c.17.29,1.14.18,1-.13Z"/></g><g class="cls-20"><path class="cls-14" d="M117.36,116.4c-1.37,4.74,2.8,9.88,5.53,13.29.21.27,1.17.12,1-.13-2.66-3.31-6.87-8.43-5.53-13,.11-.38-.88-.44-1-.13Z"/></g><path class="cls-12" d="M102.36,111.46a11.67,11.67,0,0,0-2.13-2.63"/><path class="cls-12" d="M100.25,110.85a1.34,1.34,0,0,0-.64-.83q-.67-.5-1.38-1a1.62,1.62,0,0,0-1-.36"/><path class="cls-12" d="M97.52,110.69A1.92,1.92,0,0,0,97,110a2.43,2.43,0,0,0-.93-.44,7.71,7.71,0,0,0-2.52-.28"/><path class="cls-12" d="M95.2,110.89a4,4,0,0,0-2.29-1l-1.22-.23"/><path class="cls-12" d="M92.47,111.51a3.85,3.85,0,0,0-3.38-.49"/><path class="cls-12" d="M90.86,112.51a5.71,5.71,0,0,0-3.42.23"/><path class="cls-12" d="M89,113.83a4.39,4.39,0,0,0-3.6.71"/><path class="cls-12" d="M87.83,114.74a10.37,10.37,0,0,0-2.69.87"/><path class="cls-12" d="M93.42,113.37a2.61,2.61,0,0,0-1.86-1.08"/><path class="cls-12" d="M95.41,113A5,5,0,0,0,94,111.49"/><path class="cls-12" d="M97.86,112.88a2.25,2.25,0,0,0-1.3-1.6"/><path class="cls-12" d="M99.68,112.87a4,4,0,0,0-.79-1.7"/><path class="cls-12" d="M101,112.56l-.15-.5"/><path class="cls-12" d="M123.18,107.87a6,6,0,0,1,3.24-2"/><path class="cls-12" d="M125.62,107.78a5.18,5.18,0,0,1,3.65-1.65"/><path class="cls-12" d="M127.74,108a5.34,5.34,0,0,1,2.73-.6"/><path class="cls-12" d="M129.46,108.7a2.42,2.42,0,0,1,1-.12"/><path class="cls-12" d="M132.86,107.33a3.08,3.08,0,0,1,1.53,0"/><path class="cls-12" d="M130.3,106.14a1.29,1.29,0,0,1,1.32.09"/><path class="cls-12" d="M130.73,106.68a.47.47,0,0,1,.57.06"/><path class="cls-12" d="M131.67,108.13a.51.51,0,0,1,.38-.05"/><path class="cls-21" d="M89.31,126.22a6.24,6.24,0,0,1,5-3.6,6.65,6.65,0,0,1,5.67,1.73,9.18,9.18,0,0,1-4.89,1.84A39.68,39.68,0,0,1,89.31,126.22Z"/><path class="cls-21" d="M126.42,121.76s1.93-4.56,6.08-4.17,5,2.6,5,2.6-1.22,1.29-4.62,1.57A42.22,42.22,0,0,1,126.42,121.76Z"/><path class="cls-22" d="M96.89,122.54s1.48,3-2.55,3.68-3.56-2.13-3.56-2.13a6.21,6.21,0,0,1,2.77-1.55A22.16,22.16,0,0,1,96.89,122.54Z"/><path class="cls-22" d="M131.29,117.57s3.57-.43,3.1,2.16-5.92,3.42-6-.64C128.34,119.09,130.09,117.54,131.29,117.57Z"/><path class="cls-21" d="M94.39,123.65s-.87,1.33.25,1.33S94.39,123.65,94.39,123.65Z"/><path class="cls-21" d="M130.53,118.64s1.34.87.15,1.45C129.31,120,130.53,118.64,130.53,118.64Z"/><path class="cls-23" d="M59.11,150.51s0-3.77,1.44-3.87,1.26,3,2.72,4.94,3.19,3.59,2.88,4.54-4,1.52-4.79.47.6-3.14,0-4.14S59.87,152,59.11,150.51Z"/><path class="cls-24" d="M158.23,135.94c.6,0,.6-.5,0-.5s-.6.5,0,.5Z"/><path class="cls-24" d="M171.66,152.23c.6,0,.6-.5,0-.5s-.6.5,0,.5Z"/><g class="cls-25"><path class="cls-26" d="M130.6,135a44.17,44.17,0,0,1,7.31,5.08l3.14-1.21-.91-.71-3.34,1c1.42.82,2.47,3.06,3.37,4.39s1.84,2.78,1.72,4.63c-.08,1.35,3.91,1.43,4,0,.14-2.28-1.08-4-2.33-5.84s-2.14-3.56-3.93-4.59c-.56-.33-4.21-.31-3.34,1a3.93,3.93,0,0,0,1.94,1.6c.67.27,4.64.07,3.14-1.21a47.94,47.94,0,0,0-7.94-5.48c-1.11-.62-4.79.33-2.83,1.41Z"/></g><g class="cls-25"><path class="cls-26" d="M68.52,149.82a16.24,16.24,0,0,0,3.21,9.91c.55.75,4.2,1.18,3.93-.27a34.07,34.07,0,0,0-3.09-9.15c-.57-1.13-4.42-.95-3.86.53a81.58,81.58,0,0,1,3.79,13.07c.27,1.34,3.35,1.36,3.93.27,1.89-3.54-.29-8.29-1.47-11.77-1.6-4.71-3.46-9.32-4.48-14.21-.26-1.22-3.53-1.48-3.93-.27a20.7,20.7,0,0,0,1,15.71c.48,1,4,1.1,3.93-.27L71,144.75c-.08-1.39-4-1.39-4,0-.07,4.76,1.43,9.2,3,13.63l3.86-.53c-2.41-3-2.92-6.89-3.26-10.62A54.1,54.1,0,0,1,71,134.75c.19-1.32-3.68-1.38-4,0-.71,3.09.28,6,1.28,8.91q1.73,5,3.48,10c.38,1.09,3.92,1.05,3.93-.27a19.92,19.92,0,0,0-5-13.41c-.56-.65-3.92-.8-3.73.5.5,3.44,2.45,6.17,3.84,9.27a16.35,16.35,0,0,1,1.21,6c.14,2.11.86,4.28,0,6.33h3.86c-2.86-4.71-5.27-8.93-6.23-14.45-.24-1.37-4-1.4-4,0,.19,5.58,2.67,10.15,5.39,14.89,2.55,4.45,5.49,8.67,9.55,11.86.68.53,4.58.44,3.66-.77a90.79,90.79,0,0,1-7-10.68c-.59-1.05-3.69-1.1-3.93.27-.94,5.5,3.53,9.23,7.53,12.1.9.64,4.87.23,3.45-1-2-1.73-4-3.43-5.89-5.19-1.71-1.55-3.37-3.17-3.14-5.65.12-1.33-3.8-1.42-4,0-.34,2.39,2,5.69,3.65,7.23,2.32,2.15,5.71,3.4,8.47,4.85l.88-1.67-.42,0-.53,2,1.26.07c1.87.3,3.73-1.5,1.06-1.93a10.15,10.15,0,0,0-2.32-.14c-1.76.07-2.89,1.58-.53,2a6.63,6.63,0,0,0,2.55,0c.85-.16,2.23-1,.88-1.67a58.23,58.23,0,0,1-7.11-3.86c-1.69-1.22-4.15-4.6-3.84-6.81h-4c-.21,2.29,1,4.06,2.58,5.63,2.18,2.21,4.67,4.17,7,6.22l3.45-1c-3.74-2.69-7.87-5.94-7-11.09l-3.93.27a90.79,90.79,0,0,0,7,10.68l3.66-.77c-3.91-3.08-6.69-7.11-9.14-11.39-2.62-4.58-5.06-9-5.24-14.36h-4c1,5.68,3.42,10.11,6.37,15,.57.93,3.39,1.15,3.86,0,.82-2,.37-3.85.17-6a26.65,26.65,0,0,0-.62-5.33c-1.13-3.79-3.92-6.86-4.5-10.84l-3.73.5a18.48,18.48,0,0,1,4.46,12.4l3.93-.27L72.41,144c-1.05-3-2.18-6-1.44-9.25H67a53.92,53.92,0,0,0-.28,13.38c.39,3.6,1,7.33,3.31,10.23.69.86,4.45,1.11,3.86-.53-1.53-4.27-2.94-8.51-2.88-13.09H67l.51,8.63,3.93-.27a19.45,19.45,0,0,1-1-14.65l-3.93-.27a94.46,94.46,0,0,0,3.73,12.21c1.3,3.66,4.35,9.51,2.36,13.24l3.93.27a85,85,0,0,0-3.93-13.61l-3.86.53a32,32,0,0,1,2.95,8.62l3.93-.27a15.27,15.27,0,0,1-3.07-9.38c0-1.38-4-1.4-4,0Z"/></g><g class="cls-25"><path class="cls-26" d="M84,177.46c5,2,7.91,7.28,13.66,7.74.56,0,3.58-.39,2.26-1.47A54,54,0,0,0,86,175.54a3.39,3.39,0,0,0-2.63-.08c-.45.23-1.23.78-.52,1.29,6.19,4.44,12.55,8.73,20.27,9.8l.53-2a9.89,9.89,0,0,1-6.38-3.2L95,182.85a43.78,43.78,0,0,1,9.46,2.85l1.95-1.67A34.71,34.71,0,0,1,94,179.36l-2.83,1.41,14.28,5.66,1.41-1.71a13.67,13.67,0,0,1-5.34-.82l-2.42,1.57,8.87,3.2c1,.35,4.3-.36,2.42-1.57l-4.33-2.79L104.65,186a32.72,32.72,0,0,1,7.25,1l1-1.86a15.59,15.59,0,0,1-5-.42,3.13,3.13,0,0,0-2.58.26c-.47.43-.62,1,.16,1.31a42,42,0,0,0,6.12,2l1-1.86a21,21,0,0,1-3.67-.11c-.84-.1-3.79.62-1.95,1.67l1.68,1,2.42-1.57c-4-1-8.55-1.69-11.9-4.28-.85-.65-4.76-.48-3.45,1,4.22,4.8,12.16,4.82,18,5.65.76.11,3.34-.25,2.26-1.47L114,186l-1.73,1.5,5.12.07v-2a17.23,17.23,0,0,1-4.34-.35c-1.33-.28-3.88,1.25-1.54,1.83l6.61,1.62.48-1.83a19.8,19.8,0,0,1-3.58.4c-.86,0-3,.87-1.41,1.71a11,11,0,0,0,4.23,1.22l.53-2a17.12,17.12,0,0,1-3.63-.12L113.62,190a26.42,26.42,0,0,0,9.54-.49c1.31-.3,1.12-1.35,0-1.73l-5.76-1.94-1.54,1.83q5.35.48,10.71.55l-1-1.86-5.5,1.33c-.5.12-1.51.85-.72,1.37,3.51,2.33,8.15-.66,11.54-2l-2.83-1.41-4.16,1.86c-2,.89,1.46,1.9,2.42,1.57a45,45,0,0,0,8-3.62c2-1.14-1.73-2-2.83-1.41-3.27,1.8-6.87,1.75-10.49,1.5a22.54,22.54,0,0,1-10.51-2.93c-5.6-3.29-11.56-7.14-14.49-13.15-.58-1.2-4.52-.82-3.86.53a25.32,25.32,0,0,0,7.85,9,55.78,55.78,0,0,0,10.59,6.59c3.86,1.71,8.16,1.94,12.32,2.09,4,.14,7.92-.26,11.43-2.19L131.45,184a40.53,40.53,0,0,1-7.15,3.3l2.42,1.57,4.16-1.86c.85-.38.56-1,0-1.41-.71-.55-2.08-.29-2.83,0l-2.91,1.14c-.21.08-2.64,1.06-2.35,1.26l-.72,1.37,5.5-1.33c2.11-.51.2-1.85-1-1.86-3.22,0-6.44-.19-9.65-.48-1.22-.11-3.94,1-1.54,1.83l5.76,1.94v-1.73a17.85,17.85,0,0,1-6.46.29c-1.86-.24-3.74,1.55-1.06,1.93a22.29,22.29,0,0,0,4.69.19c1.67-.11,3-1.75.53-2a4.41,4.41,0,0,1-2.46-.71L115,189.21a25.73,25.73,0,0,0,4.65-.47c1.15-.23,2.21-1.4.48-1.83l-6.61-1.62-1.54,1.83a21.61,21.61,0,0,0,5.41.43c2.37-.11,2.43-2,0-2l-5.12-.07c-.75,0-2.65.46-1.73,1.5l2.07,2.35,2.26-1.47c-5.07-.72-12-.63-15.63-4.74l-3.45,1c3.85,3,8.74,3.82,13.34,5,.88.22,4.44-.43,2.42-1.57l-1.68-1-1.95,1.67a27.13,27.13,0,0,0,4.73.18c1.14-.06,3.17-1.35,1-1.86a36.34,36.34,0,0,1-5.31-1.67l-2.42,1.57a22.22,22.22,0,0,0,7,.7c1.14-.07,3.17-1.31,1-1.86a42,42,0,0,0-9.26-1.29c-1,0-2.87.77-1.41,1.71l4.33,2.79,2.42-1.57-8.87-3.2c-1-.36-4.39.72-2.42,1.57a20.82,20.82,0,0,0,8.17,1.41c.8,0,3.12-1,1.41-1.71L94,179.36c-1-.39-4.88.17-2.83,1.41A39.62,39.62,0,0,0,105.36,186c.81.14,3.87-.85,1.95-1.67a51.79,51.79,0,0,0-11.22-3.37c-.71-.13-3.4.31-2.26,1.47a14.63,14.63,0,0,0,9.83,4.19c1.83.12,2.82-1.65.53-2-6.78-.94-12.45-5-17.88-8.88L83.17,177a51.45,51.45,0,0,1,13.26,7.78l2.26-1.47c-4.64-.37-7.68-5.54-11.9-7.23A3.27,3.27,0,0,0,84,176c-.55.41-.89,1.06,0,1.41Z"/></g><g class="cls-25"><path class="cls-26" d="M117.31,116.78a21.24,21.24,0,0,0,.57,4.29l3.93-.27a6.1,6.1,0,0,1-.57-2.56h-4c.13,1.25,1,2.28,1,3.53l3.93-.27-.48-.64c-.69-.93-4.31-1.14-3.86.53a17.18,17.18,0,0,0,4.67,8.28c.89.89,4.74.27,3.45-1a16,16,0,0,1-4.27-7.8l-3.86.53.48.64c.59.8,4,1.25,3.93-.27,0-1.29-.84-2.27-1-3.53s-4-1.39-4,0a7.36,7.36,0,0,0,.71,3.09c.47,1,4.22,1,3.93-.27a21.24,21.24,0,0,1-.57-4.29c0-1.4-4-1.38-4,0Z"/></g><g class="cls-25"><path class="cls-26" d="M89.67,125.55l.39-.94-3.73-.5L86,125.71c-.23,1.25,3.53,1.34,3.93.27a25.73,25.73,0,0,1,1.86-4c.79-1.38-2.78-1.29-3.34-1A8.36,8.36,0,0,0,85,124.45l3.93.27c.09-2.43,3.81-4.81,5.92-4.3v-1.73c-3.14,1-5.78,1.2-7.5,4.39-.72,1.34,3.15,1.58,3.86.53a4,4,0,0,1,5.11-1.39c.7.31,4.59.13,3.14-1.21a22.32,22.32,0,0,0-2-1.66l-2.26,1.47a3.58,3.58,0,0,1,2,.91l2.74-1.37A8.73,8.73,0,0,1,97.61,119l-3.14,1.21a8.91,8.91,0,0,1,4.21,3.3l3.66-.77a13,13,0,0,0-10.09-2.89c-2.68.28-.8,2.12,1.06,1.93a7.27,7.27,0,0,1,5.57,2c.68.58,4.54.49,3.66-.77a11.34,11.34,0,0,0-5.24-4.18c-.66-.26-4.68,0-3.14,1.21a13.68,13.68,0,0,0,3.78,2.1c.64.24,4.16-.29,2.74-1.37a9.35,9.35,0,0,0-4.41-1.83c-.57-.09-3.6.48-2.26,1.47A22.32,22.32,0,0,1,96,122l3.14-1.21c-3.86-1.72-9.29-1.47-11.8,2.27l3.86.53c1.3-2.41,3.3-2.46,5.66-3.19,1.15-.36,1.28-1.42,0-1.73a10.59,10.59,0,0,0-7.44.62c-1.83.95-4.41,3.2-4.5,5.41-.05,1.42,3.42,1.2,3.93.27a5.91,5.91,0,0,1,2.44-2.53l-3.34-1a25.73,25.73,0,0,0-1.86,4l3.93.27.29-1.61c.24-1.32-3.18-1.1-3.73-.5a3.06,3.06,0,0,0-.94,2c-.16,1.3,3.83,1.45,4,0Z"/></g><g class="cls-25"><path class="cls-26" d="M129,118.26c2.06-2.45,6.77-1.44,7.87,1.48l3.86-.53A11.76,11.76,0,0,0,129,115.14l1.54,1.83c1.92-.65,3.5-1,5.12.49a6.11,6.11,0,0,1,2,2.22l1.4-1.23-1.19.11c-.62.06-1.67.44-1.4,1.23s1.86.75,2.46.7l1.19-.11c.62-.06,1.67-.44,1.4-1.23-.61-1.77-3.21-3.71-4.91-4.34-2.63-1-5.48-.44-8.05.44-2.27.77.19,2.1,1.54,1.83a6.77,6.77,0,0,1,6.76,2.66c.69.86,4.47,1.09,3.86-.53-1.08-2.85-4.69-3.95-7.46-4.29a8.8,8.8,0,0,0-8.13,2.81c-.82,1,3,1.58,3.86.53Z"/></g><g class="cls-25"><path class="cls-26" d="M76.77,97.39c-.77,3.46-1.82,7.32-1.78,10.88,0,1.59,1.14,2.68,1.27,4.15.15,1.72-1.86,3.78-2.78,5.08s1.93,2.33,2.79,2.46c1.59.24,3.91,0,4.92-1.4s2.5-3.09,2.94-4.94-.61-2.86-1-4.55.2-3.81.46-5.48c.33-2.08.74-4.15,1.2-6.21.53-2.39-7.35-2.91-8,0Z"/></g><g class="cls-25"><path class="cls-26" d="M143.87,176.86c1.15-2.23,3.09-4,4.35-6.16a27.34,27.34,0,0,0,2.66-6.85c.6-2.32-7.25-2.9-8,0a23.55,23.55,0,0,1-2.81,6.52c-1.18,1.9-2.89,3.44-3.91,5.43-1.35,2.62,6.47,3.47,7.71,1.06Z"/></g><g class="cls-25"><path class="cls-22" d="M85.57,115.9A13.85,13.85,0,0,1,93.93,111c1.83-.37,6.92-1,5.57,2.47l2.63-3.17a100,100,0,0,0-13.65,2.31L88,114.2c2.06-3,7.15-3.08,10.16-1.93l2.77-3.55a14,14,0,0,0-10.47,2.11c-.5.32-2.83,3.57-2.22,3.48A52.74,52.74,0,0,0,98.9,111.7a4.83,4.83,0,0,0,2-2c.09-.13,1-1.82.47-1.63a52.74,52.74,0,0,1-10.66,2.62l-2.22,3.48a13,13,0,0,1,9.68-1.95c1,.18,3.18-3.39,2.77-3.55-5.86-2.24-11.17,1-14.44,5.81-.06.08-1.08,1.77-.47,1.63a100,100,0,0,1,13.65-2.31c1.1-.11,2.28-2.26,2.63-3.17,1.9-4.88-5.35-3.63-7.79-2.82a20.5,20.5,0,0,0-9.75,7.4c-1.55,2-.79,2.73.81.63Z"/></g><g class="cls-25"><path class="cls-22" d="M122.19,109.63c2-.32,3.59.16,5.54.31a4.81,4.81,0,0,0,2.07-.47,6.05,6.05,0,0,1,3.16-.28c1.07.16,3.27-3.4,2.56-3.61a20.26,20.26,0,0,0-9.85-.52,3.8,3.8,0,0,0-2.13,1.85c-.11.17-1,2-.22,1.82a19.59,19.59,0,0,1,9.43.4l2.56-3.61a6.56,6.56,0,0,0-2.78.11,8,8,0,0,1-2.44.65c-.86,0-1.75-.42-2.63-.49a12.74,12.74,0,0,0-2.91.17c-.91.14-1.66,1.12-2.13,1.85-.12.19-1,1.95-.22,1.82Z"/></g></svg>