<svg id="Layer_1" data-name="Layer 1" xmlns="http://www.w3.org/2000/svg" viewBox="0 0 196 266.67"><defs><style>.cls-1{fill:#f8e4e3;}.cls-2{fill:#231f20;}.cls-3{fill:#010101;}.cls-4{fill:#947c67;}.cls-5{fill:#58595b;}.cls-6{fill:#f0c0aa;}.cls-7{fill:#ebc0a8;}.cls-8{fill:#d0af9b;}.cls-17,.cls-28,.cls-9{fill:none;stroke-miterlimit:10;}.cls-9{stroke:#8f3d30;}.cls-17,.cls-9{stroke-width:0.25px;}.cls-12,.cls-13,.cls-14,.cls-17,.cls-18,.cls-19,.cls-20,.cls-21,.cls-9{opacity:0.8;}.cls-10{fill:#eabba6;}.cls-11{fill:#336843;opacity:0.93;}.cls-12{fill:#b86764;}.cls-13{fill:#802e19;}.cls-15{fill:#b67d6c;}.cls-16{fill:#d28867;}.cls-17{stroke:#995c42;}.cls-18{fill:#7d3e1f;}.cls-19{fill:#be9a84;}.cls-20{fill:#e5c0bd;}.cls-21{fill:#c8a397;}.cls-22{fill:#d39c82;opacity:0.68;}.cls-23{fill:#ebf4f0;}.cls-24{fill:#685c50;}.cls-25{fill:#1d1611;}.cls-26{fill:#754f42;}.cls-27{fill:#c29487;}.cls-28{stroke:#231f20;}.cls-29{fill:#654c3c;}.cls-30{opacity:0.15;}</style></defs><title>badbitchcards</title><rect class="cls-1" x="8.63" y="8.48" width="178.58" height="249.45" rx="8.5" ry="8.5"/><path class="cls-2" d="M24,30.84a3.53,3.53,0,0,0,3.68,3.38,3.34,3.34,0,1,0,0-6.68,4.18,4.18,0,0,0-3,1.18c-.86-.33-1.59-.66-2.42-1l2.12-8.12H33v2.27H26L24.8,26.6a4.58,4.58,0,0,1,3.33-1.21,5.18,5.18,0,0,1,5.55,5.42c0,3.08-2.37,5.57-6,5.57-3.48,0-5.82-2.27-6-4.84Z"/><path class="cls-3" d="M33.08,50.55h-.24a5.16,5.16,0,1,0-9.74,0h-.24A5.16,5.16,0,1,0,27,58.82C26.41,61,25.66,63.28,24.85,64h6.24c-.81-.73-1.56-3-2.12-5.19a5.16,5.16,0,1,0,4.11-8.28ZM28.2,54s0,0,0,0Z"/><path class="cls-2" d="M171.44,235a3.53,3.53,0,0,0-3.68-3.38,3.34,3.34,0,1,0,0,6.68,4.18,4.18,0,0,0,3-1.18c.86.33,1.59.66,2.42,1l-2.12,8.12h-8.62v-2.27h7l1.21-4.69a4.58,4.58,0,0,1-3.33,1.21,5.18,5.18,0,0,1-5.55-5.42c0-3.07,2.37-5.57,6-5.57,3.48,0,5.82,2.27,6.05,4.84Z"/><path class="cls-3" d="M162.36,215.25h.24a5.16,5.16,0,1,0,9.74,0h.24a5.16,5.16,0,1,0-4.12-8.28c.56-2.18,1.31-4.46,2.12-5.19h-6.24c.81.73,1.56,3,2.12,5.19a5.16,5.16,0,1,0-4.11,8.28Zm4.87-3.45s0,0,0,0Z"/><path class="cls-4" d="M54.39,126.43,52.9,120s-1.19-8.2-1.79-22.92C52.31,83.38,53.52,63.26,81.76,53s40.52,5,40.52,5,14.27,13.77,18.28,19.85,3.14,18.9,3.57,22.79,0,9.46,0,13.76v3.12s-3.74.66-4.05,1-3.91,8.95-3.91,8.95"/><path class="cls-5" d="M90.44,79.23c-15.12-6-27.35-3.78-31.8,11.79C58.64,91,62.42,67,90.44,79.23Z"/><path class="cls-5" d="M125.77,72.37C136.41,74.49,142.42,106,142,117h0S142.8,80,125.77,72.37Z"/><path class="cls-5" d="M106.52,71s-7.79-18.76-29-15.58C77.49,55.4,98.73,50.45,106.52,71Z"/><path class="cls-6" d="M57.17,122.26s-3.56-.1-4.55-1.1-5.34-.9-4.74,3.11.2,5.82,3,12.35l.79,1.41s2.67,10.24,3.56,11.44l.49.8,1,3,8.5,1.2S62.11,125.07,57.17,122.26Z"/><path class="cls-7" d="M72.18,170.35s-.88,26-3,30.48,9.69,35.46,29.56,35.46,29-33,29-33-8.45-27.3-4.32-33C123.45,170.35,89.75,152.78,72.18,170.35Z"/><path class="cls-8" d="M100.75,176.18s5.26,17.75,8.32,30.32a6.21,6.21,0,0,0,11.12,2.09c2-2.85,3.74-5.74,4.88-7.69a6.2,6.2,0,0,0,.62-4.79c-1.3-4.66-3.85-15-3.07-22.11a6.19,6.19,0,0,0-7.15-6.73C108.73,168.37,100.57,174,100.75,176.18Z"/><path class="cls-9" d="M80.59,166.57s8.1.2,10.18,1,6.23.7,12.45-.5c0,0,5.44-2.11,6.92-2"/><path class="cls-10" d="M134.45,139.27c4.45-14.6,1.88-23.47,1.88-23.47C135,108,127.73,94,127.73,94c.15-7.83-2.08-11.89-2.08-11.89-11.86-12.95-33.95.75-33.95.75s-17.94-5-25.94,2.56-6.67,18.82-8.3,22.28S55.1,118.5,55.1,118.5c-.89,5.27,7.12,36.28,7.12,36.28l1.63,11.29c3.71,11.89,16.9,16.86,16.9,16.86,7.12,8.88,19.86,4.67,19.86,4.67,4.3.45,11.41-6.77,11.41-6.77,6.67-2.71,14.08-13.1,14.82-14.9,0,0,5.47-11.87,5.94-14s1.67-12.71,1.67-12.71"/><path class="cls-11" d="M56,153.7s.08,5.81,4.2,4c0,0,3.46-3.2,1.63-7.27,0,0-1.6-3.16-4.12-1C57.7,149.48,56.15,150.42,56,153.7Z"/><path class="cls-12" d="M80.78,166.17l7.91-2.51s2.57-1.1,4,.2c0,0,2.77,1.2,4.84.1l1.58-.8a3.06,3.06,0,0,1,3.06-.2,39.34,39.34,0,0,0,6.23,1.61l2.57.4s-9.09,6.83-14,7.13A22,22,0,0,1,80.78,166.17Z"/><path class="cls-12" d="M80.78,166.17l7.91-2.51s2.57-1.1,4,.2c0,0,2.77,1.2,4.84.1l1.58-.8a3.06,3.06,0,0,1,3.06-.2,39.34,39.34,0,0,0,6.23,1.61l2.57.4s-9.09,6.83-14,7.13A22,22,0,0,1,80.78,166.17Z"/><path class="cls-13" d="M85.23,150.62c-.4.1,1.09-2.41,3.26-.4A21.62,21.62,0,0,0,85.23,150.62Z"/><g class="cls-14"><path class="cls-15" d="M89.83,151.65c2.69,3.63,7,3,9.94.13.16-.16-.32-.24-.43-.13-2,1.91-4.55,3.16-7.15,1.6a6.58,6.58,0,0,1-1.88-1.67c-.1-.14-.58-.07-.48.07Z"/></g><path class="cls-13" d="M100.45,150.21s1.28-2.41,2.77-.7Z"/><g class="cls-14"><path class="cls-16" d="M86.68,142.4c-3,1.71-4.44,5-2.88,8.25.07.15.56.1.48-.07a6,6,0,0,1,2.75-8c.24-.14-.21-.26-.35-.18Z"/></g><g class="cls-14"><path class="cls-16" d="M102,143.33a7.24,7.24,0,0,1,2.59,1.85c1.61,1.85,1,4-.43,5.71-.1.12.37.2.48.07,1.45-1.77,2.07-3.87.5-5.77a7.49,7.49,0,0,0-2.79-2c-.14-.06-.61.07-.35.18Z"/></g><path class="cls-6" d="M140.47,117.89s3.56-.1,4.55-1.1,5.34-.9,4.74,3.11-.2,5.82-3,12.35l-.79,1.41s-2.67,10.24-3.56,11.44l-.49.8-1,3-8.5,1.2S135.53,120.7,140.47,117.89Z"/><path class="cls-17" d="M138.4,129.34s2.77-4.82,6.72-6.83c0,0,2.77-2.31,3.06-1.2s-2.17,9.54-2.17,9.54a17,17,0,0,1-.4,3.91"/><path class="cls-18" d="M139.48,127.88s1.93,2.51,1.48,3-1.58.15-1.83.2S137.36,129.84,139.48,127.88Z"/><path class="cls-19" d="M138.5,133.05s1.48,2,.69,3.16a2,2,0,0,1-1.78,1l.94-4.37"/><path class="cls-19" d="M135.33,142s2.22.1,2.62-.35a.76.76,0,0,0,.1-.9s.54.05.44.75-3.06,1-3.06,1Z"/><path class="cls-11" d="M132.47,149.17s.08,6,4.33,4.15c0,0,3.57-3.3,1.68-7.49,0,0-1.64-3.26-4.25-1C134.23,144.81,132.63,145.79,132.47,149.17Z"/><path class="cls-20" d="M91,165.75s.67-.38.85-.26.67-.3.67-.3l.48.08S91.64,166.24,91,165.75Z"/><path class="cls-20" d="M88.19,168.34s1-.45,1.26-.15.7-.08.7-.08l.82.56S88.42,168.76,88.19,168.34Z"/><path class="cls-20" d="M97.83,165.78s.52-.87,1.15-.79,1.52.15,1.52.15l-1.7.11s.63.45.19.53A5.37,5.37,0,0,1,97.83,165.78Z"/><path class="cls-21" d="M106.91,126.66A19.67,19.67,0,0,0,118.54,128s2.65-1.14,3.42-3.24l-1-.45L105.82,126Z"/><path class="cls-22" d="M103.69,126.3s5.07-9.16,9.59-9.16,8.73,3.81,10.06,5.68l1.33,1.87Z"/><path class="cls-23" d="M104.9,125.53s2.18-1.45,4.83-3.64,5.69-3.5,10,0l2.25,2.84s-3.64,3.15-7.08,3.15a17,17,0,0,1-6.88-1.82l-3.11.4S104.25,126,104.9,125.53Z"/><path class="cls-24" d="M109.75,122.58s-.72-2.08,4.51-2.45A3.15,3.15,0,0,1,117.6,122c.18.15.07,5.18-3.07,5.18S109.94,123.91,109.75,122.58Z"/><path class="cls-25" d="M112.75,123.11s.3-1.13,1.19-1.13,1.22.79.93,1.62A1.13,1.13,0,0,1,112.75,123.11Z"/><path class="cls-23" d="M114.38,122.2s-.93,0-.78.68,1.19.68,1.26.26A.81.81,0,0,0,114.38,122.2Z"/><path class="cls-26" d="M104.9,125.53s6.31-4.8,8.8-4.74,4.52,1.45,7.33,4.74l.93-.79s-2.41-6.67-7.66-5.68S104.9,125.53,104.9,125.53Z"/><path class="cls-27" d="M103.69,126.58c.27.37,3.16-.51,3.89-.35s-.07-2.18-.58-2.09a12.12,12.12,0,0,0-3.32,2.17S103.64,126.51,103.69,126.58Z"/><path class="cls-21" d="M82.58,127.28a19.67,19.67,0,0,1-11.64,1.32s-2.65-1.14-3.42-3.24l1-.45,15.17,1.69Z"/><path class="cls-22" d="M67.53,125.36l-2.77-2.28s3.59-5.94,9.76-5.94,11.28,9.79,11.28,9.79l-18.27-1.56"/><path class="cls-23" d="M84.59,126.16s-2.18-1.45-4.83-3.64-5.69-3.5-10,0l-2.25,2.84s3.64,3.15,7.08,3.15a17,17,0,0,0,6.88-1.82l3.11.4S85.24,126.61,84.59,126.16Z"/><path class="cls-24" d="M79.73,123.21s.72-2.08-4.51-2.45a3.15,3.15,0,0,0-3.33,1.82c-.18.15-.07,5.18,3.07,5.18S79.55,124.54,79.73,123.21Z"/><path class="cls-25" d="M76.74,123.73s-.3-1.13-1.19-1.13-1.22.79-.93,1.62A1.13,1.13,0,0,0,76.74,123.73Z"/><path class="cls-23" d="M75.11,122.83s.93,0,.78.68-1.19.68-1.26.26A.81.81,0,0,1,75.11,122.83Z"/><path class="cls-26" d="M84.59,126.16s-6.31-4.8-8.8-4.74-4.52,1.45-7.33,4.74l-.93-.79s2.41-6.67,7.66-5.68S84.59,126.16,84.59,126.16Z"/><path class="cls-27" d="M85.8,127.2c-.27.37-3.16-.51-3.89-.35s.07-2.18.58-2.09a12.12,12.12,0,0,1,3.32,2.17S85.85,127.14,85.8,127.2Z"/><path class="cls-28" d="M88.19,119c-4.26-2.25-19.43-6-29.1.63a17.84,17.84,0,0,0,1.36,13.6c7.07,5.8,22.68,3.1,24.42.87A19,19,0,0,0,89,120.12S88.67,119.21,88.19,119Z"/><path class="cls-28" d="M89.1,121.43a40.85,40.85,0,0,1,9.67-.32"/><path class="cls-28" d="M99.49,119.58c4.59-4.41,21.93-5.51,29-3.33,0,0,3.74,1.77.75,14,0,0-1.41,4.51-12.63,4.51s-13,2.14-17.11-10.32C99.49,124.43,97.81,121.2,99.49,119.58Z"/><path class="cls-28" d="M130.39,120.12a2.31,2.31,0,0,1,1.74,2.08c0,1.63-1.81,1.6-1.81,1.6"/><path class="cls-28" d="M130.39,119.32s3.92-1.79,3.92,2.11-3.92,3.3-3.92,3.3"/><path class="cls-28" d="M100.34,125.84a1,1,0,0,1,.87.34c.45.45-.27,1.21-.27,1.21A1.06,1.06,0,0,1,100.34,125.84Z"/><path class="cls-28" d="M88.49,126s-1.1-.14-1.36.71.79,1.28.79,1.28A2.75,2.75,0,0,0,88.49,126Z"/><path class="cls-28" d="M58.22,122.87s-2-.23-2,1.56,2,1.82,2,1.82A15,15,0,0,0,58.22,122.87Z"/><path class="cls-28" d="M58.33,121.59a2.63,2.63,0,0,0-3.27,2.32c-.5,3,2.16,3.1,3.51,3.46"/><path class="cls-29" d="M85,115.42c0-.3-.14-.46-.32-.67a7.56,7.56,0,0,0-.83-.89,4.18,4.18,0,0,0-.65-.41,2.3,2.3,0,0,0-.66-.33"/><path class="cls-29" d="M83.36,115.58c-.11,0-.16-.16-.24-.25s-.24-.2-.35-.31a12.5,12.5,0,0,0-1.05-1,5.16,5.16,0,0,1-.43-.37c-.17-.15-.27-.14-.47-.2s-.44-.27-.66-.23"/><path class="cls-29" d="M80.32,115.25c-.28,0-.47-.31-.66-.49a10.93,10.93,0,0,0-.89-.65,4.1,4.1,0,0,0-.51-.42,6.86,6.86,0,0,1-.57-.39,10.65,10.65,0,0,0-1.32-.68"/><path class="cls-29" d="M76.45,114.68c-.25,0-.44-.27-.63-.41-.4-.28-.83-.54-1.2-.85a5.62,5.62,0,0,0-.87-.56c-.16-.09-.4-.28-.59-.24"/><path class="cls-29" d="M72,113.69a3,3,0,0,1-.68-.31,6.77,6.77,0,0,0-1-.31,2.52,2.52,0,0,0-.66-.12H69"/><path class="cls-29" d="M68.14,113.94a.94.94,0,0,0-.53.12c-.21.12-.33.31-.53.44s-.32.2-.48.29a2.79,2.79,0,0,1-.76.14"/><path class="cls-29" d="M104,115.75a1.52,1.52,0,0,1,.33-1.23,2.58,2.58,0,0,1,1.48-.75"/><path class="cls-29" d="M106.89,115.17a2.31,2.31,0,0,0,.28-.58,4.86,4.86,0,0,1,.56-.74,2.31,2.31,0,0,1,1.38-1"/><path class="cls-29" d="M110.68,114.84a.84.84,0,0,1,.21-.53c.15-.24.24-.51.39-.76.25-.43.61-1.13,1.22-1.09"/><path class="cls-29" d="M114.3,114c0-.09.16-.21.21-.32a3.47,3.47,0,0,1,.53-.82,4.6,4.6,0,0,1,1.65-1.16"/><path class="cls-29" d="M119,112.13c.3,0,.64-.37.89-.51a9.12,9.12,0,0,1,2.4-.89"/><path class="cls-29" d="M123.35,111.8c.11,0,.11,0,.18-.06l.39-.1a6.14,6.14,0,0,1,.62-.13c.16,0,.42,0,.54-.12"/><path class="cls-29" d="M126.15,112.37a3.2,3.2,0,0,0,1.23-.16"/><path class="cls-2" d="M134.67,122.55l1.42-.62a4.23,4.23,0,0,0,1.21-.55c.62-.63.1-2.47,0-3.14-.06-.33-.64-.26-.85-.18l-2.79,1.12a.19.19,0,0,0-.13.24,3.67,3.67,0,0,1,.32,2.88c-.16.34.82.44,1,.13a3.94,3.94,0,0,0-.32-3.15l-.13.24,2.79-1.12-.85-.18a9.88,9.88,0,0,1,.22,2.46,1.53,1.53,0,0,1-.07.41c-.06.15.08,0,0,0a5.93,5.93,0,0,1-1.38.6l-1.13.49C133.46,122.42,134.38,122.68,134.67,122.55Z"/><path class="cls-2" d="M133.91,120c.6,0,.6-.5,0-.5s-.6.5,0,.5Z"/><g class="cls-30"><path class="cls-24" d="M66.07,116.38c2.41-2,6.16-.49,8.93-.57,3.18-.09,5.74-.47,8.86.61,1.11.38,3.19-3.4,2.77-3.55-3.57-1.23-6.79-.53-10.46-.67-3.3-.12-6.07-1.15-8.8,1.16-.63.54-2.82,4.3-1.31,3Z"/></g><g class="cls-30"><path class="cls-24" d="M125.42,111.42c-4.16-1.55-8-.69-12.35,0-2.08.33-9.6.4-10.34,2.64-.21.63,3.11,2.85,3.69,2.58a26.8,26.8,0,0,1,11.25-2.58c-.24,0-2.24-2.66-3.45-2.64A27.31,27.31,0,0,0,102.73,114l3.69,2.58c.61-1.87,8.33-2.3,10.1-2.58,4.07-.64,7.9-1.6,11.88-.11.52.19-2.09-2.19-3-2.52Z"/></g></svg>