<?xml version="1.0" encoding="utf-8"?>
<!-- Generator: Adobe Illustrator 20.0.0, SVG Export Plug-In . SVG Version: 6.00 Build 0)  -->
<svg version="1.1" id="Layer_1" xmlns="http://www.w3.org/2000/svg" xmlns:xlink="http://www.w3.org/1999/xlink" x="0px" y="0px"
	 viewBox="0 0 196 266.7" style="enable-background:new 0 0 196 266.7;" xml:space="preserve">
<style type="text/css">
	.st0{fill:#F8E4E3;}
	.st1{fill:#231F20;}
	.st2{fill:#010101;}
	.st3{fill:#D8A887;}
	.st4{opacity:0.6;fill:#60434C;}
	.st5{fill:#E0B292;}
	.st6{fill:#D8A387;}
	.st7{fill:#211010;}
	.st8{fill:#EBF4F0;}
	.st9{fill:#6B3720;}
	.st10{fill:none;stroke:#D39C82;stroke-width:0.5;stroke-miterlimit:10;}
	.st11{fill:#D39C82;}
	.st12{fill:none;}
	.st13{fill:#B8947D;}
	.st14{fill:#F8E8D7;}
	.st15{fill:#C76E5C;}
	.st16{fill:#1D1611;}
	.st17{opacity:0.2;}
	.st18{fill:#A65833;}
	.st19{fill:#BE6D48;}
	.st20{opacity:0.2;fill:#A65833;}
	.st21{opacity:0.15;}
	.st22{fill:#381C15;}
	.st23{fill:#2C1712;}
	.st24{fill:#DCAA8B;}
	.st25{fill:#754F42;}
</style>
<title>badbitchcards</title>
<path class="st0" d="M17.1,8.5h161.6c4.7,0,8.5,3.8,8.5,8.5v232.4c0,4.7-3.8,8.5-8.5,8.5H17.1c-4.7,0-8.5-3.8-8.5-8.5V17
	C8.6,12.3,12.4,8.5,17.1,8.5z"/>
<path class="st1" d="M21.6,30.5l7-9.8H32V31h2.8v2.3H32V37h-2.4v-3.7h-8L21.6,30.5z M29.6,23l-5.7,8h5.8L29.6,23z"/>
<path class="st2" d="M33.1,51.5h-0.2c0.9-2.7-0.5-5.6-3.2-6.6C27,44,24,45.4,23.1,48.1c-0.4,1.1-0.4,2.3,0,3.4h-0.2
	c-2.8,0-5.1,2.3-5.1,5.2c0,2.8,2.3,5.1,5.2,5.1c1.6,0,3.1-0.8,4.1-2c-0.6,2.2-1.3,4.5-2.1,5.2h6.2c-0.8-0.7-1.6-3-2.1-5.2
	c1.7,2.3,5,2.7,7.2,1c2.3-1.7,2.7-5,1-7.2C36.2,52.3,34.7,51.5,33.1,51.5L33.1,51.5z M28.2,55L28.2,55z"/>
<path class="st1" d="M173.8,236.4l-7,9.8h-3.4v-10.4h-2.8v-2.3h2.8v-3.7h2.4v3.7h8L173.8,236.4z M165.8,243.8l5.8-8h-5.8V243.8z"/>
<path class="st2" d="M162.4,215.2h0.2c-0.9,2.7,0.5,5.6,3.2,6.6c2.7,0.9,5.6-0.5,6.6-3.2c0.4-1.1,0.4-2.3,0-3.4h0.2
	c2.8,0,5.2-2.3,5.1-5.2c0-2.8-2.3-5.2-5.2-5.1c-1.6,0-3.1,0.8-4.1,2c0.6-2.2,1.3-4.5,2.1-5.2h-6.2c0.8,0.7,1.6,3,2.1,5.2
	c-1.7-2.3-5-2.7-7.2-1c-2.3,1.7-2.7,5-1,7.2C159.2,214.5,160.7,215.2,162.4,215.2L162.4,215.2z M167.2,211.8L167.2,211.8z"/>
<g>
	<path class="st3" d="M95.3,239.7c-28.6,0-41.4-36.3-41.4-36.3s21.9-13.4,22.9-34.3c1-20.8,50.8-13.5,52.3,1.8s2.5,30.7,8.1,35.5
		C135.2,217.1,129.8,238.5,95.3,239.7z"/>
	<path class="st4" d="M92.1,184.7c0,0,9,13.8,16.6,13.8c7.6,0,13.5-6.7,15.7-10.3s-15.7-11.5-15.7-11.5L92.1,181V184.7z"/>
	<path class="st4" d="M77.5,173.6c0.2,0.5,5.1,5,6.4,6.1c1.3,1.1,6.4,2.9,6.4,2.9l-10.9-14.5h-3.4C76.1,168.1,75.2,168.9,77.5,173.6
		z"/>
	<path class="st5" d="M121.1,84.2c0,0,3.8,7.8,7.8,7.8s8.6-2,10.4,0s2.8,29.1,5.3,33.4c2.5,4.3,0.5,26,0,29.3s-4.8,13.7-9.9,20.2
		c-5.1,6.6-8.6,17.2-21.2,16.9c-12.6-0.3-27.8-10.9-34.4-19c-6.6-8.1-7.8-17.2-8.8-23.3c-1-6.1-4-19-2.5-26.5
		c1.5-7.6,17.4-39.2,47.3-40.4C115,82.7,117.8,83.7,121.1,84.2z"/>
	<path class="st6" d="M120.6,129.7c0,0-1-1.3-0.8-1.6c0.2-0.3,5.8-5.4,9.7-5.3c3.9,0.1,8.6,2.7,9.5,3.5l0.2,0.1l-0.8,1.7
		L120.6,129.7z"/>
	<path class="st6" d="M93.1,127.7c0,0,5.1,0.3,8.3,2.8c0,0-0.2,0.9-1.2,1.2s-7-2.3-7-2.3L93.1,127.7z"/>
	<path class="st7" d="M82.9,133.3l-0.7-2.2c0,0,5.7-3.8,10.8-3.4l1.2,1.3L82.9,133.3z"/>
	<path class="st7" d="M129,126.7c0.3,0.1,9.3,1.4,9.3,1.4l0.6-1.4c0,0-4.9-4-9.9-2.4l-1.6,0.7L129,126.7z"/>
	<path class="st8" d="M100.1,131.7c0,0-8.6-7.1-17.2,1.6C82.9,133.3,94.8,133.3,100.1,131.7z"/>
	<path class="st8" d="M120.6,129.5c0,0,7.2-9.9,17.7-1.3C138.2,128.1,129.9,129.1,120.6,129.5z"/>
	<path class="st9" d="M103.9,153.1c0,0,2.5-1.3,3.6-1.2c1.1,0.1,1.7,0.8,1.8,1.6"/>
	<path class="st9" d="M121.3,151.9c0,0-1-0.9-1.9-0.3s-0.6,2-0.6,2"/>
	<path class="st10" d="M110.2,155.6c0,0,3.6,2.6,7.4-0.5"/>
	<g>
		<g>
			<path class="st11" d="M102,145.2c-1.1,2.4-1.6,6,1,7.7c0.1,0.1,0.6,0,0.4-0.2c-2.5-1.6-1.8-5.1-0.8-7.4
				C102.6,145.1,102.1,145,102,145.2L102,145.2z"/>
		</g>
	</g>
	<path class="st12" d="M121.3,144.3c0,0,3.8,1.1,0.7,7.1"/>
	<path class="st13" d="M95.2,162l33.9-3.3c0,0,1.3,1-0.8,2.9c-2.2,1.9-14.4,8.4-14.4,8.4s-14-2.7-14-3.1c0.1-0.4-5.4-3-5.4-3
		S94.1,162.1,95.2,162z"/>
	<path class="st14" d="M99.4,162.4v2.2c0,0,1.7,0.5,2.5,0c0,0,1.3,1.8,3.5,0v1.2c0,0,1.7,0.7,3.1,0v0.6c0,0,5.4,1.7,9-0.4
		c0,0,2.4-0.3,3.1-0.9c0.7-0.7,1.5-0.3,2.2-0.9s2-1.2,2.4-1.8l-0.3-2C124.9,160.4,101.4,161.6,99.4,162.4z"/>
	<path class="st15" d="M95.2,161.7c2.8-0.6,11.6-2.4,18.6-1.7c0,0,0,0,0.1,0c0.5-0.1,6.9-1.8,15.2-1.6c0.2,0,0.3,0.3,0.1,0.3
		c-1.4,0.7-5.5,2.4-15.3,4.4c0,0-14.5-0.5-18.6-1.1C95,162,95,161.7,95.2,161.7z"/>
	<path class="st15" d="M94.5,164c-0.1-0.1-0.2,0.1-0.1,0.2c2,1.9,9.7,8.4,18.9,8.4c9.4,0,14.7-9.3,15.9-11.7
		c0.1-0.1-0.1-0.2-0.2-0.1c-1.7,1.6-8.3,7-16.9,7C103.3,167.8,96.7,165,94.5,164z"/>
	<path class="st15" d="M95.2,162"/>
	<g>
		<g>
			<path class="st11" d="M121.1,144.4c2.8,1.2,1.8,4.9,0.8,6.9c-0.1,0.2,0.4,0.2,0.5,0.1c1.1-2.2,2-6-1-7.2
				C121.4,144.2,120.9,144.3,121.1,144.4L121.1,144.4z"/>
		</g>
	</g>
	<g>
		<g>
			<path class="st11" d="M100.4,147c-2,2.5-4,5-6,7.5c-1.4,1.8-5,5.5-4.2,8c0,0.2,0.5,0.1,0.5-0.1c-0.9-2.6,3.4-6.9,4.9-8.8
				c1.7-2.2,3.5-4.4,5.3-6.6C100.9,147,100.5,146.9,100.4,147L100.4,147z"/>
		</g>
	</g>
	<path class="st6" d="M132.4,161.2c0,0,1.5-3.1,0.8-6.2c-0.7-3-8.5-9.9-8.5-9.9L132.4,161.2z"/>
	<g>
		<path class="st16" d="M102.3,125.7c0-0.4-0.1-0.5-0.2-0.8c-0.1-0.3-0.1-0.5-0.2-0.8c-0.1-0.3-0.3-0.5-0.5-0.7
			c-0.2-0.3-0.5-0.9-1-0.8"/>
	</g>
	<g>
		<path class="st16" d="M101.1,125.4c-0.1-0.3-0.4-0.6-0.6-0.8c-0.2-0.3-0.4-0.6-0.6-0.8c-0.1-0.2-0.4-0.3-0.5-0.5
			c-0.1-0.2-0.2-0.3-0.4-0.5c-0.2-0.3-0.7-0.8-1.1-0.7"/>
	</g>
	<g>
		<path class="st16" d="M99.1,125.2c0-0.1-0.1-0.1-0.1-0.1c0-0.1-0.1-0.2-0.1-0.3c-0.1-0.1-0.3-0.2-0.5-0.3
			c-0.3-0.2-0.5-0.6-0.7-0.9c-0.3-0.4-0.6-0.9-1-1.2c-0.1-0.1-0.5-0.2-0.7-0.3c-0.3,0-0.7,0.1-0.8-0.1"/>
	</g>
	<g>
		<path class="st16" d="M97,124.8c-0.3-0.2-0.6-0.5-0.9-0.8c-0.3-0.4-0.8-0.9-1.3-1"/>
	</g>
	<g>
		<path class="st16" d="M95.2,125c-0.3-0.3-0.5-0.6-0.8-0.9c-0.1-0.1-0.2-0.2-0.3-0.3c-0.2-0.2-0.4-0.5-0.5-0.7
			c-0.2-0.2-0.3-0.4-0.5-0.6c-0.2-0.2-0.3-0.3-0.5-0.4c-0.1-0.1-0.2-0.2-0.4-0.2c-0.2,0-0.4,0-0.5,0"/>
	</g>
	<g>
		<path class="st16" d="M93.5,124.7c-0.3-0.2-0.5-0.5-0.8-0.7c-0.3-0.2-0.6-0.5-0.9-0.7c-0.4-0.3-0.7-0.6-1.1-0.9
			c-0.2-0.1-0.3-0.1-0.5-0.2c-0.2,0-0.6,0-0.7-0.2"/>
	</g>
	<g>
		<path class="st16" d="M91,124.5c-0.2,0.1-0.5-0.2-0.6-0.3c-0.2-0.1-0.3-0.2-0.4-0.3c-0.2-0.1-0.4-0.2-0.6-0.3
			c-0.5-0.3-1-0.6-1.5-0.9c-0.2-0.1-0.4-0.3-0.6-0.4c-0.2,0-0.5,0-0.7,0"/>
	</g>
	<g>
		<path class="st16" d="M88.2,124.2c-0.3-0.3-0.5-0.2-0.8-0.3c-0.3-0.1-0.6-0.2-0.9-0.3c-0.3-0.1-0.5-0.3-0.9-0.3
			c-0.4,0-0.8,0-1.2,0"/>
	</g>
	<g>
		<path class="st16" d="M86.2,124.7c-0.3,0-0.6,0-0.9,0c-0.2-0.1-0.5-0.2-0.7-0.2c-0.4-0.1-0.8-0.1-1.3-0.1c-0.3,0-1.3-0.2-1.4,0.2"
			/>
	</g>
	<g>
		<path class="st16" d="M82.9,125.6c-0.3,0-0.4,0.1-0.7,0.1c-0.2,0-0.5,0-0.7,0c-0.5,0.2-1,0.7-1.5,0.7c0,0,0,0.1,0,0.1"/>
	</g>
	<g>
		<path class="st16" d="M80.6,126.9c-0.1,0-0.4,0.1-0.5,0.1c-0.2,0.1-0.4,0.3-0.6,0.4c-0.2,0.1-0.3,0.2-0.4,0.3
			c-0.1,0.1-0.3,0.3-0.4,0.4c-0.2,0.1-0.3,0.1-0.5,0.2"/>
	</g>
	<g>
		<path class="st16" d="M120.7,122.9c-0.4-0.4-0.4-1.1-0.3-1.6c0.1-0.3,0.1-0.7,0.2-1c0.1-0.2,0.2-0.5,0.2-0.7"/>
	</g>
	<g>
		<path class="st16" d="M122.2,122.7c0-0.3-0.2-0.5-0.2-0.7c-0.1-0.5,0-1,0-1.5c0-0.4,0-0.8,0.1-1.2c0.1-0.3,0.3-0.6,0.4-0.9"/>
	</g>
	<g>
		<path class="st16" d="M123.8,121.5c0-0.3-0.1-0.6-0.1-0.9c0-0.3,0-0.7,0-1c0-0.7,0.2-1.2,0.7-1.7"/>
	</g>
	<g>
		<path class="st16" d="M125.9,121c0-0.9,0.3-1.7,0.4-2.6c0-0.5,0.3-1.5,0.8-1.6"/>
	</g>
	<g>
		<path class="st16" d="M128.6,120.3c0-0.2-0.1-0.3-0.2-0.5c-0.1-0.2-0.1-0.3-0.1-0.5c0-0.4,0-0.9,0-1.3c0-0.5,0-0.7,0.4-1
			c0.2-0.1,0.3-0.1,0.5-0.2c0.1-0.1,0.2-0.2,0.4-0.2"/>
	</g>
	<g>
		<path class="st16" d="M130.4,118.7c0-1,0.2-2.1,1.1-2.8"/>
	</g>
	<g>
		<path class="st16" d="M132.5,118.8c0-0.2,0-0.4,0.1-0.6c0.2-0.3,0.3-0.6,0.6-0.9c0.3-0.5,0.7-1.1,1.4-1"/>
	</g>
	<g>
		<path class="st16" d="M134.2,118c-0.1-0.5,0.5-0.7,0.8-0.9c0.1-0.1,0.2-0.2,0.4-0.3c0.1,0,0.5-0.2,0.7-0.1"/>
	</g>
	<g>
		<path class="st16" d="M135.7,118.5c0-0.3,0.3-0.7,0.5-0.8c0.1-0.1,0.3-0.2,0.4-0.2c0.2,0,0.5,0.1,0.6-0.1"/>
	</g>
	<g>
		<path class="st16" d="M136.9,119c0-0.3,0.6-0.6,0.8-0.7c0.3-0.2,0.6-0.2,1-0.2"/>
	</g>
	<g>
		<path class="st16" d="M137.9,119.6c0.2-0.1,0.5-0.2,0.7-0.4c0.3-0.2,0.6-0.1,1-0.1"/>
	</g>
	<g>
		<path class="st16" d="M139.1,120.3c0.2,0,0.4-0.1,0.7-0.1c0.2,0,0.4,0,0.7,0"/>
	</g>
	<g>
		<path class="st16" d="M139.9,121.3c0.4-0.2,0.8-0.1,1.2-0.1"/>
	</g>
	<path class="st6" d="M122,133.7c0,0,7.8,4.4,15.6-0.5"/>
	<g>
		<path class="st6" d="M100.1,135.1c0,0-6.7,6.5-16.1,2.4"/>
	</g>
	<path class="st6" d="M102.3,84.7c1.1-0.4-11.4,12.4-13.9,17s0,8.4-2.2,13s-15.6,14.6-15.8,20.8c-0.2,6.2,0.8,9.2,0,11.6
		c-0.8,2.4-2.3,0.8-2.3,0.8s-9-22.7,7-41.2S94.2,87.7,102.3,84.7z"/>
	<path class="st6" d="M145.1,133.3c0,0-6.9,3.1-6.9,11c0,7.9,4.8,13.1,4.9,12.9c0-0.1,8.4-12.3,8.4-12.9
		C151.5,143.8,145.1,133.3,145.1,133.3z"/>
	<path class="st6" d="M106.7,129.7c0,0,3.6,16.2,1.2,20.2C107.8,149.9,108.1,139.5,106.7,129.7z"/>
	<path class="st6" d="M115.5,129.5c0,0,0.2,16.9,2.1,19.5"/>
	<g class="st17">
		<path class="st18" d="M81.4,136.1c0,0-4,1.6-7.3,1"/>
		<g>
			<path class="st19" d="M81,135.9c-2.1,0.8-4.6,1.3-6.8,0.9c-0.5-0.1-0.9,0.4-0.3,0.5c2.6,0.4,5.4-0.1,7.8-1
				C82.3,136.1,81.3,135.8,81,135.9L81,135.9z"/>
		</g>
	</g>
	<path class="st20" d="M80.1,134.4c0,0-4.6-2.2-5.2-3.8"/>
	<path class="st20" d="M139.6,129.1c0,0,2.4,0.2,2.9-0.6"/>
	<path class="st20" d="M137.2,132.7c0,0,2,0.8,3.2,0.2"/>
	<path class="st4" d="M117.5,155.3c0,0-1.2,3-3.7,3c-2.5,0-3.7-2.5-3.7-2.5s1.8,1,3.7,1C115.8,156.8,117.5,155.3,117.5,155.3z"/>
	<path class="st6" d="M134.2,91.5c0,0,1.7,20.7,6.9,25c5.3,4.3,0,0,0,0l5.6-21.8l-5.6-8.3L134.2,91.5"/>
	<path class="st7" d="M93.7,129.1c-1.3-0.2-2.6-0.1-4.1,0.2c-1.6,1.1-1.9,3.1,0.4,3.8c1.4-0.1,2.9-0.2,4.3-0.3
		C95.9,131.8,95.4,129.9,93.7,129.1z"/>
	<path class="st7" d="M130.9,124.7c-1.5-0.2-2.8,0-4,0.3c-1.5,1.2-1.7,3.6,1.2,4c0.9-0.1,1.7-0.1,2.5-0.2
		C133,128.1,132.9,125.7,130.9,124.7z"/>
	<path class="st8" d="M128.2,125.7c0,0,1-0.4,1.8-0.1C129.9,125.6,129,124.7,128.2,125.7z"/>
	<g class="st21">
		<g>
			<path class="st22" d="M79.2,128.9c4.9-5.9,14.7-4.7,21.3-2.8c1.1,0.3,3-3.5,2.8-3.5c-8.1-2.4-21.9-3.2-25.1,6.9
				c-0.3,0.8,2.5-1.8,2.8-2.7c0.3-0.8,4.3-1.6,5-1.8c1.5-0.3,3-0.4,4.5-0.3c3.3,0.1,6.8,0.5,10,1.5c0.9-1.2,1.8-2.4,2.8-3.5
				c-8.6-2.5-18-2.5-24.1,4.8C78.2,128.6,77.2,131.3,79.2,128.9L79.2,128.9z"/>
		</g>
	</g>
	<g class="st21">
		<g>
			<path class="st22" d="M140.5,120.4c-3.1-1.9-5.6-3.8-9.5-3.8c-4.8,0.1-7.9,3.3-12.2,4.4c1.2,0.9,2.3,1.8,3.5,2.7
				c2.1-2.8,5.6-4.7,9.1-5.3c2.4-0.4,4.8,0.1,6.8,1.4c0.9,0.6,1.6,1.4,2.5,2c2.2,1.4,3,0.4,0.8-1.1c-3.7-2.4-5.7-4.7-10.4-5.1
				c-4.5-0.5-9.7,2-12.5,5.6c-0.6,0.8,2.8,2.9,3.5,2.7c3.1-0.8,5.7-3.1,8.9-4c4-1,6.4,0.3,9.7,2.3
				C143.4,123.8,142,121.3,140.5,120.4L140.5,120.4z"/>
		</g>
	</g>
	<path class="st23" d="M105.8,54.9c0,0-27.1-12.8-54.3,23.1c-20.8,47.7-19.9,60.9-20.5,64.7s-3.2,13.1-3.2,13.1s-2.9,8.8,9.6,19.1
		s6.1,16.8,6.1,16.8s-13.1,2.6-7.7-7.4c0,0-11.5,4.5-8.3,10.2s-4.5,3.2-4.5,3.2s0.3,6.4,8,9.3s35.3,13.1,46.2-9.9
		c0,0,5.7-14.8-2.5-32.7S65,90.5,116.2,83.8s1.3-1.3,1.3-1.3s5.5,10,10.7,9.4c5.2-0.6,10.4,0,10.4,0s0.6,29.3,5.3,33.4
		s-0.7,32.1-0.7,32.1l-9.1,17.5c0,0-0.8,8.9,1.7,10.9c2.6,1.9,4.8,9.6,20.8,6.1c0,0-3.5-1.9-3.2-5.1s6.4,0.3,9.6-1.9
		s12.8-19.2,12.2-28c-0.6-8.8,0-12.1-5.1-21.5s-1.3-35-13.1-47.8c-11.9-12.8-34.2-29.5-46.7-30.7L105.8,54.9z"/>
	<path class="st24" d="M116.2,83.8c0,0-0.5-9.8-0.7-10.4s2.9,9.5,2.8,10.4C118.2,84.7,116.2,83.8,116.2,83.8"/>
	<path class="st12" d="M102.3,53.7c0,0,5.6,2,6.7,2.4c1.1,0.4,4.9,0.4,10.4,3.2"/>
	<path class="st25" d="M112,73.3c0,0-50.5,3-50.5,54.2C61.5,127.5,58.3,83.4,112,73.3z"/>
	<path class="st25" d="M102.7,56.4c0,0-19.1-1.6-27.1,6.4C75.6,62.9,81.6,54.4,102.7,56.4z"/>
	<path class="st25" d="M123.9,66.5c0,0,32.3,16.3,36.4,30.1C160.3,96.6,156,80.3,123.9,66.5z"/>
	<path class="st25" d="M165.7,136.5c0,0,14.8,15.3-3.6,42.9C162.2,179.5,178.1,155.4,165.7,136.5z"/>
</g>
</svg>
