<svg id="Layer_1" data-name="Layer 1" xmlns="http://www.w3.org/2000/svg" viewBox="0 0 196 266.67"><defs><style>.cls-1{fill:#f8e4e3;}.cls-2{fill:#231f20;}.cls-3{fill:#010101;}.cls-4{fill:#da9f7b;}.cls-5{fill:#60434c;opacity:0.6;}.cls-6{fill:#dcaa8b;}.cls-7{fill:#d39372;}.cls-8{fill:#211010;}.cls-9{fill:#ebf4f0;}.cls-10{fill:#6b3720;}.cls-11,.cls-13{fill:none;}.cls-11{stroke:#d39c82;stroke-miterlimit:10;stroke-width:0.5px;}.cls-12{fill:#d39c82;}.cls-14{fill:#b8947d;}.cls-15{fill:#f8e8d7;}.cls-16{fill:#c76e5c;}.cls-17{fill:#1d1611;}.cls-18{fill:#e6966b;opacity:0.5;}.cls-19,.cls-22{opacity:0.2;}.cls-20,.cls-22{fill:#a65833;}.cls-21{fill:#be6d48;}.cls-23{opacity:0.15;}.cls-24{fill:#381c15;}.cls-25{fill:#2c1712;}.cls-26{fill:#754f42;}</style></defs><title>badbitchcards</title><rect class="cls-1" x="8.63" y="8.48" width="178.58" height="249.45" rx="8.5" ry="8.5"/><path class="cls-2" d="M21.63,30.45l7-9.81H32V31h2.8V33.3H32V37H29.64V33.3h-8Zm8-7.44L23.9,31h5.75Z"/><path class="cls-3" d="M33.08,51.55h-.24a5.16,5.16,0,1,0-9.74,0h-.24A5.16,5.16,0,1,0,27,59.82C26.41,62,25.66,64.28,24.85,65h6.24c-.81-.73-1.56-3-2.12-5.19a5.16,5.16,0,1,0,4.11-8.28ZM28.2,55s0,0,0,0Z"/><path class="cls-2" d="M173.81,236.35l-7,9.81h-3.4V235.79h-2.8V233.5h2.8v-3.68h2.39v3.68h8Zm-8,7.44,5.75-8h-5.75Z"/><path class="cls-3" d="M162.36,215.25h.24a5.16,5.16,0,1,0,9.74,0h.24a5.16,5.16,0,1,0-4.12-8.28c.56-2.18,1.31-4.46,2.12-5.19h-6.24c.81.73,1.56,3,2.12,5.19a5.16,5.16,0,1,0-4.11,8.28Zm4.87-3.45s0,0,0,0Z"/><path class="cls-4" d="M93.94,231.53c-26.2,0-37.93-33.29-37.93-33.29s20.09-12.31,21-31.41,46.53-12.38,48,1.6,2.25,28.17,7.44,32.54C130.51,210.79,125.6,230.43,93.94,231.53Z"/><path class="cls-5" d="M91,181.13s8.24,12.68,15.22,12.68,12.37-6.11,14.43-9.46-14.43-10.58-14.43-10.58L91,177.7Z"/><path class="cls-5" d="M77.68,171a80.73,80.73,0,0,0,5.86,5.56c1.2,1,5.86,2.7,5.86,2.7l-10-13.32H76.34S75.51,166.62,77.68,171Z"/><path class="cls-6" d="M117.62,89s3.48,7.18,7.18,7.18,7.88-1.85,9.5,0,2.55,26.64,4.87,30.58.46,23.86,0,26.88-4.4,12.51-9,18.54-7.88,15.75-19.46,15.52-25.49-10-31.51-17.38S72,154.6,71.05,149s-3.71-17.38-2.32-24.33,16-35.91,43.33-37.07A32.9,32.9,0,0,0,117.62,89Z"/><path class="cls-7" d="M117.14,130.77s-.93-1.22-.75-1.49,5.3-4.9,8.85-4.84,7.88,2.49,8.66,3.17l.14.13-.71,1.54Z"/><path class="cls-7" d="M91.92,128.93s4.71.31,7.62,2.54a1.58,1.58,0,0,1-1.14,1.11c-1,.26-6.45-2.07-6.45-2.07Z"/><path class="cls-8" d="M82.62,134l-.61-2s5.25-3.52,9.92-3.14L93,130.1Z"/><path class="cls-8" d="M124.81,128c.31.1,8.52,1.3,8.52,1.3l.57-1.3s-4.45-3.63-9.09-2.2l-1.47.68Z"/><path class="cls-9" d="M98.4,132.58s-7.92-6.47-15.79,1.46C82.62,134,93.54,134.06,98.4,132.58Z"/><path class="cls-9" d="M117.14,130.51s6.57-9,16.19-1.24C133.33,129.27,125.73,130.19,117.14,130.51Z"/><path class="cls-10" d="M101.89,152.2s2.26-1.17,3.3-1.06a1.7,1.7,0,0,1,1.67,1.46"/><path class="cls-10" d="M117.81,151.1s-.88-.85-1.73-.28a1.84,1.84,0,0,0-.59,1.8"/><path class="cls-11" d="M107.59,154.46a5.54,5.54,0,0,0,6.75-.49"/><path class="cls-12" d="M100.11,144.91c-1,2.25-1.5,5.51.88,7,.14.09.59,0,.35-.18-2.25-1.45-1.66-4.7-.75-6.8.08-.17-.42-.22-.48-.07Z"/><path class="cls-13" d="M117.81,144.13s3.53,1,.68,6.5"/><path class="cls-14" d="M93.89,160.36l31.06-3s1.22.92-.77,2.65S111,167.73,111,167.73s-12.87-2.45-12.81-2.8-5-2.79-5-2.79S92.86,160.46,93.89,160.36Z"/><path class="cls-15" d="M97.68,160.69v2a3.55,3.55,0,0,0,2.31,0s1.2,1.63,3.21,0v1.09a4.16,4.16,0,0,0,2.89,0v.54s4.92,1.51,8.25-.36c0,0,2.24-.24,2.84-.85s1.39-.3,2-.79a11.52,11.52,0,0,0,2.18-1.67l-.29-1.86S99.55,159.93,97.68,160.69Z"/><path class="cls-16" d="M93.88,160c2.52-.57,10.59-2.22,17.07-1.54h0A55.54,55.54,0,0,1,125,157a.17.17,0,0,1,.08.31c-1.27.64-5,2.21-14.06,4,0,0-13.29-.47-17.08-1A.17.17,0,0,1,93.88,160Z"/><path class="cls-16" d="M93.2,162.14a.11.11,0,0,0-.12.18C95,164.07,102,170,110.38,170c8.59,0,13.45-8.54,14.56-10.73a.1.1,0,0,0-.16-.13c-1.59,1.44-7.65,6.41-15.45,6.41A38.93,38.93,0,0,1,93.2,162.14Z"/><path class="cls-12" d="M117.64,144.25c2.6,1.05,1.66,4.49.75,6.35-.08.17.41.22.48.07,1-2,1.84-5.49-.88-6.59-.14-.06-.61.07-.35.18Z"/><path class="cls-12" d="M98.58,146.6c-1.86,2.27-3.7,4.56-5.5,6.88-1.31,1.69-4.61,5-3.86,7.35,0,.15.54.12.48-.07-.76-2.42,3.2-6.38,4.54-8.1q2.38-3,4.82-6c.1-.12-.37-.2-.48-.07Z"/><path class="cls-12" d="M128,159.63a9.88,9.88,0,0,0,.71-5.65c-.64-2.78-7.77-9-7.77-9Z"/><path class="cls-17" d="M100.36,127a1.87,1.87,0,0,0-.17-.72c-.08-.24-.11-.5-.19-.74a1.61,1.61,0,0,0-.42-.63c-.23-.26-.47-.84-.88-.77"/><path class="cls-17" d="M99.26,126.83a2.57,2.57,0,0,0-.55-.77,5.54,5.54,0,0,1-.52-.77c-.12-.19-.33-.27-.48-.44a3.77,3.77,0,0,1-.33-.48c-.19-.28-.61-.7-1-.63"/><path class="cls-17" d="M97.5,126.61c0-.09-.07-.07-.11-.13s-.08-.19-.12-.24a2,2,0,0,0-.43-.31c-.31-.22-.42-.57-.66-.86a7.42,7.42,0,0,0-.94-1.1,1.72,1.72,0,0,0-.6-.23c-.24,0-.6.13-.78-.1"/><path class="cls-17" d="M95.51,126.28a5.23,5.23,0,0,1-.79-.77c-.28-.32-.73-.83-1.19-.89"/><path class="cls-17" d="M93.86,126.39a8.83,8.83,0,0,1-.69-.86,2.81,2.81,0,0,0-.3-.27,6.72,6.72,0,0,1-.48-.63c-.14-.18-.3-.34-.45-.52a2,2,0,0,0-.45-.37c-.14-.1-.16-.19-.32-.23a2.5,2.5,0,0,0-.5,0"/><path class="cls-17" d="M92.31,126.17c-.28-.21-.49-.45-.77-.66s-.53-.42-.83-.61-.66-.59-1.05-.81a1.55,1.55,0,0,0-.45-.16c-.17,0-.53,0-.64-.19"/><path class="cls-17" d="M90,125.95c-.19.05-.42-.22-.58-.3s-.27-.17-.41-.25-.39-.15-.58-.27c-.44-.27-.91-.53-1.33-.84a1.62,1.62,0,0,0-.54-.34,3.24,3.24,0,0,0-.64,0"/><path class="cls-17" d="M87.46,125.72c-.25-.23-.48-.17-.77-.25a6.36,6.36,0,0,1-.86-.28A2.1,2.1,0,0,0,85,125c-.37,0-.74,0-1.11,0"/><path class="cls-17" d="M85.59,126.17a3.54,3.54,0,0,1-.86,0c-.21-.06-.45-.17-.68-.22a5.23,5.23,0,0,0-1.19-.09c-.25,0-1.19-.16-1.24.22"/><path class="cls-17" d="M82.61,126.94a4.37,4.37,0,0,1-.66.11,2.34,2.34,0,0,0-.66,0c-.48.14-.91.61-1.41.66l0,.09"/><path class="cls-17" d="M80.51,128.15c-.12,0-.33.09-.44.14s-.36.23-.55.34a1.66,1.66,0,0,0-.41.31,2.74,2.74,0,0,1-.37.33,4.45,4.45,0,0,0-.44.21"/><path class="cls-17" d="M117.24,124.51A1.75,1.75,0,0,1,117,123c.07-.31.1-.62.19-.92a1.85,1.85,0,0,0,.19-.68"/><path class="cls-17" d="M118.67,124.29c0-.24-.15-.45-.2-.68a6.69,6.69,0,0,1,0-1.41,3,3,0,0,1,.11-1.06,4.27,4.27,0,0,0,.33-.83"/><path class="cls-17" d="M120.1,123.19c0-.26-.11-.51-.11-.78s0-.63,0-1a2,2,0,0,1,.66-1.57"/><path class="cls-17" d="M122,122.75c0-.82.31-1.59.33-2.41,0-.45.23-1.36.77-1.45"/><path class="cls-17" d="M124.51,122.09c0-.18-.08-.28-.14-.44a1.18,1.18,0,0,1-.08-.47c0-.39,0-.79,0-1.19a1,1,0,0,1,.4-.94,1.6,1.6,0,0,1,.49-.18c.13,0,.2-.16.33-.2"/><path class="cls-17" d="M126.17,120.6a3.08,3.08,0,0,1,1-2.54"/><path class="cls-17" d="M128,120.76a.87.87,0,0,1,.1-.55c.17-.27.32-.58.5-.84.31-.42.62-1,1.27-.93"/><path class="cls-17" d="M129.59,120c-.08-.42.43-.68.72-.82.14-.07.21-.21.34-.27a2,2,0,0,1,.6-.12"/><path class="cls-17" d="M131,120.43a1.22,1.22,0,0,1,.5-.78,1.87,1.87,0,0,1,.32-.2c.14,0,.47.07.51-.13"/><path class="cls-17" d="M132.12,120.87c0-.25.53-.55.72-.67a1.58,1.58,0,0,1,.94-.22"/><path class="cls-17" d="M133,121.42a4.75,4.75,0,0,0,.66-.33,1.72,1.72,0,0,1,.88-.11"/><path class="cls-17" d="M134.11,122.09c.2,0,.4-.11.61-.11h.61"/><path class="cls-17" d="M134.84,123a2.51,2.51,0,0,1,1.1-.11"/><path class="cls-12" d="M118.42,134.37s7.19,4,14.33-.43"/><path class="cls-12" d="M98.4,135.66a13.81,13.81,0,0,1-14.8,2.17"/><path class="cls-18" d="M100.36,89.49c1-.36-10.41,11.34-12.74,15.55s0,7.72-2,11.94S71.25,130.33,71.07,136s.72,8.42,0,10.6-2.11.76-2.11.76-8.24-20.81,6.41-37.73S93,92.2,100.36,89.49Z"/><path class="cls-18" d="M139.61,134a11.38,11.38,0,0,0-6.28,10.09A17.54,17.54,0,0,0,137.79,156c0-.12,7.72-11.32,7.72-11.81S139.61,134,139.61,134Z"/><path class="cls-7" d="M104.38,130.77s3.32,14.81,1.06,18.47A127.72,127.72,0,0,0,104.38,130.77Z"/><path class="cls-7" d="M112.46,130.51s.15,15.48,1.88,17.89"/><g class="cls-19"><path class="cls-20" d="M81.23,136.57s-3.67,1.47-6.71.89"/><path class="cls-21" d="M80.88,136.39a12.4,12.4,0,0,1-6.22.82c-.47-.08-.93.37-.27.48a14,14,0,0,0,7.2-1c.51-.2-.42-.47-.71-.35Z"/></g><path class="cls-22" d="M80.05,135s-4.19-2-4.74-3.51"/><path class="cls-22" d="M134.55,130.17s2.15.22,2.63-.56"/><path class="cls-22" d="M132.34,133.45a4.64,4.64,0,0,0,3,.18"/><path class="cls-5" d="M114.34,154.2S113.25,157,111,157a4.11,4.11,0,0,1-3.38-2.3,7.82,7.82,0,0,0,3.38.91A6,6,0,0,0,114.34,154.2Z"/><path class="cls-18" d="M129.58,95.74s1.53,19,6.36,22.93h0l5.12-20L135.94,91l-6.36,4.69"/><path class="cls-8" d="M92.51,130.18a10.51,10.51,0,0,0-3.74.2c-1.44,1-1.73,2.84.36,3.46,1.29-.08,2.65-.18,4-.32C94.55,132.66,94.09,130.95,92.51,130.18Z"/><path class="cls-8" d="M126.61,126.16a9.25,9.25,0,0,0-3.67.32c-1.33,1.14-1.51,3.3,1.11,3.64l2.33-.18C128.56,129.25,128.43,127.06,126.61,126.16Z"/><path class="cls-9" d="M124.08,127.06a2.59,2.59,0,0,1,1.63-.08A1,1,0,0,0,124.08,127.06Z"/><g class="cls-23"><path class="cls-24" d="M79.24,130.06c4.47-5.33,13.46-4.2,19.38-2.51,1.08.31,3-3.47,2.77-3.55-7.63-2.3-20.22-2.84-23.2,6.55-.25.81,2.5-1.81,2.8-2.74.13-.42,3.86-1.25,4.35-1.34a20.17,20.17,0,0,1,4.16-.3,33.94,33.94,0,0,1,9.12,1.38l2.77-3.55c-8-2.28-16.54-2.23-22.19,4.51-1,1.23-2,4,0,1.55Z"/></g><g class="cls-23"><path class="cls-24" d="M135.41,122.14c-2.91-1.78-5.21-3.52-8.8-3.48-4.39,0-7.26,3-11.23,4.05l3.52,2.68a13.45,13.45,0,0,1,8.31-4.84,8.48,8.48,0,0,1,6,1.16c.82.54,1.52,1.31,2.35,1.86,2.15,1.44,3,.37.77-1.1-3.38-2.26-5.32-4.36-9.65-4.79a13.72,13.72,0,0,0-11.45,5.13c-.64.83,2.79,2.88,3.52,2.68,2.86-.77,5.2-2.87,8.15-3.63,3.64-.93,5.81.21,8.77,2,2.64,1.62,1.26-.84-.23-1.75Z"/></g><path class="cls-25" d="M103.63,62.17S78.78,50.42,53.83,83.3C34.75,127,35.63,139.07,35,142.6s-2.94,12-2.94,12-2.64,8,8.81,17.52,5.58,15.36,5.58,15.36-12,2.35-7-6.75c0,0-10.51,4.11-7.6,9.39s-4.14,2.94-4.14,2.94S28,199,35,201.6s32.33,12,42.31-9.1c0,0,5.19-13.53-2.25-30s-8.9-67.75,38-73.91,1.21-1.21,1.21-1.21,5,9.15,9.76,8.57a45.07,45.07,0,0,1,9.5,0s.56,26.88,4.87,30.58-.68,29.41-.68,29.41l-8.35,16s-.78,8.19,1.58,10,4.42,8.8,19.09,5.58c0,0-3.23-1.76-2.94-4.7S153,183.1,156,181s11.74-17.56,11.15-25.66,0-11.1-4.7-19.73-1.17-32.11-12-43.85-31.32-27-42.81-28.18Z"/><path class="cls-6" d="M113.13,88.63s-.44-9-.67-9.52,2.68,8.69,2.61,9.52-1.94,0-1.94,0"/><path class="cls-13" d="M100.42,61.1s5.15,1.79,6.16,2.16,4.48.4,9.52,2.93"/><path class="cls-26" d="M109.28,79S63,81.72,63,128.67C63,128.67,60.06,88.3,109.28,79Z"/><path class="cls-26" d="M100.78,63.56s-17.51-1.47-24.88,5.9C75.9,69.46,81.44,61.68,100.78,63.56Z"/><path class="cls-26" d="M120.14,72.78s29.63,14.92,33.36,27.56C153.5,100.35,149.57,85.43,120.14,72.78Z"/><path class="cls-26" d="M158.54,137s13.54,14-3.26,39.36C155.28,176.32,169.82,154.26,158.54,137Z"/></svg>