<svg id="Layer_1" data-name="Layer 1" xmlns="http://www.w3.org/2000/svg" viewBox="0 0 196 266.67"><defs><style>.cls-1{fill:#f8e4e3;}.cls-2{fill:#231f20;}.cls-3{fill:#010101;}.cls-4{fill:#1d1611;}.cls-5{fill:#60605c;}.cls-6{fill:#ecb690;}.cls-7{fill:#8b7460;}.cls-8{fill:#6b3720;}.cls-23,.cls-9{opacity:0.6;}.cls-10{fill:#d28867;}.cls-11{fill:#c76e5c;}.cls-12{fill:#bc917c;opacity:0.81;}.cls-13{fill:#ebf4f0;}.cls-14{fill:#cea28b;}.cls-15{fill:#7ba29e;}.cls-16,.cls-19,.cls-21{fill:#d39c82;}.cls-16,.cls-22{opacity:0.52;}.cls-17{fill:#eec5a6;}.cls-18{fill:#f5e0cd;stroke:#fff;stroke-miterlimit:10;stroke-width:0.25px;}.cls-19,.cls-20{opacity:0.39;}.cls-23{fill:#434345;}.cls-24{opacity:0.15;}.cls-25{fill:#381c15;}</style></defs><title>badbitchcards</title><rect class="cls-1" x="8.63" y="8.48" width="178.58" height="249.45" rx="8.5" ry="8.5"/><path class="cls-2" d="M33.22,23.19a6.14,6.14,0,0,0-2.92-.71c-3.4,0-5.55,2.5-5.75,5.85a4.92,4.92,0,0,1,4.31-2.12,5.23,5.23,0,0,1,5.6,5.57c0,3.5-2.85,5.57-6,5.57S22,35.19,22,29.8c0-6.08,3.66-9.53,8.42-9.53a6.41,6.41,0,0,1,3.53.91Zm-4.79,12a3.44,3.44,0,1,0,0-6.88,3.35,3.35,0,0,0-3.53,3.45A3.42,3.42,0,0,0,28.43,35.22Z"/><path class="cls-3" d="M28.85,41.91c4.64,4.41,9.27,8.82,9.27,13.22a4.53,4.53,0,0,1-4.65,4.39c-2.12,0-3.27-.92-4.34-2.76,1.07,3.82,2.22,5.74,4.34,5.74H24.23c2.12,0,3.27-1.92,4.34-5.74-1.07,1.84-2.22,2.76-4.34,2.76a4.53,4.53,0,0,1-4.65-4.39C19.57,50.73,24.21,46.32,28.85,41.91Z"/><path class="cls-2" d="M164,246.61a6.12,6.12,0,0,0,2.92.71c3.4,0,5.55-2.5,5.75-5.85a4.92,4.92,0,0,1-4.31,2.12,5.23,5.23,0,0,1-5.6-5.57c0-3.5,2.85-5.57,6-5.57s6.38,2.17,6.38,7.56c0,6.07-3.65,9.53-8.42,9.53a6.41,6.41,0,0,1-3.53-.91Zm4.79-12a3.44,3.44,0,1,0,3.53,3.43A3.42,3.42,0,0,0,168.84,234.59Z"/><path class="cls-3" d="M167.42,227.89c-4.64-4.41-9.27-8.82-9.27-13.22a4.53,4.53,0,0,1,4.65-4.39c2.12,0,3.27.92,4.34,2.76-1.07-3.82-2.22-5.74-4.34-5.74H172c-2.12,0-3.27,1.92-4.34,5.74,1.07-1.84,2.22-2.76,4.34-2.76a4.53,4.53,0,0,1,4.65,4.39C176.7,219.07,172.06,223.48,167.42,227.89Z"/><path class="cls-4" d="M108.18,42.94c41.9,0,54.07,37.38,53.51,55.22-2.27,19.65-5.1,26.5-5.66,32.79s-13.46,23.62-13.46,23.62L49.62,130.5s-5.73-5.73-4-17.06l1.7-11.32S50.43,46.34,108.18,42.94Z"/><path class="cls-5" d="M97.91,89.81c-1.72-6.89-3.46-13.91-6.12-20.51C88.47,61.07,83.26,57,75.16,53.87c-.81-.32-2.24,1-2.9.78,8.12,3.16,13.3,7.18,16.63,15.42,2.67,6.6,4.4,13.62,6.12,20.51a11.12,11.12,0,0,0,2.9-.78Z"/><path class="cls-5" d="M113.52,97.34c3.6-17.26,2-38.64-6.24-54.42-.28-.53-3,.57-2.9.78,8.26,15.77,9.84,37.15,6.24,54.42,0,0,2.74,0,2.9-.78Z"/><path class="cls-5" d="M128.84,94c9.09-11.08,14.68-26.14,12.6-40.55-.08-.52-3,.07-2.9.78C140.62,68.54,135,83.47,126,94.5c-.13.16,2.31.14,2.85-.53Z"/><path class="cls-5" d="M76.38,103.27C68.5,93.12,56.77,76.47,42.05,81.93c-1.07.39,1.71-.26,2.09-.4,6-2.24,13.73,5.12,17.57,9A147,147,0,0,1,73.48,104c.32.42,2.76-1,2.9-.78Z"/><path class="cls-5" d="M146,110.85c4.69-3.46,7.74-8.73,10.39-13.81,1.21-2.32,2.31-4.7,3.42-7.07a10.92,10.92,0,0,0,1.27-2.68c0-.14.45-.63.4-.74.05.11-2.47-.06-2.36.6,0,.06,2.94-.51,2.9-.78a.36.36,0,0,0-.09-.29.33.33,0,0,0-.21,0c-3.57.45-3.9,2.74-5.33,5.81-3.26,7-6.83,14.95-13.19,19.64.44-.32,2.11-.18,2.81-.69Z"/><path class="cls-6" d="M95.2,247.61C63.27,247.61,50,195.66,50,195.66s14.07,2.77,12.7-15.44h0s58.22-6.49,65.9.9h0s-4.05,14.78-1,26.29S108,247.61,95.2,247.61Z"/><path class="cls-4" d="M62.14,188S85.84,204.38,91,204.38s9.4-5.93,9.4-5.93l-6.95-13.23-30.76-5Z"/><path class="cls-4" d="M112.25,186.64s2.48,12.27,2,14.71,12.19-3.51,12.19-3.51.22-9.55,2.14-16.71-14.33,0-14.33,0Z"/><path class="cls-6" d="M113.54,91c10-2.06,17.65-9.12,32.95,18.83-3.83,7-4.65,13.85-1.92,22.32.27,10.66-.27,12,.55,15.58s-7,37.58-23,45.36a41.87,41.87,0,0,1-24.59,4.39c-10.93-1.12-25.69-4.67-33.61-16.69S59,162.43,58.49,160c-5.47,2.19-6.83-8.47-9-14.76s2.46-19.95,7.38-13.39c9-9,11.48-25.14,13.12-29.51S89.62,69.49,113.54,91Z"/><polygon class="cls-7" points="81.1 167.73 99.85 175.43 114.78 173.38 114.68 173.18 92.47 170.34 81.1 167.73"/><path class="cls-8" d="M94.21,158.42c3.74-1.79,3.41-.65,6.83,2.11"/><g class="cls-9"><path class="cls-10" d="M93.18,150c-2.12,1.73-3.21,4.53-1.53,6.93.15.21.87.11.72-.1-1.62-2.32-.59-5,1.45-6.64.25-.21-.46-.34-.65-.19Z"/></g><path class="cls-11" d="M81.1,167.73c8.75-1.17,26.14,1,33.58,5.44C106.72,174.92,88.88,169.68,81.1,167.73Z"/><path class="cls-11" d="M97.71,177.27c7.59,1.36,13.34-.17,17.06-3.89,0,0-4.41,1.57-16-1.16s-17.58-4.28-17.58-4.28S88.57,175.91,97.71,177.27Z"/><path class="cls-12" d="M122.38,131.48c8.64-3.7,12.31,2.92,13.22,4.72L134,137.52l-18.27-1.92A27.54,27.54,0,0,1,122.38,131.48Z"/><path class="cls-12" d="M77.69,127s-1.42-.58-1.14-1.18,6.29-5.31,11.44-2.59S95.34,132,95.34,132Z"/><path class="cls-13" d="M119.49,134.6c6-2,10.15-1.38,14.46,2.92a16.89,16.89,0,0,1-13.38,0Z"/><path class="cls-14" d="M115.68,135.6c.7,1.68,4.89,1.92,4.89,1.92l-1.08-2.92Z"/><path class="cls-13" d="M77.69,127c4.56-2.28,13.24-1.41,15.21,4.08,0,0-3,3.22-8.52,1.09S77.69,127,77.69,127Z"/><path class="cls-14" d="M95.34,132c-.91,2.28-5.18.58-5.18.58A3.91,3.91,0,0,0,92.9,131Z"/><path class="cls-15" d="M84.89,131.23c3.42,1,4.76-1.33,5.27-3.4C85.92,124.89,83,126,83,126S81.73,130.12,84.89,131.23Z"/><path class="cls-15" d="M126.21,138.51c2.73.3,3.65-2.21,3.82-3.92a12.51,12.51,0,0,0-7.57-.8S121.53,137.26,126.21,138.51Z"/><circle class="cls-4" cx="85.8" cy="128.8" r="1.15"/><circle class="cls-4" cx="125.57" cy="135.74" r="1.15"/><path class="cls-16" d="M140.37,119.78c0,7.18,2.32,14.91,0,18.75,2.75,3.42,4.27,4.05,4.27,4.05l-.07-10.49a31,31,0,0,1,.07-18.33C140.37,110.92,140.37,119.78,140.37,119.78Z"/><path class="cls-4" d="M98.81,122.26a9.41,9.41,0,0,0-1.63-5.34"/><path class="cls-4" d="M97.3,122.08a9.15,9.15,0,0,0-2.15-6.24"/><path class="cls-4" d="M95,120.81a6.13,6.13,0,0,0-1.35-5.25"/><path class="cls-4" d="M92.46,119.49a4.17,4.17,0,0,0-1.17-4.36"/><path class="cls-4" d="M90.71,118.79a4.81,4.81,0,0,0-.89-4.55"/><path class="cls-4" d="M88.53,117.15a3.83,3.83,0,0,0-1.64-3.8"/><path class="cls-4" d="M86.23,115.87a3.37,3.37,0,0,0-1.69-3.1"/><path class="cls-4" d="M83.5,115.89a2.57,2.57,0,0,0-1.71-2.9"/><path class="cls-4" d="M84.42,115.71a2.14,2.14,0,0,0-1.37-2.5"/><path class="cls-4" d="M81.42,114.42a3.11,3.11,0,0,0-1.8-1.69"/><path class="cls-4" d="M79.6,115a5.16,5.16,0,0,0-2.91-1.13"/><path class="cls-4" d="M77.68,115.79a2.69,2.69,0,0,0-3.07-.62"/><path class="cls-4" d="M75.77,116.64a1.85,1.85,0,0,0-2.24.46"/><path class="cls-4" d="M73.78,118.44a2,2,0,0,0-1.47,1.08"/><path class="cls-4" d="M116.59,127.91a3.79,3.79,0,0,1,3.3-4.17"/><path class="cls-4" d="M118.34,127.52a5.87,5.87,0,0,1,3.92-4.17"/><path class="cls-4" d="M120.53,126.83a4.51,4.51,0,0,1,3.75-3.62"/><path class="cls-4" d="M122.45,126.45a3.61,3.61,0,0,1,3.64-3.08"/><path class="cls-4" d="M124.46,126.63a4.6,4.6,0,0,1,3.43-3.72"/><path class="cls-4" d="M126.55,126.63a8.56,8.56,0,0,1,1.36-2.56,2.9,2.9,0,0,1,2.57-1.09"/><path class="cls-4" d="M128.86,126.1a4.42,4.42,0,0,1,4-2.92"/><path class="cls-4" d="M131.22,126.1a3.44,3.44,0,0,1,4.54-1.85"/><path class="cls-4" d="M133.22,126.46a4.27,4.27,0,0,1,4.36-1.5"/><path class="cls-4" d="M136.06,127a2.27,2.27,0,0,1,3-.79"/><path class="cls-4" d="M137.34,127.67a2.55,2.55,0,0,1,2.59-.46"/><path class="cls-4" d="M139.57,127.89l.54-.19"/><path class="cls-17" d="M56.65,135.74c-2-2.7-4.2-.84-3.09,6.85"/><circle class="cls-18" cx="57.77" cy="154.37" r="5.3"/><path class="cls-16" d="M145.09,149.68c-2.26-1.36-5.31-2.41-6.65.69-.5,15.48-10.27,29.09-19.78,36.6-5.51,2.5-19.07,3.73-22.53,10.28l.21,0,1.23.14A41.87,41.87,0,0,0,122.16,193C136.49,186.06,144.24,157.95,145.09,149.68Z"/><path class="cls-19" d="M114.58,125.77c-2.76,2.76-3.87,8.57-5.53,20.45-.28,2.21,2.76,5,3,6.08s2.35,1.07,2.35,1.07a10,10,0,0,1-1.47-2.46c-.16-.78-2.4-3.85-2.4-4.48s3.23-1,3.33-1.76-.1-6.77,1-9.9a51.93,51.93,0,0,1,2.4-5.52S116.82,125.53,114.58,125.77Z"/><g class="cls-20"><path class="cls-21" d="M104.73,161.44c1.31-6.57,5-3.42,6.31-2.89s3.4-5.17,3.4-5.17l1.07,1.65s1,4.63-1.82,6.56a7.18,7.18,0,0,1-2.19-.13c-.85-.26-.85-1.67-4.83.85A2.06,2.06,0,0,1,104.73,161.44Z"/></g><path class="cls-21" d="M76.11,168.64s-.8-1.37.86-3S93.6,150,93.6,150,77.75,165.94,76.11,168.64Z"/><g class="cls-22"><path class="cls-21" d="M78.38,167.52c-1.15-2.8,5.09-6.8,7-8.65l9-8.69c1-1-.87-1.27-1.46-1.29A5.72,5.72,0,0,0,89,150.36c-3.62,3.51-7.17,7.1-10.86,10.53-2.17,2-7.1,4.47-5.57,8.17.69,1.67,6.38-.14,5.8-1.55Z"/></g><path class="cls-8" d="M106.68,162.3s3.43-2.66,4.83-.85"/><path class="cls-13" d="M84.5,127.93s1.91.53,2.64-.58C87.15,127.35,85.34,125.93,84.5,127.93Z"/><path class="cls-13" d="M123.86,135.19s1.91.53,2.64-.58C126.5,134.61,124.69,133.19,123.86,135.19Z"/><path class="cls-23" d="M113.54,91c10-2.06,17.65-9.12,32.95,18.83-1-9.69,4.23-21,.68-27.07-2.75-4.71-13.93-4.9-17.66-7.65-3.19-2.34-5.58-9.6-9-11.54-.31-.17,4.77-18.25,4.44-18.33s-4.35,18.07-4.81,18c-3.25-.35-10.15,1-13.68,2.67-.74.34-8.39-21.7-9.47-21.47-.32.07,9.37,21.51,9.07,21.67-3.45,1.8-8.11,4.56-11.16,5.86C89.21,74.36,79,70.79,74.76,75.64c-4.62,5.25-3.18,19.1-4.79,26.68C71.61,97.94,89.62,69.49,113.54,91Z"/><g class="cls-24"><path class="cls-25" d="M74,118.5c3.25-8.67,18.7.64,23.86,2.75.72.3,2.22-2.21,1.85-2.36-3.82-1.57-7.63-3.19-11.47-4.7-2.92-1.14-6-2.4-9.14-1.5-3.41,1-5.68,3.92-6.87,7.11-.49,1.3,1.57-.74,1.78-1.3Z"/></g><g class="cls-24"><path class="cls-25" d="M138.62,126.4c-6.16-4-16.36-4.32-23.1-1.61-.08,0,2,3.79,2.89,3.45,6.52-2.62,16.45-2.48,22.42,1.38.5.32-1.42-2.7-2.22-3.21Z"/></g></svg>