<svg id="Layer_1" data-name="Layer 1" xmlns="http://www.w3.org/2000/svg" viewBox="0 0 196 266.67"><defs><style>.cls-1{fill:#f8e4e3;}.cls-2{fill:#be1e2d;}.cls-3{fill:#ebc0a8;}.cls-4{fill:#1d1611;}.cls-5{fill:#381c15;}.cls-6{fill:#483b2f;}.cls-7{fill:#efc7b0;}.cls-8{fill:#3e1100;}.cls-9{fill:#f5e0cd;}.cls-10{fill:#572000;}.cls-11{fill:#b86764;}.cls-12{fill:#6b3720;}.cls-13{fill:none;stroke:#d39c82;stroke-linecap:round;stroke-miterlimit:10;stroke-width:0.5px;}.cls-14{fill:#d39c82;}.cls-15{fill:#ebf4f0;}.cls-16{fill:#231f20;}.cls-17{fill:#e4b69d;}.cls-18{opacity:0.15;}</style></defs><title>badbitchcards</title><rect class="cls-1" x="8.63" y="8.48" width="178.58" height="249.45" rx="8.5" ry="8.5"/><path class="cls-2" d="M24.85,17.73a8.91,8.91,0,0,1,9,9.3,9.25,9.25,0,0,1-2.52,6.6L33.4,36l-1.69,1.49-2.17-2.39a9.06,9.06,0,0,1-4.69,1.29,8.93,8.93,0,0,1-9-9.33A8.91,8.91,0,0,1,24.85,17.73Zm0,16.36A6.39,6.39,0,0,0,28,33.31l-3.1-3.48,1.71-1.49,3.13,3.53A7.42,7.42,0,0,0,31.31,27c0-4.66-3.13-7-6.45-7s-6.45,2.37-6.45,7S21.53,34.09,24.85,34.09Z"/><path class="cls-2" d="M21.71,42.91c2.57,0,3.86,1.22,5.14,3.64,1.28-2.42,2.57-3.63,5.14-3.64a5,5,0,0,1,5.18,4.89c0,4.9-5.15,9.8-10.31,14.71-5.16-4.9-10.32-9.81-10.31-14.71A5,5,0,0,1,21.71,42.91Z"/><path class="cls-3" d="M82.59,211c-24.38,0-35.3-31-35.3-31s21.65-7.36,22.51-25.14,40.35-15.61,41.69-2.6,2.1,26.22,6.92,30.28C116.62,191.67,112.05,210,82.59,211Z"/><path class="cls-4" d="M102,50C82.84,37.15,29.34,72.22,23.2,145.25c-1.1,13.07,15.67,29.07,14.94,37.84-3.32,40.26-20.58,35.12-18.29,42.44,2.79,8.92-3.9,1.67,2.79,8.92,7.25,7.25,34,7.25,36.23.56s5-21.18,1.67-32.88a109.51,109.51,0,0,1-3.95-19.36s14.79-9,12.38-24.1c-16.9-5.76,42.48-9.39,42.48-9.39s-3,36.69,3.71,45.61,24.52,35.11,34,34.56c0,0,31.77-19.49,31.77-31.21,0-54-23.41-61.23-43.47-105.86S102,50,102,50Z"/><path class="cls-5" d="M102.23,63.42C90,52.85,70.72,55.2,61.52,72.77,69.6,65.49,75.9,49.47,102.23,63.42Z"/><path class="cls-6" d="M44.42,137.84S37.65,160,46.5,181.31l8.69,21,.16.37S32.44,169.07,44.42,137.84Z"/><path class="cls-6" d="M112.45,64.93s23.23,38.19,18.2,72.91C135.69,103.36,125.89,82,112.45,64.93Z"/><path class="cls-7" d="M102,50c10.72,10.2,2.68,27.37,2.68,27.37S111.83,60.16,102,50Z"/><path class="cls-8" d="M102.77,51C83.62,47.21,65.66,59,55,74.15c-6.21,8.8-10.54,18.76-14.3,28.8-4,10.72-7.83,21.74-9,33.2s.74,23.59,7.39,33.31c.1.14.58.08.48-.07-12.48-18.25-7.4-41.22-.56-60.54C45.53,90.57,53.58,71,69.94,59.36c9.44-6.72,21.14-10.41,32.7-8.12.23,0,.46-.18.13-.24Z"/><path class="cls-8" d="M56.67,148.37c-2.34,2.37-2.53,6.84-2.85,10a70.43,70.43,0,0,0,.11,13.9c.88,9.14,3,18.08,4.32,27.15,2.3,15.93,1.5,34.91-12.47,45.56-.17.13.31.22.43.13,12.81-9.77,14.74-27,13-41.89-1-9.14-3.21-18.11-4.39-27.24A84.38,84.38,0,0,1,54.07,162a54.66,54.66,0,0,1,.61-6.44c.38-2.4.64-5.28,2.43-7.09.16-.16-.32-.24-.43-.13Z"/><path class="cls-8" d="M107.23,73.48c8.08,6.14,12,16.65,14.74,26.07,3,10.37,4.37,21.12,5.31,31.85,1.67,19.15,2,38.62,7.72,57.15a75.52,75.52,0,0,0,14.23,26.88c.1.12.58.05.43-.13-26.85-31.66-16.55-76.8-26.71-114.09-2.73-10-6.72-21.36-15.28-27.87-.12-.09-.6,0-.43.13Z"/><path class="cls-8" d="M105.18,56.31c10,1.29,16.44,9.78,21.14,17.92,5.73,9.93,10.62,20.42,15.76,30.66q8.11,16.18,16,32.47c5.23,10.8,11.11,21.6,15.16,32.92A54.52,54.52,0,0,1,176.58,190c-.11,4.69-.56,16.43-7.65,16.08-.3,0-.3.24,0,.25,3.74.18,5.84-3.16,6.85-6.37,1.76-5.62,1.63-12.23.87-18-1.69-12.74-8.37-24.42-13.85-35.85q-8.68-18.08-17.62-36c-5.82-11.68-11.43-23.59-17.84-35-4.85-8.61-11.52-17.69-22-19-.23,0-.47.2-.13.24Z"/><path class="cls-7" d="M82.1,68.46c17.93-.38,22.7,8,26.82,16.27,3.94,8.62,4.87,14.43,6,21,1.31,8.06,2.44,28.31,2.44,28.31.94,10.5-9.37,23.24-29.24,26.24S63,154.84,60.18,149.59s-3.19-7.31-3.56-12.75S55.5,122,54.56,118.47,53.59,69.06,82.1,68.46Z"/><path class="cls-9" d="M65.41,136s11.67-3.18,11.82-3.18l7.32.1L95,135.71l-1.15.45L80.38,139Z"/><path class="cls-10" d="M73.48,102.69c-3.33-3.73-9.4-3.9-12,0Z"/><path class="cls-4" d="M92.53,102.39c4.55-4.09,9.72-4.15,12.05.92Z"/><path class="cls-11" d="M65.41,136c2.48-.37,7.43-6.07,11.76-4.09a20.9,20.9,0,0,1,15.11,2.85c1.11.5,3.22.87,3.71,1.24s-10-2-14.12-.74c-4.71-.25-8.92-1.36-10-.87S65.41,136,65.41,136Z"/><path class="cls-11" d="M65.41,136s6.07,3.1,10.9,3.22,6.81.87,8.92,0c3.1-.87,8.42-3.47,10.77-3.22Z"/><path class="cls-12" d="M80.7,121.64c2.21-2.72,6.27-2.14,6.14,0,0,.87-1,1-1,1"/><path class="cls-12" d="M77.66,122.61c-5-3.69-5.25-2.33-4.57-.39.39,1.07,1.75.39,1.75.39"/><path class="cls-13" d="M80.7,122.61s-.7,1.36-1.87.68"/><path class="cls-14" d="M87,116.93a2.24,2.24,0,0,1,2.59,1.29,5.36,5.36,0,0,1-.26,3.71,2.85,2.85,0,0,1-.76,1.09c-.12.1-.51.23-.37.22-.59,0-.61.52,0,.5,2.34-.08,3-3.69,2.44-5.42s-2.36-2.15-3.9-1.87c-.66.12-.21.57.27.48Z"/><path class="cls-14" d="M72.61,115.55c-2.44,2-2.93,5-.6,7.34.11.11.59,0,.43-.13-2.26-2.23-1.73-5.16.6-7.09.17-.14-.31-.23-.43-.13Z"/><path class="cls-14" d="M90.78,103.66c.39,1,2.33.58,2.33.58L94,103l-1.46-.58Z"/><path class="cls-14" d="M74.36,103.85c-.39,1-1.53.39-1.53.39l-.7-.89,1.36-.67Z"/><path class="cls-15" d="M92.53,102.39c1.75,1,.58,1.85.58,1.85s8.46,1.75,11.47-.92c-.58-2.19-4-3.65-6-3.55S93.6,101,92.53,102.39Z"/><path class="cls-15" d="M73.48,102.69a1.81,1.81,0,0,0-.66,1.56c-2.74-.78-2.84-.19-3.81,0a10.31,10.31,0,0,1-7.49-1.56,6.48,6.48,0,0,1,5.35-2.53A11.28,11.28,0,0,1,73.48,102.69Z"/><path class="cls-16" d="M89.44,96.51a1.88,1.88,0,0,1,.62-1.73,18.93,18.93,0,0,1,3.24-3"/><path class="cls-16" d="M91.27,96.16a2.9,2.9,0,0,1,.74-1.6c.85-1.15,1.88-2.39,3.31-2.5"/><path class="cls-10" d="M65.29,100.33c-.24.79-.74,2.76-.14,3.86a10.21,10.21,0,0,0,3.85.05,7.74,7.74,0,0,1,1.51-.39,5.42,5.42,0,0,0,.32-2.78,9.74,9.74,0,0,0-4-.91A7.37,7.37,0,0,0,65.29,100.33Z"/><path class="cls-16" d="M92.94,96A6.19,6.19,0,0,1,97,92.43"/><path class="cls-16" d="M94.43,96.15A4.65,4.65,0,0,1,98.6,92.8"/><path class="cls-16" d="M96,95.79a16.2,16.2,0,0,1,2.11-2.27,2,2,0,0,1,.76-.48,2.13,2.13,0,0,1,1.37.25"/><path class="cls-16" d="M97.12,96.23a4.68,4.68,0,0,1,.88-1c.87-.84,1.88-1.73,3.09-1.69"/><path class="cls-16" d="M98.46,96.25l1.36-1.18a5.7,5.7,0,0,1,1.38-1,1.93,1.93,0,0,1,1.64,0"/><path class="cls-16" d="M100.23,96l1.41-1a4.81,4.81,0,0,1,1.31-.71,1.63,1.63,0,0,1,1.43.18"/><path class="cls-16" d="M100.88,96.6l1.1-.7A6,6,0,0,1,103.7,95a2,2,0,0,1,1.82.33"/><path class="cls-16" d="M102.37,96.91l2.53-.72c.51-.15,1.18-.24,1.46.22"/><path class="cls-16" d="M103.92,97.64a11.9,11.9,0,0,0,2.27-.78c.47-.22,1.13-.42,1.41,0"/><path class="cls-16" d="M104.84,98.51l1.72-.88c.55-.28,1.3-.53,1.72-.08"/><path class="cls-16" d="M106.08,99.27a2.28,2.28,0,0,1,2.67-.93"/><path class="cls-16" d="M106.89,100a2,2,0,0,1,2.21-1"/><path class="cls-16" d="M108,100.4a.89.89,0,0,1,1.23-.51"/><path class="cls-16" d="M108.85,100.87c.06.18.4.13.39-.06s-.34-.24-.4-.05"/><path class="cls-16" d="M73.86,98.29a5.7,5.7,0,0,0-2.18-4.64"/><path class="cls-16" d="M72.92,98.12c-.41-1.58-.89-3.28-2.18-4.28"/><path class="cls-16" d="M71.5,98.06a7.59,7.59,0,0,0-2.78-4.51"/><path class="cls-16" d="M69.81,97.37a9.66,9.66,0,0,0-1.87-3.14"/><path class="cls-16" d="M68.33,97.35a7.59,7.59,0,0,0-1.51-2.72"/><path class="cls-16" d="M67,97a5.45,5.45,0,0,0-1.93-2"/><path class="cls-16" d="M66.2,97.06l-1.27-1.38c-.3-.33-.75-.68-1.14-.47"/><path class="cls-16" d="M64.46,97a2.81,2.81,0,0,0-2.11-1.16"/><path class="cls-16" d="M63.09,97a8.09,8.09,0,0,0-2.27-.64"/><path class="cls-16" d="M61.66,97.66a4.29,4.29,0,0,0-2-.77"/><path class="cls-16" d="M59.85,97.83a.74.74,0,0,0-.82-.18"/><path class="cls-10" d="M100.8,104.69s2-2.86,1.25-4h0a7.39,7.39,0,0,0-3.49-.88,9.7,9.7,0,0,0-2.55.53s-.47,3.49,1,4.45c2.14.06,3.8,0,3.81,0Z"/><path class="cls-17" d="M65.41,136a40.8,40.8,0,0,1,3,15.32C69.94,151.35,68.08,136.29,65.41,136Z"/><path class="cls-17" d="M65.41,136s-1.25-2.59,2.32-10.58,2.91-6.63,2.91-6.63l-.9-.09s-4.15,10-4.54,12.34A15.11,15.11,0,0,0,65.41,136Z"/><path class="cls-3" d="M90.26,107s1.33,5.33,8.84,6.82c6.65-2.35,5.22-4.69,4.82-4.69s-7.4-1.07-9.93-2.77S90.26,107,90.26,107Z"/><path class="cls-3" d="M60.82,110.84s10.07-4.7,12-5.1,1.09,4,1.09,4-8.73,6.29-10.77,5.83S61.06,112.7,60.82,110.84Z"/><path class="cls-3" d="M91.34,119.81c5.44,3.67,10.31,16.2,10.31,16.2l-1.42.06s-4.39-12.48-8.89-13.46C90.2,120.29,91.34,119.81,91.34,119.81Z"/><path class="cls-3" d="M75.24,97.28a5.9,5.9,0,0,1,2.42,5.41c-.22,3.81-3.31,13.46-3.31,13.46a13.49,13.49,0,0,1-1.59-2.31c.09-.22,3.95-9.16,3.46-11.14S75.24,97.28,75.24,97.28Z"/><circle class="cls-4" cx="99.37" cy="102.26" r="1.27"/><circle class="cls-4" cx="68.33" cy="102.26" r="1.27"/><path class="cls-15" d="M69.23,101.63a.51.51,0,0,1,0,.82l-.72-1.07S68.75,101.15,69.23,101.63Z"/><path class="cls-15" d="M100,101.63a.51.51,0,0,1,0,.82l-.72-1.07S99.56,101.15,100,101.63Z"/><path class="cls-17" d="M105.75,102.29c-.57-2.33.73,4.66,5.75,5.29C111.51,107.57,106.6,108.39,105.75,102.29Z"/><path class="cls-17" d="M56.7,110.68c3.44-2.35,6.39-7.13,6.39-7.13s-.44.28-1.57-.86C60.4,105.74,56.7,110.68,56.7,110.68Z"/><path class="cls-3" d="M89.38,108.2c-4.62-3,0-10.37,0-10.37s2.66-.65,3.92.9C90.28,102.45,89.11,101.92,89.38,108.2Z"/><path class="cls-17" d="M115.68,111c-6.77,10.49,1.29,17.71,1.29,17.71Z"/><path class="cls-17" d="M54.36,116.63c5.82,4.07,6.26,14.05,2.27,20.21C56.06,130.82,55.74,125.78,54.36,116.63Z"/><g class="cls-18"><path class="cls-5" d="M58.24,99.63a56.5,56.5,0,0,1,7.58-2.78c2.88-.86,4.3-.4,6,2.1l2.77-3.55c-4.3-1.39-8.81-2.55-12.84.16a6.73,6.73,0,0,0-2,2.32c-.12.23-.79,1.55,0,1,3.74-2.51,8.14-1.24,12.09,0,.74.24,3.21-2.91,2.77-3.55-1.48-2.15-2.83-3.1-5.39-2.4a54.49,54.49,0,0,0-8.5,3,5.49,5.49,0,0,0-2,2c-.1.14-.94,1.78-.52,1.59Z"/></g><g class="cls-18"><path class="cls-5" d="M110,101c-2.06-2.75-4.34-5.28-7.72-6.33a22.81,22.81,0,0,0-5.67-1c-2.4-.09-4.67.71-7.08.54l2.79,3.32c1.28-2.94,4.45-3.12,7.19-2.38,2.29.62,6.81,1.94,7.88,4.17.37.77,1.15,2.18,2,2.44.6.17,1.24.32.77-.65-2-4.08-5.12-6.48-9.26-8.18-3.85-1.57-9.55-3.47-11.71,1.51-.43,1,1.9,3.26,2.79,3.32,5.53.4,12-2.39,16.15,3.15,1.05,1.4,3.69,2.52,1.82,0Z"/></g><path class="cls-2" d="M173.61,224.89c-2.57,0-3.86-1.22-5.14-3.64-1.28,2.42-2.57,3.63-5.14,3.64a5,5,0,0,1-5.18-4.89c0-4.9,5.15-9.8,10.31-14.71,5.16,4.9,10.32,9.81,10.31,14.71A5,5,0,0,1,173.61,224.89Z"/><path class="cls-2" d="M170.46,248.89a8.91,8.91,0,0,1-9-9.3A9.26,9.26,0,0,1,164,233l-2.09-2.34,1.69-1.49,2.17,2.39a9,9,0,0,1,4.69-1.29,9.32,9.32,0,0,1,0,18.63Zm0-16.36a6.39,6.39,0,0,0-3.12.78l3.1,3.48-1.71,1.49-3.13-3.53a7.43,7.43,0,0,0-1.59,4.84c0,4.66,3.13,7,6.45,7s6.45-2.37,6.45-7S173.79,232.53,170.46,232.53Z"/></svg>