<?xml version="1.0" encoding="utf-8"?>
<!-- Generator: Adobe Illustrator 19.1.0, SVG Export Plug-In . SVG Version: 6.00 Build 0)  -->
<svg version="1.1" id="Layer_1" xmlns="http://www.w3.org/2000/svg" xmlns:xlink="http://www.w3.org/1999/xlink" x="0px" y="0px"
	 viewBox="0 0 215 326.9" style="enable-background:new 0 0 215 326.9;" xml:space="preserve">
<style type="text/css">
	.st0{fill:#E6C0A9;}
	.st1{fill:#E2BDA6;}
	.st2{fill:#F1C8B0;}
	.st3{fill:#C19F87;}
	.st4{fill:#1D1510;}
	.st5{fill:#AF8975;}
	.st6{fill:#C1767B;}
	.st7{fill:#6B3720;}
	.st8{fill:#D39C82;}
	.st9{fill:#EBF4F0;}
	.st10{fill:#BA8E6B;}
	.st11{fill:#EABAA4;}
	.st12{fill:#E5B7A1;}
	.st13{fill:#427F8F;}
	.st14{fill:#ECC0A7;}
	.st15{fill:#381C15;}
	.st16{fill:#201010;}
	.st17{fill:#F9CEB5;}
	.st18{fill:#CE9975;}
	.st19{fill:#DEB18A;}
	.st20{fill:#D9B994;}
	.st21{fill:#E4B68D;}
	.st22{fill:#FEE5CF;}
</style>
<path class="st0" d="M145.3,158.9c0,0-21.9,49.8-1,70.8c0,16.6-17.6,44.5-44.9,44.5c-27.2,0-30.8-30.2-30.8-30.2s13.9-30.6,2.7-36.8
	c0.5-10.2,9.2-11.9,4.9-27.6C76.3,179.5,121.3,134.8,145.3,158.9"/>
<path class="st1" d="M102.7,199.9c0,0,8.9,30.1,12.7,47c1,4.5,6.9,5.6,9.4,1.7c5.4-8.1,10.7-19.9,12.8-24.6c0.5-1.2,1.4-2.3,0.8-3.5
	c-2-4-3.8-17.9-2.5-28.6c0.2-1.6-2.7-1.5-4-2.6C124,182.6,102.3,195.8,102.7,199.9"/>
<path class="st2" d="M79.7,215.6c14.1,3,34.2,0,55.9-18.6c10.6-10.3,15.2-27,15.2-27c4.2-21.7-2.7-101.5-47.1-101.5
	c-22.8,0-30.3,11.8-35.4,23.3c-5.1,11.5-7.2,22.2-8,25.4c-0.8,3.2-6.2,17.7-7.8,22.5c-2.9,9.6-3.3,20.3-3.3,22.7s-1,19.4,13.1,37.1
	C67.6,206.4,71.6,214.6,79.7,215.6"/>
<path class="st3" d="M136.6,122.2c0.5,0.1-0.2-1.3-0.2-1.3c-2.7-1-11-3.4-12.7-3.8c-2.7-0.7-17.4-2.1-18.6-0.7s0.2,3.8,0.2,3.8
	s11.2-1.8,24.3,0.2C131.9,120.7,134.3,121.6,136.6,122.2z"/>
<path class="st3" d="M61.4,113.4c8.4-5.8,27.2-1.4,28,0.2c0.7,1.6-1.1,5.2-1.1,5.2S67.9,109,60.6,116L61.4,113.4z"/>
<path class="st4" d="M160.7,121.3c-0.2,0.4-0.4,0.8-0.6,1.2c-0.2,0.5,0.8,0.6,1,0.2l0.6-1.2C161.9,121,160.9,120.9,160.7,121.3"/>
<path class="st4" d="M160,123c0.6,0,0.6-0.8,0-0.8C159.4,122.2,159.4,123,160,123"/>
<path class="st5" d="M84.2,129.6c-2.7-8-11.6-11.9-21.6-3.5c0,0,1,2,3.3,1.9C68.3,127.9,84.2,129.6,84.2,129.6"/>
<path class="st5" d="M122.4,126.3c-9.5-1.7-13.1,6.7-13.1,6.7c5.5-4.5,11.7-4.3,16.4-0.9c1.9,2,2.5,2.6,2.7,2.8
	c0.1,0,0.1,0.1,0.1,0.1c0.5,1.1,4.9,0.6,4.9,0.6S131.9,128,122.4,126.3"/>
<path class="st6" d="M84.9,194c9.1,1.4,20.3,0.8,28.6-12.5c0.9-2.5-2.5-3.7-6.2-5.4c-3.8-1.7-12.1-5.1-18.1-2.3
	c-1.7-2.1-10.7-3.2-20.1-1.1C67.6,173.7,69.5,192.3,84.9,194"/>
<path class="st7" d="M92.3,164.8c2.1-2.3,4.3-3.8,8.2-2.8c1.1,0.4,0.8,1.2,0.8,1.2"/>
<path class="st7" d="M79.2,159.3c3-0.5,4.7,0,5.8,2.3"/>
<path class="st8" d="M85.3,163.3c1.5,1.6,3.8,2.5,5.9,2.2c0.3,0,0.1-0.3-0.1-0.2c-2,0.3-4-0.7-5.4-2.1
	C85.6,163,85.1,163.1,85.3,163.3"/>
<path class="st9" d="M109.3,133c5.5-4.5,11.7-4.3,16.4-0.9l2.8,2.9c0,0-4.3,1.4-9.6,1.4s-7.9-1.6-9-1.6c-1.2,0-1.1,0.3-2,0.3
	C107.1,135.1,109.3,133,109.3,133"/>
<path class="st9" d="M65.9,128c5.6-3.3,8.6-3.8,12-3.1c3.5,0.7,5.1,3.4,6.3,4.8c1.2,1.3,1.8,2.1,0.7,2.3c-1.1,0.2-3.8-0.8-4.9-0.5
	C78.8,131.8,72,132,65.9,128"/>
<path class="st10" d="M105.9,119.7c0.2-2.2,2-4.1,4.2-4.4"/>
<path class="st10" d="M108.2,119.8c1.1-1.8,2.4-3.8,4.5-4.2"/>
<path class="st10" d="M111.8,119.1c0.9-1.4,2.2-2.6,3.7-3.2"/>
<path class="st10" d="M114,119.6c0.7-0.7,1.4-1.4,2.1-2.1c0.7-0.6,1.5-1.3,2.4-1.1"/>
<path class="st10" d="M117.9,119.4c0.7-1.1,1.6-2.4,2.9-2.5"/>
<path class="st10" d="M120.3,119.5c1-1.1,2.6-1.8,4.1-1.8"/>
<path class="st10" d="M124.2,119.9c0.7-1.3,2.3-2,3.7-1.6"/>
<path class="st10" d="M127.3,120.2c1.2-0.8,2.7-1.1,4.1-0.8"/>
<path class="st10" d="M89.6,118.4c-0.2-2.6-1.6-5.1-3.6-6.8"/>
<path class="st10" d="M87.2,117.1c-0.5-2.5-2.1-4.7-4.2-6"/>
<path class="st10" d="M84.4,115.9c-1.9-1.3-2.4-4.2-4.6-4.9"/>
<path class="st10" d="M80.7,114.2c-0.8-0.4-1.3-1.2-1.8-1.9c-0.5-0.7-1.3-1.4-2.1-1.3"/>
<path class="st10" d="M77.5,113.8c-1.5-1.3-3.2-2.4-5-3.3"/>
<path class="st10" d="M73.6,114.5c-0.6-1.5-1.9-2.7-3.5-3.2"/>
<path class="st10" d="M69.9,113.2c-1-0.8-2.2-1.2-3.5-1.1"/>
<path class="st10" d="M66.4,113.4c-0.9-0.5-2.2-0.2-2.8,0.6"/>
<path class="st10" d="M63.4,115.6c-0.6-0.1-1.2,0.3-1.3,0.8"/>
<path class="st10" d="M131.8,121.2c0.3-0.2,0.7-0.3,1.1-0.4"/>
<path class="st11" d="M91.2,122.7c4.2,9-5.7,27.4-6.7,29c-2.4,0.6-1.5-1.7,0.7-6.2c2.2-4.5,4.3-11.6,4.7-14.3
	C90.3,128.4,88.9,124.9,91.2,122.7"/>
<path class="st12" d="M63.6,180.2c-2.7-12.1,4.5-17,4.5-17S59.9,167.1,63.6,180.2"/>
<path class="st12" d="M117.5,171.7c3.5,5.6,1.1,9.7,1.1,9.7S122.3,176.2,117.5,171.7"/>
<path class="st13" d="M123.7,133.1c0-0.9-0.3-1.7-0.7-2.5c-2.2-0.9-4.6-1.2-7.1-0.8c-0.8,0.8-1.3,2-1.3,3.2c0,1.3,0.5,2.4,1.4,3.2
	c0.9,0.1,1.9,0.2,3,0.2c1.2,0,2.4-0.1,3.4-0.2C123.2,135.5,123.7,134.3,123.7,133.1"/>
<path class="st8" d="M109.2,133.1c-0.5,0.4-2,2-1.3,2c0.9,0,0.8-0.3,2-0.3c0,0,0.1,0,0.1,0C109.9,134.2,109.5,133.6,109.2,133.1"/>
<path class="st13" d="M82,128.3c0-0.5-0.1-1-0.3-1.5c-1-0.9-2.2-1.7-3.8-2c-1.1-0.2-2.1-0.3-3.2-0.2c-1.1,0.8-1.9,2.2-1.9,3.7
	c0,1.1,0.4,2.1,1.1,2.9c3,0.6,5.4,0.5,6,0.3c0.2-0.1,0.5-0.1,0.8-0.1C81.6,130.6,82,129.5,82,128.3"/>
<path class="st8" d="M84.9,132c1.1-0.2,0.4-1-0.7-2.3c0,0,0,0,0,0c-0.5,0.6-0.8,1.5-1,2.2C83.9,131.9,84.5,132,84.9,132"/>
<path class="st8" d="M102.9,153.9c2.9,3,1.8,7-0.8,9.9c-0.2,0.2,0.3,0.2,0.4,0.1c2.7-2.9,3.8-7,0.8-10.1
	C103.2,153.6,102.7,153.7,102.9,153.9"/>
<path class="st8" d="M80.5,151.8c-1.8,2.1-3.8,4.5-2.6,7.4c0.1,0.2,0.6,0.1,0.5-0.1c-1.2-2.8,0.9-5.1,2.6-7.2
	C81.1,151.8,80.6,151.7,80.5,151.8"/>
<path class="st14" d="M106.5,154.8c11,6.5,9.3,6.8,8.1,13.4C112.7,169.8,109.7,163.5,106.5,154.8"/>
<path class="st15" d="M78,124.9c3.5,0.7,5.1,3.4,6.3,4.7c-3.4-5.6-9.1-9.5-18.8-2.7c0,0-0.5,0.4,0.5,1.1
	C71.5,124.7,74.5,124.2,78,124.9"/>
<path class="st15" d="M119.3,128.3c-7.3,0-10.2,4.8-10.2,4.8c0.1-0.1,0.1-0.1,0.1-0.1c5.5-4.5,11.7-4.3,16.4-0.9l2.8,2.9l0,0
	c0,0,0,0,0,0c1.3,1.4,2,0,2,0S125.8,128.3,119.3,128.3"/>
<path class="st16" d="M79,128c0,0.9-0.7,1.7-1.7,1.7c-0.9,0-1.7-0.7-1.7-1.7c0-0.9,0.7-1.7,1.7-1.7C78.3,126.3,79,127,79,128"/>
<path class="st16" d="M120.8,132.9c0,0.9-0.7,1.7-1.7,1.7c-0.9,0-1.7-0.7-1.7-1.7c0-0.9,0.7-1.7,1.7-1.7
	C120.1,131.2,120.8,132,120.8,132.9"/>
<path class="st0" d="M153.3,169.9c5.2-0.9,6.7-2.2,6.7-2.2l0.8-13.9l-9,3.7c0,0-0.2,9.7-1.1,12.4c-0.9,2.8,0,0,0,0
	S152.7,170.1,153.3,169.9"/>
<path class="st14" d="M125.8,183.1c1.1,1.1,3.3-1.9,4.8-4c1.4-2.2,2.6-6.8,1.3-7.3l-1.3-0.5C128.1,175.8,132,175.4,125.8,183.1"/>
<path class="st17" d="M87.6,156.2c3.4-1.5,4.6,1.8,4.6,1.8l-1,2.4c0,0-2.1,2.3-2.8,1.2C87.6,160.5,87.6,156.2,87.6,156.2"/>
<path class="st9" d="M118.7,131.7c0,0,1.3-0.2,1.6,0.7C120.3,132.5,119.1,132.7,118.7,131.7"/>
<path class="st9" d="M76.2,128c0,0,1-0.1,1.5-0.8C77.7,127.2,76.8,126.7,76.2,128"/>
<path class="st14" d="M150.4,155.8c-4.8,2.2-10.2,30.7-18.6,38.7c-8.5,8-14.6,10.8-31.4,20.9c10.6-2.2,22.6-7.7,35.2-18.5
	c10.6-10.3,15.2-27,15.2-27c0.6-3.3,1-6.9,1.1-12.4C151.5,157,151,155.6,150.4,155.8"/>
<path class="st12" d="M107.7,139.2c3.5,2.6,7.1,5.1,12.2,5.4C120,144.6,109,144.7,107.7,139.2"/>
<path class="st14" d="M64.5,101.7h13.2c6.6,0,6.6-9.5,23.6-33.1l-14.6,2.8c-4.8,2-8.4,4.9-11.2,8.2L66.6,96
	C65.8,97.9,65.1,99.9,64.5,101.7"/>
<path class="st18" d="M103.7,68.5c14.4,0,28.6,26.6,30.9,42.8c2.3,16.2,7.3,31.2,14.9,42.6s10.6,15.5,9.8,22.7
	c-0.8,7.3-7,16.2-15.1,23.3c-8.2,7.1-43.4,29-48.2,36.2c5.5-3.9,9.5-9.6,27.8-15.2c18.3-5.6,27.1-9.1,33.1-21
	c6-11.9,32.6-39.5,17-99.4c-15.6-59.9-35.3-72.6-63.8-55.8c-4.1-2.9-21.2-4.5-38.1,16c-17,20.5-35.9,75.1-28.5,104.8
	c7.4,29.7,24.8,55.1,24.8,55.1S56.9,200,57.9,193.2c-5.5-11.3-9.2-18.2-8.7-32.8c0.5-14.6,3.7-21.9,4.7-24.7
	c1-2.7,5.6-15.2,6.4-18.5S74.4,69.7,103.7,68.5"/>
<path class="st19" d="M100.4,68.8c0.3,0,0.6-0.1,0.9-0.1c0.9-5.8,2.8-14.6,7-24.9c-0.2-0.1-0.4-0.1-0.6-0.2
	C104.9,49.7,101.3,59.7,100.4,68.8"/>
<path class="st19" d="M108.9,57.2c38.5-18.8,53.5,50.8,57.7,84.5C166.6,141.6,159.6,35.6,108.9,57.2"/>
<path class="st19" d="M89.6,61.4c-17.7-0.8-32.7,38-37.4,61.9C52.3,123.3,63.7,56.8,89.6,61.4"/>
<path class="st20" d="M108.2,58.4c9.8,0.2,19.3,5.1,25.2,13.1c6.1,8.4,6.6,18.9,8,28.8c1.4,9.8,4.7,18.3,9.9,26.7
	c5,8.1,10.9,15.9,14.2,24.9c3.6,9.8,4.6,21.3-2,30.1c-0.1,0.1,0.2,0.1,0.2,0c5.6-7.4,5.8-17,3.4-25.7c-2.7-10.1-8.8-18.5-14.3-27.2
	c-2.7-4.3-5.4-8.8-7.4-13.6c-2.2-5.3-3.3-10.9-4.1-16.6c-1.3-10-2.2-20.5-8.7-28.7c-6-7.4-15-11.8-24.5-12
	C108,58.3,108,58.4,108.2,58.4"/>
<path class="st21" d="M111,50.1c29.3-10.4,46.3,12.6,49.1,27.6C160,77.7,156.6,30.2,111,50.1"/>
<path class="st19" d="M168.5,175.8c-2.1,6.4-13.1,18.4-19.9,24.3c-8.2,7.1-47.9,28.8-52.7,36c0,0,0,0,0,0c5.5-3.9,9.2-9.7,26.8-17.2
	c20.1-8.6,24.3-10.2,33.1-21c1.8-2.2,4.4-3.7,7-7.8c2.5-4.1,5.3-9,7.9-14.9C169.8,175.4,168.7,176,168.5,175.8"/>
<path class="st14" d="M37.7,135.7c0.6,0,0.6-0.5,0-0.5C37.1,135.2,37,135.7,37.7,135.7"/>
<path class="st19" d="M90.2,150.2c0.6,0,0.6-0.5,0-0.5C89.6,149.7,89.5,150.2,90.2,150.2"/>
<path class="st19" d="M89.9,144.8c0.6,0,0.6-0.5,0-0.5C89.3,144.3,89.3,144.8,89.9,144.8"/>
<path class="st19" d="M90.4,144.5v-0.2c0-0.3-1-0.4-1,0v0.2C89.4,144.9,90.4,144.9,90.4,144.5"/>
<path class="st19" d="M93.6,140h0.2c0.4,0,0.5-0.4,0-0.4h-0.2C93.2,139.6,93.2,140,93.6,140"/>
<path class="st19" d="M92.9,147.7c0.4,0,0.5-0.4,0-0.4C92.4,147.3,92.4,147.7,92.9,147.7"/>
<g>
	<path class="st15" d="M129.1,134c0,0,0.2,0,0.6,0c0.3,0,0.8,0,1.2-0.1c0.4-0.1,0.9-0.2,1.2-0.4c0.3-0.2,0.4-0.4,0.4-0.4
		s0,0.1-0.1,0.2c0,0.1-0.1,0.2-0.3,0.4c-0.3,0.3-0.7,0.5-1.1,0.7c-0.9,0.4-1.8,0.6-1.8,0.6L129.1,134z"/>
</g>
<g>
	<path class="st15" d="M128.1,133.3c0,0,0.2,0,0.5,0c0.3,0,0.8,0,1.2-0.1c0.4-0.1,0.8-0.2,1.1-0.4c0.3-0.2,0.4-0.4,0.4-0.4
		s0,0.1-0.1,0.1c0,0.1-0.1,0.2-0.2,0.4c-0.2,0.3-0.6,0.6-1.1,0.8c-0.4,0.2-0.9,0.4-1.2,0.4c-0.3,0.1-0.6,0.1-0.6,0.1L128.1,133.3z"
		/>
</g>
<g>
	<path class="st15" d="M127.3,132.4c0,0,0.2,0,0.6,0c0.3,0,0.8,0,1.3-0.1c0.5-0.1,0.9-0.3,1.1-0.5c0.1-0.1,0.2-0.2,0.2-0.3
		c0-0.1,0.1-0.2,0.1-0.2s0,0.1,0,0.2c0,0.1-0.1,0.3-0.2,0.4c-0.2,0.3-0.6,0.7-1.1,0.9c-0.9,0.5-1.9,0.7-1.9,0.7L127.3,132.4z"/>
</g>
<g>
	<path class="st15" d="M126.1,131.5c0,0,0.2,0,0.6,0c0.4-0.1,0.8-0.2,1.3-0.4c0.4-0.2,0.8-0.5,1.1-0.8c0.2-0.3,0.3-0.5,0.3-0.5
		c0,0,0,0.3-0.2,0.6c-0.2,0.4-0.5,0.8-0.9,1.1c-0.4,0.3-0.9,0.6-1.3,0.7c-0.4,0.2-0.7,0.2-0.7,0.2L126.1,131.5z"/>
</g>
<g>
	<path class="st15" d="M125.1,130.5c0,0,0.2-0.1,0.5-0.2c0.3-0.1,0.7-0.3,1.1-0.6c0.4-0.3,0.7-0.6,0.9-0.9c0.2-0.3,0.2-0.5,0.2-0.5
		s0,0.1,0,0.2c0,0.1,0,0.3-0.1,0.4c-0.1,0.4-0.4,0.8-0.7,1.2c-0.7,0.8-1.5,1.3-1.5,1.3L125.1,130.5z"/>
</g>
<g>
	<path class="st15" d="M127.8,135.3c0,0,0.2,0.2,0.5,0.4c0.3,0.3,0.6,0.6,0.9,1c0.3,0.4,0.5,0.8,0.6,1.2c0,0.2,0.1,0.3,0.1,0.4
		c0,0.1,0,0.2,0,0.2s0-0.2-0.2-0.5c-0.2-0.3-0.5-0.6-0.8-0.9c-0.3-0.3-0.7-0.5-1-0.7c-0.3-0.2-0.5-0.2-0.5-0.2L127.8,135.3z"/>
</g>
<g>
	<path class="st15" d="M123.5,130c0,0,0.2-0.1,0.5-0.2c0.3-0.1,0.7-0.3,1-0.5c0.4-0.2,0.7-0.5,0.9-0.8c0.2-0.3,0.2-0.5,0.2-0.5
		s0,0.1,0,0.2c0,0.1,0,0.2-0.1,0.4c-0.1,0.3-0.4,0.8-0.7,1.1c-0.3,0.4-0.7,0.7-0.9,0.9c-0.3,0.2-0.5,0.4-0.5,0.4L123.5,130z"/>
</g>
<g>
	<path class="st15" d="M122.1,129.4c0,0,0.2-0.1,0.4-0.2c0.3-0.2,0.6-0.4,0.9-0.7c0.3-0.3,0.5-0.6,0.7-0.9c0.1-0.3,0.2-0.5,0.2-0.5
		s0,0.1,0,0.1c0,0.1,0,0.2,0,0.4c0,0.3-0.2,0.8-0.4,1.2c-0.2,0.4-0.5,0.8-0.7,1c-0.2,0.3-0.4,0.4-0.4,0.4L122.1,129.4z"/>
</g>
<g>
	<path class="st15" d="M121,129.3c0,0,0.6-0.6,1-1.3c0.2-0.3,0.4-0.7,0.6-1c0.1-0.3,0.1-0.5,0.1-0.5s0,0.2,0,0.5
		c0,0.3-0.1,0.7-0.3,1.2c-0.3,0.8-0.6,1.6-0.6,1.6L121,129.3z"/>
</g>
<g>
	<path class="st15" d="M119.9,129.1c0,0,0.1-0.1,0.3-0.4c0.2-0.2,0.4-0.6,0.6-0.9c0.2-0.3,0.4-0.7,0.5-1c0.1-0.3,0.1-0.5,0.1-0.5
		s0.1,0.2,0.1,0.5c0,0.3,0,0.7-0.1,1.2c-0.1,0.4-0.2,0.8-0.3,1.1c-0.1,0.3-0.2,0.5-0.2,0.5L119.9,129.1z"/>
</g>
<g>
	<path class="st15" d="M119.1,129c0,0,0.4-0.7,0.8-1.4c0.2-0.4,0.3-0.7,0.4-1c0.1-0.3,0.1-0.5,0.1-0.5s0.1,0.2,0.1,0.5
		c0,0.3,0,0.7-0.1,1.2c-0.1,0.8-0.4,1.7-0.4,1.7L119.1,129z"/>
</g>
<g>
	<polygon class="st15" points="118,129 118.5,126 119,129 	"/>
</g>
<g>
	<path class="st15" d="M117.5,129.3c0,0-0.4-0.8-0.7-1.6c-0.2-0.4-0.3-0.8-0.4-1.1c-0.1-0.3-0.1-0.5-0.1-0.5s0.1,0.2,0.2,0.5
		c0.2,0.3,0.4,0.6,0.7,1c0.5,0.7,1.1,1.3,1.1,1.3L117.5,129.3z"/>
</g>
<g>
	<path class="st15" d="M116.3,129.1C116.3,129.1,116.3,129.1,116.3,129.1C116.3,129,116.3,129.1,116.3,129.1
		C116.4,129.1,116.3,129,116.3,129.1c0-0.1-0.1-0.2-0.1-0.3c-0.1-0.3-0.3-0.6-0.5-1c-0.2-0.4-0.3-0.7-0.3-1c-0.1-0.3,0-0.5,0-0.5
		s0,0.2,0.2,0.4c0.1,0.2,0.4,0.5,0.6,0.8c0.3,0.3,0.5,0.5,0.7,0.7c0.1,0.1,0.1,0.1,0.1,0.1c0.1,0.1,0.1,0.1,0.1,0.2
		c0.1,0.1,0.1,0.2,0.1,0.2c0,0,0,0,0,0L116.3,129.1z"/>
</g>
<g>
	<path class="st15" d="M126.1,135.8c0,0,0.2,0.2,0.3,0.5c0.2,0.3,0.4,0.7,0.6,1.1c0.2,0.4,0.3,0.9,0.3,1.2c0,0.3,0,0.6,0,0.6
		s0-0.2-0.1-0.5c-0.1-0.3-0.3-0.7-0.6-1c-0.3-0.3-0.6-0.6-0.8-0.8c-0.2-0.2-0.4-0.3-0.4-0.3L126.1,135.8z"/>
</g>
<g>
	<path class="st15" d="M127.1,135.8c0,0,0.5,0.6,0.9,1.3c0.2,0.3,0.4,0.7,0.4,1c0.1,0.3,0.1,0.5,0.1,0.5s-0.1-0.2-0.2-0.4
		c-0.2-0.2-0.4-0.5-0.7-0.7c-0.3-0.2-0.6-0.4-0.8-0.6c-0.2-0.1-0.4-0.2-0.4-0.2L127.1,135.8z"/>
</g>
<g>
	<path class="st15" d="M125.2,136.1c0,0,0.2,0.2,0.3,0.5c0.2,0.3,0.3,0.7,0.4,1.1c0.1,0.4,0.1,0.8,0,1.1c-0.1,0.3-0.2,0.5-0.2,0.5
		c0,0,0-0.2,0-0.5c0-0.3-0.1-0.7-0.3-1c-0.2-0.3-0.4-0.6-0.6-0.8c-0.2-0.2-0.3-0.3-0.3-0.3L125.2,136.1z"/>
</g>
<g>
	<path class="st15" d="M124,136.3c0,0,0.2,0.2,0.4,0.4c0.2,0.3,0.4,0.6,0.5,1.1c0.1,0.4,0.1,0.8,0,1.1c-0.1,0.3-0.2,0.4-0.2,0.4
		c0,0,0-0.2,0-0.5c0-0.3-0.1-0.6-0.3-0.9c-0.2-0.3-0.4-0.5-0.6-0.7c-0.2-0.2-0.3-0.2-0.3-0.2L124,136.3z"/>
</g>
<g>
	<path class="st15" d="M66.3,128c0,0-1.5,0.5-3,0.1c-0.2-0.1-0.4-0.1-0.5-0.2c-0.2-0.1-0.3-0.1-0.5-0.3c-0.3-0.2-0.5-0.4-0.7-0.6
		c-0.4-0.4-0.5-0.8-0.5-0.7c0,0,0.2,0.3,0.6,0.6c0.2,0.2,0.5,0.3,0.8,0.4c0.1,0.1,0.3,0.1,0.5,0.1c0.2,0.1,0.3,0,0.5,0.1
		c0.7,0,1.3-0.1,1.8-0.2c0.5-0.2,0.8-0.3,0.8-0.3L66.3,128z"/>
</g>
<g>
	<path class="st15" d="M66.7,127.6c0,0-1.4-0.4-2.7-1.2c-0.3-0.2-0.6-0.4-0.8-0.7c-0.2-0.2-0.4-0.5-0.6-0.7
		c-0.1-0.2-0.2-0.5-0.2-0.6c0-0.2,0-0.2,0-0.2s0,0.1,0.1,0.2c0,0.1,0.2,0.3,0.3,0.5c0.2,0.2,0.4,0.4,0.6,0.6
		c0.3,0.2,0.6,0.3,0.9,0.5c0.6,0.3,1.3,0.4,1.8,0.5c0.5,0.1,0.8,0.1,0.8,0.1L66.7,127.6z"/>
</g>
<g>
	<path class="st15" d="M68,126.9c0,0-1.2-0.5-2.2-1.3c-0.5-0.4-1-0.8-1.2-1.2c-0.1-0.2-0.2-0.4-0.3-0.5c0-0.1-0.1-0.2-0.1-0.2
		s0,0.1,0.1,0.2c0.1,0.1,0.2,0.3,0.3,0.4c0.3,0.3,0.8,0.7,1.4,0.9c0.5,0.3,1.1,0.5,1.5,0.6c0.4,0.1,0.7,0.2,0.7,0.2L68,126.9z"/>
</g>
<g>
	<path class="st15" d="M68.8,126.3c0,0-1.1-0.5-2-1.3c-0.5-0.4-0.9-0.8-1.1-1.2c-0.1-0.2-0.1-0.4-0.2-0.5c0-0.1,0-0.2,0-0.2
		s0,0.1,0,0.2c0,0.1,0.1,0.3,0.2,0.4c0.3,0.3,0.7,0.6,1.2,0.9c0.5,0.3,1,0.5,1.4,0.6c0.4,0.1,0.7,0.2,0.7,0.2L68.8,126.3z"/>
</g>
<g>
	<path class="st15" d="M69.9,125.8c0,0-0.2-0.2-0.5-0.4c-0.3-0.3-0.7-0.6-1-1c-0.2-0.2-0.3-0.4-0.4-0.7c-0.1-0.2-0.2-0.4-0.3-0.6
		c0-0.2-0.1-0.4-0.1-0.5c0-0.1,0-0.2,0-0.2s0,0.1,0.1,0.2c0,0.1,0.1,0.3,0.2,0.4c0.2,0.3,0.5,0.7,0.9,1c0.4,0.3,0.8,0.5,1.2,0.7
		c0.3,0.2,0.5,0.2,0.5,0.2L69.9,125.8z"/>
</g>
<g>
	<path class="st15" d="M70.8,125.3c0,0-0.7-0.7-1.3-1.5c-0.3-0.4-0.5-0.8-0.6-1.2c-0.1-0.4-0.1-0.6-0.1-0.6s0,0.2,0.2,0.5
		c0.2,0.3,0.5,0.6,0.9,0.9c0.3,0.3,0.7,0.5,1,0.7c0.3,0.2,0.5,0.3,0.5,0.3L70.8,125.3z"/>
</g>
<g>
	<path class="st15" d="M71.9,124.8c0,0-0.2-0.2-0.4-0.4c-0.3-0.3-0.6-0.6-0.8-1c-0.3-0.4-0.5-0.9-0.5-1.2c-0.1-0.4,0-0.6,0-0.6
		s0,0.2,0.2,0.5c0.1,0.3,0.4,0.6,0.8,0.9c0.3,0.3,0.7,0.5,1,0.7c0.3,0.2,0.5,0.3,0.5,0.3L71.9,124.8z"/>
</g>
<g>
	<path class="st15" d="M66.4,129.3c0,0-0.2,0-0.6,0c-0.4,0-0.8,0.1-1.3,0.2c-0.4,0.2-0.9,0.5-1.1,0.8c-0.3,0.3-0.4,0.5-0.4,0.5
		c0,0,0.1-0.3,0.3-0.6c0.2-0.4,0.5-0.8,1-1.1c0.5-0.3,1-0.5,1.4-0.6c0.4-0.1,0.7-0.1,0.7-0.1L66.4,129.3z"/>
</g>
<g>
	<path class="st15" d="M67.2,129.8c0,0-0.2,0-0.4,0.1c-0.3,0.1-0.6,0.3-0.9,0.5c-0.3,0.2-0.6,0.6-0.7,0.9c-0.1,0.1-0.1,0.3-0.1,0.4
		c0,0.1,0,0.1,0,0.1s0-0.1,0-0.1c0-0.1,0-0.2,0-0.4c0.1-0.3,0.2-0.8,0.5-1.1c0.3-0.4,0.6-0.7,0.9-0.9c0.3-0.2,0.5-0.3,0.5-0.3
		L67.2,129.8z"/>
</g>
<g>
	<path class="st15" d="M68.2,130.2c0,0-0.2,0.1-0.4,0.3c-0.3,0.2-0.6,0.5-0.8,0.8c-0.3,0.3-0.5,0.7-0.5,1c-0.1,0.3,0,0.5,0,0.5
		c0,0-0.1-0.2-0.1-0.6c0-0.3,0.1-0.8,0.3-1.3c0.2-0.4,0.5-0.8,0.7-1.1c0.2-0.3,0.4-0.5,0.4-0.5L68.2,130.2z"/>
</g>
<g>
	<path class="st15" d="M73.1,124.5c0,0-0.2-0.2-0.4-0.4c-0.2-0.2-0.6-0.6-0.8-1c-0.3-0.4-0.5-0.8-0.5-1.2c0-0.2,0-0.3,0-0.4
		c0-0.1,0-0.2,0-0.2s0,0.2,0.2,0.5c0.1,0.3,0.4,0.6,0.7,0.9c0.3,0.3,0.7,0.5,1,0.7c0.3,0.2,0.5,0.2,0.5,0.2L73.1,124.5z"/>
</g>
<g>
	<path class="st15" d="M74.2,124.5c0,0-0.1-0.2-0.3-0.5c-0.1-0.3-0.3-0.6-0.4-1c-0.1-0.4-0.1-0.8-0.1-1.1c0-0.3,0.1-0.5,0.1-0.5
		s0,0.2,0.1,0.4c0.1,0.3,0.2,0.6,0.4,0.9c0.2,0.3,0.4,0.5,0.6,0.7c0.2,0.2,0.3,0.2,0.3,0.2L74.2,124.5z"/>
</g>
<g>
	<path class="st15" d="M75.1,124.3c0,0-0.1-0.2-0.1-0.4c0-0.3-0.1-0.6-0.1-1c0-0.4,0.1-0.7,0.1-1c0.1-0.2,0.2-0.4,0.2-0.4
		s0,0.2,0,0.4c0,0.2,0.1,0.6,0.2,0.8c0.1,0.3,0.3,0.6,0.4,0.8c0.1,0.2,0.2,0.3,0.2,0.3L75.1,124.3z"/>
</g>
<path class="st22" d="M71.3,175c0,0,1.6,1.4,3.2,1.5s6,0,7,0.3c1,0.2,4.8,1.6,7.7,1.8c2.9,0.2,5.5-0.2,6.7,0
	c1.2,0.2,4.9,1.6,7.8,1.2s7.4,0.4,7.3,0.7c0,0.3-2.5,3.1-3.7,3.7c-1.2,0.6-10.9,4.2-18,3.3c-7-0.9-11.5-2-12.9-3.5
	C74.9,182.6,71,179.5,71.3,175z"/>
<g>
	<path class="st15" d="M122.6,136.3c0,0,0.2,0.1,0.3,0.3c0.2,0.2,0.3,0.5,0.4,0.8c0.1,0.3,0.1,0.6,0,0.8c0,0.2-0.1,0.3-0.1,0.3
		s0-0.1-0.1-0.3c0-0.2-0.2-0.4-0.3-0.6c-0.2-0.2-0.4-0.3-0.5-0.3c-0.2-0.1-0.2-0.1-0.2-0.1L122.6,136.3z"/>
</g>
<g>
	<path class="st15" d="M69.2,130.6c0,0-0.1,0-0.4,0.2c-0.2,0.1-0.5,0.3-0.8,0.5c-0.2,0.2-0.4,0.5-0.5,0.8c-0.1,0.2-0.1,0.4-0.1,0.4
		c0,0-0.1-0.2,0-0.5c0-0.3,0.1-0.7,0.3-1c0.2-0.4,0.4-0.7,0.6-0.9c0.2-0.2,0.4-0.4,0.4-0.4L69.2,130.6z"/>
</g>
<g>
	<path class="st15" d="M70.4,131.2c0,0-0.1,0-0.3,0.2c-0.2,0.1-0.4,0.3-0.6,0.5c-0.2,0.2-0.4,0.4-0.4,0.6c-0.1,0.2-0.1,0.4-0.1,0.4
		s-0.1-0.1-0.1-0.4c0-0.2,0-0.6,0.2-0.9c0.1-0.3,0.3-0.6,0.4-0.8c0.1-0.2,0.3-0.3,0.3-0.3L70.4,131.2z"/>
</g>
</svg>
