<svg id="Layer_1" data-name="Layer 1" xmlns="http://www.w3.org/2000/svg" viewBox="0 0 196 266.67"><defs><style>.cls-1{fill:#f8e4e3;}.cls-2{fill:#d6d1c9;}.cls-17,.cls-2{opacity:0.85;}.cls-3{fill:#a7a9ac;}.cls-4{fill:#f1f2f2;}.cls-5{fill:#eec5a6;}.cls-6{fill:#443123;opacity:0.07;}.cls-7{fill:#efc7b0;}.cls-8{fill:#5f513b;}.cls-9{fill:#6b3720;}.cls-10{fill:none;stroke:#d39c82;stroke-linecap:round;stroke-miterlimit:10;stroke-width:0.5px;}.cls-11{fill:#ebf4f0;}.cls-12{fill:#eabba4;}.cls-13{fill:#cd8a6e;}.cls-14{fill:#f5e0cd;}.cls-15{fill:#572000;}.cls-16{fill:#ebc0a8;}.cls-18{fill:#594a42;}.cls-19{fill:#fff;}.cls-20{fill:#1d1611;}.cls-21{opacity:0.15;}.cls-22{fill:#381c15;}.cls-23{fill:#be1e2d;}</style></defs><title>badbitchcards</title><rect class="cls-1" x="8.63" y="8.48" width="178.58" height="249.45" rx="8.5" ry="8.5"/><path class="cls-2" d="M62.25,76.1c1,.45,3.17-31.33,36.44-15.14,0,0,12.13,6.16,18.12-.18s12.51-.88,16.2-1.06,6.87-6.69,5.81-10.39c3.87.7,5.77,9.68,3.15,14.79,3.72,2.82.37,7.39,4.24,10.56S155.9,82.26,158,89.83s1.94,9.51,1.23,11.44-2.21,5-2.21,5,18,15.39-3.65,30.05c0,0,5.94-11.83,1.37-16.05s-5.94,0-5.94,0,1.7,1.61,3.65,7.65-3.2,7.09-1.37,12.56,5.48,7.08,5.48,7.08.46,18.72-12.79,18.72-74.21.46-74.21.46S68,170.16,63,170.16,58.16,166,58.16,166s-3.65-1.21-5.25-3c3.65-2.6,3.88-4.76,3.42-6.59s-4.57-.62-5-4.19-8.22-7.77-8.45-17.54a28.37,28.37,0,0,1,4.57-16.28s-9.53,3.6-6.62,12.45c-3.42,3.83-8-16.67,4.34-22.15-7.31-7-5.48-17.81,1.83-19C45.15,80.42,48.3,70,62.25,76.1Z"/><path class="cls-3" d="M138.82,49.35s7.38,24.52-9.3,26.34C129.52,75.68,146.45,76.45,138.82,49.35Z"/><path class="cls-2" d="M62.43,131.94c-1.8-.24-2.66.86-2.4,10-.6,6.37-2.09,10.83-4,13.94a1.13,1.13,0,0,1,.32.55c8.83-12.66.67-22.86,6.18-23.61l1.72-.68Z"/><path class="cls-3" d="M63.94,76.7c7.84-12.65,20.49-18.46,38.19-10.12C102.13,66.59,78.35,51.92,63.94,76.7Z"/><path class="cls-3" d="M148.81,120.27c5.41-9.2,13.72,1.79,7,11.71,0,0,6.24-8.21.88-14.31S148.81,120.27,148.81,120.27Z"/><path class="cls-3" d="M47.43,118.44s-10.49,2.24-6.62,12.45C40.81,130.88,39.77,123.29,47.43,118.44Z"/><path class="cls-4" d="M137,108.68c2.19-4.84,5.06-9.57,9.37-12.83,5.43-4.1,13.25-5.25,18.9-.93.06,0,.3,0,.22-.06C161,91.46,155,91.3,150,93.49c-6.42,2.79-10.49,9-13.27,15.16,0,.09.21.11.24,0Z"/><path class="cls-4" d="M148.45,119.27a6.09,6.09,0,0,1,7.07-4.66c3.3.55,5.26,3.68,5.63,6.8.71,6-4.12,10.44-9,12.86-.12.06.11.12.18.09,3.49-1.72,6.82-4.22,8.37-7.91a9.53,9.53,0,0,0-1.34-9.87c-3.27-3.61-10.24-2.47-11.13,2.7,0,.08.23.09.25,0Z"/><path class="cls-4" d="M67.8,83.69a52.72,52.72,0,0,1-.44-13.27c.21-2.13.4-4.48,1.51-6.35C70.29,61.69,73,61,75.54,60.62a34.18,34.18,0,0,1,15.11,1.73c3.95,1.28,7.53,3.34,11.42,4.75a10.92,10.92,0,0,0,8.05.24c3-1.24,5.23-3.79,8.3-4.87,5.82-2.05,12.78,1.73,18-2.35.08-.07-.15-.11-.22-.06-5.7,4.43-13.74-.33-20,3.24-1.31.75-2.48,1.7-3.74,2.52a10.68,10.68,0,0,1-9.89,1.33c-4.21-1.39-8-3.71-12.29-5a37.57,37.57,0,0,0-10.78-1.84c-2.82,0-6.26.1-8.76,1.6-2.85,1.7-3.32,5.07-3.64,8.09a52.78,52.78,0,0,0,.38,13.74c0,.09.26.08.25,0Z"/><path class="cls-4" d="M48.49,113.74c-3.31-.66-5.81,2.27-7.59,4.7a24.15,24.15,0,0,0-4.52,12.82c0,.08.24.09.25,0a24.28,24.28,0,0,1,2.6-9.69c1.62-3.14,5-8.55,9.19-7.72.12,0,.23-.09.07-.12Z"/><path class="cls-4" d="M61.69,127.12a4.11,4.11,0,0,0-4.6,2.4c-1.41,3,.06,6.86,1.1,9.72,2.61,7.16,7.35,15.67,2.16,22.86,0,.07.19.1.24,0,3.21-4.44,2.6-10.08.92-15C60.45,144,59,141.05,58,137.94a19.29,19.29,0,0,1-1.17-5.35c-.09-2.65,1.29-6,4.81-5.35.12,0,.23-.09.07-.12Z"/><path class="cls-4" d="M45.75,92.39A13.12,13.12,0,0,0,49,112.45c.07,0,.3,0,.18-.09A13,13,0,0,1,46,92.45c.08-.09-.16-.12-.22-.06Z"/><path class="cls-4" d="M49.38,92.63c-3.67,2.31-3.71,6.67-3.06,10.53.42,2.48,1,6,4,6.41.12,0,.23-.1.07-.12-3.27-.45-3.7-5.12-4-7.68-.42-3.42,0-7.06,3.2-9.05.12-.08-.11-.13-.18-.09Z"/><path class="cls-4" d="M63.38,91.19c2-6-3.37-10.5-8.57-12-3.79-1.11-12.73-3-13.08,3.28,0,.08.25.09.25,0,.38-6.89,11.78-4,15.68-2s7,6.19,5.47,10.73c0,.09.22.11.24,0Z"/><path class="cls-4" d="M69.31,85.18a24.82,24.82,0,0,1,1.12-15.64,20.16,20.16,0,0,1,1.52-3c1-1.58,1.4-1.86,3.34-2.33a5.31,5.31,0,0,1,3.25-.2,12.8,12.8,0,0,0,4.95.36c.16,0,.05-.14-.07-.12-2.72.51-5.24-1-7.93-.64-2.1.27-3.24,1.88-4.21,3.62a24.71,24.71,0,0,0-2.23,17.94c0,.09.27.07.25,0Z"/><path class="cls-4" d="M123.32,79.54l3.67-1a4.73,4.73,0,0,1,2.53,1.07,7.86,7.86,0,0,1,2.07,2.13,17.77,17.77,0,0,1,1.62,3.09,48.4,48.4,0,0,1,2.88,9.26,57.46,57.46,0,0,1,1,8.17c.14,2.34.35,4.53,1.9,6.4.05.07.29,0,.24,0-2.58-3.12-1.84-8-2.4-11.78a49.16,49.16,0,0,0-3.23-11.7c-1.63-3.9-5.94-9.36-10.5-5.64-.08.07.15.11.22.06Z"/><path class="cls-5" d="M78.75,173.91s1.08,10,1.59,15.51-2.76,18.1-2.76,18.1,7.27,34.31,32.1,34.31,34-34,34-34-12.58-13.06-8.49-30"/><path class="cls-6" d="M79.74,175.57c-.28.68,1.94,24.53,2.22,25.09s5.08,3.45,7.88,6.85a108.5,108.5,0,0,0,8.9,8.81s17.27-1.53,19.59,0,11-23.41,15.46-24.65c0,0,.84-9.59.85-13S79.74,175.57,79.74,175.57Z"/><path class="cls-7" d="M98,81c4.34,0,17,1,22.82-.8s18.32,19,18.64,32c1,8,1.93,8.52,2.25,10.12s1,13.34-1.61,20.25c1,6.11-3.21,18.48-3.21,22.5s-.48,18-13.5,19.28c-6.43,5.3-13.18,6.91-15.91,6.91s-16.87.07-22-5.27c-5.62.93-13.34-13.69-17.19-23.65-2.09-11.89-6.59-25.71-6.11-38.88,0,0-6.11-38.61,13-43.33S98,81,98,81Z"/><path class="cls-8" d="M93.57,122c0,1.08,1.32.18,1.32.18s11.38-1.09,13.32.09c.95.27,1-.55,1-.55s-.32-1.66-.68-1-14.46,0-14.46,0S93.57,120.89,93.57,122Z"/><path class="cls-9" d="M104.64,151.4c2.16-3.58,4.9-6.32,6.38-4.69.42.53-1.39,1.65-3.19,2.14"/><path class="cls-9" d="M101.37,151.4s-3.69-3.06-4.32-3.48a2.28,2.28,0,0,0-2.48,0,2.37,2.37,0,0,0,1.53,1.56"/><path class="cls-10" d="M101.9,152.19a11.85,11.85,0,0,0,2.37,0"/><path class="cls-10" d="M113.31,141.52c2.64,1.55,2.8,7.93-1.4,8.7"/><path class="cls-10" d="M93.1,141.52s-3.88,4.33-2.25,7.33,3.72,2.22,3.72,2.22"/><path class="cls-11" d="M111.91,120.56c4.28-4.48,8-8.53,17.23-1.13,0,0-7.14.09-9.69.44a53.69,53.69,0,0,0-6.7,1.66S111.68,121.6,111.91,120.56Z"/><path class="cls-11" d="M73.57,124.06c3-3.37,5.9-6.28,8.89-6.28s8,4,8.57,4.72S90,124.06,90,124.06,81.16,122.53,73.57,124.06Z"/><path class="cls-12" d="M98,125.3c.05,3.41-.69,9.6-2.46,10s-.53-5-.6-6.73c.6-1.49,2-4.51,2-4.51A1.17,1.17,0,0,1,98,125.3Z"/><path class="cls-12" d="M106.15,125.3c-.05,3.41.69,9.6,2.46,10s.53-5,.6-6.73c-.6-1.49-2-4.51-2-4.51A1.17,1.17,0,0,0,106.15,125.3Z"/><path class="cls-12" d="M117.59,145.87a16.84,16.84,0,0,1,1.74,2c1.31,1.82.66,2.3,1.69,3.56,1.33,1.62,8.08,7.26,8.86,9-2.88-1.33-9.52-8.44-10.19-9S116.59,147.24,117.59,145.87Z"/><path class="cls-13" d="M99,171.62c7,0,15.94-3.87,19.37-7.09-8.19-4.1-14.09-1.88-14.09-1.88s-11.26-2-15.47,2.21C90.45,168,95.22,171.18,99,171.62Z"/><path class="cls-14" d="M89.91,164.87a26.8,26.8,0,0,0,11.46,3.1c5.92,0,15.33-3.1,15.33-3.1s-3.76-3.1-13.12-1.22C103.58,163.65,92.79,162,89.91,164.87Z"/><path class="cls-12" d="M97.32,144c-2.74-.28-3.75-.51-3.81-2S97.09,138.85,97.32,144Z"/><path class="cls-12" d="M109.37,144c2.59-.95,3.51-1.41,3.19-2.92S108.32,138.94,109.37,144Z"/><path class="cls-15" d="M122.8,115.75a7.29,7.29,0,0,0-5.49.28c-1.15,1.61.06,4.24.06,4.24h0c.72-.17,1.44-.31,2.06-.39s1.71-.17,2.83-.23l1.25-.13C123.75,117.6,123.4,116.44,122.8,115.75Z"/><path class="cls-15" d="M78.32,119.44c0,.64,0,3,.62,4a54.92,54.92,0,0,1,6.84.14c1.13-.42,1.82-1.32,1.82-3.32a24.55,24.55,0,0,0-2-1.55,7.54,7.54,0,0,0-3.09-.91A7.14,7.14,0,0,0,78.32,119.44Z"/><path class="cls-16" d="M113,114.28s1.09-6.76,7.22-6.76,8.94,6.15,8.94,6.15"/><path class="cls-16" d="M71.37,116.13a12.75,12.75,0,0,1,8.69-5.23c5.84-.75,8.75,5.23,8.75,5.23"/><g class="cls-17"><path class="cls-18" d="M90.14,106.27a2.65,2.65,0,0,1-.07-1.18,4.39,4.39,0,0,0-2-3.81"/></g><g class="cls-17"><path class="cls-18" d="M88.25,106.66a4.89,4.89,0,0,0-1.64-4.92"/></g><g class="cls-17"><path class="cls-18" d="M86.55,105.15a4.28,4.28,0,0,0-2.45-3.35"/></g><g class="cls-17"><path class="cls-18" d="M84.08,105.34a2.69,2.69,0,0,0-.75-1.84,5.14,5.14,0,0,0-1.28-.88l-1.58-.83"/></g><g class="cls-17"><path class="cls-18" d="M81.85,105.16l-1.15-1.81c-.47-.75-1.08-1.58-2-1.64"/></g><g class="cls-17"><path class="cls-18" d="M85.52,104.94A6.76,6.76,0,0,0,83.41,102"/></g><g class="cls-17"><path class="cls-18" d="M79.59,104.62a5.78,5.78,0,0,0-3-2.67"/></g><g class="cls-17"><path class="cls-18" d="M77.11,105.24a1.77,1.77,0,0,0-.42-1.91,4.15,4.15,0,0,0-1.81-1"/></g><g class="cls-17"><path class="cls-18" d="M75.43,105.73c-.36-.33-.21-.91-.33-1.38-.2-.84-1.18-1.2-2-1.42"/></g><g class="cls-17"><path class="cls-18" d="M73,105.87a2.35,2.35,0,0,0-2-2"/></g><g class="cls-17"><path class="cls-18" d="M71.7,106l-1.11-.69"/></g><path class="cls-19" d="M70.17,107.24h0"/><g class="cls-17"><path class="cls-18" d="M73.6,105.31A6.66,6.66,0,0,0,72.38,103"/></g><g class="cls-17"><path class="cls-18" d="M75.73,105.31a3.35,3.35,0,0,0-.87-2.2"/></g><g class="cls-17"><path class="cls-18" d="M77.65,104.61a7.5,7.5,0,0,0-1.11-2.08"/></g><g class="cls-17"><path class="cls-18" d="M80.33,104.43a14.07,14.07,0,0,0-2.56-2.57"/></g><g class="cls-17"><path class="cls-18" d="M82.54,104.57a12.12,12.12,0,0,0-1.91-2"/></g><g class="cls-17"><path class="cls-18" d="M83.76,104.06a3,3,0,0,0-1-1.93"/></g><g class="cls-17"><path class="cls-18" d="M109.29,104.33a5.31,5.31,0,0,1,3.8-4.57"/></g><g class="cls-17"><path class="cls-18" d="M110.71,103.92a4.37,4.37,0,0,1,3.34-3.66"/></g><g class="cls-17"><path class="cls-18" d="M112.32,103.9A6.4,6.4,0,0,1,116,100"/></g><g class="cls-17"><path class="cls-18" d="M113.89,104.19a8.9,8.9,0,0,1,2.95-3.85"/></g><g class="cls-17"><path class="cls-18" d="M114.59,104.61a11.36,11.36,0,0,1,2.76-3.49"/></g><g class="cls-17"><path class="cls-18" d="M117.93,102.12a5.39,5.39,0,0,1,3.18-1.81"/></g><g class="cls-17"><path class="cls-18" d="M118.35,100.46a1.76,1.76,0,0,1,1.66-.69"/></g><g class="cls-17"><path class="cls-18" d="M116.39,99.6a2.76,2.76,0,0,1,2-.37"/></g><g class="cls-17"><path class="cls-18" d="M116.79,103.5a2.6,2.6,0,0,1,1.16-1.64"/></g><g class="cls-17"><path class="cls-18" d="M117.36,100l1-.69"/></g><g class="cls-17"><path class="cls-18" d="M122.33,100.15a2.32,2.32,0,0,1,2.1-.5"/></g><g class="cls-17"><path class="cls-18" d="M121.24,99.61a3.32,3.32,0,0,1,1.81-.67"/></g><path class="cls-8" d="M63,122.75c-1.11,6.37,6.36,12.2,11.81,13.4,6.38,1.41,15.08-.84,18.69-6.62,1.26-2,2.68-5.9,1.58-8.23-.68-1.45-2.43-2.44-3.75-3.19a31.91,31.91,0,0,0-15.71-4c-5.86.08-11.17,2.58-12.63,8.66-.05.22.68.27.75,0,2.67-11.14,17.1-9,25-5.4a16.69,16.69,0,0,1,4.59,2.79c1.51,1.41,1.39,3,1.06,5-1.25,7.59-9,11-16,11a15.23,15.23,0,0,1-11.47-5.27c-1.9-2.13-3.67-5.15-3.16-8.11C63.74,122.52,63,122.48,63,122.75Z"/><path class="cls-8" d="M107.84,121.43c.16,6.1,5.19,11.34,10.89,12.9a16.32,16.32,0,0,0,17.54-6.23c2.68-3.77,4.74-9.63.27-12.73-3.8-2.64-9.05-3.31-13.56-3-6.24.43-12.23,3.22-15.13,9-.12.25.61.33.72.1,4.49-9,17.08-10.93,25.61-6.88,4.2,2,5,5,3.47,9.33a15.6,15.6,0,0,1-16,10.52c-6.6-.59-12.92-6.13-13.1-13C108.58,121.17,107.83,121.17,107.84,121.43Z"/><polygon class="cls-8" points="140.71 118.63 138.89 118.63 138.82 119.39 140.64 119.3 140.71 118.63"/><polygon class="cls-8" points="63.85 120.93 61.76 120.93 61.69 121.69 63.77 121.6 63.85 120.93"/><circle class="cls-20" cx="120.09" cy="117.85" r="0.75"/><circle class="cls-20" cx="82.12" cy="120.74" r="0.75"/><path class="cls-11" d="M121.44,117.17s.75.58-.06,1.38C121.38,118.55,120.38,117.94,121.44,117.17Z"/><path class="cls-11" d="M83.64,119.91s.75.58-.06,1.38C83.59,121.29,82.58,120.68,83.64,119.91Z"/><path class="cls-12" d="M89.56,150.46s-7.43,9.67-7.43,12.39,2.73,8.67,2.73,8.67-4.5-8.26-3-10.35c1.26-2.31,7.29-11.14,7.29-11.14S89.49,150,89.56,150.46Z"/><path class="cls-12" d="M119.43,164.88a62.92,62.92,0,0,1,10.66,17S126.29,170.59,119.43,164.88Z"/><path class="cls-12" d="M85.42,186s1.41-8.78,2.9-10.8a51.43,51.43,0,0,0-3.51,10.9Z"/><path class="cls-12" d="M70,94.89a69.29,69.29,0,0,1,9.76-1.1,64.44,64.44,0,0,1,9.62.19,43.77,43.77,0,0,1,5.56.89,24.58,24.58,0,0,0,3.66,1.06,8.64,8.64,0,0,0,1.92-.36c2.2-.42,4.42-.76,6.64-1a76.66,76.66,0,0,1,21.26,0c.23,0,.47-.19.13-.24a76.1,76.1,0,0,0-20.19-.16q-3.64.4-7.24,1.05c-1.34.24-2.14.55-3.4.16-8.78-2.72-18.9-2.45-27.87-.7-.33.06-.1.29.13.24Z"/><path class="cls-12" d="M70,92.93a69.29,69.29,0,0,1,9.76-1.1,64.44,64.44,0,0,1,9.62.19,43.77,43.77,0,0,1,5.56.89A24.58,24.58,0,0,0,98.64,94a8.64,8.64,0,0,0,1.92-.36c2.2-.42,4.42-.76,6.64-1a76.66,76.66,0,0,1,21.26,0c.23,0,.47-.19.13-.24a76.1,76.1,0,0,0-20.19-.16q-3.64.4-7.24,1.05c-1.34.24-2.14.55-3.4.16-8.78-2.72-18.9-2.45-27.87-.7-.33.06-.1.29.13.24Z"/><path class="cls-12" d="M70,91.07A69.29,69.29,0,0,1,79.8,90a64.44,64.44,0,0,1,9.62.19,43.77,43.77,0,0,1,5.56.89,24.58,24.58,0,0,0,3.66,1.06,8.64,8.64,0,0,0,1.92-.36c2.2-.42,4.42-.76,6.64-1a76.66,76.66,0,0,1,21.26,0c.23,0,.47-.19.13-.24a76.1,76.1,0,0,0-20.19-.16q-3.64.4-7.24,1.05c-1.34.24-2.14.55-3.4.16-8.78-2.72-18.9-2.45-27.87-.7-.33.06-.1.29.13.24Z"/><g class="cls-21"><path class="cls-22" d="M112.3,106a26.35,26.35,0,0,1,10.14-3.75c.95-.14-2-4.92-3.39-4.71a27.59,27.59,0,0,0-10.6,3.86c-.79.49,2.68,5.32,3.86,4.6Z"/></g><g class="cls-21"><path class="cls-22" d="M71.55,106.29c1.49-1.72,6.36-.5,8.13-.43,2.88.11,5.18,1.15,8,1.37,1.6.13,3.4-4.75,3.69-4.73-1.92-.15-3.57-1.08-5.46-1.34a59.91,59.91,0,0,0-6.62-.31c-3.41-.09-5.4,1.08-7.55,3.55-1.34,1.54-2.92,5.06-.17,1.89Z"/></g><path class="cls-23" d="M22.83,26.22a5.88,5.88,0,0,1,0-.66,5.28,5.28,0,0,1,5.65-5.29c3.5,0,5.52,2.29,5.52,5a6,6,0,0,1-3.08,5l-3.23,2.07a4,4,0,0,0-2,2.29h8.39V37H22.63c.05-2.67,1.11-4.71,3.88-6.5l2.72-1.76a4.08,4.08,0,0,0,2.24-3.4,2.82,2.82,0,0,0-3.08-2.87c-2.14,0-3.15,1.49-3.15,3.35,0,.23,0,.48.05.73Z"/><path class="cls-23" d="M174.49,243.58a5.88,5.88,0,0,1,0,.66,5.28,5.28,0,0,1-5.65,5.29c-3.5,0-5.52-2.29-5.52-5a6,6,0,0,1,3.08-5l3.23-2.07a4,4,0,0,0,2-2.29h-8.39v-2.29h11.45c-.05,2.67-1.11,4.71-3.88,6.5l-2.72,1.77a4.08,4.08,0,0,0-2.24,3.4,2.82,2.82,0,0,0,3.07,2.87c2.14,0,3.15-1.49,3.15-3.35,0-.23,0-.48,0-.73Z"/><path class="cls-23" d="M36.13,52.74,29.31,41.88a.78.78,0,0,0-1.31,0L21.16,52.74a.78.78,0,0,0,0,.83L28,64.43a.78.78,0,0,0,1.31,0l6.83-10.87A.78.78,0,0,0,36.13,52.74Z"/><path class="cls-23" d="M176,216.68l-6.83-10.87a.78.78,0,0,0-1.31,0L161,216.68a.78.78,0,0,0,0,.83l6.83,10.87a.78.78,0,0,0,1.31,0L176,217.51A.78.78,0,0,0,176,216.68Z"/></svg>