<svg id="Layer_1" data-name="Layer 1" xmlns="http://www.w3.org/2000/svg" viewBox="0 0 196 266.67"><defs><style>.cls-1{fill:#f8e4e3;}.cls-2{fill:#6c5b4b;}.cls-3{fill:#c3996f;}.cls-4{fill:#e1b37f;}.cls-5{fill:#efc19b;}.cls-6{fill:#daa67d;}.cls-7{fill:#ecc3a0;}.cls-8{fill:#ebf4f0;}.cls-9{fill:#ddb796;}.cls-10{fill:#ddb290;}.cls-11{fill:#6b3720;}.cls-12{fill:none;stroke:#ddb290;stroke-miterlimit:10;stroke-width:0.5px;}.cls-13{fill:#e7bb9a;}.cls-14{fill:#f2c8a4;}.cls-15{fill:#2c1712;}.cls-16{fill:#f2ccae;}.cls-17{fill:#dead92;}.cls-18{fill:#5f513b;}.cls-19{fill:#1d1611;}.cls-20{fill:#9a2f33;}.cls-21{fill:#f5e0cd;}.cls-22{fill:#b04643;}.cls-23{opacity:0.15;}.cls-24{fill:#381c15;}.cls-25{fill:#be1e2d;}</style></defs><title>badbitchcards</title><rect class="cls-1" x="8.63" y="8.48" width="178.58" height="249.45" rx="8.5" ry="8.5"/><path class="cls-2" d="M65.41,201,142.27,198l.22-10.74a32.8,32.8,0,0,0-20.9-35.7L112.16,148l-49.43,1.61L58.78,165a48.18,48.18,0,0,0-1.26,7l-.62,6a24.14,24.14,0,0,0,3.75,15.64Z"/><path class="cls-3" d="M94.17,63.13c5.16-3.26,23.26,1.4,33.07,7.92s35,26.13,36.36,52.66,2.33,28.55,9.32,38.72,8.85,19.57,8.85,24.42,2.33,10.28,4.19,10.36,2.51,7.71-2.47,7.85-44.73,6.25-43.78-7.53-15.08-23.78-17.16-29.41-63.66-3.57-63.66-3.57.37,30,5.9,35.49a4.5,4.5,0,0,0,.77.62S53,211.92,43.33,198.44c0,0-2.11,4.34,0,8.11,0,0-15.62-10.53-15.32-14.76,0,0,.22,10.59.52,15.32,0,0-2.42-15.17-1.21-23.34s-8.46-22-7.25-36.35,9.36-27.64,11.17-30.68-5.74-5.09-3.62-10S46,79.57,53,71.12,73.77,58,84,60.55Z"/><path class="cls-4" d="M187.34,200a41.13,41.13,0,0,1-9.37-2.06A24.6,24.6,0,0,1,163.9,186a19.47,19.47,0,0,1,.38-18.76c1.88-3.33,3.84-6.42,5.43-9.69-4.12-6.81-5-12.08-6.11-33.85-1.4-26.53-26.55-46.14-36.36-52.66S99.33,59.87,94.17,63.13l-5.09-1.29-.32.3c-1.66,1.73-1.55,4.42,1.29,4.83,30.12,4.36,56.55,24.3,66.69,53.38a67.93,67.93,0,0,1,4.17,22.83,39.08,39.08,0,0,1-1.75,11.55c-1.29,4-3.73,7.32-5.86,10.88-3.67,6.12-5.23,12.75-3.27,19.75a28.23,28.23,0,0,0,12.12,15.87A36.6,36.6,0,0,0,173.49,206c4.86-.4,8.67-.86,10-.9C186.48,205,187.44,202.2,187.34,200Z"/><path class="cls-4" d="M94.17,63.13l-6.74-1.71A34.37,34.37,0,0,0,76.2,66.6c-2.48,1.72-4.75,3.72-7.29,5.35a105.53,105.53,0,0,0-9.39,6.29c-10,8.05-13.58,20.81-14,33.18-.51,14.53,1,28.6-3.82,42.64-2.19,6.42-5.48,12-9,17.78a55.69,55.69,0,0,0-5.36,11.42c0,.17,0,.35-.05.52-1.21,8.17,1.21,23.34,1.21,23.34-.3-4.73-.52-15.32-.52-15.32-.3,4.23,15.32,14.76,15.32,14.76-1.85-3.3-.46-7-.09-7.92,0-1.09.1-2.18.17-3.24.37-5.44.92-10.95,2.8-16.1,1.71-4.69,4.65-8.76,7.16-13a80.32,80.32,0,0,0,6.81-14.67c3.63-10.65,4-21.56,3.85-32.71-.17-10.15-.34-21,4.23-30.31a24,24,0,0,1,9.39-10C80.49,76.8,83.3,75,86,73l1.83-1.42A17.9,17.9,0,0,0,98.21,69c2.36-1.41,5.75-5,1.73-6.84l-.3-.11A10.46,10.46,0,0,0,94.17,63.13Z"/><path class="cls-5" d="M64.5,164.18s1.09,10,1.59,15.52-2.76,18.11-2.76,18.11,7.28,34.34,32.12,34.34,34-34,34-34-12.59-13.07-8.5-30.07"/><path class="cls-6" d="M106.72,179.68c-9.54,6-13.57,7.16-17.38,7.16s-10.75-4.48-12.09-5.37c-1.09-.73-6.17-2.19-10.2-5.72h0c1,4.82,5.5,16,9.3,19.82s8.51-.45,11.42,0,11.64,3.13,15,0,13.66-12.76,15.67-16.79a36.54,36.54,0,0,0,2.84-8.41C117.67,176.47,114,178,106.72,179.68Z"/><path class="cls-7" d="M86.2,81.15c10.92,0,21.17,1.58,23.63,5.76s12.07,24.38,12.56,26.59.49,4.68,1,6.16,7.17,29.81,1.79,43-8.68,15.23-18.44,17.46c-9.54,6-13.57,7.16-17.38,7.16s-10.75-4.48-12.09-5.37-8.73-2.91-12.76-8.51-7.39-13.21-7.61-15,0-8.06,0-9.63-2.69-20.37-1.34-28.44,3.13-28.21,6-31.35S72.2,81.15,86.2,81.15Z"/><path class="cls-8" d="M116.12,123.25c-1.3,1.08-3,1.58-7.06,1.58a33.18,33.18,0,0,1-8.38-1.34s4.19-3.15,8.74-3C111.76,120.51,115.62,122.8,116.12,123.25Z"/><path class="cls-8" d="M65.14,122.66s4.34,1.65,7.19,1.62,6.4-.69,7.7-1.62l.23-.28s-3.3-2.3-3.87-2.54a8.78,8.78,0,0,0-8.4.64Z"/><path class="cls-9" d="M122.39,113a24.1,24.1,0,0,0-1.1-2.84c.2,1.85,1,6.62,1.12,8.61a19,19,0,0,0,1.15,5.31,78.48,78.48,0,0,1,2.15,12c0,2-1.7,4.78-1.08,6.94s1.08,15.89-1.13,21.59l-2.21,5.7h0a61.91,61.91,0,0,0,3.88-8.15c5.37-13.21-1.3-41.54-1.79-43S122.88,115.26,122.39,113Z"/><path class="cls-10" d="M73.58,149c2-3.61,6.79-9.54,7.37-9.54S80.39,140.75,73.58,149Z"/><path class="cls-10" d="M101.77,140.28c1.1,1.8,9,8.76,9.78,12.75a15,15,0,0,1-1.64,9.39s2.19-5.87,1-8.29S101.77,140.28,101.77,140.28Z"/><path class="cls-11" d="M82.7,146c1.63-1.16,2.61-1.92,6.74,2.61"/><path class="cls-11" d="M96.64,147.41c2.15-1.86,3.6-2.73,4.41-1.8s-.81,1.51-.81,1.51"/><path class="cls-12" d="M90.25,149c1.22.46,3.72.81,5.05-.41"/><path class="cls-13" d="M86.73,121.55c.09,2.46-3.31,15.51-4.44,17.11s-2.08,4.06-.38,6.47a3.61,3.61,0,0,1,0-4.11c1.42-2.36,5.57-4.61,6.33-7.26s.54-13.08.54-13.08A2.86,2.86,0,0,0,86.73,121.55Z"/><path class="cls-14" d="M90.25,141.14a10.58,10.58,0,0,1-1.68,3.14s.9,3.14,3.41,3.14a5,5,0,0,0,3.89-2.18s-.87-3.13-.57-4.1A5,5,0,0,1,90.25,141.14Z"/><path class="cls-15" d="M97.71,113.48a8.18,8.18,0,0,1-1.16-2.26,1.72,1.72,0,0,1,.09-1.36"/><path class="cls-15" d="M98.6,113.49a9.25,9.25,0,0,1-.88-1.88,2.44,2.44,0,0,1,0-2"/><path class="cls-15" d="M99.62,113.2l-.43-.79A5.47,5.47,0,0,1,98.6,111a1.85,1.85,0,0,1,.23-1.46"/><path class="cls-15" d="M100.19,113c.13-.63-.41-1.2-.55-1.83a1.57,1.57,0,0,1,.51-1.51"/><path class="cls-15" d="M101.2,112.95a5.39,5.39,0,0,1,.18-2.88,2.88,2.88,0,0,1,2.09-1.64"/><path class="cls-15" d="M102,113.18l0-.52a6.5,6.5,0,0,1,.36-2.12,3.28,3.28,0,0,1,1.85-1.8"/><path class="cls-15" d="M102.95,113a4.05,4.05,0,0,1,.69-2.27,7.7,7.7,0,0,1,1.64-1.76"/><path class="cls-15" d="M104.06,112.67a16.78,16.78,0,0,1,.93-2.45,4.41,4.41,0,0,1,1.48-1.28"/><path class="cls-15" d="M104.79,112.76a9,9,0,0,0,.94-2,2.37,2.37,0,0,1,1.53-1.5"/><path class="cls-15" d="M106.2,112.51a5.56,5.56,0,0,0,.88-1.76,2.94,2.94,0,0,1,1.13-1.58"/><path class="cls-15" d="M107.67,112.12a4.16,4.16,0,0,0,.69-1.6,1.83,1.83,0,0,1,1.07-1.31"/><path class="cls-15" d="M108.69,111.85a6.81,6.81,0,0,0,.81-1.54,2.41,2.41,0,0,1,1.13-1.28"/><path class="cls-15" d="M109.94,111.78c-.15-.12,0-.35.16-.48a4.22,4.22,0,0,0,.69-1.2,1.58,1.58,0,0,1,1-.93"/><path class="cls-15" d="M111.15,111.24c.82-.47,1-1.79,1.88-2"/><path class="cls-15" d="M112.38,111.08a4.32,4.32,0,0,0,.89-1.08,1.23,1.23,0,0,1,1.19-.58"/><path class="cls-15" d="M113.39,110.77l1.3-.88c.24-.17.62-.32.79-.08"/><path class="cls-15" d="M114.49,110.75a2.52,2.52,0,0,1,2.22-.47"/><path class="cls-15" d="M115.45,111.14a3.24,3.24,0,0,1,2.08-.25"/><path class="cls-15" d="M116.12,111.46a1,1,0,0,0,1,.13,1.59,1.59,0,0,1,1-.09"/><path class="cls-15" d="M117.23,112.27a2,2,0,0,0,1.14-.16c.22-.1.55-.21.64,0"/><path class="cls-15" d="M118.13,113a1.13,1.13,0,0,1,1.28-.2"/><path class="cls-15" d="M118.57,113.54l1-.23"/><path class="cls-15" d="M119.1,114.2a.63.63,0,0,0,.74-.42"/><path class="cls-15" d="M119.35,115a.52.52,0,0,0,.89-.41"/><path class="cls-15" d="M120,115.92a.46.46,0,0,0,.67-.27"/><path class="cls-15" d="M120.6,116.77a.26.26,0,0,0,.49-.14"/><path class="cls-15" d="M82.24,112.87a2.84,2.84,0,0,0,.67-3"/><path class="cls-15" d="M80.71,112.91a3.28,3.28,0,0,0,.4-3.66"/><path class="cls-15" d="M79.2,112.68a3.8,3.8,0,0,0-.35-4.17"/><path class="cls-15" d="M78.45,112.47a10.66,10.66,0,0,1-.06-2.41,2.2,2.2,0,0,0-1-2"/><path class="cls-15" d="M77.28,112l-.58-2.91c-.11-.53-.34-1.18-.88-1.23"/><path class="cls-15" d="M75.93,111.84a7.21,7.21,0,0,0-1.37-4.16"/><path class="cls-15" d="M73.34,107.2a7.33,7.33,0,0,1,1.37,3.93"/><path class="cls-15" d="M71.67,107c.92.07,1.43,1.1,1.63,2a10.34,10.34,0,0,1,.22,1.64"/><path class="cls-15" d="M70,106.78a8.5,8.5,0,0,1,2.24,3.05"/><path class="cls-15" d="M68.68,107l.66.05a3.89,3.89,0,0,1,.83,1.2"/><path class="cls-15" d="M69.73,109.11a3,3,0,0,0-1.92-1.63"/><path class="cls-15" d="M60.7,115.4a1.16,1.16,0,0,0-1-.74"/><path class="cls-15" d="M61.11,113.84a1.44,1.44,0,0,0-1-.59"/><path class="cls-15" d="M61.57,113.11l-.56-.86"/><path class="cls-15" d="M62.14,112.12a1.36,1.36,0,0,0-.72-.85"/><path class="cls-15" d="M63,110.92c-.11,0-.17-.12-.22-.22s-.13-.21-.23-.19,0,.24,0,.15"/><path class="cls-15" d="M63.83,109.85l-.71-.57"/><path class="cls-15" d="M64.55,109.41a.63.63,0,0,0-.15-.52c-.07-.08-.21-.14-.29-.07s.1.22.12.11"/><path class="cls-15" d="M65.85,108.55l-.57-1"/><path class="cls-15" d="M67.39,108.42A4.09,4.09,0,0,0,66,107.28"/><path class="cls-16" d="M63.83,123.42a15.88,15.88,0,0,1-.71-3.88,12.93,12.93,0,0,1,8.55-3.73,11.81,11.81,0,0,1,9.82,4.7l1.89,2.37s-.12.86-1.14.54a27.85,27.85,0,0,1-4.91-3,8.47,8.47,0,0,0-7.16-1,16.1,16.1,0,0,0-5.85,4.09Z"/><path class="cls-17" d="M67.25,116.77a13.74,13.74,0,0,0-4.13,2.77A32.81,32.81,0,0,0,61.45,123a15.73,15.73,0,0,0,2.84.35,17.81,17.81,0,0,1,5.89-4,8.47,8.47,0,0,1,7.16,1,27.85,27.85,0,0,0,4.91,3C76.66,115.82,67.26,116.77,67.25,116.77Z"/><path class="cls-16" d="M99.61,124.19c-.45-.83,2.21-7.42,9.82-7.42a12.7,12.7,0,0,1,10.82,5.34s-.36,2-1.68,2.08-5.56-3.71-9.14-3.71a14.75,14.75,0,0,0-8.74,3Z"/><path class="cls-17" d="M118.57,124.19c.57.21,1.52.51,1.78.14.43-.6-.1-2.22-.1-2.22s-12.22-8.38-19.56,1.38a14.75,14.75,0,0,1,8.74-3C113,120.48,117.25,124.3,118.57,124.19Z"/><path class="cls-18" d="M112.28,121.12a7.9,7.9,0,0,0-2.85-.64,14.15,14.15,0,0,0-3.76.55s.07,3.8,3.39,3.8c1.31,0,3.82-.76,3.55-3.5Z"/><path class="cls-19" d="M107,120.73a13.48,13.48,0,0,1,3.18-.19,1.83,1.83,0,0,1,.45,1.4,1.67,1.67,0,0,1-1.81,1.31C108,123.25,107,123,107,120.73Z"/><path class="cls-10" d="M99.91,124.83a2.12,2.12,0,0,0,2.74-.83l-2-.51-1.08.7Z"/><path class="cls-18" d="M70.17,119.41a11.1,11.1,0,0,0-1.41.63,3.66,3.66,0,0,0,3.49,3.67,3.45,3.45,0,0,0,3.56-4.11A8.4,8.4,0,0,0,70.17,119.41Z"/><path class="cls-19" d="M70.71,119.24s-.07,3,2.54,2.84c0,0,1.55-.12,1.7-1.41s-.23-1.4-.23-1.4A6,6,0,0,0,70.71,119.24Z"/><path class="cls-10" d="M81.49,123.71c-.61.7-2.68-.46-2.68-.46a2.66,2.66,0,0,0,1.46-.87l1.35.78Z"/><path class="cls-9" d="M71.14,128.24c6.12,0,8.69-1.21,10.35-4.53,0,0-1,.59-2.68-.46,0,0-7.81,2.31-13.67-.59A3.34,3.34,0,0,1,63,123.85,10.07,10.07,0,0,0,71.14,128.24Z"/><path class="cls-9" d="M102.65,124s.06.94-2.74.83a10.41,10.41,0,0,0,9.52,4.67c6.38-.57,8.3-4.24,8.7-5.31l-2-.95S112.21,126.26,102.65,124Z"/><path class="cls-20" d="M75,159.13c.84-1.06.6-3.27,6-3.77s8.66.08,10.22,1c0,0,8.92-2.27,13.68.33a3.71,3.71,0,0,1,2.1,3s-2.67.49-3.33,1.39-3.36,4.91-12,4.91S75,159.13,75,159.13Z"/><path class="cls-21" d="M75,159.13c1.21-.65,17.24.33,17.24.33,2.65.91,13.45,0,13.45,0-3.55-1.23-14.47-.57-14.47-.57-3.94-1.15-14.16-.49-15.32-.33Z"/><path class="cls-22" d="M91.2,160.6c3.24,0,4.63.07,5.43.89s.2,4.07-1.34,4.25-6,.49-8.83-.47C86.47,165.27,83.62,160.46,91.2,160.6Z"/><path class="cls-10" d="M91.62,166a22.62,22.62,0,0,1-9.38-2.32h0s.48,4,8.09,4.62c7.61,0,9.3-3.88,9.3-3.88h0A18.26,18.26,0,0,1,91.62,166Z"/><path class="cls-10" d="M82.67,130.89a3,3,0,0,0,1,2.57c.44.22.38.6,0,.76S81.28,132.69,82.67,130.89Z"/><rect class="cls-8" x="106.31" y="120.93" width="0.89" height="0.52" rx="0.26" ry="0.26"/><rect class="cls-8" x="108.73" y="120.73" width="1.05" height="1.46" rx="0.52" ry="0.52"/><rect class="cls-8" x="70.01" y="119.72" width="0.89" height="0.52" rx="0.26" ry="0.26"/><rect class="cls-8" x="72.43" y="119.52" width="1.05" height="1.46" rx="0.52" ry="0.52"/><path class="cls-9" d="M61.58,89c-2.91,3.13-4.7,23.29-6,31.35a36,36,0,0,0-.37,5.44c0,9,1.72,21.27,1.72,22.53,0,.11,0,.24,0,.39s0,.06,0,.08c0,1-.1,4-.1,6.53a26.32,26.32,0,0,0,.1,2.63,25.13,25.13,0,0,0,2,5.3c-2.86-9.91,6.14-10.64,5.2-14.62s-4.88-7.66-5.43-10.39-.73-14.74-.73-19.48c0-4.56,5.57-27.32,9.06-33.63A19.57,19.57,0,0,0,61.58,89Z"/><path class="cls-9" d="M77.25,181.94c1.34.9,8.28,5.37,12.09,5.37s7.84-1.12,17.38-7.16a33,33,0,0,0,7.9-2.58c-.09-.7-.51-3.29-2-3.32-1.72,0-5.4,4.46-11,8.56s-17.09,2.88-20.79,1.11-9.26-9.42-10.26-9.64-1.2.7-1.66,3.37C72.5,180.16,76.32,181.32,77.25,181.94Z"/><path class="cls-14" d="M89.57,117.33s3.28-1,4.43-.16l1,21.15s-3.93.49-4.75-.33S89.57,117.33,89.57,117.33Z"/><g class="cls-23"><path class="cls-24" d="M121.17,114.28c-1.72-3.73-3.93-5.94-8.2-6.26a18.72,18.72,0,0,0-7.09,1.06c-1.35.42-7.23,2.84-7.13.1l-1.43,2.4c.4-.46,5.73-.08,6.31-.08,2.4,0,4.79.13,7.19.32l2.46-3.58c-4.36.93-11.16,3.83-14.78.26-.41-.41-3.39,2.93-2.77,3.55,3.82,3.77,10.59.75,15.09-.22.83-.18,3.09-3.53,2.46-3.58-2.66-.21-5.32-.34-8-.32-1.89,0-4.81-.35-6.49.64-1,.61-3.21,2.9-3,4.25.62,3.24,8.16-.42,9.87-.81,5.92-1.34,10.2.45,12.68,5.83,0,.08,3.28-2.44,2.77-3.55Z"/></g><g class="cls-23"><path class="cls-24" d="M60.64,114.76c2.4-4,6.82-4.42,11.08-4.13,1.89.13,8,.44,8.29,2.79a.29.29,0,0,0,.32.25c1.2.22,1.77-.58,2.55-1.43.19-.21,1.91-2.28,1.18-2.7l-1.82-1-2.77,3.55.91.83L82.05,110c-.85.69-5.52-1.63-7-2.05a19.18,19.18,0,0,0-8.19-.74l-.58,2.3c-.33.45,4.55.7,4.45.69a30.67,30.67,0,0,1,5,1c1,.29,3.5-3.35,2.35-3.67-4-1.1-10.17-2.95-13,1,0,.07-1.56,2.44-.58,2.3,4.23-.61,7.77.71,11.8,1.85,2.26.63,3.58,1.37,5.41-.12.52-.42,2-2,1.68-2.88s-.19-.75-1.13-1.21c-1.09-.54-3.59,3.09-2.77,3.55l1.82,1,1.18-2.7c1.47-1.59-2.74-2.37-3.64-2.61a24.55,24.55,0,0,0-10.36-.56c-4.78.78-7.31,3.58-9.71,7.58-1.58,2.64.94,1.54,1.89,0Z"/></g><path class="cls-25" d="M21.25,30.5l2.47-.55v1.69c0,2.37,1.29,3.43,3.08,3.43s2.92-1.18,2.92-3.25V19.11h2.47V31.64c0,3.12-2,5.72-5.37,5.72-3.5,0-5.57-2.27-5.57-5.7Z"/><path class="cls-25" d="M175.07,239.29l-2.47.55v-1.69c0-2.37-1.29-3.43-3.08-3.43s-2.92,1.18-2.92,3.25v12.71h-2.47V238.16c0-3.13,2-5.72,5.37-5.72,3.5,0,5.57,2.27,5.57,5.7Z"/><path class="cls-25" d="M36.13,52.74,29.31,41.88a.78.78,0,0,0-1.31,0L21.16,52.74a.78.78,0,0,0,0,.83L28,64.43a.78.78,0,0,0,1.31,0l6.83-10.87A.78.78,0,0,0,36.13,52.74Z"/><path class="cls-25" d="M176,216.68l-6.83-10.87a.78.78,0,0,0-1.31,0L161,216.68a.78.78,0,0,0,0,.83l6.83,10.87a.78.78,0,0,0,1.31,0L176,217.51A.78.78,0,0,0,176,216.68Z"/></svg>